<?xml version="1.0" encoding="UTF-8"?>
<svg id="Layer_1" xmlns="http://www.w3.org/2000/svg" version="1.1" viewBox="0 0 77.2 36.9">
  <!-- Generator: Adobe Illustrator 29.1.0, SVG Export Plug-In . SVG Version: 2.1.0 Build 142)  -->
  <defs>
    <style>
      .st0 {
        fill: #fc0;
      }

      .st1 {
        fill-rule: evenodd;
      }

      .st1, .st2 {
        fill: #fff;
      }

      .st3, .st4 {
        isolation: isolate;
      }

      .st5 {
        fill: red;
      }

      .st4 {
        font-family: ArialNarrow, 'Arial Narrow';
        font-size: 6.7px;
      }
    </style>
  </defs>
  <g id="bundesadler">
    <path d="M14.8,12c.3.4.7.9,1.3,1.4-.9,0-1.4,0-2.2-1.2v-.3c-.1,0-2-3-2-3-.1,0-.3,0-.4.1l1.8,2.9.5.8c.2.4.7,1.1,1.4,1.6-.9,0-1.4,0-2.2-1.2l-.8-1.3-1.6-2.6c-.1.2-.2.4-.2.6,0,.7.3,1.4.7,2,.3.4.7.8,1.1,1.2h-.7c.2.5.7,1.2,1,1.5.3,0,.8-.1,1.1-.1s.4.2.4.3c0,.3-.1.5-.3.6,0-.1-.2-.3-.8-.3.1.2.6.6.6,1s-.3.6-.6.6v-.2c0-.3-.3-.6-.4-.9h0c0,.8,0,1.1-.5,1.1s-.3-.1-.4-.1c.3-.3.3-.4.3-.8v-.6h-.3s-.6,0-.7.3c-.1-.1-.4-.4-.4-.6s0-.3.4-.3h.8c0-.2-.4-.7-.8-1.1,0,.1-.1.3-.3.4,0-.3-.2-1-.6-1.5,0,.3-.1.6-.1,1.3,0,1.7.4,2.9,1.3,3.1-.1.2-.3.4-.6.4s-.5-.3-.7-.7c0,.3-.3.9-.6.9s-.5-.6-.6-.9c-.2.3-.3.7-.7.7s-.5-.2-.6-.4c.9-.2,1.3-1.4,1.3-3.1s0-1-.1-1.3c-.4.5-.6,1.3-.6,1.5-.2-.1-.3-.3-.3-.4-.3.4-.7.9-.8,1.1h.8c.3,0,.4.2.4.3,0,.2-.2.4-.4.6,0-.3-.7-.3-.7-.3h-.3v.6c0,.4,0,.6.3.8,0,0-.2.1-.4.1-.4,0-.5-.3-.5-1s0,0,0-.1c-.2.2-.4.6-.4.9s0,.1,0,.2c-.3,0-.6-.3-.6-.6s.5-.8.7-1c-.6,0-.8.2-.8.3,0-.1-.3-.4-.3-.6s0-.3.3-.3.8,0,1.1.1c.3-.3.7-1,1-1.5h-.7c.4-.3.8-.7,1.1-1.2.4-.6.7-1.3.7-2s0-.4-.1-.6l-1.7,2.6-.8,1.3c-.7,1.2-1.3,1.2-2.2,1.2.7-.6,1.2-1.3,1.4-1.6l.5-.8,1.8-2.9c0,0-.3,0-.4-.1l-1.9,3v.3c-.9,1.2-1.4,1.2-2.3,1.2.6-.4,1-1,1.3-1.4v-.2c0,0,2.1-3.2,2.1-3.2,0,0-.2-.1-.3-.2l-1.6,2.6c-.3.6-.6.8-1,1s-.7.2-1.2.2l.2-.2c.6-.5,1-1.1,1.2-1.4l1.7-2.7c0,0-.2-.2-.3-.3l-1.2,1.9c-.7,1.2-1.3,1.2-2.2,1.2.7-.6,1.2-1.3,1.4-1.6l1.4-2.2c0,0,0-.3-.2-.4l-.7,1.1c-.7,1.2-1.3,1.2-2.2,1.2.7-.6,1.2-1.3,1.4-1.6l1.3-2.2c0-.7.5-1.3,1-1.7-.2,0-.3,0-.4-.2.9,0,1.7-.4,2.2-.4s.5.2.5.4-.3.6-.8.6-.3,0-.4,0c-.3.4-.5.7-.5,1.2,0,.9,1.1,1.7,2.3,1.7h.2c.2-.8.7-1.3,1.1-1.7-.4,0-1-.6-1-.8,0,0,.9.3,1,.3s.3-.2.3-.2c-.1,0-.6,0-1-.2-.3,0-.4-.3-.4-.4,0,0,.4.2,1,.2s.2,0,.4,0c-.1-.3-.4-.6-.7-.6s-.4,0-.6.2c0-.2-.3-.5-.3-.7s.2-.4.7-.4.3,0,.4,0h.3c0,0,0-.2.3-.2s.9,0,1.4,0,.2,0,.3,0c0,0-.2.3-.3.4,0,0,.3.4.3.9s-.5,1.3-.5,2.1.3.9.4,1.1h.2c1.2,0,2.3-.7,2.3-1.7s-.2-.9-.5-1.2h-.4c-.5,0-.8-.3-.8-.6s.2-.4.5-.4c.5,0,1.3.4,2.2.4,0,0-.2,0-.4.2.5.4.9,1.1,1,1.7l1.3,2.2c.2.4.7,1.1,1.4,1.6-.9,0-1.4,0-2.2-1.2l-.7-1.1c0,0-.1.3-.2.4l1.4,2.2c.2.4.7,1.1,1.4,1.6-.9,0-1.4,0-2.2-1.2l-1.2-1.9c0,0-.2.2-.3.3l1.7,2.7c.2.3.6.9,1.2,1.4l.2.2c-.5,0-.9,0-1.2-.2-.3-.1-.6-.4-1-1l-1.6-2.6c-.1,0-.2.1-.3.2l2,3.2v.2h.4-.2Z"/>
    <g>
      <path class="st1" d="M7.6,13.4c0-.2,0-.3-.3-.3s0,0-.2,0c-.2.6-1,1.6-1.1,1.7-.3,0-.8-.1-1.2-.1s-.2,0-.2.2,0,.3,0,.4c0-.2.4-.3.8-.3h.4c-.4.4-.9.8-.9,1.1s0,.3.3.4c0-.4.4-.9.7-1.2v.4c0,.7,0,.8.3.8s0,0,0,0c0-.1-.2-.4-.2-.8s0-.2,0-.3v-.4h.5c.4,0,.6,0,.7.2,0,0,.3-.3.3-.4s0-.2-.2-.2h-1c0-.4.5-.9,1-1.4h0v.2Z"/>
      <path class="st2" d="M11.8,14.9h-1c-.1,0-.2,0-.2.2s.1.3.3.4c.1-.1.4-.2.7-.2h.5v.7c0,.4,0,.6-.2.8h.1c.3,0,.3-.1.3-.8s0-.4,0-.4c.4.3.7.8.7,1.2.1,0,.3-.3.3-.4,0-.3-.4-.6-.9-1.1h.4c.3,0,.6,0,.8.3,0,0,.1-.3.1-.4,0-.2-.1-.2-.2-.2-.4,0-.8,0-1.2.1-.1-.1-.9-1.2-1.1-1.7h-.2c-.2,0-.2.1-.3.3.4.5.8,1,1,1.4h0v-.2Z"/>
      <path class="st2" d="M14,5c0-.8-.6-1.4-.8-1.6h-.1c.2.3.6.8.6,1.4,0,1.2-1.3,2.2-2.7,2.2v.8c1.6,0,3-1.3,3-2.8h0Z"/>
      <path class="st2" d="M4.8,4.8c0-.6.4-1,.6-1.3h0c-.2,0-.8.8-.8,1.6,0,1.4,1.4,2.7,3.1,2.8v-.8c-1.4,0-2.7-1-2.7-2.2h0Z"/>
      <path class="st2" d="M9.2,3.6c0-.2.2-.4.2-.6,0-.6-.5-.9-1.2-.9s-.5,0-.5.2,0,.4,0,.4c0,0,.4,0,.5,0,.5,0,.8.5.9,1h0Z"/>
      <path class="st1" d="M9.5,2.8c.4,0,.7-.4.3-.5,0,.2-.2.3-.2.3,0,0-.1-.2,0-.4-.2,0-.3,0-.3.2s.1.3.2.4h0Z"/>
    </g>
  </g>
  <g id="flag">
    <rect x="21.5" y=".4" width="2.1" height="11.9"/>
    <rect class="st5" x="21.5" y="12.3" width="2.1" height="11.9"/>
    <rect class="st0" x="21.5" y="24.3" width="2.1" height="11.9"/>
  </g>
  <g id="text">
    <g class="st3">
      <g class="st3">
        <text class="st4" transform="translate(27.8 7.1)"><tspan x="0" y="0">Federal Ministry</tspan></text>
      </g>
    </g>
    <g class="st3">
      <g class="st3">
        <text class="st4" transform="translate(27.8 14.3)"><tspan x="0" y="0">for Economic Affairs</tspan></text>
      </g>
    </g>
    <g class="st3">
      <g class="st3">
        <text class="st4" transform="translate(27.8 21.5)"><tspan x="0" y="0">and Cimate Action</tspan></text>
      </g>
    </g>
  </g>
</svg>