<svg xmlns="http://www.w3.org/2000/svg" version="1.1" id="Layer_1" x="0" y="0" xml:space="preserve" width="100" height="35.053"><style type="text/css" id="style2">.st0{fill:#62003c}</style><g id="g943" transform="translate(0 -.1) scale(.52632)"><g id="g16"><g id="g10"><path id="path8" d="M184.6 0c-3 0-5.4 2.4-5.4 5.4 0 3 2.4 5.4 5.4 5.4 3 0 5.4-2.4 5.4-5.4 0-3-2.4-5.4-5.4-5.4" class="st0" style="fill:#62003c"/></g><g id="g14"><path id="path12" d="M173.1 18.8c1.8 0 3.3-1.5 3.3-3.3 0-1.8-1.5-3.3-3.3-3.3-1.8 0-3.3 1.5-3.3 3.3-.1 1.8 1.4 3.3 3.3 3.3" class="st0" style="fill:#62003c"/></g></g><path id="rect18" class="st0" style="fill:#62003c" d="M48.4 24.4H52v20.1h-3.6z"/><g id="g26"><path id="path20" d="M82.8 33.1c.5-3.5 2.9-5.9 5.9-5.9 3.8 0 5.5 3 5.8 5.9zm6-9.1c-5.5 0-9.7 4.5-9.7 10.5S83.5 45 89.2 45c3.4 0 5.9-1.2 8.2-3.8l.2-.3-2.3-2.1-.2.2c-1.7 1.8-3.6 2.6-5.9 2.6-3.4 0-6-2.3-6.5-5.9H98v-1.2c.2-6.2-3.5-10.5-9.2-10.5" class="st0" style="fill:#62003c"/><path id="path22" d="M14.1 44.5h3.5V24.4h-3.5v11.5c0 3.4-2.3 5.7-5.5 5.7s-5-2.1-5-5.5V24.4H0v12.4c0 4.9 3.1 8.1 7.8 8.1 2.6 0 4.7-1 6.3-3.1z" class="st0" style="fill:#62003c"/><path id="path24" d="M38.3 32.8v11.7h3.6V32.1c0-4.9-3.1-8.1-7.8-8.1-2.6 0-4.8 1-6.3 3v-2.6h-3.6v20.1h3.6V33.1c0-3.4 2.3-5.7 5.5-5.7 3.1-.1 5 2 5 5.4" class="st0" style="fill:#62003c"/></g><path id="polygon28" class="st0" style="fill:#62003c" d="M65.3 44.7h3l8.8-20.3h-3.9L66.9 40l-6.3-15.6h-4z"/><g id="g46"><g id="g32"><path id="path30" d="M107 36.4c0-5.2 2.9-8.6 7.4-8.6h.6V24h-.3c-3.1-.1-5.9 1.5-7.6 4.4v-4h-3.6v20.1h3.6z" class="st0" style="fill:#62003c"/></g><g id="g36"><path id="path34" d="M156.5 44.9c1.4 0 2.5-.3 3.7-.9l.2-.1v-3.2l-.5.2c-1 .5-1.7.6-2.7.6-2 0-2.9-.9-2.9-2.9v-11h6.2v-3.2h-6.2v-6.6l-3.6 2v4.7h-3.8v3.2h3.8V39c0 3.8 2.1 5.9 5.8 5.9" class="st0" style="fill:#62003c"/></g><g id="g40"><path id="path38" d="M173.2 27.1c3.8 0 5.5 3 5.8 5.9h-11.7c.5-3.4 2.9-5.9 5.9-5.9m.5 17.9c3.4 0 5.9-1.2 8.2-3.8l.2-.3-2.3-2.1-.2.2c-1.7 1.8-3.6 2.6-5.9 2.6-3.4 0-6-2.4-6.5-5.9h15.3v-1.2c0-6.4-3.8-10.6-9.4-10.6-5.5 0-9.7 4.5-9.7 10.5.2 6.1 4.5 10.6 10.3 10.6" class="st0" style="fill:#62003c"/></g><g id="g44"><path id="path42" d="M126.9 32.8c-2.5-.8-4.8-1.4-4.8-3.1 0-1.5 1.4-2.5 3.4-2.5 1.8 0 3.7.6 5.6 1.8l.3.2 1.7-2.8-.3-.2c-2.1-1.4-4.8-2.2-7.2-2.2-4.1 0-7 2.4-7 5.9v.1c0 3.9 3.9 5 6.7 5.8 2.6.7 4.6 1.4 4.6 3.2 0 1.6-1.5 2.7-3.7 2.7s-4.4-.8-6.5-2.4l-.3-.2-1.9 2.6.2.2c2.2 1.8 5.4 2.9 8.3 2.9 4.3 0 7.2-2.5 7.2-6.2v-.1c.2-3.8-3.7-5-6.3-5.7" class="st0" style="fill:#62003c"/></g></g><path id="rect48" class="st0" style="fill:#62003c" d="M139.1 24.4h3.6v20.1h-3.6z"/><path id="path50" d="m19.5 60 2-5 2 5h-4zm.5-9-6.6 15.4h3.4l1.4-3.4h6.5l1.4 3.4h3.5L23.1 51H20z" class="st0" style="fill:#62003c"/><path id="path52" d="m157.4 60 2-5 2 5h-4zm.5-9-6.6 15.4h3.4l1.4-3.4h6.5l1.4 3.4h3.5L161 51h-3.1z" class="st0" style="fill:#62003c"/><path id="polygon54" class="st0" style="fill:#62003c" d="m176.9 60.3 5.8-9.2h-3.8l-3.7 6.2-3.7-6.2h-3.9l5.9 9.3v6h3.4z"/><g id="g68"><g id="g58"><path id="path56" d="M8.8 56.5c0 1.3-1 2.3-2.7 2.3H3.5v-4.7h2.6c1.6.1 2.7.9 2.7 2.4zm-2.5-5.4H.1v15.3h3.4v-4.6H6c3.4 0 6.2-1.8 6.2-5.4 0-3.1-2.2-5.3-5.9-5.3" class="st0" style="fill:#62003c"/></g><g id="g62"><path id="path60" d="M127 63.6c-2.6 0-4.4-2.2-4.4-4.8 0-2.6 1.9-4.8 4.4-4.8 1.5 0 2.7.7 3.9 1.7l2.1-2.5c-1.4-1.4-3.1-2.4-6-2.4-4.7 0-8 3.6-8 7.9 0 4.4 3.3 7.9 7.9 7.9 3 0 4.7-1.1 6.3-2.7l-2.1-2.2c-1.3 1.2-2.4 1.9-4.1 1.9" class="st0" style="fill:#62003c"/></g><g id="g66"><path id="path64" d="M92.6 57.3c-2.7-.7-3.3-1-3.3-2 0-.7.7-1.3 2-1.3s2.6.6 4 1.5l1.8-2.5c-1.5-1.2-3.5-2-5.7-2-3.1 0-5.4 1.8-5.4 4.6 0 3 2 3.9 5.1 4.7 2.6.7 3.1 1.1 3.1 1.9 0 .9-.8 1.4-2.2 1.4-1.8 0-3.2-.7-4.6-1.9l-2 2.4c1.8 1.6 4.2 2.4 6.5 2.4 3.3 0 5.6-1.7 5.6-4.7v-.1c0-2.5-1.8-3.6-4.9-4.4" class="st0" style="fill:#62003c"/></g></g><path id="polygon70" class="st0" style="fill:#62003c" d="M140.8 51.1h-3.3v15.3h11v-3h-7.7z"/><path id="path72" d="m106.5 60 2-5 2 5h-4zm.5-9-6.6 15.4h3.4l1.4-3.4h6.5l1.4 3.4h3.5L110.1 51H107z" class="st0" style="fill:#62003c"/><path id="rect74" class="st0" style="fill:#62003c" d="M75.1 58.1h6.7v3.2h-6.7z"/><g id="g80"><g id="g78"><path id="path76" d="M43.1 56.4c0 1.3-.9 2.2-2.6 2.2h-3.4v-4.4h3.3c1.7 0 2.7.7 2.7 2.2zm3.4-.2c0-3.2-2.2-5.1-5.8-5.1h-7v15.3h3.4v-4.9h2.7l3.3 4.9H47L43.2 61c2-.8 3.3-2.3 3.3-4.8" class="st0" style="fill:#62003c"/></g></g><path id="rect82" class="st0" style="fill:#62003c" d="M51.4 51.1h3.4v15.3h-3.4z"/><g id="g88"><g id="g86"><path id="path84" d="M66.4 57.3c-2.7-.7-3.3-1-3.3-2 0-.7.7-1.3 2-1.3s2.6.6 4 1.5l1.8-2.5c-1.5-1.2-3.5-2-5.7-2-3.1 0-5.4 1.8-5.4 4.6 0 3 2 3.9 5.1 4.7 2.6.7 3.1 1.1 3.1 1.9 0 .9-.8 1.4-2.2 1.4-1.8 0-3.2-.7-4.6-1.9l-2 2.4c1.8 1.6 4.2 2.4 6.5 2.4 3.3 0 5.6-1.7 5.6-4.7v-.1c0-2.5-1.8-3.6-4.9-4.4" class="st0" style="fill:#62003c"/></g></g></g></svg>