<svg xmlns="http://www.w3.org/2000/svg" height="66.579" width="250"><defs><clipPath id="a"><path d="m203.94 113.27-.001-.001v-.189c-.001-1.301-.007-9.092-.008-16.635v-1.212c0-2.843.001-5.597.003-7.897.002-2.118.46-4.09 1.209-5.898 0 0 6.482 1.208 12.739 1.211.975.001 1.936-.046 2.973-.107.895 2.05 1.439 4.233 1.519 6.525a26.376 26.376 0 0 1-.041 2.394c.264-1.121.42-2.645.418-3.902a17.304 17.304 0 0 0-.802-5.086 104.798 104.798 0 0 0 8.918-1.064c.653 1.793.93 3.759.93 5.981v25.88H203.94z"/></clipPath><clipPath id="b"><path d="M203.94 113.27s-.015-16.662-.006-25.934c.002-2.118.46-4.09 1.209-5.898 0 0 6.482 1.208 12.739 1.211.975.001 1.936-.046 2.973-.107.895 2.05 1.439 4.233 1.519 6.525.023.646.006 1.759-.041 2.394.296-1.258.457-3.025.41-4.352a17.304 17.304 0 0 0-.794-4.636 104.798 104.798 0 0 0 8.918-1.064c.653 1.793.93 3.759.93 5.981v25.88H203.94z"/></clipPath><clipPath id="c"><path d="m212.86 96.467-.305-1.348c.472-.614.776-1.02 1.121-1.472.151-.198.311-.418.467-.64.283 1.138.924 2.322.924 2.322s-.014.084-.138.651a3.742 3.742 0 0 0-.524.021c-.355.05-.613.1-.793.142a5.838 5.838 0 0 1-.136 1.05 4.732 4.732 0 0 1-.258.76c-.151-.573-.358-1.486-.358-1.486"/></clipPath></defs><path d="M15.212 1.315C13.51 1.962 12.396 3.22 12 4.901L1.142 4.865v33.981c0 16.468 18.798 25.986 19.598 26.383l.361.18.377-.145c.198-.076 19.728-7.764 19.728-26.495v-6.282c.299.142.636.282.992.307a2.49 2.49 0 0 0 .66-.05l.283.176.087.044c.233.118.525.266.895.267a1.17 1.17 0 0 0 1.033-.58 1.16 1.16 0 0 0 .166-.596c0-.364-.173-.724-.494-.97a7.427 7.427 0 0 1-.716-.621c.946-.05 1.36-.666 1.36-1.276l-.001-.062c-.04-.876-.95-1.07-1.247-1.134l-.06-.013c-.512-.11-.578-.123-.831-.298l-.055-.044-.22-.171c-.618-.419-1.04-.518-1.75-.58l-.102-.004V4.869H23.138l-.265-.35-.455-.54c-.604-.711-1.686-.95-2.966-.653-.02.005-.033.01-.053.014.004-.067.004-.143.014-.196.043-.225.09-.32.14-.422l.17-.63v-.01c0-.575-.415-1.077-.99-1.198L18.71.88l-.025-.004c-.068-.01-1.67-.246-3.473.439" fill="#fff"/><g clip-path="url(#a)" transform="matrix(1.18209 0 0 -1.18209 -236.355 142.341)"><path d="M203.94 113.27h27.866V81.409H203.94v31.861z" fill="#fcd006"/><path d="M235.97 78.54c0 17.592-8.232 31.852-18.387 31.852s-18.387-14.26-18.387-31.852 8.232-31.852 18.387-31.852 18.387 14.26 18.387 31.852" fill="#fcd006"/><path d="M235.77 78.54c0 17.405-8.145 31.513-18.191 31.513-10.047 0-18.192-14.108-18.192-31.513s8.145-31.513 18.192-31.513c10.046 0 18.191 14.108 18.191 31.513" fill="#fcd008"/><path d="M235.58 78.54c0 17.217-8.057 31.174-17.996 31.174s-17.996-13.957-17.996-31.174 8.057-31.175 17.996-31.175S235.58 61.323 235.58 78.54" fill="#fcd10b"/><path d="M235.38 78.54c0 17.03-7.969 30.836-17.8 30.836s-17.8-13.806-17.8-30.836 7.969-30.836 17.8-30.836 17.8 13.806 17.8 30.836" fill="#fcd10d"/><path d="M235.19 78.54c0 16.843-7.882 30.497-17.605 30.497s-17.604-13.654-17.604-30.497 7.881-30.497 17.604-30.497S235.19 61.697 235.19 78.54" fill="#fcd20f"/><path d="M234.99 78.54c0 16.656-7.794 30.158-17.409 30.158s-17.409-13.502-17.409-30.158 7.794-30.158 17.409-30.158S234.99 61.884 234.99 78.54" fill="#fcd212"/><path d="M234.8 78.54c0 16.469-7.706 29.819-17.213 29.819s-17.213-13.35-17.213-29.819 7.706-29.819 17.213-29.819S234.8 62.071 234.8 78.54" fill="#fcd214"/><path d="M234.61 78.54c0 16.282-7.619 29.48-17.018 29.48-9.398 0-17.017-13.198-17.017-29.48s7.619-29.48 17.017-29.48c9.399 0 17.018 13.198 17.018 29.48" fill="#fcd317"/><path d="M234.41 78.54c0 16.094-7.531 29.141-16.822 29.141s-16.822-13.047-16.822-29.141 7.531-29.141 16.822-29.141S234.41 62.446 234.41 78.54" fill="#fcd319"/><path d="M234.22 78.54c0 15.907-7.444 28.802-16.626 28.802-9.183 0-16.627-12.895-16.627-28.802s7.444-28.803 16.627-28.803c9.182 0 16.626 12.896 16.626 28.803" fill="#fcd41c"/><path d="M234.02 78.54c0 15.72-7.356 28.464-16.431 28.464-9.074 0-16.431-12.744-16.431-28.464s7.357-28.464 16.431-28.464c9.075 0 16.431 12.744 16.431 28.464" fill="#fcd41e"/><path d="M233.82 78.54c0 15.533-7.269 28.125-16.235 28.125-8.967 0-16.236-12.592-16.236-28.125s7.269-28.125 16.236-28.125c8.966 0 16.235 12.592 16.235 28.125" fill="#fcd520"/><path d="M233.63 78.54c0 15.346-7.181 27.786-16.04 27.786-8.858 0-16.039-12.44-16.039-27.786s7.181-27.786 16.039-27.786c8.859 0 16.04 12.44 16.04 27.786" fill="#fcd523"/><path d="M233.43 78.54c0 15.159-7.093 27.447-15.844 27.447s-15.844-12.288-15.844-27.447 7.093-27.447 15.844-27.447S233.43 63.381 233.43 78.54" fill="#fcd526"/><path d="M233.24 78.54c0 14.972-7.006 27.108-15.649 27.108-8.642 0-15.648-12.136-15.648-27.108s7.006-27.108 15.648-27.108c8.643 0 15.649 12.136 15.649 27.108" fill="#fdd628"/><path d="M233.04 78.54c0 14.785-6.918 26.769-15.453 26.769-8.534 0-15.453-11.984-15.453-26.769 0-14.784 6.919-26.769 15.453-26.769 8.535 0 15.453 11.985 15.453 26.769" fill="#fdd72a"/><path d="M232.84 78.54c0 14.597-6.831 26.43-15.257 26.43-8.427 0-15.258-11.833-15.258-26.43s6.831-26.43 15.258-26.43c8.426 0 15.257 11.833 15.257 26.43" fill="#fdd72d"/><path d="M232.65 78.54c0 14.41-6.743 26.092-15.062 26.092-8.318 0-15.062-11.682-15.062-26.092s6.744-26.092 15.062-26.092c8.319 0 15.062 11.682 15.062 26.092" fill="#fdd72f"/><path d="M232.45 78.54c0 14.223-6.656 25.753-14.866 25.753s-14.866-11.53-14.866-25.753 6.656-25.753 14.866-25.753 14.866 11.53 14.866 25.753" fill="#fdd832"/><path d="M232.26 78.54c0 14.036-6.568 25.414-14.671 25.414-8.102 0-14.67-11.378-14.67-25.414s6.568-25.414 14.67-25.414c8.103 0 14.671 11.378 14.671 25.414" fill="#fdd834"/><path d="M232.06 78.54c0 13.849-6.481 25.075-14.475 25.075S203.11 92.389 203.11 78.54s6.481-25.075 14.475-25.075S232.06 64.691 232.06 78.54" fill="#fdd937"/><path d="M231.86 78.54c0 13.662-6.393 24.736-14.279 24.736-7.887 0-14.28-11.074-14.28-24.736s6.393-24.736 14.28-24.736c7.886 0 14.279 11.074 14.279 24.736" fill="#fdd939"/><path d="M231.67 78.54c0 13.474-6.305 24.397-14.084 24.397-7.778 0-14.084-10.923-14.084-24.397s6.306-24.397 14.084-24.397c7.779 0 14.084 10.923 14.084 24.397" fill="#fdda3c"/><path d="M231.47 78.54c0 13.287-6.218 24.059-13.888 24.059-7.671 0-13.888-10.772-13.888-24.059s6.217-24.059 13.888-24.059c7.67 0 13.888 10.772 13.888 24.059" fill="#fdda3e"/><path d="M231.28 78.54c0 13.1-6.13 23.72-13.692 23.72-7.563 0-13.693-10.62-13.693-23.72s6.13-23.72 13.693-23.72c7.562 0 13.692 10.62 13.692 23.72" fill="#fddb41"/><path d="M231.08 78.54c0 12.913-6.043 23.381-13.497 23.381s-13.497-10.468-13.497-23.381 6.043-23.381 13.497-23.381S231.08 65.627 231.08 78.54" fill="#fddb43"/><path d="M230.88 78.54c0 12.726-5.955 23.042-13.301 23.042-7.347 0-13.302-10.316-13.302-23.042s5.955-23.042 13.302-23.042c7.346 0 13.301 10.316 13.301 23.042" fill="#fddb46"/><path d="M230.69 78.54c0 12.539-5.867 22.703-13.106 22.703-7.238 0-13.105-10.164-13.105-22.703s5.867-22.703 13.105-22.703c7.239 0 13.106 10.164 13.106 22.703" fill="#fddc48"/><path d="M230.5 78.54c0 12.352-5.78 22.364-12.91 22.364s-12.91-10.012-12.91-22.364 5.78-22.364 12.91-22.364S230.5 66.188 230.5 78.54" fill="#fddd4b"/><path d="M230.3 78.54c0 12.165-5.692 22.025-12.714 22.025s-12.715-9.86-12.715-22.025 5.693-22.025 12.715-22.025S230.3 66.375 230.3 78.54" fill="#fddd4e"/><path d="M230.11 78.54c0 11.977-5.605 21.687-12.519 21.687s-12.518-9.71-12.518-21.687 5.604-21.686 12.518-21.686 12.519 9.709 12.519 21.686" fill="#fddd50"/><path d="M229.91 78.54c0 11.79-5.517 21.348-12.323 21.348s-12.323-9.558-12.323-21.348 5.517-21.348 12.323-21.348S229.91 66.75 229.91 78.54" fill="#fdde53"/><path d="M229.72 78.54c0 11.603-5.43 21.009-12.128 21.009s-12.127-9.406-12.127-21.009 5.429-21.009 12.127-21.009 12.128 9.406 12.128 21.009" fill="#fdde55"/><path d="M229.52 78.54c0 11.416-5.342 20.67-11.932 20.67s-11.932-9.254-11.932-20.67 5.342-20.67 11.932-20.67 11.932 9.254 11.932 20.67" fill="#fddf58"/><path d="M229.32 78.54c0 11.229-5.254 20.331-11.736 20.331s-11.737-9.102-11.737-20.331 5.255-20.331 11.737-20.331 11.736 9.102 11.736 20.331" fill="#fddf5a"/><path d="M229.13 78.54c0 11.042-5.167 19.992-11.541 19.992s-11.541-8.95-11.541-19.992 5.167-19.992 11.541-19.992 11.541 8.95 11.541 19.992" fill="#fde05d"/><path d="M228.93 78.54c0 10.854-5.079 19.653-11.345 19.653s-11.346-8.799-11.346-19.653c0-10.855 5.08-19.653 11.346-19.653s11.345 8.798 11.345 19.653" fill="#fde060"/><path d="M228.74 78.54c0 10.667-4.992 19.315-11.15 19.315-6.157 0-11.149-8.648-11.149-19.315s4.992-19.314 11.149-19.314c6.158 0 11.15 8.647 11.15 19.314" fill="#fde162"/><path d="M228.54 78.54c0 10.48-4.904 18.976-10.954 18.976s-10.954-8.496-10.954-18.976 4.904-18.976 10.954-18.976S228.54 68.06 228.54 78.54" fill="#fde165"/><path d="M228.34 78.54c0 10.293-4.817 18.637-10.758 18.637-5.942 0-10.759-8.344-10.759-18.637s4.817-18.637 10.759-18.637c5.941 0 10.758 8.344 10.758 18.637" fill="#fde267"/><path d="M228.15 78.54c0 10.106-4.729 18.298-10.563 18.298s-10.563-8.192-10.563-18.298 4.729-18.298 10.563-18.298 10.563 8.192 10.563 18.298" fill="#fde26a"/><path d="M227.95 78.54c0 9.919-4.642 17.959-10.367 17.959-5.726 0-10.367-8.04-10.367-17.959s4.641-17.959 10.367-17.959c5.725 0 10.367 8.04 10.367 17.959" fill="#fde36c"/><path d="M227.76 78.54c0 9.731-4.554 17.62-10.171 17.62-5.618 0-10.172-7.889-10.172-17.62s4.554-17.62 10.172-17.62c5.617 0 10.171 7.889 10.171 17.62" fill="#fde36f"/><path d="M227.56 78.54c0 9.544-4.466 17.282-9.976 17.282s-9.976-7.738-9.976-17.282c0-9.545 4.466-17.281 9.976-17.281s9.976 7.736 9.976 17.281" fill="#fde472"/><path d="M227.36 78.54c0 9.357-4.379 16.943-9.78 16.943-5.402 0-9.781-7.586-9.781-16.943 0-9.358 4.379-16.942 9.781-16.942 5.401 0 9.78 7.584 9.78 16.942" fill="#fde474"/><path d="M227.17 78.54c0 9.17-4.291 16.604-9.585 16.604-5.293 0-9.585-7.434-9.585-16.604s4.292-16.603 9.585-16.603c5.294 0 9.585 7.433 9.585 16.603" fill="#fde577"/><path d="M226.97 78.54c0 8.983-4.204 16.265-9.389 16.265-5.186 0-9.389-7.282-9.389-16.265s4.203-16.265 9.389-16.265c5.185 0 9.389 7.282 9.389 16.265" fill="#fde57a"/><path d="M226.78 78.54c0 8.796-4.116 15.926-9.194 15.926-5.077 0-9.193-7.13-9.193-15.926s4.116-15.926 9.193-15.926c5.078 0 9.194 7.13 9.194 15.926" fill="#fee67c"/><path d="M226.58 78.54c0 8.609-4.029 15.587-8.998 15.587-4.97 0-8.998-6.978-8.998-15.587s4.028-15.587 8.998-15.587c4.969 0 8.998 6.978 8.998 15.587" fill="#fee67f"/><path d="M226.38 78.54c0 8.422-3.941 15.248-8.802 15.248-4.862 0-8.803-6.826-8.803-15.248 0-8.421 3.941-15.248 8.803-15.248 4.861 0 8.802 6.827 8.802 15.248" fill="#fee782"/><path d="M226.2 78.54c0 8.234-3.853 14.91-8.607 14.91-4.753 0-8.606-6.676-8.606-14.91s3.853-14.909 8.606-14.909c4.754 0 8.607 6.675 8.607 14.909" fill="#fee784"/><path d="M226 78.54c0 8.047-3.766 14.571-8.411 14.571s-8.411-6.524-8.411-14.571 3.766-14.571 8.411-14.571S226 70.493 226 78.54" fill="#fee887"/><path d="M225.81 78.54c0 7.86-3.678 14.232-8.215 14.232-4.538 0-8.216-6.372-8.216-14.232s3.678-14.232 8.216-14.232c4.537 0 8.215 6.372 8.215 14.232" fill="#fee88a"/><path d="M225.61 78.54c0 7.673-3.591 13.893-8.02 13.893s-8.02-6.22-8.02-13.893 3.591-13.893 8.02-13.893 8.02 6.22 8.02 13.893" fill="#fee98c"/><path d="M225.41 78.54c0 7.486-3.503 13.554-7.824 13.554s-7.824-6.068-7.824-13.554 3.503-13.554 7.824-13.554 7.824 6.068 7.824 13.554" fill="#fee98f"/><path d="M225.22 78.54c0 7.299-3.415 13.215-7.629 13.215-4.213 0-7.628-5.916-7.628-13.215s3.415-13.215 7.628-13.215c4.214 0 7.629 5.916 7.629 13.215" fill="#feea92"/><path d="M225.02 78.54c0 7.111-3.328 12.876-7.433 12.876s-7.433-5.765-7.433-12.876 3.328-12.876 7.433-12.876 7.433 5.765 7.433 12.876" fill="#feea94"/><path d="M224.82 78.54c0 6.924-3.24 12.538-7.237 12.538-3.998 0-7.238-5.614-7.238-12.538s3.24-12.537 7.238-12.537c3.997 0 7.237 5.613 7.237 12.537" fill="#feeb97"/><path d="M224.63 78.54c0 6.737-3.153 12.199-7.042 12.199s-7.042-5.462-7.042-12.199 3.153-12.198 7.042-12.198 7.042 5.461 7.042 12.198" fill="#feeb9a"/><path d="M224.43 78.54c0 6.55-3.065 11.86-6.846 11.86s-6.846-5.31-6.846-11.86 3.065-11.86 6.846-11.86 6.846 5.31 6.846 11.86" fill="#feec9d"/><path d="M224.24 78.54c0 6.363-2.978 11.521-6.651 11.521s-6.65-5.158-6.65-11.521 2.977-11.521 6.65-11.521 6.651 5.158 6.651 11.521" fill="#feec9f"/><path d="M224.04 78.54c0 6.176-2.89 11.182-6.455 11.182s-6.455-5.006-6.455-11.182 2.89-11.182 6.455-11.182 6.455 5.006 6.455 11.182" fill="#feeda2"/><path d="M223.84 78.54c0 5.989-2.802 10.843-6.26 10.843-3.457 0-6.259-4.854-6.259-10.843 0-5.988 2.802-10.843 6.259-10.843 3.458 0 6.26 4.855 6.26 10.843" fill="#feeea5"/><path d="M223.65 78.54c0 5.801-2.715 10.504-6.064 10.504s-6.064-4.703-6.064-10.504c0-5.802 2.715-10.504 6.064-10.504s6.064 4.702 6.064 10.504" fill="#feeea7"/><path d="M223.45 78.54c0 5.614-2.627 10.166-5.868 10.166s-5.869-4.552-5.869-10.166 2.628-10.165 5.869-10.165 5.868 4.551 5.868 10.165" fill="#feefaa"/><path d="M223.26 78.54c0 5.427-2.54 9.827-5.673 9.827s-5.672-4.4-5.672-9.827 2.539-9.827 5.672-9.827 5.673 4.4 5.673 9.827" fill="#feefad"/><path d="M223.06 78.54c0 5.24-2.452 9.488-5.477 9.488s-5.477-4.248-5.477-9.488 2.452-9.488 5.477-9.488 5.477 4.248 5.477 9.488" fill="#feefb0"/><path d="M222.86 78.54c0 5.053-2.365 9.149-5.282 9.149-2.916 0-5.281-4.096-5.281-9.149s2.365-9.149 5.281-9.149c2.917 0 5.282 4.096 5.282 9.149" fill="#fef0b3"/><path d="M222.67 78.54c0 4.866-2.277 8.81-5.086 8.81s-5.086-3.944-5.086-8.81 2.277-8.81 5.086-8.81 5.086 3.944 5.086 8.81" fill="#fef1b5"/><path d="M222.47 78.54c0 4.679-2.19 8.471-4.89 8.471-2.701 0-4.891-3.792-4.891-8.471s2.19-8.472 4.891-8.472c2.7 0 4.89 3.793 4.89 8.472" fill="#fef1b8"/><path d="M222.28 78.54c0 4.492-2.102 8.133-4.695 8.133s-4.695-3.641-4.695-8.133 2.102-8.133 4.695-8.133 4.695 3.641 4.695 8.133" fill="#fef2bb"/><path d="M222.08 78.54c0 4.304-2.014 7.794-4.499 7.794s-4.499-3.49-4.499-7.794 2.014-7.794 4.499-7.794 4.499 3.49 4.499 7.794" fill="#fef2bd"/><path d="M221.89 78.54c0 4.117-1.927 7.455-4.303 7.455-2.377 0-4.303-3.338-4.303-7.455s1.926-7.455 4.303-7.455c2.376 0 4.303 3.338 4.303 7.455" fill="#fef3c0"/><path d="M221.7 78.54c0 3.93-1.839 7.116-4.108 7.116-2.268 0-4.107-3.186-4.107-7.116s1.839-7.116 4.107-7.116c2.269 0 4.108 3.186 4.108 7.116" fill="#fef3c3"/><path d="M221.5 78.54c0 3.743-1.751 6.777-3.912 6.777s-3.912-3.034-3.912-6.777 1.751-6.777 3.912-6.777 3.912 3.034 3.912 6.777" fill="#fef4c6"/><path d="M221.31 78.54c0 3.556-1.664 6.438-3.717 6.438-2.052 0-3.716-2.882-3.716-6.438s1.664-6.438 3.716-6.438c2.053 0 3.717 2.882 3.717 6.438" fill="#fef4c9"/><path d="M221.11 78.54c0 3.368-1.576 6.099-3.521 6.099s-3.521-2.731-3.521-6.099c0-3.369 1.576-6.099 3.521-6.099s3.521 2.73 3.521 6.099" fill="#fef5cc"/><path d="M220.91 78.54c0 3.182-1.489 5.76-3.325 5.76-1.837 0-3.326-2.578-3.326-5.76 0-3.181 1.489-5.761 3.326-5.761 1.836 0 3.325 2.58 3.325 5.761" fill="#fef5ce"/><path d="M220.72 78.54c0 2.994-1.401 5.422-3.13 5.422-1.728 0-3.129-2.428-3.129-5.422 0-2.995 1.401-5.422 3.129-5.422 1.729 0 3.13 2.427 3.13 5.422" fill="#fef6d1"/><path d="M220.52 78.54c0 2.807-1.314 5.083-2.934 5.083-1.621 0-2.934-2.276-2.934-5.083s1.313-5.083 2.934-5.083c1.62 0 2.934 2.276 2.934 5.083" fill="#fff7d4"/><path d="M220.33 78.54c0 2.62-1.226 4.744-2.738 4.744-1.513 0-2.739-2.124-2.739-4.744s1.226-4.744 2.739-4.744c1.512 0 2.738 2.124 2.738 4.744" fill="#fff7d7"/><path d="M220.13 78.54c0 2.433-1.138 4.405-2.543 4.405-1.404 0-2.543-1.972-2.543-4.405s1.139-4.405 2.543-4.405c1.405 0 2.543 1.972 2.543 4.405" fill="#fff8da"/><path d="M219.93 78.54c0 2.246-1.051 4.066-2.347 4.066-1.297 0-2.348-1.82-2.348-4.066s1.051-4.066 2.348-4.066c1.296 0 2.347 1.82 2.347 4.066" fill="#fff8dc"/><path d="M219.74 78.54c0 2.059-.963 3.728-2.152 3.728-1.188 0-2.152-1.669-2.152-3.728s.964-3.727 2.152-3.727c1.189 0 2.152 1.668 2.152 3.727" fill="#fff9df"/><path d="M219.54 78.54c0 1.872-.876 3.389-1.956 3.389s-1.956-1.517-1.956-3.389.876-3.389 1.956-3.389 1.956 1.517 1.956 3.389" fill="#fff9e2"/><path d="M219.35 78.54c0 1.684-.788 3.05-1.761 3.05-.972 0-1.76-1.366-1.76-3.05s.788-3.05 1.76-3.05c.973 0 1.761 1.366 1.761 3.05" fill="#fffae5"/></g><g clip-path="url(#b)" transform="matrix(1.18209 0 0 -1.18209 -236.355 142.341)"><path d="m217.95 82.511 16.234 11.707-.103-4.869-16.131-6.838 16.133 2.736-1.053-5.161-15.08 2.425-14.916-2.398-1.113 5.116 16.029-2.718-15.987 6.807-.089 4.843 16.076-11.65-16.063 18.26-.095 6.456 16.158-24.716-11.127 32.183 4.382.018 6.745-32.201 6.911 32.263h4.417L217.95 82.511l16.15 24.703.055-6.352-16.205-18.351z" fill="#fcd006"/></g><path d="M17.688 1.768a6.725 6.725 0 0 0-2.106.422c-1.658.63-2.608 1.88-2.764 3.652L2.094 5.807v33.088c0 16.098 19.103 25.58 19.103 25.58s19.155-7.327 19.155-25.659v-7.488s.294.095.488.135c.187.04.238-.059.482.07.252.131.679.36 1.008.383.363.026.746-.12.746-.12s.317.23.54.341c.216.106.4.215.579.215.113.001.184-.038.239-.129.075-.127.019-.276-.098-.366-2.104-1.614-1.732-2.544-1.732-2.544l.349.068s.806.222 1.176.203c.448-.022.5-.21.492-.377-.007-.167-.285-.226-.521-.277-.596-.127-.803-.164-1.221-.45-.11-.077-.16-.138-.27-.212-.446-.303-.688-.372-1.314-.426a20.102 20.102 0 0 0-.943-.047v-1.744c-.003-10.343 0-20.244 0-20.244H22.104c-.093-.038-.151-.069-.163-.18-.021-.222.157-.386.274-.502-.167-.2-.32-.38-.45-.533-.345-.407-1.078-.58-2.058-.353-.754.173-1.076.418-1.076.418s-.198-1.03-.076-1.67c.113-.595.29-.702.293-.89 0-.153-.121-.268-.256-.296 0 0-.352-.055-.904-.033zM3.732 7.45h9.149c.12.833.414 1.313 1.088 2.03.642.682 1.604.724 2.195 1.606.268.401.459.94.522 1.123.043.215.239.35.466.348.36-.003.427-.274.557-.549.099-.21.103-.587.103-.587l.778.316c-.271.394-.85.953-.85 1.553 0 .434.107.707.369.856-.243.532-.363.975-.853 1.594-.324.409-1.591 1.505-1.883 1.76-.295.232-1.431 1.317-2.006 4.7-.261 1.542-.508 3.907-.508 3.907s-.366 4.45-.213 4.64c-.021.462 1.51 2.133 2.15 2.662a32.341 32.341 0 0 1 1.759 1.598c-.33 5.5-.64 7.38-1.573 9.906l-.03.026a95.406 95.406 0 0 0-8.794 1.142c1.775 4.284 4.929 7.792 7.893 10.369l.076.06c7.319-4.424 12.17-11.473 12.45-19.486a20.71 20.71 0 0 0-.042-2.273 20.96 20.96 0 0 1 .35 4.61c-.261 7.473-4.614 14.055-11.117 18.497 3 2.343 5.433 3.606 5.433 3.606s.795-.304 2.04-.95c2.543-2.618 4.71-7.811 5.902-14.093-.47 5.024-1.603 9.405-3.155 12.527 3.684-2.383 8.28-6.582 10.574-12.841-2.08-.36-4.378-.652-7.285-.97.094-2.386.1-5.112-.238-7.573-.622-4.517-2.892-9.987-2.9-10.07-.04-.39-.078-.768-.114-1.102.848-.432 1.25-.433 1.506-.426 0 0-.352-.704-.54-1.574-.14-.66-.184-1.887-.184-1.887.699.777 4.089 4.467 10.295 6.41 0 0 .853.216 1.195.416.159.095.184.088.357.229v9.37c0 16.96-17.457 23.639-17.457 23.639S3.747 53.663 3.732 38.986c-.011-11.621 0-31.536 0-31.536zm20.202 0h14.72v19.842c-.309-.14-.213-.092-.435-.2-2.245-1.245-7.113-4.718-7.565-4.984-.535-.314-1.84-2.378-2.328-3.302-.702-1.328-.221-3.522-3.746-4.748 0 0-.323-.09-.871-.13a.658.658 0 0 1 .033-.155c.079-.22.215-.261.309-.31a.174.174 0 0 0 .053-.243c-.075-.102-.067-.108-.067-.108l.164-.056s.082-.021.053-.201c-.031-.181-.06-.383.076-.416.17-.042.305-.07.305-.07s.102-.027.054-.175c-.062-.19-.375-1.077-.324-1.462.049-.37.263-.548.356-.905l.929-.289-1.716-2.088zm-11.145 3.28c-.279 0-.506.074-.684.224a.686.686 0 0 0-.265.543c0 .124.04.246.123.367s.204.233.361.332a1.267 1.267 0 0 0-.396.276.556.556 0 0 0-.157.394c0 .182.08.333.237.453.158.122.364.182.619.182.287 0 .528-.077.725-.234.195-.156.293-.343.293-.56a.72.72 0 0 0-.145-.44 1.435 1.435 0 0 0-.428-.364c.143-.068.258-.147.348-.238.09-.09.135-.2.135-.33a.537.537 0 0 0-.213-.436c-.142-.114-.326-.169-.553-.169zm.039.191a.39.39 0 0 1 .264.107c.08.071.119.17.119.3a.501.501 0 0 1-.066.245.665.665 0 0 1-.213.21 1.365 1.365 0 0 1-.338-.282.423.423 0 0 1-.088-.26c0-.107.028-.188.086-.24a.337.337 0 0 1 .236-.08zm16.711.615c-.324 0-.582.09-.777.27a.872.872 0 0 0-.293.662c0 .207.073.38.219.52.144.14.311.208.503.208.11 0 .196-.015.256-.047a.683.683 0 0 0 .174-.128c.006-.006.007-.02-.004-.04a.235.235 0 0 0-.027-.048.115.115 0 0 0-.037-.036c-.019-.012-.034-.016-.043-.01a.224.224 0 0 1-.047.012.243.243 0 0 1-.051.006c-.087 0-.15-.036-.187-.109-.038-.075-.057-.209-.057-.406 0-.21.025-.376.078-.493.052-.117.14-.175.262-.175.133 0 .223.067.269.2.046.132.069.34.069.624 0 .37-.103.687-.311.955s-.516.482-.924.641c-.006.002-.011.014-.013.035a.125.125 0 0 0 .006.058.485.485 0 0 0 .027.045c.01.018.02.028.027.028.543-.14.992-.368 1.348-.68.354-.313.531-.67.531-1.072v-.002c0-.303-.089-.547-.266-.735-.176-.189-.42-.283-.732-.283zm-23.074.06c-.008 0-.014.011-.021.032a.195.195 0 0 0-.01.055c0 .015.003.035.01.056.007.02.012.03.021.03.108.013.2.033.277.058s.118.112.118.262v.86c0 .158-.037.248-.108.267a2.29 2.29 0 0 1-.287.053c-.008 0-.014.01-.021.031a.22.22 0 0 0-.012.056c0 .013.005.031.012.053s.012.033.021.033c.082 0 .2-.003.355-.01.155-.008.28-.013.375-.013.101 0 .222.004.368.012.146.007.265.011.357.011.008 0 .016-.01.024-.033a.213.213 0 0 0 .01-.053.195.195 0 0 0-.01-.058c-.008-.02-.015-.029-.024-.029-.108-.01-.2-.03-.275-.057-.077-.027-.116-.116-.116-.264v-.859c0-.137.04-.22.118-.254a.986.986 0 0 1 .273-.066c.008 0 .016-.01.024-.03a.193.193 0 0 0 .01-.056.188.188 0 0 0-.01-.057c-.008-.018-.015-.03-.024-.03-.081 0-.198.003-.351.01a6.128 6.128 0 0 1-.744 0 9.544 9.544 0 0 0-.36-.01zm28.582 0c-.009 0-.016.011-.024.032a.202.202 0 0 0-.009.055c0 .015.003.035.009.056.008.02.015.03.024.03.107.013.199.033.277.058s.117.112.117.262v.86c0 .158-.036.248-.107.267-.071.02-.166.036-.287.053-.009 0-.016.01-.024.031a.215.215 0 0 0-.009.056c0 .013.003.031.009.053.008.022.015.033.024.033.081 0 .199-.003.353-.01a7.86 7.86 0 0 1 .375-.013c.101 0 .224.004.37.012.146.007.265.011.357.011.008 0 .014-.01.021-.033a.183.183 0 0 0 .01-.053.173.173 0 0 0-.01-.058c-.007-.02-.012-.029-.021-.029-.108-.01-.2-.03-.275-.057-.077-.027-.116-.116-.116-.264v-.859c0-.137.039-.22.116-.254a1 1 0 0 1 .275-.066c.008 0 .014-.01.021-.03a.17.17 0 0 0 0-.113c-.007-.018-.012-.03-.021-.03-.082 0-.2.003-.354.01a6.137 6.137 0 0 1-.744 0 9.357 9.357 0 0 0-.357-.01zm-22.582.723c.124.082.235.172.336.27.1.1.15.216.15.353 0 .116-.029.207-.09.272a.31.31 0 0 1-.24.1.533.533 0 0 1-.334-.116.379.379 0 0 1-.148-.316c0-.135.025-.247.08-.338a.628.628 0 0 1 .246-.225zm142.1 5.112c-.34.01-.76.061-1.05.203-1.09.508-1.25 2.195-1.34 2.806l-.05.327h-1.22l-.08.314h1.25l-.55 3.887c-.07.427-.29 1.484-.92 1.738a.473.473 0 0 1-.3.04c-.16 0-.36-.172-.36-.172v.682c.12 0 .33 0 .55-.112 1.2-.6 1.66-2.3 1.78-3.286l.37-2.777h1.28l.08-.314h-1.3c0-.193.05-.57.05-.57.02-.164.19-1.943.82-2.34a.596.596 0 0 1 .47-.06c.25.11.29.436.29.436h.08l.15-.802zm45.26.691c-1.02-.014-2.2.198-2.96 1.037-.96 1.017-1.2 2.827-.91 3.834.38 1.261 1.31 1.922 2.43 2.207 1.07.285 2.68.071 3.86-1.119l-.05-.539-.03-.03-.02.04-.04.041-.02.031c-.03.041-.09.09-.13.162-.05.06-.15.173-.27.295-.85.855-1.76 1.14-2.64.967-.97-.194-1.74-.772-2.18-1.83-.41-.936-.34-2.817.29-3.774.62-.925 1.65-1.14 2.28-1.14 1 0 1.74.235 2.52 1.394 0-.07 0-.102.01-.164V18.47h-.01c-.03-.03-.24-.093-.28-.113-.02 0-.24-.04-.29-.05a7.96 7.96 0 0 0-1.56-.183zm-75.76.002c-.56-.018-1.12.06-1.53.303-.72.448-.9 1.047-.87 1.668.05.955.56 1.2 1.46 1.636l.64.286c.73.345 1.4.711 1.52 1.494.05.386-.1.906-.49 1.242-.49.427-1.21.447-1.67.314-.84-.244-1.06-.619-1.3-1.412l-.05-.01-.06.05.07 1.435c.8.193 2.43.333 3.23-.195.67-.438.89-1.22.84-1.77-.07-1.078-.58-1.33-1.62-1.799l-.6-.285c-.71-.325-1.24-.56-1.34-1.344-.04-.376.08-.824.5-1.138.49-.377 1.24-.305 1.65-.143.84.336.8.692 1.03 1.395l.13-.04v-1.424a5.802 5.802 0 0 0-1.54-.263zm44.51.008a3.591 3.591 0 1 0 .13 7.181c2.07-.04 3.6-1.628 3.55-3.652-.06-1.994-1.7-3.569-3.68-3.529zm51.64 0a3.591 3.591 0 1 0 .13 7.181c2.07-.04 3.6-1.628 3.55-3.652-.06-1.994-1.7-3.569-3.68-3.529zm-162.58.08-.051.051v1.65c0 .051.111.04.111 0 .071-.255.124-.59.184-.69.386-.765 1.342-.675 1.81-.675h.61v5.195c0 .733.042 1.315-.772 1.315-.071 0-.071.152 0 .152 0 0 .682-.02 1.119-.02.447 0 1.19.02 1.19.02.071 0 .071-.152 0-.152-.813 0-.805-.582-.805-1.315V18.55h.59c.468 0 1.413-.09 1.811.674.051.101.113.436.173.691.012.04.112.051.122 0v-1.65l-.061-.05s-1.799.03-2.959.03c-1.2 0-3.072-.03-3.072-.03zm6.918 0c-.072 0-.072.152 0 .152.813 0 .773.591.773 1.313v4.068c0 .732.04 1.313-.773 1.313-.072 0-.072.152 0 .152 0 0 .68-.02 1.117-.02.448 0 1.191.02 1.191.02.091 0 .091-.152 0-.152-.813 0-.804-.58-.804-1.313v-1.982h4.324v1.982c0 .732.04 1.313-.774 1.313-.05-.01-.083.152.03.152 0 0 .692-.02 1.138-.02.438 0 1.11.02 1.11.02.081 0 .081-.163 0-.152-.803 0-.774-.58-.774-1.313v-4.068c0-.722-.029-1.313.774-1.313.071-.01.081-.162 0-.152 0 0-.702.021-1.16.021-.437 0-1.118-.02-1.118-.02-.07 0-.061.151 0 .151.814 0 .774.591.774 1.313v1.832h-4.324v-1.832c0-.722-.031-1.313.773-1.313.082 0 .082-.152 0-.152 0 0-.68.021-1.117.021-.459 0-1.16-.02-1.16-.02zm12.908 0s-1.413.021-2.318.021h-.002c-.864 0-2.215-.019-2.215-.019-.072 0-.072.142 0 .152.813 0 .771.59.771 1.313v4.06c0 .731.042 1.31-.771 1.31-.072 0-.072.161 0 .151 0 .01 1.2-.01 2.42-.01 1.282 0 2.584.01 2.584.01l.162-1.582-.104-.03c-.131.557-.222.942-.863 1.225-.345.164-2.124.337-2.471.114-.263-.162-.215-.933-.215-1.156v-2.15h1.475c.57 0 .662.314.764.66.029.04.172.04.152-.05v-1.587l-.051-.063h-.072c-.051.062-.049.153-.059.205-.03.071-.051.132-.082.194-.193.498-.987.437-1.718.437h-.409v-2.98l1.018-.012c1.16-.01 1.689-.05 1.994 1.252l.121-.05-.111-1.415zm3.469 0c-.082 0-.061.154 0 .154.814 0 .773.59.773 1.311v2.584c.041.996.051 1.963 1.211 2.654.864.508 2.207.52 2.99.092 1.169-.64 1.322-1.76 1.342-2.717l.061-2.613c.011-.722-.039-1.31.763-1.31.072-.01.072-.155 0-.155 0 0-.61.021-1.006.021-.366 0-.947-.02-.947-.02-.071 0-.071.153 0 .153.815 0 .742.59.752 1.311l.072 2.39c.062.957-.071 2.116-1.261 2.766-.621.346-1.618.377-2.268-.029-1.027-.64-.987-1.434-.976-2.369v-2.758c0-.722-.031-1.31.773-1.31.08 0 .091-.165 0-.155 0 0-.682.021-1.119.021-.448 0-1.16-.02-1.16-.02zm16.175 0c-.082 0-.061.163 0 .152.814 0 .772.591.772 1.313v4.068c0 .742.042 1.313-.772 1.313-.072 0-.061.152 0 .152 0 0 .68-.02 1.118-.02.446 0 1.189.02 1.189.02.062 0 .072-.152 0-.152-.813 0-.803-.58-.803-1.313v-4.068c0-.722-.019-1.313.784-1.313.081-.01.102-.162 0-.152 0 0-.692.021-1.129.021-.447 0-1.159-.02-1.159-.02zm16.275 0s-1.41.021-2.32.021c-.86 0-2.21-.019-2.21-.019-.08 0-.08.142 0 .152.81 0 .77.59.77 1.313v4.06c0 .731.04 1.31-.77 1.31-.08 0-.08.161 0 .151 0 .01 1.2-.01 2.42-.01 1.28 0 2.58.01 2.58.01l.16-1.582-.1-.03c-.13.557-.22.942-.86 1.225-.35.164-2.13.337-2.48.114-.26-.162-.21-.933-.21-1.156v-2.15h1.48c.57 0 .66.314.76.66.03.04.17.04.15-.05v-1.587l-.05-.063h-.07c-.05.062-.05.153-.06.205-.03.071-.05.132-.08.194-.2.498-.99.437-1.72.437h-.41v-2.98l1.02-.012c1.16-.01 1.69-.05 1.99 1.252l.12-.05-.11-1.415zm1.59 0c-.07 0-.07.152 0 .152.81 0 .8.591.8 1.313v4.068c0 .732.04 1.313-.77 1.313-.09 0-.1.152 0 .152 0 0 .68-.02 1.12-.02s1.18.02 1.18.02c.09 0 .1-.163 0-.152-.8 0-.8-.58-.8-1.313v-1.9c.92.01.96-.113 1.54.844l.74 1.23c.64 1.007 1.01 1.393 1.92 1.393h.21c.02 0 .14-.01.19-.05-.86-.246-.99-.468-1.54-1.413l-1.22-2.106c.64-.295 1.12-.642 1.27-1.353.1-.428.09-1.018-.29-1.455-.67-.773-1.68-.733-2.37-.723 0 0-.2.021-.73.021-.49 0-1.25-.02-1.25-.02zm11.99 0c-.08 0-.06.163 0 .152.82 0 .78.591.78 1.313v4.068c0 .742.04 1.313-.78 1.313-.07 0-.06.152 0 .152 0 0 .68-.02 1.12-.02.45 0 1.19.02 1.19.02.06 0 .07-.152 0-.152-.81 0-.8-.58-.8-1.313v-4.068c0-.722-.02-1.313.78-1.313.08-.01.1-.162 0-.152 0 0-.69.021-1.13.021s-1.16-.02-1.16-.02zm3.28 0-.05.051v1.65c0 .051.11.04.11 0 .08-.255.13-.59.19-.69.38-.765 1.34-.675 1.81-.675h.61v5.195c0 .733.04 1.315-.77 1.315-.07 0-.07.152 0 .152 0 0 .68-.02 1.11-.02.45 0 1.2.02 1.2.02.07 0 .07-.152 0-.152-.82 0-.81-.582-.81-1.315V18.55h.59c.47 0 1.42-.09 1.81.674.05.101.11.436.17.691.01.04.12.051.13 0v-1.65l-.06-.05s-1.81.03-2.96.03c-1.2 0-3.08-.03-3.08-.03zm6.99 0c-.06 0-.07.152 0 .152.5.072.6.205.94.774l2.06 3.437v1.17c0 .732.04 1.332-.77 1.332-.07 0-.06.133 0 .133 0 0 .68-.02 1.12-.02.45 0 1.19.02 1.19.02.07 0 .07-.143 0-.133-.82 0-.81-.6-.81-1.332v-1.412l1.76-3.195c.36-.692.42-.774.87-.774.05.012.06-.152 0-.152 0 0-.58.021-.98.021-.36 0-.73-.02-.73-.02-.08.01-.07.162 0 .151.4 0 .46.103.51.235.1.214-.2.823-.27.966l-1.33 2.432-1.38-2.37c-.24-.388-.46-.744-.41-.978.03-.12.11-.285.51-.285.08 0 .08-.152 0-.152 0 0-.67.021-1.11.021-.46 0-1.17-.02-1.17-.02zm35.49 0c-.07 0-.07.152 0 .152.82 0 .81.591.81 1.313v4.068c0 .732.04 1.313-.77 1.313-.08 0-.1.152 0 .152 0 0 .68-.02 1.12-.02s1.18.02 1.18.02c.09 0 .1-.163 0-.152-.8 0-.8-.58-.8-1.313v-1.9c.92.01.96-.113 1.54.844l.74 1.23c.64 1.007 1.01 1.393 1.92 1.393h.21c.01 0 .14-.01.19-.05-.87-.246-.99-.468-1.54-1.413l-1.22-2.106c.64-.295 1.12-.642 1.27-1.353.1-.428.09-1.018-.29-1.455-.67-.773-1.68-.733-2.37-.723 0 0-.21.021-.73.021-.49 0-1.26-.02-1.26-.02zm5.73 0-.05.051v1.65c0 .051.11.04.11 0 .07-.255.13-.59.19-.69.38-.765 1.34-.675 1.81-.675h.61v5.195c0 .733.04 1.315-.78 1.315-.07 0-.07.152 0 .152 0 0 .69-.02 1.12-.02.45 0 1.19.02 1.19.02.07 0 .07-.152 0-.152-.81 0-.8-.582-.8-1.315V18.55h.59c.47 0 1.41-.09 1.81.674.05.101.11.436.17.691.01.04.12.051.12 0v-1.65l-.06-.05s-1.8.03-2.96.03c-1.2 0-3.07-.03-3.07-.03zm7.02 0c-.07 0-.07.152 0 .152.82 0 .77.591.77 1.313v4.068c0 .732.05 1.313-.77 1.313-.07 0-.07.152 0 .152 0 0 .68-.02 1.12-.02.45 0 1.19.02 1.19.02.09 0 .09-.152 0-.152-.81 0-.8-.58-.8-1.313v-1.982h4.32v1.982c0 .732.04 1.313-.77 1.313-.05-.01-.09.152.03.152 0 0 .69-.02 1.14-.02.43 0 1.1.02 1.1.02.09 0 .09-.163 0-.152-.8 0-.77-.58-.77-1.313v-4.068c0-.722-.03-1.313.77-1.313.08-.01.09-.162 0-.152 0 0-.7.021-1.16.021-.43 0-1.11-.02-1.11-.02-.07 0-.06.151 0 .151.81 0 .77.591.77 1.313v1.832h-4.32v-1.832c0-.722-.03-1.313.77-1.313.08 0 .08-.152 0-.152 0 0-.68.021-1.12.021-.46 0-1.16-.02-1.16-.02zm25.21 0c-.08 0-.08.152 0 .152.81 0 .8.591.8 1.313v4.068c0 .732.04 1.313-.77 1.313-.08 0-.1.152 0 .152 0 0 .68-.02 1.11-.02.45 0 1.2.02 1.2.02.08 0 .09-.163 0-.152-.81 0-.81-.58-.81-1.313v-1.9c.92.01.96-.113 1.54.844l.74 1.23c.64 1.007 1.01 1.393 1.92 1.393h.21c.02 0 .14-.01.19-.05-.87-.246-.99-.468-1.54-1.413l-1.22-2.106c.64-.295 1.12-.642 1.27-1.353.11-.428.1-1.018-.29-1.455-.67-.773-1.68-.733-2.37-.723 0 0-.2.021-.73.021-.49 0-1.25-.02-1.25-.02zm19.95 0c-.08 0-.06.163 0 .152.81 0 .77.591.77 1.313v4.068c0 .742.04 1.313-.77 1.313-.07 0-.06.152 0 .152 0 0 .68-.02 1.12-.02.45 0 1.19.02 1.19.02.06 0 .07-.152 0-.152-.82 0-.8-.58-.8-1.313v-4.068c0-.722-.02-1.313.78-1.313.08-.01.1-.162 0-.152 0 0-.69.021-1.13.021-.45 0-1.16-.02-1.16-.02zm-141.88.002c-.091.01-.091.152 0 .152.804 0 .822.6.822 1.321l-.07 4.058c0 .733.052 1.313-.752 1.313-.082 0-.082.152 0 .152 0 0 .569-.02.936-.02.406 0 1.015.02 1.015.02.082 0 .062-.162 0-.152-.813 0-.762-.58-.762-1.313l-.06-4.598 5.045 5.993c.081.061.09.07.162.06.051 0 .111-.03.111-.06 0 0 .011-.865.02-.875l.072-4.588c0-.722-.05-1.31.764-1.31.071-.012.071-.153 0-.153 0 0-.621.02-1.018.02-.365 0-.947-.02-.947-.02-.082 0-.071.152 0 .152.814 0 .753.59.764 1.311l.072 4.283c-.011 0-4.832-5.746-4.832-5.746s-.377.02-.621.02c-.275 0-.721-.02-.721-.02zm11.638 0c-.07 0-.07.152 0 .152.65 0 .72.213.95.823l2.14 5.31c.08.203.28.814.46.814s.43-.703.48-.804l2.31-5.217c.28-.66.64-.926 1.08-.926.06 0 .07-.163 0-.152 0 0-.62.02-1.02.02-.36 0-.93-.02-.93-.02-.09.011-.09.152.01.152.98 0 .42.945.35 1.117l-2.03 4.893-1.88-4.687c-.14-.357-.31-.774-.14-1.059.16-.276.36-.254.6-.254.08-.01.09-.162 0-.162 0 0-.72.02-1.15.02-.46 0-1.23-.02-1.23-.02zm56.91 0c-.09.01-.09.152 0 .152.81 0 .83.6.83 1.321l-.07 4.058c0 .733.05 1.313-.76 1.313-.08 0-.08.152 0 .152 0 0 .58-.02.94-.02.41 0 1.02.02 1.02.02.08 0 .06-.162 0-.152-.82 0-.76-.58-.76-1.313l-.06-4.598s4.99 5.931 5.04 5.993c.08.061.09.07.16.06.05 0 .11-.03.11-.06 0 0 .02-.865.03-.875l.07-4.586c0-.723-.06-1.313.76-1.313.07-.01.07-.152 0-.152 0 0-.62.02-1.02.02-.36 0-.95-.02-.95-.02-.08 0-.07.152 0 .152.82 0 .76.59.77 1.313l.07 4.281c-.01 0-4.83-5.746-4.83-5.746s-.38.02-.62.02c-.28 0-.73-.02-.73-.02zm48.74 0-2.28 5.857c-.28.753-.57.916-1.09.987-.1-.01-.06.163 0 .154 0 0 .58-.022.95-.022.4 0 .98.022.98.022.09-.01.08-.134.01-.145h-.17c-.45 0-.43-.355-.36-.599l.71-2.055h2.36l.82 1.861c.27.54.06.793-.37.793h-.23c-.09.021-.06.154-.02.145 0 0 .77-.022 1.26-.022.46 0 1.17.022 1.17.022.05.01.04-.133.02-.133-.45-.143-.81-.225-1.11-.957l-2.51-5.908h-.14zm18.6 0c-.07 0-.07.152 0 .152.8 0 .76.588.77 1.31v4.061c0 .732.03 1.311-.77 1.311-.07 0-.07.163 0 .152 0 .011 1.2-.01 2.42-.01 1.27 0 2.58.01 2.58.01l.17-1.584-.1-.03c-.15.558-.23.943-.87 1.227-.35.162-2.12.336-2.47.112-.27-.162-.22-.933-.22-1.156v-4.094c.01-.72-.05-1.309.77-1.309.06 0 .07-.152 0-.152 0 0-.68.02-1.12.02-.46 0-1.16-.02-1.16-.02zm9.41 0c-.09.01-.09.152 0 .152.81 0 .83.6.83 1.321l-.07 4.058c0 .733.05 1.313-.76 1.313-.08 0-.08.152 0 .152 0 0 .57-.02.94-.02.41 0 1.02.02 1.02.02.08 0 .06-.162 0-.152-.82 0-.77-.58-.77-1.313l-.06-4.598s5 5.931 5.05 5.993c.08.061.09.07.16.06.05 0 .11-.03.11-.06 0 0 .01-.865.02-.875l.08-4.588c0-.722-.06-1.31.76-1.31.07-.012.07-.153 0-.153 0 0-.62.02-1.02.02-.37 0-.95-.02-.95-.02-.08 0-.07.152 0 .152.82 0 .76.59.77 1.311l.07 4.283c-.01 0-4.83-5.746-4.83-5.746s-.38.02-.62.02c-.28 0-.73-.02-.73-.02zm11.2 0-2.27 5.857c-.28.753-.57.916-1.09.987-.1-.01-.06.163 0 .154 0 0 .58-.022.95-.022.4 0 .98.022.98.022.09-.01.08-.134.01-.145h-.17c-.45 0-.43-.355-.36-.599l.7-2.055h2.38l.81 1.861c.27.54.06.793-.37.793h-.23c-.09.021-.06.154-.02.145 0 0 .77-.022 1.26-.022.46 0 1.17.022 1.17.022.05.01.04-.133.02-.133-.45-.143-.8-.225-1.11-.957l-2.51-5.908h-.15zm-76.73.14c1.37.011 2.44 1.115 2.81 2.708.38 1.586-.19 3.507-1.83 3.935-1.84.478-3.08-.824-3.53-2.584-.42-1.647.25-3.64 1.95-3.996.2-.044.41-.066.6-.064zm51.64 0c1.37.011 2.44 1.115 2.81 2.708.38 1.586-.19 3.507-1.83 3.935-1.84.478-3.08-.824-3.52-2.584-.43-1.647.24-3.64 1.94-3.996.2-.044.41-.066.6-.064zm-103.19.014c.51-.047 1.1.031 1.54.496.43.468.59 1.13.43 1.637-.15.56-.57.945-1.13 1.098-.31.092-.76.082-1.31-.09v-3.063c.14-.033.3-.062.47-.078zm57.76 0c.51-.047 1.1.031 1.53.496.44.468.59 1.13.44 1.637-.15.56-.57.945-1.13 1.098-.31.092-.76.082-1.31-.09v-3.063c.14-.033.3-.062.47-.078zm37.95 0c.51-.047 1.1.031 1.53.496.44.468.59 1.13.44 1.637-.15.56-.57.945-1.13 1.098-.31.092-.76.082-1.31-.09v-3.063c.14-.033.3-.062.47-.078zm-6.79.912 1.15 2.89h-2.15l1-2.89zm39.22 0 1.15 2.89h-2.15l1-2.89zm-96.36 1.354c-.11 0-.22.011-.3.03-.14.03-.36.1-.6.253-1.02.611-1.5 1.842-1.52 2.594-.02.458.08 1.14.64 1.537.47.336 1.06.274 1.48.101.92-.377 1.57-1.444 1.76-2.248.12-.559.08-1.343-.4-1.83a1.445 1.445 0 0 0-1.06-.437zm.04.23c.12.014.24.061.35.147.42.345.43 1.077.36 1.687-.12 1.007-.61 1.983-1.29 2.268-.23.091-.53.122-.77-.05-.36-.266-.39-.936-.36-1.24.04-.53.48-2.462 1.37-2.767.1-.04.22-.059.34-.045zm50.2 11.31c-.32.013-.63.042-.91.083-.87.093-1.68.351-2.48.771-3.1 1.588-4.53 4.16-4.83 7.078a8.736 8.736 0 0 0 3.15 7.663c2.48 2.01 6.52 2.71 9.04 1.892 3.06-1.004 4.56-2.92 5.35-5.747.84-2.99.61-5.933-1.75-8.666-2.19-2.535-5.3-3.173-7.57-3.074zm40.42 0c-.32.013-.63.042-.91.083-.87.093-1.68.351-2.48.771-3.1 1.588-4.53 4.16-4.83 7.078a8.71 8.71 0 0 0 3.15 7.663c2.48 2.01 6.52 2.71 9.04 1.892 3.06-1.004 4.56-2.92 5.35-5.747.84-2.99.61-5.933-1.75-8.666-2.19-2.535-5.31-3.173-7.57-3.074zm-75.52.011c-1.42-.05-2.98.12-4.05.773-1.68 1.028-2.36 2.92-2.36 4.23 0 2.311 1.76 3.736 3.91 5.043l1.84 1.053c1.54.888 2.24 1.306 2.36 2.686.09.794-.21 1.751-1 2.406-.89.723-2.2.723-2.99.49-1.94-.584-2.81-1.96-3.44-3.877l-.77.047.23 4.156c.29.095 1.08.26 1.36.33l.28.07c1.96.49 5.21.887 7.17-.982 1.17-1.074 1.75-2.686 1.57-4.252-.26-2.149-1.64-3.34-3.81-4.578l-1.54-.84c-1.24-.725-2.69-1.892-2.76-3.2-.05-.795.3-1.59 1.07-2.15.89-.632 2.25-.539 3.21-.165 2.03.841 2.03 1.94 2.63 3.644l.73-.07-.19-4.11c-.09-.07-.11-.094-.28-.163-.48-.223-1.75-.492-3.17-.54zm-97.277.011c-2.164.08-4.326.634-6.031 2.071-2.803 2.383-3.316 5.934-2.99 8.457.327 2.687 1.939 5.044 4.789 6.422 2.989 1.472 8.901.795 10.957-.303.187-.094.373-.256.514-.373v-3.34c0-1.519.255-1.73 1.587-2.033v-.537h-6.05v.537c.724.163 1.613.257 1.613 1.892v3.223c-.117.093-.212.187-.422.328-1.331.747-3.689.748-5.139.07-3.082-1.424-4.134-4.229-4.414-6.775-.211-1.89-.024-5.7 2.264-7.522 1.94-1.518 4.86-1.449 6.799-.748 2.359.887 2.827 1.798 3.295 3.971h.584l-.047-4.017c-.117-.14-1.262-.538-1.262-.538-1.717-.467-3.883-.863-6.047-.785zm67.827.078v.526c.23.046.92.091 1.22.252.64.412.57 1.099.57 2.38v10.956c0 1.624-.34 2.424-1.85 2.607v.526s1.37-.068 2.24-.068c1.07 0 2.74.068 2.74.068v-.525c-.23 0-.96-.185-1.09-.3-.94-.548-.92-1.532-.92-2.515v-10.91l11.41 12.923c.64.732 1.42 1.83 1.79 1.715.39-.113.32-1.165.32-1.99V35.615c0-.983-.03-1.968.93-2.517.12-.09.9-.297 1.1-.297v-.526s-1.67.07-2.72.07c-.89 0-2.29-.07-2.29-.07v.526c1.54.206 1.86.984 1.86 2.631v9.148l-10.91-12.304s-1.26.044-2.2.044c-.85 0-2.2-.044-2.2-.044zm-54.325.381v.514c.374.046.561.001.912.187.795.398.864 1.1.864 1.87v11.398c0 1.66.022 2.103-1.776 2.383v.514s1.916-.07 3.155-.07c1.214 0 3.154.07 3.154.07v-.514c-1.776-.233-1.73-1.122-1.752-2.383v-4.953c.139 0 .677.025.816.025 1.098.21 1.331.98 1.799 1.938l.983 1.94c1.728 3.433 3.247 4.32 6.212 3.993.187-.023.562-.07.702-.164l.068-.513c-1.822-.28-2.194-1.122-3.199-2.873l-2.125-3.737-.49-.77c1.541-.539 2.452-1.403 2.943-2.99.35-1.052.186-3.085-.654-4.207-1.216-1.588-3.878-1.68-5.233-1.658 0 0-2.315.047-3.435.047-1.146 0-2.944-.047-2.944-.047zm18.578 0v.514c.351.046.563.001.889.187.818.398.868 1.1.868 1.87v11.398c0 1.66.02 2.103-1.757 2.383v.514s4.367-.047 5.907-.047c1.62 0 6.41.047 6.41.047l.32-4.323-.79-.115c-.35 1.448-.68 2.546-2.27 3.13-.77.303-3.64.513-4.39 0-.72-.492-.65-2.103-.65-2.689V41.44h1.12c.63 0 2.12 0 2.69.466.41.328.72 1.193.69 1.8h.75s-.07-1.87-.07-3.085c0-1.005.07-2.568.07-2.568h-.82c-.07.63-.09 1.26-.44 1.705-.58.723-2.27.631-2.87.631h-1.12v-6.776h1.35c3.34.024 3.58-.398 5.05 2.897l.67-.07-.39-3.784s-4.56.07-7.48.07c-1.47 0-3.737-.07-3.737-.07zm18.177 0v.514c.35.046.56.001.89.187.82.398.86 1.1.86 1.87v11.398c0 1.66.03 2.103-1.75 2.383v.514s4.37-.047 5.91-.047c1.61 0 6.4.047 6.4.047l.33-4.323-.8-.115c-.35 1.448-.67 2.546-2.26 3.13-.77.303-3.65.513-4.39 0-.73-.492-.66-2.103-.66-2.689V41.44h1.12c.63 0 2.13 0 2.69.466.42.328.73 1.193.7 1.8h.75s-.07-1.87-.07-3.085c0-1.005.07-2.568.07-2.568h-.82c-.07.63-.09 1.26-.44 1.705-.59.723-2.27.631-2.88.631h-1.12v-6.776h1.36c3.34.024 3.57-.398 5.04 2.897l.68-.07-.4-3.784s-4.55.07-7.47.07c-1.47 0-3.74-.07-3.74-.07zm56.4 0v.514c.37.046.56.001.91.187.79.398.86 1.1.86 1.87v11.398c0 1.66.03 2.103-1.77 2.383v.514s2.01-.07 3.29-.07c1.03 0 2.64.07 2.64.07 1.61 0 4.46.14 6.03-1.87.89-1.19.82-3.222.49-4.179-.68-1.963-2.34-2.454-3.97-2.92 1.33-.445 2.33-.819 3.06-2.244.56-1.12.47-2.687-.17-3.692-1.33-2.103-4.08-1.96-5.46-1.96 0 0-1.63.068-2.69.068-1.26 0-3.22-.069-3.22-.069zm39.71 0v.514c.38.046.56.001.91.187.8.398.87 1.1.87 1.87v11.398c0 1.66.02 2.103-1.78 2.383v.514s1.92-.07 3.15-.07c1.22 0 3.16.07 3.16.07v-.514c-1.78-.233-1.73-1.122-1.75-2.383v-4.953c.14 0 .67.025.81.025 1.1.21 1.34.98 1.8 1.938l.98 1.94c1.73 3.433 3.25 4.32 6.22 3.993.19-.023.56-.07.7-.164l.07-.513c-1.82-.28-2.2-1.122-3.2-2.873l-2.13-3.737-.49-.77c1.54-.539 2.46-1.403 2.95-2.99.35-1.052.18-3.085-.66-4.207-1.21-1.588-3.88-1.68-5.23-1.658 0 0-2.31.047-3.43.047-1.15 0-2.95-.047-2.95-.047zm-13.34.412c1.31.052 2.61.612 3.81 2.227 2.03 2.757 2.27 7.406 1.24 10.232-.65 1.915-1.38 2.966-3.39 3.457-1.23.327-3.01.07-4.29-1.074-2.57-2.337-2.97-6.89-2.62-9.32.23-1.589.98-4.16 2.94-5.117.54-.234 1.12-.35 1.75-.397.19-.01.38-.015.56-.008zm40.42 0c1.31.052 2.61.612 3.81 2.227 2.03 2.757 2.27 7.406 1.24 10.232-.65 1.915-1.38 2.966-3.39 3.457-1.24.327-3.01.07-4.3-1.074-2.57-2.337-2.96-6.89-2.61-9.32.23-1.589.98-4.16 2.94-5.117.54-.234 1.12-.35 1.75-.397.19-.01.38-.015.56-.008zm-62.24.381c.73 0 1.5.001 1.87.094 1.26.304 1.94 1.005 2.39 2.197.35.958.44 2.36-.38 3.434-1.07 1.424-2.89 1.214-3.88 1.168V33.45zm-92.127.018c1.05.01 2.149.281 2.973 1.525.771 1.168 1.027 3.13.396 4.297-.794 1.543-2.243 1.59-3.457 1.613-.256 0-.933-.046-.933-.046V33.52c.327-.03.671-.056 1.021-.053zm132.87 0c1.05.01 2.15.281 2.97 1.525.77 1.168 1.03 3.13.4 4.297-.79 1.543-2.25 1.59-3.46 1.613-.26 0-.93-.046-.93-.046V33.52c.32-.03.67-.056 1.02-.053zm-39.89 7.793c.94-.034 2.1.145 2.94 1.021 1.12 1.168 1.35 3.176 1.1 4.274-.19.887-.54 1.682-1.54 2.033-.56.233-2.18.303-2.81-.094-.51-.326-.54-1.332-.54-2.476v-4.672c.25-.04.54-.074.85-.085z" fill="#036"/><path d="M20.582 5.108c-.448-.016-1.04.042-1.609.344-1.408.746-1.778 2.162-1.778 2.162s1.038-1.197 2.35-1.791c1.098-.498 1.791-.608 1.791-.608s-.306-.09-.754-.107zm1.973 9.624a6.686 6.686 0 0 0-1.778.354s-.768.188-1.72.893c-.885.653-.994 1.055-1.616 1.283-.621.228-.768.166-1.388.594l-.168.142c-1.146.976-1.136 2.267-.899 3.922.247 1.722.603 2.295 1.473 4.05.391-.04.894-.114 1.262-.246 1.159-.415 1.395-1.55 2.486-1.948 1.098-.4 1.962-.155 2.209-.068-.048-.17-.918-3.218-.648-5.246.04-.56.174-1.744.605-2.482.547-.94 1.039-1.085 1.65-1.116a5.064 5.064 0 0 0-1.468-.131zm5.297 4.836-.979.532c.045.272.157.59.387.95.808 1.268 1.962 1.47 3.16 2.58 1.969 1.824 3.025 2.444 5.512 3.687 1.365.684 4.529 1.372 4.879 1.334a20.243 20.243 0 0 1-1.336-.378c-.891-.291-1.26-.451-2.01-.852-3.295-1.761-6.962-4.455-7.293-4.662s-.58-.641-.58-.641l-1.74-2.55zm-2.641 7.223c-.415.216-1.033.535-1.721.811-1.093.438-2.898.855-2.898.855s2.034-.103 3.293-.396c.552-.128 1.035-.283 1.396-.395l-.07-.875z" fill="#fff"/><g clip-path="url(#c)" transform="matrix(1.18209 0 0 -1.18209 -236.355 142.341)"><path d="M203.94 113.27h28.24V81.373h-28.24v31.897z" fill="#fcd006"/><path d="M236.4 78.5c0 17.612-8.342 31.888-18.633 31.888S199.133 96.112 199.133 78.5s8.343-31.888 18.634-31.888S236.4 60.888 236.4 78.5" fill="#fcd006"/><path d="M236.2 78.5c0 17.424-8.253 31.549-18.435 31.549S199.33 95.924 199.33 78.5s8.253-31.549 18.435-31.549S236.2 61.076 236.2 78.5" fill="#fcd008"/><path d="M236 78.5c0 17.237-8.165 31.21-18.237 31.21s-18.237-13.973-18.237-31.21 8.165-31.21 18.237-31.21S236 61.263 236 78.5" fill="#fcd10b"/><path d="M235.8 78.5c0 17.05-8.076 30.871-18.039 30.871-9.962 0-18.038-13.821-18.038-30.871 0-17.049 8.076-30.87 18.038-30.87 9.963 0 18.039 13.821 18.039 30.87" fill="#fcd10d"/><path d="M235.61 78.5c0 16.862-7.987 30.532-17.841 30.532-9.853 0-17.84-13.67-17.84-30.532s7.987-30.532 17.84-30.532c9.854 0 17.841 13.67 17.841 30.532" fill="#fcd20f"/><path d="M235.41 78.5c0 16.675-7.898 30.192-17.642 30.192S200.126 95.175 200.126 78.5s7.898-30.192 17.642-30.192S235.41 61.825 235.41 78.5" fill="#fcd212"/><path d="M235.22 78.5c0 16.488-7.81 29.853-17.444 29.853S200.332 94.988 200.332 78.5c0-16.487 7.81-29.853 17.444-29.853S235.22 62.013 235.22 78.5" fill="#fcd214"/><path d="M235.02 78.5c0 16.3-7.721 29.514-17.246 29.514-9.524 0-17.245-13.214-17.245-29.514s7.721-29.514 17.245-29.514c9.525 0 17.246 13.214 17.246 29.514" fill="#fcd317"/><path d="M234.82 78.5c0 16.113-7.632 29.174-17.047 29.174S200.725 94.613 200.725 78.5s7.633-29.174 17.048-29.174S234.82 62.387 234.82 78.5" fill="#fcd319"/><path d="M234.62 78.5c0 15.926-7.544 28.835-16.849 28.835-9.306 0-16.849-12.909-16.849-28.835 0-15.925 7.543-28.835 16.849-28.835 9.305 0 16.849 12.91 16.849 28.835" fill="#fcd41c"/><path d="M234.42 78.5c0 15.738-7.455 28.496-16.651 28.496S201.118 94.238 201.118 78.5s7.455-28.496 16.651-28.496S234.42 62.762 234.42 78.5" fill="#fcd41e"/><path d="M234.22 78.5c0 15.551-7.366 28.157-16.453 28.157-9.086 0-16.452-12.606-16.452-28.157 0-15.55 7.366-28.156 16.452-28.156 9.087 0 16.453 12.606 16.453 28.156" fill="#fcd520"/><path d="M234.03 78.5c0 15.364-7.277 27.818-16.254 27.818-8.978 0-16.255-12.454-16.255-27.818 0-15.363 7.277-27.817 16.255-27.817 8.977 0 16.254 12.454 16.254 27.817" fill="#fcd523"/><path d="M233.83 78.5c0 15.176-7.189 27.478-16.056 27.478-8.868 0-16.057-12.302-16.057-27.478s7.189-27.478 16.057-27.478c8.867 0 16.056 12.302 16.056 27.478" fill="#fcd526"/><path d="M233.63 78.5c0 14.989-7.1 27.139-15.858 27.139s-15.858-12.15-15.858-27.139 7.1-27.139 15.858-27.139S233.63 63.511 233.63 78.5" fill="#fdd628"/><path d="M233.43 78.5c0 14.801-7.011 26.8-15.66 26.8s-15.66-11.999-15.66-26.8 7.011-26.8 15.66-26.8 15.66 11.999 15.66 26.8" fill="#fdd72a"/><path d="M233.23 78.5c0 14.614-6.922 26.461-15.462 26.461-8.539 0-15.461-11.847-15.461-26.461s6.922-26.46 15.461-26.46c8.54 0 15.462 11.846 15.462 26.46" fill="#fdd72d"/><path d="M233.03 78.5c0 14.427-6.833 26.121-15.263 26.121S202.503 92.927 202.503 78.5s6.834-26.121 15.264-26.121S233.03 64.073 233.03 78.5" fill="#fdd72f"/><path d="M232.83 78.5c0 14.239-6.745 25.782-15.065 25.782-8.321 0-15.065-11.543-15.065-25.782s6.744-25.782 15.065-25.782c8.32 0 15.065 11.543 15.065 25.782" fill="#fdd832"/><path d="M232.63 78.5c0 14.052-6.656 25.443-14.867 25.443S202.896 92.552 202.896 78.5c0-14.051 6.656-25.442 14.867-25.442S232.63 64.449 232.63 78.5" fill="#fdd834"/><path d="M232.44 78.5c0 13.865-6.567 25.104-14.669 25.104-8.101 0-14.669-11.239-14.669-25.104 0-13.864 6.568-25.103 14.669-25.103 8.102 0 14.669 11.239 14.669 25.103" fill="#fdd937"/><path d="M232.24 78.5c0 13.677-6.479 24.764-14.471 24.764-7.991 0-14.47-11.087-14.47-24.764s6.479-24.764 14.47-24.764c7.992 0 14.471 11.087 14.471 24.764" fill="#fdd939"/><path d="M232.04 78.5c0 13.49-6.39 24.425-14.272 24.425-7.883 0-14.273-10.935-14.273-24.425s6.39-24.425 14.273-24.425c7.882 0 14.272 10.935 14.272 24.425" fill="#fdda3c"/><path d="M231.84 78.5c0 13.303-6.301 24.086-14.074 24.086S203.692 91.803 203.692 78.5c0-13.302 6.301-24.085 14.074-24.085S231.84 65.198 231.84 78.5" fill="#fdda3e"/><path d="M231.64 78.5c0 13.115-6.212 23.747-13.876 23.747S203.888 91.615 203.888 78.5s6.212-23.746 13.876-23.746S231.64 65.385 231.64 78.5" fill="#fddb41"/><path d="M231.44 78.5c0 12.928-6.123 23.408-13.678 23.408-7.554 0-13.677-10.48-13.677-23.408s6.123-23.407 13.677-23.407c7.555 0 13.678 10.479 13.678 23.407" fill="#fddb43"/><path d="M231.24 78.5c0 12.741-6.035 23.068-13.479 23.068-7.445 0-13.48-10.327-13.48-23.068 0-12.74 6.035-23.068 13.48-23.068 7.444 0 13.479 10.328 13.479 23.068" fill="#fddb46"/><path d="M231.05 78.5c0 12.553-5.946 22.729-13.281 22.729-7.336 0-13.282-10.176-13.282-22.729s5.946-22.729 13.282-22.729c7.335 0 13.281 10.176 13.281 22.729" fill="#fddc48"/><path d="M230.86 78.5c0 12.366-5.857 22.39-13.083 22.39-7.225 0-13.082-10.024-13.082-22.39 0-12.365 5.857-22.39 13.082-22.39 7.226 0 13.083 10.025 13.083 22.39" fill="#fddd4b"/><path d="M230.66 78.5c0 12.178-5.768 22.051-12.885 22.051-7.116 0-12.884-9.873-12.884-22.051s5.768-22.05 12.884-22.05c7.117 0 12.885 9.872 12.885 22.05" fill="#fddd4e"/><path d="M230.46 78.5c0 11.991-5.68 21.711-12.686 21.711-7.007 0-12.687-9.72-12.687-21.711s5.68-21.711 12.687-21.711c7.006 0 12.686 9.72 12.686 21.711" fill="#fddd50"/><path d="M230.26 78.5c0 11.804-5.591 21.372-12.488 21.372s-12.488-9.568-12.488-21.372 5.591-21.372 12.488-21.372S230.26 66.696 230.26 78.5" fill="#fdde53"/><path d="M230.06 78.5c0 11.616-5.502 21.033-12.29 21.033s-12.29-9.417-12.29-21.033 5.502-21.033 12.29-21.033 12.29 9.417 12.29 21.033" fill="#fdde55"/><path d="M229.86 78.5c0 11.429-5.414 20.694-12.092 20.694s-12.091-9.265-12.091-20.694 5.413-20.693 12.091-20.693S229.86 67.071 229.86 78.5" fill="#fddf58"/><path d="M229.66 78.5c0 11.242-5.325 20.354-11.894 20.354-6.568 0-11.893-9.112-11.893-20.354 0-11.241 5.325-20.354 11.893-20.354 6.569 0 11.894 9.113 11.894 20.354" fill="#fddf5a"/><path d="M229.47 78.5c0 11.054-5.236 20.015-11.695 20.015-6.46 0-11.696-8.961-11.696-20.015s5.236-20.015 11.696-20.015c6.459 0 11.695 8.961 11.695 20.015" fill="#fde05d"/><path d="M229.27 78.5c0 10.867-5.147 19.676-11.497 19.676s-11.497-8.809-11.497-19.676c0-10.866 5.147-19.676 11.497-19.676s11.497 8.81 11.497 19.676" fill="#fde060"/><path d="M229.07 78.5c0 10.68-5.059 19.337-11.299 19.337S206.472 89.18 206.472 78.5c0-10.679 5.059-19.336 11.299-19.336S229.07 67.821 229.07 78.5" fill="#fde162"/><path d="M228.87 78.5c0 10.492-4.97 18.998-11.101 18.998-6.13 0-11.101-8.506-11.101-18.998s4.971-18.997 11.101-18.997c6.131 0 11.101 8.505 11.101 18.997" fill="#fde165"/><path d="M228.67 78.5c0 10.305-4.881 18.658-10.903 18.658-6.021 0-10.902-8.353-10.902-18.658s4.881-18.658 10.902-18.658c6.022 0 10.903 8.353 10.903 18.658" fill="#fde267"/><path d="M228.47 78.5c0 10.118-4.792 18.319-10.704 18.319s-10.704-8.201-10.704-18.319c0-10.117 4.792-18.319 10.704-18.319S228.47 68.383 228.47 78.5" fill="#fde26a"/><path d="M228.27 78.5c0 9.93-4.704 17.98-10.506 17.98-5.803 0-10.506-8.05-10.506-17.98s4.703-17.979 10.506-17.979c5.802 0 10.506 8.049 10.506 17.979" fill="#fde36c"/><path d="M228.08 78.5c0 9.743-4.615 17.64-10.308 17.64s-10.308-7.897-10.308-17.64 4.615-17.64 10.308-17.64 10.308 7.897 10.308 17.64" fill="#fde36f"/><path d="M227.88 78.5c0 9.555-4.526 17.301-10.11 17.301-5.583 0-10.109-7.746-10.109-17.301s4.526-17.301 10.109-17.301c5.584 0 10.11 7.746 10.11 17.301" fill="#fde472"/><path d="M227.68 78.5c0 9.368-4.437 16.962-9.911 16.962s-9.912-7.594-9.912-16.962 4.438-16.961 9.912-16.961 9.911 7.593 9.911 16.961" fill="#fde474"/><path d="M227.48 78.5c0 9.181-4.349 16.623-9.713 16.623-5.365 0-9.714-7.442-9.714-16.623 0-9.18 4.349-16.622 9.714-16.622 5.364 0 9.713 7.442 9.713 16.622" fill="#fde577"/><path d="M227.28 78.5c0 8.993-4.26 16.284-9.515 16.284s-9.515-7.291-9.515-16.284 4.26-16.283 9.515-16.283 9.515 7.29 9.515 16.283" fill="#fde57a"/><path d="M227.08 78.5c0 8.806-4.171 15.944-9.317 15.944-5.145 0-9.317-7.138-9.317-15.944s4.172-15.944 9.317-15.944c5.146 0 9.317 7.138 9.317 15.944" fill="#fee67c"/><path d="M226.88 78.5c0 8.619-4.082 15.605-9.119 15.605-5.036 0-9.118-6.986-9.118-15.605 0-8.618 4.082-15.605 9.118-15.605 5.037 0 9.119 6.987 9.119 15.605" fill="#fee67f"/><path d="M226.68 78.5c0 8.431-3.994 15.266-8.92 15.266-4.927 0-8.921-6.835-8.921-15.266s3.994-15.265 8.921-15.265c4.926 0 8.92 6.834 8.92 15.265" fill="#fee782"/><path d="M226.5 78.5c0 8.244-3.905 14.927-8.722 14.927s-8.722-6.683-8.722-14.927 3.905-14.926 8.722-14.926S226.5 70.256 226.5 78.5" fill="#fee784"/><path d="M226.3 78.5c0 8.056-3.816 14.587-8.524 14.587-4.707 0-8.523-6.531-8.523-14.587s3.816-14.587 8.523-14.587c4.708 0 8.524 6.531 8.524 14.587" fill="#fee887"/><path d="m217.95 82.511 16.234 11.707-.103-4.869-16.131-6.838 16.133 2.736-1.053-5.161-15.08 2.425-14.916-2.398-1.113 5.116 16.029-2.718-15.987 6.807-.089 4.843 16.076-11.65-16.063 18.26-.095 6.456 16.158-24.716-11.127 32.183 4.382.018 6.745-32.201 6.911 32.263h4.417L217.95 82.511l16.15 24.703.055-6.352-16.205-18.351z" fill="#fcd006"/></g></svg>