<svg xmlns="http://www.w3.org/2000/svg" aria-labelledby="title" width="100" height="28.866"><path style="fill:#00519e" d="M92.6 0H291v84H92.6ZM0 0h84v84H0Z" transform="scale(.34364)"/><path style="fill:#fff" d="M107.9 25.3h8v-1.8h-5.8V10.1h-2.2zm17.5-1.7c-.5.2-1.1.4-2 .4-2.9 0-3.8-2.7-3.8-4.7h6.1v-.5c0-2.5-1.2-4.2-3.8-4.2-1.3 0-4.3.5-4.3 5 0 4.1 2 6 5.2 6 1.1 0 1.8-.2 2.6-.4zm-5.7-5.7c0-.5.5-1.8 2.1-1.8 1.5 0 1.9 1.2 1.9 1.8zm9.2 7.4h2V14.8h-2zm-.2-13h2.4v-2.2h-2.4zm7.4-2.2h-2v10.8c0 1.3.1 4.6 4.1 4.6 3 0 4.2-2.1 4.2-5.4 0-2.7-.7-5.6-3.6-5.6-1.7 0-2.5 1.1-2.7 1.7zm0 9.9c0-1.4.6-3.9 2.2-3.9s1.9 2.5 1.9 4c0 1.9-.4 3.9-2.2 3.9-1.8 0-1.9-2.4-1.9-4zm9.3 5.3h2v-4.4c0-2.1 1.1-4.3 2.8-4.3 1.4 0 1.4 1.1 1.4 3v5.7h2V18c0-1.3-.4-3.5-2.8-3.5-2.1 0-3 1.6-3.3 2.5v-2.2h-2zm11.8 0h2V14.8h-2zm-.2-13h2.4v-2.2H157Zm4.9 13h7.7v-1.5h-5.3l5.1-7.4v-1.5h-7.1v1.5h4.7l-5.1 7.4zM118 34.5h-2.2v10.3c0 1.1 0 3.4-3 3.4-2.9 0-2.9-2.3-2.9-3.4V34.5h-2.2v10.7c0 3.3 2.2 4.7 5.1 4.7 3 0 5.2-1.5 5.2-4.7V34.5Zm3 15.2h2v-4.4c0-2.1 1.1-4.3 2.8-4.3 1.4 0 1.4 1.1 1.4 3v5.7h2v-7.3c0-1.3-.4-3.5-2.8-3.5-2.1 0-3 1.6-3.3 2.5v-2.2h-2zm11.5 0h2V39.2h-2zm-.2-13h2.4v-2.2h-2.4zm8.5 13h2l3.6-10.5h-2.2l-2.4 7.6-2.8-7.6h-2.2zm14.6-1.6c-.5.2-1.1.4-2 .4-2.9 0-3.8-2.7-3.8-4.7h6.1v-.5c0-2.5-1.2-4.2-3.8-4.2-1.3 0-4.3.5-4.3 5 0 4.1 2 6 5.2 6 1.1 0 1.8-.2 2.6-.4zm-5.7-5.7c0-.5.5-1.8 2.1-1.8 1.5 0 1.9 1.2 1.9 1.8zm8.9 7.3h2v-4.4c0-3.2 1.5-4.1 3.3-4.1V39c-2.1 0-2.9 1.5-3.2 2.4v-2.1h-2v10.4Zm10.4-6.5c-.7-.4-1.5-.8-1.5-1.5s.9-1.1 1.7-1.1c1.1 0 2.1.5 2.4.6v-1.8c-.5-.1-1.3-.4-2.4-.4-2.2 0-3.7 1-3.7 2.9 0 1.5 1.1 2.2 2.1 2.8l1 .6c.7.5 1.7.9 1.7 1.7 0 1.1-1.2 1.3-2.1 1.3-1.1 0-2.4-.5-2.6-.6v1.7c.5.1 1.4.4 2.8.4 2.4 0 3.9-1 3.9-3.2 0-1.7-1.3-2.4-2.4-3.1zm5.9 6.5h2V39.2h-2zm-.2-13h2.4v-2.2h-2.4zm11.4 11.6c-.3.1-.7.2-1.1.2-1.5 0-1.7-1.1-1.7-2v-5.6h2.9v-1.5h-2.9v-3.7l-2 1.2v2.5h-1.9v1.5h1.9v6.6c0 1.4.6 2.5 3.1 2.5.5 0 1.1 0 1.6-.2zm2.5-11.2h2.7v-2.4h-2.7zm4.5 0h2.7v-2.4h-2.7zm.7 12.6h2v-7.2c0-.9 0-3.5-3.4-3.5-2.9 0-3.9 1.5-3.9 3.1h2.1c0-.8.5-1.6 1.7-1.6.7 0 1.4.3 1.6 1.3v1.8c-2.7 0-5.7.7-5.7 3.4 0 1.6 1 2.8 3 2.8 1.6 0 2.4-1 2.7-1.5zm0-4.6v.6c0 1.2-1 2.8-2.4 2.8-.6 0-1.1-.5-1.1-1.3 0-1.3 1.6-2 3.1-2zm10.9 3.2c-.3.1-.7.2-1.1.2-1.5 0-1.7-1.1-1.7-2v-5.6h2.9v-1.5h-2.9v-3.7l-2 1.2v2.5H198v1.5h1.9v6.6c0 1.4.6 2.5 3.1 2.5.5 0 1.1 0 1.6-.2zM127 74.1h2v-7.2c0-.9 0-3.5-3.4-3.5-2.9 0-3.9 1.5-3.9 3.1h2.1c0-.8.5-1.6 1.7-1.6.7 0 1.4.3 1.6 1.3v1.9c-2.7 0-5.7.7-5.7 3.4 0 1.6 1 2.8 3 2.8 1.6 0 2.4-1 2.7-1.5zm0-4.7v.6c0 1.2-1 2.8-2.4 2.8-.6 0-1.1-.5-1.1-1.3 0-1.3 1.6-2 3.1-2zm5.3 4.7h2v-4.4c0-2.1 1.1-4.3 2.8-4.3 1.4 0 1.4 1.1 1.4 3v5.7h2v-7.3c0-1.3-.4-3.5-2.8-3.5-2.1 0-3 1.6-3.3 2.5v-2.2h-2zm11.9 0h2v-4.4c0-2.1 1.1-4.3 2.8-4.3 1.4 0 1.4 1.1 1.4 3v5.7h2v-7.3c0-1.3-.4-3.5-2.8-3.5-2.1 0-3 1.6-3.3 2.5v-2.2h-2zm15.5.2c3.1 0 4.6-2.2 4.6-5.5s-1.5-5.5-4.6-5.5c-3.2 0-4.6 2.1-4.6 5.5-.1 3.4 1.4 5.5 4.6 5.5zm-2.5-5.4c0-1.7.3-3.9 2.4-3.9s2.4 2.2 2.4 3.9c0 1.7-.3 3.9-2.4 3.9s-2.4-2.3-2.4-3.9zm12 5.2h2l3.6-10.5h-2.1l-2.4 7.6-2.8-7.6h-2.2zm14.8-1.7c-.5.2-1.1.4-2 .4-2.9 0-3.8-2.7-3.8-4.7h6.1v-.5c0-2.5-1.2-4.2-3.8-4.2-1.3 0-4.3.5-4.3 5 0 4.1 2 6 5.2 6 1.1 0 1.8-.2 2.6-.4zm-5.7-5.6c0-.5.5-1.8 2.1-1.8 1.5 0 1.9 1.2 1.9 1.8zm8.9 7.3h2v-4.4c0-3.2 1.5-4.1 3.3-4.1v-2.2c-2.1 0-2.9 1.5-3.2 2.4v-2.1h-2v10.4zm-79.3 0h2.2v-7h6v7h2.2V58.9h-2.2v6.4h-6v-6.4h-2.2zM25.5 38.4s.1-1.3 1.2-1.2c.4 0 .5.4.6.8.5.9.3 1.7.3 1.7s-.1.9-1 1.5c0 0-.3.3.1.8.4.6.6 1.1.5 1.7-.1.6-.4.6-.8.6-.5 0-.4 1.1-.4 1.1h.4s.4-.5.9-.5.4 1.1.4 1.1v2.1c.1.4-.4.6-.4.9 0 .3.2 2-.8 2-.9 0-1.4-.6-1.4-1.5v-1.3s.1-.4-.2-.4c-.1 0-.2-.2-.3-.4 0-.1-.2-.3-.2-.5v-1s-.2-.2-.2-.7c0-.5.3-.4.3-.7v-1.9s0-.6.3-.6c0-.4.3-.6.6-.6 0 0 .1-.2 0-.4s-.1 0-.1-.6-.1-.7-.2-1c0-.5.4-1 .4-1zm17.3-.5c.7-.3 2.5-1.4 2.9-1 .2.2.6.7.6 1.3.1.9-.3 1.9-1.5 2.2 0 0-.3.5-1 .8-.4.1-.9 1.3-.9 1.3s-.4.6-.5 1.4c0 .3 0 .6.1.9.2.5.5 1.1 1 1.3.7.3 1.2-.1 1.7-.4.5-.3 1-.7 1.4-.7.8 0 1.8 0 1.8-1s-.2-1.6.4-2.3c0 0 0-1.6.1-1.6.2-.3.6-.3.6-.9 0-.5-.2-1-.9-1.1-.2 0-.6-.6-.6-.7-.4-.2-.4-.6-.4-.6s0-.6 1.3-.4c1.3.2 1.4 1.3 1.4 1.3s.3.8.1 1.3c-.2.5-.3.5-.2.9.1.4.2.9.1 1.3s-.3.5-.3.8c0 .3.5.6.4 1.4-.1.9-.9 1.2-.9 2.2.1 1-.4 1.5-1 1.7-.7.2-2.2 2.7-3.8 2.8-1.6.1-2.3.2-4.3-1.5-2.1-1.7-1.7-2.6-1.4-3.1.3-.4 1.1-1.7.8-2.5-.4-.8-.2-1.1.1-1.5.4-.4 1-.7 1.2-1.6.1-.5.6-.7.9-1.4-.1-.4.3-.5.8-.6zM12.1 61.5s.5-.4.6-.7c.1-.3.8-.3.9.1 0 .4.2 1.4.9 1.9.5.4.2 1.8 0 1.8s-.6.3-.5 1.5c.1 1.3-.5 2-.5 2s-.2.6.1.7c.3.1.8.5.6.9-.2.4-.8.9-.6 1.6.2.7.3.7.9.7.6 0 1.5 0 1.5.9 0 .6-1.8 2.7-3.2 3 0 0-.4-.2-.7-.3-.2-.1-.4.1-.5-.1-.7-.6-.7-1-.7-2 0-.5.1-1.2 0-1.7 0-.4-.2-.6-.3-.8-.1-.2.2-.7.7-1.8.5-1.1.5-1.3.1-2.3-.4-1-.2-.8 0-1.7.1-.9-.2-1.6.2-2 .4-.5.1-1 .3-1.2 0-.2.2-.5.2-.5zm57.1-47.9s-.6-.5.4-1.3c.5-.4 1.3-.5 2.1.2.5.4.4 1.3.2 2.2-.6.8-.6.7-.6 1.3 0 .5 0 .8-.1 1-.1.3-.3.5-.3.9s.1.8-.2 1.3c-.3.2-.5.4-.5.7V21s-.4.6-.4.8v2.6s.3.4.4.8c.1.6.3.6.4.7.1.2.3.4.3.8s-.3.6-.5.8c-.3.2-.5.4-.8.4-1 0-1.5-.7-1.5-.9-.1-.4-.3-.4-.5-.5-.1-.1-.3-.4-.3-1.1 0-.7.1-1.3-.2-1.6-.4-.4-.2-1.2 0-1.6.2-.3.2-.4.2-.9.1-.3.5-.7.6-1.2 0-.5-.3-.5-.3-1.2 0-.3 0-.6.1-.9.1-.4.1-.5.5-1.1.3-.6.7-.7 1.2-1 0 0 0-.6-.1-1.2 0-.6 0-1-.1-1.1 0 .1 0 0 0 0zm-13.9-3.1s.2-.5.6-.4c.4.1.4.1 1.2.6.9.5 1 .4 1 .8s-.3.7-.6.9c-.3.2-.8.3-.9.7-.1.4-.3.8-.7.8-.4 0-.5-.4-.4-.7.1-.3.5-.5.4-1.1-.1-.6 0-.8-.3-.9-.3-.2-.4-.3-.4-.4 0-.3.1-.3.1-.3zm.2 7.6s.4-.5 1-.1c.6.3.5.9.2 1.3s-.5.8-.5 1.3c.1.5.2 1.5-.3 1.6-.4.1-.5-.9-.4-1.2.1-.3.4-.3.4-.8-.1-.6-.3-.2-.4-.6-.1-.5-.1-.5-.2-.8-.1-.4.2-.7.2-.7zm-.4 6.7s0-.7.6-.5c.6.2.4.8.6 1 .2.2.9 1.2.4 1.5-.4.3-.9-.3-.9-.5s-.1-.6-.3-.7c-.2-.1-.4-.3-.4-.5zm0 2.7s-.1-1 .5-.9c0 0 .2.1.2.5s-.1.4.2.7c.3.3.1.5.3.7.2.1.7.6.7 1s-.4.6-.4.9c0 .3-.4.5-.4.9s.1.4.2.6c.1.3.2.7-.2 1-.4.3-.8.9-.8 1.1 0 .2-.1.7-.3.7-.1 0-.5-.3-.5-.6s.4-.4.4-1-.1-1.5.1-1.7c.2-.1.6-.4.6-1s.1-.5.2-.7c.1-.1.1-.4-.2-.4-.3 0-.8-.1-.8-.5.2-.3.2-1.3.2-1.3zm-.7 9.1s.1-.5.4-.4c.3.1.4.1.4.2.1.1.3.4.1.6-.2.2-.3.2-.5.1-.3-.2-.4-.5-.4-.5zm-.2 2.4s.1-.8.8-1c.7-.2.9 1.8.9 1.8s0 .5-.3.6c-.3.2 0-.3-.6-.2-.5.1.2-.8-.3-.9-.5-.1-.6-.2-.5-.3zm-.3 5.3c0-.4.1-.6.3-.8.1-.3.2-.5.5-.6 0 0 .3-.1.5.5.1.5.4.5.5 1 .2 1.4-.2.1-.2 1.5 0 0 .1.3-.5.8 0 0 0 1-.3 1.4 0 0 0 .2.2.6.2.3.6 1.3.3 1.8s-.4.2-.4 1c-.1.8-.1 2.3.1 2.5.2.2.2.9-.1 1-.3.1-.6 0-.8-.3-.2-.3-.4-.2-.3-.9v-2.1s.2-.6-.1-.8c-.3-.2-.3-.2-.3-.7v-1.3c0-.5 0-.7.3-1.1.2-.4.5-.8.6-1.2.2-.4.6-.5.6-.8 0-.3-.1-.7-.4-.9-.5-.2-.5-.6-.5-.6zm-.3 12.2s0-.6.4-.7c.5-.1.9.1.8.4-.1.4-.3.9-.6 1-.4.1-.3-.4-.5-.5zm-.5 4c0-.1 0-.6.3-.6.3.1.4.1.4.6s-.1.4.1.6c.2.2.4.8.2 1.1-.2.4-.6.5-.5 1 0 .5-.2 1.1-.4 1.1s-.4-.2-.4-.6c0-.4-.2-.6-.2-.7-.1-.1 0-.5.3-.6.3-.1.4-.4.4-.5 0-.2 0-.3.4-.5.3-.2-.1-.5-.2-.6-.3-.1-.4-.3-.4-.3zM51.6 66s.1-.7.5-.7c.4.1.5.4.5.8-.1.3-.3 1-.6 1s-.5-.7-.5-.8c0-.2.1-.3.1-.3zm1 5.5s-.3-.4 0-.5c.3-.1.6-.2.9 0 .3.3 1.1 1 .6 1.3-.7.3-1.5-.8-1.5-.8zm-29.1-5.6-.4.2c-.4.2-.4 1-.4 1.3 0 .3-.4.1-.5.7-.1.6.7 1.1.8 1.3.2.2.7.3 1.4.5.9.3 1.4.1 2.3-.5 1.5-1 1.2-3 1.3-3.8 0-.8.1-.8-.7-1.2-.8-.4-.5-.3-1-.8-.3-.3-1.1-.3-1.4 0-.3.3 0 1.1-.2 1.6-.3.3-1.2.7-1.2.7zm-2.8-.2s-.1-.9.7-1.1c.8-.2.8-.5 1-1.2.2-.8 2.6-1.6 3.5-1.6 1.2 0 1.6.6 2.1.6s1.1-.7 2-.6c.9.2.9.9.6 1.2-.1.1-.1 1.1.2 1.2.2.2 0 1.1-.2 1.4-.3.3-.5 1.7-.8 2.1v1.6c-.2.4-.7.6-1 1-.2.3 0 .4-.1.6-.4 1-1 1.4-1.7 1.4-.9 0-1.5-.1-1.8.5-.3.6-.5.7-1.4.8-.9 0-1.7.1-2-.4-.3-.5-1.1-.5-1.1-.5s-.4-.1-.5-.6c-.1-.5-.3-.8-.4-.9-.3-.1-.3-1.5-.2-1.6.1-.1.2-.3.3-.6.1-.4.1-.8.1-1.3 0 0 .3-.1.3-.7s0-.7.2-.9zm22.5-.3s0 .1-.3.4c-.2.3-2 .3-2.2.3-.2 0-.8.1-1 1 0 .3.3.9.5 1.3.4.5.9.9 1.4.9.7 0 .5.1.9-.2l.8-.4c.4-.2.7-.3.9-.6.4-.6.2-1.4.5-1.5.3-.2.5-.7.5-.7s.2-.7 0-1.1c-.1-.2-.3-.3-.6-.3-1.1-.2-1.4.9-1.4.9zm-3.3 5.4c-.1-.2-.2-.2-.2-.2v.2c.2.1.2 0 .2 0zM37.6 66v-.9c.1-.5.5-1.2.6-1.4.3-.3.9-1.1 1.4-1.1.6 0 1.6-.2 1.9-.7.4-.5.3-.8 1-.8s.3.4 1.2.3c.9-.1.5-.7 1-.9.2-.1.8-.2 1.1-.1.5.1.4.4.9.4.6 0 .9 0 .9.3 0 .4-.1.5-.2.5s0 1 0 1 .1.7-.3 1.1c-.1.3-.1.6-.2.9v2.6s-.5.5-.4 1.8c0 .3-.2.3-.3.5-.1.3-.3.5-.5 1C45.2 71.7 44 72 44 72s-.7.2-.9.8c-.2.6-.5.7-1 .8-.5 0-.9 0-1 .3-.2.2-.3.1-.5-.1s-.5-1-1.6-1c-.5 0-1.1 0-1.2-.4-.2-.5-.5-.9-.5-1-.1-.1-.1-.7 0-1v-.6c.1-.3.5-.6.7-.7v-.8s-.3-1.2-.4-1.8zm8-47.6c-.1.1-.1.2-.1.3-.1.1-.1.2-.1.3.3-.1.3-.2.3-.3.1-.1.1-.3.1-.3zm.6-7.2s.6-.8 1.1-.7c.5.1.7.6.7 1.1 0 .8-1.1 1.5-.4 2.4 0 .3.2.6.2.9 0 0-.1.1-.1.3 0 .9-.1 3.3-.1 3.8 0 .3-.9 2.3-.8 2.8 0 .5-.1.8-.9 1.4-.2.2-1.1.4-1 1.1.1.7.6 1.5.6 1.5s.8 1.3.2 1.8c-.3.2-.4.6-.5 1-.1.4-.3.8-1.4.6l-.5-.5c-.3-.3-.7-.5-.7-1.1v-3.4c0-.4-.4-.9-.1-1.5.3-.6.4-1.1.6-1.7.1-.6.7-1.2.7-1.6 0-.2 0-.4-.1-.7-.1-.4-.3-.7-.2-1.1.2-.7.5-.9 1.1-.8.6 0 1.2-.8 1.2-1.4V14c-.1-.5-.3-.7-.1-1.3.1-.3.1-.8.1-.8s.2-.4.4-.5zm25.9 26.4c0 .3.3.6.6.6s.6-.3.6-.6-.3-.6-.6-.6c-.4 0-.6.3-.6.6zm-4.8-1.4h.3c.2-.1.3-.2.3-.3 0-.1-.3-.1-.3-.1-.2.3-.2.2-.3.2zm3-.9c.2-.1.2-.2.2-.2h-.2zm0 7.6c.1.1.2.2.2.3.2.1.2-.3.2-.3-.1-.2-.2-.2-.3-.2-.1-.1-.1.2-.1.2zm-3.6-1.5s-.4-.2-.5-.9c-.1-.8 0-.7-.3-.9-.3-.2-.4-.4-.5-.9-.1-.4-.3-.6-.3-1s0-.6.2-.9c.1-.2-.1-1 .1-1.4.2-.3 1-1.3 1.9-1.4.8-.1.5-.3 1.1-.3.6 0 .9-.2 1.3-.4.3-.2.3-.3 1.1-.4.8-.1 1.4-.3 1.8-.3.2 0 .5 0 .6-.1.2-.1.7 0 .7.4s.1.8.2 1c.2.6.5.8.5 1 0 .2.1.7-.2.9 0 0 0 .9-.2 1.1-.1.1-.2.3-.2.5-.1.6.1 1-.4 1.2-.5.1-.7.3-.8.9 0 .7-.1.9-.2 1-.1.1-.5 1.1-.9 1.5-.4.3-.9 1.5-1.2 1.8-.3.2-.4.6-.7.8-.2.2-.5.3-.5.3.1.1.2 0 .3 0 .1.1 0 .2-.1.4-.1.3-.6 0-.7.3-.1.3-.4.7 0 .9.2.1.4-.1.4.3s.3.7.7.6c.3 0 .6-.6.3-.8-.2-.1 1.4-.2 1.4-.2.7.1 2.2-.3 2.2-.2 0 .1.3.2.5.1.1 0 .2-.1.2-.2.1-.2.9-.3 1.1-.3.2 0 .6 0 .6.4.1.4 0 .6.3.9.3.2.6.4.5.8-.1.4-.5.4-.7.4-.2 0-1.6.2-1.7.5-.1.3-.4.7-.7.6-.3 0-.4-.3-.6-.3-.2 0-.2.2-.7.3-.2 0-1.1.3-1.6.2-1 .1-2 0-2.1 0-.3.2-1.2 0-1.2 0s-.8-.3-1.5-.3c-.8 0-1.6-.3-1.6-.3s-.3-.1-.9.1c-.6.2-.5-.6-.5-.6s-.1-.5.6-.5c.2 0 .6-1.4.9-1.4.4 0 1.2-1 1.2-1.1 0-.1 1.1-1 1.4-1.3.1-.1.6-1.2.7-1.3.1-.2.4-1 .4-1s0-.3.3-.3c.4 0 .6 0 .6-.2 0-.3-.2-1.9.1-1.8.3.1.8 0 .8-.1.1-.3-.1-.9.4-1.1.4-.2 1-.1 1-.7s-.2-1.1-.2-1.5c0-.2.1-.8-.3-.8s-1.7.3-1.9.3c-.2 0-.9.1-1 .5-.1.5 0 .8 0 .8s.2.6-.2.9c-.4.3-.1 1.2.1 1.6 0 0-.6.6-.6.8-.1.6-.8 1.1-.8 1.1zm2 17.5s-.2.2-.3.4c-.1.3-.2.4-.3.4-.1.1-.1.4-.1.8s-.8 2.2-1.1 2.4c-.3.2-.8 1.7-1 1.8-.2.1-.7.9-.9.9-.2 0-.3.5.1.5.3 0 .1-.2.8-.1.7 0 .7.4 1.2.4.6 0 .5.1.9.1s.1 0 .6-.3c.5-.2.6-1.2.6-1.6 0-.4.6-1.2.7-1.3.1-.1.4-1.4.2-1.6-.2-.2-.2-1.7-.2-2.4s.1-.5.1-1-.3-.4-.5-.3c-.2 0-.2.4-.4.5zM68.4 71c-.2-.1-.2.2-.2.2.1-.1.1-.2.2-.2zm.9-15c0-.2.2-.6.8-.6.3 0 .5.1.7.1.2.1.4 0 .6.2.2.1 0 .9-.5 1.2-.2.1 0 .9.2 1 .4.3.5.4.8.5.2 0 .8 0 .9.5 0 .5-.2.4-.2.6 0 .2 0 .3.2.5.2.1.1 1 .1 1s-.1.7-.4.9c-.2.1-.2.4-.3.7-.1.4-.2.4-.3 1-.1.6.1 1.3-.1 1.5-.2.2-.3.8-.3.9 0 .2-.1.4.2.4.4 0 .5-.1.5-.2s.5-.2.6-.1c.2.1.3.3.3.5s-.1.4.3.4c.3 0 0-.6.2-.6.1-.1.2-.2.4-.2s1.2-.1 1.3.3c.1.4.1 2.2-.4 2.2s-.5 0-.6.2c-.1.2-1.6.3-1.8.4-.2.1-.7.1-1 .1-.1-.1-.1-.3-.3-.4-.2-.1-.7 0-.7.3s-.4.5-.3 1c0 .5.1 2.5 0 2.7-.1.2-.4.3-.4.6s-.2.8-.3 1c-.1.2-.1 1.3-.1 1.3s0 .3-.2.4c-.3 0-.7-.7-1.1-.6-.4 0-1.7-1.2-1.9-1.4 0 0-.1-1.4.1-1.4s.7-.7.7-.9c.1-.3.2-1.2.4-1.2s.7.1.7-.2c0-.2 0-.3-.3-.5-.4-.2-.6-.8-.8-1-.1-.1-.5-.1-.7-.1-.3 0-1.1.2-1.4.4-.3.2-1.7.5-1.8.2-.1-.2-.3-.8-.5-.8-.2.1-.4.4-.8.4s-.7-.3-.7-.8 0-.9.3-1.2c.5-.5.3-1.5.5-1.7.2-.2.6-.7 1.3-.8.6-.1.9-1.1 1.1-1.4.2-.3 1.2-1.5 1.2-1.8 0 0 .4-1.4.5-1.6.1-.5 1.2-1.2 1.5-1.5.1-.2.4-.4.4-.4 0-.3 1.4-1.7 1.4-2zM52.4 74.6s.1-.7.5-.7c.4.1.5.4.5.8-.1.3-.3 1-.6 1s-.5-.7-.5-.8c0-.2.1-.3.1-.3z" transform="scale(.34364)"/></svg>