<svg xmlns="http://www.w3.org/2000/svg" version="1.0" width="100" height="40"><path transform="matrix(.72647 0 0 -.72647 95.125 30.948)" style="fill:#000;fill-opacity:1;fill-rule:nonzero;stroke:none" d="M0 0h2.73v-8.473h1.251V0H6.71v1.08H0Z"/><path transform="matrix(.72647 0 0 -.72647 93.845 35.45)" style="fill:#000;fill-opacity:1;fill-rule:nonzero;stroke:none" d="M-7.507 7.282v-9.557c1.143.005 2.287-.01 3.43.008 1.066.041 2.027.386 2.902.974C-.024-.406.543.869.683 2.287c-.014.322.028.652-.02.97-.383 2.128-1.67 3.481-3.779 3.94-.699.14-1.415.065-2.122.084h-2.27zm1.25-1.029c.963-.014 1.932.042 2.891-.065C-2.095 5.875-.81 4.855-.65 3.478c.037-.333.112-.662.085-1C-.54.982-1.411-.058-2.56-.85c-.832-.418-1.783-.408-2.693-.4h-1.004v7.504z"/><path transform="matrix(.72647 0 0 -.72647 93.845 35.45)" style="fill:#000;fill-opacity:1;fill-rule:nonzero;stroke:none" d="M-7.507 7.282v-9.557c1.143.005 2.287-.01 3.43.008 1.066.041 2.027.386 2.902.974C-.024-.406.543.869.683 2.287c-.014.322.028.652-.02.97-.383 2.128-1.67 3.481-3.779 3.94-.699.14-1.415.065-2.122.084h-2.27zm1.25-1.029c.963-.014 1.932.042 2.891-.065C-2.095 5.875-.81 4.855-.65 3.478c.037-.333.112-.662.085-1C-.54.982-1.411-.058-2.56-.85c-.832-.418-1.783-.408-2.693-.4h-1.004v7.504z"/><path style="fill:#000;fill-opacity:1;fill-rule:nonzero;stroke:none" transform="translate(-1.892 -1.622) scale(.13514)" d="m628.344 235.219-21.094 50.719 6.75 2.156 7.031-17.75h20.782l7.03 17.75 6.407-2.156-20.469-50.72h-6.437zm3.375 6.094 8.562 23.843h-17.437l8.875-23.844z"/><path transform="matrix(.72647 0 0 -.72647 75.42 30.948)" style="fill:#000;fill-opacity:1;fill-rule:nonzero;stroke:none" d="M0 0h2.786v-8.473h1.195V0h2.786v1.08H0Z"/><path transform="matrix(.72647 0 0 -.72647 59.597 37.02)" style="fill:#000;fill-opacity:1;fill-rule:nonzero;stroke:none" d="m0 0 1.251-.341 2.104 8.132L5.687-.114h1.308l2.331 7.905 2.161-8.132L12.624 0l-2.615 9.44H8.701L6.369 1.422 3.981 9.44H2.673L.057 0Z"/><path style="fill:#000;fill-opacity:1;fill-rule:nonzero;stroke:none" transform="translate(-1.892 -1.622) scale(.13514)" d="m369.406 235.188-20.781 50.75 6.719 2.156 6.75-17.719h21.094l6.718 17.719 6.719-2.156-20.469-50.75zm3.375 6.125 8.563 23.843h-17.438l8.875-23.844z"/><path transform="matrix(.72647 0 0 -.72647 94.878 17.273)" style="fill:#000;fill-opacity:1;fill-rule:nonzero;stroke:none" d="M0 0h2.786v-8.53h1.252V0h2.729v1.024H0Z"/><path style="fill:#000;fill-opacity:1;fill-rule:nonzero;stroke:none" transform="matrix(.72647 0 0 -.72647 -170.163 302.411)" d="M357.613 392.897h1.137v1.422h-1.137zm3.127 0h1.137v1.422h-1.137z"/><path style="fill:#000;fill-opacity:1;fill-rule:nonzero;stroke:none" transform="translate(-1.892 -1.622) scale(.13514)" d="m685.219 134.313-20.782 50.437 6.72 2.469 6.718-17.75h21.094l6.718 17.75 6.438-2.469-20.188-50.438h-6.718zm3.343 6.125 8.594 23.843H679.72l8.843-23.844z"/><path transform="matrix(.72647 0 0 -.72647 82.856 17.273)" style="fill:#000;fill-opacity:1;fill-rule:nonzero;stroke:none" d="M0 0h2.786v-8.53h1.252V0h2.729v1.024H0Z"/><path transform="matrix(.72647 0 0 -.72647 80.749 23.47)" style="fill:#000;fill-opacity:1;fill-rule:nonzero;stroke:none" d="M0 0h1.251v9.554H0Z"/><path transform="matrix(.72647 0 0 -.72647 74.593 23.14)" style="fill:#000;fill-opacity:1;fill-rule:nonzero;stroke:none" d="M2.211 9.132C1.168 8.776.311 8.075.142 6.95c-.193-1.176.44-1.946 1.319-2.59.613-.313 1.234-.61 1.856-.904.301-.195.598-.407.862-.647.167-.197.29-.431.3-.693a1.741 1.741 0 0 0-.205-.831A1.49 1.49 0 0 0 3.79.747C2.714.023 1.495.418.397.85L.06.003c.25-.243.813-.399 1.2-.53C2.273-.732 3.323-.67 4.265-.24c.709.37 1.074.895 1.367 1.627.233 1.024-.041 1.78-.814 2.48-.816.628-1.815.97-2.73 1.435-.7.476-.924 1.07-.701 1.876.889 1.381 2.55 1.217 3.839.56.16.261.306.572.46.851-.3.19-.628.336-.957.462-.867.255-1.65.236-2.518.082z"/><path transform="matrix(.72647 0 0 -.72647 71.784 20.537)" style="fill:#000;fill-opacity:1;fill-rule:nonzero;stroke:none" d="M-4.38 5.517v-9.556h1.25V0c.706.024 1.417.048 1.967-.439.36-.415.653-.883.988-1.319l1.881-2.567 1.007.782C1.807-2.362.886-1.192-.003.001l-.453.343c.296.091.592.184.85.36.702.5 1.242 1.402 1.099 2.287C1.475 4.113.749 5.014-.28 5.381c-.506.113-1.032.109-1.548.136Zm1.25-.994c.612-.018 1.228-.015 1.839-.041.787-.096 1.434-.609 1.558-1.426C.373 1.581-.894.84-2.21.925c-.307.014-.613.024-.92.038Z"/><path transform="matrix(.72647 0 0 -.72647 63.109 23.47)" style="fill:#000;fill-opacity:1;fill-rule:nonzero;stroke:none" d="M0 0h5.289v1.08H1.251v3.356h3.696v1.023H1.251V8.53h4.038v1.024H0Z"/><path transform="matrix(.72647 0 0 -.72647 55.92 16.654)" style="fill:#000;fill-opacity:1;fill-rule:nonzero;stroke:none" d="m0 0 3.639-9.383h1.138L8.473-.057 7.279.341l-3.04-8.416L1.195.341.057 0Z"/><path transform="matrix(.72647 0 0 -.72647 53.896 23.47)" style="fill:#000;fill-opacity:1;fill-rule:nonzero;stroke:none" d="M0 0h1.251v9.554H0Z"/><path transform="matrix(.72647 0 0 -.72647 45.964 23.47)" style="fill:#000;fill-opacity:1;fill-rule:nonzero;stroke:none" d="M0 0h1.194L1.08 8.018 6.54-.227l1.251.341v9.44H6.597l.113-8.075-5.516 8.302L0 9.497Z"/><path transform="matrix(.72647 0 0 -.72647 43.486 16.53)" style="fill:#000;fill-opacity:1;fill-rule:nonzero;stroke:none" d="M0 0h-1.251v-6.312a2.708 2.708 0 0 0-.341-1.479c-.56-.649-1.279-.919-2.104-.967-1.73.017-2.38.974-2.502 2.56-.076 1.858 0 6.198 0 6.198H-7.45s-.078-4.38 0-6.255c-.029-1.786 1.055-3.218 2.787-3.412.12-.017.278-.048.398-.057.255-.018.597-.01.853 0 1.904.008 3.138 1.169 3.412 2.9.02.204 0 .477 0 .682z"/><path transform="matrix(.72647 0 0 -.72647 95.828 9.837)" style="fill:#000;fill-opacity:1;fill-rule:nonzero;stroke:none" d="M0 0h5.346v1.08H1.308v3.356h3.639v1.08H1.308V8.53h4.038v1.024H0Z"/><path transform="matrix(.72647 0 0 -.72647 88.226 9.837)" style="fill:#000;fill-opacity:1;fill-rule:nonzero;stroke:none" d="M0 0h1.251v4.492h4.891V0h1.251v9.554H6.142V5.573H1.251v3.981H0Z"/><path transform="matrix(.72647 0 0 -.72647 86.409 3.269)" style="fill:#000;fill-opacity:1;fill-rule:nonzero;stroke:none" d="M0 0c-2.175 1.204-5.234.972-6.824-1.08-1.872-2.246-1.32-6.1 1.313-7.518 1.742-.973 3.987-.734 5.625.352l-.383.74c-.012.022-.705-.208-1.232-.421-1.755-.623-3.936.027-4.754 1.785-1.023 1.98-.19 4.86 2.047 5.573 1.21.569 2.65.193 3.81-.341.151.262.183.745.398.91Z"/><path transform="matrix(.72647 0 0 -.72647 72.404 9.837)" style="fill:#000;fill-opacity:1;fill-rule:nonzero;stroke:none" d="M0 0h1.194v9.554H0Z"/><path transform="matrix(.72647 0 0 -.72647 64.348 9.837)" style="fill:#000;fill-opacity:1;fill-rule:nonzero;stroke:none" d="M0 0h1.194L1.08 8.075 6.54-.227l1.251.341v9.44H6.653l.057-8.019-5.516 8.303L0 9.497Z"/><path transform="matrix(.72647 0 0 -.72647 56.623 9.837)" style="fill:#000;fill-opacity:1;fill-rule:nonzero;stroke:none" d="M0 0h1.251v4.492h4.891V0h1.251v9.554H6.142V5.573H1.251v3.981H0Z"/><path transform="matrix(.72647 0 0 -.72647 54.722 3.269)" style="fill:#000;fill-opacity:1;fill-rule:nonzero;stroke:none" d="M0 0c-2.25 1.227-5.498.985-6.983-1.304-1.565-2.032-1.252-5.249.797-6.852C-4.45-9.61-1.764-9.485.057-8.246l-.503.765a50.89 50.89 0 0 1-1.11-.45c-1.976-.735-4.496.33-4.984 2.472-.647 1.978.458 4.42 2.527 4.998 1.175.395 2.47.062 3.558-.449z"/><path transform="matrix(.72647 0 0 -.72647 43.568 9.837)" style="fill:#000;fill-opacity:1;fill-rule:nonzero;stroke:none" d="M0 0h5.289v1.08H1.251v3.356h3.64v1.08h-3.64V8.53h4.038v1.024H0Z"/><path transform="matrix(.72647 0 0 -.72647 37.289 3.64)" style="fill:#000;fill-opacity:1;fill-rule:nonzero;stroke:none" d="M0 0h2.73v-8.53h1.251V0H6.71v1.024H0Z"/><path transform="matrix(.72647 0 0 -.72647 74.927 9.477)" style="fill:#000;fill-opacity:1;fill-rule:nonzero;stroke:none" d="M2.211 9.132C1.168 8.776.311 8.075.142 6.95c-.193-1.176.44-1.946 1.319-2.59.613-.313 1.234-.61 1.856-.904.301-.195.598-.407.862-.647.167-.197.29-.431.3-.693a1.741 1.741 0 0 0-.205-.831A1.49 1.49 0 0 0 3.79.747C2.714.023 1.495.418.397.85L.06.003c.25-.243.813-.399 1.2-.53C2.273-.732 3.323-.67 4.265-.24c.709.37 1.074.895 1.367 1.627.233 1.024-.041 1.78-.814 2.48-.816.628-1.815.97-2.73 1.435-.7.476-.924 1.07-.701 1.876.889 1.381 2.55 1.217 3.839.56.16.261.306.572.46.851-.3.19-.628.336-.957.462-.867.255-1.65.236-2.518.082z"/><path transform="matrix(.72647 0 0 -.72647 56.63 34.17)" style="fill:#000;fill-opacity:1;fill-rule:nonzero;stroke:none" d="M-4.38 5.517v-9.556h1.25V0c.706.024 1.417.048 1.967-.439.36-.415.653-.883.988-1.319l1.881-2.567 1.007.782C1.807-2.362.886-1.192-.003.001l-.453.343c.296.091.592.184.85.36.702.5 1.242 1.402 1.099 2.287C1.475 4.113.749 5.014-.28 5.381c-.506.113-1.032.109-1.548.136Zm1.25-.994c.612-.018 1.228-.015 1.839-.041.787-.096 1.434-.609 1.558-1.426C.373 1.581-.894.84-2.21.925c-.307.014-.613.024-.92.038Z"/><path transform="matrix(.72647 0 0 -.72647 70.535 36.76)" style="fill:#000;fill-opacity:1;fill-rule:nonzero;stroke:none" d="M2.211 9.132C1.168 8.776.311 8.075.142 6.95c-.193-1.176.44-1.946 1.319-2.59.613-.313 1.234-.61 1.856-.904.301-.195.598-.407.862-.647.167-.197.29-.431.3-.693a1.741 1.741 0 0 0-.205-.831A1.49 1.49 0 0 0 3.79.747C2.714.023 1.495.418.397.85L.06.003c.25-.243.813-.399 1.2-.53C2.273-.732 3.323-.67 4.265-.24c.709.37 1.074.895 1.367 1.627.233 1.024-.041 1.78-.814 2.48-.816.628-1.815.97-2.73 1.435-.7.476-.924 1.07-.701 1.876.889 1.381 2.55 1.217 3.839.56.16.261.306.572.46.851-.3.19-.628.336-.957.462-.867.255-1.65.236-2.518.082z"/><path transform="matrix(.72647 0 0 -.72647 43.526 35.453)" style="fill:#000;fill-opacity:1;fill-rule:nonzero;stroke:none" d="M-7.507 7.282v-9.557c1.143.005 2.287-.01 3.43.008 1.066.041 2.027.386 2.902.974C-.024-.406.543.869.683 2.287c-.014.322.028.652-.02.97-.383 2.128-1.67 3.481-3.779 3.94-.699.14-1.415.065-2.122.084h-2.27zm1.25-1.029c.963-.014 1.932.042 2.891-.065C-2.095 5.875-.81 4.855-.65 3.478c.037-.333.112-.662.085-1C-.54.982-1.411-.058-2.56-.85c-.832-.418-1.783-.408-2.693-.4h-1.004v7.504z"/><path transform="matrix(.72647 0 0 -.72647 43.526 35.453)" style="fill:#000;fill-opacity:1;fill-rule:nonzero;stroke:none" d="M-7.507 7.282v-9.557c1.143.005 2.287-.01 3.43.008 1.066.041 2.027.386 2.902.974C-.024-.406.543.869.683 2.287c-.014.322.028.652-.02.97-.383 2.128-1.67 3.481-3.779 3.94-.699.14-1.415.065-2.122.084h-2.27zm1.25-1.029c.963-.014 1.932.042 2.891-.065C-2.095 5.875-.81 4.855-.65 3.478c.037-.333.112-.662.085-1C-.54.982-1.411-.058-2.56-.85c-.832-.418-1.783-.408-2.693-.4h-1.004v7.504z"/><path transform="translate(38.156 .414) scale(.05714)" style="fill:#000;stroke:none" d="M-339.607 691.793c-1.37-.155-7.158-.692-12.863-1.192-87.214-7.649-163.28-49.87-173.07-96.065-4.933-23.27 7.755-48.799 32.65-65.695 2.354-1.598 4.29-3.15 4.3-3.45.045-1.116-8.544-13.14-18.284-25.595-5.532-7.075-11.168-14.458-12.525-16.407-3.058-4.394-3.488-4.134-5.282 3.185-2.297 9.373-1.487 16.454 2.787 24.378 1.898 3.52 3.451 6.749 3.451 7.177 0 .973-50.391 61.505-51.95 62.406-4.27 2.466-37.17-39.69-53.62-68.706C-752.798 284.677-580.95-7.245-318.445-7.245c43.133 0 122.82 15.555 122.82 23.975 0 1.316-53.004 89.868-55.055 91.98-.75.772-2.215.824-5.958.212-11.411-1.869-21.954-.73-27.568 2.979-2.694 1.779-3.405 1.492 12.08 4.871 5.164 1.127 14.5 3.57 20.746 5.427 11.357 3.379 11.357 3.379 27.54-12.654 20.268-20.082 30.838-29.026 33.882-28.67 2.103.245 2.737 1.891 18.16 47.141 16.368 48.025 16.562 48.77 13.166 50.587-1.982 1.061-1.982 1.061 16.118 55.112 22.289 66.559 36.746 108.56 43.74 127.078 2.932 7.76 7.024 18.59 9.096 24.066 11.378 30.085 8.013 41.8-12.653 44.057-11.318 1.237-16.453 9.847-10.85 18.194 6.243 9.299 5.901 14.123-1.507 21.274-4.49 4.335-4.49 4.335-2.197 6.947 6.032 6.871 5.17 20.315-1.303 20.315-3.14 0-7.25 2.067-10.036 5.049-2.575 2.755-2.575 2.755.626 6.227 29.714 32.236-4.043 63.968-70.844 66.595-14.02.552-14.02.552-15.956 7.19-3.77 12.922-8.937 41.861-7.696 43.102.228.229 7.304 2.456 15.724 4.949 40.121 11.88 57.289 19.683 55.211 25.097-1.53 3.99-45.17 20.576-71.437 27.15-36.204 9.062-89.192 13.947-117.011 10.788zm26.14-7.29c-8.9-4.791-77.408-25.903-101.12-31.162-7.761-1.722-7.761-1.722-17.59 3.07-10.145 4.947-10.93 5.53-8.466 6.296.799.248 5.747 1.998 10.996 3.889 32.445 11.685 71.13 18.384 109.127 18.9 8.082.109 8.89-.005 7.054-.994zm45.943-2.153c6.783-.853 12.514-1.733 12.735-1.954.908-.908-78.427-25.89-116.268-36.612-34.129-9.67-29.806-9.262-36.599-3.455-3.195 2.731-5.908 5.202-6.03 5.49-.12.29 3.427 1.387 7.884 2.44 28.016 6.617 91.059 26.977 108.121 34.918 4.278 1.991 8.743 1.869 30.157-.827zm35.263-6.165c2.443-.65 4.565-1.305 4.715-1.455.15-.15-.238-3.686-.862-7.858-4.093-27.403-1.332-57.84 8.351-92.054.466-1.644.092-1.77-6.832-2.3-29.993-2.295-66.66-13.606-95.833-29.562-10.501-5.743-10.501-5.743-14.975-3.32-5.371 2.91-13.496 4.943-19.81 4.96-4.623.012-4.623.012-5.67 10.178-2.639 25.61-12.332 49.354-28.128 68.903-2.5 3.095-4.401 5.742-4.224 5.883.176.141 6.856 2.03 14.844 4.195 28.598 7.757 84.614 24.99 119.085 36.636 21.679 7.324 22.776 7.54 29.339 5.794zm23.078-6.214c23.35-7.16 22.747-6.421 8.786-10.758-23.413-7.272-22.828-7.21-22.23-2.322.864 7.078 2.317 16.346 2.562 16.346.126 0 5.023-1.47 10.882-3.266zm40.456-14.734c7.098-3.099 7.157-3.286 1.803-5.655-9.06-4.006-51.643-17.838-54.92-17.838-.91 0-1.164 1.509-1.154 6.847.013 6.846.013 6.846 14.377 10.876 7.9 2.217 17.697 5.423 21.771 7.125 8.257 3.449 6.882 3.552 18.123-1.355zm-275.042-.992c42.59-18.362 71.395-58.652 73.646-103.008.442-8.725.442-8.725-3.742-10.616-2.301-1.04-5.805-3.174-7.785-4.743-3.6-2.852-3.6-2.852-4.13 10.2-1.645 40.55-20.958 71.585-56.657 91.044-8.992 4.902-11.625 4.562-26.098-3.365-42.523-23.292-50.068-61.443-16.772-84.804 3-2.104 5.587-3.922 5.752-4.039.472-.335-4.246-11.957-5.059-12.46-1.18-.729-12.7 8.57-18.724 15.114-32.04 34.808-15.206 75.874 43.495 106.102 8.832 4.547 7.01 4.482 16.074.575zm1.118-25.198c48.776-29.684 64.487-89.163 37.279-141.13-2.96-5.656-2.96-5.656-8.41-.415-2.997 2.882-5.576 5.295-5.731 5.362-.155.068 1.005 2.682 2.58 5.81 25.281 50.24 5.999 102.307-45.576 123.062-8.95 3.601-9.086 3.303 4.231 9.304 6.794 3.061 7.461 2.976 15.627-1.993zm-22.438-13.917c47.53-19.07 64.648-64.264 42.504-112.22-2.514-5.442-2.39-5.45-9.087.52-4.098 3.653-4.098 3.653-1.139 10.175 18.005 39.681-6.186 82.942-51.185 91.531-7.462 1.425-7.462 1.425-1.103 7.91 7.42 7.563 6.572 7.475 20.01 2.084zm-17.855-17.361c33.237-6.858 54.808-38.077 47.802-69.18-1.369-6.075-5.528-16.345-6.62-16.345-1.986 0-12.857 9.384-12.334 10.648 13.55 32.753-.382 56.474-37.445 63.756-7.988 1.57-8.224 2.024-5.031 9.666 1.536 3.677 2.409 3.77 13.628 1.455zm-6.226-18.83c13.23-3.008 13.326-3.12 12.874-14.858-.22-5.702-.644-10.611-.943-10.91-1.907-1.907-14.878 10.332-18.223 17.195-4.967 10.194-4.375 11 6.292 8.573zm-59.62-34.635c12.167-14.544 22.012-26.716 21.878-27.048-.134-.333-1.924-3.04-3.977-6.017-3.733-5.412-3.733-5.412-26.28 16.468-22.183 21.527-23.849 22.874-25.837 20.885-2.596-2.596-1.005-4.553 21.41-26.344 12.324-11.98 22.406-22.085 22.406-22.454 0-1.288-7.566-12.86-8.286-12.673-.4.103-13.43 9.673-28.959 21.266-28.232 21.078-28.232 21.078-23.74 27.613 9.4 13.672 27.259 35.514 28.615 34.996.356-.136 10.602-12.147 22.77-26.692zm84.523 21.906c8.927-9.93 10.935-29.227 4.118-39.592-.53-.805-12.287 5.731-14.764 8.208-.24.241.297 2.302 1.195 4.58 2.404 6.099 4.227 15.878 4.453 23.88.234 8.27.206 8.254 4.998 2.924zm272.502-.032c57.128-4.358 82.622-28.818 57.884-55.537-2.809-3.034-4.482-5.577-4.478-6.807.012-4.405 7.075-11.246 14.236-13.79 5.215-1.852 5.702-5.696 1.351-10.652-2.664-3.035-2.664-3.035-10.996-2.648-9.04.42-39.495 7.282-42.006 9.465-2.121 1.844-4.856 1.399-5.744-.936-1.715-4.51 2.72-16.182 6.15-16.182 2.912 0 3.934 2.27 2.528 5.613-1.39 3.306-1.967 3.315 11.954-.19 12.932-3.257 25.251-5.415 30.938-5.42 4.227-.004 8.75-2.94 12.224-7.938 2.43-3.498 2.23-5.23-1.154-9.969-5.257-7.362-5.492-13.107-.795-19.462 4.415-5.974-16.135-3.946-25.599 2.526-5.983 4.092-7.483 4.117-11.185.193-9.182-9.734-8.68-22.658 1.236-31.798 3.953-3.643 4.556-3.827 6.424-1.96 1.923 1.924 1.617 3.32-1.488 6.785-6.783 7.568-7.416 13.254-2.32 20.84.609.906 2.125.456 7.706-2.286 9.524-4.678 16.553-5.71 29.096-4.27 14.282 1.637 22.57-.706 25.26-7.144 2.04-4.88.635-10.635-8.175-33.486-6.139-15.923-13.312-35.862-22.24-61.825-8.079-23.49-6.772-21.403-14.761-23.559-28.914-7.802-81.91 1.538-92.783 16.352-5.269 7.178-14.432 16.211-22.967 22.64-6.811 5.131-6.811 5.131-8.605 11.861-7.426 27.855-25.685 50.17-50.949 62.265-7.611 3.644-20.723 7.937-24.32 7.963-3.635.026-6.394 6.961-3.182 7.996 24.65 7.944 35.65 37.902 22.095 60.178-2.86 4.701-2.86 4.701-1.608 9.51 3.044 11.687-.043 26.197-7.444 34.993-2.15 2.555-2.15 2.555 3.48 5.826 37.839 21.987 88.654 34.025 130.237 30.853zm-18.798-208.866c-5.962-.638-17.15-2.859-21.162-4.2-2.282-.763-5.786-1.4-7.788-1.417-14.239-.118 6.318-17.81 29.365-25.271 13.704-4.437 41.664-7.578 49.638-5.577 4.701 1.18 3.109 6.934-2.634 9.518-3.066 1.38-3.071 1.391-2.404 5.117 1.337 7.46-1.26 15.75-6.011 19.188-3.554 2.572-25.67 4.07-39.004 2.642zm24.539-7.088c.13-.13-.471-2.287-1.336-4.792-1.751-5.074-2.03-9.8-.825-14 .802-2.795.802-2.795-3.527-2.23-8.924 1.164-8.357.504-7.818 9.096.774 12.33 1.361 13.274 7.876 12.666 2.966-.277 5.5-.61 5.63-.74zm-19.627-2.916c-.398-1.712-.732-5.633-.743-8.714-.014-3.925-.33-5.597-1.057-5.587-3.915.053-23.859 10.39-23.859 12.367 0 1.15 16.879 4.795 22.942 4.955 3.44.091 3.44.091 2.717-3.021zm-137.51 187.158c32.042-14.783 21.755-62.47-13.476-62.47-37.385 0-46.006 51.075-10.77 63.808 5.931 2.143 18.164 1.468 24.247-1.338zm-18.11-12.38c-7.374-1.653-13.569-9.746-13.569-17.726 0-18.27 24.45-24.75 33.732-8.94 8.024 13.669-4.465 30.186-20.163 26.666zm9.709-7.808c7.704-3.984 7.513-16.022-.313-19.735-5.935-2.817-12.009-.586-14.996 5.507-4.512 9.205 6.046 19.018 15.309 14.228zm-115.106 6.564c38.599-25.435 71.643-58.548 111.681-111.916 15.528-20.698 21.36-28.983 52.284-74.273 62.834-92.023 91.97-126.624 130.936-155.497 4.222-3.129 7.676-5.906 7.676-6.172 0-1.166-5.376-16.752-5.778-16.75-1.126.003-25.349 21.162-35.42 30.94-33.084 32.121-57.858 63.537-114.01 144.574-67.077 96.805-101.755 136.8-149.767 172.729-6.39 4.782-12.704 9.525-14.03 10.54-2.414 1.847-2.414 1.847-.338 5.138a565.837 565.837 0 0 1 3.47 5.574c1.811 2.967.827 3.33 13.296-4.887zm-113.255-18.665c15.329-11.47 28.178-21.132 28.555-21.472.51-.46-5.085-13.186-6.493-14.768-.122-.137-11.302 6.515-24.845 14.782-15.589 9.516-25.26 14.936-26.36 14.772-2.374-.355-3.812-2.762-2.701-4.523.633-1.003 34.226-22.105 49.273-30.95 1.199-.706-2.814-12.494-4.255-12.501-.909-.004-64.824 29.809-65.626 30.61-1.408 1.408 21.878 44.905 24.04 44.905.297 0 13.083-9.385 28.412-20.855zm99.523 2.044c52.31-37.631 86.153-76.318 160.315-183.261 56.06-80.84 83.374-114.731 118.236-146.71 12.966-11.894 12.485-10.857 5.621-12.118-15.715-2.888-14.562-1.052-12.258-19.528.679-5.441 1.1-10.028.935-10.193-.459-.458-18.467 19.685-27.997 31.317-23.886 29.15-46.153 61.317-83.28 120.303-81.889 130.103-117.143 173.736-169.376 209.626-4.582 3.148-8.499 5.95-8.704 6.225-.348.466 6.69 10.702 7.36 10.702.166 0 4.283-2.863 9.148-6.363zm219.215-284.92c-3.406-3.406-1.116-9.128 3.653-9.128 3.372 0 5.476 2.16 5.476 5.62 0 4.629-5.785 6.852-9.129 3.508zm16.047-20.312c-2.414-1.69-3.065-4.924-1.572-7.81 3.721-7.197 13.99-2.064 10.843 5.42-1.572 3.738-5.793 4.826-9.27 2.39zm16.45-19.19c-4.245-2.974-3.774-9.222.877-11.627 6.878-3.557 13.242 5.419 7.742 10.919-2.365 2.365-5.845 2.65-8.619.708zM-532.23 488.346c.299-1.962 1.5-6.337 2.669-9.724 2.126-6.158 2.126-6.158-2.82-14.3-39.2-64.522-42.173-150.267-7.707-222.2 43.472-90.725 133.93-141.74 232.69-131.227 12.29 1.309 12.29 1.309 15.172-1.573 3.067-3.068 10.12-7.032 12.509-7.032 3.443 0-.734-1.602-8.437-3.237-132.823-28.18-268.445 69.528-289.585 208.629-8.886 58.467 4.476 120.409 38.245 177.299 5.806 9.78 6.257 9.99 7.264 3.365zm39.286.049c48.457-32.578 87.462-80.272 159.987-195.627 34.58-55 45.803-72.057 64.174-97.533 24.134-33.468 52.9-66.6 73.794-84.997 8.039-7.078 7.924-6.36 3.095-19.42-1.06-2.868-38.052 33.473-56.027 55.04-25.96 31.15-45.757 59.469-88.76 126.97-74.249 116.544-115.74 168.396-166.616 208.215-6.112 4.785-5.973 4.193-2.143 9.109 3.53 4.53 3.042 4.6 12.496-1.757zm104.775-8.786c2.603-2.965 1.721-11.339-1.654-15.7-.262-.34-3.335 2.506-6.828 6.323-6.351 6.939-6.351 6.939-2.487 14.527 3.863 7.588 3.863 7.588 6.046 2.78 1.2-2.646 3.416-6.214 4.923-7.93zm68.885-5.42c6.42-20.28-6.522-40.999-27.336-43.76-6.125-.813-8.051-6.98-2.18-6.98 1.534 0 2.03-.534 2.317-2.49.357-2.432.284-2.49-3.146-2.49-4.582 0-17.224 14.895-16.553 19.502.2 1.37.584 4.237.856 6.374.493 3.884.493 3.884 4.808 1.875 16.725-7.787 32.205 4.95 28.075 23.1-.454 1.996.14 3 4.455 7.527 5.762 6.044 5.97 5.981 8.704-2.657zm-181.339-4.4c8.389-7.016 21.396-18.848 21.845-19.87.135-.307-2.884-2.161-6.71-4.12-6.954-3.561-6.954-3.561-12.278.76-6.26 5.079-13.24 7.594-21.077 7.594-6.785 0-7.21-.56-6.062-7.98 1.399-9.033-.152-34.803-2.317-38.51-1.627-2.785-1.627-2.785-10.379-2.568-9.154.228-12.273-.863-10.253-3.586.43-.58 2.146-2.865 3.813-5.078 4.278-5.679 10.325-34.393 7.244-34.393-2.82 0-18.159 11.835-18.159 14.011 0 24.33 16.128 67.095 36.27 96.172 6.188 8.933 4.149 9.208 18.063-2.432zm-101.22-13.963c17.8-8.299 32.436-15.161 32.524-15.249.533-.532-4.285-12.151-5.042-12.157-.51-.004-13.219 3.596-28.242 8-28.152 8.253-29.658 8.492-30.158 4.785-.403-2.993 1.244-3.67 28.058-11.519 14.81-4.335 27.35-8.044 27.868-8.242 1.46-.558-3.065-17.083-4.677-17.075-1.774.009-70.66 14.776-71.134 15.249-1.684 1.684 15.502 52.495 17.483 51.687.525-.214 15.52-7.18 33.32-15.479zm233.514 9.838c.694-.232.594-1.39-.363-4.201-.728-2.135-1.973-7.094-2.768-11.02-1.445-7.138-1.445-7.138-6.941-.625-6.105 7.234-6.088 7.122-2.654 17.672 1.235 3.794 1.235 3.794 6.501 1.144 2.896-1.458 5.697-2.794 6.225-2.97zm27.69-8.806c-5.02-9.671-23.797-6.62-20.99 3.41 1.013 3.613 1.013 3.613 6.953 4.119 3.268.278 7.995 1.208 10.506 2.066 4.564 1.56 4.564 1.56 4.817-2.534.172-2.779-.241-5.047-1.286-7.061zm-167.845-11.69c2.577-1.004 9.137-5.743 9.108-6.58-.012-.34-1.928-1.91-4.257-3.492-2.33-1.58-6.428-5.032-9.107-7.67-4.872-4.797-4.872-4.797-4.872 7.539 0 13.315.296 13.646 9.128 10.203zm42.745-7.78c6.404-6.807 6.404-6.807-.234-8.235-20.166-4.338-36.03-15.287-43.452-29.992-2.461-4.876-2.461-4.876-5.54-2.12-1.692 1.516-3.961 3.331-5.042 4.034-2.382 1.55-1.337 4.148 5.286 13.14 7.524 10.215 13.724 15.147 30.845 24.534 12.099 6.634 10.504 6.754 18.137-1.36zm18.963-20.815c7.395-8.5 7.209-8.09 3.23-7.165-17.05 3.96-36.927-5.67-44.79-21.698-15.467-31.525 5.401-66.843 50.291-85.112 1.904-.775-13.718-7.779-17.349-7.779-5.823 0-27.848 17.99-36.068 29.46-31.08 43.37-17.27 88.262 30.375 98.732 7.383 1.623 7.244 1.686 14.31-6.438zm-171.25-11.803c18.942-4.006 34.751-7.561 35.132-7.9.664-.59-.942-12.475-1.894-14.016-.264-.427-12.87.425-29.505 1.993-30.398 2.867-31.948 2.83-31.948-.745 0-3.255 1.11-3.478 31.12-6.26 15.975-1.48 29.133-2.773 29.24-2.872.51-.475-1.315-15.622-1.954-16.212-.402-.371-17.068-.937-37.037-1.256-36.307-.582-36.307-.582-36.298 2.185.046 15.038 5.699 53.5 7.749 52.728.526-.199 16.454-3.639 35.395-7.645zm288.378 3.642c39.243-9.923 69.315-51.707 65.56-91.092-.594-6.218-2.805-19.18-3.452-20.225-.235-.381-2.703 2.569-5.484 6.555-5.057 7.247-5.057 7.247-5.153 19.747-.246 32.235-17.958 56.668-49.941 68.893-12.178 4.655-23.247 19.334-13.86 18.38 3.13-.32 8.679-1.335 12.33-2.258zm-109.837-7.385c7.726-2.452 8.275-2.892 16.02-12.856 7.088-9.12 7.088-9.12 7.092-15.793.01-15.41-7.043-28.048-18.888-33.846-4.075-1.995-4.722-1.77-13.416 4.678-4.508 3.343-4.508 3.343-.227 4.738 24.745 8.067 22.858 41.476-2.343 41.476-12.462 0-18.686-7.524-18.052-21.823 1.068-24.08 23.6-41.433 63.304-48.753 5.477-1.01 10.518-2.01 11.203-2.223 1.504-.468-7.753-4.163-20.722-8.271-9.519-3.016-9.519-3.016-14.937-1.093-20.819 7.387-38.865 20.219-47.748 33.95-21.346 32.999 3.289 71.061 38.714 59.816zm-85.213-5.564c8.855-4.53 10.3-7.07 9.8-17.217-1.517-30.81 17.773-66.374 45.298-83.512 7.104-4.423 7.058-3.872.61-7.297-6.314-3.353-5.386-3.645-16.257 5.114-29.59 23.84-41.327 44.021-44.423 76.385-1.398 14.621-2.086 18.382-4.543 24.845-.91 2.396-1.655 4.399-1.656 4.45-.002.51 9.245-1.782 11.171-2.768zm204.904-14.72c21.149-12.051 32.794-29.682 34.968-52.937.33-3.537.392-6.431.136-6.431s-5.973 8.122-12.704 18.05c-6.732 9.927-16.448 24.117-21.593 31.534-10.25 14.78-10.284 15.185-.807 9.785zm-127.694 1.13c15.823-4.302 9.786-27.164-7.29-27.607-11.67-.302-11.29 25.688.409 27.929 3.227.617 3.466.606 6.88-.322zm45.505-22.74c6.086-8.496 6.045-9.71-.668-19.825-7.905-11.909-9.012-12.479-18.49-9.525-9.48 2.955-9.693 3.17-5.637 5.677 8.72 5.389 17.003 20.313 17.039 30.698.012 3.593.408 3.235 7.756-7.024zm-147.355 2.21c2.616-1.773 6.81-4.255 9.32-5.514 2.51-1.259 4.649-2.36 4.753-2.447.104-.087 1.117-3.362 2.251-7.277 1.135-3.915 2.99-9.214 4.123-11.775 2.475-5.597 2.444-5.605-3.968-1.024-11.536 8.24-23.757 23.036-23.757 28.763 0 4.074.233 4.051 7.278-.726zm-37.983-17.377c0-7.285 0-7.285-29.252-10.478-30.228-3.3-31.328-3.538-31.328-6.792 0-3.574 1.632-3.59 31.521-.291 15.74 1.737 28.739 3.036 28.888 2.887.698-.698 1.888-17.311 1.279-17.848-.381-.336-15.817-3.688-34.302-7.449-18.486-3.76-34.393-7.017-35.351-7.235-1.956-.447-2.812 4.088-4.487 23.785-1.654 19.457-1.176 29.028 1.456 29.16 3.787.188 48.799 1.22 60.58 1.388 10.996.157 10.996.157 10.996-7.127zm36.359-3.511c5.238-5.616 5.238-5.616.423-13.364-5.518-8.879-5.453-8.98-6.348 9.844-.517 10.891-.797 10.725 5.925 3.52zm165.92-5.817c8.37-12.663 8.25-12.855-6.836-11.016-12.968 1.58-12.673 1.289-7.83 7.711 2.237 2.967 4.911 6.981 5.943 8.921 2.4 4.516 1.751 4.933 8.724-5.616zm-151.542-7.423c3.02-2.043 3.02-2.043-1.16-10.448-5.565-11.188-5.442-11.634 4.588-16.65 4.213-2.106 7.752-3.91 7.863-4.006 1.118-.97-3.755-10.34-5.181-9.963-4.48 1.183-20.537 9.887-21.192 11.488-3.232 7.9-2.872 9.656 4.35 21.223 3.727 5.968 6.986 10.749 7.244 10.625.258-.124 1.827-1.145 3.488-2.269zm286.941-2.921c19.695-16.62 29.46-35.893 30.546-60.287.413-9.265-.757-25.503-1.982-27.504-.216-.353-2.886 2.31-5.933 5.916-5.541 6.557-5.541 6.557-5.26 11.66.994 17.945-6.443 38.135-19.109 51.881-5.653 6.136-5.653 6.136-5.653 14.925 0 10.386-.568 10.125 7.391 3.409zm-272.487-4.608c1.607-.6 6.178-5.83 6.178-7.068 0-.313-1.33-2.759-2.956-5.435-2.955-4.865-2.955-4.865-8.713-1.965-3.167 1.595-5.758 3.035-5.758 3.2 0 .166 1.308 3.174 2.908 6.684 3.122 6.851 2.778 6.662 8.341 4.584zm159.72-19.92c.664-1.24.616-1.75-.189-2.042-5.08-1.844-36.91-2.605-56.674-1.355-8.299.525-8.299.525 7.469 5.767 15.825 5.262 28.157 10.527 34.074 14.547 3.135 2.13 8.002-3.243 15.32-16.917zm-140.714-.763c7.4-7.434 7.4-7.434 4.97-9.336-10.238-8.01-20.192-18.38-25.01-26.053-1.722-2.74-1.318 10.096.552 17.587 1.518 6.082 10.272 25.236 11.532 25.236.306 0 3.886-3.345 7.956-7.434zm-80.071-1.072c.59-3.309 1.22-6.405 1.4-6.879.186-.491-12.018-4.746-28.342-9.882-30.448-9.58-31.853-10.275-28.626-14.162 1.483-1.788.623-1.997 30.71 7.472 15.215 4.788 27.744 8.616 27.842 8.506.43-.48 3.78-13.236 3.535-13.46-.48-.441-65.393-32.797-65.797-32.797-1.644 0-14.976 51.45-13.632 52.608.474.408 68.075 14.407 70.104 14.517 1.517.082 1.868-.659 2.806-5.923zm334.342-6.776c5.499-9.072 9.627-22.59 9.079-29.73-.248-3.233-.248-3.233-11.64 12.082-11.393 15.314-11.393 15.314-10.208 18.935a146.16 146.16 0 0 1 2.15 7.356c.965 3.735.965 3.735 4.402-.16 1.89-2.143 4.688-5.96 6.217-8.483zm38.4 2.843c24.472-7.932 53.764-10.474 71.94-6.243 3.342.778 6.266 1.224 6.5.99.233-.233-6.294-20.342-14.507-44.685-8.212-24.343-15.121-43.7-15.354-43.016-.232.685-.657 4.16-.943 7.723-2.384 29.671-20.361 57.209-45.376 69.504-5.514 2.71-5.514 2.71-7.605 9.007-1.15 3.463-2.35 6.95-2.666 7.749-.734 1.855-.988 1.888 8.011-1.03zm-141.728-9.967c5.176-8.151 5.574-7.465-5.599-9.655-5.437-1.066-16.395-1.437-57.344-1.94-40.792-.5-52.22-.885-58.85-1.982-10.027-1.659-9.965-1.71-3.584 2.928 21.71 15.78 22.835 16.036 70.733 16.087 28.043.03 42.435.343 44.398.967 4.75 1.51 5.53 1.023 10.246-6.405zm-129.146-4.032c.103-.293-1.336-1.653-3.196-3.022-14.602-10.745-26.046-30.47-30.614-52.766-.854-4.171-1.717-7.748-1.916-7.947-2.322-2.322-22.259 38.878-29.128 60.191-3.574 11.092-3.655 10.848 2.552 7.752 2.67-1.333 6.644-3.094 8.83-3.914 3.975-1.492 3.975-1.492 3.47-8.213-.902-11.978 2.756-26.319 6.863-26.902 1.994-.283 2.113-.08 4.75 8.102 2.86 8.869 9.295 16.97 21.519 27.088 8.232 6.814 8.232 6.814 12.458 3.488 2.324-1.829 4.31-3.565 4.412-3.857zm279.132-13.452c21.1-14.283 33.968-42.516 32.98-72.36-.269-8.1-.269-8.1-7.53-2.254-7.261 5.847-7.261 5.847-7.261 12.76 0 18.506-7.634 33.622-23.752 47.032-3.42 2.846-3.42 2.846-4.026 11.832-.686 10.161-.904 10.093 9.59 2.99zm-133.715-8.34c.05-.658-8.095-2.944-16.35-4.588-5.112-1.018-16.655-1.411-56.225-1.915-52.68-.671-56.69-.958-71.783-5.13-7.363-2.036-17.423-6.522-21.364-9.529-3.87-2.95-4.049-2.226-1.156 4.66 4.919 11.706 8.668 16.356 14.69 18.216 15.716 4.854 30.731 5.942 79.48 5.76 40.373-.151 48.32.331 60.713 3.688 4.15 1.124 4.15 1.124 8.053-4.762 2.148-3.238 3.921-6.118 3.942-6.4zm-235.586-2.398c2.927-7.522 5.905-4.683-24.313-23.173-26.595-16.272-25.935-15.78-25.184-18.776.966-3.848 3.94-2.518 29.782 13.32 25.041 15.347 25.041 15.347 28.214 8.506 1.974-4.255 2.917-7.255 2.495-7.935-2.377-3.834-58-44.753-59.053-43.444-1.924 2.39-12.41 24.424-16.717 35.123-4.122 10.245-4.122 10.245 28.431 26.587 17.904 8.988 32.865 16.26 33.246 16.159.382-.101 1.776-2.966 3.1-6.367zm243.49-9.736c4.87-7.257 4.888-7.197-2.95-9.312-22.366-6.034-30.263-6.743-83.338-7.48-42.018-.583-47.188-.804-53.941-2.308-15.632-3.483-28.044-10.044-36.237-19.157-5.404-6.01-6.94-3.07-4.897 9.38 1.34 8.165 15.484 18.385 31.557 22.801 14.81 4.07 22.694 4.623 62.688 4.396 46.693-.264 65.824 1.178 78.85 5.946 1.819.666 3.58 1.236 3.912 1.269.333.032 2.293-2.459 4.357-5.535zm125.266-9.21c7.38-9.156 10.572-16.61 11.76-27.468.584-5.342.584-5.342-4.048-1.343-2.548 2.2-8.142 7.778-12.432 12.396-7.93 8.538-8.53 11.673-4.834 25.258.257.942 5.81-4.199 9.554-8.843zm-107.91-17.227c8.638-12.943 8.638-12.943 7.13-16.39-3.892-8.889-2.29-20.643 1.873-13.75.858 1.42 6.233 4.91 7.562 4.91.197 0 4.038-5.123 8.534-11.383 4.496-6.26 12.143-16.488 16.994-22.728 10.75-13.828 10.234-12.99 8.952-14.534-9.25-11.145-24.136-2.58-22.826 13.132.52 6.24.466 6.534-1.346 7.218-3.935 1.485-5.51-1.087-6.052-9.88-.598-9.719-16.23-5.235-17.61 5.051-.661 4.929 1.812 10.864 4.27 10.247 2.23-.56 4.056 1.302 3.668 3.743-.15.937-10.354 12.575-22.678 25.863-12.323 13.287-22.406 24.337-22.406 24.556 0 .218 4.992 1.652 11.094 3.187 6.102 1.535 11.299 2.996 11.549 3.246 1.45 1.45 3.505-.822 11.291-12.488zm-31.732-6.892c10.501-11.348 10.501-11.348 9.787-15.05-.393-2.037-.731-5.836-.75-8.442-.037-4.738-.037-4.738-3.453-5.762-8.441-2.529-10.518-8.166-3.015-8.184 6.85-.017 6.976-.144 8.07-8.141.52-3.791 1.14-7.4 1.377-8.02.984-2.564 5.31-2.055 6.386.752.668 1.74 5.155.329 8.183-2.572 8.627-8.265.067-22.84-12.076-20.562-1.992.374-3.148.135-4.137-.854-3.416-3.416-.015-6.233 7.526-6.233 5.79 0 6.48-.962 4.044-5.643-5.948-11.431-24.56-7.955-24.56 4.587 0 3.465 1.193 5.65 5.662 10.367 3.403 3.592 2.91 7.286-.974 7.286-2.008 0-7.601-5.267-9.642-9.081-2.413-4.51-9.984 1.468-9.984 7.883 0 6.666 6.331 15.473 8.429 11.725.43-.769 1.652-1.398 2.714-1.398 4.486 0 4.433.459-4.012 34.8-9.28 37.734-8.739 33.912-4.849 34.245 4.305.369 3.612.9 15.274-11.703zm-25.09 7.595c1.729-6.499 13.343-54.401 13.343-55.034 0-.365-.749-.9-1.664-1.191-14.279-4.532-14.623-29.78-.472-34.68 2.863-.99 3.337-1.554 4.213-5.002.543-2.137 1.698-4.68 2.567-5.652 1.58-1.767 1.58-1.767-5.059-1.174-6.723.6-24.412 3.38-24.834 3.902-.126.156.465 7.566 1.313 16.467 2.027 21.26 1.897 23.65-1.284 23.65-2.287 0-3.213-.86-4.106-3.815-.47-1.556-10.935-9.216-12.791-9.362-5.077-.4-6.677 14.37-2.17 20.011 4.403 5.511 16.902 8.865 16.902 4.536 0-3.028 3.793-4.67 5.643-2.441 1.258 1.516 3.559 27.143 2.597 28.94-.963 1.798-6.104 2.641-13.752 2.254-6.688-.34-7.29 1.39-3.311 9.52 4.35 8.89 7.203 11.24 14.044 11.567 3.29.157 6.434.36 6.987.45.553.092 1.378-1.235 1.834-2.946zm-24.83 1.85c0-.239-.937-1.849-2.082-3.579-1.145-1.73-2.805-5.176-3.689-7.658-.897-2.52-2.086-4.465-2.69-4.403-.596.06-4.22.76-8.055 1.553-20.432 4.227-48.985-1.81-61.018-12.901-4.823-4.446-5.038-3.99-5.038 10.682 0 12.894-.142 12.656 8.503 14.287 10.38 1.958 74.069 3.694 74.069 2.018zm-160.592-5.824c3.752-6.709 6.192-3.202-19.282-27.706-22.358-21.507-24.073-23.675-20.31-25.689 2.287-1.224 3.251-.428 25.749 21.238 20.998 20.222 20.998 20.222 25.906 13.356 4.17-5.835 4.756-7.08 3.897-8.297-2.123-3.008-48.34-56.16-48.881-56.214-1.235-.125-21.486 29.212-27.457 39.776-2.11 3.734-2.11 3.734 27.48 26.303 16.275 12.414 29.652 22.59 29.727 22.614.075.025 1.502-2.397 3.17-5.381zm70.975-10.964c.005-5.363.227-11.066.493-12.673.484-2.923.484-2.923-6.129-4.664-6.612-1.741-6.612-1.741-11.28 3.71-2.568 3-4.67 5.711-4.67 6.027 0 2.484 17.837 17.351 20.817 17.351.418 0 .764-4.388.77-9.75zm68.437-3.567c12.374-1.788 13.788-2.776 8.207-5.736-2.113-1.121-5.724-3.537-8.023-5.367-4.18-3.328-4.18-3.328-12.961-3.402-15.683-.131-32.95-10.157-39.582-22.984-1.492-2.885-1.773-2.722-13.934 8.106-9.73 8.662-9.796 7.882.916 10.658 8.093 2.098 9.27 2.66 13.32 6.362 11.038 10.088 32.512 15.188 52.057 12.363zm33.331-7.703c.068-.077-.075-2.848-.317-6.157-.44-6.017-.44-6.017-4.327-6.017-18.817 0-30.151-19.915-19.923-35.007 1.335-1.97 2.434-4.208 2.442-4.974.018-1.624 2.173-4.001 3.628-4.001.553 0 3.909 2.094 7.458 4.654 7.791 5.618 7.164 6.419 5.846-7.462-1.323-13.925.238-12.73-12.023-9.201-11.726 3.375-13.074 4.099-16.633 8.927-14.794 20.066-8.649 45.244 13.623 55.82 7.214 3.426 18.548 5.341 20.226 3.418zm62.484-8.1c7.778-8.375 7.778-8.375 6.101-11.826-.922-1.898-1.932-4.614-2.244-6.036-.568-2.585-.568-2.585-3.638-1.489-1.69.604-4.098 1.113-5.353 1.133-1.598.026-2.29.472-2.305 1.489-.012.799-.376 5-.808 9.336-.617 6.201-.41 15.767.342 15.767.07 0 3.627-3.768 7.905-8.374zm-205.307-11.744c.343-1.012-4.757-8.651-16.989-25.447-21.48-29.497-21.003-28.703-18.48-30.785 2.979-2.457 3.307-2.101 22.715 24.585 10.084 13.865 18.576 25.21 18.871 25.21.296 0 2.884-2.367 5.75-5.26 5.214-5.26 5.214-5.26-14.238-38.763-10.698-18.426-19.846-33.634-20.329-33.795-1.088-.363-20.723 19.324-29.39 29.468-6.414 7.508-6.414 7.508 18.605 36.36 25.018 28.85 25.018 28.85 29.006 24.362 2.193-2.469 4.209-5.14 4.479-5.935zm97.437 1.239c-5.043-9.981-5.399-21.587-1.003-32.78 1.389-3.537 2.13-6.431 1.648-6.431-3.053 0-36.29 19.932-36.29 21.763 0 7.813 21.233 22.121 32.929 22.19 5.128.03 5.128.03 2.716-4.742zm-20.18-12.716c-1.668-1.312-2.186-2.458-2.186-4.834 0-6.142 6.906-9.021 11.24-4.687 6 6-2.357 14.789-9.054 9.521zm267.935-9.364a734.47 734.47 0 0 0 4.835-3.906c1.934-1.615-1.323-7.416-4.163-7.416-11.429 0-16.319-13.898-7.223-20.524 2.21-1.61 2.21-1.61.787-5.896-1.763-5.308-1.242-5.412-9.067 1.807-6.533 6.026-6.533 6.026-8.247 20.696-.943 8.069-1.468 14.917-1.166 15.219.834.834 18.316 4.262 19.264 3.778.457-.234 2.698-1.924 4.98-3.758zm-316.63-6.514c4.342-3.741 5.437.148-9.818-34.847-13.105-30.062-13.604-31.58-10.881-33.037 3.12-1.67 4.39.546 17.15 29.928 6.991 16.1 12.849 29.41 13.017 29.578.168.168 3.308-1.828 6.979-4.435 6.673-4.74 6.673-4.74-6.207-42.972-7.084-21.029-13-38.365-13.148-38.526-1.287-1.402-42.489 30.304-42.008 32.328 1.184 4.983 38.663 66.98 39.94 66.067.774-.555 3.013-2.392 4.976-4.084zm201.38-2.86c5.08.46 5.08.46 7.72-2.824 6.55-8.152 17.907-9.279 27.623-2.74 4.38 2.947 7.199 1.55 11.457-5.681 1.972-3.35-51.196-15.599-67.703-15.599-.62 0-.429 1.465.57 4.357.828 2.396 1.517 6.174 1.532 8.396.022 3.27.495 4.573 2.482 6.836 1.35 1.537 2.846 4.25 3.325 6.027.87 3.231.87 3.231 4.392 2 2.374-.83 5.177-1.08 8.602-.771zm-160.68-26.902c0-.721-3.361-15.343-7.47-32.493-8.448-35.272-8.182-33.548-5.363-34.833 3.638-1.657 4.282.095 12.142 33.024 4.13 17.3 7.611 31.567 7.737 31.704.88.959 12.869-6.212 12.86-7.692-.016-2.483-10.682-81.118-11.053-81.49-1.621-1.62-46.718 21.97-45.986 24.056.189.538 6.044 17.841 13.01 38.452 12.667 37.475 12.667 37.475 18.395 34.03 3.214-1.934 5.728-4.022 5.728-4.758zm34.421-14.576c3.205-1.203 6.074-2.416 6.376-2.697.302-.281.003-16.321-.665-35.644-1.307-37.862-1.311-37.813 2.923-37.315 3.022.356 3.156 1.562 4.23 37.987.518 17.56 1.1 32.086 1.291 32.278 1.105 1.104 13.714-3.564 14.041-5.198.757-3.784 5.722-84.305 5.23-84.798-1.17-1.169-49.596 12.656-51.7 14.759-.716.717 10.78 82.814 11.597 82.814.468 0 3.473-.984 6.677-2.186zm189.933-42.286c13.625-22.612 24.639-41.247 24.475-41.41-1.507-1.508-39.16-11.317-48.191-12.555-3.697-.506-3.697-.506-21.733 41.573-9.92 23.143-17.79 42.324-17.49 42.624.299.3 3.338 1.14 6.752 1.868 6.208 1.323 6.208 1.323 8.141-2.488 8.019-15.815 33.966-65.427 34.653-66.26 1.305-1.578 4.637-1.239 5.605.571.697 1.301.012 3.241-3.589 10.166-24.322 46.777-31.31 60.628-30.832 61.108.58.582 15.142 5.701 16.607 5.838.457.043 11.978-18.423 25.602-41.035zm-138.296 28.399c.282-.282 2.874-15.914 5.76-34.739 6.073-39.6 5.32-36.504 8.797-36.17 3.826.37 3.838.127-1.836 37.115-2.76 17.987-4.89 32.832-4.733 32.988.156.156 3.063.049 6.46-.238 6.177-.522 6.177-.522 17.18-43.362 6.052-23.561 10.99-43.12 10.973-43.462-.097-1.986-50.566 2.335-52.748 4.517-.17.17-1.443 17.102-2.828 37.626-1.386 20.524-2.75 39.964-3.032 43.199-.512 5.881-.512 5.881 7.491 4.46 4.402-.782 8.235-1.653 8.516-1.934zm85.497-41.395C-266.2 10.2-264.054 4.71-265.322 4.226-270.629 2.2-317.616-1.08-317.616.578c0 .335-4.854 19.42-10.788 42.409-5.933 22.99-10.787 42.283-10.786 42.875 0 .791 2.154 1.142 8.135 1.326 8.133.25 8.133.25 18.796-34.024 12.231-39.314 11.477-37.364 14.325-37.022 4.392.527 4.281 1.13-6.724 36.397-5.76 18.463-10.473 33.974-10.471 34.469.002.506 3 1.263 6.85 1.73 3.765.458 7.068.893 7.339.968.27.075 8.723-19.002 18.782-42.394z"/></svg>