<?xml version="1.0" encoding="UTF-8" standalone="no"?>
<!-- Created with Inkscape (http://www.inkscape.org/) -->
<svg xmlns:dc="http://purl.org/dc/elements/1.1/" xmlns:cc="http://creativecommons.org/ns#" xmlns:rdf="http://www.w3.org/1999/02/22-rdf-syntax-ns#" xmlns:svg="http://www.w3.org/2000/svg" xmlns="http://www.w3.org/2000/svg" version="1.0" width="185" height="40" id="svg4177">
<metadata id="metadata27">
<rdf:RDF>
<cc:Work rdf:about="">
<dc:format>image/svg+xml</dc:format>
<dc:type rdf:resource="http://purl.org/dc/dcmitype/StillImage"/>
<dc:title/>
</cc:Work>
</rdf:RDF>
</metadata>
<defs id="defs4179"/>
<g id="g3813">
<path d="m 8.7475675,34.243166 -0.03425,0 -2.59765,-8.344727 -3.5254,0 4.0673875,11.518555 3.813475,0 4.194338,-11.518555 -3.173825,0 -2.744138,8.344727" id="path763" style="fill:#a80f4f;fill-opacity:1;fill-rule:nonzero;stroke:none"/>
<path d="m 38.435068,37.416994 0,-2.236328 -5.585938,0 0,-2.436523 5.136713,0 0,-2.236329 -5.136713,0 0,-2.373046 5.585938,0 0,-2.236329 -8.774425,0 0,11.518555 8.774425,0" id="path765" style="fill:#a80f4f;fill-opacity:1;fill-rule:nonzero;stroke:none"/>
<path d="m 56.662605,30.781252 0,-2.646484 1.245112,0 c 1.020513,0 2.006838,0.141601 2.006838,1.323242 0,1.176758 -0.986325,1.323242 -2.006838,1.323242 l -1.245112,0 z m 0,2.236329 1.196287,0 c 1.625975,0 1.68945,0.571288 1.8164,1.96289 0.083,0.810547 0.180675,1.640625 0.351563,2.436523 l 3.4668,0 C 63.220217,36.494143 63.044442,35.585939 62.966317,34.624026 62.756355,32.836916 62.375492,31.80176 60.33448,31.752932 l 0,-0.06348 c 1.611325,-0.19043 2.934562,-1.098633 2.934562,-2.822267 0,-2.441406 -2.524412,-2.96875 -4.467775,-2.96875 l -5.327137,0 0,11.518555 3.188475,0 0,-4.399413" id="path767" style="fill:#a80f4f;fill-opacity:1;fill-rule:evenodd;stroke:none"/>
<path d="m 87.951667,29.038088 c 0.195313,-2.773438 -2.246099,-3.618164 -4.624025,-3.618164 -2.412112,0 -4.804687,0.751953 -4.931637,3.476562 0,1.245118 0.576162,2.299805 1.738275,2.807618 2.504887,1.103515 4.868162,0.766601 4.868162,2.329101 0,0.766601 -0.942375,1.152344 -1.6748,1.152344 -1.147462,0 -1.948237,-0.59082 -1.9336,-1.674805 l -3.188474,0 c 0.04887,3.125 2.407224,3.90625 5.087887,3.90625 2.666025,0 5.0586,-1.147461 5.0586,-3.574219 0,-3.110351 -2.807612,-3.300781 -4.736325,-3.798827 -0.844725,-0.219728 -1.870125,-0.493165 -1.870125,-1.337892 0,-0.576171 0.63965,-1.049804 1.372075,-1.049804 0.541987,0 0.957025,0.126953 1.230463,0.366211 0.288087,0.239257 0.429687,0.571289 0.41505,1.015625 l 3.188474,0" id="path769" style="fill:#a80f4f;fill-opacity:1;fill-rule:nonzero;stroke:none"/>
<path d="m 103.66944,37.416994 3.18848,0 0,-11.518555 -3.18848,0 0,11.518555 z" id="path771" style="fill:#a80f4f;fill-opacity:1;fill-rule:nonzero;stroke:none"/>
<path d="m 125.1831,37.416994 3.19825,0 0,-9.282226 3.60352,0 0,-2.236329 -10.3125,0 0,2.236329 3.51073,0 0,9.282226" id="path773" style="fill:#a80f4f;fill-opacity:1;fill-rule:nonzero;stroke:none"/>
<path d="m 143.59375,24.791994 0,2.5625 2.84375,0 0,-2.5625 -2.84375,0 z m 14.125,0 0,2.5625 2.84375,0 0,-2.5625 -2.84375,0 z m -7.625,1.09375 -4.5625,11.53125 3.1875,0 0.78125,-2.25 4.65625,0 0.75,2.25 3.625,0 -4.5625,-11.53125 -3.875,0 z m 1.75,2.25 0.0625,0 1.46875,4.78125 -3.09375,0 1.5625,-4.78125 z" id="path775" style="fill:#a80f4f;fill-opacity:1;fill-rule:evenodd;stroke:none"/>
<path d="m 175.60792,37.416994 3.18847,0 0,-9.282226 3.61328,0 0,-2.236329 -10.32715,0 0,2.236329 3.5254,0 0,9.282226" id="path777" style="fill:#a80f4f;fill-opacity:1;fill-rule:nonzero;stroke:none"/>
<path d="m 11.379405,2.82715 0,7.1289063 c -0.04888,1.4697267 -0.81055,2.3974617 -2.3144625,2.3974617 -1.499025,0 -2.265625,-0.927735 -2.3095625,-2.3974617 l 0,-7.1289063 -3.1933625,0 0,7.29004 c 0.02925,3.208008 2.6025375,4.467773 5.502925,4.467773 2.9052755,0 5.4736375,-1.259765 5.5078125,-4.467773 l 0,-7.29004 -3.19335,0" id="path779" style="fill:#a80f4f;fill-opacity:1;fill-rule:nonzero;stroke:none"/>
<path d="m 28.903818,14.58496 2.875974,0 0,-8.8232425 0.02925,0 3.911138,8.8232425 4.41895,0 0,-11.518555 -2.8711,0 0,8.549805 -0.03413,0.0293 -3.862313,-8.5791025 -4.467762,0 0,11.5185555" id="path781" style="fill:#a80f4f;fill-opacity:1;fill-rule:nonzero;stroke:none"/>
<path d="m 55.842292,14.584963 3.188475,0 0,-11.518555 -3.188475,0 0,11.518555 z" id="path783" style="fill:#a80f4f;fill-opacity:1;fill-rule:nonzero;stroke:none"/>
<path d="m 75.64698,14.584963 0,-6.1132812 5.317375,6.1132812 2.2461,0 -5.727538,-6.3671875 5.15625,-5.1513675 -2.1875,0 -4.804687,4.990235 0,-4.990235 -1.5918,0 0,11.518555 1.5918,0" id="path789" style="fill:#211e1e;fill-opacity:1;fill-rule:nonzero;stroke:none"/>
<path d="m 94.631355,14.584963 1.240225,-3.00293 5.34669,0 1.25,3.00293 1.73827,0 -4.663085,-11.518555 -1.708975,0 -4.853513,11.518555 1.650388,0 z m 3.98925,-9.9414062 2.084965,5.5664062 -4.287115,0 2.20215,-5.5664062" id="path791" style="fill:#211e1e;fill-opacity:1;fill-rule:evenodd;stroke:none"/>
<path d="m 114.88038,10.976565 c -0.0586,2.58789 1.68945,3.608398 4.10156,3.608398 2.32422,0 4.67773,-0.927734 4.67773,-3.544922 0,-2.900391 -2.89063,-2.900391 -5.01464,-3.5888672 -1.00099,-0.3173825 -1.92384,-0.4003913 -1.92384,-1.7089838 0,-1.3671875 1.53809,-1.7822275 2.67579,-1.7822275 1.14746,0 2.23633,0.4443363 2.2998,1.7382813 l 1.6748,0 c 0,-2.2363275 -1.93847,-3.1152338 -3.90136,-3.1152338 -2.14844,0 -4.42383,0.9277338 -4.42383,3.4326175 0,2.5830075 3.14942,3.012695 5.04883,3.4277338 0.96191,0.1953125 1.88965,0.6542967 1.88965,1.7724617 0,1.611327 -1.60156,1.99707 -2.90039,1.99707 -1.55274,0 -2.5,-0.605469 -2.52441,-2.236328 l -1.67969,0" id="path793" style="fill:#211e1e;fill-opacity:1;fill-rule:nonzero;stroke:none"/>
<path d="m 135.13428,10.976565 c -0.0635,2.58789 1.69922,3.608398 4.09669,3.608398 2.33886,0 4.68749,-0.927734 4.68749,-3.544922 0,-2.900391 -2.90039,-2.900391 -5.00977,-3.5888672 -1.01562,-0.3173825 -1.93847,-0.4003913 -1.93847,-1.7089838 0,-1.3671875 1.54785,-1.7822275 2.68555,-1.7822275 1.13769,0 2.22656,0.4443363 2.29003,1.7382813 l 1.68458,0 c 0,-2.2363275 -1.9336,-3.1152338 -3.89649,-3.1152338 -2.15332,0 -4.43847,0.9277338 -4.43847,3.4326175 0,2.5830075 3.16406,3.012695 5.06347,3.4277338 0.94727,0.1953125 1.875,0.6542967 1.875,1.7724617 0,1.611327 -1.58691,1.99707 -2.90038,1.99707 -1.55274,0 -2.49024,-0.605469 -2.51466,-2.236328 l -1.68457,0" id="path795" style="fill:#211e1e;fill-opacity:1;fill-rule:nonzero;stroke:none"/>
<path d="m 163.10792,14.584963 0,-1.37207 -5.76173,0 0,-3.8134775 5.36133,0 0,-1.37207 -5.36133,0 0,-3.59375 5.625,0 0,-1.3671875 -7.22656,0 0,11.518555 7.36329,0" id="path797" style="fill:#211e1e;fill-opacity:1;fill-rule:nonzero;stroke:none"/>
<path d="m 182.39503,14.584963 0,-1.37207 -5.36134,0 0,-10.146485 -1.60156,0 0,11.518555 6.9629,0" id="path799" style="fill:#211e1e;fill-opacity:1;fill-rule:nonzero;stroke:none"/>
</g>
</svg>