<svg xmlns="http://www.w3.org/2000/svg" width="100" height="38.889" xml:space="preserve"><path d="M170.079 56.692V-.001H0v170.078h85.04v28.347h425.196V56.692Z" style="fill:#1b805f" transform="scale(.19599)"/><path d="M131.558 161.796c0 6.303-3.083 8.741-9.109 8.741-6.165 0-9.109-2.254-9.109-8.741v-23.923h5.981v24.337c0 2.255.46 3.635 3.128 3.635 2.3 0 3.128-1.38 3.128-3.635v-24.337h5.981zm18.164 8.281v-17.298c0-1.702-.276-2.393-1.84-2.393-1.519 0-3.128.69-4.601 1.519v18.172H137.3v-24.383h4.693l1.15 2.07c1.426-1.196 3.68-2.53 6.487-2.53 3.818 0 6.073 1.886 6.073 6.349v18.494zm14.728-27.833c-1.932 0-3.404-1.564-3.404-3.45 0-1.887 1.472-3.451 3.404-3.451 1.933 0 3.405 1.564 3.405 3.451 0 1.886-1.472 3.45-3.405 3.45zm-2.99 27.833v-24.383h5.981v24.383zm23.341 0h-7.085l-6.809-24.383h6.533l2.438 12.882c.414 2.254 1.196 7.131 1.38 8.603.23-1.472.874-5.935 1.38-8.603l2.438-12.882h6.533zm14.443-10.213c0 5.152 2.024 5.889 4.187 5.889 1.61 0 4.876-.645 6.073-.967v4.739c-1.15.368-3.451 1.012-6.073 1.012-4.739 0-10.121-.966-10.121-12.651 0-10.305 4.37-12.651 9.201-12.651 4.785 0 8.281 2.622 8.281 11.777 0 .276 0 .552-.046 2.853h-11.502zm3.266-10.581c-2.208 0-3.22 1.058-3.22 6.809h5.659c0-4.739-.368-6.809-2.439-6.809zm25.139 1.886a8.578 8.578 0 0 0-2.76-.46c-1.288 0-2.393.506-3.358 1.334v18.034h-5.981v-24.383h4.785l.828 2.53c.46-1.288 1.702-2.99 4.232-2.99 1.196 0 1.886.276 2.254.46zm8.316 19.368c-2.024 0-4.095-.552-5.291-.966v-4.877c1.473.46 3.727 1.059 4.831 1.059 2.024 0 3.128-.736 3.128-2.623 0-1.563-1.012-2.116-2.208-2.806l-1.656-.92c-1.472-.828-4.324-2.484-4.324-6.671 0-5.475 3.864-7.499 8.234-7.499 1.979 0 3.681.506 4.831 1.012v4.646c-1.15-.46-3.036-.966-4.692-.966-1.61 0-2.623.92-2.623 2.347 0 1.748 1.059 2.07 2.53 2.898l1.887 1.058c1.748.966 3.818 2.807 3.818 6.579 0 6.395-4.37 7.729-8.465 7.729zm15.795-28.293c-1.932 0-3.404-1.564-3.404-3.45 0-1.887 1.473-3.451 3.404-3.451 1.933 0 3.404 1.564 3.404 3.451.001 1.886-1.471 3.45-3.404 3.45zm-2.99 27.833v-24.383h5.98v24.383zm19.073.46c-2.53 0-6.211-.46-6.211-6.118v-14.538h-3.22v-4.187h3.22l.645-5.521 5.336-1.84v7.36h4.601l-.689 4.187h-3.911v13.894c0 1.656.69 2.024 1.887 2.024.644 0 2.438-.368 3.174-.552v4.646c-.968.277-2.992.645-4.832.645zm19.807-.46-.92-1.933c-.828 1.059-2.301 2.393-4.601 2.393-2.807 0-6.579-.92-6.579-7.867 0-6.9 5.199-8.051 8.005-8.051h3.037v-2.3c0-1.564-.599-2.393-2.991-2.393-1.656 0-4.232.69-6.21 1.38v-4.646c1.978-.735 4.876-1.426 7.591-1.426 3.956 0 7.591 1.334 7.591 6.993v17.85zm-7.222-28.523c-1.794 0-3.175-1.472-3.175-3.22 0-1.749 1.381-3.221 3.175-3.221 1.794 0 3.174 1.472 3.174 3.221 0 1.748-1.38 3.22-3.174 3.22zm6.165 16.7-2.116.046c-2.07.046-2.945.92-2.945 4.232 0 3.082.921 3.635 2.07 3.635 1.104 0 2.484-.782 2.991-1.196zm2.53-16.7c-1.795 0-3.175-1.472-3.175-3.22 0-1.749 1.38-3.221 3.175-3.221 1.794 0 3.174 1.472 3.174 3.221 0 1.748-1.38 3.22-3.174 3.22zm16.384 28.983c-2.53 0-6.211-.46-6.211-6.118v-14.538h-3.22v-4.187h3.22l.645-5.521 5.336-1.84v7.36h4.601l-.689 4.187h-3.911v13.894c0 1.656.69 2.024 1.887 2.024.644 0 2.438-.368 3.174-.552v4.646c-.968.277-2.992.645-4.832.645zm30.451-.46h-8.143v-32.204h8.143c6.441 0 9.34 2.484 9.34 8.189 0 4.784-2.438 6.579-5.061 7.269 3.082.599 5.98 2.484 5.98 7.499.001 6.993-3.404 9.247-10.259 9.247zm-.552-27.925h-1.61v9.293h1.242c3.175 0 4.278-1.381 4.278-5.153 0-3.634-1.425-4.14-3.91-4.14zm-.368 13.434h-1.242v10.213h2.024c2.53 0 4.417-.828 4.417-4.923 0-4.141-1.564-5.29-5.199-5.29zm18.841-13.342c-1.932 0-3.404-1.564-3.404-3.45 0-1.887 1.473-3.451 3.404-3.451 1.933 0 3.404 1.564 3.404 3.451 0 1.886-1.471 3.45-3.404 3.45zm-2.99 27.833v-24.383h5.98v24.383zm16.625-10.213c0 5.152 2.024 5.889 4.187 5.889 1.61 0 4.876-.645 6.072-.967v4.739c-1.149.368-3.45 1.012-6.072 1.012-4.738 0-10.121-.966-10.121-12.651 0-10.305 4.37-12.651 9.201-12.651 4.784 0 8.28 2.622 8.28 11.777 0 .276 0 .552-.046 2.853h-11.501zm3.266-10.581c-2.209 0-3.221 1.058-3.221 6.809h5.659c.001-4.739-.367-6.809-2.438-6.809zm12.962 20.794v-33.124h5.98v33.124zm16.68-10.213c0 5.152 2.024 5.889 4.187 5.889 1.61 0 4.876-.645 6.072-.967v4.739c-1.149.368-3.45 1.012-6.072 1.012-4.738 0-10.121-.966-10.121-12.651 0-10.305 4.37-12.651 9.201-12.651 4.784 0 8.28 2.622 8.28 11.777 0 .276 0 .552-.046 2.853h-11.501zm3.266-10.581c-2.209 0-3.221 1.058-3.221 6.809h5.659c.001-4.739-.367-6.809-2.438-6.809zm22.48-8.235c-1.84 0-2.53.736-2.53 2.53v2.116h4.601l-.689 4.187h-3.911v20.196h-5.98v-20.196h-3.22v-4.187h3.22v-1.933c0-5.658 3.589-7.269 7.545-7.269 2.438 0 4.278.506 5.106.828v4.463c-.921-.275-2.761-.735-4.142-.735zm10.092 18.816c0 5.152 2.024 5.889 4.187 5.889 1.61 0 4.876-.645 6.072-.967v4.739c-1.149.368-3.45 1.012-6.072 1.012-4.738 0-10.121-.966-10.121-12.651 0-10.305 4.37-12.651 9.201-12.651 4.784 0 8.28 2.622 8.28 11.777 0 .276 0 .552-.046 2.853H436.26Zm3.266-10.581c-2.209 0-3.221 1.058-3.221 6.809h5.659c.001-4.739-.367-6.809-2.438-6.809zm12.962 20.794v-33.124h5.98v33.124zm24.868 0-.735-1.84c-.967 1.104-2.576 2.3-5.106 2.3-2.944 0-8.281-.828-8.281-12.651 0-11.869 6.44-12.651 9.201-12.651 2.024 0 3.174.874 3.68 1.38v-9.661h5.981v33.124h-4.74zm-1.242-19.276c-.781-.506-1.794-.874-2.852-.874-2.162 0-4.049.552-4.049 7.959 0 7.545 1.656 8.005 3.589 8.005 1.104 0 2.576-.736 3.312-1.334z" style="fill:#fff" transform="scale(.19599)"/></svg>