<svg xmlns="http://www.w3.org/2000/svg" viewBox="0 0 54.424 14.34" fill="#fa0c00"><path d="M5.996 0H0v14.34zm4.219 0h5.988v14.34zm-2.11 5.285 3.817 9.055H9.418l-1.14-2.883H5.483Zm17.88 3.835.707 2.027c.024.05.059.074.121.074h1.36c.074 0 .086-.035.074-.11l-2.809-7.8c-.011-.063-.023-.075-.086-.075h-1.687c-.047 0-.074.036-.074.086-.024.41-.059.536-.11.657l-2.504 7.12c-.011.087.016.122.086.122h1.215c.074 0 .11-.024.137-.098l.668-2.004ZM23.47 7.794c.367-1.11.851-2.531 1.047-3.344h.011c.242.852.813 2.54 1.07 3.344zm8.388 3.548a5.76 5.76 0 0 0 2.297-.473c.062-.023.074-.05.074-.11a8.119 8.119 0 0 1-.051-.776V2.639c0-.047 0-.07-.059-.07h-1.324c-.05 0-.074.023-.074.085v2.489a4.355 4.355 0 0 0-.523-.035c-2.137 0-3.45 1.41-3.45 3.171 0 2.043 1.348 3.063 3.11 3.063zm.863-1.36c-.219.07-.461.098-.707.098-.969 0-1.762-.547-1.762-1.875 0-1.176.817-1.87 1.899-1.87.218 0 .41.023.57.085zm5.732-4.874c-1.824 0-2.953 1.398-2.953 3.125 0 1.542.899 3.109 2.926 3.109 1.715 0 2.918-1.262 2.918-3.149 0-1.664-1.02-3.085-2.89-3.085zm-.074 1.226c1.031 0 1.469.887 1.469 1.899 0 1.25-.645 1.87-1.395 1.87-.925 0-1.472-.777-1.472-1.898 0-1.152.582-1.87 1.398-1.87zm4.334-3.766c-.05 0-.086.024-.086.086v8.313c0 .035.035.098.086.11a6.165 6.165 0 0 0 1.82.265c1.801 0 3.551-1.117 3.551-3.367 0-1.63-1.117-2.867-2.867-2.867a3.51 3.51 0 0 0-1.106.171l-.015-2.613c0-.086-.024-.098-.11-.098zm3.875 5.555c0 1.348-.922 1.98-1.918 1.98-.207 0-.39-.011-.559-.062V6.494c.192-.074.422-.136.848-.136.961 0 1.629.609 1.629 1.765zm6.438.437c.594 0 1.082-.011 1.25-.05.063-.012.086-.035.098-.086.035-.133.05-.41.05-.75 0-1.156-.695-2.566-2.492-2.566-1.836 0-2.855 1.496-2.855 3.183 0 1.496.789 3.05 3 3.05.828 0 1.363-.132 1.824-.35.047-.024.07-.063.07-.133V9.846c0-.059-.035-.07-.07-.047-.46.195-.96.293-1.508.293-1.238 0-1.8-.684-1.836-1.531zm-2.469-1.046c.098-.594.473-1.239 1.313-1.239.926 0 1.168.778 1.168 1.13v.097c-.051.012-.207.012-.668.012zm0 0"/></svg>