<svg xmlns="http://www.w3.org/2000/svg" width="270.121" height="23.058"><path d="M10.339 0A48.988 48.988 0 0 0 0 1.059l.01 13.565c-.025 7.02 8.799 7.169 10.074 8.434 1.275-1.265 10.001-1.414 10.025-8.434l-.01-13.565A40.256 40.256 0 0 0 10.339 0" style="fill:#fff"/><path d="M3.283 3.805v10.37c0 4.582 5.981 4.661 6.835 5.514.855-.853 6.836-.932 6.836-5.515V3.805a29.49 29.49 0 0 0-6.836-.524c-5.088-.02-6.835.524-6.835.524" style="fill:#ffc629"/><path d="M10.362.465A46.328 46.328 0 0 0 .516 1.481l.009 13.015c-.022 6.737 8.379 6.88 9.594 8.094 1.214-1.214 9.523-1.357 9.546-8.094l-.01-13.015A38.075 38.075 0 0 0 10.363.465m7.205 14.038c0 4.78-6.518 4.94-7.448 5.87-.931-.93-7.448-1.09-7.448-5.87V3.204s1.903-.594 7.448-.57c5.545.021 7.448.57 7.448.57Z" style="fill:#003595"/><path d="m16.325 3.676-1.555.679-2.091 5.133a41.923 41.923 0 0 0-2.521-.085c-.407 0-.822.008-1.241.023L11.493 3.3a87.036 87.036 0 0 0-1.374-.019l-1.628.7-3.253 7.784a55.801 55.801 0 0 1 1.967-.146l-2.398 1.175-1.238 2.967a4.297 4.297 0 0 0 1.849 2.073l2.608-6.269a50.531 50.531 0 0 1 5.328.057l-1.983.952-2.701 6.532a4.405 4.405 0 0 1 1.449.584 3.71 3.71 0 0 1 1.245-.523l5.59-13.443V3.805a7.104 7.104 0 0 0-.63-.129m172.151.914-4.822 11.134c-.611-1.368-3.224-7.38-4.704-11.132-.133-.336-.382-.952.504-.952h-3.814c.665 0 .89.552 1.064.95 1.645 3.786 6.339 14.711 6.339 14.711l6.472-14.71s.43-.95 1.075-.95h-2.58c.999 0 .466.95.466.95m79.006-.95c.98 0 .162.95.162.95l-4.713 6.311c-.286-.43-2.257-3.322-4.227-6.31-.208-.316-.371-.952.25-.952h-3.812c.64 0 1.05.586 1.298.952 1.702 2.522 4.764 7.081 5.096 7.578v5.457a.931.931 0 0 1-.953.95h3.998a.93.93 0 0 1-.95-.95v-6.279l5.115-6.758s.648-.95 1.376-.95Zm-102.857 0h-.952a.931.931 0 0 1 .952.95v10.56c-.587-.654-9.323-10.376-10.211-11.51h-2.061a.93.93 0 0 1 .95.95v13.036a.93.93 0 0 1-.95.95h3.01a.93.93 0 0 1-.95-.95V6.432l11.356 12.686V4.59a.93.93 0 0 1 .95-.95h-2.094Zm-16.54 0h-.95a.93.93 0 0 1 .95.95v8.28a4.378 4.378 0 0 1-4.568 4.565c-2.79 0-4.313-1.903-4.313-4.503V4.59a.931.931 0 0 1 .953-.95h-4.06a.93.93 0 0 1 .952.95v8.28c0 3.615 2.284 5.992 6.122 5.992a5.641 5.641 0 0 0 5.874-5.793V4.59a.931.931 0 0 1 .953-.95h-1.913Zm25.194 0h-3.743a.93.93 0 0 1 .95.95v13.036a.931.931 0 0 1-.951.95h3.744a.931.931 0 0 1-.952-.95V4.59a.931.931 0 0 1 .952-.95m64.63 0h-3.738a.93.93 0 0 1 .95.95v13.037a.931.931 0 0 1-.952.95h3.74a.93.93 0 0 1-.95-.95V4.59a.93.93 0 0 1 .95-.95m-198.774 0h-3.997a.93.93 0 0 1 .95.95v5.966h-7.865V4.59a.931.931 0 0 1 .952-.95h-3.935a.931.931 0 0 1 .952.95v13.037a.931.931 0 0 1-.952.95h3.935a.931.931 0 0 1-.952-.95v-6.089h7.866v6.09a.93.93 0 0 1-.951.95h3.997a.932.932 0 0 1-.954-.95V4.59a.932.932 0 0 1 .954-.95m21.734 0a.93.93 0 0 1 .95.95v13.037a.93.93 0 0 1-.95.95h3.9a.924.924 0 0 1-.951-.945V11.6h4.814a.932.932 0 0 1 .95.952v-2.94a.933.933 0 0 1-.95.953h-4.782V4.59h5.825a.932.932 0 0 1 .95.952V3.64h-9.756ZM50.007 17.785a6.134 6.134 0 0 1-6.121-6.47c0-3.234 1.869-6.789 6.12-6.789 4.219 0 6.058 3.427 6.058 6.661 0 3.776-2.6 6.63-6.057 6.598m0-14.303c-5.074 0-8.468 3.65-8.468 7.833 0 4.886 3.806 7.485 8.5 7.485 4.692 0 8.373-2.76 8.373-7.613 0-4.185-3.33-7.705-8.405-7.705M84.545 4.59v.952a.931.931 0 0 1 .95-.952h4.343v13.037a.931.931 0 0 1-.953.95h3.996a.93.93 0 0 1-.95-.95V4.59h4.696a.932.932 0 0 1 .95.952V3.64H84.546Zm32.875 7.866 2.537-5.964c.382.892 1.555 3.65 2.568 5.964Zm-14.535-7.802h.858c3.265 0 4.28 1.524 4.28 3.172 0 1.935-1.243 3.522-5.138 3.522Zm24.089 12.952-6.458-14.365-6.4 14.352a1.656 1.656 0 0 1-.963.932c-2.226-.606-3.236-6.788-6.698-6.788 1.839-.603 3.567-2.07 3.567-4.068 0-2.062-1.776-4.029-5.394-4.029h-4.601a.932.932 0 0 1 .954.95v13.037a.932.932 0 0 1-.954.95h3.81a.931.931 0 0 1-.952-.95v-5.535c6.909 0 4.918 6.485 8.47 6.485h4.277c-1.016 0-.451-.98-.451-.98l1.794-4.126h5.963a156.32 156.32 0 0 1 1.683 4.125c.134.34.384.981-.714.981h4.379a1.526 1.526 0 0 1-1.312-.97M77.623 9.443c-1.144-.602-2.188-1.333-2.188-2.855 0-1.426 1.269-2.093 2.663-2.093.922 0 3.439.438 3.774 2.681V4.685a6.12 6.12 0 0 0-3.71-1.203c-1.997 0-4.408 1.234-4.408 3.806 0 3.171 2.918 3.9 5.01 5.01 1.142.601 2.189 1.363 2.189 2.884 0 1.493-1.301 2.54-3.142 2.54-1.298 0-3.897-.63-4.597-3.172v2.6a6.875 6.875 0 0 0 4.663 1.586c2.505 0 4.853-1.555 4.853-4.344 0-3.173-2.981-3.9-5.107-4.948m148.05 0c-1.14-.602-2.187-1.333-2.187-2.855 0-1.426 1.268-2.093 2.664-2.093.917 0 3.436.438 3.774 2.681V4.685a6.132 6.132 0 0 0-3.711-1.203c-1.996 0-4.41 1.234-4.41 3.806 0 3.171 2.92 3.9 5.013 5.01 1.14.601 2.187 1.363 2.187 2.884 0 1.493-1.3 2.54-3.14 2.54-1.297 0-3.9-.63-4.6-3.172v2.6a6.878 6.878 0 0 0 4.663 1.586c2.506 0 4.854-1.555 4.854-4.344 0-3.173-2.981-3.9-5.107-4.948M209.3 4.654h.857c3.266 0 4.282 1.524 4.282 3.172 0 1.935-1.241 3.522-5.14 3.522Zm3.568 7.083c1.844-.603 3.568-2.07 3.568-4.068 0-2.062-1.776-4.029-5.391-4.029h-4.604a.932.932 0 0 1 .954.95v13.037a.932.932 0 0 1-.954.95h3.81a.931.931 0 0 1-.951-.95v-5.535c6.91 0 4.918 6.485 8.47 6.485h2.16c-2.49.011-3.415-6.84-7.062-6.84m27.985-7.147v.952a.932.932 0 0 1 .953-.952h4.343v13.037a.931.931 0 0 1-.952.95h3.996a.931.931 0 0 1-.952-.95V4.59h4.7a.931.931 0 0 1 .95.952V3.64h-13.038Zm-38.597 13.042h-6.42l.002-6.033h4.813a.932.932 0 0 1 .952.952v-2.94a.933.933 0 0 1-.952.953h-4.782V4.59h5.826a.931.931 0 0 1 .949.952V3.64h-9.758a.932.932 0 0 1 .954.95v13.037a.932.932 0 0 1-.954.95h10.32v-1.894a.93.93 0 0 1-.95.95" style="fill:#003595"/></svg>