<svg xmlns="http://www.w3.org/2000/svg" version="1.1" id="Lager_1" x="0" y="0" xml:space="preserve" width="100" height="32.821"><style type="text/css" id="style2">.st0,.st1{fill-rule:evenodd;clip-rule:evenodd}.st1,.st2{fill:#bd2b30}</style><g id="g160" transform="translate(-4.36 -10.335) scale(.10872)"><g id="g198" transform="translate(-1423.989 -1083.448) scale(6.70312)"><path style="clip-rule:evenodd;fill-rule:evenodd" id="path4" d="M320.857 210.46c-.39-.18-.7-.38-.94-.73-.45-.7-2-2.93-2.26-3.37-.03-.06-.04-.17.03-.22l.43-.12c.51-.09.94-.52 1.11-.99.2-.57.16-1.26.01-1.84-.1-.4-.4-.79-.76-1.04-.13-.09-.25-.14-.43-.18-.2-.05-.38-.08-.63-.08-1.3 0-2.44.01-3.73 0-.06 0-.14.06-.13.13.01.1.14.08.25.13.22.09.35.36.34.69l-.01 6.81c.03.44-.29.7-.55.7-.13 0-.16.22.06.21.69-.04 1.48-.03 2.17.04.06.01.16-.04.16-.13 0-.05-.03-.08-.12-.11-.38-.11-.53-.15-.57-.64l.02-2.66c0-.05.02-.5.02-.56 0-.19.66-.11.93-.09.23.02.34.22.45.39.83 1.19 1.32 1.98 1.98 2.99.19.29.43.48.73.63.45.23.86.27 1.37.31.04 0 .11-.04.13-.08.02-.04.04-.15-.06-.19zm-4.49-4.71c-.3.02-.66-.02-.95-.1-.08-.02-.1-.08-.1-.2.01-1.37.03-2.54.03-2.75 0-.19.37-.16.58-.16.64-.02 1.34-.07 1.74.19.25.17.39.44.48.65.13.31.1.78.08 1.12-.02.39-.28.74-.62.98-.1.08-.7.24-1.24.27z" class="st0"/><path style="clip-rule:evenodd;fill-rule:evenodd" id="path6" d="M325.267 194.75a.969.969 0 0 1-.64-.49c-.82-1.64-2.68-6.38-2.68-6.38-.31-.75-.69-1.71-.8-1.97-.04-.15-.15-.03-.21.03-.86 1.96-3.39 7.38-3.74 8.01-.22.4-.51.61-.63.71-.15.12-.36.1-.36.22 0 .05.06.12.11.12.3 0 1.29-.11 2.01-.02.08.01.12-.07.12-.14 0-.09-.17-.12-.26-.2-.19-.18-.21-.37-.15-.55.28-.8.63-1.52.96-2.26.03-.08.11-.16.2-.16h3.1c.07 0 .08.04.1.08l.71 1.76c.09.33.25.67.15 1.05-.07.25-.41.15-.41.34 0 .05.06.09.14.08.82-.02 1.54-.1 2.33-.02.07.01.1-.05.1-.1.01-.05-.06-.09-.15-.11zm-3.66-3.8h-2.13c-.05-.01-.05-.07-.02-.1.43-.97.89-1.92 1.31-2.9.02-.03.09-.1.11-.05.17.43 1.04 2.62 1.11 2.8.1.24-.01.25-.38.25z" class="st0"/><path style="clip-rule:evenodd;fill-rule:evenodd" id="path8" d="M341.817 194.75a.969.969 0 0 1-.64-.49c-.82-1.64-2.68-6.38-2.68-6.38-.31-.75-.69-1.71-.8-1.97-.04-.15-.15-.03-.21.03-.86 1.96-3.39 7.38-3.74 8.01-.22.4-.51.61-.63.71-.15.12-.36.1-.36.22 0 .05.06.12.11.12.3 0 1.29-.11 2.01-.02.08.01.12-.07.12-.14 0-.09-.17-.12-.26-.2-.19-.18-.21-.37-.15-.55.28-.8.63-1.52.96-2.26.03-.08.11-.16.2-.16h3.1c.07 0 .08.04.1.08l.71 1.76c.09.33.25.67.15 1.05-.07.25-.41.15-.41.34 0 .05.06.09.14.08.82-.02 1.54-.1 2.33-.02.07.01.1-.05.1-.1.02-.05-.05-.09-.15-.11zm-3.65-3.8h-2.13c-.05-.01-.05-.07-.02-.1.43-.97.89-1.92 1.31-2.9.02-.03.09-.1.11-.05.17.43 1.04 2.62 1.11 2.8.09.24-.01.25-.38.25z" class="st0"/><path id="path10" d="M314.577 186.26c.2.05.18.18.18.34 0 .41.01.71.02 1.19 0 .09.02.23-.08.23-.21 0-.22-.47-.37-.65-.21-.26-.76-.66-1.44-.66-.82 0-1.4.48-1.4 1.15 0 .83.16 1.09 1.23 1.59.67.32 2.2.76 2.74 1.59.27.42.34.87.34 1.38-.02.64-.25 1.26-.66 1.77-.91 1.15-3.19.97-4.36.84-.16-.02-.36.08-.38-.12.03-.58.02-1.11.02-1.69 0-.16.09-.21.15-.16.07.09.08.2.13.3.41.77 1.04 1.06 2.24 1.06.76 0 1.55-.42 1.83-1.22.17-.49.06-1.06-.29-1.41-.67-.8-1.67-1.09-2.58-1.45-.53-.21-1.42-.79-1.42-2.24 0-.63.39-1.29.82-1.58.88-.59 2.35-.47 3.28-.26z"/><path id="path12" d="M328.677 186.27c.07-.01.09.12 0 .19-.19.13-.4.13-.5.38-.17.51-.09 1.1-.12 1.63l-.01 3.27c.02 1.27-.16 1.83.59 2.41.29.22 1.73.16 2.1.12.8-.08 1.08-.5 1.25-.8.04-.07.07-.17.15-.17.12 0 .11.09.1.21-.05.41-.11.95-.15 1.26-.02.09-.12.19-.21.19-1.64.07-4.14-.05-5.44.02-.06 0-.16-.02-.16-.1 0-.09.08-.15.17-.19.18-.1.33-.09.46-.33.12-.22.15-.46.16-.72.06-2.69.03-5.86-.07-6.74-.03-.26-.35-.33-.57-.43-.09-.04-.04-.2.07-.19.28.02 1.66.06 2.18-.01z"/><path id="path14" d="m290.017 208.66.01-5.37c-.01-.24-.04-.33-.1-.5-.1-.29-.24-.5-.53-.65-.11-.06-.09-.22-.02-.21.66.05 1.23.02 1.83 0 .07 0 .13.02.13.07 0 .16-.18.17-.29.28-.17.18-.3.33-.32.6-.08 1.13-.01 6.32-.01 6.32.01.51 0 .89.02 1.42.01.15-.11.22-.16.17-.32-.33-.71-.65-1.09-1.09-1.43-1.32-4.54-4.42-6-5.73-.03-.03-.1.01-.1.05 0 0-.03 5.03.11 5.88.03.18.34.49.55.57.03.01.08.03.08.09 0 .05-.02.08-.11.07-.71-.07-1.41-.12-2.08-.02-.07.01-.09-.05-.09-.1 0-.19.44-.12.64-.57.16-.36.12-7.6.12-7.6v-.8c0-.07.09-.08.13-.04.02 0 6.62 6.59 7.28 7.16z"/><path id="path16" d="M339.747 201.9c.04 0 .08.03.09.07v1.43c0 .3-.2.24-.27.03-.08-.23-.16-.44-.23-.52-.24-.29-.54-.46-.89-.49h-1.63c-.21 0-.3.09-.3.27-.04 2.6-.12 6.46.05 7.03.16.53.46.56.65.64.12.05.18.2-.06.2h-2.48c-.2 0-.18-.18-.04-.22.23-.06.41-.12.52-.31.1-.18.16-.31.17-.61.01-.4.03-4.82.02-6.32 0-.49-.07-.62-.17-.65-.3-.09-1.63-.1-2.27.1-.37.13-.58.49-.58.86 0 .07-.05.13-.13.13-.06 0-.09-.02-.09-.11l.02-1.44c0-.07.07-.13.26-.13z"/><path id="path18" d="M311.177 202.08c0 .39-.01.63.01.99 0 .03-.03.07-.07.07-.11 0-.23-.36-.47-.49-.65-.35-1.42-.23-2.24-.23 0 0-.46.02-.47.11 0 .03-.04 1.99-.04 3.01 0 .03.03.06.09.06l2.62-.01c.22-.01.27-.23.3-.29.05-.12.21-.14.2-.01-.04.5-.06.97-.06 1.45 0 .04-.07.06-.12-.02-.19-.31-.47-.49-.86-.49-.75 0-1.41-.04-2.15.04-.05.01-.05.05-.05.11 0 .92-.04 1.65-.02 2.57.01.32.09.62.34.83.5.33 1.18.23 1.74.21.46-.02.99.04 1.26-.36.16-.23.07-.35.28-.61.03-.04.13-.03.13.04-.03.62-.02.78-.04 1.47 0 .1-.1.08-.1.08s-5.07.02-5.28 0c-.08-.01-.13-.15-.01-.19.28-.09.61-.11.61-.69l.02-2.65c.03-1.41.14-2.89-.04-4.32-.03-.23-.1-.48-.37-.56-.08-.03-.25-.01-.25-.13 0-.12.05-.17.22-.16 1.51.02 3.04-.01 4.55-.02.15-.01.27.03.27.19z"/><path id="path20" d="M304.807 201.9c.13 0 .16.11.07.16-.17.11-.48.18-.59.45-1.13 2.78-2.3 5.46-3.46 8.23-.01.04-.09.08-.13-.02 0 0-2.2-4.82-3.89-8.25-.14-.28-.44-.25-.66-.37-.04-.02-.05-.07-.05-.11 0-.02.01-.08.11-.08.54.01 1.59.02 2.21-.02.05 0 .12.04.11.12-.03.22-.48.23-.29.67.51 1.2 1.31 3.15 2.67 5.82.05.09.13-.15.18-.26.74-1.68 1.38-3.43 2.08-5.13.06-.15.24-.73-.14-.93-.08-.04-.23-.08-.23-.16 0-.05.01-.12.1-.12z"/><path id="path22" d="M295.247 201.92c.1 0 .15.21 0 .23-.41.05-.56.26-.57 1-.02.9-.02 6.04-.02 6.04 0 .42.13.84.21.95.22.27.52.24.52.37 0 .05-.01.13-.08.12-.77-.1-1.56.05-2.31.03-.06 0-.08-.07-.08-.11 0-.19.29-.08.43-.22a.76.76 0 0 0 .2-.48c.06-3.42.07-4.64.02-7.07-.01-.49-.6-.58-.77-.67-.05-.02-.03-.21.09-.2.79 0 1.56-.01 2.36.01z"/><path id="path24" d="M293.807 186.25c.1 0 .11.05.11.09 0 .05-.05.09-.1.1-.51.16-.62.69-.64 1.15 0 1.38 0 2.93.01 4.35-.05.77-.16 1.46-.64 2.03-.37.44-.96.85-1.91 1.01-.65.11-1.3.17-1.96.06-.95-.15-1.28-.34-1.88-.93-.55-.53-.65-1.16-.7-2.07v-4.81c-.03-.43-.08-.7-.53-.86-.02-.01-.03-.08-.02-.11.03-.07.24-.03.36-.03.67.01 1.28.01 1.96.01.03 0 .08.02.07.07 0 .09-.16.09-.25.14-.56.29-.43.85-.45 1.44v2.99c0 1.16-.16 2.74 1.15 3.28.46.19.99.17 1.41.17 1.87 0 2.49-1.21 2.52-1.98.05-1.3.04-4.79-.03-5.08-.09-.44-.48-.69-.76-.86-.05-.08-.02-.18.11-.17.43.03 1.84.04 2.17.01z"/><path style="clip-rule:evenodd;fill-rule:evenodd" id="path26" d="M299.737 186.28c-1.32-.15-2.75.02-4.09-.02-.11 0-.27 0-.27.1 0 .17.2.13.33.17.21.07.48.36.5.98.02.5.03 4.67.01 5.48-.01.55.07 1.6-.58 1.81-.07.02-.19.08-.19.13 0 .06.02.09.07.09.53 0 1.52-.07 2.36.01.08.01.1-.04.09-.11-.01-.09-.2-.11-.32-.17-.31-.17-.35-.67-.35-1.04 0-1.02-.05-1.83-.03-2.69 0-.18.09-.2.18-.19 3.35.29 3.81-1.29 3.79-2.49 0-1-.4-1.93-1.5-2.06zm-.68 3.88c-.31.01-1.1.02-1.53.01-.14 0-.17-.16-.17-.23-.05-1.01-.08-2.13-.01-2.99.01-.15.19-.12.3-.13.67-.04 1.17-.05 1.73.03.23.03.48.2.61.43.2.35.21.76.25 1.17.08.99-.6 1.7-1.18 1.71z" class="st0"/><path style="clip-rule:evenodd;fill-rule:evenodd" id="path28" d="M307.187 186.28c-1.32-.15-2.75.02-4.09-.02-.11 0-.27 0-.27.1 0 .17.2.13.33.17.21.07.48.36.5.98.02.5.03 4.67.01 5.48-.01.55.07 1.6-.58 1.81-.07.02-.19.08-.19.13 0 .06.02.09.07.09.53 0 1.52-.07 2.36.01.08.01.1-.04.09-.11-.01-.09-.2-.11-.32-.17-.31-.17-.35-.67-.35-1.04 0-1.02-.05-1.83-.03-2.69 0-.18.09-.2.18-.19 3.35.29 3.81-1.29 3.79-2.49 0-1-.4-1.93-1.5-2.06zm-.68 3.88c-.31.01-1.1.02-1.53.01-.14 0-.17-.16-.17-.23-.05-1.01-.08-2.13-.01-2.99.01-.15.19-.12.3-.13.67-.04 1.17-.05 1.73.03.23.03.48.2.61.43.2.35.21.76.25 1.17.08.99-.6 1.7-1.18 1.71z" class="st0"/><path id="path30" d="M280.877 201.98c.1 0 .11.05.11.09 0 .05-.05.09-.1.1-.51.16-.62.69-.64 1.15 0 1.38 0 2.93.01 4.35-.05.77-.16 1.46-.64 2.03-.37.44-.96.85-1.91 1.01-.65.11-1.3.17-1.96.06-.95-.15-1.28-.34-1.88-.93-.55-.53-.65-1.16-.7-2.07v-4.81c-.03-.43-.08-.7-.53-.86-.02-.01-.03-.08-.02-.11.03-.07.24-.03.36-.03.67.01 1.28.01 1.96.01.03 0 .08.02.07.07 0 .09-.16.09-.25.14-.56.29-.43.85-.45 1.44v2.99c0 1.16-.16 2.74 1.15 3.28.46.19.99.17 1.41.17 1.87 0 2.49-1.21 2.52-1.98.05-1.3.04-4.79-.03-5.08-.09-.44-.48-.69-.76-.86-.05-.08-.02-.18.11-.17.42.02 1.83.04 2.17.01z"/><path id="path32" d="M325.877 201.85c.2.05.18.18.18.34 0 .41.01.71.02 1.19 0 .09.02.23-.08.23-.21 0-.22-.47-.37-.65-.21-.26-.76-.66-1.44-.66-.82 0-1.4.48-1.4 1.15 0 .83.16 1.09 1.23 1.59.67.32 2.2.76 2.74 1.59.27.42.34.87.34 1.38-.02.64-.25 1.26-.66 1.77-.91 1.15-3.19.97-4.36.84-.16-.02-.36.08-.38-.12.03-.58.02-1.11.02-1.69 0-.16.09-.21.15-.16.07.09.08.2.13.3.41.77 1.04 1.06 2.24 1.06.76 0 1.55-.42 1.83-1.22.17-.49.06-1.06-.29-1.41-.67-.8-1.67-1.09-2.58-1.45-.53-.21-1.42-.79-1.42-2.24 0-.63.39-1.29.82-1.58.88-.6 2.36-.48 3.28-.26z"/><path id="path34" d="M330.687 201.88c.1 0 .15.21 0 .23-.41.05-.56.26-.57 1-.02.9-.02 6.04-.02 6.04 0 .42.13.84.21.95.22.27.52.24.52.37 0 .05-.01.13-.08.12-.77-.1-1.56.05-2.31.03-.06 0-.08-.07-.08-.11 0-.19.29-.08.43-.22a.76.76 0 0 0 .2-.48c.06-3.42.07-4.64.02-7.07-.01-.49-.6-.58-.77-.67-.05-.02-.03-.21.09-.2.78 0 1.56-.01 2.36.01z"/><path id="path36" d="M346.407 202.08c0 .39-.01.63.01.99 0 .03-.03.07-.07.07-.11 0-.23-.36-.47-.49-.65-.35-1.42-.23-2.24-.23 0 0-.46.02-.47.11 0 .03-.04 1.99-.04 3.01 0 .03.03.06.09.06l2.62-.01c.22-.01.27-.23.3-.29.05-.12.21-.14.2-.01-.04.5-.06.97-.06 1.45 0 .04-.07.06-.12-.02-.19-.31-.47-.49-.86-.49-.75 0-1.41-.04-2.15.04-.05.01-.05.05-.05.11 0 .92-.04 1.65-.02 2.57.01.32.09.62.34.83.5.33 1.18.23 1.74.21.46-.02.99.04 1.26-.36.16-.23.07-.35.28-.61.03-.04.13-.03.13.04-.03.62-.02.78-.04 1.47 0 .1-.1.08-.1.08s-5.07.02-5.28 0c-.08-.01-.13-.15-.01-.19.28-.09.61-.11.61-.69l.02-2.65c.03-1.41.14-2.89-.04-4.32-.03-.23-.1-.48-.37-.56-.08-.03-.25-.01-.25-.13 0-.12.05-.17.22-.16 1.51.02 3.04-.01 4.55-.02.14-.01.27.03.27.19z"/><path id="path38" d="M355.547 201.88c.04 0 .08.03.09.07v1.43c0 .3-.2.24-.27.03-.08-.23-.16-.44-.23-.52-.24-.29-.54-.46-.89-.49h-1.63c-.21 0-.3.09-.3.27-.04 2.6-.12 6.46.05 7.03.16.53.46.56.65.64.12.05.18.2-.06.2h-2.48c-.2 0-.18-.18-.04-.22.23-.06.41-.12.52-.31.1-.18.16-.31.17-.61.01-.4.03-4.82.02-6.32 0-.49-.07-.62-.17-.65-.3-.09-1.63-.1-2.27.1-.37.13-.58.49-.58.86 0 .07-.05.13-.13.13-.06 0-.09-.02-.09-.11l.02-1.44c0-.07.07-.13.26-.13z"/></g><g id="g260" transform="translate(-1349.916 -1104.866) scale(6.70312)"><path id="path40" d="M221.29 216.15c-.36-.27-.75-.51-1.15-.7-.44-.06-.91 0-1.15.39-.26.29-.2.74-.08 1.06.1.2-.47.34-.52.51-.23.29 0 .77.2.93.22.18.42.31.63.46.33.27.72.4 1.1.56.05.01.16.04.2-.03.13-.17.01-.13-.11-.3-.17-.29.18-.76.29-.99.21-.43.33-.86.77-1.1.19-.08.5.07.59-.16-.16-.31-.53-.38-.77-.63zm-1.66 2.27c-.23.11-.42-.21-.59-.31-.01-.12.02-.29.07-.4.08-.07.29-.29.4-.24.09.12.28.26.42.33.03.16-.23.48-.3.62zm.72-1.43c-.05.08-.15.34-.26.37-.17-.06-.34-.21-.48-.36-.3-.32.03-.6.08-.8.26-.18.78-.17 1.01.01.17.28-.29.56-.35.78z" class="st1" style="clip-rule:evenodd;fill:#bd2b30;fill-rule:evenodd"/><path id="path42" d="M227.97 202.34c-.2.08-.02.39-.36.42-.27.02-.65-.22-.8-.49.12-.15.48-.21.47-.67-.01-.41-.11-.66-.6-.82-.34-.11-.75-.04-1.13-.06-.14.02-.37-.03-.46.1-.05.11.13.11.19.21.08.5 0 1.34-.04 1.83 0 .15-.32.22-.18.37.11.18.45.03.63.06.09.02.17.05.25 0 .16-.11.01-.27.03-.43.01-.14-.16-.53.37-.2.3.19.53.49.88.57.21.04.6.11.75-.11.13-.21.23-.4.18-.67-.05-.06-.08-.16-.18-.11zm-1.47-.42c-.08.17-.28.19-.45.17-.15-.07-.02-.53-.08-.64-.04-.09-.01-.24.04-.32.16-.06.41-.07.5.13.05.14.05.53-.01.66z" class="st1" style="clip-rule:evenodd;fill:#bd2b30;fill-rule:evenodd"/><path id="path44" d="M226.44 188.83c-.11-.13-.76.08-.89.14-.32.23-.14.64-.08.94l-.03.94c-.05.31-.14.61-.25.89.15.15.39 0 .57-.06.11-.09.29-.08.33-.23-.01-.08-.11-.06-.16-.09-.04-.06-.09-.11-.07-.19.01-.2.18-.31.32-.43.15-.06.72-.37.89-.25.09.07.14.15.14.26.05.15-.37.36-.05.45.32.09.77-.33 1.08-.45l.02-.06c-.27-.25-.22-.06-.43-.37-.02-.01-1.08-1.31-1.39-1.49zm.2 1.36c-.1.05-.65.34-.75.26-.09-.23-.15-.81-.01-1.06.3-.14.6.42.76.56.04.07.04.18 0 .24z" class="st1" style="clip-rule:evenodd;fill:#bd2b30;fill-rule:evenodd"/><path id="path46" d="M223.53 191.92a.332.332 0 0 0-.34.11c-.06.11-.05.25-.04.37-.04.14-.12.28-.27.32-.14 0-.43-.02-.43-.02.11-.32.12-.81-.15-1.07-.2-.21-.38-.36-.67-.3-.33-.01-.65.11-.81.42-.26.25-.62.44-.87.68-.05.08.02.16.07.2.25-.05.43.11.61.24.23.29.51.71.76 1 .21.19-.07.46.14.65.05.05.15.06.21.03l.72-.73c.05-.13-.04-.3-.2-.23-.09-.01-.2-.05-.23-.17.35-.2.84-.08 1.22-.23.23-.11.48-.33.54-.59.03-.25-.01-.54-.26-.68zm-1.87 1.07c-.23 0-.51-.6-.72-.69.01-.09.21-.29.29-.32.35-.26.66.25.69.52.03.16-.17.4-.26.49z" class="st1" style="clip-rule:evenodd;fill:#bd2b30;fill-rule:evenodd"/><path id="path48" d="M228.6 219.73c-.1.31-.22.61-.43.88-.23.29-.56.42-.88.51-.48.14-.64-.21-1.02.19-.04.09.01.17.08.23.4.19.53.13 1 .14.3.05.65.04.97.04.29-.14.61-.16.88-.3.29-.11.73-.5 1.06-.46l.91.46c.88.24 1.27.18 1.94.15.27-.03.47-.27.61-.49.01-.11.06-.26-.04-.35-.12-.14-.27.01-.42-.02-.48-.11-1.01-.14-1.34-.6-.1-.12-.19-.24-.28-.37h-.6c.2.37.46.71.7 1.02.05.07.2.11.14.21-.18.06-.55-.24-.7-.34-.43-.22-.83-.8-1.5-.44-.15.08-.24.14-.39.24-.08.05-.45.38-.55.34l.32-.56c.04-.16.1-.32.16-.47z" class="st1" style="clip-rule:evenodd;fill:#bd2b30;fill-rule:evenodd"/><path id="path50" d="M226.65 217.73c.01 0 .02.01.03.01.47.06 1 .03 1.45.14.22.2.55.22.68.53.06.15.08.34.03.5-.09.27-.15.55-.24.83h.61c.09-.24.19-.48.22-.75.04-.27.12-.58-.06-.84-.07-.13-.18-.27-.32-.4zm4.33 0c-.17.31-.29.64-.29.92.04.39.18.75.36 1.09h.6c-.27-.43-.43-.94-.24-1.44.16-.27.49-.27.79-.29.39-.11.79-.18 1.19-.27z" class="st1" style="clip-rule:evenodd;fill:#bd2b30;fill-rule:evenodd"/><path id="path52" d="m218.65 213.73.02.02c.48.63 1.16.96 1.71 1.5.8.53 1.65.96 2.49 1.37.49.24 1.01.39 1.54.55.68.34 1.52.33 2.24.56h2.41c-.33-.33-.76-.65-.94-.83.01-.1.07-.1.16-.14.38 0 1.31.58 1.6.27.09-.08.16-.27.3-.24.2.35.63.23.95.19.14-.01.42-.17.56-.21.02.03.05.08.03.11-.27.17-.54.49-.74.84h2.4c.65-.13 1.29-.28 1.86-.58.79-.21 1.52-.58 2.26-.91.64-.38 1.28-.75 1.9-1.18.52-.37.98-.85 1.43-1.33h-.81c-.62.63-1.38.98-2.07 1.45-1 .57-2.03 1.1-3.12 1.48-.63.33-1.36.41-2.03.66-.17.02-.36.03-.45-.12-.03-.08-.07-.18-.01-.26.2-.17.54-.14.66-.45.02-.2-.15-.25-.31-.34-.3-.11-.6.07-.91.1-.35.11-.65.28-1.07.15-.13-.09-.25-.18-.35-.3l.01-.06c.32.06.63-.05.96-.05.58.04 1.09-.18 1.68-.14.95-.05 1.82-.3 2.61-.75.82-.36 1.62-.79 2.36-1.36l.01-.01h-1.05c-.58.35-1.16.68-1.75.99l-1.26.43-.36.08-3.1.31c-.39.08-.76-.04-1.14-.05-.52-.09-1.06-.12-1.58-.23-1.78-.25-3.51-.62-5.01-1.54h-1.06c.69.51 1.41.97 2.22 1.18.83.31 1.71.48 2.58.7 1.12.25 2.33.29 3.5.4l.03.04c-.36.14-.37.82-.86.57-.51-.17-.87-.37-1.37-.57-.23.01-.66-.13-.78.12-.06.14-.12.31-.07.48.04.07.13.11.21.08.08-.13.27-.04.39-.01.05.03.06.12.03.17-.39.26-.86.02-1.29.03-.57-.18-1.2-.23-1.73-.51-.35-.11-.69-.28-1.05-.36-.78-.42-1.58-.77-2.32-1.26-.5-.31-1.01-.67-1.47-1.08z" class="st1" style="clip-rule:evenodd;fill:#bd2b30;fill-rule:evenodd"/><path id="path54" d="M214.34 205.73c.2.71.44 1.41.7 2.1.34.54.45 1.19.77 1.74.89 1.42 1.76 2.83 2.84 4.16h1.08c-.52-.46-.99-.99-1.35-1.57-.93-1.15-1.64-2.38-2.23-3.66-.14-.45-.43-.85-.58-1.29-.21-.48-.37-.98-.52-1.48zm2 0 .23.85c.2.64.51 1.24.71 1.88.34.98 1.11 1.79 1.71 2.66.48.72 1.2 1.32 1.83 1.96.29.21.58.43.87.64h1.06c-.2-.12-.4-.26-.59-.4-.83-.57-1.66-1.27-2.31-2.06-.5-.52-.91-1.1-1.32-1.68-.42-.43-.57-.99-.85-1.48-.27-.77-.52-1.55-.63-2.38zm3.6 0c.24.44.51.86.74 1.31.4.74 1.11 1.37 1.64 2.03.41.41.87.76 1.27 1.15 1.22 1 2.67 1.42 4.1 1.91.79.23 1.62.32 2.47.38.79.02 1.51-.12 2.24-.25.3.04.52-.13.79-.19.61-.06 1.09-.44 1.67-.62.63-.3 1.24-.69 1.87-.99.76-.54 1.3-1.36 1.99-2.01.3-.57.86-1.03 1.09-1.64.15-.38.39-.72.58-1.09h-.67c-.16.33-.4.62-.63.92-.27.06-.46-.23-.64-.41-.15-.17-.29-.34-.43-.51h-.85c.33.33.66.66 1.01.97.19.28.54.6.28.97-.26.6-.88 1.02-1.36 1.5-.09.08-.22.11-.35.08-.42-.7-.73-1.44-1.1-2.16-.2-.3-.29-.66-.46-.97-.06-.14-.15-.26-.23-.39h-.66c.09.19.19.39.29.58.33.53.51 1.12.79 1.67.33.51.6 1.06.97 1.56.03.07.04.14 0 .2-.38.36-.85.55-1.31.75-.37.11-.73.27-1.14.26-.11-.03-.21-.11-.22-.24-.24-1.25-.26-2.61-.48-3.88-.04-.29-.05-.6-.08-.91h-1.51l.17.11c.32.28.79.52.77 1 .15.55.23 1.33-.14 1.81-.22.57-.64 1.22-1.25 1.46-.54.33-1.7.36-2.2-.01-.81-.48-1.21-2.34-.8-3.14.17-.41.65-.93 1.16-1.24h-1.41c-.73.68-1.09 1.56-1.15 2.53l-.14.95c-.29.33-.33.79-.64 1.1-.45.06-.77-.26-1.13-.48-.23-.22-.2-.6-.09-.88.23-.63.76-1.15.97-1.79.29-.46.45-.97.73-1.43h-.57c-.25.55-.5 1.1-.8 1.62-.24.31-.31.7-.54 1.01-.2.21-.21.63-.58.66-.57-.17-1.05-.65-1.44-1.12-.11-.51.25-.91.48-1.32.24-.28.45-.56.67-.85h-.75c-.16.18-.33.36-.51.51-.23.11-.36.44-.66.34-.23-.24-.42-.54-.57-.85zm23.32 0c-.01.07-.03.14-.04.2-.18.48-.32.97-.53 1.43-.26.49-.39 1.03-.73 1.5-.39.57-.73 1.17-1.22 1.69l-.61.69c-.57.38-1.03 1-1.61 1.39-.33.23-.61.54-.97.73-.2.12-.41.25-.61.37h1.05c.44-.27.84-.65 1.27-.95.88-1.01 2.06-1.86 2.73-2.98.74-.94 1.23-1.99 1.66-3.07.17-.32.29-.65.39-1zm1.84 0-.18.54c-.39.98-.77 1.96-1.35 2.87-.49 1-1.17 1.91-1.81 2.84-.43.56-1.03.98-1.5 1.48l-.24.27h.81c.31-.33.62-.65.95-.95.3-.39.61-.79.95-1.17.5-.68 1-1.38 1.35-2.13.25-.43.5-.86.7-1.31.45-.75.69-1.58.92-2.43zm-17.79 4.08c.26.57.87.75 1.37.99.42.07.79.27 1.22.33.11.04.09.15.1.24-.12.34-.57.14-.86.18-.48-.15-1-.19-1.46-.41-.41-.08-.8-.22-1.14-.48-.08-.04-.03-.14-.02-.2.1-.29.2-.57.36-.84.03-.1.11-.2.11-.2zm5.7-.52c.06.56.16 1.1.21 1.66 0 .14-.14.23-.25.29-.31.17-.67.21-1.04.26-.36.02-.77.15-1.11-.01-.12-.15-.07-.36.03-.51.38-.35.9-.33 1.25-.74.38-.27.49-.68.72-1.03.08-.11.19 0 .19.08z" class="st1" style="clip-rule:evenodd;fill:#bd2b30;fill-rule:evenodd"/><path id="path56" d="M213.91 203.73c.1.68.25 1.35.43 2h.71c-.19-.66-.35-1.34-.53-2zm1.96 0c.02.09.02.18.01.24-.07.26.28.96.31 1.21l.15.55h.69c-.01-.06-.02-.12-.02-.18-.08-.37-.2-.72-.23-1.1.08-.36.48-.18.74-.21.24 0 .44-.12.68-.12.41.05 1.02-.17 1.2.34.11.45.31.87.54 1.28h1.22c-.12-.27-.2-.56-.23-.84.03-.17.04-.39.23-.44.46-.2 1.13.09 1.64.01l.41.02c.17.02.35.05.46.16-.01.24-.23.4-.34.6-.15.16-.29.32-.43.48h.75c.23-.3.46-.61.73-.89.48-.47 1.24-.57 1.87-.36.06.05.08.13.08.2-.04.26-.24.46-.32.72l-.15.33h.57c.04-.06.08-.12.12-.17.23-.41.42-.87.85-1.15.47-.21 1.04-.07 1.35.34.14.07.2-.1.32-.11.23-.08.47-.11.69.02.09.11.2.19.36.17.27-.01.47-.2.72-.28.38-.05.86-.11 1.21.08.18.21.17.5.23.76.02.08.02.17-.04.23-.2.09-.15-.12-.48-.23l-.75-.32c-.39-.17-.85-.03-1.27-.05-.57.15-1.24.2-1.72.59-.05.04-.1.09-.15.13h1.41c.25-.15.5-.25.73-.26.52-.03 1.03.05 1.49.21l.07.05h1.51c-.01-.15-.03-.3-.05-.44a1 1 0 0 1 .02-.57c.19-.2.54-.12.7.08.21.3.36.62.52.94h.66c-.15-.23-.3-.47-.31-.76.01-.11.11-.2.2-.25.38-.05.79-.02 1.17.01l.28.13c.3.29.59.59.87.88h.85c-.21-.25-.43-.49-.7-.7-.11-.14-.29-.27-.27-.46l.11-.08c.79-.04 1.59-.25 2.37-.04l.28.11.06.11c.08.4 0 .74-.16 1.06h.67c.08-.16.15-.32.2-.48.17-.35.24-.74.47-1.07.48-.17 1.06-.12 1.59-.17l.94.02c.14.13.02.34-.01.5-.1.4-.22.79-.31 1.2h.78c.15-.49.26-.99.45-1.47.08-.06.14-.3.18-.53zm29.69 0c-.01.03-.01.05-.01.07-.06.68-.25 1.31-.45 1.93h.6l.09-.33c.13-.55.22-1.11.31-1.67z" class="st1" style="clip-rule:evenodd;fill:#bd2b30;fill-rule:evenodd"/><path id="path58" d="M213.65 201.73c.02.65.02 1.31.24 1.86.01.05.01.09.02.14h.6c-.03-.09-.05-.18-.08-.27-.04-.16-.11-.39.05-.51.21-.13.39.37.62.17.14-.2.5-.47.56-.21.07.29.18.6.22.83h28.8c.03-.19.05-.37.05-.44.01-.09 0-.19.06-.26.14-.07.28.1.44.12.16.02.33-.1.45-.05.09.13-.07.44-.12.63h.53l.15-.87c.11-.36.11-.74.13-1.13h-.75c.03.02.05.03.07.06l.05.21c.06.14-.02.28-.1.39-.13.11-.27.21-.44.17-.18-.02-.31-.19-.4-.33-.03-.08.07-.42.12-.49h-.96c.03.47.17.89.11 1.37-.05.13-.2.18-.32.22-.26.08-.51-.02-.79.01-.82.03-1.65.15-2.47.08-.38.04-.82.01-1.19.07-.37.12-.82.04-1.21.11-.37-.06-.73.03-1.11-.01-.59-.08-1.25-.06-1.84.01-.99-.07-2-.01-3.01-.04-.57-.08-1.2.02-1.8.02-.92-.07-1.84.06-2.73 0-1.48-.04-3.01 0-4.49-.02-.64.02-1.2-.2-1.86-.11-1.01-.08-2.09-.04-3.03-.29-.39.04-.83.01-1.22.02-.11-.01-.14-.13-.16-.21-.07-.41-.25-.8-.33-1.21h-1.03c.04.09.06.17.03.18l-.25.34c-.11.11-.37.09-.55.06-.12.01-.17-.14-.23-.22-.03-.05-.07-.22-.09-.37z" class="st1" style="clip-rule:evenodd;fill:#bd2b30;fill-rule:evenodd"/><path id="path60" d="M213.72 199.73c-.09.42-.1.88-.12 1.32.03.22.04.45.05.68h.73c-.01-.09-.02-.17-.01-.21.04-.06.13-.24.2-.25.15-.02.44-.02.56.04.11.03.26.25.34.42h1.03c-.06-.3-.07-.61.04-.93.06-.12.18-.25.31-.28 1.01.01 2.05-.05 3.07-.02.21-.09.45.02.67-.03.75-.11 1.48.05 2.24.02.7-.13 1.33.19 2.03.16.61-.2 1.38-.09 2.03-.07.38 0 .76-.12 1.13-.01.4.05.83.02 1.21-.06.76.04 1.5-.05 2.25-.07.21-.04.4.05.61.01.6-.06 1.16 0 1.75-.08.97.07 2 0 2.96.09.29-.06.63-.01.92-.01 1.4-.11 2.89-.11 4.31-.11.44-.07.93-.02 1.38-.08.13.02.26.05.35.14.18.3.16.7.19 1.06 0 .09 0 .17.01.25h.96c.19-.15.5-.13.69 0h.75c0-.13.01-.25.02-.38-.02-.55-.06-1.09-.12-1.62h-.58c.09.68.15 1.46.15 1.46s-.23-.18-.38-.16c-.16.02-.54.23-.56.2.01-.38-.02-.79-.1-1.17-.04-.1-.06-.21-.07-.32h-1.5c-.04.01-.07.03-.1.05-.36.03-.73.02-1.07.08-.37-.08-.73.05-1.1 0l-.05-.04c0-.03 0-.06-.01-.09h-.53c0 .03-.01.06-.02.09-.11.17-.34.13-.51.11-.12-.01-.21-.08-.33-.11l-.5-.04a.37.37 0 0 1-.11-.05h-.74c.09.06.19.12.27.2.05.1-.08.08-.12.11-.35-.05-.72-.06-1.09-.07-.21-.08-.42-.19-.66-.19-.03-.02-.06-.03-.1-.05h-.66c.09.06.19.12.29.17-.03.06-.13.04-.19.06-.3-.03-.63-.01-.91-.1-.1-.04-.19-.08-.29-.13h-1.14c0 .02 0 .04-.01.05-.12.08-.26.11-.41.12-.13 0-.27.02-.36-.08-.02-.03-.05-.06-.07-.09h-.66c-.03.08-.09.17-.2.17-.14-.02-.29-.05-.39-.17h-.53c0 .04 0 .08-.01.12-.04.11-.16.1-.25.12-.13 0-.19-.13-.24-.24h-.44c0 .14-.04.28-.16.36-.11 0-.27.03-.33-.1a.286.286 0 0 1-.07-.26h-.46c-.04.15-.12.29-.29.36-.22.02-.42-.01-.61-.07-.05-.04-.04-.12-.01-.17l.09-.12h-.58c-.03.04-.05.08-.07.11-.16.25-.48.08-.71.14-.08 0-.05-.11-.04-.16.01-.03.03-.06.04-.09h-.59c-.05.06-.1.11-.15.17-.36.19-.86.15-1.28.11-.07-.04-.1-.12-.06-.19.04-.03.09-.06.13-.09h-1.33c-.42.13-.92.13-1.33 0h-3.04c-.09.04-.23-.02-.32.02-.37.08-.78.02-1.16.02-.17 0-.34-.02-.51-.04h-1.41c-.07.35-.13.7-.2 1.04-.13.08-.24-.07-.37-.11-.12-.13-.26-.3-.46-.21-.13.03-.26.06-.35.17-.05.02-.1-.02-.11-.07.01-.28.04-.55.08-.83z" class="st1" style="clip-rule:evenodd;fill:#bd2b30;fill-rule:evenodd"/><path id="path62" d="M214.07 197.73c-.06.24-.09.49-.08.75-.2.28-.17.65-.21 1-.02.08-.04.16-.06.25h.68c.07-.53.19-1.05.27-1.58.04-.14.07-.28.1-.42zm2.1 0c-.09.42-.18.84-.22 1.28-.05.24-.1.48-.14.72h1.41c-.18-.02-.36-.06-.53-.1-.11-.14-.2-.27-.16-.46-.02-.52.1-.98.24-1.43zm3.72 0c-.24.63-.37 1.3-.61 1.93-.02.03-.04.05-.07.07h3.04c-.01 0-.03-.01-.04-.01-.07-.05-.02-.14 0-.19.66-.53 1.47-.68 2.2-1.05.46-.11.83-.44 1.28-.59.13-.04.24-.1.35-.16h-.9c-.18.08-.35.16-.54.22-.67.26-1.34.53-1.98.85-.51.21-.98.6-1.58.51-.07-.05-.13-.12-.07-.2.53-.46 1.22-.56 1.83-.86.19-.08.7-.29 1.27-.53h-1.31c-.54.15-1.04.42-1.62.44-.08-.04-.2-.09-.22-.2-.01-.1.01-.18.05-.25zm7 0-.39.26c-.83.67-1.77 1.06-2.64 1.63-.09.04-.18.08-.28.11h1.33c.74-.5 1.4-1.2 2.14-1.71.13-.18.27-.22.35-.29zm.97 0-.03.03c-.17.22-.33.45-.46.69-.32.45-.74.86-1.12 1.28h.59c.15-.29.43-.49.67-.75.17-.26.37-.47.52-.75.11-.07.17-.19.16-.32 0-.09-.02-.07-.08-.14-.04-.01-.08-.03-.11-.04zm.92 0c.23.12.46.22.72.26.24-.01.5.03.72-.04.13.1.34-.05.42.12.03.24.16.44.24.66-.07.36.11.66.1 1h.53c-.01-.02-.02-.03-.03-.05-.11-.42-.25-.85-.27-1.31-.06-.14-.15-.28-.14-.43.11-.08.2.05.26.13.24.55.82.97.79 1.62 0 .01-.01.02-.01.04h.66c-.46-.6-.77-1.26-1.17-1.89-.02-.05.01-.09.05-.11zm3 0c.09.06.09.22.24.23.3.25.6.57.89.88.26.25.47.54.68.79.01.03.02.06.02.1h1.14c-.29-.15-.57-.34-.84-.54-.57-.44-1.01-1.05-1.59-1.46zm1.02 0c.48.19.84.63 1.29.88.44.31.97.43 1.37.85.13.09.25.19.38.28h.66c-.57-.29-1.08-.69-1.59-1.12-.52-.1-.91-.52-1.35-.83-.03-.01-.05-.03-.08-.04zm1.46 0c.07.04.14.07.22.08.39.13.79.23 1.13.48.26.09.45.33.71.44.45.3 1.04.22 1.43.66.13.16.29.24.45.34h.74c-.19-.11-.33-.32-.54-.42a.95.95 0 0 1-.45-.29c-.31-.05-.54-.27-.82-.39-.28-.17-.58-.28-.87-.42-.25-.23-.56-.33-.84-.49zm1.77 0c.04.02.08.03.12.04l.23.03c.17.22.48.12.69.23.38.13.79.17 1.1.42.49.09.93.3 1.41.4.26.19.56.36.79.57.04.08.04.19.03.29h.53c-.04-.49-.08-.97-.35-1.37-.08-.21-.15-.42-.23-.63h-.85c.19.15.21.39.24.61-.04.08-.11.14-.21.11-.74-.14-1.37-.52-2.09-.73zm7.27 0c.04.09.08.18.12.26.1.48.4.88.42 1.4-.03.3-.37.26-.6.34h1.5c-.02-.17-.02-.35-.1-.5-.13-.5-.26-1.01-.41-1.5zm2.03 0c.11.43.19.87.26 1.32.04.18.08.42.12.68h.58c-.06-.55-.15-1.09-.27-1.62-.03-.13-.06-.26-.09-.38zm-17.12 2c.28-.39.61-.77.81-1.2.11-.19-.09-.3-.12-.46-.06-.05-.14-.09-.22-.08-.17.2-.23.46-.35.69-.18.37-.47.7-.7 1.05zm1.28 0c.01-.1.06-.21.07-.3.12-.29.11-.63.2-.94.01-.09-.07-.17-.15-.2-.14-.02-.27.01-.33.14-.15.2-.03.48-.09.71-.09.17-.1.4-.16.59zm.99 0-.03-.06c-.1-.35.02-.72.08-1.06-.02-.13-.09-.27-.23-.31-.1-.01-.22.02-.26.11-.04.2-.12.46.03.63.02.17-.04.31-.05.46.02.07.03.14.03.22z" class="st1" style="clip-rule:evenodd;fill:#bd2b30;fill-rule:evenodd"/><path id="path64" d="M214.41 196.48c-.01.02-.01.04-.02.06-.08.41-.22.79-.32 1.2h.7c.06-.26.11-.52.16-.78l.18-.47h-.7zm2.06 0c-.05.15-.09.3-.14.45-.04.27-.1.54-.16.8h.6c.13-.41.28-.82.37-1.25zm4.07 0c-.18.27-.29.57-.47.83-.06.14-.12.27-.17.42h1.07c.03-.06.08-.11.12-.17.26-.07.47-.24.73-.32.8-.03 2.46-.53 3.35-.76h-2.04c-.42.08-.85.14-1.3.18-.12-.04-.26-.03-.38-.08l.03-.09zm5.91 0c-.17.05-.31.09-.37.09-.48.1-2.84.96-3.28 1.15-.02 0-.04.01-.06.01h1.31c.88-.37 1.91-.79 2.22-.9.09-.08.56-.24.72-.35zm1.12 0c.1.37.29.7.64.94.19.1.38.21.57.31h2.87c.02-.01.03-.01.05-.02.04 0 .06 0 .09.02h.53c-.02-.01-.03-.02-.05-.03-.08-.05-.15-.14-.15-.24.01-.05.05-.09.11-.11.2.01.3.26.47.34.04.01.07.02.11.04h.69c-.35-.19-.66-.47-1.03-.62-.07-.05-.14-.14-.08-.23.05-.14.13-.27.19-.4h-.42c-.09.23-.23.43-.44.61-.25.22-.59.2-.9.27-.73.17-1.41-.06-1.96-.48a.844.844 0 0 1-.43-.4zm6.64 0c.13.03.25.07.37.12.68.2 1.44.21 2.12.44.53.08 1 .29 1.53.38.4.11.81.2 1.22.28.02.01.03.02.05.03h.85c-.08-.22-.18-.44-.32-.64a2.4 2.4 0 0 0-.28-.61h-.67c.12.21.25.42.28.67-.02.07-.1.11-.17.11-.35-.05-.66-.2-1-.28-.49-.08-.92-.3-1.44-.3-.27-.03-.51-.12-.76-.19zm8.63 0c.15.42.29.84.46 1.25h.93c-.13-.43-.29-.85-.48-1.25zm2.13 0c.13.41.25.83.36 1.25h.58c-.12-.43-.27-.84-.44-1.25zm-18.93 1.25c.3-.17.56-.4.86-.54.16-.07-.01-.33-.14-.28-.57.21-1.08.56-1.62.82zm1.34 0c.04-.04.07-.08.06-.16-.1-.1-.22-.14-.26-.06-.09.08-.18.15-.29.22zm.61 0c-.05-.02-.09-.03-.13 0zm7.43 0c-.02-.01-.04-.03-.06-.04-.38-.08-.73-.2-1.07-.39-.31-.04-.57-.18-.88-.23-.1 0-.23-.02-.24.1.03.32.36.25.58.36.18.02.34.12.51.21zm2.03 0c-.01 0-.02-.01-.03-.01-.57-.2-1.15-.36-1.72-.54-.49-.12-1-.17-1.45-.4a.58.58 0 0 0-.39.02c-.06.03-.09.11-.04.17.26.23.66.16.94.35.42.15.85.27 1.27.42z" class="st1" style="clip-rule:evenodd;fill:#bd2b30;fill-rule:evenodd"/><path id="path66" d="M214.89 195.22c-.19.41-.35.82-.49 1.25h.7l.25-.65c.12-.2.22-.4.32-.6zm1.99 0c-.16.41-.28.83-.41 1.26h.67v-.01c.07-.44.26-.84.44-1.24zm4.59 0c-.08.09-.15.19-.23.28-.22.22-.45.45-.54.74-.07.07-.12.15-.17.23h.93c.07-.18.21-.26.36-.43.18-.21 4.21-.18 4.29-.51.14-.21-3.95.09-3.58-.3l.02-.02zm6.02 0c-.01.05-.01.11.01.17-.03.37-.03.74.06 1.08h.86c-.12-.2-.18-.44-.25-.66-.02-.21.02-.41.08-.6zm1.34 0a.4.4 0 0 0-.09.15c-.08.11-.09.37-.29.32-.17-.17-.06-.32.03-.48zm.62 0c-.06.05-.14.05-.22.03-.01-.01-.02-.02-.03-.02zm1.08 0c-.03.15-.12.29-.15.44-.05.04-.11.04-.17.04-.06-.15-.07-.32-.11-.48zm1.03 0c-.02.15-.07.3-.2.37-.18-.04-.03-.3-.24-.35-.17-.08-.17.23-.32.05a.218.218 0 0 1-.05-.08zm.34 0c.02.12.04.24.11.34.1.03.27-.01.28.15 0 .27-.04.53-.13.76h.42c.04-.09.08-.19.09-.29.12-.16.27.01.39.03.37.12.78.17 1.16.26h1.79c-.18-.05-.37-.1-.57-.11-.35-.11-.72-.2-1.13-.21-.55-.14-1.2-.11-1.58-.61-.03-.12.03-.23.14-.26.51-.02 1-.05 1.49-.06zm3.73 0 .55.03.58-.03h.19zm2.16 0c.18.01.34.04.5.1.05.06.17.13.15.23-.57.08-1.26.17-1.86.04-.38.02-.75-.01-1.15.02-.29.08-.64-.21-.84.11-.02.08.01.18.11.2.51.07 1.05.11 1.59.11.26-.06.55-.01.83-.01.66.01 1.45-.23 1.9.38.02.03.03.06.05.09h.67c-.13-.21-.27-.42-.39-.63-.19-.21-.39-.41-.57-.63zm4.54 0c.05.12.09.24.12.36.15.29.28.59.39.9h.91l-.06-.12c-.13-.4-.36-.77-.55-1.14zm2.12 0c.17.39.33.78.5 1.17l.03.09h.51c-.17-.42-.35-.83-.51-1.25zm-19.3 1.26c.08-.02.15-.04.22-.06.11-.17 1.58-.16 1.5-.5-.02-.1-2.85.34-3.13.42-.21.05-.42.09-.64.13zm1.85 0c.02-.01.03-.03.04-.04-.03-.12-.33-.04-.59.04z" class="st1" style="clip-rule:evenodd;fill:#bd2b30;fill-rule:evenodd"/><path id="path68" d="M215.72 193.73c-.31.48-.58.98-.82 1.5h.79c.25-.51.47-1.03.83-1.5zm2.07 0c-.11.15-.21.3-.31.45-.26.32-.45.67-.6 1.04h.7c.02-.05.05-.1.07-.15.25-.46.52-.91.83-1.34zm5.25 0c-.11.09-.21.18-.32.26-.42.39-.88.8-1.25 1.23h1.08c.31-.3.91-.18 1.36-.18l2.01.07c.35 0 .6.08.97 0 .07-.08.2.01.2-.14 0-.18-.47-.06-.7-.18-.57-.02-1.12-.14-1.68-.1-.48.04-.94-.09-1.41-.11-.05-.03-.15-.09-.08-.16.43-.44 2.43-.06 2.82-.07.05-.02.08-.09.1-.14-.01-.11-1.25-.27-1.67-.48zm2.93 0c.21.1.42.2.6.26l.31.13c.25.16.56.18.82.34.14.3-.16.49-.2.77h.76c.07-.23.19-.44.3-.65.21-.31.47-.64.8-.84h-1.06c-.16.18-.31.41-.57.31-.19-.1-.38-.22-.58-.32zm5.37 0c.09.05.18.12.27.18.2.11.37.29.54.45.07.05.04.16.03.23-.11.13-.41.14-.35.37.04.08.05.18.07.27h2.45c.42-.01.85-.02 1.28 0h1.32c.28-.01.56-.02.83 0h.99c-.18-.2-.34-.41-.49-.63-.32-.25-.56-.59-.85-.87h-.82c-.37.07-.74.16-1.1.27l-.77.05c-.33-.02-.67.01-.98.08-.41.02-.73.24-1.11.33-.23-.08-.1-.39-.26-.54a.25.25 0 0 1 .02-.19zm1.74 0-.15.06c-.05.02-.05.08-.03.13.07.08.17.07.27.08.2-.1.4-.19.6-.27zm8.48 0 .36.53c.12.33.28.64.41.96h.81l-.03-.06c-.16-.5-.4-.98-.67-1.44zm2.14 0c.1.21.2.42.3.64.18.28.32.56.45.86h.53c-.02-.06-.05-.13-.07-.19-.28-.4-.42-.87-.63-1.3zm-15.22 1.49c.03-.06.06-.12.07-.18.09-.04.31-.13.35.04 0 .06-.03.1-.07.14zm.73 0c-.12-.11-.12-.31-.3-.38-.08.01-.2.02-.26-.03-.05-.04-.04-.12-.01-.17.18-.12.42-.13.64-.11l.09.11c.15.14.18.35.12.54-.01.01-.02.03-.03.04zm.89 0-.03-.11c-.06-.16-.23-.32-.16-.5.02-.04.06-.08.11-.09.25-.02.39.24.48.42.04.1.04.19.02.28zm.66 0a.393.393 0 0 1 0-.24c.02-.15.16-.26.3-.3.14-.03.25.04.35.11.12.11.14.26.14.43zm4.55-.87c.35-.07.69-.15 1.03-.23.3.02.63-.15.88.04.2.13.45.26.42.53-.22.17-.54.2-.82.15-1.22-.04-2.39.07-3.6.09l-.54.04c-.08-.04-.09-.11-.07-.18.25.01.4-.19.63-.21.17-.08.39-.04.57-.09l.91-.11z" class="st1" style="clip-rule:evenodd;fill:#bd2b30;fill-rule:evenodd"/><path id="path70" d="M217.1 191.73c0 .01-.01.02-.01.02-.24.45-.63.82-.88 1.25-.17.24-.34.48-.49.72h.79c.04-.06.09-.11.13-.16.35-.62.88-1.13 1.26-1.73.03-.04.06-.07.09-.11zm2.22 0c-.56.63-1.06 1.32-1.53 2h.69c.2-.28.43-.55.67-.8.31-.36.52-.82.91-1.1.04-.03.09-.06.13-.09zm6.88 0c-.75.28-1.42.73-2.11 1.13-.36.24-.71.57-1.05.87h1.42c-.12-.06-.17-.13-.1-.2.37-.37 1.01-.08 1.61.2h1.17c-.14-.06-.28-.11-.44-.12-.39-.27-.85-.41-1.29-.56-.07-.02-.04-.1-.03-.14.12-.19.3-.01.45-.02.2.13.46.14.7.2.32.21.69.27 1.03.44.07 0 .12-.05.14-.11.02-.09-.05-.16-.12-.2-.19 0-.3-.17-.48-.19-.2-.18-.43-.3-.65-.45-.05-.05-.07-.15-.02-.2.08-.11.19-.21.33-.22.36-.1.48.34.76.43.41.22.53.68.88.95l-.01.08c-.04.03-.07.06-.1.1h1.06c.02-.02.05-.03.08-.04.48-.21 1.12-.21 1.64-.09.1.03.19.08.28.13h1.07a.47.47 0 0 1 .09-.12c.61-.6 1.36-1.36 2.27-.91l.12.12c.01.24-.31.17-.45.3-.46.17-.91.4-1.36.6h.7c.36-.15.73-.3 1.08-.49.62-.22 1.28 0 1.77.38 0 .03.03.07.01.1-.01 0-.02 0-.03.01h.82c-.11-.1-.23-.19-.36-.27-.44-.39-.94-.63-1.43-.92-.44-.25-.94-.33-1.36-.6-.17-.1-.35-.16-.54-.21h-2.18c0 .01 0 .01.01.02-.04.4-.2.74-.34 1.1-.05.03-.05.08-.11.07-.17-.43.14-.76.11-1.17 0-.01.01-.01.01-.02h-.49c.01.29-.06.55-.13.81-.11.14.04.38-.17.47-.24.08-.54.08-.8.01l-.08-.08c-.06-.37-.04-.76-.05-1.13-.01-.03-.02-.05-.03-.08zm3.76 0c.02.02.03.04.04.07.01.22-.15.57.11.69.1-.01.17-.08.2-.17l.02-.43.08-.16zm9.84 0c.6.51 1.05 1.16 1.63 1.75l.04.13.08.12h.87c-.04-.06-.08-.13-.12-.19-.23-.24-.35-.52-.52-.79-.31-.33-.53-.69-.82-1.01zm2.7 0c.29.39.55.79.81 1.19.12.27.26.54.39.81h.57l-.09-.18c-.17-.27-.16-.63-.4-.88-.08-.31-.35-.55-.54-.82-.05-.04-.1-.08-.15-.13zm-13.74.66c-.04-.17-.18-.39-.02-.56.04-.03.08-.05.12-.07.08.02.18 0 .22.09-.08.37-.02.78.08 1.12-.04.14-.21.19-.33.25-.26.05-.32-.28-.53-.37-.23-.23-.39-.52-.67-.71-.03-.05-.02-.13 0-.19.09-.11.22-.13.35-.1l.11.07c.2.29.32.65.63.85.07.03.17 0 .19-.08.04-.14-.12-.19-.15-.3zm3.47.41c.05.01.11.05.15.01.28-.29.46-.94 1-.78.07.05.16.08.19.17.02.16-.14.14-.23.2-.39.42-.85.72-1.25 1.13-.11.05-.19-.05-.27-.1-.33-.37-.02-.85.07-1.22.15-.17.2-.48.49-.45.13-.02.23.03.34.07l-.01.09c-.2.22-.39.45-.54.69-.04.06 0 .13.06.19z" class="st1" style="clip-rule:evenodd;fill:#bd2b30;fill-rule:evenodd"/><path id="path72" d="M218.91 189.73c-.05.06-.1.11-.15.17-.29.39-.62.71-.98 1.04-.18.28-.52.49-.68.79h.9c.51-.59 1.15-1.08 1.62-1.68.14-.09.28-.2.42-.32zm3.22 0c-.48.28-.96.58-1.47.79-.5.35-.94.76-1.34 1.21h.87c.57-.4 1.12-.87 1.74-1.15.33-.23.68-.44 1.02-.65.14-.07.28-.14.41-.2zm15.19 0 .17.11c.78.36 1.33 1.16 2.04 1.68l.27.21h1.17c-.05-.06-.11-.12-.16-.17-.35-.22-.58-.63-.97-.81-.46-.28-.86-.7-1.3-1.02zm3.21 0c.29.28.56.58.87.83.43.34.77.74 1.09 1.17h.59c-.26-.25-.41-.58-.71-.82-.32-.43-.7-.81-1.1-1.18zm-11.03 2a.17.17 0 0 1 0-.1c.05-.07.15-.06.22-.06.08.05.18.09.24.17h.44l.11-.22c.08-.04.22-.02.24.09 0 .04.01.08.01.13h.49c.03-.05.06-.12.13-.13.08-.01.15.06.18.13h2.18c-.25-.07-.51-.12-.74-.24-.62-.15-1.26-.26-1.92-.34l-1.87.01c-.64.06-1.25.18-1.86.33l-.72.1c-.15.04-.3.09-.44.14z" class="st1" style="clip-rule:evenodd;fill:#bd2b30;fill-rule:evenodd"/><path id="path74" d="M226.16 185.73c-.29.05-.59.09-.86.18-.45.09-.85.32-1.28.48-.79.42-1.65.63-2.39 1.19-.51.33-.97.79-1.49 1.13-.41.34-.87.63-1.24 1.03h1.13c.11-.1.23-.19.34-.29l1.44-1.13c.48-.33 1-.57 1.49-.89.39-.2.83-.28 1.23-.47.15-.04.35-.05.48.05.34.46.84.88 1.44.75.36-.11.73-.19 1.02-.48.09-.09.41-.37.54-.4.17-.02.42.17.57.21.49-.04.66.04 1.1-.15.26-.14.51-.21.73-.43.14 0 .4.24.52.3.36.23 1.14.24 1.57.34.02.01.02.03.02.05-.11.11-.77-.07-.9-.03-1.14-.2-2.3.05-3.39.26-.95.29-1.98.42-2.89.8-.7.24-1.35.62-2.02.95-.41.14-.8.35-1.18.57h1.24c.54-.26 1.09-.5 1.63-.74.31-.2.69-.26.99-.48 1.2-.5 2.58-.57 3.88-.82.31.05.54-.08.84-.07 1.03-.04 1.99.15 2.93.36.35.13.7.28 1.06.41.51.29 1.06.51 1.59.79.36.13.7.33 1.03.55h1.22c-.19-.14-.38-.26-.59-.34-.74-.39-1.5-.73-2.22-1.17-.44-.2-.89-.36-1.36-.49-.05-.04-.09-.11-.05-.16.17-.12.39-.14.57-.26.17-.2.41-.32.53-.55.65.27 1.27.6 1.9.94.79.31 1.56.71 2.25 1.25.36.2.66.48.96.78h.74c-.28-.26-.57-.51-.85-.76-.35-.17-.63-.51-.97-.7-.42-.14-.76-.45-1.15-.63-.57-.31-1.12-.65-1.73-.89-.18-.11-.39-.15-.57-.28-.43-.19-.82-.46-1.29-.57-.24-.08-.51.08-.72-.05l-.03-.12h-.52c.05.41.17.83.32 1.16.1.08.21.17.34.11.05-.02.11-.02.15-.09-.03-.22-.14-.41-.22-.61 0-.06.07-.08.11-.08.23-.02.38.17.6.19.03.02.02.25-.03.39-.01.14-.23.16-.3.26-.08.1-.17.13-.29.13-.44-.04-.73-.4-.97-.75l-.2-.71h-1.23c.1.16.19.27.25.34.17.2.49.61.15.52-.47-.14-.98-.54-1.27-.86h-.49c-.32.33-.87.73-1.23.86-.33.11.05-.39.22-.59.05-.06.13-.15.2-.27h-.88c-.02.01-.05.02-.07.03-.12.05-.24 0-.34-.03h-.19c-.04.02-.08.07-.11.15-.04.48-.46 1-.93 1.18-.26.04-.6.16-.85-.01a.723.723 0 0 1-.2-.67c.04-.28.34-.32.55-.37.1-.01.24-.03.29.08.08.34-.65.36-.26.69.33.02.58-.21.79-.45.11-.16.19-.37.23-.6z" class="st1" style="clip-rule:evenodd;fill:#bd2b30;fill-rule:evenodd"/><path id="path76" d="M227.57 185.73c.07-.38.03-.81-.15-1.15.12-.07.77.16.84.33 0 .22-.04.48.18.59.14.05.29-.14.35.05.01.1-.06.15-.13.18h.88c.17-.27.34-.72.33-1.49-.02-1.13-.76-1.39-1.08-1.41-.32-.02-.54-.03-.42-.16.12-.13.65-.15 1.03-.07.38.08 1.21.81 1.21.81s.83-.73 1.21-.81c.38-.08 1.1-.13 1.22 0 .12.13-.09.12-.4.14-.32.02-1.26.36-1.28 1.49-.01.73.17 1.2.35 1.49h1.23l-.02-.06c-.15-.14-.37-.04-.55-.1-.14-.05-.34-.07-.4-.25-.02-.11-.06-.28.07-.32l.11-.09c.01-.07.17-.07.26-.06.21-.02.26.32.49.26.27.02.33-.41.53-.51.43-.34.52-.23.79-.36l.02.03v.03c-.38.26-.78.48-.82.95-.01.16 0 .32.02.49h.52c-.03-.29.17-.55.22-.83.24-.41.77-.14 1.1-.38.11-.1.11-.27.09-.39-.23-.29-.5-.52-.88-.48-.57.09-1.05.39-1.5.77-.26.21-.49-.09-.74-.14-.22-.06-.36-.3-.38-.52 0-.24.26-.39.43-.53.36-.31.88-.17 1.29-.05.15-.02.27-.19.3-.33a.757.757 0 0 0-.11-.53c-.17-.1-.34-.18-.54-.21-.64-.05-1.37-.14-1.89.23-.26.13-.45.48-.78.45-.32-.25-.69-.32-1.02-.53l-.52-.22c-.53-.1-1.02.18-1.28.63-.07.25-.23.61 0 .85.08.11.21.14.34.11.19-.02.23-.23.34-.35.08-.08.19-.06.29-.05.18.05.37.21.44.39.08.25-.11.45-.27.61-.14.13-.38.11-.57.08-.63-.38-1.31-.96-2.12-.6-.34.17-.77.51-.77.91.17.29.45-.01.67 0 .37-.04.72.03.96.3.07.21-.03.43-.19.57-.22.11-.47.16-.72.21zm.68 0c-.07-.02-.13-.03-.19 0zm2.1 0c.15-.16.26-.29.26-.37.01.08.09.22.23.37zm-1.72-.83c.13-.19.36-.38.6-.31l.07.08c.02.14.03.37-.08.48-.14.11-.39.07-.57 0-.07-.06-.05-.18-.02-.25z" class="st1" style="clip-rule:evenodd;fill:#bd2b30;fill-rule:evenodd"/><path id="path78" d="M251.15 200.23c-.09-.49-.08-1.04-.14-1.53-.22-1.76-.59-3.45-1.25-5.02-.09-.38-.26-.71-.48-1.03-.11-.35-.33-.65-.51-.97l-.05-.12c-.85-1.13-1.35-2.39-2.38-3.43-1.08-1.1-2.15-2.36-3.43-3.2-.82-.73-1.71-1.3-2.61-1.83-.5-.23-.96-.52-1.44-.78-.49-.23-1-.41-1.52-.6-.85-.37-1.87-.37-2.74-.69-.59-.07-1.19-.08-1.77-.17-.92-.06-1.85-.1-2.75-.08-.69-.13-1.43-.07-2.06.13-.42.01-.81.13-1.22.15-.7-.02-1.27.28-1.93.35-.24.05-.42.23-.67.23-.52.24-1.1.33-1.66.48-.44.07-.8.36-1.23.48-.28.33-.73.28-1.02.58-1.17.51-2.18 1.41-3.35 1.94-.94.81-2.07 1.41-2.79 2.46-.37.35-.6.78-.94 1.14-.3.36-.41.78-.69 1.14-.2.55-.67.99-.85 1.54-.17.18-.16.44-.35.61-.17.43-.42.82-.6 1.24-.08.36-.31.63-.38.98-.23.45-.42.91-.51 1.43-.22.3-.26.67-.35 1.03-.2 1-.55 1.95-.61 3-.21.8-.03 1.62-.08 2.46-.15.26.05.51-.03.79.16.45.12.97.18 1.45l.07.11c.11.43.16.88.24 1.32.11.79.39 1.5.61 2.25.38.84.57 1.75.94 2.6.26.48.43 1 .76 1.46.43.88 1.05 1.7 1.54 2.57.66.79 1.4 1.57 2.16 2.28 1.02 1.05 2.16 1.81 3.34 2.5.98.69 2.07 1.07 3.12 1.59.65.23 1.28.48 1.94.69.58.08 1.04.45 1.65.48.45 0 .79.26 1.22.26 1.58.17 3.22.25 4.81.08.78-.08 1.58-.13 2.33-.26 1.41-.15 2.71-.54 3.97-1.04.66-.42 1.41-.67 2.13-.94 1.16-.61 2.35-1.16 3.39-2.05.59-.37 1.1-.88 1.68-1.32.59-.78 1.35-1.47 1.97-2.25.04-.18.16-.34.26-.51.52-.6.91-1.27 1.37-1.9.21-.46.6-.85.68-1.37.19-.39.95-2.5 1.19-3.13.2-.94.49-1.79.59-2.77.05-.92.26-1.8.21-2.75-.01-.7.08-1.38.04-2.06zm-.83 4.33c-.08.18-.01.38-.06.57-.11.55-.17 1.12-.39 1.62-.34 1.32-.76 2.61-1.3 3.85-.31.6-.65 1.18-1.03 1.74-.48.78-1.05 1.53-1.59 2.27-.19.29-.49.46-.72.72-.32.67-1.04 1.09-1.57 1.58-.61.71-1.4 1.03-2.08 1.59-.77.65-1.71.91-2.53 1.44-.41.25-.87.36-1.25.64-.34.09-.63.29-.97.36-.94.31-1.97.42-2.97.58-.56.16-1.11.35-1.74.35-.48.05-1 .09-1.47.11-.39.03-.78.16-1.16.04-.4-.14-.86-.05-1.29-.04-.87.03-1.74-.05-2.5-.32-.66-.15-1.26-.42-1.95-.51-.78-.35-1.63-.53-2.4-.91-1.02-.42-2.03-.87-2.92-1.61-.53-.44-1.16-.7-1.67-1.21-.69-.51-1.45-1.09-1.9-1.84-.33-.23-.54-.6-.74-.92-.08-.17-.29-.12-.33-.3-.37-.67-.84-1.3-1.22-1.96-.2-.14-.2-.39-.35-.57-.44-.78-.88-1.55-1.13-2.39-.26-.48-.36-1.02-.6-1.5-.13-.47-.25-.94-.3-1.44-.02-.22-.2-.37-.27-.57-.21-.92-.24-1.88-.38-2.83-.05-.41-.17-.83-.15-1.27-.06-.58-.05-1.18.07-1.74-.01-.84.36-1.55.46-2.36.22-.84.37-1.71.78-2.47-.01-.3.23-.51.25-.8.39-.78.58-1.64 1.04-2.39.27-.72.85-1.31 1.1-2.05.24-.56.7-1.01 1.03-1.53.35-.37.68-.81 1.11-1.07.25-.19.48-.42.68-.64.76-.46 1.39-1.2 2.17-1.63.36-.14.63-.53 1-.64.52-.36 1.08-.61 1.63-.89.82-.31 1.53-.88 2.4-1.03.65-.16 1.29-.31 1.96-.42.4-.12.85-.17 1.24-.31.6-.07 1.19-.17 1.79-.24.84-.15 1.73-.17 2.61-.2.63.05 1.25.04 1.86.12l1.11.19c.36-.08.69.05 1.03.08 1.08.11 2.08.42 3.03.87.54.3 1.12.52 1.68.8 1.16.41 2.18 1.18 3.17 2.02.4.42.85.79 1.28 1.14.87.85 1.7 1.69 2.51 2.56.29.41.59.81.84 1.23.45.63.94 1.28 1.25 1.99.69 1.21 1.07 2.55 1.42 3.89.67 1.74.66 3.72.7 5.67-.2.81-.24 1.7-.27 2.58z" class="st1" style="clip-rule:evenodd;fill:#bd2b30;fill-rule:evenodd"/><path id="path80" d="M234.35 200.75c.07.14-.06.13-.04.28.01.11.06.28-.08.33-.26.05-.18-.36-.45-.25l-.38.07c-.03.47-.01 1.1-.08 1.55.01.19.25.1.27.29 0 .1 0 .22-.11.23-.12.01-.2.05-.29-.01-.23.07-.54.11-.78-.01-.08-.06-.08-.17-.05-.25.1-.14.31-.1.32-.29-.01-.48.11-1.08 0-1.53-.08-.12-.32-.11-.4-.08-.19.04-.1.42-.28.38l-.1-.13-.04-.55.06-.05c.7 0 1.45.05 2.13-.04.1.02.23-.02.3.06z" class="st2" style="fill:#bd2b30"/><path id="path82" d="M240.95 200.85c0 .2.04.42-.03.6-.08.06-.2.01-.3.01-.06-.04.05-.22.01-.26-.08-.13-.2-.23-.35-.23-.08.01-.38.18-.4.26.01.54.89.43 1.12.85.21.38.11.67-.12.92-.3.29-.88.29-1.23.11-.21-.01-.43.23-.6.02l.2-.32c.13-.2.09-.3.27-.45l.07.01c.1.36.18.53.57.54.26.01.43-.04.47-.17.06-.08.02-.19 0-.27-.26-.36-1.06-.31-1.24-.73-.08-.29-.11-.68.15-.89.32-.21 1-.31 1.36-.11z" class="st2" style="fill:#bd2b30"/><path id="path84" d="M223.61 200.78c.1.17.06.43.04.63-.04.11-.17.1-.26.08-.17-.05-.07-.26-.24-.28-.14-.03-.32-.05-.42.06-.07.07-.09.31-.07.4.07.12.34.06.44.1.16.15.1.15.06.36-.04.2-.27 0-.45.04-.11.13-.07.58-.01.71.27.07.63-.04.76-.15.13-.11.16-.28.3-.32.08 0 .18.04.19.13-.09.21-.03.54-.25.68-.57.23-1.31-.01-1.95.05-.11-.04-.1-.14-.08-.23.46-.42.28-1.28.29-1.85-.01-.15-.26-.28-.18-.42l.08-.05c.4-.03.95.06 1.35 0 .14-.01.29 0 .4.06z" class="st2" style="fill:#bd2b30"/><path id="path86" d="M230.54 200.88c.01.08.01.17-.03.23-.11.04-.23.1-.32.21.05.45.01.93.01 1.36.08.11.28.08.31.25.06.14.03.26-.08.33-.21.1-.63-.02-.88-.01-.14.08-.33.03-.48-.03-.1-.08-.1-.15-.04-.27.08-.19.33-.08.4-.28.16-.38.03-1.02.09-1.44-.05-.17-.27-.03-.38-.17-.05-.06-.17-.3-.08-.3.45 0 .89-.07 1.36-.01.06.01.1.07.12.13z" class="st2" style="fill:#bd2b30"/><path id="path88" d="M219.18 200.82c.02.1-.05.1-.14.13-.06-.01-.11.04-.14.08.03.3.13.69.32.93.11.03.19-.09.23-.17l.6-.87c-.23-.12-.11-.26-.11-.26.25-.04.66-.06.85 0 .06.03.29-.06.23.12-.05.16-.24.12-.34.27-.46.65-.9 1.47-1.27 2.08-.12-.01-.28.03-.32-.1l-.01-.25-.78-1.68c-.06-.07-.17-.02-.24-.08-.1-.08-.08-.11-.06-.23.11-.14.31-.1.46-.15.26.03.61-.09.72.18z" class="st2" style="fill:#bd2b30"/><path id="path90" d="M237.95 202.75c-.35-.64-.75-1.25-1-1.93-.05-.09-.13-.2-.23-.2-.1.02-.35.06-.38.17-.11.75-.56 1.35-.93 1.99-.13.09-.23.22-.37.28-.05.05-.03.11.02.15.29-.02.77 0 1.08-.01.04-.02.1-.04.09-.1-.01-.07-.07-.09-.12-.13-.04-.04-.02-.09 0-.13.16-.38.43-.27.69-.24.17.06.46-.07.5.26.01.1-.14.02-.2.05-.08.04-.14.11-.11.21 0 .1.09.1.18.1.33-.05.62-.04 1.01-.05.15 0-.16-.3-.23-.42zm-1.01-.49c-.11.09-.52.08-.67.07-.19-.05.19-.51.13-.64.04-.12.02-.32.16-.35.13 0 .11.21.15.35.05.13.26.44.23.57z" class="st1" style="clip-rule:evenodd;fill:#bd2b30;fill-rule:evenodd"/><path id="path92" d="M238.19 190.74c-.05-.16-.12-.15-.35-.15-.32.09-.6.26-.82.55-.36.26-.72.57-1.12.73-.14.1-.29.04-.43.11-.01.04 0 .09.02.12.14.07.27.17.43.21.17.07.25.37.48.2-.01-.11-.11-.23-.02-.32.39-.12.56.08.84.3.06.07.08.13.02.22-.13.03-.27.09-.38 0-.03 0-.06.04-.06.07.01.21.38.44.5.56.1.19.41.37.61.41.06-.02.11-.09.11-.16-.14-.38-.25-.07-.08-.44.06-.11.21-1.78.27-1.88-.04-.32-.02-.53-.02-.53zm-.78 1.26c-.02.13-.5-.16-.59-.27-.05-.05.32-.3.34-.35.17-.12.2-.21.39-.3l.03.03c-.02.21-.12.6-.17.89z" class="st1" style="clip-rule:evenodd;fill:#bd2b30;fill-rule:evenodd"/><path id="path94" d="M231.9 188.34c-.01.25-.05.51-.09.76-.02.05-.07.09-.12.08-.12-.01-.29-.02-.26-.55-.24-.27-.57-.13-.58.15-.03.81-.15.93-.07 1.48.12.14.12.35.3.45.04.08-.02.16-.1.17-.21.04-.38-.09-.58-.1-.26-.02-.52.05-.76-.03-.08-.04-.04-.13-.01-.18.53-.35.41-1.04.46-1.61a.28.28 0 0 0-.14-.22c-.44-.19-.36.14-.56.19-.04.05-.14.05-.19 0-.15-.11-.05-.29-.05-.44.04-.11.02-.29.17-.3.57-.07 1.19.05 1.75-.04.28.06.66-.07.83.19z" class="st2" style="fill:#bd2b30"/><path id="path96" d="M234.9 189.02a.8.8 0 0 1 .36.23c-.03.29-.42.12-.53.35-.17.55-.81 1.18-.35 1.79.02.06-.02.12-.08.14-.23.01-.59-.3-.78-.41-.2-.05-.45-.04-.57-.23.02-.23.32-.17.46-.29.34-.14.37-.59.49-.88.04-.21.2-.41.15-.63-.1-.12-.34-.18-.23-.38.1-.17.29-.02.44-.03.11.15.49.25.64.34z" class="st2" style="fill:#bd2b30"/><path id="path98" d="M241.27 193.85c.28.26.41.61.59.93.03.13.14.26.05.4-.1.14-.26.16-.42.16-.08-.04-.06-.14-.04-.2.12-.41-.05-.65-.39-.67-.06.22-.42.12-.32.38.08.11.21.24.18.39.01.16-.14.23-.26.29l-.1-.01c-.12-.17-.29-.3-.32-.49-.03-.04-.09-.07-.14-.03-.07.14-.32.22-.24.42.18.17.17.44.39.58.11.03.19-.04.3-.04.16.07.41-.03.51.12.02.17-.17.15-.27.2-.25.09-.54.22-.81.1-.28-.25-.29-.6-.55-.85l-.02-.09c-.2-.2-.36-.41-.6-.51-.07-.04-.05-.14-.03-.19.12-.27.33.01.52-.05.39-.2.8-.35 1.16-.63.15-.02.26-.17.34-.28-.02-.14-.07-.27-.03-.41.06-.04.14-.09.2-.03.17.14.19.35.3.51z" class="st2" style="fill:#bd2b30"/><path id="path100" d="M218.91 194.64c.05.23-.23.38-.38.54-.11.22-.16.63-.02.86.13.2.3.47.55.49l.51-.05c.05-.13.19-.21.17-.37-.04-.41-.42.05-.51-.15-.02-.23.11-.57.28-.72.25-.05.48.12.68.27.09.04.24.02.26.16v.14c-.08.32-.11.68-.26.97-.21.26-.42.35-.77.49-.2.08-.45.14-.64.06-.28-.26-.75-.4-.83-.83-.33-.58-.02-1.46.32-1.93.17-.1.53-.24.64.07z" class="st2" style="fill:#bd2b30"/><path id="path102" d="M223.45 210.64c-.04-.08-.13-.19-.23-.17-.48.2-.9.52-1.41.67-.2.11-.4.24-.64.28-.2.07-.38-.04-.57-.05-.05.02-.08.08-.08.13.32.24.6.6.88.89.13-.11.05-.32.17-.44.14-.06.29.03.44.07.26.14.56.41.55.73-.02.07-.2.03-.26.05-.02.08-.13.07-.04.16l.48.28c.2.13.32.4.55.46.09-.02.07-.14.06-.21-.52-.96.25-1.86.1-2.85zm-.87 1.39c-.15.03-.37-.25-.47-.37-.05-.05-.06-.11-.04-.18.18-.11.55-.46.76-.48l.03.04c-.01.25-.23.75-.28.99z" class="st1" style="clip-rule:evenodd;fill:#bd2b30;fill-rule:evenodd"/><path id="path104" d="M239.47 211.3c-.39-.1-.17.08-.56-.03-.28-.08-1.17-.44-1.45-.53-.17-.07-.39-.24-.57-.08-.1.29.09.53.06.84.12.43.33 1.2.18 1.35-.18.19-.29.35-.15.53.14.04.19-.08.29-.14.22-.17.5-.28.66-.52-.03-.14-.22-.05-.29-.16-.08-.21.24-.29.35-.44.17-.08.27-.32.48-.32.23.08-.02.25.01.39.02.02.05.07.08.06.35-.17.63-.55.95-.78.01-.05.01-.12-.04-.17zm-1.98.77c-.14-.14-.24-.68-.21-.87.04-.06.19.08.24.11l.47.21c.03.02.12.05.13.08-.15.17-.4.54-.63.47z" class="st1" style="clip-rule:evenodd;fill:#bd2b30;fill-rule:evenodd"/><path id="path106" d="m220.59 207.43.02.14c-.15.42-.38 1.25-.4 1.72.04.07.28-.19.33-.22.26-.11.44-.4.71-.47.16.05.19.13.29.26.08.17.3.33.23.54-.18.16-.25-.17-.44-.11-.37.08-.66.33-.99.52-.18.24-.45.32-.66.51-.1-.05-.29.02-.29-.14.03-.57.35-1.18.3-1.77-.06-.08-.63.42-.7.46-.29.2-.15.19-.24.53-.08.03-.17-.06-.23-.11-.08-.16-.11-.34-.2-.49-.08-.08-.2-.16-.16-.29.38.04.42.03.75-.1.25-.18 1.21-.85 1.22-.95.02-.09-.12-.16-.07-.25.07-.09.2-.07.28-.02.11.03.2.13.25.24z" class="st2" style="fill:#bd2b30"/><path id="path108" d="M240.43 207.73c.07.06.14.14.08.23-.28.1-.6.1-.84.29-.1.09-.26.18-.27.32.09.17.32.37.49.36.23-.1-.08-.45.25-.45.24.01.32.04.44.23.02.04.05.1.02.14-.1.08-.29-.01-.33.17-.01.08.01.27.1.33.08.12.23.15.37.12.17-.05.24-.23.34-.35.12-.25-.16-.41-.29-.58a.23.23 0 0 1 .14-.23c.33.07.53.31.83.44.02.1-.03.19-.08.26-.46.55-.76 1.05-1.31 1.54-.06.04-.12.12-.18.09-.14-.14.18-.37.09-.5-.2-.27-.72-.81-1.14-.97-.24-.07-.28.04-.43.21-.08.07-.18.1-.27.06-.1-.05-.09-.14-.06-.22.09-.24.39-.4.52-.62.24-.42.53-.67.82-1.08.27-.19.46.14.71.21z" class="st2" style="fill:#bd2b30"/><path id="path110" d="M225.5 211.81c.63.21 1.24.45 1.88.63.09.04.18.11.23.18.04.23-.14.39-.2.59-.06.05-.14.05-.2 0-.17-.17-.14-.6-.49-.51-.25.07-.27.43-.38.61-.07.3-.3.56-.29.88.08.18.2.25.33.39.03.06-.02.13-.08.15-.19.01-.31-.14-.48-.17-.31-.11-.68-.1-.96-.29-.04-.04 0-.08 0-.12.13-.06.27-.08.4-.14.29-.34.31-.79.51-1.16.04-.14.19-.26.14-.41a.715.715 0 0 0-.36-.15c-.19.12-.29.33-.47.45-.06-.01-.14-.02-.17-.1-.01-.33.11-.6.26-.87.12-.03.23.01.33.04z" class="st2" style="fill:#bd2b30"/><path id="path112" d="M230.62 212.86c-.02.09.03.16.1.21.07.04.2.06.19.17.04.54.04 1.02-.27 1.45-.15.16-.35.19-.55.12-.49-.29-.15-.8-.26-1.27.02-.17-.08-.4.09-.53.05-.04.13-.05.15-.12-.02-.04-.02-.1-.08-.12-.28-.04-.65.08-.93-.01-.07-.01-.15.02-.17.1-.05.08.02.15.09.17.12 0 .17.1.22.19.18.64-.16 1.3.19 1.89.3.26.97.28 1.36.19.81-.39.39-1.36.68-2.06.1-.07.27-.05.32-.12.05-.08.09-.17.04-.26-.27-.1-.62-.04-.89-.04-.13 0-.23-.05-.28.04z" class="st2" style="fill:#bd2b30"/><path id="path114" d="M236.19 213.39a.284.284 0 0 0-.28-.08c-.14.04-.17.19-.2.3-.05.16-.23.12-.38.14-.12-.04-.52-.28-.44-.4.16-.24.32-.62.06-.94-.25-.53-.94-.4-1.35-.23-.31.21-.68.28-.99.48-.03.08.01.17.07.23.11.11.28-.04.4-.04.17.15.23.35.33.54.12.32.26.64.33.99.03.2-.16.41.01.54.19-.1.41-.14.61-.2.22-.13-.16-.62-.12-.79.03-.06.09-.09.16-.08.14.1.64.35.81.39.51 0 .81.01 1.03-.5 0-.11.07-.26-.05-.35zm-1.78-.12c-.08.08-.23.15-.33.11-.11-.09-.48-.76-.28-.86.25-.05.54-.01.68.26.06.16-.01.36-.07.49z" class="st1" style="clip-rule:evenodd;fill:#bd2b30;fill-rule:evenodd"/><path id="path116" d="M223.17 182.97c.01.35.24.53.13.84-.08.09-.06.12-.18.12-.05-.02-.14.01-.16-.06-.02-.15-.18-.31-.32-.36-.16-.01-.68.21-.78.4a.34.34 0 0 0 .06.36c.44.45 1.01.01 1.48-.04.2.02.37.14.54.26.29.32.45.76.31 1.19-.23.45-.65.96-1.22.91-.2.06-.36-.2-.52-.04-.01.12.03.26-.1.31-.1.02-.21.01-.29-.06-.12-.17.03-.36-.02-.55-.03-.2-.2-.33.06-.48.31-.04.61.4.87.31.25-.08.38-.15.47-.41.04-.12.07-.27-.02-.38a.404.404 0 0 0-.31-.15c-.32.03-.51.35-.88.29-.34-.04-.66-.15-.87-.48-.17-.27-.34-.6-.21-.94.11-.3.37-.57.66-.69.21-.08.49-.15.71-.12.25-.05.15-.47.49-.31z" class="st2" style="fill:#bd2b30"/><path id="path118" d="M239.83 184.2c.12.12.13.37.35.39.11.01.28-.04.31.11-.1.24-.38.32-.56.51l-.26.21c-.06.02-.11-.04-.13-.08-.14-.31.15-.35-.04-.63-.09-.13-.19-.3-.36-.33-.11-.01-.21.08-.26.17-.2.39.1.67.19 1 .15.18.21.4.27.62.09.32-.04.62-.27.82-.35.26-.7.33-1.15.2-.21-.12-.45-.2-.63-.39l-.24-.39c-.14-.04-.33-.01-.44-.14-.05-.08.02-.17.06-.24l.64-.71c.04-.04.14-.04.2-.01.08.04.08.13.11.2-.02.21-.25.33-.21.57-.03.28.26.44.45.57.13.06.33.07.46.01.17-.1.25-.29.18-.47-.02-.35-.45-.54-.51-.87-.05-.3-.17-.69.05-.94.29-.44.82-.53 1.31-.47.19.04.36.14.48.29z" class="st2" style="fill:#bd2b30"/><path id="path120" d="M219.01 185.21c.04.28-.24.41-.02.66.24.43.77.78.97 1.22.13.17.22.37.42.46.22.13.47-.22.56.09-.09.23-.43.34-.59.5-.23.17-.51.39-.64.64-.06.05-.16.1-.23.04-.18-.26.18-.58.05-.87-.07-.2-.28-.35-.39-.54-.28-.47-.7-.92-1.18-1.19-.17-.08-.4.16-.5-.03.01-.14.15-.26.26-.33.32-.25.69-.42.99-.73.11-.04.27-.04.3.08z" class="st2" style="fill:#bd2b30"/><path id="path122" d="M241.6 186.47c.21.18.22.44.18.71-.04.27-.3.43-.55.49-.26 0-.59 0-.71-.29-.09-.22-.02-.49.12-.68.12-.13.24-.28.4-.34.21 0 .4 0 .56.11z" class="st2" style="fill:#bd2b30"/><path id="path124" d="M216.35 187.6c.05.08.02.2-.01.28-.08.09-.17.2-.3.14-.09-.04-.24-.22-.33-.12-.07.06-.27.47-.22.54.1.07.31.19.44.18.4-.05.95-.53 1.41-.38.25 0 1.01.14 1.01.93 0 .23.01.5-.1.71-.17.32-.46.73-.85.8a.427.427 0 0 0-.25.01c-.11.11-.05.32-.2.39-.29.08-.34-.27-.47-.43-.09-.21-.15-.32-.19-.55.01-.05.06-.06.11-.08.49-.2.43.52 1.19-.04.13-.1.15-.26.15-.42-.11-.18-.03-.52-.52-.42-.49.09-.85.32-1.31.41-.34.02-.63-.15-.86-.4-.14-.29-.21-.7-.05-1 .15-.2.52-.95.69-.85.27.07.47.13.66.3z" class="st2" style="fill:#bd2b30"/><path id="path126" d="M213.87 190.03c.09.17-.1.3-.06.49.08.36.39.68.74.77.59.38 1.06.79 1.68 1.1.05.04.05.11.04.17-.27.3-.62.21-1 .22-.6.01-1.23.03-1.77.23.18.15.32.37.57.41.21.26.51.38.82.32.14-.01.18-.26.34-.19.1.05.13.16.1.26-.29.45-.44.96-.71 1.42-.04.08-.14.14-.2.06-.15-.14.01-.31-.04-.48.01-.37-.36-.55-.61-.75-.44-.29-.93-.54-1.48-.51-.19-.02-.27.26-.48.19-.14-.09-.02-.27.02-.38.18-.32.33-.59.73-.67a8.66 8.66 0 0 1 1.93-.34c.11-.01.18-.07.25-.15a4.31 4.31 0 0 0-.81-.59c-.18-.11-.3-.2-.51-.24-.11.06-.21.2-.36.11-.07-.05-.17-.1-.18-.19-.02-.11.11-.15.13-.24.2-.37.25-.81.61-1.08.11-.02.19 0 .25.06z" class="st2" style="fill:#bd2b30"/><path id="path128" d="M211.48 195.94c.12.17.49.05.43.34-.11.15-.49.01-.64.07-.2.14-.32.37-.3.66.01.11.06.3.16.35.17.04.54.21.66.01.01-.14-.02-.6.04-.64.15-.04.17.05.31.04.17-.01.41 0 .37.07-.18.32-.18.51-.36.68 0 .04.04.06.07.07.36-.03.74.21 1.07.24.07-.23.07-.65.13-.9.05-.39-.62-.54-.48-.92.07-.11.2-.11.3-.08.26.11.47.12.65.35.26.35.06 1.01-.09 1.34-.2.41-.23 1.6-.3 1.69-.06.05-.16.06-.23.01-.29-.22-.04-.79-.71-.83-.57-.04-1.1-.27-1.68-.39-.34-.03-.26.54-.61.39-.23-.31.31-2.1.45-2.58.05-.07.06-.06.13-.09.25-.03.42.11.63.12z" class="st2" style="fill:#bd2b30"/><path id="path130" d="M210.32 201.14c.5.14 1.1.04 1.62.11.32 0 .71.07.9-.21.03-.08.06-.22.16-.24.08-.01.2-.04.27.03l.04.08c-.03.48-.07.93.04 1.38.01.13.02.26-.11.32-.3.06-.43-.44-.71-.5-.51-.14-1.12-.08-1.68-.09-.35-.02-.55.23-.77.49-.05.04-.28.02-.29-.17-.02-.43-.13-.7-.03-1.18.03-.15.02-.37.19-.42.2.02.18.33.37.4z" class="st2" style="fill:#bd2b30"/><path id="path132" d="M213.22 204.1c.11.02.29-.02.33.11-.05.26.07.39.1.62.1.46.53 1.72.53 1.9-.03.08-.11.17-.19.2-.41.03-.18-.36-.6-.27-.44.12-1.44.41-1.92.42-.08.02-.18.04-.19.12-.01.11.03.29-.11.32-.16.01-.25-.16-.33-.26-.17-.42-.56-.8-.42-1.3.05-.1.14-.1.23-.11.24.02.2.4.46.35.26-.07.69-.1.97-.13.33-.21 1.26.04 1.2-.42-.19-1.33-.6-1.02-1.03-1.49-.13-.14.14-.12.21-.18.29-.03.5.09.76.12z" class="st2" style="fill:#bd2b30"/><path id="path134" d="M247.04 204.73c.5.35 1.14.34 1.74.44.23.02.48.26.68.07.07-.11.11-.26.23-.33.11-.02.23.06.25.17-.05.3-.22.54-.27.83-.2.4-.34.84-.36 1.31-.04.09-.09.21-.2.24-.31.03-.57-.04-.85-.09-.1-.04-.22-.26-.11-.26.7-.01 1.04-.92.99-1.04-.05-.11-.67-.13-.91-.21-.18-.06.11.52-.2.63-.26.05-.11-.04-.36-.02a.372.372 0 0 1-.19-.2c-.03-.11-.01-.23.08-.3.05-.03.1-.06.11-.12.03-.11-.11-.16-.22-.19-.29-.03-.74-.41-.91-.14-.08.36-.28.81.24 1.35.04.04-.01.11-.08.14l-.16-.02-.61-.42c-.11-.14-.04-.34-.01-.48.11-.43.25-.83.39-1.25.08-.17.12-.37.29-.49.32-.01.21.29.44.38z" class="st2" style="fill:#bd2b30"/><path id="path136" d="m245.56 208.29.02.23c.38.39.82.7 1.31.88.35.29.74.48 1.13.68.11.07.19.18.14.32-.37.42-1.07.26-1.59.26-.06-.02-.32-.08-.38-.07-.08.09.13.37.16.45.2.39.42.66.6 1.06.02.09-.05.14-.09.2-.38.04-.66-.26-.99-.39-.21-.08-.31-.23-.5-.3-.38-.13-.88-.63-1.22-.36-.13.1-.24.02-.37-.08.02-.29.2-.56.34-.82.14-.08.08-.4.32-.3.24.11-.04.44.23.48.25.11 1.24.58 1.44.81.1.05-.82-1.19-.83-1.48.01-.11 1.68.11 1.7.03-.02-.13-.98-.53-1.07-.58-.26-.01-.53-.41-.87.15-.05.08-.22.01-.26-.09.02-.11.12-.2.15-.31.17-.29.09-.72.45-.91.06 0 .12.06.18.14z" class="st2" style="fill:#bd2b30"/><path id="path138" d="M243.14 212.64c.11.32.54.4.79.66.42.27.66.92 1.2.92.2-.01.44-.12.54.05.09.28-.24.29-.38.42-.2.25-.45.47-.64.7-.06.04-.14.02-.19-.02-.09-.13.12-.31.04-.45-.11-.2-.6-.56-.82-.68-.36-.27-.5-.6-.93-.77-.25-.07-.48.29-.67.01-.01-.36.38-.52.52-.82.16-.13.23-.33.4-.44.21.03.08.3.14.42z" class="st2" style="fill:#bd2b30"/><path id="path140" d="M218.24 213.6c.02.37.33.64.66.76.03.08-.03.17-.11.19-.17.08-.37.06-.56.08-.17.16-.19.1-.41.15-.08.03-.18 0-.21-.08v-.09c.14-.11.24-.17.29-.37.02-.33-.28-.6-.55-.77-.14-.05-.25-.03-.39.04-.17.14-.07.31-.02.52.11.29.13.53.16.86 0 .4-.08.76-.37 1.03-.24.14-.49.29-.8.2-.27.01-.43-.24-.62-.4-.17-.28-.37-.54-.48-.83.01-.19.22-.24.34-.33l.47-.12c.23.17-.12.29-.14.45-.02.24.07.45.27.59.18.06.36.03.51-.06.14-.1.06-.26.07-.41-.07-.55-.45-1.03-.29-1.62.06-.2.17-.41.37-.54.54-.2 1.11.02 1.52.38.15.1.23.24.29.37z" class="st2" style="fill:#bd2b30"/><path id="path142" d="M237.61 216.96c-.05.16-.33.2-.2.39.13.29.1.62.32.87.11.31.24.92.54 1.13.17.19.36-.04.59 0 .08.06.13.16.12.26-.07.24-.35.16-.53.26-.51.19-1.14.44-1.64.66-.14.05-.16.31-.36.21-.22-.21-.21-.55-.4-.79-.02-.07-.02-.17.05-.21.13-.04.19.09.29.11.15.02.16.23.33.16.11-.14.58-.29.58-.29l-.23-.71a.261.261 0 0 0-.25-.07c-.15.11-.08.32-.23.42-.09.02-.14-.09-.17-.15-.13-.24-.17-.35-.13-.63.16-.18.34.07.53.02.08-.06.04-.17.01-.25-.25-.19-.17-.89-.64-.7-.19.08-.51.16-.57.39-.08.14-.05.36-.24.4-.08.02-.16-.01-.18-.08-.03-.15.06-.25.07-.39 0-.14-.14-.36.05-.43.48-.2 1.03-.28 1.51-.48.17-.1.53-.35.73-.26z" class="st2" style="fill:#bd2b30"/><path id="path144" d="M249.49 196.43c-.06-.08-.14-.18-.24-.18-.32.12-.6-.06-.93-.05-.12-.04-1.33-.08-1.78-.3-.41-.19-.51-.52-.51-.52-.04-.14-.28-.21-.33-.08-.05.15-.02.42.07.62.14.29.17.49.28.76.02.09.11.12.19.1.09-.01.06-.34.04-.43.04-.08.21.05.29.03.16-.02.19.03.31.13.09.21.14.55.19.76.01.17.07.32.05.49-.04.08-.26.24-.36.22-.17-.04-.18-.3-.36-.3-.11.03-.08.15-.09.24.08.2.05 1.03.14 1.25.04.08.11.21.23.16.36-.23 0-.26.35-.54.36-.3 1.69-1.46 1.95-1.61.12-.06.36-.33.46-.44.06-.09.09-.21.05-.31zm-2.02 1.04c-.08.01-.1-.09-.13-.14l-.11-.81c.21-.15.98.1 1.3.09.25-.01-.86.71-1.06.86z" class="st1" style="clip-rule:evenodd;fill:#bd2b30;fill-rule:evenodd"/><path id="path146" d="M244.9 188.24c-.02-.13-.18-.14-.29-.14-.82.23-1.54.67-2.35.93-.25 0-.51.05-.72-.08-.1-.01-.24-.1-.33 0-.03.11.01.2.06.29.32.2.52.73.88.73.15 0-.05-.24.22-.37.37-.18.69.32.89.6.04.12.01.26-.05.36-.05.09-.16.02-.27 0-.1.01-.18-.11-.24.01-.02.02-.02.17-.01.19.27.13.45.41.62.64.11.1.2.35.32.27.21-.15.07-.27.1-.43.06-.35.38-.82.53-1.33.13-.55.56-1.12.64-1.67zm-1.39 1.5c-.22-.01-.43-.28-.53-.44.11-.15.72-.45.88-.53.17-.06-.22.88-.35.97z" class="st1" style="clip-rule:evenodd;fill:#bd2b30;fill-rule:evenodd"/><path id="path148" d="M242.04 217.5c-.17-.63-.36-1.26-.46-1.92-.03-.26-.1-.56-.05-.82.09-.17.26-.32.28-.52-.03-.08-.12-.12-.21-.11-.2.21-.44.34-.69.45-.11.2-.24.09-.31.32.04.12.2.11.32.12.12.02.07.16.08.24-.17.33-.53.52-.83.69-.1.01-.17-.06-.22-.14-.16-.18-.05-.21-.07-.4-.02-.05-.08-.07-.14-.06-.29.26-.66.38-.93.67-.07.07-.2.09-.18.21.04.1.07.21.17.28.08.04.19.04.26 0 .59-.31.97.55 1.48.82.38.1.88.73 1.13.7.2-.02.34-.1.47-.23.05-.12-.06-.21-.1-.3zm-.63-.39c-.15-.03-.68-.68-.8-.75-.04-.03-.09-.01-.11-.07l.01-.08c.14-.13.62-.63.74-.25.05.14.24.88.27 1.03-.02.07-.06.11-.11.12z" class="st1" style="clip-rule:evenodd;fill:#bd2b30;fill-rule:evenodd"/><path id="path150" d="M216.17 211.1c-.17-.34-.38-.99-.57-.98-.29.02-.01.47-.25.61-.11.07-.26.1-.39.05-.28-.14-.27-.25-.45-.63-.08-.16-.28-.35-.12-.54.12-.11.17-.33.37-.33.08.02.08.11.11.17.05.09.09.24.23.19.05-.02.13-.06.13-.13-.04-.36-.32-.6-.43-.94-.15-.18-.1-.54-.41-.57-.19.08-.06.34-.11.51-.23.3-.41.63-.7.91-.26.3-.48.66-.79.93l-.3.5c-.02.11-.17.35-.01.36.92.1 1.66.05 2.49.04.33.01.76-.09 1 .19.1.07.12.2.23.24.09.03.17.04.24-.05.01-.2-.17-.36-.27-.53zm-2.02-.31c-.23-.01-.6.02-.83.02-.05-.03.57-.61.59-.66.17-.17.27.19.27.19s.08.31.19.37c.01.06-.17.09-.22.08z" class="st1" style="clip-rule:evenodd;fill:#bd2b30;fill-rule:evenodd"/><path id="path152" d="M244.67 193.78c-.18-.33-.26-.59-.25-.79.01-.2.18-.42.2-.6.1-.24.33-.44.54-.61.2-.17.45-.3.73-.38.26-.01.52-.13.73-.12.21.01.41.07.59.16s.29.25.46.39c.51.66.59 1.38.31 1.53l-.08.05-.3.14c-.12.08-.21.09-.26.11-.05.03-.08.05-.11.05-.03.01-.06.01-.09 0s-.04-.03-.05-.05c-.01-.03.03-.1.1-.2.04-.05.07-.09.09-.12.1-.15.21-.18.25-.3.04-.13.01-.35-.02-.47a.675.675 0 0 0-.45-.53c-.25-.09-.54-.02-.87.08-.38.11-.61.22-.8.45-.19.22-.27.54-.18.81.02.11.06.18.1.22.03.18.51.72.6.7.13.08-.09.23-.09.23-.06.01-.91-.28-1.15-.75z" class="st2" style="fill:#bd2b30"/><path id="path154" d="M223.99 220.74c-.06-.02-.14-.06-.16-.1-.02-.04-.03-.08-.01-.13.03-.08.29-.1.3-.1.07-.02.16-.16.28-.44.02-.05.19-.59.25-.8.01-.02.07-.36.08-.4.09-.24.02-.4-.04-.54s-.16-.24-.38-.32c-.23-.08-.32-.05-.47.01-.15.06-.27.13-.34.33-.02.05-.17.27-.18.31l-.41.77c-.1.34-.19.56-.15.62.02.02.04.05.07.09.07.07.16.2.14.25-.02.05-.04.08-.08.09-.03.01-.08.01-.13-.01l-.89-.39c-.06-.02-.1-.05-.12-.09-.02-.04-.03-.08-.01-.13.02-.06.08-.09.18-.1 0 0 .26.04.28.02.03-.02.57-1.06.57-1.06.01-.03.27-.56.3-.64.11-.29.29-.48.54-.55.25-.07.52-.06.92.08.46.17.72.32.88.55.16.24.21 1.03.11 1.23-.04.09-.09.31-.12.36l-.13.65c-.01.02-.04.21-.05.23-.01.02-.06.17-.05.2 0 .03.1.14.1.14.07.07.1.13.08.19-.02.04-.04.07-.08.09-.04.02-.09.02-.13 0z" class="st2" style="fill:#bd2b30"/><path id="path156" d="M252.65 199.64c-.16-.88-.16-1.81-.48-2.63-.23-1.38-.73-2.65-1.19-3.94-.23-.48-.39-.98-.73-1.4-.17-.34-.39-.66-.54-1-.35-.47-.51-1.02-.86-1.48-.44-.47-.75-1.02-1.16-1.5-.38-.54-.91-.99-1.29-1.53-.37-.17-.48-.62-.85-.82-.14-.28-.49-.34-.64-.63-.46-.39-.87-.88-1.36-1.23-.73-.62-1.64-.78-2.35-1.43l-.6-.3c-.53-.39-1.16-.55-1.72-.86-.48-.24-.98-.43-1.46-.66-.4-.11-.77-.31-1.19-.38-.11 0-.19-.11-.3-.09-.97.01-1.79-.36-2.7-.48-.82-.02-1.63-.17-2.44-.27-.36.05-.73-.02-1.07.05-.66.05-1.32.06-1.96.15-.95.17-1.94.24-2.79.65-.94.32-1.89.64-2.82.98-.2.12-.41.19-.64.23-.57.15-1.02.55-1.59.69-.6.36-1.27.51-1.8 1.03-.6.25-1.16.62-1.69 1.05-.63.28-1.18.77-1.72 1.23-.55.64-1.23 1.13-1.78 1.74-.19.29-.44.56-.61.85-.28.33-.54.66-.79 1.01-.35.33-.57.73-.81 1.12-.27.55-.65 1.05-.93 1.59-.12.4-.33.76-.48 1.16-.28.46-.45.97-.64 1.47-.16.55-.4 1.06-.51 1.63-.06.2-.22.35-.17.58-.17.42-.2.91-.28 1.36-.02.74-.29 1.39-.29 2.13 0 .62-.04 1.26-.05 1.87.03 1.04 0 2.11.13 3.13.08.45.06.91.21 1.32.3 1.16.53 2.35.97 3.45.22.82.62 1.56.91 2.34.24.42.6.79.75 1.25.32.5.53 1.06.95 1.5.06.16.28.26.29.44.23.26.4.56.6.85.3.29.51.63.81.91.07.26.37.39.48.62.25.23.57.4.74.71.46.18.73.64 1.13.93 1 .87 2.07 1.58 3.19 2.19.51.2.97.52 1.46.74.66.33 1.35.58 2.02.88.6.06 1.12.38 1.74.36.23.01.42.15.66.15.82.18 1.63.39 2.46.55 1.31.05 2.69.27 4 .05 1.8.04 3.47-.26 5.08-.69.75-.28 1.53-.46 2.29-.73.89-.49 1.87-.77 2.75-1.28.23-.1.43-.27.67-.34.65-.32 1.21-.87 1.83-1.25.89-.56 1.74-1.24 2.55-1.93.7-.79 1.43-1.6 1.97-2.48.66-.82 1.26-1.67 1.71-2.59.09-.07.11-.19.17-.28.03-.23.16-.42.26-.63.22-.68.64-1.28.88-1.96.17-.37.26-.78.35-1.19.26-.72.5-1.44.66-2.19.23-1.36.52-2.7.66-4.1.17-.85-.02-1.77-.05-2.67zm-.59 3.62c-.13 1.21-.33 2.47-.61 3.61-.09.89-.63 1.51-.78 2.37-.21.5-.29 1.15-.6 1.62-.37.71-.71 1.3-1.04 2.02-.46.88-2.35 3.92-4.16 5.09-.7.47-1.38.98-2.05 1.53l-.89.54c-.43.07-.72.5-1.1.69-.28.19-.61.27-.92.42-.92.48-1.83.97-2.84 1.24-.75.32-1.6.43-2.36.75-.99.15-1.98.3-2.98.41-1.03-.02-2.05.21-3.04.02-.59-.15-1.27-.12-1.88-.14-.27.02-.47-.13-.73-.16-.69-.12-1.32-.37-2.04-.42-.83-.16-1.59-.47-2.39-.71-.17-.11-.37-.11-.55-.18-.79-.48-1.68-.76-2.45-1.28l-.15-.07c-.6-.5-1.25-.87-1.89-1.27-.71-.57-1.49-1.02-2.17-1.68-.46-.38-.8-.89-1.2-1.32-.34-.26-.56-.6-.87-.9-.56-.62-.86-1.37-1.41-2.01-.45-.6-.65-1.29-1.01-1.92-.2-.5-.48-.95-.66-1.46-.31-.79-.46-1.65-.81-2.42-.13-.55-.32-1.08-.38-1.66-.11-.85-.34-1.7-.23-2.61-.07-.51-.11-1.1-.04-1.6-.08-.2.02-.41.04-.6-.08-.42.11-.83-.01-1.24 0-.73.25-1.33.23-2.08.08-.47.19-.94.23-1.43.14-.27.18-.57.32-.84.04-.51.29-.93.41-1.4.19-.56.43-1.11.75-1.62.31-.57.57-1.17.8-1.78.45-.6.74-1.27 1.3-1.85.28-.53.72-1.01 1.11-1.48.17-.47.65-.72.98-1.1.69-.69 1.45-1.24 2.25-1.69.5-.3.96-.69 1.47-.97.08-.14.25-.13.37-.22.84-.53 1.67-1.09 2.58-1.46 1.13-.63 2.38-.95 3.61-1.36.44-.09.89-.19 1.3-.35.4-.02.73-.18 1.1-.26.38-.1.8-.1 1.17-.23.84-.13 1.66.08 2.51.06.34.03.65-.07 1-.03.21.02.42.01.61-.03.66-.02 1.27.11 1.88.22.3.09.6.16.91.23.4.01.72.25 1.12.31.4.14.84.18 1.24.31.99.41 2.01.76 2.98 1.24.71.52 1.53.75 2.22 1.34.57.35 1.13.76 1.68 1.18.28.18.49.5.75.72.35.36.73.69 1.08 1.04.32.27.56.62.89.87.27.34.52.69.81 1.02.6.81 1.18 1.62 1.65 2.48.45.54.73 1.15 1.01 1.76.31.92.79 1.79.99 2.75.21.81.55 1.56.71 2.39.14.67.19 1.38.24 2.08.08.57.13 1.23.04 1.81.04.59.06 1.2-.1 1.71z" class="st1" style="clip-rule:evenodd;fill:#bd2b30;fill-rule:evenodd"/><path id="path158" d="M250.13 200.02c-.25-.37-.28.19-.38.32-.26.1-.58.18-.86.16-.56-.13-.97.13-1.54 0-.1-.06-.29.06-.33-.07-.07-.12-.17-.26-.31-.24-.04.02-.08.04-.08.1.11.44.07 1.09.11 1.57-.01.3.58 1.09.77 1.23.31.22.68.23 1.1.23.37 0 .68-.28.98-.54l.31-.42c.07-.12.05-.26.13-.37.05-.29.13-.65.13-1.02-.02-.28.04-.67-.03-.95zm-.62 2.01c-.41.57-1.18.46-1.78.39-.19-.09-.41-.23-.48-.46-.02-.11-.07-.45 0-.55.27-.16.65-.09.95-.05.27.03 1.23-.14 1.34-.01 0 .12.01.56-.03.68z" class="st1" style="clip-rule:evenodd;fill:#bd2b30;fill-rule:evenodd"/></g></g></svg>