<svg xmlns="http://www.w3.org/2000/svg" width="100" height="29.863" viewBox="0 0 100 7.901"><path style="fill:#e72887;fill-opacity:1;stroke-width:.32000002" d="M114.67 809.521c-7.285-.022-14.708.788-22.797 2.428-30.603 6.208-58.306 25.511-75.146 52.365-2.98 4.752-7.712 14.205-9.413 18.803-10.154 27.458-9.721 57.217 1.207 83.04 6.025 14.234 14.101 26.33 24.575 36.804 21.25 21.249 48.412 33.173 78.242 34.348 3.18.125 9.273-.085 13.762-.473 21.139-1.827 43.295-10.733 60.191-24.193 3.473-2.767 4.05-3.458 4.604-5.512.58-2.157-.057-4.229-1.88-6.108-2.072-2.135-4.548-2.756-6.966-1.746-.632.264-2.83 1.762-4.885 3.329-15.057 11.475-31.4 18.115-50.125 20.36-5.484.659-16.858.656-22.38 0-23.357-2.792-43.483-12.604-60.52-29.51-16.445-16.32-26.43-37.11-28.942-60.259-.538-4.964-.447-15.987.176-21.279 2.654-22.523 12.488-42.576 28.959-59.047 15.211-15.212 34.978-25.165 56.537-28.469 6.346-.97 13.465-1.325 19.096-.947 7.03.472 10.514 1.042 19.66 3.215 1.45.344 1.926.326 3.393-.137 1.918-.605 3.87-2.292 4.558-3.937 1.068-2.555.166-5.962-2.066-7.809-1.302-1.077-2.558-1.506-7.877-2.7-7.531-1.688-14.678-2.543-21.963-2.566zm533.863 5.094c-2.332-.096-4.704.993-6.066 3.31l-.889 1.513-.16 94.05-.16 94.051-79.584-95.375c-43.771-52.456-79.952-95.665-80.403-96.02-.45-.354-1.53-.815-2.398-1.023-2.913-.699-6.08.817-7.637 3.656-.499.91-.542 8.32-.619 104.78-.057 72.346.021 104.178.258 105.056.394 1.465 2.097 3.476 3.586 4.235.745.38 1.678.503 3.31.435 2.716-.112 4.355-1.054 5.59-3.21l.778-1.356.16-94.012.16-94.012 79.36 95.516c64.335 77.433 79.605 95.64 80.66 96.172.94.474 1.917.655 3.521.654 3.972 0 6.09-1.08 6.803-3.457.285-.951.375-26.501.375-105.394V820.043l-.81-1.627a6.776 6.776 0 0 0-5.835-3.8zm-355.185.24c-27.416.008-38.846.1-39.565.293-1.74.469-4.166 2.877-4.646 4.61-.515 1.858-.507 207.107.008 208.824.47 1.573 1.94 3.345 3.424 4.129 1.146.606 2.656.618 74.48.633l73.309.016 1.41-.744c3.898-2.059 4.676-7.621 1.508-10.79-2.053-2.052 3.47-1.906-71.977-1.906h-68.76v-89.595l60.588-.082 60.586-.082 1.322-.918c1.639-1.136 2.944-3.599 2.944-5.557 0-2.589-1.49-4.953-3.907-6.195-1.155-.596-2.779-.612-61.36-.612h-60.173v-88.322h66.922c52.026 0 67.216-.087 68.24-.393.745-.223 1.882-.957 2.617-1.691 3.12-3.115 2.504-8.208-1.277-10.545l-1.572-.971-71.18-.082a24386.9 24386.9 0 0 0-32.941-.02zM24.07 1092.703c-5.452-.222-10.925 2.588-13.767 7.555-1.49 2.605-1.927 4.542-1.791 7.933.11 2.763.249 3.358 1.299 5.569 1.809 3.81 4.92 6.556 9.043 7.982h.002c2.332.806 6.53.76 9.076-.1 2.427-.82 4.818-2.374 5.478-3.564.438-.79.438-.97-.002-1.756-.768-1.373-2.04-1.663-3.459-.785-2.872 1.777-3.966 2.13-6.611 2.13-1.985 0-2.92-.163-4.16-.73-2.013-.92-4.122-2.947-5.221-5.02-1.15-2.169-1.222-6.235-.15-8.566.984-2.14 3.525-4.516 5.7-5.33 3.154-1.18 7.836-.637 9.792 1.133 1.43 1.295 3.8.26 3.8-1.658 0-1.242-1.22-2.41-3.681-3.53a14.3 14.3 0 0 0-5.348-1.263zm253.442 0c-5.453-.222-10.926 2.588-13.768 7.555-1.49 2.605-1.929 4.542-1.793 7.933.111 2.763.25 3.358 1.299 5.569 1.81 3.81 4.921 6.556 9.045 7.982 2.332.807 6.533.76 9.078-.1 2.427-.82 4.816-2.374 5.477-3.564.438-.79.439-.97 0-1.756-.769-1.373-2.043-1.663-3.461-.785-2.867 1.774-3.967 2.13-6.61 2.135-2.103 0-2.874-.144-4.32-.83-2.121-1.008-3.93-2.764-5.068-4.924-1.146-2.172-1.214-6.241-.145-8.567.984-2.14 3.525-4.516 5.701-5.33 3.153-1.18 7.835-.637 9.791 1.133 1.431 1.295 3.801.26 3.801-1.658 0-1.242-1.218-2.41-3.68-3.53a14.3 14.3 0 0 0-5.347-1.263zm-228.121.174c-9.094 0-9.867.11-10.496 1.49-.496 1.087-.496 25.055 0 26.143.196.43.665.93 1.04 1.113.417.202 4.134.34 9.52.352 8.473.02 8.871 0 9.68-.641.611-.481.844-.958.844-1.736 0-.779-.233-1.258-.844-1.739-.799-.629-1.239-.662-8.319-.662h-7.478v-7.324l6.75-.098c6.651-.097 6.757-.109 7.36-.854.777-.96.777-2.007 0-2.968-.603-.745-.709-.757-7.36-.854l-6.75-.098v-7.324h7.318c6.918 0 7.363-.037 8.16-.664 1.166-.917 1.166-2.556 0-3.473-.805-.633-1.228-.664-9.425-.664zm58.107 0c-9.626 0-10.024.025-10.836.664-1.166.917-1.166 2.555 0 3.473.746.586 1.284.664 4.64.664h3.798v11.156c0 10.803.02 11.184.662 12 .867 1.102 2.282 1.127 3.351.059l.785-.787v-22.428h3.797c3.357 0 3.896-.078 4.64-.664 1.167-.917 1.167-2.555 0-3.473-.811-.64-1.211-.664-10.837-.664zm138.397.092c-1.248.12-2.44 2.565-7.584 13.697-3.206 6.936-5.834 12.831-5.84 13.1-.007.268.212.81.486 1.201.888 1.266 2.087.934 4.938-1.367 2.844-2.297 5.103-3.562 7.523-4.21 2.046-.545 6.27-.566 6.95-.032.28.22.967 1.479 1.527 2.799 1.141 2.692 1.898 3.521 3.216 3.521.961 0 2.227-1.254 2.227-2.205 0-.398-8.189-18.784-11.08-24.877-.27-.567-.909-1.195-1.442-1.416-.343-.142-.634-.238-.921-.21zm134.718 0c-1.247.12-2.437 2.565-7.582 13.697-3.205 6.936-5.833 12.831-5.84 13.1-.006.268.213.81.487 1.201.888 1.266 2.087.934 4.937-1.367 2.845-2.297 5.104-3.562 7.524-4.21 2.046-.545 6.267-.566 6.947-.032.28.22.968 1.479 1.527 2.799 1.142 2.692 1.899 3.521 3.217 3.521.96 0 2.229-1.254 2.229-2.205 0-.398-8.191-18.784-11.082-24.877-.27-.567-.91-1.195-1.442-1.416-.343-.142-.634-.238-.922-.21zm-214.554.068c-3.774 0-3.883.021-6.338 1.193-9.519 4.545-11.676 16.445-4.301 23.721 2.337 2.306 4.574 3.589 7.36 4.22 7.107 1.614 14.526-2.515 17.14-9.538 2.626-7.057-.835-15.244-7.85-18.567-2.07-.98-2.351-1.029-6.011-1.029zm151.68 0c-3.774 0-3.883.021-6.339 1.193-9.524 4.548-11.68 16.44-4.3 23.721 2.336 2.306 4.573 3.589 7.359 4.22 7.108 1.614 14.527-2.515 17.14-9.538 2.627-7.057-.835-15.244-7.849-18.567-2.07-.98-2.352-1.029-6.012-1.029zm-249.901.16c-.8 0-1.27.227-1.756.844-.645.82-.664 1.181-.664 13.264 0 12.973.068 13.675 1.396 14.318.376.182.787.34.91.351.5.048 1.835-.736 2.077-1.22.141-.284.33-4.603.418-9.596l.16-9.078 8.135 9.775c4.474 5.377 8.4 9.845 8.724 9.93.99.259 2.32-.27 2.737-1.09.293-.577.395-4.002.398-13.295.005-12.182-.013-12.539-.658-13.36-.481-.61-.958-.843-1.736-.843-.78 0-1.256.232-1.737.844-.635.807-.664 1.223-.664 9.76 0 4.904-.108 8.907-.24 8.896-.132-.01-3.878-4.402-8.324-9.76-7.713-9.293-8.134-9.74-9.176-9.74zm58.107 0-.664.844c-.645.82-.662 1.18-.662 13.46 0 8.317.115 12.835.34 13.255.187.35.656.765 1.041.92 1.087.438 1.398.377 2.361-.451l.897-.772.092-11.418.091-11.416 4.725.11c3.846.088 4.883.214 5.584.673 1.276.837 1.85 1.906 2.047 3.813.368 3.568-1.376 5.263-5.766 5.601-3.385.261-4.564 1.295-3.74 3.284.453 1.093 1.523 1.619 3.303 1.619 2.63 0 4.844 2.251 5.842 5.935.655 2.422 1.675 3.502 3.01 3.188.968-.228 1.933-1.28 1.933-2.108 0-1.305-1.633-5.62-2.73-7.213l-1.167-1.693 1.127-.99c1.866-1.638 2.77-3.85 2.77-6.78 0-3.163-.791-5.338-2.621-7.203-2.297-2.34-3.642-2.658-11.287-2.658zm78.852 0c-.8 0-1.27.227-1.756.844-.645.82-.662 1.181-.662 13.264 0 12.973.068 13.675 1.396 14.318.376.182.785.34.909.351.5.048 1.836-.736 2.078-1.22.141-.284.33-4.603.418-9.596l.158-9.078 8.137 9.775c4.474 5.377 8.4 9.845 8.724 9.93.99.259 2.318-.27 2.735-1.09.293-.577.396-4.002.4-13.295.005-12.182-.013-12.539-.658-13.36-.481-.61-.958-.843-1.737-.843-.778 0-1.257.232-1.738.844-.635.807-.662 1.223-.662 9.76 0 4.904-.108 8.907-.24 8.896-.132-.01-3.878-4.402-8.324-9.76-7.713-9.293-8.136-9.74-9.178-9.74zm90.223 0c-.456 0-1.184.353-1.616.785l-.785.786v12.48c0 13.034.068 13.732 1.397 14.375.898.435.996.437 1.912.02.429-.195.94-.708 1.134-1.137.241-.529.356-4.793.356-13.258v-12.48l-.785-.785c-.432-.432-1.157-.785-1.613-.785zm44.498 0c-.8 0-1.271.227-1.756.844-.645.82-.662 1.181-.662 13.264 0 12.973.068 13.675 1.396 14.318.376.182.785.34.908.351.5.048 1.835-.736 2.076-1.22.142-.284.33-4.603.418-9.596l.16-9.078 8.137 9.775c4.475 5.377 8.4 9.845 8.723 9.93.99.259 2.32-.27 2.736-1.09.294-.577.397-4.002.4-13.295.006-12.182-.014-12.539-.66-13.36-.48-.61-.957-.843-1.736-.843-.778 0-1.255.232-1.736.844-.635.807-.664 1.223-.664 9.76 0 4.904-.106 8.907-.238 8.896-.132-.01-3.88-4.402-8.327-9.76-7.713-9.293-8.133-9.74-9.175-9.74zm61.878 0c-.595-.01-1.217.25-1.751.785l-.786.786v12.48c0 13.029.068 13.732 1.395 14.375h.002c.973.466 16.253.484 17.271.02 1.744-.794 1.753-3.293.016-4.084-.507-.231-3.157-.361-7.34-.361h-6.545v-11.157c0-10.802-.02-11.183-.662-12-.433-.55-1.004-.833-1.6-.843zm-235.343 4.324c4.13.01 7.147 1.816 9.072 5.436.749 1.408.85 1.965.852 4.64 0 2.572-.115 3.263-.752 4.481-1.035 1.978-2.78 3.736-4.686 4.72-2.221 1.149-6.009 1.326-8.367.391-8.258-3.271-8.782-14.702-.854-18.605 1.915-.943 2.467-1.066 4.735-1.063zm151.68 0c4.13.01 7.147 1.816 9.072 5.436.749 1.408.851 1.965.851 4.64 0 2.572-.115 3.263-.752 4.481-1.034 1.978-2.78 3.736-4.685 4.72-2.222 1.149-6.007 1.326-8.365.391-8.258-3.271-8.784-14.702-.856-18.605 1.915-.943 2.467-1.066 4.734-1.063zm-71.713 3.872c.202-.025 4.359 8.497 4.359 8.937 0 .03-.992.147-2.203.26-1.211.112-3.172.505-4.358.87-1.185.367-2.354.742-2.597.835-.244.093-.435.047-.426-.104.033-.584 4.959-10.764 5.225-10.798zm134.72 0c.202-.025 4.36 8.497 4.36 8.937 0 .03-.992.147-2.204.26-1.21.112-3.171.505-4.357.87-1.185.367-2.354.742-2.598.835-.243.093-.436.047-.427-.104.033-.584 4.96-10.764 5.226-10.798z" transform="translate(0 -88.217) scale(.0954)"/><path style="fill:#090e50;fill-opacity:1;stroke-width:.32000002" d="M744.482 810.785a15.317 15.317 0 0 0-5.062.84c-9.056 3.11-12.92 14.11-7.88 22.434 2.094 3.46 6.214 6.295 10.077 6.937 2.53.42 3.721.401 6.084-.1 6.137-1.3 10.8-6.249 11.86-12.58 1.578-9.437-6.11-17.486-15.079-17.53zm189.221.014a14.408 14.408 0 0 0-5.754 1.441c-7.065 3.44-10.167 11.2-7.517 18.813.848 2.437.901 2.842.642 4.959-.87 7.125-3.376 13.774-7.26 19.265-2.454 3.472-3.232 4.183-4.867 4.444-3.958.631-8.083 3.917-10.14 8.08-1.228 2.483-1.229 2.486-1.229 6.517 0 4.032.001 4.033 1.229 6.516 2.037 4.121 5.601 7.021 9.92 8.068 4.94 1.198 10.084-.206 13.87-3.787 3.06-2.893 4.583-6.482 4.583-10.797 0-2.619-.618-5.237-1.66-7.035-.53-.913-.61-1.44-.442-2.926 1.072-9.47 8.72-22.66 14.16-24.42 2.267-.733 5.185-2.678 6.59-4.392.641-.782 1.64-2.423 2.219-3.645 1.014-2.143 1.053-2.364 1.053-6.222 0-3.84-.042-4.087-1.03-6.172-2.681-5.662-8.508-8.938-14.367-8.707zm-750.646 13.3c-4.075-.14-8.066 1.28-11.059 4.15-3.277 3.141-4.82 6.774-4.82 11.349 0 7.167 4.473 13.131 11.281 15.045 1.128.317 2.743.437 4.92.367 2.953-.095 3.46-.208 5.695-1.27 9.765-4.637 12.18-16.862 4.889-24.738-1.024-1.106-2.608-2.373-3.678-2.943a16.578 16.578 0 0 0-7.228-1.96zm561.261 36.186c-7.213.087-13.881 5.384-14.884 13.233-.934 7.303 3.284 14.034 10.38 16.562 1.249.445 2.386.552 5.125.483 3.312-.084 3.667-.162 6.018-1.282 11.392-5.427 11.724-21.385.566-27.248a15.033 15.033 0 0 0-7.205-1.748zm145.444 47.596c-8.663.261-15.866 8.175-14.467 17.168.456 2.933 2.206 6.44 4.219 8.453 1.81 1.81 5.495 3.762 7.841 4.154 2.257.378 2.926.379 5.258 0 8.367-1.357 14.06-9.88 12.147-18.183-1.205-5.228-5.99-10.012-11.217-11.217a14.817 14.817 0 0 0-3.781-.375zm88.937.197c-3.585 0-3.745.032-6.166 1.188-4.779 2.282-7.85 6.345-8.637 11.423-1.235 7.985 4.19 15.52 12.243 17.002 4.988.919 11.032-1.329 14.164-5.267 6.21-7.808 3.62-18.832-5.44-23.158-2.42-1.157-2.579-1.188-6.164-1.188zm-233.736.281c-7.942-.244-15.613 5.853-15.613 15.239 0 7.391 5.271 13.836 12.267 14.998 2.397.398 3.031.403 5.403.03 4.572-.717 9.021-3.985 11.035-8.103 3.01-6.155 1.941-12.895-2.791-17.615-3.027-3.018-6.691-4.438-10.301-4.549zm256.22 48.112c-3.838-.085-7.648 1.319-10.64 4.107-1.596 1.487-4.095 2.424-9.605 3.604-9.76 2.089-21.331 1.692-30.78-1.059-2.401-.699-3.004-1.027-4.408-2.394-.905-.882-2.683-2.106-4.01-2.762-2.109-1.043-2.737-1.196-5.445-1.338-3.76-.197-6.383.425-9.049 2.148-9.273 5.994-9.27 19.288.004 25.315 2.608 1.694 5.248 2.336 8.951 2.174 2.631-.115 3.298-.274 5.42-1.282 1.438-.682 3.124-1.82 4.15-2.798 1.361-1.299 2.17-1.778 3.807-2.26 11.836-3.482 24.9-3.414 36.801.193 2.143.65 3.026 1.111 4.164 2.174 2.474 2.31 5.07 3.543 8.443 4.012h.002c.897.124 1.99.185 2.43.133.44-.053 1.465-.18 2.277-.282 2.327-.292 5.872-2.166 7.752-4.097 7.051-7.241 5.308-19.126-3.492-23.805a15.107 15.107 0 0 0-6.771-1.783zm-133.3.105c-2.775-.003-5.512.656-7.621 1.977-5.676 3.554-8.456 10.162-6.834 16.244 1.23 4.615.82 9.605-1.317 15.988-1.393 4.165-3.484 8.168-6.045 11.572-1.854 2.465-2.07 2.643-3.709 3.057-6.808 1.722-11.482 7.624-11.494 14.516-.012 6.706 4.054 12.3 10.49 14.43 1.434.474 2.53.58 5.106.494 3.1-.105 3.427-.185 5.967-1.444 7.595-3.763 10.48-12.457 6.703-20.19-1.16-2.372-1.16-2.376-.777-4.478.5-2.752 2.288-8.089 3.564-10.64 2.775-5.551 7.696-11.515 10.008-12.13 7.062-1.877 11.98-9.386 10.865-16.59-.668-4.316-3.575-8.772-7.057-10.812-2.262-1.326-5.074-1.992-7.85-1.996zm-123.442.14c-4.012 0-4.018.003-6.5 1.23-6.107 3.018-9.337 9.107-8.484 15.993.418 3.38 1.828 6.004 4.772 8.89 2.429 2.38 2.493 2.485 3.154 5.097 1.141 4.513 1.5 9.036 1.064 13.396-.209 2.09-.456 3.997-.549 4.239-.092.24-.792.834-1.556 1.318-5.002 3.164-7.632 8.939-6.885 15.119.682 5.648 5.32 10.96 10.87 12.451.953.256 2.833.475 4.179.486 7.576.066 13.871-5.326 15.047-12.888.903-5.807-1.775-11.914-6.547-14.93-.975-.616-1.85-1.408-1.943-1.76-.094-.352-.328-2.183-.518-4.07-.418-4.138.004-9.219 1.121-13.523.663-2.555.881-2.98 1.967-3.84 9.169-7.256 7.751-21.035-2.676-26.014-2.474-1.182-2.538-1.193-6.516-1.193zm278.15 48.352c-4.747.153-9.401 2.537-12.232 6.916-1.691 2.617-2.33 5.257-2.168 8.956.116 2.646.271 3.292 1.309 5.478 1.873 3.944 5.402 6.95 9.484 8.076.811.224 2.575.419 3.92.434 6.101.07 11.266-3.303 13.916-9.092 1.25-2.731 1.452-7.413.448-10.398-.907-2.696-2.247-4.772-4.239-6.563a14.818 14.818 0 0 0-10.437-3.807zm-272.734 88.174c-10.869-.192-18.223 10.84-13.377 20.686 1.823 3.702 5.92 6.905 9.899 7.738 2.018.422 5.742.135 7.85-.606 2.245-.789 4.759-2.57 4.89-3.466.305-2.08-1.614-2.601-3.851-1.045-1.3.903-4.408 1.928-5.85 1.928-1.523 0-4.59-1.056-6.137-2.114-3.114-2.129-5.233-6.586-4.758-10.01.297-2.135 1.897-5.223 3.42-6.6 2.224-2.008 4.488-2.876 7.504-2.876 2.37 0 2.796.104 5.012 1.228 1.332.676 2.682 1.18 3 1.12.318-.061.79-.491 1.049-.954.424-.756.416-.927-.094-1.705-.883-1.347-4.763-3.04-7.494-3.27-.358-.03-.712-.048-1.063-.054zm221.76 0c-10.869-.192-18.223 10.84-13.377 20.686 1.823 3.702 5.92 6.905 9.899 7.738 2.018.422 5.744.135 7.851-.606 2.246-.789 4.758-2.57 4.889-3.466.304-2.08-1.615-2.601-3.852-1.045-1.299.903-4.407 1.928-5.85 1.928-1.523 0-4.589-1.056-6.136-2.114-3.115-2.129-5.233-6.586-4.758-10.01.297-2.135 1.897-5.223 3.42-6.6 2.223-2.008 4.488-2.876 7.504-2.876 2.37 0 2.796.104 5.012 1.228 1.332.676 2.682 1.18 3 1.12.318-.061.789-.491 1.049-.954.424-.756.415-.927-.094-1.705-.883-1.347-4.763-3.04-7.494-3.27-.358-.03-.712-.048-1.063-.054zm-311.07.064c-6.704.133-12.873 4.94-14.067 12.145-1.17 7.064 3.471 14.095 10.62 16.088 4.466 1.244 9.914-.129 13.443-3.387l1.275-1.178v-4.744c0-5.14-.234-5.914-1.787-5.914-1.502 0-1.732.68-1.732 5.113v4.108l-1.514 1.002c-3.215 2.13-7.027 2.457-10.387.89-4.891-2.28-7.434-7.25-6.199-12.117 1.149-4.526 4.752-7.722 9.508-8.435 1.698-.255 4.93.462 6.523 1.447 1.477.913 2.948.84 3.407-.168.585-1.285-.07-2.206-2.373-3.34a14.5 14.5 0 0 0-6.717-1.51zm-178.608.211c-7.88 0-9.02.063-9.535.53-.547.496-.586 1.334-.586 13.333 0 11.467.055 12.867.53 13.391.49.541 1.225.586 9.754.586h9.222l.55-.838c.49-.75.498-.923.073-1.68l-.472-.843-8.069-.084-8.068-.086v-8.629h6.857c7.424 0 7.864-.098 7.864-1.76s-.44-1.76-7.864-1.76h-6.857v-8.64h7.777c5.622 0 7.883-.108 8.16-.385.496-.496.496-2.256 0-2.752-.28-.28-2.8-.383-9.336-.383zm74.374 0-.547.836c-.492.75-.5.924-.077 1.68.471.839.493.845 4.862.933l4.388.088v11.608c0 8.6.099 11.707.383 11.992.211.211.832.383 1.377.383.546 0 1.164-.172 1.375-.383.285-.285.385-3.391.385-11.992v-11.608l4.389-.088c4.368-.089 4.388-.094 4.859-.933.424-.756.418-.93-.074-1.68l-.549-.836h-10.385zm37.947 0c-7.88 0-9.02.063-9.535.53-.548.496-.586 1.334-.586 13.333 0 11.467.055 12.867.529 13.391.49.541 1.225.586 9.754.586h9.223l.548-.838c.492-.75.499-.923.075-1.68l-.473-.843-8.068-.084-8.069-.086v-8.629h6.858c7.423 0 7.863-.098 7.863-1.76s-.44-1.76-7.863-1.76h-6.858v-8.64h7.778c5.62 0 7.882-.108 8.16-.385.496-.496.496-2.256 0-2.752-.28-.28-2.801-.383-9.336-.383zm94.08 0c-7.88 0-9.02.063-9.535.53-.548.496-.586 1.334-.586 13.333 0 11.467.055 12.867.529 13.391.49.541 1.225.586 9.754.586h9.223l.546-.838c.492-.75.501-.923.077-1.68l-.473-.843-8.068-.084-8.069-.086v-8.629h6.858c7.423 0 7.863-.098 7.863-1.76s-.44-1.76-7.863-1.76h-6.858v-8.64h7.778c5.621 0 7.88-.108 8.158-.385.211-.211.385-.83.385-1.375 0-.546-.174-1.166-.385-1.377-.28-.28-2.8-.383-9.334-.383zm193.734 0-.549.836c-.491.75-.5.924-.076 1.68.47.839.493.845 4.862.933l4.388.088v11.608c0 8.6.098 11.707.383 11.992.211.211.831.383 1.377.383s1.164-.172 1.375-.383c.285-.285.385-3.391.385-11.992v-11.608l4.388-.088c4.369-.089 4.391-.094 4.862-.933.424-.756.415-.93-.076-1.68l-.55-.836H892.46Zm48.233 0c-7.923 0-9.067.063-9.582.53-.548.496-.586 1.334-.586 13.333 0 11.467.055 12.867.529 13.391.659.728 1.638.751 2.406.057.523-.473.584-1.104.584-5.92v-5.39h6.615c5.707 0 6.697-.072 7.202-.53.727-.658.75-1.638.054-2.406-.48-.531-1.143-.584-7.199-.584h-6.672v-8.96h7.737c6.748 0 7.807-.068 8.318-.53.716-.648.744-1.343.088-2.28-.495-.707-.56-.71-9.494-.71zm-141.985.03c-.409.053-.799.237-1.056.53-.781.89-11.768 25.035-11.768 25.862 0 .41.253.892.56 1.072.914.532 1.184.423 3.335-1.34 5.201-4.263 9.381-5.81 14.109-5.219l1.742.22 1.465 3.18c1.432 3.112 1.489 3.184 2.543 3.184 1.268 0 1.848-.478 1.848-1.523 0-.905-11.032-25.372-11.604-25.734-.337-.215-.765-.287-1.174-.233zm48.32 0c-.408.053-.798.237-1.056.53-.78.89-11.768 25.035-11.768 25.862 0 .41.253.892.56 1.072.915.532 1.184.423 3.335-1.34 5.201-4.263 9.381-5.81 14.11-5.219l1.741.22 1.465 3.18c1.432 3.112 1.49 3.184 2.543 3.184 1.268 0 1.846-.478 1.846-1.523 0-.905-11.03-25.372-11.602-25.734-.337-.215-.765-.287-1.173-.233zm173.76 0c-.408.053-.798.237-1.056.53-.781.89-11.768 25.035-11.768 25.862 0 .41.253.892.56 1.072.914.532 1.184.423 3.335-1.34 5.201-4.263 9.381-5.81 14.109-5.219l1.742.22 1.465 3.18c1.432 3.112 1.489 3.184 2.543 3.184 1.268 0 1.846-.478 1.846-1.523 0-.905-11.03-25.372-11.602-25.734-.337-.215-.765-.287-1.174-.233zm-463.138.015c-.232-.01-.464.093-.842.305l-.844.475-.16 10.066-.16 10.068-8.606-10.312c-4.734-5.673-8.882-10.402-9.216-10.508-.335-.106-.962.04-1.393.322l-.785.514v12.93c0 11.327.063 12.99.504 13.431.562.563 1.65.65 2.377.192.404-.256.505-1.897.64-10.414l.159-10.11 7.978 9.633c9.617 11.612 9.243 11.203 10.225 11.203 1.817 0 1.797.148 1.797-13.935v-12.93l-.836-.549c-.376-.246-.607-.37-.838-.38zm179.52 0c-.232-.01-.464.093-.843.305l-.843.475-.159 10.066-.16 10.068-8.607-10.312c-4.734-5.673-8.882-10.402-9.217-10.508-.335-.106-.961.04-1.393.322l-.783.514v12.93c0 11.327.062 12.99.502 13.431.563.563 1.65.65 2.377.192.405-.256.506-1.897.64-10.414l.161-10.11 7.977 9.633c9.616 11.612 9.242 11.203 10.224 11.203 1.817 0 1.799.148 1.799-13.935v-12.93l-.838-.549c-.375-.246-.606-.37-.838-.38zm-114.01.272c-.714-.046-1.507.18-1.745.623-.212.396-.33 5.13-.33 13.174 0 11.234.056 12.617.53 13.14.487.539 1.194.586 8.853.586 7.298 0 8.4-.065 8.912-.53.718-.65.756-1.813.082-2.487-.427-.428-1.582-.502-7.68-.502h-7.177v-11.618c0-8.608-.1-11.715-.385-12-.235-.234-.633-.359-1.06-.386zm418.558 0c-.713-.046-1.505.18-1.742.623-.212.396-.332 5.13-.332 13.174 0 11.234.057 12.617.531 13.14.487.539 1.195.586 8.854.586 7.297 0 8.399-.065 8.912-.53.718-.65.756-1.813.082-2.487-.427-.428-1.584-.502-7.682-.502h-7.176v-11.618c0-8.608-.1-11.715-.384-12-.235-.234-.635-.359-1.063-.386zm-514.234 0c-.758 0-1.2.192-1.428.619-.212.396-.332 5.13-.332 13.174 0 11.234.057 12.617.531 13.14.659.727 1.637.751 2.404.057.548-.496.584-1.33.584-13.142 0-8.082-.117-12.832-.33-13.229-.228-.427-.672-.619-1.43-.619zm120.96 0c-.757 0-1.2.192-1.43.619-.211.396-.33 5.13-.33 13.174 0 11.234.056 12.617.53 13.14.659.728 1.637.752 2.404.057.548-.496.586-1.33.586-13.142 0-8.082-.12-12.832-.332-13.229-.228-.427-.67-.619-1.427-.619zm129.28 0c-.758 0-1.2.192-1.428.619-.212.396-.332 5.13-.332 13.174 0 11.234.056 12.617.53 13.14.658.728 1.638.752 2.406.057.547-.496.584-1.33.584-13.142 0-8.082-.118-12.832-.33-13.229-.229-.427-.673-.619-1.43-.619zm144.64 0c-.757 0-1.199.192-1.427.619-.212.396-.332 5.13-.332 13.174 0 11.234.055 12.617.53 13.14.658.728 1.636.752 2.403.057.548-.496.586-1.33.586-13.142 0-8.082-.117-12.832-.33-13.229-.228-.427-.672-.619-1.43-.619zm36.481 0c-.758 0-1.201.192-1.43.619-.212.396-.33 5.13-.33 13.174 0 11.234.056 12.617.53 13.14.658.728 1.636.752 2.404.057.547-.496.586-1.33.586-13.142 0-8.082-.12-12.832-.332-13.229-.229-.427-.67-.619-1.428-.619zm40.959 0c-.758 0-1.2.192-1.428.619-.212.396-.332 5.13-.332 13.174 0 11.234.056 12.617.53 13.14.658.728 1.638.752 2.406.057.547-.496.584-1.33.584-13.142 0-8.082-.118-12.832-.33-13.229-.229-.427-.672-.619-1.43-.619zm-126.096 0c-4.816 0-6.844.106-7.119.38-.286.287-.385 3.673-.385 13.258 0 11.277.064 12.935.504 13.375.652.653 1.694.64 2.432-.027.546-.494.584-1.294.584-12v-11.47h5.04c4.466 0 5.16.075 6.083.638 2.817 1.718 3.384 6.345 1.062 8.666-.978.979-2.486 1.473-5.652 1.854-2.136.257-2.68.616-2.687 1.777-.01 1.087.938 1.785 2.423 1.785 1.801 0 2.939.456 4.24 1.7 1.286 1.227 2.129 2.792 2.641 4.896.454 1.863 1.09 2.684 2.078 2.684 1.295 0 1.83-.883 1.62-2.664-.238-2.004-1.855-5.496-3.186-6.877-.91-.945-.962-1.095-.479-1.367 2.674-1.506 3.93-3.905 3.918-7.493-.012-4.125-1.564-6.836-4.78-8.357-1.524-.72-1.923-.757-8.337-.76zm-417.273.025c-2.48 0-3.597.099-3.848.306-.389.323-.463 2.453-.463 13.45 0 12.099.042 13.089.56 13.406.363.222 2.655.306 6.481.238 5.238-.093 6.132-.188 7.752-.826 4.12-1.623 7.15-4.81 8.578-9.02 2.108-6.21-1.214-13.37-7.607-16.398l-2.164-1.025-6.338-.097a169.002 169.002 0 0 0-2.951-.027zm-.791 3.492h4.148c4.976 0 6.805.543 9.262 2.752 2.337 2.101 3.394 4.44 3.383 7.488-.007 1.97-.16 2.687-.856 4-1.611 3.04-3.944 4.923-7.123 5.746-1.146.297-3.285.494-5.361.494h-3.453v-10.24zm343.178 2.88c.162-.027 1.396 2.373 2.742 5.335l2.445 5.385-2.945.22c-2.172.162-3.7.503-5.82 1.3l-2.876 1.08.418-.981c1.553-3.632 5.792-12.296 6.036-12.338zm48.32 0c.163-.027 1.397 2.373 2.742 5.335l2.445 5.385-2.945.22c-2.172.162-3.702.503-5.822 1.3l-2.875 1.08.42-.981c1.553-3.632 5.791-12.296 6.035-12.338zm173.76 0c.163-.027 1.397 2.373 2.742 5.335l2.445 5.385-2.945.22c-2.172.162-3.7.503-5.82 1.3l-2.875 1.08.418-.981c1.553-3.632 5.791-12.296 6.035-12.338z" transform="translate(0 -88.217) scale(.0954)"/></svg>