<svg xmlns="http://www.w3.org/2000/svg" width="100" height="30.88"><path d="M306.38 373.48v-.844c0-1.105.958-1.42.958-2.07h5.105c0 .65.957.922.957 2.07v.844h-1.484v-.844h-1.284v.844h-1.483v-.844h-1.285v.844h-1.484zm-9.163-2.02v-.844c0-1.105.957-1.419.957-2.068h5.098c0 .65.965.92.965 2.068v.844h-1.484v-.844h-1.283v.844h-1.486v-.844h-1.283v.844h-1.484zm18.23 0v-.844c0-1.105.958-1.419.958-2.068h5.097c0 .65.965.92.965 2.068v.844h-1.484v-.844H319.7v.844h-1.484v-.844h-1.285v.844h-1.484zm-8.109-1.685v-1.227h5.11v1.227zm-9.164-2.003v-1.228h5.098v1.228zm6.063 0v-1.102c0-1.106 1.063-1.345 1.063-3.09v-.285h-1.063v.277c0 1.147-.87 1.628-.965 2.159h-5.098c-.085-.545-.957-1.054-.957-2.16v-.276h-9.887V348.62c0-5.8 1.166-11.082 3.463-15.697 1.842-3.702 4.409-6.978 7.63-9.738 5.476-4.693 10.899-6.254 11.127-6.318l.291-.082.293.082c.229.064 5.651 1.62 11.127 6.312 3.222 2.76 5.788 6.037 7.63 9.74 2.298 4.615 3.464 9.898 3.464 15.702v14.675h-9.888v.276c0 1.148-.87 1.628-.965 2.16h-5.097c-.085-.546-.958-1.055-.958-2.16v-.276h-1.073v.284c0 1.745 1.065 1.985 1.065 3.09v1.102h-1.487v-.86h-.955v.86h-1.491v-.86h-.926v.86h-1.484v-.86h-.926v.86h-1.491v-.86h-.955v.86h-1.487zm12.168 0v-1.228h5.096v1.228zm121.06-3.936c-.331 0-.826-.073-1.115-.146-2.063-.542-2.981-1.948-3.171-4.851-.045-.652-.102-.596-.772-.766-.46-.118-.686-.144-.686-.475 0-.36.15-.394.388-.406h.84c.158 0 .281-.038.281-.266v-5.355c0-.216-.11-.42-.47-.42-.567 0-.622-.006-.708-.097-.084-.09-.088-.23-.088-.324 0-.3.11-.407.339-.407.03 0 .062.002.107.004l.063.003c.208.01.64.029 1.692.029.415 0 .753-.009 1.12-.019.283-.008.622-.016.927-.016.214 0 .396.032.396.423 0 .352-.198.391-.757.391-.907 0-.841.199-.841.857v4.954a.228.228 0 0 0 .239.23 80.6 80.6 0 0 0 .931-.048h.024c.29-.017.592-.05.64-.05.41 0 .52.201.52.588 0 .453-.153.548-.372.548h-1.752a.23.23 0 0 0-.23.23v1.856c0 1.08.173 2.367.999 2.367.267 0 .359-.115.657-.362.498-.413.953-.445 1.082-.445.6 0 1.003.418 1.003 1.04 0 .645-.646.933-1.286.933zm-94.261-.598c-.168 0-.336-.126-.336-.407 0-.147 0-.535.373-.535 1.526 0 1.65-.071 1.665-.945l.01-.46c.013-.55.024-1.024.024-2.013v-4.02c0-.793.252-4.745 5.22-4.745 1.37 0 2.636.432 3.474 1.186 1.203 1.083 1.787 2.792 1.787 5.225v3.96c0 .983.071 1.402.27 1.601.214.213.65.213 1.373.211h.19c.192 0 .338.2.338.464 0 .335-.127.478-.424.478-.104 0-.422-.012-.766-.025-.472-.018-1.186-.045-1.518-.045-.75 0-1.509.03-2.012.05l-.069.004c-.235.01-.407.016-.501.016-.145 0-.318-.077-.318-.442 0-.15 0-.5.318-.5h.125c.819 0 1.316.001 1.592-.255.27-.25.375-.797.375-1.95v-3.477c0-3.46-1.179-5.143-3.602-5.143-3.267 0-3.755 2.65-3.755 4.229v3.179c0 .988.01 1.463.024 2.012l.01.462c.015.872.139.943 1.666.943.372 0 .372.388.372.535 0 .281-.168.407-.336.407l-.21-.006-.159-.006a71.751 71.751 0 0 0-2.424-.059c-.806 0-1.837.037-2.401.058l-.145.006c-.12.005-.202.007-.23.007zm25.499-.07c-.653 0-1.091-.575-1.091-1.11 0-.537.438-1.11 1.09-1.11.654 0 1.092.573 1.092 1.11 0 .535-.438 1.11-1.091 1.11zm34.003 0c-.653 0-1.093-.575-1.093-1.11 0-.537.44-1.11 1.093-1.11s1.09.573 1.09 1.11c0 .535-.438 1.11-1.09 1.11zm4.728-3.109c-.235 0-.397-.19-.692-.539-.329-.388-.826-.975-1.738-1.661-.11-.089-.171-.163-.171-.385 0-.11.036-.188.11-.233.06-.037.12-.035.173-.038h.87a.174.174 0 0 0 .006-.05v-4.685c0-1.519.78-2.355 2.198-2.355 1.623 0 2.514.832 2.514 1.109 0 .173-.174.46-.372.46-.064 0-.113-.028-.223-.088-.199-.11-.57-.317-.97-.317-1.15 0-1.368.374-1.368 2.351v3.399c0 .062-.004.14.04.183.044.043.13.047.192.047h.001c.843-.006 1.063-.03 1.227-.04.068-.004.11-.006.14-.006.383 0 .654-.015.653.497 0 .545-.201.605-.334.605-.352 0-.657-.01-.866-.022l-.026-.003c-.22-.012-.303-.024-.777-.03h-.003c-.063 0-.154-.003-.199.042-.043.045-.033.133-.03.196.023.625.035 1.003.035 1.156a.385.385 0 0 1-.39.407zm-48.23-1.194c-.109 0-.197-.052-.321-.126-.252-.148-.773-.455-2.171-.738-.179-.034-.286-.066-.286-.42v-.001c0-.096 0-.35.318-.389.754-.075.876-.32.876-.875v-2.407c0-1.503-.055-2.355-.092-2.458-.075-.177-.091-.314-.714-.314-.563 0-.688 0-.688-.442 0-.307.174-.372.32-.372.076 0 .168.004.308.009.335.01.895.028 2.063.028.973 0 1.307-.022 1.451-.031l.025-.001.07-.003c.234 0 .354.137.354.407 0 .408-.186.407-.616.407-.581 0-.703 0-.703 1.033v4.356c0 .068.03.131.08.175.285.243.957.594 1.429.594 1.668 0 1.787-.96 1.787-2.543v-3.145c0-.416-.093-.47-.915-.47-.293 0-.33-.213-.33-.425 0-.37.25-.39.3-.39.036 0 .08.002.148.005.198.01.61.03 1.697.03.523 0 1.543-.035 1.773-.035.282 0 .425.138.425.408 0 .111 0 .407-.354.407-.962 0-.963.24-.963.453v4.215c0 1.814-.887 2.813-2.497 2.813-.812 0-1.575-.414-2.215-.819-.072-.045-.21-.087-.284-.044-.077.044-.07.162-.066.25l.014.329c.004.075.007.128.007.158 0 .092 0 .372-.231.372zm30.576 0c-.108 0-.198-.052-.32-.124-.25-.148-.77-.456-2.171-.74-.265-.053-.286-.195-.286-.42 0-.096 0-.35.318-.388.754-.076.876-.322.876-.878v-4.46c0-.657-.06-.717-.718-.717-.434 0-.722 0-.722-.407 0-.3.131-.407.294-.407v-.001c.107 0 .253.004.389.009h.029c.292.011.733.027 1.661.027.439 0 .803-.01 1.122-.019.31-.009.654-.016.946-.016.215 0 .378.032.378.424 0 .424-.191.39-.9.39-.698 0-.698.199-.698.858v3.987c0 .155.014.346.076.444.201.312.716.641 1.08.641.173 0 .285-.104.44-.247.201-.188.453-.42.912-.42.65 0 1.039.537 1.039 1.057 0 .695-.523 1.162-1.303 1.162-.565 0-1.19-.291-1.86-.865-.073-.062-.224-.136-.31-.092-.085.044-.076.19-.068.286l.022.238.001.025c.013.137.022.226.022.3 0 .136-.067.354-.249.354zm-20.376 0c-.11 0-.197-.053-.319-.125-.25-.148-.772-.456-2.172-.738-.176-.034-.286-.196-.286-.42 0-.097 0-.352.318-.39.754-.076.876-.194.876-.75v-2.533c0-1.504-.054-2.356-.09-2.458-.076-.177-.19-.312-.581-.312-.564 0-.81-.001-.81-.444 0-.307.173-.37.32-.37v-.002c.075 0 .17.003.31.007.334.01.88.028 2.048.028.896 0 1.223-.022 1.364-.03h.023c.032-.003.053-.004.07-.004.235 0 .355.137.355.408 0 .407-.265.407-.6.407-.58 0-.628-.001-.628 1.031v3.794c0 1.28.027 2.107.08 2.455.004.036.089.445-.278.445zm34.002 0c-.108 0-.197-.053-.319-.125-.25-.148-.773-.456-2.172-.738-.176-.034-.286-.196-.286-.42 0-.097 0-.352.318-.39.754-.076.876-.194.876-.75v-2.533c0-1.504-.054-2.356-.09-2.458-.076-.177-.166-.312-.556-.312-.564 0-.847-.001-.847-.444 0-.307.175-.37.321-.37v-.002c.076 0 .168.003.31.007.332.01.893.028 2.06.028.897 0 1.222-.022 1.362-.03h.024c.031-.003.053-.004.07-.004.236 0 .356.137.356.408 0 .407-.264.407-.6.407-.58 0-.627-.001-.627 1.031v3.794c0 1.28.025 2.107.077 2.455a.488.488 0 0 1 .01.075c0 .256-.145.37-.287.37zm-20.506-.176c-1.814 0-3.691-1.644-3.691-4.394 0-2.658 1.461-4.182 4.008-4.182 2.387.001 3.199 2.213 3.199 2.409 0 .17-.259.39-.461.39-.16 0-.252-.142-.342-.28a1.695 1.695 0 0 0-.067-.096c-.47-.675-1.059-.977-1.909-.977-1.762 0-2.701 1.58-2.701 2.719 0 .224.008.425.023.614.011.119.054.208.175.208h4.7c.106 0 .389 0 .389.372 0 .329-.093 3.217-3.323 3.217zm44.543-.062c-2.428 0-4.26-1.832-4.26-4.261 0-2.469 1.792-4.261 4.26-4.261 2.56 0 4.278 1.712 4.278 4.26 0 2.47-1.799 4.262-4.278 4.262zm-30.489-.009c-1.65 0-2.847-1.079-2.847-2.566 0-1.463 1.277-1.965 2.304-2.369.875-.344 1.63-.642 1.63-1.373 0-.23-.068-1.384-1.42-1.384-1.017 0-1.435.696-1.71 1.212-.166.308-.256.562-.502.562-.329 0-.51-.048-.51-.237 0-.102.078-.44.256-1.215.073-.32.122-.514.147-.647.024-.134.054-.318.235-.368.16-.043.29-.007.687-.007.33 0 1.2-.114 1.522-.114 2.642 0 2.9 1.966 2.9 2.568 0 1.675-.886 2.023-2.111 2.505-.33.13-.702.276-1.098.464-.271.136-.725.45-.725 1.017 0 .712.457 1.138 1.225 1.138.728 0 1.284-.457 1.652-1.356l.031-.075c.128-.333.312-.306.495-.306.313 0 .372.131.372.319 0 .107-.025.24-.058.413a6.6 6.6 0 0 0-.135.992c0 .38-.045.6-.397.665-.1.018-1.128.162-1.942.162zm-26.104-.297c-.349 0-.348-.35-.348-.501 0-.35.28-.378.706-.378.034 0 .398.026.49-.164.094-.19.54-1.4.942-2.49.478-1.297 1.459-3.71 1.51-3.827.265-.583.384-.85.657-.85.251 0 .46.231.999 1.521.104.244 1.521 3.45 1.94 4.44.632 1.489.473 1.338 1.435 1.386h.032c.223.024.358.138.358.419 0 .215-.08.444-.3.444-.252 0-.55-.01-.8-.018h-.018c-.264-.009-.52-.018-.765-.018-.24 0-.498.007-.747.017h-.035c-.244.009-.593.018-.825.018-.266 0-.312-.258-.312-.444 0-.293.13-.39.298-.39.895 0 1.038-.058 1.038-.276 0-.395-.228-1.013-1.536-3.929-.04-.087-.113-.225-.207-.228-.094 0-.18.145-.217.232-.677 1.627-1.406 3.635-1.406 4.002 0 .042-.041.176.144.187.18.01.423.002.659.003h.094c.208 0 .288.212.288.396 0 .287-.12.447-.31.447-.167 0-1.915-.035-2.09-.035-.27 0-1.672.035-1.674.035zm40.151 0c-.184 0-.297-.134-.297-.39 0-.245.043-.495.275-.495.55 0 .916-.038 1.019-.286.138-.338.249-.736.4-1.237.284-.928.67-2.2 1.391-4.054l.053-.133c.192-.489.55-1.4.55-1.77 0-.79-.763-2.217-.974-2.33a.72.72 0 0 0-.186.086c-.159.09-.377.213-.682.213-.638 0-1.197-.528-1.197-1.128 0-.67.521-1.215 1.161-1.215.696 0 1.296.268 2.68 3.731.208.532 1.026 2.284 1.818 3.977l.03.065c.602 1.287 1.312 2.794 1.607 3.472.22.513.344.578.955.578.307 0 .449.145.449.432 0 .079.02.262-.101.384a.392.392 0 0 1-.27.1c-.279 0-.55-.01-.788-.018a24.663 24.663 0 0 0-1.623 0c-.267.008-.606.018-.894.018-.19 0-.3-.179-.3-.408 0-.499.276-.502.362-.502l.157.001c.322 0 .782.024.944-.138.048-.046.07-.105.07-.187 0-.224-.335-1.217-1.844-4.374a.221.221 0 0 0-.216-.13.226.226 0 0 0-.207.147c-.82 2.145-1.367 3.732-1.367 4.502 0 .118.044.206.683.206.231 0 .335.247.335.475 0 .368-.271.407-.39.407-.252 0-.52-.009-.82-.017a30.264 30.264 0 0 0-.918-.018c-.393 0-.916.015-1.31.025l-.12.003a18.35 18.35 0 0 1-.435.007zm-28.102-.446c.411 0 1.367-.145 1.367-1.49 0-.342-.13-.4-.419-.4h-2.418c-.073 0-.17.01-.214.067-.044.055-.027.148-.01.215.267 1.067.838 1.608 1.694 1.608zm44.543-.076c2.079 0 2.24-2.628 2.24-3.433 0-2.839-1.217-3.436-2.24-3.436-1.835 0-2.22 1.87-2.22 3.436 0 3.185 1.7 3.433 2.22 3.433zm32.55-10.513c-.13 0-.326-.082-.684-.231-.697-.29-1.858-.804-3.508-1.058-.379-.058-.38-.27-.38-.592 0-.295.152-.489.43-.534 1.545-.141 1.573-.144 1.573-2.646V331.76c0-1.872-.077-5.186-.165-5.431-.128-.296-.313-.611-.915-.611-1.08 0-1.312-.054-1.312-.626 0-.138 0-.507.414-.507.076 0 .18.003.345.01.466.017 1.438.05 3.545.05 1.642 0 2.227-.035 2.478-.05.073-.005.12-.008.154-.008.475 0 .475.41.475.566 0 .565-.213.565-1.045.565-1.11 0-1.2.141-1.2 1.887v7.942c.217.367 1.457.913 2.696.913 2.959 0 3.173-1.685 3.173-4.46v-5.353c0-.813-.101-.929-1.625-.929-.439 0-.5-.32-.5-.595 0-.497.297-.536.387-.536.06 0 .134.003.257.01.346.016 1.064.049 2.882.049.907 0 1.46-.018 1.947-.035l.043-.003c.353-.012.715-.022 1.088-.022.54 0 .538.35.538.533 0 .288-.037.599-.475.599-1.767 0-1.767.499-1.767.9v7.177c0 3.007-1.464 4.663-4.123 4.663-1.715 0-3.017-.68-4.166-1.412a.226.226 0 0 0-.234-.007.226.226 0 0 0-.12.2v5.527c0 2.182.12 3.57.147 3.987.028.417-.094.535-.353.535zm-57.079-.095c-.129 0-.326-.08-.684-.23-.696-.29-1.859-.788-3.505-1.06-.33-.053-.38-.269-.38-.59 0-.296.15-.49.427-.536l.066-.006c1.51-.136 1.508-.136 1.508-2.543v-15.609c0-.394-.058-1.325-.058-1.526 0-.14 0-.565.414-.565.394 0 .474.23.597.426.144.23.28.45.631.45.31 0 .654-.173 1.17-.383.867-.352 1.945-.792 3.375-.792 1.586 0 3.171.61 4.35 1.671 1.455 1.314 2.226 3.248 2.226 5.593 0 2.348-.732 4.258-2.114 5.521-1.146 1.047-2.7 1.623-4.372 1.623-1.263 0-2.183-.273-3.075-.914a.232.232 0 0 0-.245-.02.225.225 0 0 0-.123.204v4.86c0 2.716.06 3.142.135 3.824.003.027.012.13.012.171 0 .374-.19.431-.355.431zm-59.178-.87c-.27 0-.446-.222-.446-.566 0-.256 0-.684.506-.684 2.046 0 2.487-.158 2.514-1.83l.018-.71c.024-.99.042-1.775.042-3.504V331.7c0-1.246-.028-3.1-.09-4.63-.024-.64-.042-1.234-2.394-1.234-.872 0-1.014-.202-1.014-.685 0-.266.066-.566.415-.566.66 0 1.109.06 4.724.06 2.687 0 4.69-.06 5.415-.06.417 0 .475.357.475.623 0 .543-.257.628-1.211.628-2.912 0-2.893.584-2.946 1.632l-.003.175c-.028.842-.055 1.712-.057 5.934a.231.231 0 0 0 .266.228c.925-.149 1.934-.218 3.176-.218 2.11 0 3.893.578 5.155 1.67 1.34 1.16 2.05 2.877 2.05 4.967 0 .322-.065 2.003-1.307 3.53-1.387 1.703-3.663 2.567-6.765 2.567-1.113 0-2.689-.063-3.546-.097a35.528 35.528 0 0 0-.702-.023c-1.39 0-2.908.065-3.724.1h-.04c-.27.012-.45.02-.51.02zm20.587-.12c-.835 0-1.73-.707-1.73-1.76 0-1.055.895-1.763 1.73-1.763.837 0 1.732.709 1.732 1.762 0 1.054-.896 1.76-1.732 1.76zm-12.305-1.131c2.784 0 4.729-2.09 4.729-5.086 0-3.126-2.172-5.146-5.536-5.146-1.527 0-1.527.445-1.527.96v6.97c-.013 1.09.03 1.734.306 2.012.287.29.906.29 2.028.29zm20.114-4.163c-.34 0-.62-.328-1.082-.873-.563-.665-1.415-1.668-2.974-2.842-.203-.162-.246-.29-.246-.558 0-.293.18-.445.358-.445h1.422c.149 0 .195-.04.195-.172v-7.906c0-3.21 1.966-3.884 3.615-3.884 2.769 0 4.153 1.424 4.153 1.76 0 .24-.25.656-.504.656-.076 0-.148-.04-.32-.134-.35-.194-1.003-.554-1.715-.554-2.254 0-2.455 1.07-2.455 4.13v5.872c0 .062.023.119.068.163a.24.24 0 0 0 .164.067c1.665-.012 2.58-.093 2.969-.127.15-.014.228-.02.281-.021.748-.014.985.337.985.924 0 .2-.001.805-.477.805h-3.758a.232.232 0 0 0-.23.234c.008.827.037 1.33.061 1.708.015.243.027.435.027.633 0 .388-.278.564-.537.564zm10.096 0c-.34 0-.62-.328-1.082-.873-.563-.665-1.415-1.668-2.974-2.842-.203-.162-.247-.29-.247-.558 0-.293.18-.445.357-.445h1.424c.149 0 .193-.04.193-.172v-7.906c0-3.21 1.966-3.884 3.616-3.884 2.768 0 4.152 1.424 4.152 1.76 0 .24-.249.656-.504.656-.076 0-.147-.04-.319-.134-.35-.194-1.002-.554-1.714-.554-2.255 0-2.456 1.07-2.456 4.13v5.872c0 .062.023.119.067.163a.243.243 0 0 0 .166.067c1.665-.012 2.578-.093 2.967-.127.151-.014.228-.02.282-.021.747-.014.984.337.984.924 0 .2 0 .805-.476.805h-3.759a.228.228 0 0 0-.162.068.23.23 0 0 0-.068.166c.008.827.04 1.33.063 1.708.015.243.027.435.027.633 0 .388-.278.564-.537.564zm-16.708-2.032c-.15 0-.278-.076-.48-.195-.432-.256-1.333-.789-3.741-1.274-.24-.049-.383-.27-.383-.592 0-.156.001-.482.43-.536 1.373-.137 1.605-.609 1.605-1.617v-4.097c0-2.167-.072-4.027-.165-4.237-.17-.396-.389-.61-1.064-.61-1.08 0-1.312-.054-1.312-.626 0-.138 0-.505.414-.505.13 0 .29.004.511.011.564.018 1.507.049 3.526.049 1.515 0 2.083-.038 2.325-.053.075-.005.124-.007.16-.007.474 0 .474.41.474.565 0 .544-.258.566-.895.566-1.11 0-1.2.141-1.2 1.886v6.459c0 2.186.048 3.6.141 4.202.008.05.01.08.01.104 0 .35-.178.507-.356.507zm69.293 0c-.15 0-.28-.077-.48-.195-.433-.256-1.334-.789-3.741-1.274-.24-.048-.381-.27-.381-.592 0-.156 0-.48.428-.535 1.374-.137 1.605-.61 1.605-1.618v-7.595c0-1.185-.163-1.35-1.347-1.35-.75 0-1.105 0-1.105-.565 0-.511.312-.565.445-.565.184 0 .355.005.614.014.496.018 1.244.044 2.855.044.718 0 1.314-.016 1.89-.03h.023c.48-.015.977-.028 1.497-.028.456 0 .624.044.624.594 0 .595-.25.536-1.402.536-1.318 0-1.318.465-1.318 1.588v6.788c0 .29.026.633.164.841.53.806 1.529 1.135 1.932 1.135.345 0 .561-.199.837-.454.327-.303.735-.682 1.464-.682 1.029 0 1.644.85 1.644 1.672 0 1.125-.82 1.852-2.09 1.852-1.08 0-2.29-.642-3.6-1.907-.07-.069-.19-.113-.28-.073-.09.04-.114.15-.11.249.024.51.063.892.092 1.176.02.198.038.37.038.498 0 .155.052.476-.298.476zm12.416-.33a5.77 5.77 0 0 1-3.773-1.442c-1.094-.97-1.696-2.261-1.696-3.638 0-1.884.617-3.22 1.888-4.084.065-.044.132-.105.133-.183.002-.074-.06-.15-.12-.195-1.156-.852-1.873-1.699-1.873-3.284 0-.752.512-1.424 1.271-1.76.073-.033.166-.088.174-.166.007-.07-.047-.155-.1-.21-1.117-1.12-2.15-2.217-2.15-3.86 0-2.01 1.319-2.986 4.033-2.986 1.27 0 3.708.162 5.772 1.243 2.022 1.06 3.047 2.643 3.047 4.766 0 .363-.061 1.338-.538 2.003-.696.973-1.905 1.506-3.705 1.506h-4.426c-.884 0-1.228.227-1.228.81 0 .868.554 1.38.916 1.62.115.078.26.074.33.05.66-.222 1.614-.262 1.956-.262 3.444 0 5.5 1.989 5.5 5.32 0 .708-.483 2.133-1.048 2.86.115.168.287.306.644.306.413 0 .552-.438.778-.78.289-.435.65-.978 1.302-.978.711 0 1.311.56 1.311 1.223 0 .557-.236 1.853-2.418 1.853-.538 0-1.277-.087-2.234-.76a.227.227 0 0 0-.26-.004c-.97.647-2.272 1.033-3.486 1.033zm-53.736-.089c-2.735 0-4.72-1.784-4.72-4.244 0-2.403 2.04-3.206 3.842-3.915 1.47-.578 2.856-1.124 2.856-2.455 0-1.961-1.6-2.485-2.544-2.485-1.809 0-2.498 1.291-2.955 2.145-.272.508-.47.876-.815.876-.175 0-.713 0-.713-.356 0-.179.653-3.052.687-3.23.034-.178.167-.327.325-.327 1.23 0 2.433-.238 3.44-.238 4.688 0 5.052 3.248 5.052 4.243 0 2.766-1.472 3.345-3.51 4.147 0 0-1.208.475-1.882.797-.488.244-1.307.807-1.307 1.844 0 1.275.85 2.067 2.216 2.067 1.295 0 2.28-.805 2.929-2.39l.016-.039c.188-.492.468-.533.763-.533.303 0 .505.167.505.416 0 .171-.044.396-.1.68-.081.418-.193.99-.228 1.714 0 .325-.124.903-.583 1.008-.142.037-1.9.275-3.274.275zm20.09-.479c-.58 0-.506-.543-.506-.775 0-.43.586-.476.835-.476 1.389 0 1.677 0 1.677-2.634v-4.665c0-3.645 1.189-5.2 3.974-5.2 1.057 0 2.746.451 4.24 1.453a8.068 8.068 0 0 1-.05-.768c0-.288.215-.596.536-.596.434 0 1.66.483 3.466.78.862.135 1.135.196 1.135.565 0 .461-.064.744-.45.744-.094 0-.963-.12-1.19-.12-.532 0-.572.367-.572.928v5.624c0 1.717.177 3.546.243 4.235.02.216.027.28.027.309 0 .379-.217.596-.595.596-.379 0-.77-.023-1.147-.045a19.585 19.585 0 0 0-1.127-.044c-1.217 0-2.066.09-2.532.09-.387 0-.456-.262-.456-.776 0-.476.55-.476 1.132-.476 1.469 0 1.68-.1 1.68-1.617v-7.746c0-.764-1.71-1.408-2.786-1.408-1.955 0-2.753.973-2.753 3.353v8.073c0 .412-.06.596-.415.596-.164 0-.424-.013-.754-.03h-.018a37.018 37.018 0 0 0-1.83-.059c-.631 0-1.046.037-1.365.065-.161.014-.29.025-.4.025zm33.765-.562c2.11 0 2.337-2.408 2.337-3.443 0-1.631-.319-4.368-2.455-4.368-2.188 0-2.515 2.12-2.515 3.382 0 2.94.886 4.428 2.633 4.428zm-41.292-.03c3.143 0 3.803-3.434 3.803-6.313 0-3.846-1.186-5.715-3.622-5.715-2.095 0-3.113 1.243-3.113 3.8v5.444c0 1.743 1.097 2.784 2.932 2.784zm38.528-13.698h4.418c2.115 0 2.986-.447 2.986-2.02 0-1.92-1.485-3.202-4.817-3.202-3.832 0-4.13 1.971-4.13 2.575 0 1.48 1.544 2.647 1.544 2.647z" style="fill:#003594" transform="matrix(.5442 0 0 -.5442 -156.367 203.25)"/><path d="M309.84 365.49c-.962 0-1.742-.78-1.742-1.742v-2.578h-18.602v-11.12h40.698v11.12h-18.612v2.578c0 .962-.78 1.742-1.741 1.742zm-11.256-6.577c1.831 0 3.32-1.49 3.32-3.32a3.326 3.326 0 0 0-3.32-3.322 3.327 3.327 0 0 0-3.322 3.323c0 1.829 1.49 3.319 3.322 3.319zm22.548 0c1.831 0 3.32-1.49 3.32-3.32a3.325 3.325 0 0 0-3.32-3.322 3.327 3.327 0 0 0-3.322 3.323c0 1.829 1.49 3.319 3.322 3.319zm-28.039-25.73c1.668-3.13 3.908-5.92 6.672-8.303 4.422-3.812 8.908-5.457 10.08-5.843 1.172.386 5.658 2.028 10.08 5.839 2.766 2.383 5.008 5.175 6.676 8.307h-33.507zm16.783-2.222c1.831 0 3.32-1.491 3.32-3.323a3.322 3.322 0 0 0-6.642 0 3.327 3.327 0 0 0 3.322 3.323z" style="fill:#fff" transform="matrix(.5442 0 0 -.5442 -156.367 203.25)"/><path d="M289.5 350.05v-1.434c0-5.441 1.08-10.381 3.21-14.682.125-.252.255-.502.388-.75h33.507c.13.246.26.495.383.746 2.13 4.3 3.21 9.242 3.21 14.687v1.434H289.5zm4.852-1.789h4.43v-4.428h4.429v-4.431h4.428v-4.43h-4.428v4.43h-4.43v-4.43h-4.43v4.43h4.43v4.431h-4.43zm8.872 0h4.428v-4.428h4.432v4.428h4.426v-4.428h4.43v4.428h4.43v-4.428h-4.43v-4.431h4.43v-4.43h-4.43v4.43h-4.43v-4.43h-4.426v4.43h-4.432v4.431h-4.428zm8.86-8.859h4.426v4.431h-4.426z" style="fill:#ffb81c" transform="matrix(.5442 0 0 -.5442 -156.367 203.25)"/></svg>