<svg xmlns="http://www.w3.org/2000/svg" version="1.1" id="Ebene_1" x="0" y="0" xml:space="preserve" width="100" height="25.709"><style type="text/css" id="style835">.st0{fill:#7a00e6}</style><g id="g7511" transform="translate(-.624 -.612) scale(.0874)"><path id="path837" d="M474.3 201.6v-82.4c0-1.8-.1-3.6.2-5.3.9-6.6 4.3-11.3 10.8-13.5 20.7-7.2 41.9-12 63.8-13.8 15.4-1.3 30.8-1.2 46.1 1.1 11.2 1.7 22 4.7 32 10 19.6 10.3 30.5 26.8 34.2 48.4 1 5.6 1.3 11.2 1.3 16.8v125.3c-.2 5.8-2.8 8.6-8.6 8.7-12.2.1-24.4.1-36.6 0-5.5 0-8.2-2.8-8.6-8.3-.1-1.4 0-2.9 0-4.3V172.5c0-4.8-.3-9.7-1.8-14.3-4.1-12.2-13.2-18.6-25.2-21.3-9.9-2.2-19.8-1.5-29.8-.5-4.6.4-9.2 1.4-13.7 2.5-7.8 1.8-10.1 4.8-10.1 12.8v136.9c-.2 5.4-3 8.3-8.5 8.4-6.4.1-12.9 0-19.3 0-5.6 0-11.3.1-16.9 0-6.6-.1-9.3-2.9-9.3-9.5v-85.9z"/><path id="path839" d="M166.2 296.9c-6.1 0-12.2.1-18.3 0-6.2-.1-8.3-2.9-6.6-9.1 1.2-4.5 2.2-9 2.3-13.7.2-11.9-4.7-21.1-14.2-27.9-7-5-14.8-8.4-22.9-11-13.4-4.3-27-8.3-40.4-12.6-10.9-3.5-21.3-7.9-30.8-14.4-16-11-24-26.2-24.9-45.5-1.7-34.9 17.7-60.6 49.6-72 14.7-5.2 30-7 45.5-6.6 24.7.7 48.4 5.6 70.8 16.2 3.2 1.5 6.3 3.1 9.4 4.9 6.4 3.6 8 8.1 5.3 14.9-1 2.5-2.2 5-3.3 7.5-3.1 6.5-6.1 13.1-9.3 19.6-3.6 7.4-9.4 9.4-16.6 5.5-12-6.5-24.4-12.1-37.8-15.3-13.1-3.1-26.3-4.4-39.6-1.4-4.1.9-8 2.4-11.5 4.8-10.2 7.1-10.6 19.5-.9 27.2 4.3 3.4 9.3 5.6 14.5 7.5 12.5 4.6 25.5 7.7 38.2 11.6 11.8 3.6 23.5 7.7 34.4 13.6 7.5 4.1 14.5 8.9 20.5 15 12.7 12.9 18.2 28.8 18.7 46.6.3 8-.4 16-2.6 23.8-.3 1.2-.7 2.5-1.1 3.7-2 5.4-4.4 7.1-10.1 7.2-6.1 0-12.2-.1-18.3-.1z"/><path id="path841" d="M950.9 187.1c0-31.8-.1-63.6 0-95.4 0-14.1 2.2-27.8 7.8-40.9 9.8-22.7 27.6-35.7 51.3-41 16.7-3.7 33.5-3.7 50.2-.2.3.1.6.1.9.2 8.2 1.9 10 4.6 8.4 13-1.4 7.3-2.7 14.5-4.1 21.7-1.4 7.5-4 9.4-11.7 8.3-6-.8-12.1-1.9-18.2-1.8-3.4.1-6.8.5-10 1.3-12.2 2.9-19.3 11.8-20.7 25.3-.3 2.9-.4 5.8-.5 8.7-.1 3.4-.1 3.5 3.3 3.5h47.8c7.3 0 9.8 2.6 9.9 9.9.1 8.7.1 17.3 0 26 0 7.3-2.6 9.7-10 9.7h-49.2c-1.2 0-1.7.6-1.7 1.8v3.9c0 48-.1 96 .1 144.1 0 8-2 12-11.6 11.7-10.6-.3-21.2-.3-31.8 0-7.4.2-10.3-4.1-10.2-10.2.1-33.1 0-66.4 0-99.6z"/><path id="path843" d="M1149.7 193.3v93.9c-.1 7.2-2.6 9.7-10 9.7h-28c-2.6 0-5.1.1-7.7 0-4.9-.2-7.7-2.8-8.2-7.7-.2-1.4-.1-2.9-.1-4.3V101.8c0-9.8 2.2-11.9 11.8-11.9h32.3c7.2 0 9.8 2.6 9.9 9.9v93.5z"/><path id="path845" d="M1151.4 36c.1 13.7-6.7 23.7-18.6 27.1-6.6 1.9-13.3 1.8-19.9-.1-13.3-3.9-19.4-15-19-28.9.1-2.2.4-4.5.9-6.7 2.5-10.3 8.9-16.9 19.2-19.3 6.8-1.6 13.7-1.3 20.4 1.1 10.5 3.8 15.6 11.7 16.9 22.5.2 1.4.1 2.9.1 4.3z" class="st0" style="fill:#7a00e6"/><path id="path847" d="M64.7 272.3c-.2 3.1-.3 5.9-1 8.8-2.9 10.9-10 17.3-20.9 19.4-5.7 1.1-11.5.8-17.1-1-8.9-2.9-14.9-8.7-17.3-17.8-1.8-6.8-1.7-13.7.5-20.4 2.9-8.7 9-14.2 17.9-16.5 6.2-1.6 12.4-1.4 18.6.2 10.8 2.8 18.1 11.5 19.1 22.7.1 1.6.2 3.2.2 4.6z" class="st0" style="fill:#7a00e6"/><path id="path849" d="M424 116.2c-.4-7.7-3.8-13.1-11.4-15.5-.5-.1-.9-.3-1.4-.5-20-7.4-40.5-12.2-61.8-13.8-15.1-1.1-30.2-1.2-45 2.3-36.5 8.6-61.5 30.2-73.1 66.1-9 27.9-8 56.1 1.3 83.7 6.9 20.6 19.7 36.9 38.7 48 15 8.8 31.4 13 48.5 14 19.7 1.2 39.1-.3 58.4-4.7 12.1-2.8 23.8-6.6 35.2-11.4 6.4-2.7 9.9-7.4 10.5-14.3.1-1.6.1-3.2.1-4.8V120.4c0-1.3.1-2.8 0-4.2zm-61.5 130.4c-15.2 4.8-30.8 6.8-46.5 2.7-15.6-4.1-26.2-14.1-31.4-29.2-6.1-17.5-6.2-35.4-.1-52.9 6.8-19.4 21.3-29.5 41.6-31.3 10.8-.9 21.5.1 32 2.9 1.2.3 2.5.7 3.7 1.1 6.2 2.3 8.3 5.2 8.4 11.9.1 14 0 27.9 0 41.9 0 13.8-.1 27.6 0 41.4 0 5.8-2.4 9.8-7.7 11.5z"/><path id="path851" d="M906.4 159.2c-9.2-32-28.8-54.8-60.2-66.5-20-7.4-40.7-8.8-61.7-5-31.6 5.7-55.5 22.5-69.7 51.4-15.8 32.2-16.6 65.6-4.2 99 10.7 28.9 31.5 47.9 60.7 57.5 17.5 5.7 35.6 6.9 53.8 4.2 32.5-4.7 57.1-21.2 72.7-50.2 9.4-17.5 13-36.4 13.1-60.3-.1-7.5-1.3-18.9-4.5-30.1zm-55.1 62.3c-8.1 22.1-27.4 31.5-48.6 29.5-5.5-.5-10.8-1.5-15.9-3.6-12.3-5.1-20.6-14.1-25-26.5-6.5-18.5-6.5-37.2.2-55.6 7-19.3 23.2-30 43.8-29.7 4.8.1 9.6.5 14.3 1.7 15.3 4 25.8 13.5 31.2 28.1 6.8 18.7 6.8 37.6 0 56.1z"/></g></svg>