<svg xmlns="http://www.w3.org/2000/svg" width="100" height="40.115" xml:space="preserve"><path d="M0 37.322h19.443v2.783H0Zm0-5.339h19.443v2.793H0Zm5.547-5.329h8.34v2.793h-8.34Zm0-5.329h8.34v2.794h-8.34Zm0-5.328h8.34v2.793h-8.34Zm0-5.34h8.34v2.794h-8.34ZM0 5.33h19.443v2.793H0ZM0 0h19.443v2.793H0Zm22.217 34.776H52.12a9.924 9.924 0 0 0 1.109-2.793H22.217Zm27.575-13.45H27.773v2.793H52.12a11.177 11.177 0 0 0-2.328-2.794zm-22.019-5.33v2.794h22.019a10.393 10.393 0 0 0 2.328-2.793zM52.12 5.33H22.217v2.793h31.012a12.088 12.088 0 0 0-1.11-2.793zM42.928 0H22.217v2.793h27.852A10.515 10.515 0 0 0 42.928 0ZM27.773 10.658h8.33v2.793h-8.33zm16.67 2.793h8.717c.247-.891.376-1.832.376-2.793h-9.093zm-16.67 13.203h8.33v2.793h-8.33zm16.67 0v2.793h9.093c0-.96-.129-1.901-.376-2.793zM22.217 40.085l20.71.03c2.774 0 5.28-1.07 7.152-2.793H22.217Zm33.34-2.763h13.886v2.783H55.557Zm0-5.339h13.886v2.793H55.557Zm5.546-5.329h8.34v2.793h-8.34zm0-5.329h8.34v2.794h-8.34ZM73.306 5.33h-17.75v2.793h18.711ZM71.464 0H55.557v2.793h16.868zm14.64 37.322H100v2.783H86.103Zm0-5.339H100v2.793H86.103Zm0-5.329h8.34v2.793h-8.34zm0-5.329h8.34v2.794h-8.34zm0-2.535h8.34v-2.793H78.555l-.783 2.258-.782-2.258H61.103v2.793h8.34v-2.566l.882 2.566h14.897l.881-2.566zm8.34-8.132H80.397l-.96 2.793h15.005ZM84.092 0l-.961 2.793H100V0Zm-6.32 40.085.961-2.763h-1.921zm-1.842-5.309h3.685l.99-2.793H74.95zm-1.872-5.329h7.429l.98-2.793h-9.39zm-1.862-5.328H83.36l.95-2.794H71.237ZM61.103 13.45H76.11l-.96-2.793H61.103ZM81.29 8.122H100V5.33H82.24Z" style="fill:#1f70c1;stroke-width:.1"/></svg>