<svg xmlns="http://www.w3.org/2000/svg" xml:space="preserve" version="1.1" id="svg863" width="100" height="16.617"><style id="style860">.st0{fill:#fff}.st1{opacity:.95;fill:#3060f2}.st2{fill:none;stroke:#000;stroke-miterlimit:10}.st3{fill:#89e62d}.st4{fill:#333}.st5{fill:#101010}.st6{fill:#f23050}.st7{fill:#f26030}.st8{fill:#2bd8d8}.st9{fill:#30c2f2}.st10{fill:#f29130}.st11{fill:#f2c230}.st12{fill:#e0e000}.st13{fill:#b7e62c}.st14{fill:#2ee62e}.st15{fill:#2ee67a}.st16{fill:#2ee6b8}.st17{fill:#3091f2}.st18{fill:#3060f2}.st19{fill:#3030f2}.st20{fill:#6030f2}.st21{fill:#9130f2}.st22{fill:#c230f2}.st23{fill:#f230f2}.st24{fill:#f23091}.st25{fill:#151515}.st26{fill:#9f9}.st27{fill:#9433ff}.st28{fill:#a14dff}.st29{fill:#33f}.st30{fill:#ff3394}.st31{fill:#f3f}.st32{fill:#f33}.st33{fill:#3394ff}.st34{fill:#ff9433}.st35{fill:#2cd9d9}.st36{fill:#2bd97e}.st37{fill:#2bd92b}.st38{fill:#7ed92b}.st39{fill:#d9d900}.st40{fill:#a1ba00}.st41{fill:#353535}.st42{fill:url(#SVGID_17_)}.st43{fill:url(#SVGID_18_)}.st44{fill:url(#SVGID_19_)}.st45{fill:url(#SVGID_20_)}.st46{fill:url(#SVGID_21_)}.st47{fill:url(#SVGID_22_)}.st48{fill:url(#SVGID_23_)}.st49{fill:url(#SVGID_24_)}.st50{fill:url(#SVGID_25_)}.st51{fill:url(#SVGID_26_)}.st52{fill:url(#SVGID_27_)}.st53{fill:url(#SVGID_28_)}.st54{fill:url(#SVGID_29_)}.st55{fill:url(#SVGID_30_)}.st56{fill:url(#SVGID_31_)}.st57{fill:url(#SVGID_32_)}.st58{fill:#993033}.st59{fill:url(#SVGID_33_)}.st60{fill:url(#SVGID_34_)}.st61{fill:url(#SVGID_35_)}.st62{fill:url(#SVGID_36_)}.st63{fill:url(#SVGID_37_)}.st64{fill:url(#SVGID_38_)}.st65{fill:url(#SVGID_39_)}.st66{fill:url(#SVGID_40_)}.st67{fill:none;stroke:#000;stroke-width:.5;stroke-miterlimit:10}.st68{fill:#ccc}.st69{fill:none;stroke:#ccc;stroke-miterlimit:10}.st70{fill:#3c0}.st71{fill:red}.st72{fill:url(#SVGID_41_)}.st73{fill:url(#SVGID_42_)}.st74{fill:url(#SVGID_43_)}.st75{fill:url(#SVGID_44_)}.st76{fill:url(#SVGID_45_)}.st77{fill:url(#SVGID_46_)}.st78{fill:url(#SVGID_47_)}.st79{fill:url(#SVGID_48_)}.st80{fill:url(#SVGID_49_)}.st81{fill:url(#SVGID_50_)}.st82{fill:url(#SVGID_51_)}.st83{fill:url(#SVGID_52_)}.st84{fill:url(#SVGID_53_)}.st85{fill:url(#SVGID_54_)}.st86{fill:url(#SVGID_55_)}.st87{fill:url(#SVGID_56_)}.st88{fill:url(#SVGID_57_)}.st89{fill:url(#SVGID_58_)}.st90{fill:url(#SVGID_59_)}.st91{fill:url(#SVGID_60_)}.st92{fill:url(#SVGID_61_)}.st93{fill:url(#SVGID_62_)}.st94{fill:url(#SVGID_63_)}.st95{fill:url(#SVGID_64_)}.st96{fill:url(#SVGID_65_)}.st97{fill:url(#SVGID_66_)}.st98{fill:url(#SVGID_67_)}.st99{fill:url(#SVGID_68_)}.st100{fill:#999}.st101{fill:#a3f}.st102{fill:#a9c200}.st103{fill:#4a003a}.st104{fill:#33c733}.st105{fill:#ffc733}.st106{fill:none;stroke:red;stroke-miterlimit:10}.st107{opacity:.2}.st108{fill:#bfbfbf}.st109{fill:#ff1d1d}.st110{fill:#666}.st111{fill:#949494}.st112{fill:#c7c7c7}.st113{fill:#fff;stroke:#000;stroke-miterlimit:10}.st114{fill:#6533ff}.st115{fill:#93f}.st116{fill:#f23030}.st117{fill:#2ee68a}.st118{fill:#5be62e}.st119{fill:#f230c2}.st120,.st121{fill:none;stroke-miterlimit:10}.st120{stroke:red;stroke-width:3}.st121{stroke:#e73b3b}.st122{fill:#f0f0f0}.st123{fill:#8d30f2}.st124,.st125{fill:none}.st125{clip-path:url(#SVGID_88_);stroke:#000;stroke-miterlimit:10}.st126{clip-path:url(#SVGID_90_)}.st127{clip-path:url(#SVGID_104_)}.st128{clip-path:url(#SVGID_108_);fill:none;stroke:#000;stroke-miterlimit:10}.st129{clip-path:url(#SVGID_110_)}.st130{clip-path:url(#SVGID_116_)}.st131{fill:#1d1d1b}.st132{fill:none;stroke:#1d1d1b;stroke-miterlimit:10}.st133{fill:#74e62e}.st134{fill:none;stroke:#000;stroke-width:.25;stroke-miterlimit:10}.st135{fill:#e6e6e6}.st136{fill:#1f1f1f}.st137{fill:#7a7a7a}.st138{fill:#c1f22e}.st139{fill:#90f22f}.st140{fill:#30f230}.st141{fill:#30f280}.st142{fill:#30f2c2}.st143{fill:#7345ff}.st144{fill:#a64dff}.st145{fill:#d34dff}.st146{fill:#ff5aff}.st147{fill:#ff4ca5}.st148{fill:#f63}.st149{fill:#f93}.st150{fill:#fc3}.st151{fill:#f2f200}.st152{fill:#ff3354}.st153{fill:#2de6e6}.st154{fill:#3cf}.st155{fill:#409fff}.st156{fill:#3f6eff}.st157{fill:#3c3cf2}.st158{fill:#5a5a5a}.st159{fill:#c8c8c8}.st160{fill:#e1e1e1}.st161{fill:#ebebeb}.st162{fill:#f5f5f5}.st163{fill:#1e1e1e}.st164{fill:#0c9}.st165{fill:#d7d7d9}.st166{fill:#cc2976}.st167{fill:#cc5e92}.st168{fill:#dae62e}.st169{fill:#b52ee6}.st170{fill:#f9e62e}.st171{fill:url(#SVGID_143_)}.st172{fill:url(#SVGID_144_)}.st173{clip-path:url(#SVGID_146_)}.st174{clip-path:url(#SVGID_150_)}.st175{clip-path:url(#SVGID_154_)}.st176{clip-path:url(#SVGID_158_)}.st177{clip-path:url(#SVGID_162_)}.st178{fill:#bdff33}.st179{clip-path:url(#SVGID_178_)}.st180{opacity:.5}.st181{fill:#1f5bff}.st182{fill:#73f}.st183{fill:url(#SVGID_205_)}.st184{fill:url(#SVGID_206_)}.st185{fill:url(#SVGID_207_)}.st186{fill:url(#SVGID_208_)}.st187{fill:url(#SVGID_209_)}.st188{fill:url(#SVGID_210_)}.st189{fill:url(#SVGID_211_)}.st190{fill:url(#SVGID_212_)}.st191{fill:url(#SVGID_213_)}.st192{fill:url(#SVGID_214_)}.st193{fill:url(#SVGID_215_)}.st194{fill:url(#SVGID_216_)}.st195{fill:url(#SVGID_217_)}.st196{fill:url(#SVGID_218_)}.st197{fill:url(#SVGID_219_)}.st198{fill:url(#SVGID_220_)}.st199{fill:url(#SVGID_221_)}.st200{fill:url(#SVGID_222_)}.st201{fill:url(#SVGID_223_)}.st202{fill:url(#SVGID_224_)}.st203{fill:url(#SVGID_225_)}.st204{fill:url(#SVGID_226_)}.st205{fill:url(#SVGID_227_)}.st206{fill:url(#SVGID_228_)}.st207{fill:url(#SVGID_229_)}.st208{fill:url(#SVGID_230_)}.st209{opacity:.8}.st210,.st211{opacity:.9}.st211{fill:#fff}.st212{opacity:.8;fill:#1f5bff}.st213{fill:#307df2}.st215{display:inline}</style><path d="M4.44 11.205c.042.634.084 2.452 2.663 2.452.381 0 2.368 0 2.368-1.818 0-.761-.296-1.268-1.353-1.522l-3.89-1.015C3.128 9.006.296 8.287.296 4.947.254 2.41 2.199 0 6.934 0c6.216 0 6.47 3.383 6.47 5.074h-4.44c0-.465.042-2.199-2.072-2.199-1.268 0-2.072.719-2.072 1.692 0 1.183.973 1.437 1.607 1.606l2.96.761c2.114.55 4.608 1.227 4.608 4.567 0 3.552-3.044 5.116-7.018 5.116-1.65 0-4.313-.254-5.75-1.903C.041 13.446.041 11.881 0 11.204ZM16.575.38h4.059v9.725l3.763-4.863h4.609l-3.763 4.651 4.312 6.385h-4.989l-3.932-6.131v6.13h-4.06zM36.49 4.862c3.594 0 6.384 1.819 6.384 5.709 0 1.606-.465 3.213-1.606 4.397-.93.888-2.284 1.564-4.567 1.564-2.452 0-4.017-.592-5.116-1.649-1.268-1.226-1.564-2.875-1.564-4.186 0-3.382 2.071-5.835 6.469-5.835m-1.65 8.5c.466.845 1.227.887 1.607.887 1.819 0 2.157-1.945 2.157-3.51 0-1.902-.465-3.509-2.114-3.509-1.818 0-2.157 1.86-2.157 3.51 0 .719.043 1.776.508 2.621M45.369.381h4.144v15.898h-4.144ZM60.21 5.285v2.622h-2.664v3.805c0 1.353 0 1.988 1.607 1.988.338 0 .508 0 1.015-.085v2.58c-.55.084-1.269.21-2.664.21-3.298 0-3.974-1.099-3.974-3.213V7.907h-2.072V5.285h2.156V3.552l3.975-1.565v3.298zm5.37 6.3c0 .592 0 2.664 2.114 2.664 1.1 0 1.776-.592 1.903-1.607h3.848c-.296 2.791-2.918 3.848-5.75 3.848-3.849 0-5.92-1.945-5.92-5.581 0-3.679 1.818-6.089 5.877-6.089 3.087 0 4.524 1.269 5.243 2.833.465.93.634 1.987.634 3.932zm4.017-2.24c-.042-.635-.17-2.326-1.987-2.326-1.819 0-1.945 1.776-1.988 2.325zm13.319-.254c0-1.015-.38-1.903-1.48-1.903-1.522 0-1.86 1.522-1.86 3.467 0 2.875.803 3.51 1.818 3.51 1.395 0 1.48-1.396 1.48-2.241h4.186c0 2.79-2.241 4.566-5.582 4.566-3.51 0-6.215-1.86-6.215-5.835 0-4.355 3.044-5.835 6.173-5.835 1.184 0 3.171.212 4.482 1.565.93 1.014 1.015 2.03 1.057 2.663h-4.06zM88.159.38h4.186v6.046c.423-.423 1.437-1.438 3.467-1.438 1.1 0 2.156.296 3.087 1.142 1.099.972 1.099 2.199 1.099 3.72v6.428h-4.101v-5.92c0-.93 0-2.748-1.734-2.748-1.31 0-1.607 1.1-1.734 1.522-.126.507-.126 1.226-.126 2.114v4.99h-4.144z" id="fbd7fffe-cabd-410b-b6db-c80eacf22093" style="stroke-width:.42282444"/></svg>