<svg xmlns="http://www.w3.org/2000/svg" viewBox="0 0 236.5 39.3" style="enable-background:new 0 0 236.4 39.3" xml:space="preserve"><style>.st0{fill:#fff}.st1{opacity:.95;fill:#3060f2}.st2{fill:none;stroke:#000;stroke-miterlimit:10}.st3{fill:#89e62d}.st4{fill:#333}.st5{fill:#101010}.st6{fill:#f23050}.st7{fill:#f26030}.st8{fill:#2bd8d8}.st9{fill:#30c2f2}.st10{fill:#f29130}.st11{fill:#f2c230}.st12{fill:#e0e000}.st13{fill:#b7e62c}.st14{fill:#2ee62e}.st15{fill:#2ee67a}.st16{fill:#2ee6b8}.st17{fill:#3091f2}.st18{fill:#3060f2}.st19{fill:#3030f2}.st20{fill:#6030f2}.st21{fill:#9130f2}.st22{fill:#c230f2}.st23{fill:#f230f2}.st24{fill:#f23091}.st25{fill:#151515}.st26{fill:#9f9}.st27{fill:#9433ff}.st28{fill:#a14dff}.st29{fill:#33f}.st30{fill:#ff3394}.st31{fill:#f3f}.st32{fill:#f33}.st33{fill:#3394ff}.st34{fill:#ff9433}.st35{fill:#2cd9d9}.st36{fill:#2bd97e}.st37{fill:#2bd92b}.st38{fill:#7ed92b}.st39{fill:#d9d900}.st40{fill:#a1ba00}.st41{fill:#353535}.st42{fill:url(#SVGID_17_)}.st43{fill:url(#SVGID_18_)}.st44{fill:url(#SVGID_19_)}.st45{fill:url(#SVGID_20_)}.st46{fill:url(#SVGID_21_)}.st47{fill:url(#SVGID_22_)}.st48{fill:url(#SVGID_23_)}.st49{fill:url(#SVGID_24_)}.st50{fill:url(#SVGID_25_)}.st51{fill:url(#SVGID_26_)}.st52{fill:url(#SVGID_27_)}.st53{fill:url(#SVGID_28_)}.st54{fill:url(#SVGID_29_)}.st55{fill:url(#SVGID_30_)}.st56{fill:url(#SVGID_31_)}.st57{fill:url(#SVGID_32_)}.st58{fill:#993033}.st59{fill:url(#SVGID_33_)}.st60{fill:url(#SVGID_34_)}.st61{fill:url(#SVGID_35_)}.st62{fill:url(#SVGID_36_)}.st63{fill:url(#SVGID_37_)}.st64{fill:url(#SVGID_38_)}.st65{fill:url(#SVGID_39_)}.st66{fill:url(#SVGID_40_)}.st67{fill:none;stroke:#000;stroke-width:.5;stroke-miterlimit:10}.st68{fill:#ccc}.st69{fill:none;stroke:#ccc;stroke-miterlimit:10}.st70{fill:#3c0}.st71{fill:red}.st72{fill:url(#SVGID_41_)}.st73{fill:url(#SVGID_42_)}.st74{fill:url(#SVGID_43_)}.st75{fill:url(#SVGID_44_)}.st76{fill:url(#SVGID_45_)}.st77{fill:url(#SVGID_46_)}.st78{fill:url(#SVGID_47_)}.st79{fill:url(#SVGID_48_)}.st80{fill:url(#SVGID_49_)}.st81{fill:url(#SVGID_50_)}.st82{fill:url(#SVGID_51_)}.st83{fill:url(#SVGID_52_)}.st84{fill:url(#SVGID_53_)}.st85{fill:url(#SVGID_54_)}.st86{fill:url(#SVGID_55_)}.st87{fill:url(#SVGID_56_)}.st88{fill:url(#SVGID_57_)}.st89{fill:url(#SVGID_58_)}.st90{fill:url(#SVGID_59_)}.st91{fill:url(#SVGID_60_)}.st92{fill:url(#SVGID_61_)}.st93{fill:url(#SVGID_62_)}.st94{fill:url(#SVGID_63_)}.st95{fill:url(#SVGID_64_)}.st96{fill:url(#SVGID_65_)}.st97{fill:url(#SVGID_66_)}.st98{fill:url(#SVGID_67_)}.st99{fill:url(#SVGID_68_)}.st100{fill:#999}.st101{fill:#a3f}.st102{fill:#a9c200}.st103{fill:#4a003a}.st104{fill:#33c733}.st105{fill:#ffc733}.st106{fill:none;stroke:red;stroke-miterlimit:10}.st107{opacity:.2}.st108{fill:#bfbfbf}.st109{fill:#ff1d1d}.st110{fill:#666}.st111{fill:#949494}.st112{fill:#c7c7c7}.st113{fill:#fff;stroke:#000;stroke-miterlimit:10}.st114{fill:#6533ff}.st115{fill:#93f}.st116{fill:#f23030}.st117{fill:#2ee68a}.st118{fill:#5be62e}.st119{fill:#f230c2}.st120,.st121{fill:none;stroke-miterlimit:10}.st120{stroke:red;stroke-width:3}.st121{stroke:#e73b3b}.st122{fill:#f0f0f0}.st123{fill:#8d30f2}.st124,.st125{fill:none}.st125{clip-path:url(#SVGID_88_);stroke:#000;stroke-miterlimit:10}.st126{clip-path:url(#SVGID_90_)}.st127{clip-path:url(#SVGID_104_)}.st128{clip-path:url(#SVGID_108_);fill:none;stroke:#000;stroke-miterlimit:10}.st129{clip-path:url(#SVGID_110_)}.st130{clip-path:url(#SVGID_116_)}.st131{fill:#1d1d1b}.st132{fill:none;stroke:#1d1d1b;stroke-miterlimit:10}.st133{fill:#74e62e}.st134{fill:none;stroke:#000;stroke-width:.25;stroke-miterlimit:10}.st135{fill:#e6e6e6}.st136{fill:#1f1f1f}.st137{fill:#7a7a7a}.st138{fill:#c1f22e}.st139{fill:#90f22f}.st140{fill:#30f230}.st141{fill:#30f280}.st142{fill:#30f2c2}.st143{fill:#7345ff}.st144{fill:#a64dff}.st145{fill:#d34dff}.st146{fill:#ff5aff}.st147{fill:#ff4ca5}.st148{fill:#f63}.st149{fill:#f93}.st150{fill:#fc3}.st151{fill:#f2f200}.st152{fill:#ff3354}.st153{fill:#2de6e6}.st154{fill:#3cf}.st155{fill:#409fff}.st156{fill:#3f6eff}.st157{fill:#3c3cf2}.st158{fill:#5a5a5a}.st159{fill:#c8c8c8}.st160{fill:#e1e1e1}.st161{fill:#ebebeb}.st162{fill:#f5f5f5}.st163{fill:#1e1e1e}.st164{fill:#0c9}.st165{fill:#d7d7d9}.st166{fill:#cc2976}.st167{fill:#cc5e92}.st168{fill:#dae62e}.st169{fill:#b52ee6}.st170{fill:#f9e62e}.st171{fill:url(#SVGID_143_)}.st172{fill:url(#SVGID_144_)}.st173{clip-path:url(#SVGID_146_)}.st174{clip-path:url(#SVGID_150_)}.st175{clip-path:url(#SVGID_154_)}.st176{clip-path:url(#SVGID_158_)}.st177{clip-path:url(#SVGID_162_)}.st178{fill:#bdff33}.st179{clip-path:url(#SVGID_178_)}.st180{opacity:.5}.st181{fill:#1f5bff}.st182{fill:#73f}.st183{fill:url(#SVGID_205_)}.st184{fill:url(#SVGID_206_)}.st185{fill:url(#SVGID_207_)}.st186{fill:url(#SVGID_208_)}.st187{fill:url(#SVGID_209_)}.st188{fill:url(#SVGID_210_)}.st189{fill:url(#SVGID_211_)}.st190{fill:url(#SVGID_212_)}.st191{fill:url(#SVGID_213_)}.st192{fill:url(#SVGID_214_)}.st193{fill:url(#SVGID_215_)}.st194{fill:url(#SVGID_216_)}.st195{fill:url(#SVGID_217_)}.st196{fill:url(#SVGID_218_)}.st197{fill:url(#SVGID_219_)}.st198{fill:url(#SVGID_220_)}.st199{fill:url(#SVGID_221_)}.st200{fill:url(#SVGID_222_)}.st201{fill:url(#SVGID_223_)}.st202{fill:url(#SVGID_224_)}.st203{fill:url(#SVGID_225_)}.st204{fill:url(#SVGID_226_)}.st205{fill:url(#SVGID_227_)}.st206{fill:url(#SVGID_228_)}.st207{fill:url(#SVGID_229_)}.st208{fill:url(#SVGID_230_)}.st209{opacity:.8}.st210,.st211{opacity:.9}.st211{fill:#fff}.st212{opacity:.8;fill:#1f5bff}.st213{fill:#307df2}.st215{display:inline}</style><path d="M10.5 26.5c.1 1.5.2 5.8 6.3 5.8.9 0 5.6 0 5.6-4.3 0-1.8-.7-3-3.2-3.6L10 22C7.4 21.3.7 19.6.7 11.7.6 5.7 5.2 0 16.4 0c14.7 0 15.3 8 15.3 12H21.2c0-1.1.1-5.2-4.9-5.2-3 0-4.9 1.7-4.9 4 0 2.8 2.3 3.4 3.8 3.8l7 1.8c5 1.3 10.9 2.9 10.9 10.8 0 8.4-7.2 12.1-16.6 12.1-3.9 0-10.2-.6-13.6-4.5-2.8-3-2.8-6.7-2.9-8.3h10.5zM39.2.9h9.6v23l8.9-11.5h10.9l-8.9 11 10.2 15.1H58.1L48.8 24v14.5h-9.6zm47.1 10.6c8.5 0 15.1 4.3 15.1 13.5 0 3.8-1.1 7.6-3.8 10.4-2.2 2.1-5.4 3.7-10.8 3.7-5.8 0-9.5-1.4-12.1-3.9-3-2.9-3.7-6.8-3.7-9.9 0-8 4.9-13.8 15.3-13.8m-3.9 20.1c1.1 2 2.9 2.1 3.8 2.1 4.3 0 5.1-4.6 5.1-8.3 0-4.5-1.1-8.3-5-8.3-4.3 0-5.1 4.4-5.1 8.3 0 1.7.1 4.2 1.2 6.2M107.3.9h9.8v37.6h-9.8zm35.1 11.6v6.2h-6.3v9c0 3.2 0 4.7 3.8 4.7.8 0 1.2 0 2.4-.2v6.1c-1.3.2-3 .5-6.3.5-7.8 0-9.4-2.6-9.4-7.6V18.7h-4.9v-6.2h5.1V8.4l9.4-3.7v7.8h6.2zm12.7 14.9c0 1.4 0 6.3 5 6.3 2.6 0 4.2-1.4 4.5-3.8h9.1c-.7 6.6-6.9 9.1-13.6 9.1-9.1 0-14-4.6-14-13.2 0-8.7 4.3-14.4 13.9-14.4 7.3 0 10.7 3 12.4 6.7 1.1 2.2 1.5 4.7 1.5 9.3h-18.8zm9.5-5.3c-.1-1.5-.4-5.5-4.7-5.5s-4.6 4.2-4.7 5.5h9.4zm31.5-.6c0-2.4-.9-4.5-3.5-4.5-3.6 0-4.4 3.6-4.4 8.2 0 6.8 1.9 8.3 4.3 8.3 3.3 0 3.5-3.3 3.5-5.3h9.9c0 6.6-5.3 10.8-13.2 10.8-8.3 0-14.7-4.4-14.7-13.8 0-10.3 7.2-13.8 14.6-13.8 2.8 0 7.5.5 10.6 3.7 2.2 2.4 2.4 4.8 2.5 6.3h-9.6zM208.5.9h9.9v14.3c1-1 3.4-3.4 8.2-3.4 2.6 0 5.1.7 7.3 2.7 2.6 2.3 2.6 5.2 2.6 8.8v15.2h-9.7v-14c0-2.2 0-6.5-4.1-6.5-3.1 0-3.8 2.6-4.1 3.6-.3 1.2-.3 2.9-.3 5v11.8h-9.8V.9z" id="fbd7fffe-cabd-410b-b6db-c80eacf22093"/></svg>