<svg xmlns="http://www.w3.org/2000/svg" xml:space="preserve" width="100" height="25.444"><defs><clipPath id="a"><path d="M0 0h595.276v841.89H0Z"/></clipPath><clipPath id="b"><path d="M0 0h595.276v841.89H0Z"/></clipPath><clipPath id="c"><path d="M0 0h595.276v841.89H0Z"/></clipPath><clipPath id="d"><path d="M0 0h595.276v841.89H0Z"/></clipPath><clipPath id="e"><path d="M0 0h595.276v841.89H0Z"/></clipPath></defs><path transform="matrix(.88194 0 0 -.88194 -379.434 841.283)" d="M430.229 953.897h113.386v-28.85H430.229Z" style="fill:#006b94;fill-opacity:1;fill-rule:nonzero;stroke:none"/><g transform="matrix(.88194 0 0 -.88194 -384.996 684.999)" clip-path="url(#a)"><path transform="translate(452.312 760.794)" d="m0 0-1.079.245-1.635-5.24a8.41 8.41 0 0 1-.345-1.488s-.111.733-.378 1.566L-5.05.123h-1.291l-1.535-5.084c-.178-.589-.334-1.51-.334-1.51s-.1.677-.356 1.521L-10.135.245l-1.168-.3 2.414-7.527h1.28l1.568 5.251c.156.534.279 1.321.279 1.321s.111-.787.266-1.265l1.68-5.307h1.291z" style="fill:#fff;fill-opacity:1;fill-rule:nonzero;stroke:none"/><path transform="translate(457.443 756.276)" d="M0 0c0 1.499-.534 2.653-2.125 2.653-1.725 0-2.692-1.454-2.692-2.964 0-2.131 1.023-2.875 2.458-2.875.846 0 1.413.277 2.058.843l-.612.656c-.4-.377-.801-.599-1.301-.599-1.146 0-1.413 1.054-1.391 1.953l3.594.011C-.011-.222 0-.1 0 0m-1.102.477L-3.527.466c.1.656.59 1.377 1.313 1.377.812 0 1.157-.644 1.112-1.366" style="fill:#fff;fill-opacity:1;fill-rule:nonzero;stroke:none"/></g><path transform="matrix(.88194 0 0 -.88194 -379.434 841.283)" d="M453.827 938.165h-1.235v-1.188h1.235zm-.055-2.153h-1.146l-.044-5.596h1.145z" style="fill:#fff;fill-opacity:1;fill-rule:nonzero;stroke:none"/><g transform="matrix(.88194 0 0 -.88194 -384.996 684.999)" clip-path="url(#b)"><path transform="translate(469.776 757.286)" d="M0 0c.011.867-.39 1.643-1.591 1.643-.712 0-1.402-.443-1.847-.988-.167.666-.734.988-1.413.988-1.101 0-1.758-.943-1.824-1.01 0 .034.044.622.044.889h-1.112l-.034-5.596h1.158l.022 3.819c.344.411.834.866 1.357.866.456 0 .779-.277.779-.788l-.022-3.897h1.157l.021 3.797c.346.41.846.888 1.369.888.456 0 .767-.277.767-.788l-.022-3.897h1.157z" style="fill:#fff;fill-opacity:1;fill-rule:nonzero;stroke:none"/><path transform="translate(476.466 753.523)" d="m0 0-.323.6C-.511.488-.623.433-.757.433c-.3 0-.356.144-.345.633l.034 2.83c.011.977-.657 1.51-1.535 1.51-.701 0-1.647-.266-2.426-1.043l.568-.633c.701.643 1.179.766 1.535.766.445 0 .712-.211.712-.81v-.5c-1.891-.322-3.137-.722-3.137-1.998 0-1.044.601-1.621 1.646-1.621.623 0 1.168.344 1.58.833.022-.567.412-.833.901-.833.323 0 .723.134 1.224.433m-2.225 2.464-.011-1.387C-2.548.689-2.959.41-3.371.41c-.523 0-.846.29-.846.801 0 .754.579 1.009 1.992 1.253" style="fill:#fff;fill-opacity:1;fill-rule:nonzero;stroke:none"/><path transform="translate(480.403 758.863)" d="M0 0a1.405 1.405 0 0 1-.434.066c-.745 0-1.179-.599-1.524-1.209.033.422.033 1.088.033 1.088h-1.101l-.044-5.596h1.157l.033 3.552c.378.744.857 1.077 1.302 1.077.111 0 .233-.023.333-.044z" style="fill:#fff;fill-opacity:1;fill-rule:nonzero;stroke:none"/><path transform="translate(447.027 766.484)" d="M0 0c0 .955-.557 1.688-1.502 1.843.412.166 1.424.455 1.424 1.798 0 1.798-1.624 1.965-2.77 1.965-.445 0-2.036-.067-2.036-.067l-.067-7.703s1.458-.045 1.969-.045C-1.402-2.209 0-1.587 0 0m-1.335 3.552c0-.776-.546-1.32-1.669-1.32h-.723l.011 2.442s.334.022.801.022c.512 0 1.58 0 1.58-1.144m.066-3.53c0-.854-.711-1.309-1.657-1.309-.312 0-.823.011-.823.011l.011 2.597h.768c1.301 0 1.701-.41 1.701-1.299" style="fill:#fff;fill-opacity:1;fill-rule:nonzero;stroke:none"/><path transform="translate(453.627 764.63)" d="m0 0-.323.6C-.512.489-.623.433-.757.433c-.3 0-.356.145-.344.633l.033 2.831c.011.976-.657 1.509-1.535 1.509-.701 0-1.647-.266-2.426-1.043l.568-.633c.7.644 1.179.766 1.535.766.445 0 .712-.211.712-.81v-.5c-1.891-.322-3.137-.722-3.137-1.998 0-1.044.601-1.621 1.646-1.621.623 0 1.168.344 1.58.833.022-.567.412-.833.901-.833C-.901-.433-.501-.3 0 0m-2.225 2.464-.011-1.387C-2.548.688-2.959.411-3.371.411c-.523 0-.845.288-.845.799 0 .755.578 1.01 1.991 1.254" style="fill:#fff;fill-opacity:1;fill-rule:nonzero;stroke:none"/><path transform="translate(459.123 769.915)" d="M0 0h-1.168l-.022-3.808c-.423-.522-.912-.876-1.413-.876-.59 0-.902.243-.89.887L-3.449 0h-1.168l-.033-4.03c-.012-.943.4-1.687 1.635-1.687.779 0 1.38.433 1.902.999a25.399 25.399 0 0 1-.033-.877h1.101z" style="fill:#fff;fill-opacity:1;fill-rule:nonzero;stroke:none"/><path transform="translate(465.645 768.327)" d="M0 0c.011 1.077-.489 1.709-1.602 1.709-.701 0-1.446-.455-1.891-.965.089 1.199.055 2.409.067 3.608h-1.168l-.056-8.359h1.168L-3.46-.2c.356.4.879.877 1.446.877.545 0 .835-.266.835-.821l-.023-3.863h1.169z" style="fill:#fff;fill-opacity:1;fill-rule:nonzero;stroke:none"/><path transform="translate(472.333 764.63)" d="m0 0-.322.6C-.511.489-.623.433-.757.433c-.3 0-.356.145-.344.633l.033 2.831c.011.976-.656 1.509-1.535 1.509-.701 0-1.647-.266-2.426-1.043l.568-.633c.701.644 1.179.766 1.535.766.445 0 .712-.211.712-.81v-.5c-1.891-.322-3.137-.722-3.137-1.998 0-1.044.601-1.621 1.646-1.621.624 0 1.168.344 1.58.833.023-.567.412-.833.902-.833C-.901-.433-.501-.3 0 0m-2.225 2.464-.011-1.387C-2.547.688-2.959.411-3.371.411c-.523 0-.845.288-.845.799 0 .755.578 1.01 1.991 1.254" style="fill:#fff;fill-opacity:1;fill-rule:nonzero;stroke:none"/><path transform="translate(477.829 769.915)" d="M0 0h-1.168l-.022-3.808c-.423-.522-.913-.876-1.413-.876-.59 0-.902.243-.89.887L-3.449 0h-1.168l-.033-4.03c-.011-.943.4-1.687 1.635-1.687.779 0 1.38.433 1.903.999-.011-.122-.022-.499-.034-.877h1.101z" style="fill:#fff;fill-opacity:1;fill-rule:nonzero;stroke:none"/><path transform="translate(483.238 769.592)" d="M0 0c-.456.3-1.179.444-1.802.444-1.046 0-2.091-.555-2.091-1.643 0-2.009 2.658-1.398 2.658-2.575 0-.533-.567-.788-1.012-.788-.49 0-.912.155-1.302.388l-.434-.755c.534-.333 1.18-.466 1.836-.466.99 0 2.114.622 2.114 1.731 0 1.977-2.67 1.422-2.67 2.565 0 .556.534.711 1.045.711.401 0 .891-.155 1.213-.333z" style="fill:#fff;fill-opacity:1;fill-rule:nonzero;stroke:none"/></g><path transform="matrix(.88194 0 0 -.88194 -379.434 841.283)" d="M478.133 943.944h3.227v.932h-3.227z" style="fill:#fff;fill-opacity:1;fill-rule:nonzero;stroke:none"/><g transform="matrix(.88194 0 0 -.88194 -384.996 684.999)" clip-path="url(#c)"><path transform="translate(495.475 772.024)" d="M0 0h-1.101l-.068-4.829c-.021-1.243-.666-2.02-1.946-2.02-1.201 0-1.835.666-1.824 1.865L-4.906 0h-1.179l-.034-4.851c-.011-1.987 1.002-2.976 2.96-2.976 1.913 0 3.081.989 3.104 2.953z" style="fill:#fff;fill-opacity:1;fill-rule:nonzero;stroke:none"/><path transform="translate(502.151 768.36)" d="M0 0c.011.943-.401 1.676-1.635 1.676-.779 0-1.38-.422-1.903-.988.012.122.022.488.033.866h-1.101l-.044-5.595h1.156l.034 3.819c.423.521.912.877 1.413.877.589 0 .901-.244.89-.888l-.033-3.808h1.156z" style="fill:#fff;fill-opacity:1;fill-rule:nonzero;stroke:none"/></g><path transform="matrix(.88194 0 0 -.88194 -379.434 841.283)" d="M498.963 949.272h-1.235v-1.188h1.235zm-.055-2.153h-1.147l-.045-5.595h1.147z" style="fill:#fff;fill-opacity:1;fill-rule:nonzero;stroke:none"/><g transform="matrix(.88194 0 0 -.88194 -384.996 684.999)" clip-path="url(#d)"><path transform="translate(511.697 769.737)" d="m0 0-1.035.3-1.146-3.008c-.356-.933-.512-1.488-.512-1.488s-.167.699-.478 1.609l-.99 2.898L-5.296 0l1.97-5.417h1.112z" style="fill:#fff;fill-opacity:1;fill-rule:nonzero;stroke:none"/><path transform="translate(517.248 767.384)" d="M0 0c0 1.499-.534 2.653-2.125 2.653-1.724 0-2.692-1.454-2.692-2.964 0-2.131 1.023-2.875 2.458-2.875.846 0 1.413.277 2.059.844l-.612.655c-.401-.378-.801-.6-1.301-.6-1.147 0-1.413 1.055-1.392 1.954l3.594.011C-.011-.222 0-.1 0 0m-1.101.477L-3.526.466c.1.656.589 1.377 1.313 1.377.812 0 1.156-.644 1.112-1.366" style="fill:#fff;fill-opacity:1;fill-rule:nonzero;stroke:none"/><path transform="translate(521.764 769.97)" d="M0 0a1.38 1.38 0 0 1-.434.067c-.745 0-1.179-.6-1.524-1.21.033.422.033 1.088.033 1.088h-1.101l-.045-5.595h1.157l.033 3.552c.379.744.857 1.077 1.303 1.077.111 0 .233-.022.333-.045z" style="fill:#fff;fill-opacity:1;fill-rule:nonzero;stroke:none"/><path transform="translate(526.303 769.592)" d="M0 0c-.457.3-1.179.444-1.802.444-1.046 0-2.092-.555-2.092-1.643 0-2.009 2.659-1.398 2.659-2.575 0-.533-.567-.788-1.012-.788-.49 0-.913.155-1.302.388l-.434-.755c.534-.333 1.18-.466 1.836-.466.99 0 2.113.622 2.113 1.731 0 1.977-2.669 1.422-2.669 2.565 0 .556.533.711 1.045.711.401 0 .891-.155 1.213-.333z" style="fill:#fff;fill-opacity:1;fill-rule:nonzero;stroke:none"/></g><path transform="matrix(.88194 0 0 -.88194 -379.434 841.283)" d="M522.778 949.272h-1.235v-1.188h1.235zm-.056-2.153h-1.145l-.045-5.595h1.146z" style="fill:#fff;fill-opacity:1;fill-rule:nonzero;stroke:none"/><g transform="matrix(.88194 0 0 -.88194 -384.996 684.999)" clip-path="url(#e)"><path transform="translate(534.21 764.708)" d="m0 0-.412.655c-.2-.133-.489-.288-.757-.288-.356 0-.678.166-.678.755l.011 3.219h1.68v.865h-1.669l.011 1.976h-1.157l-.011-1.976h-.924v-.865h.912l-.021-3.198c-.011-1.21.512-1.654 1.602-1.654.5 0 .978.234 1.413.511" style="fill:#fff;fill-opacity:1;fill-rule:nonzero;stroke:none"/><path d="M538.626 772.024h-1.124v-1.143h1.124zm-1.903 0H535.6v-1.143h1.123zm3.349-7.393-.323.599c-.189-.111-.3-.167-.434-.167-.3 0-.355.145-.344.633l.033 2.831c.011.977-.656 1.51-1.536 1.51-.701 0-1.647-.267-2.425-1.044l.567-.632c.702.644 1.18.766 1.535.766.446 0 .712-.212.712-.811v-.5c-1.89-.321-3.137-.721-3.137-1.998 0-1.043.601-1.621 1.647-1.621.623 0 1.169.345 1.579.833.023-.566.413-.833.902-.833.322 0 .724.134 1.224.434m-2.226 2.464-.01-1.388c-.312-.388-.723-.666-1.135-.666-.523 0-.846.289-.846.8 0 .755.578 1.01 1.991 1.254" style="fill:#fff;fill-opacity:1;fill-rule:nonzero;stroke:none"/><path transform="translate(544.2 764.708)" d="m0 0-.412.655c-.2-.133-.489-.288-.757-.288-.355 0-.678.166-.678.755l.011 3.219h1.68v.865h-1.669l.012 1.976h-1.158l-.011-1.976h-.924v-.865h.913l-.022-3.198c-.011-1.21.512-1.654 1.602-1.654.501 0 .979.234 1.413.511" style="fill:#fff;fill-opacity:1;fill-rule:nonzero;stroke:none"/></g></svg>