<svg xmlns="http://www.w3.org/2000/svg" height="27.762" width="100" xml:space="preserve"><path d="M1490.37 182.891h5.98c6.46 0 7.26-1.446 7.26-12.266v-39.414c0-7.43-.8-10.164-9.04-10.164h-5.17v-7.922h45.23v7.922h-2.27c-8.24 0-9.04 2.734-9.04 10.164v26.496c0 15.176 8.07 23.563 19.86 23.563 8.72 0 14.21-5.157 14.21-16.622v-33.437c0-7.43-.8-10.164-9.04-10.164h-2.26v-7.922h44.25v7.922h-4.2c-8.24 0-9.04 2.734-9.04 10.164v38.117c0 17.449-12.28 24.551-28.1 24.551-13.09 0-22.29-5.488-27.78-18.574h-.33v17.929c-7.91-.968-22.28-1.933-30.52-1.933zm-12.76-31.973v3.723c0 27.129-10.82 39.238-36.82 39.238-27.13 0-38.76-17.766-38.76-41.672s11.63-41.66 38.76-41.66c26.98 0 35.05 13.887 35.21 27.773h-16.48c-.16-12.117-5-18.418-16.79-18.418-19.87 0-20.03 20.032-20.03 31.016zm-54.91 9.367c0 13.574 4.04 24.707 17.93 24.707s17.28-11.465 17.28-24.707zm-61.53 5.488c0-14.043-4.04-20.832-12.76-20.832-8.55 0-14.05 6.133-14.05 20.676 0 14.051 4.85 19.375 13.89 19.375 7.75 0 12.92-4.512 12.92-19.219m6.78-66.21c0-7.422-5-15.188-20.34-15.188-13.57 0-18.9 6.465-18.9 14.375 0 8.566 4.85 15.664 19.38 15.664 14.05 0 19.86-6.621 19.86-14.851m23.42 93.027-23.9-2.102c-4.52 1.289-11.95 3.391-18.73 3.391-21.16 0-35.05-12.109-35.05-27.785 0-14.688 9.21-21.961 21.32-25.84v-.32c-11.14-.969-15.83-5.012-15.83-10.168 0-5.489 3.72-8.243 14.54-10.34v-.324c-11.31-1.122-24.7-7.11-24.7-20.184 0-13.086 11.13-23.418 36.66-23.418 27.12 0 41.98 8.875 41.98 23.895 0 19.062-15.18 21.32-30.36 22.453-17.77 1.289-20.68 2.91-20.68 7.429 0 5.325 7.27 6.133 12.6 6.946l3.88.644c22.61 3.719 29.71 15.828 29.71 28.75 0 6.942-3.07 13.242-7.1 16.309v.32h15.66zm-190.73-9.699h5.98c6.46 0 7.26-1.446 7.26-12.266v-39.414c0-7.43-.8-10.164-9.04-10.164h-5.17v-7.922h45.22v7.922h-2.26c-8.23 0-9.04 2.734-9.04 10.164v26.496c0 15.176 8.07 23.563 19.86 23.563 8.72 0 14.21-5.157 14.21-16.622v-33.437c0-7.43-.8-10.164-9.03-10.164h-2.27v-7.922h44.25v7.922h-4.2c-8.23 0-9.03 2.734-9.03 10.164v38.117c0 17.449-12.29 24.551-28.11 24.551-13.09 0-22.29-5.488-27.78-18.574h-.32v17.929c-7.92-.968-22.29-1.933-30.53-1.933zm-43.76 36.015c0-6.941 4.19-12.109 11.78-12.109 7.6 0 11.79 5.168 11.79 12.109 0 6.946-4.19 12.121-11.79 12.121-7.59 0-11.78-5.175-11.78-12.121m-10.99-36.015h5.98c6.46 0 7.27-1.446 7.27-12.266v-39.414c0-7.43-.81-10.164-9.05-10.164h-5.17v-7.922h47.16v7.922h-4.2c-8.23 0-9.04 2.734-9.04 10.164v62.023c-10.34-.968-24.71-1.933-32.95-1.933zm-108.51 0h5.96c6.46 0 7.27-1.446 7.27-12.266v-39.414c0-7.43-.81-10.164-9.04-10.164h-5.17v-7.922h45.22v7.922h-2.26c-8.23 0-9.05 2.734-9.05 10.164v26.496c0 15.176 8.08 23.563 19.87 23.563 8.72 0 14.21-5.157 14.21-16.622v-33.437c0-7.43-.8-10.164-9.04-10.164h-2.27v-7.922h44.26v7.922h-4.2c-8.24 0-9.05 2.734-9.05 10.164v38.117c0 17.449-12.27 24.551-28.1 24.551-13.08 0-22.29-5.488-27.78-18.574h-.32v17.929c-7.91-.968-22.29-1.933-30.51-1.933zm-88.349-30.684c0-23.906 11.621-41.66 38.762-41.66 27.127 0 38.757 17.754 38.757 41.66 0 23.906-11.63 41.672-38.757 41.672-27.141 0-38.762-17.766-38.762-41.672m20.672 0c0 21.965 4.84 32.297 18.09 32.297 13.237 0 18.087-10.332 18.087-32.297 0-21.961-4.85-32.305-18.087-32.305-13.25 0-18.09 10.344-18.09 32.305m-100.648 30.684h6.937c6.457 0 7.27-1.446 7.27-12.266v-39.414c0-7.43-.813-10.164-9.039-10.164h-5.168v-7.922h51.515v7.922h-8.558c-8.242 0-9.047 2.734-9.047 10.164v26.496c0 13.555 7.426 23.563 14.855 23.563 6.301 0 8.082-4.512 8.243-12.586h15.5v23.25c-3.711 1.3-8.235 1.945-12.918 1.945-13.082 0-22.282-5.488-27.782-18.574h-.32v17.929c-7.91-.968-22.289-1.933-31.488-1.933zm-37.633-17.118c0-14.043-4.039-20.832-12.762-20.832-8.558 0-14.047 6.133-14.047 20.676 0 14.051 4.852 19.375 13.887 19.375 7.75 0 12.922-4.512 12.922-19.219m6.781-66.21c0-7.422-5-15.188-20.351-15.188-13.559 0-18.891 6.465-18.891 14.375 0 8.566 4.844 15.664 19.379 15.664 14.055 0 19.863-6.621 19.863-14.851m23.418 93.027-23.902-2.102c-4.516 1.289-11.949 3.391-18.735 3.391-21.152 0-35.043-12.109-35.043-27.785 0-14.688 9.2-21.961 21.325-25.84v-.32c-11.157-.969-15.832-5.012-15.832-10.168 0-5.489 3.707-8.243 14.527-10.34v-.324c-11.301-1.122-24.707-7.11-24.707-20.184 0-13.086 11.144-23.418 36.668-23.418 27.129 0 41.988 8.875 41.988 23.895 0 19.062-15.191 21.32-30.367 22.453-17.762 1.289-20.672 2.91-20.672 7.429 0 5.325 7.27 6.133 12.602 6.946l3.867.644c22.613 3.719 29.723 15.828 29.723 28.75 0 6.942-3.075 13.242-7.11 16.309v.32h15.668v10.344M1713.42 343.43h14.21v-50.715c0-7.43-.81-10.176-9.04-10.176h-5.17v-7.91h51.52v7.91h-8.55c-8.25 0-9.05 2.746-9.05 10.176v50.715h21.16v9.363h-21.16v15.988c0 9.688 3.87 14.375 10.49 14.375 5.98 0 8.07-3.554 8.07-14.211h13.57v21.309c-6.46 1.301-13.57 2.277-21.48 2.277-29.38 0-30.36-17.773-30.36-39.738h-14.21zm-87.37-29.727c0-23.898 11.63-41.652 38.76-41.652 27.13 0 38.76 17.754 38.76 41.652 0 23.906-11.63 41.68-38.76 41.68-27.13 0-38.76-17.774-38.76-41.68m20.67 0c0 21.973 4.84 32.305 18.09 32.305 13.24 0 18.08-10.332 18.08-32.305 0-21.953-4.84-32.297-18.08-32.297-13.25 0-18.09 10.344-18.09 32.297m-99.81-37.14-7.75-19.708c-2.09-5.652-4.2-9.042-10.34-9.042h-7.26v-7.911h43.28v7.911h-5.33c-6.3 0-8.07 1.457-8.07 4.855 0 2.578 1.61 6.289 2.58 8.562l31.66 75.735c2.25 5.332 3.71 7.91 7.1 7.91h3.55v7.918h-34.24v-7.918h6.78c2.76 0 3.88-.48 3.88-2.734 0-1.465-.81-3.391-1.78-5.664l-14.68-37.618-13.26 35.848c-.96 2.578-2.1 4.844-2.1 7.266 0 2.265 1.62 2.902 4.37 2.902h5.97v7.918h-40.04v-7.918h2.41c3.88 0 5.82-2.422 9.06-10.168zm-108.2 66.867h14.22v-46.348c0-20.031 9.03-25.363 25.36-25.363 15.66 0 24.69 7.746 24.69 25.039v3.547h-13.55v-8.235c0-6.941-2.59-10.007-8.41-10.007-5.81 0-8.4 3.066-8.4 10.007v51.36h25.84v9.363h-25.84v22.773h-14.05c-1.28-16.308-4.84-20.996-19.86-22.773zm-42.8 36.98c0-6.941 4.2-12.109 11.79-12.109 7.59 0 11.79 5.168 11.79 12.109 0 6.945-4.2 12.121-11.79 12.121-7.59 0-11.79-5.176-11.79-12.121m-10.98-36.015h5.97c6.46 0 7.28-1.454 7.28-12.274v-39.406c0-7.43-.82-10.176-9.04-10.176h-5.18v-7.91h47.17v7.91h-4.2c-8.25 0-9.05 2.746-9.05 10.176v62.012c-10.34-.965-24.72-1.934-32.95-1.934zm-77.36-67.188c4.69-1.934 16.47-5.156 29.73-5.156 16.94 0 34.87 7.258 34.87 26.152 0 12.277-6.13 16.965-20.03 21.485l-13.23 4.355c-7.43 2.422-11.64 6.789-11.64 12.922 0 6.465 4.69 9.531 12.12 9.531 11.63 0 14.69-5.168 14.69-17.609h13.58v22.129c-4.7 2.101-15.52 4.367-27.78 4.367-19.06 0-32.31-8.887-32.31-23.586 0-12.598 9.05-19.383 27.78-25.027 14.86-4.524 17.13-8.086 17.13-14.055 0-7.43-6.8-11.785-17.13-11.785-11.15 0-14.21 7.429-14.21 18.886h-13.57zm-83.84 67.188h6.95c6.45 0 7.25-1.454 7.25-12.274v-39.406c0-7.43-.8-10.176-9.04-10.176h-5.16v-7.91h51.51v7.91h-8.56c-8.23 0-9.04 2.746-9.04 10.176v26.484c0 13.567 7.43 23.574 14.86 23.574 6.29 0 8.07-4.519 8.23-12.585h15.52v23.25c-3.73 1.289-8.25 1.945-12.93 1.945-13.09 0-22.28-5.5-27.78-18.574h-.31v17.918c-7.93-.965-22.3-1.934-31.5-1.934zm-11.8-31.981v3.719c0 27.129-10.82 39.25-36.82 39.25-27.13 0-38.76-17.774-38.76-41.68 0-23.898 11.63-41.652 38.76-41.652 26.98 0 35.06 13.879 35.21 27.765h-16.47c-.17-12.109-5.01-18.41-16.8-18.41-19.87 0-20.02 20.032-20.02 31.008zm-54.9 9.375c0 13.555 4.03 24.707 17.93 24.707 13.88 0 17.27-11.465 17.27-24.707zm-59.76 23.086h6.77c3.71 0 4.69-.969 4.69-2.102 0-1.289-.33-2.898-.8-4.023l-16.8-47.977h-.33l-15.51 45.547c-.48 1.621-1.45 3.555-1.45 5.653 0 1.777 1.61 2.902 6.46 2.902h5.34v7.918h-40.39v-7.918h1.94c3.55 0 4.52-.969 6.62-6.301l25.04-64.922h19.06l25.02 65.735c1.62 4.199 3.08 5.488 6.46 5.488h2.1v7.918h-34.22zm-89.81 35.535c0-6.941 4.2-12.109 11.78-12.109 7.6 0 11.8 5.168 11.8 12.109 0 6.945-4.2 12.121-11.8 12.121-7.58 0-11.78-5.176-11.78-12.121m-10.983-36.015h5.973c6.46 0 7.26-1.454 7.26-12.274v-39.406c0-7.43-.8-10.176-9.03-10.176h-5.176v-7.91h47.166v7.91h-4.21c-8.23 0-9.05 2.746-9.05 10.176v62.012c-10.33-.965-24.71-1.934-32.933-1.934zm-108.532 0h5.981c6.461 0 7.258-1.454 7.258-12.274v-39.406c0-7.43-.797-10.176-9.039-10.176h-5.172v-7.91h45.218v7.91h-2.257c-8.231 0-9.039 2.746-9.039 10.176v26.484c0 15.188 8.07 23.574 19.859 23.574 8.719 0 14.211-5.164 14.211-16.628v-33.43c0-7.43-.801-10.176-9.043-10.176h-2.262v-7.91h44.254v7.91h-4.199c-8.242 0-9.043 2.746-9.043 10.176v38.117c0 17.43-12.277 24.551-28.102 24.551-13.086 0-22.289-5.5-27.777-18.574h-.32v17.918c-7.922-.965-22.289-1.934-30.528-1.934zm-39.082-69.766h30.524v7.91h-4.199c-8.235 0-9.043 2.746-9.043 10.176v62.012c-10.34-.965-24.707-1.934-32.954-1.934v-8.398h5.985c6.461 0 7.269-1.454 7.269-12.274V310c0-16.641-5.98-25.359-19.711-25.359-9.199 0-14.371 4.687-14.371 14.218v55.868c-10.336-.965-24.707-1.934-32.949-1.934v-8.398h5.981c6.46 0 7.273-1.454 7.273-12.274v-37.793c0-15.019 9.687-22.277 25.676-22.277 16.308 0 26.48 7.101 30.203 17.922h.316v-15.344M669.148 353.957 382.387.02 405.18 0l286.789 353.977-22.821-.02M138.535 422.891c-2.082-.313-5.019-1.141-6.738 2.578-1.555 3.371 4.277 8.828 6.207 10.586 2.5 2.285-.746 4.738-2.656 2.07-.535-.742-5.106-7.195-8.692-7.195-5.562 0-5.238 6.523-5.238 6.523s-6.215 3.953-6.215 16.531c0 11.184 7.391 16.536 7.391 16.536s.051 6.367 5.035 6.21c4.965-.167 8.187-7.011 8.504-7.48 2.512-3.781 5.676-.566 3.472 2.129-5.21 6.348-6.308 11.355-.613 14.031 2.071 4.727 8.321 8.047 15.145 8.574l.226.012.223.02c6.82-.559 13.07-3.879 15.141-8.606 5.699-2.676 4.597-7.683-.61-14.031-2.203-2.695.957-5.91 3.477-2.129.312.469 3.527 7.313 8.511 7.48 4.969.157 5.028-6.21 5.028-6.21s7.383-5.352 7.383-16.536c0-12.578-6.211-16.531-6.211-16.531s.324-6.523-5.239-6.523c-3.582 0-8.148 6.453-8.691 7.195-1.898 2.668-5.16.215-2.66-2.07 1.93-1.758 7.769-7.215 6.211-10.586-1.711-3.719-4.653-2.891-6.738-2.578 0 0-1.911-3.321-4.801-3.328 14.437-10.793 37.109-4.68 40.148 3.222 0 0-3.84-.762-3.801 3.262.028 2.441 2.508 3.758 5.86 4.246-.699 1.543-1.051 3.391-.93 5.402.332 5.664 4.231 10.41 8.731 10.614 4.488.187 7.863-4.239 7.531-9.891-.16-2.852-1.242-5.469-2.844-7.402 3.293-1.125 5.609-2.813 5.305-4.778-.801-5.195-5.614-3.914-5.614-3.914-.578-11.867 17.524-14.14 22.153-11.074-1.832 6.844.902 8.906 2.992 10.75 1.488 1.32 5.918 4.043 6.527 4.445 1.383.899 2.102 2.821 1.231 3.535-.813.665-2.621-.488-3.481-1.445-1.222-1.379-3.371-4.64-6.738-3.75-4.074 1.074-2.312 5.731-3.004 8.242-4.336 15.828-.629 26.864 15.199 33.496 0 0 6.024 6.336 11.422 3.485 5.172-2.742 1.961-11.192 1.961-11.192l1.598-.75c5.781 10.489 14.14 18.094 26.133 18.399 8.496.215 12.597-4.797 12.929-11.66.739-15.285-14.882-9.59-13.66-3.879 0 0-3.781-.391-5.859-3.711 0 .957.121 10.031-7.981 5.234-2.308-1.367-6.39-8.222-6.687-9.09-1.012-3.007.449-3.488-1.125-6.425-1.231-2.297-2.949-2.832-3.688-4.434-.75-1.602.321-4.766-.703-6.797-1.238-2.492-2.945-2.676-4.066-4.933-.895-1.778-12.199-30.606-12.199-30.606s4.5-2.879 3.64-7.156c-1.14-5.742-4.789-4.504-6.734-8.274-61.418 15.801-124.988 15.891-190.688.274-1.972 3.437-5.468 2.394-6.59 8-.863 4.277 3.641 7.156 3.641 7.156s-11.312 28.828-12.203 30.606c-1.117 2.257-2.824 2.441-4.066 4.933-1.02 2.031.046 5.195-.704 6.797-.738 1.602-2.457 2.137-3.675 4.434-1.575 2.937-.121 3.418-1.133 6.425-.29.868-4.38 7.723-6.692 9.09-8.09 4.797-7.968-4.277-7.976-5.234-2.07 3.32-5.86 3.711-5.86 3.711 1.22-5.711-14.402-11.406-13.664 3.879.332 6.863 4.43 11.875 12.93 11.66 12.004-.305 20.352-7.91 26.133-18.399l1.605.75s-3.207 8.45 1.965 11.192c5.39 2.851 11.41-3.485 11.41-3.485 15.828-6.632 19.54-17.668 15.196-33.496-.688-2.511 1.074-7.168-2.996-8.242-3.372-.89-5.508 2.371-6.739 3.75-.851.957-2.664 2.11-3.48 1.445-.86-.714-.153-2.636 1.226-3.535.614-.402 5.04-3.125 6.532-4.445 2.09-1.844 4.816-3.906 3.004-10.75 4.617-3.066 22.718-.793 22.144 11.074 0 0-4.816-1.281-5.617 3.914-.3 1.965 2.012 3.653 5.297 4.778-1.598 1.933-2.664 4.55-2.836 7.402-.332 5.652 3.035 10.078 7.539 9.891 4.492-.204 8.398-4.95 8.73-10.614.106-2.011-.242-3.859-.945-5.402 3.352-.488 5.844-1.805 5.867-4.246.039-4.024-3.804-3.262-3.804-3.262 3.043-7.902 25.711-14.015 40.16-3.222-2.899.007-4.809 3.328-4.809 3.328m5.211 29.562c0-5.859 4.75-10.617 10.609-10.617 5.872 0 10.622 4.758 10.622 10.617 0 5.86-4.75 10.613-10.622 10.613-5.859 0-10.609-4.753-10.609-10.613m58.578-46.035c4.571.125 13.512-1.738 13.512-1.738s-3.801 4.246-5.543 7.136c0 0-2.027-1.902-3.258-2.793-.961-.703-4.711-2.605-4.711-2.605m-47.961 9.305c-1.789-1.993-5.246-5.399-9.008-6.688 0 0 6.188.156 8.868.203h.273c2.676-.047 8.879-.203 8.879-.203-3.77 1.289-7.23 4.695-9.012 6.688m-47.968-9.305s-3.75 1.902-4.711 2.605c-1.231.891-3.262 2.793-3.262 2.793-1.738-2.89-5.535-7.136-5.535-7.136s8.937 1.863 13.508 1.738m140.531-28.684c2.937-.789 7.078-3.691 5.941-7.937-1.144-4.258-6.172-4.699-9.121-3.906-2.949.781-7.082 3.679-5.941 7.937 1.14 4.258 6.172 4.699 9.121 3.906m-38.59 1.153-8.949-7.52-7.512 8.957 8.949 7.508zM66.008 365.891c-2.95-.793-7.98-.352-9.121 3.906-1.14 4.246 2.996 7.148 5.941 7.937 2.95.793 7.977.352 9.113-3.906 1.145-4.258-2.988-7.156-5.933-7.937m79.539 15.828c0 3.371 4.18 6.105 9.324 6.105 5.152 0 9.332-2.734 9.332-6.105 0-3.387-4.18-6.121-9.332-6.121-5.144 0-9.324 2.734-9.324 6.121m-44.129-2.832 7.508 8.945 8.949-7.508-7.508-8.957zM24.844 108.652c1.02 4.075 5.351 3.164 5.351 3.164s-1.03 3.75 2.79 5.469c4.242 1.895 6.35-2.781 6.35-2.781l1.778-12.051-12.847.43s-4.551 1.258-3.422 5.769m18.203 19.953c1.008 4.063 5.348 3.153 5.348 3.153s-1.032 3.75 2.792 5.469c4.239 1.906 6.336-2.774 6.336-2.774l1.786-12.058-12.844.429s-4.55 1.27-3.418 5.781m18.187 19.95c1.024 4.062 5.352 3.144 5.352 3.144s-1.027 3.75 2.789 5.481c4.238 1.894 6.348-2.785 6.348-2.785l1.78-12.051-12.85.429s-4.548 1.27-3.419 5.782m93.239 184.718c1.019 4.071 5.351 3.165 5.351 3.165s-1.031 3.75 2.793 5.468c4.238 1.903 6.336-2.785 6.336-2.785l1.793-12.051-12.851.43s-4.551 1.27-3.422 5.773m17.785-68.027c1.019 4.07 5.347 3.164 5.347 3.164s-1.027 3.75 2.79 5.457c4.238 1.906 6.339-2.773 6.339-2.773l1.789-12.051-12.847.422s-4.555 1.269-3.418 5.781m21.347 22.606c1.02 4.074 5.348 3.156 5.348 3.156s-1.019 3.758 2.801 5.469c4.242 1.914 6.344-2.774 6.344-2.774l1.773-12.062-12.836.429s-4.551 1.27-3.43 5.782m21.36 22.617c1.019 4.054 5.351 3.144 5.351 3.144s-1.031 3.75 2.797 5.469c4.231 1.914 6.34-2.762 6.34-2.762l1.781-12.062-12.839.43s-4.563 1.269-3.43 5.781m21.359 22.609c1.02 4.063 5.352 3.145 5.352 3.145s-1.031 3.75 2.789 5.468c4.242 1.914 6.351-2.773 6.351-2.773l1.778-12.051-12.848.43s-4.551 1.269-3.422 5.781M12.754 180.871c1.02 4.063 5.351 3.152 5.351 3.152s-1.03 3.762 2.79 5.469c4.242 1.914 6.351-2.762 6.351-2.762l1.777-12.062-12.847.43s-4.551 1.269-3.422 5.773m49.59-121.016c1.02 4.063 5.351 3.153 5.351 3.153s-1.03 3.75 2.79 5.469c4.242 1.906 6.35-2.782 6.35-2.782l1.778-12.05-12.847.43s-4.551 1.269-3.422 5.78m21.113 22.958c1.016 4.062 5.348 3.156 5.348 3.156s-1.024 3.75 2.8 5.469c4.23 1.902 6.34-2.786 6.34-2.786l1.782-12.05-12.84.43s-4.563 1.269-3.43 5.78m21.117 22.961c1.024 4.063 5.352 3.153 5.352 3.153s-1.031 3.75 2.789 5.469c4.238 1.914 6.34-2.774 6.34-2.774l1.789-12.059-12.852.43s-4.547 1.27-3.418 5.781m21.11 22.957c1.019 4.075 5.351 3.165 5.351 3.165s-1.031 3.75 2.789 5.46c4.242 1.915 6.352-2.773 6.352-2.773l1.777-12.062-12.848.429s-4.55 1.281-3.421 5.781m92.992 97.629c1.019 4.063 5.347 3.153 5.347 3.153s-1.031 3.75 2.801 5.461c4.231 1.914 6.34-2.766 6.34-2.766l1.781-12.059-12.84.43s-4.562 1.27-3.429 5.781m19.039 20.762c1.019 4.063 5.351 3.152 5.351 3.152s-1.031 3.762 2.789 5.469c4.239 1.914 6.352-2.762 6.352-2.762l1.777-12.062-12.851.43s-4.547 1.269-3.418 5.773m19.039 20.77c1.019 4.062 5.351 3.156 5.351 3.156s-1.031 3.75 2.79 5.469c4.242 1.914 6.351-2.786 6.351-2.786l1.781-12.05-12.851.429s-4.551 1.282-3.422 5.782m19.043 20.773c1.019 4.063 5.348 3.152 5.348 3.152s-1.028 3.75 2.793 5.469c4.238 1.906 6.343-2.781 6.343-2.781l1.785-12.051-12.851.43s-4.551 1.269-3.418 5.781M128.012 39.473c1.019 4.062 5.351 3.156 5.351 3.156s-1.027 3.75 2.793 5.469c4.239 1.902 6.348-2.785 6.348-2.785l1.781-12.051-12.847.43s-4.551 1.269-3.426 5.78m147.89 163.673c1.024 4.074 5.352 3.164 5.352 3.164s-1.027 3.75 2.789 5.468c4.242 1.895 6.352-2.781 6.352-2.781l1.777-12.051-12.848.418s-4.551 1.27-3.422 5.782m-143.047-16.426c0 .625 1.012.527 2.93.851 1.918.313 3.629.957 3.629.313 0-.957-1.328-.207-1.328-1.758v-15c0-.754 1.012-.207 1.012-.801 0-.754-1.813-.429-3.153-.429-1.39 0-3.152-.325-3.152.273 0 1.004 1.23 0 1.23.957v14.246c0 1.504-1.168.117-1.168 1.348m-16.289-6.492c0 .418.528.468 1.493.957.964.468 1.546 1.015 2.406.261.848-.75 5.492-6.082 5.492-6.082v7.578c0 .86-1.492-.265-1.492.586 0 .633.64.633 1.703 1.063 1.066.43 2.617 1.601 2.617.859 0-.906-1.117-.633-1.117-1.816v-14.617c0-1.231-.113-1.231-.641-1.231-.324 0-7.711 9.305-7.711 9.305v-9.922c0-.906 1.789.344 1.789-.508 0-.476-1.07-.742-2.14-1.172-1.07-.418-2.559-1.121-2.559-.586 0 .899 1.328.586 1.328 1.496v12.86c0 .969-1.168.215-1.168.969m-5.781-9.153c0 6.192-3.949 3.887-3.949 3.887v-12.723s3.949.078 3.949 8.836m-9.23 2.559c0 .449 1.922 1.164 3.203 1.758 2.297 1.074 9.715 4.863 9.715-4.266 0-8.379-5.879-9.766-7.739-10.617-1.871-.86-4.398-2.09-4.589-1.68-.329.656 1.007.762 1.007 2.258v10.41c0 2.617-1.597 1.258-1.597 2.137m25.851 37.824c-.043.391 1.512.652 2.301.867 1.34.364 2.188.617 2.75.059.555-.567 3.301-4.988 3.301-4.988s3.527 4.988 3.808 5.32c.278.344.391.812 1.801.84 1.617.031 2.348.195 2.348-.137 0-.613-1.012-.313-1.07-1.602-.04-1.003 0-12.937 0-13.613 0-1.523 1.043-1.004 1.043-1.523 0-.496-.676-.293-3.051-.274-1.961.032-3.282-.254-3.282.117 0 .676 1.04.11 1.04 1.485v9.101s-3.418-4.988-3.59-4.988c-.2 0-4.371 6.367-4.371 6.367V197.59c0-1.75 1.73-.723 1.73-1.406 0-.344-1.32-.489-2.293-.735-1.117-.273-2.098-.691-2.215-.379-.238.672 1.211.301 1.211 2.266 0 1.738.02 11.738 0 12.469-.062 1.933-1.402 1.093-1.461 1.652m-4.929-1.906c.582.273 2.109 1.105 2.289.851.269-.371-.61-.449-1.219-3.086-.231-.957-3.102-16.074-4.172-16.601-.344-.176-5.211 11.902-5.66 12.859-.801 1.711-1.649.559-1.813 1.172-.093.391 1.235.891 2.34 1.387.594.273 2.746 1.574 2.977 1.308.449-.507-1.184-.527-.403-2.371.52-1.242 3.247-7.257 3.247-7.257s1.601 6.777 2.089 9.074c.477 2.285-1.277 1.152-1.336 1.648-.031.293.848.664 1.602.988zm-18.692-15.86v-8.3s4.274.89 4.274 6.066c0 4.434-4.274 2.234-4.274 2.234m-.058 7.286v-5.497s3.097 1.153 3.097 3.829c0 3.191-3.097 1.668-3.097 1.668m.328 1.425c1.808.696 6.558 1.653 6.558-2.461 0-2.937-1.918-3.621-1.918-3.621s3.469-.644 3.469-3.527c0-3.309-1.598-5.605-3.41-6.57-.926-.489-6.621-3.243-7.156-3.567-.535-.32-1.801-1.015-1.946-.703-.328.723.934.598.934 2.735V198c0 2.82-1.332 1.57-1.332 2.313 0 .46 2.941 1.378 4.801 2.089m29.621 37.473v-6.719s3.16.203 3.16 3.836c0 4.328-3.16 2.883-3.16 2.883m8.351-15c.957-.117 1.387.262 1.387.262s-.316-2.403-2.828-2.403c-3.414 0-3.359 5.871-4.32 7.579-.961 1.71-2.571.8-2.571.8v-5.976c0-1.922 1.2-1.094 1.2-1.797 0-.281-.93-.449-.93-.449s-2.61-.743-3.57-.957c-.961-.204-1.379-.43-1.379 0 0 .761.949.273.949 2.375v12.351c0 2.403-1.379 1.602-1.41 2.278-.02.398.961.585 1.918.828 1.613.402 2.222.898 4.511 1.437 2.211.516 6.09-.539 6.09-3.625 0-3.426-1.929-4.109-2.988-4.91 3.941-1.926 2.18-7.578 3.941-7.793m-25.933 8.777c1.601.528 4.433 1.731 7.469 3.438.414.234 1.652 1.008 2.242-.106.613-1.152 1.07-2.668.699-2.832-.547-.226-.906.223-1.598.594-.609.324-1.39.684-2.14.481-.75-.215-1.77-.664-1.77-.664l.012-5.254s1.859 0 2.078 1.004c.172.812.5 1.875 1.09 2.031.34.09.238-.985.277-2.5.02-.516.055-.809.063-1.094.039-1.855-.075-2.469-.34-2.52-.508-.097-.938 1.25-1.063 1.575-.218.554-2.105.047-2.105-.254v-7.571s1.437.774 2.078 1.153c.867.508 2.34 2.199 2.91 3.203.559.988.781 1.797 1.301 1.711.332-.051-.371-3.313-.371-3.313s-.051-1.277-1.121-1.804c-1.059-.547-7.032-3.332-7.547-3.586-1.024-.477-2.25-1.356-2.274-.879-.027.754.989.351.989 2.558l-.032 12.618s-.039 1.066-.847 1.211c-.621.097-1.199.39 0 .8m-13.961-5.8c.859.304 3.293 1.339 3.426 1.054.336-.761-1.262-.593-.735-2.109.449-1.277 3.262-7.957 3.262-7.957l2.461 9.609c.527 2.078-1.152 1.356-1.293 1.864-.09.351 1.23.753 1.98 1.074.614.285 2.59 1.133 2.704.879.257-.672-.754-.672-1.282-2.539-.64-2.215-4.379-17.254-5.422-17.821-.589-.324-5.742 12.645-6.14 13.66-.403 1.008-1.785.625-1.918 1.231-.059.234 2.097.773 2.957 1.055m67.625-41.649c-.031.399.578.242 1.488-.039.906-.266 2-.539 2.746-1.758.742-1.222 6.375-10.84 6.375-10.84l-.039 8.68c0 1.152-1.019 1.184-1.019 1.66 0 .442.773 0 1.593-.281.813-.273 2.004-.402 2.004-.781 0-.371-1.051.176-1.051-.84v-16.367s0-.715-.476-.059c-.383.516-8.816 14.09-8.816 14.09s.031-8.504 0-9.395c-.028-1.003 1.093-.906 1.093-1.414 0-.519-1.191-.246-1.933-.109-.746.148-1.868.031-1.868.684 0 .644 1.02-.34 1.02 1.183v13.926c0 1.055-1.09 1.121-1.117 1.66m7.957 25.067c0 .617 2.68-.469 4.781-1.075 2.098-.613 6.059-1.257 6.059-2.539 0-1.582.41-3.093-.098-3.093-.312 0-.953 2-1.594 2.656-.98.976-2.976 1.414-3.519 1.511-.551.11-.41.079-.41-.3v-5.09s1.351-.664 2.101-.332.848 1.523 1.289 1.426c.43-.098.274-1.016.199-2.782-.07-1.757.141-3.359-.308-3.183-.43.164-.469 1.66-1.379 2.547-.918.879-1.93 1.007-1.93 1.007v-8.3s1.012-1.114 3.11-.442c2.097.684 3.589 2.102 3.929 1.77.336-.344.172-.813-.84-2.403-1.019-1.601-1.562-2.617-2.582-2.168-1.019.438-3.32 1.317-4.738 1.954-1.418.652-4.367 1.367-4.367 1.972 0 .606 1.449-.508 1.449 1.25v14.199c0 .711-1.152.938-1.152 1.415m-3.43 2.433c.75 0 .598-2.754.711-3.652.207-1.719.719-3.223.18-3.254-.813-.039-1.781 2.687-3.09 4.035-1.231 1.27-5.754 3.582-5.754-5.977 0-8.183 3.551-8.007 5.492-7.402 1.903.606 2.692 2.098 2.91 1.953.231-.148-1.57-4.043-5.531-4.492-3.961-.441-7.836 3.438-7.836 9.531 0 6.094 2.988 9.825 6.758 9.825 3.031 0 3.922-2.09 5.219-2.09.871 0 .078 1.523.941 1.523m10.211 21.688c.149.773 1.52-.196 3.762-1.102 2.226-.93 3.855-1.398 3.73-1.777-.14-.364-1.734.242-1.535-.813.199-1.043 2.711-9.277 2.711-9.277s2.91 6.906 2.981 7.18c.21.847-.778.984-.68 1.394.109.43.988-.144 1.699-.547.711-.398 1.859-.769 1.66-1.258-.203-.468-1.051.614-1.386-.195-.344-.812-6.172-13.887-6.172-13.887l-5.832 18.797c-.329 1.086-1.039.989-.938 1.485m-13.32 5.05c0 .45.82.079.82.079l5.176-1.868s.914-.312.887-.722c-.032-.399-1.766.519-1.766-1.043v-14.602s.371-.976 2.102-.273c1.734.715 4.3 2.414 4.3 2.414s1.223.605.918-.246c-.308-.848-1.527-3.555-1.527-3.555s-.27-1.055-1.66-.809c-1.395.243-4.813 1.289-5.762 1.563-.949.262-3.59 1.074-3.59 1.074s-.539.106-.539.516c0 .402 1.66-.039 1.66 1.289v14.258c0 1.289-1.019 1.32-1.019 1.925m20.078-51.582c0 1.004 1.391-.382 1.391 1.219v14.094c0 1.766-.797 1.699-.797 2.402 0 .692 1.547-.324 1.918-.488.371-.148 4.425-2.238 4.855-2.453.422-.203 4.754-1.981 4.754-6.719 0-3.262-2.723-2.734-2.723-2.734s2.723-1.59 2.871-3.992c.172-2.403.493-4.434.493-4.758 0-.313.48-1.707 1.968-.43 0 0 .172-2.859-3.089-1.805-2.129.692-2.727 2.664-2.879 4.004-.172 1.336-.911 7.774-3.801 7.676v-6.457c0-1.719 1.012-1.23 1.012-2.246 0-.645-1.489.383-2.825.918-1.976.879-3.148 1.172-3.148 1.769m4.973 14.344v-6.562c.429-.157 3.679-2.235 3.679 1.816 0 4.055-3.679 4.746-3.679 4.746m-7.149-24.578c.309 1.023-.656 1.309-.465 1.738.141.321 1.469-.402 2.27-.773.801-.371 2.031-.692 2.355-1.785.317-1.086 4.504-15.383 4.907-16.711.449-1.492 1.328-1.074 1.07-1.758-.11-.273-1.34.324-3.77 1.281-2.023.801-3.019 1.055-3.019 1.375 0 .664 2.039-.429 1.558.957-.316.938-1.019 3.391-1.019 3.391l-5.629 1.824-.805-2.723c-.398-1.359.887-1.132.641-1.64-.125-.285-.926.078-1.969.508-1 .398-1.43.476-1.39.769.054.481.851-.215 1.222.762.379.996 3.758 11.914 4.043 12.785m.887-1.867-1.961-6.328 4.379-1.465zm112.801 176.758V166.191C304.844 54.297 213.305 14.59 152.914 14.59 92.516 14.59.977 54.297 3.059 166.19v187.325h55.859c-.305 3.457.637 5.871.727 5.976 76.312 15.285 113.222 16.008 189.472-.039 1.641-1.98 1.946-4.101 1.668-5.937zM30.984 81.992l58.504 62.305v18.195l-6.633.223s-4.558 1.269-3.43 5.781c1.02 4.074 5.348 3.156 5.348 3.156s-1.02 3.75 2.801 5.457c.692.325 1.332.461 1.914.469l.008 12.07-73.102-77.839c3.75-11.067 8.711-20.977 14.59-29.817m72.809 159.199a85.67 85.67 0 0 1 2.395 1.133c2.816 1.418 7.898 4.082 13.367 6.387 5.383 2.277 11.738 4.492 16.84 4.492 5.128 0 9.25-1.543 12.082-3.055a24.845 24.845 0 0 0 3.3-2.121l.278-.234c.097.148.218.312.363.48.586.723 1.449 1.551 2.687 2.332 2.5 1.583 6.321 2.813 12.102 2.813 6.059 0 12.856-2.422 18.34-4.902l1.262-.586 93.988 100.097h-42.582l-82.781-88.152v42.43l42.929 45.722H8.535V166.145c-.12-6.797.11-13.313.668-19.571l40.953 43.621h39.34v34.758c-.73-1.015-1.852-.832-1.852-.832s.989 3-1.742 3.438c-.21.031-.43.05-.675.05-1.551 0-2.422-.781-3.352-1.523-1.45-1.164-5.754-6.203-6.594-7.023-.84.82-5.144 5.859-6.605 7.023-.922.742-1.801 1.523-3.34 1.523-.254 0-.48-.019-.684-.05-2.738-.438-1.738-3.438-1.738-3.438s-2.48-.41-2.48 3.359c0 2.668 2.12 4.239 4 4.739 2.84.644 5.648.847 6.18 5.547.03.937-.13 1.132-.13 1.132s-1.02-1.554-3.543-2.753c-2.918-1.524-10.808-1.418-10.609-5.938-.059-1.809 1.926-1.641 1.926-1.641s-.106-.82-1.434-1.015a4.248 4.248 0 0 0-1.058-.039c-1.829.261-2.442 2.195-2.309 4.636.105 1.524-.914 3.547-2.89 3.254a3.703 3.703 0 0 1-1.126-.39c-1.507-.879-.972-2.317-.972-2.317s-1.715.957-1.453 2.95c.23 1.71 1.359 2.492 2.96 3.156.2.039.391.078.583.105 2.046.313 3.765-.301 3.765-.301s-.52 1.563-.332 3.114c.172 1.34.871 2.676 2.871 3.047 2.98.558 3.621-1.446 3.172-2.539-.164-.106-.687.683-1.539.558a1.695 1.695 0 0 1-.39-.117c-.5-.266-.794-.598-.942-.949-.5-1.18.48-2.676.652-2.918.598-.801 2.438-1.36 4.727-.93 2.66.578 4.55 2.305 5.469 3.848.496.793.703 1.543.632 2.043l1.45 16.101s.465 4.141-2.36 4.621c-.328.067-.66.067-1 .02-2.379-.383-4.859-3.547-4.078-7.52.602-3.046-.96-5.382-2.46-5.722-1.91-.449-3.071-.071-3.743 1.328 3.332.215 3.121 2.89 2.07 3.848-.449.398-1.097.507-1.847.398-3.114-.488-8.032-4.773-8.82-7.332-.712-2.297 1.011-1.711 1.738-3.652.593-1.555-.727-2.793-.727-2.793a9.116 9.116 0 0 0-.199-1.34c-.363-1.356-1.063-1.797-1.715-1.895-.508-.078-.984.059-1.238.137.828.363 1.082 1.133 1.148 1.758.051.441.012.793.012.793s-.93-.098-1.738 1.152c-.942 1.465.218 1.922-.813 3.496-1.047 1.57-3.949 3.25-6.219 3.543-.152.02-.289.012-.43-.008-.44-.058-.859-.293-1.542-.39a3.29 3.29 0 0 0-.66-.059c-1.786-.039-1.297 1.055-2.77.926-.762-.156-1.2-.879-.95-1.922.044-.156-.077-.254-.077-.254-.813.547-1.149 1.297-1.211 2.176-.012 2.324 1.469 3.965 2.87 4.094 1.661.156 2.43-.871 2.56-1.067.914 3.86-2.11 2.551-3.57 4.406-.981 1.278-.59 1.922-.462 2.383.203.692-1.008.782-1.926.633a4.022 4.022 0 0 1-.675-.156c-.176.168.293 1.973 2.191 2.246.652.117 1.48.031 2.531-.359.98.293 1.918-.188 2.27-.86.422-.801.07-1.719.183-2.707.297-2.558 1.868-2.488 2.11-2.461-1.395 3.664.36 4.746.539 5.324.176.575-.043 1.348-.95 1.668-.19.071-.449.227-.152.305 0 0 3.508.156 4.051-2.141 0 0 1.512-.8 1.55-2.695.036-2.363-1.241-2.578-1.73-3.047.364-2.468 1.82-2.879 3.188-2.675 1.344.214 2.586 1.007 2.586 1.007 2.308.918 7.098 3.875 5.805 6.297-.586 1.106-1.559 1.574-2.63 1.418-.511-.078-1.03-.305-1.542-.664-1.387-1.328-.7-3.066-.7-3.066-2.109-.559-3.097 3.105-1.777 4.656.918 1.094 2.047 1.523 3.258 1.738 1.383.246 2.871.188 4.293.481 1.687.332 2.977 1.386 4.227 3.574.925 1.531.953 3.641.152 5.32-.82 1.836-2.508 4.141-4.883 4.571-.45-3.973-2.637-7.098-5.316-9.012-.66-.461-1.528-.715-2.11-.813-.472-.066-.77-.039-.66.11 3.488 4.07 2.59 8.359 2.492 8.769-.254-.469-2.984-5.48-7.851-7.629a7.026 7.026 0 0 0-1.461-.41c-2.621-.41-5.238.813-4.2.949 1.727.235 8.708 4.286 6.606 12.891-.27-.5-3.34-5.977-7.117-8.566a11.306 11.306 0 0 0-4.781-1.883c-2.98-.481-5.239.351-4.82.742 0 0 8.222 3.895 8.32 7.605-.266-.214-2.489-1.933-5.078-2.332a7.586 7.586 0 0 0-1.06-.078c-7.01 0-7.01 5.039-7.01 5.039.487-.05 7.038-.48 12.386 10.879 0 0-3.484-1.23-7.508-1.672-2.379-.273-3.379 1.231-3.098 1.211.422-.136.891-.183 1.493-.086 1.316.204 3.195 1.036 5.586 2.871-.641.282-9.23 4.09-5.91 9.989 0 0 2.37-2.071 5.292-2.332 2.149-.188 5.891.215 6.797 2.371 0 0-4.629.265-9.172 3.125-2.68 1.672-3.726 5.644-2.746 4.492 1-1.18 2.032-1.531 3.57-1.922 1.2-.305 2.02-.019 2.02-.019s-6.672 6.316-2.45 11.218c0 0 2.25-6.289 7.778-6.308 0 0-2.8 2.597-3.36 5.722-.39 2.141-.23 4.981.161 4.172.27-.566.867-1.574 1.262-2.304.687-1.243 2.156-2.903 3.34-3.918 0 0-.84 3.293.308 6.281.168.457 1.711 2.969 1.82 2.344 0 0 .016-1.973.13-2.61.343-2.117 1.148-4.773 5.152-8.847 5.066-5.164 10.566-5.125 10.61-8.36-.2-3.847-4.942-3.347-8.052-3.074-1.078 0-.941-1.652-.039-2.832 2.586-3.469 13.57-4.309 17.008 1.316 1.219 1.973 1.55 4.329.73 6.524-1.038 2.922-3.398 3.008-7.878 3.984-3.18.684-2.32 2.11-1.852 2.11 0 0 .973-.547 1.91-.547 2.352-.02.922 3.008.672 2.968-.601-.085-3.14-1.113-5.332-1.296-2.777-.247-6.105.867-6.105 2.8 0 2.317 2.91 2.969 2.777 2.356-.031-.149-1.75-3.293 3.379-3.117 1.62.05 4.89.234 4.883.382-.106.86-1.621 2.09-2.785 2.09-.86 0-1.649-.226-3.215-.058-.563 1.375.933 2.773 1.965 3.289 1.03.519 1.773.273 2.222.441.602.203.961 2.098 4.39 2.149 1.802.027 4.41-1.223 5.622-1.223 1.2 0 3.34.781 3.559.402.207-.402-.86-1.633-.653-2.715-.097-2.511 4.238-12.433 8.82-13.371 4.57.938 8.93 10.86 8.825 13.371.21 1.082-.86 2.313-.653 2.715.223.379 2.371-.402 3.57-.402 1.2 0 3.81 1.25 5.622 1.223 3.426-.051 3.789-1.946 4.39-2.149.45-.168 1.176.078 2.207-.441 1.032-.516 2.528-1.914 1.973-3.289-1.562-.168-2.363.058-3.223.058-1.16 0-2.68-1.23-2.77-2.09-.019-.148 3.255-.332 4.88-.382 5.133-.176 3.414 2.968 3.375 3.117-.133.613 2.785-.039 2.785-2.356 0-1.933-3.34-3.047-6.117-2.8-2.184.183-4.723 1.211-5.324 1.296-.247.04-1.688-2.988.671-2.968.942 0 1.91.547 1.91.547.473 0 1.333-1.426-1.847-2.11-4.484-.976-6.852-1.062-7.89-3.984-.81-2.195-.485-4.551.726-6.524 3.441-5.625 14.433-4.785 17.023-1.316.887 1.18 1.039 2.832-.051 2.832-3.097-.273-7.84-.773-8.05 3.074.05 3.235 5.55 3.196 10.621 8.36 3.988 4.074 4.808 6.73 5.148 8.847.102.637.129 2.61.129 2.61.102.625 1.652-1.887 1.82-2.344 1.145-2.988.305-6.281.305-6.281 1.176 1.015 2.656 2.675 3.34 3.918.398.73.996 1.738 1.258 2.304.39.809.547-2.031.168-4.172-.559-3.125-3.36-5.722-3.36-5.722 5.532.019 7.774 6.308 7.774 6.308 4.219-4.902-2.453-11.218-2.453-11.218s.82-.286 2.031.019c1.539.391 2.559.742 3.559 1.922.988 1.152-.063-2.82-2.739-4.492-4.539-2.86-9.168-3.125-9.168-3.125.899-2.156 4.649-2.559 6.785-2.371 2.922.261 5.305 2.332 5.305 2.332 3.305-5.899-5.285-9.707-5.914-9.989 2.383-1.835 4.274-2.667 5.582-2.871.602-.097 1.078-.05 1.496.086.285.02-.715-1.484-3.109-1.211-4.008.442-7.5 1.672-7.5 1.672 5.351-11.359 11.89-10.929 12.394-10.879 0 0 0-5.039-7.011-5.039-.364 0-.707.028-1.063.078-2.586.399-4.816 2.118-5.086 2.332.11-3.71 8.317-7.605 8.317-7.605.433-.391-1.836-1.223-4.813-.742a11.252 11.252 0 0 0-4.777 1.883c-3.789 2.589-6.856 8.066-7.129 8.566-2.102-8.605 4.883-12.656 6.609-12.891 1.039-.136-1.582-1.359-4.199-.949-.492.09-.98.215-1.449.41-4.883 2.149-7.602 7.16-7.852 7.629-.097-.41-1.011-4.699 2.481-8.769.121-.149-.18-.176-.649-.11-.593.098-1.453.352-2.109.813-2.684 1.914-4.875 5.039-5.332 9.012-2.367-.43-4.047-2.735-4.867-4.571-.801-1.679-.774-3.789.14-5.32 1.258-2.188 2.547-3.242 4.239-3.574 1.41-.293 2.898-.235 4.277-.481 1.219-.215 2.351-.644 3.269-1.738 1.321-1.551.325-5.215-1.785-4.656 0 0 .7 1.738-.695 3.066-.508.359-1.039.586-1.547.664-1.058.156-2.043-.312-2.633-1.418-1.289-2.422 3.512-5.379 5.813-6.297 0 0 1.238-.793 2.586-1.007 1.363-.204 2.832.207 3.183 2.675-.492.469-1.769.684-1.73 3.047.043 1.895 1.558 2.695 1.558 2.695.543 2.297 4.04 2.141 4.04 2.141.312-.078.042-.234-.145-.305-.902-.32-1.125-1.093-.941-1.668.168-.578 1.925-1.66.539-5.324.23-.027 1.808-.097 2.101 2.461.106.988-.23 1.906.192 2.707.343.672 1.277 1.153 2.269.86 1.039.39 1.867.476 2.527.359 1.903-.273 2.36-2.078 2.36-2.078s.027-.215-.18-.168a3.982 3.982 0 0 1-.66.156c-.918.149-2.129.059-1.93-.633.129-.461.52-1.105-.472-2.383-1.446-1.855-4.469-.546-3.559-4.406.121.196.895 1.223 2.563 1.067 1.394-.129 2.867-1.77 2.855-4.094-.047-.879-.387-1.629-1.195-2.176 0 0-.133.098-.094.254.25 1.043-.18 1.766-.945 1.922-1.461.129-.985-.965-2.774-.926-.238 0-.461.02-.66.059-.68.097-1.098.332-1.539.39-.141.02-.281.028-.418.008-2.269-.293-5.172-1.973-6.223-3.543-1.039-1.574.133-2.031-.82-3.496-.809-1.25-1.738-1.152-1.738-1.152s-.043-.352.012-.793c.019-.176.046-.34.105-.528m-6-2.253c1.422.417 2.984.976 4.59 1.648-.188.273-.356.644-.488 1.133a6.509 6.509 0 0 0-.2 1.34s-1.32 1.238-.726 2.793c.726 1.941 2.445 1.355 1.734 3.652-.801 2.559-5.715 6.844-8.824 7.332-.754.109-1.395 0-1.844-.398-1.05-.958-1.258-3.633 2.07-3.848-.683-1.399-1.832-1.777-3.738-1.328-1.511.34-3.07 2.676-2.472 5.722.793 3.973-1.688 7.137-4.082 7.52a2.85 2.85 0 0 1-.985-.02c-2.824-.48-2.363-4.621-2.363-4.621l1.45-16.101c-.08-.5.14-1.25.62-2.043.934-1.543 2.813-3.27 5.477-3.848 2.293-.43 4.12.129 4.73.93.164.242 1.153 1.738.653 2.918-.157.351-.45.683-.938.949a1.72 1.72 0 0 1-.402.117c-.84.125-1.38-.664-1.543-.558-.438 1.093.203 3.097 3.176 2.539 2.003-.371 2.707-1.707 2.867-3.047.199-1.551-.328-3.114-.328-3.114s.629.223 1.566.333m-8.297-5.743a4.86 4.86 0 0 0 .02 1.278c-2.18.625-4.57.968-5.91 1.672-2.512 1.199-3.543 2.753-3.543 2.753s-.145-.195-.118-1.132c.528-4.7 3.34-4.903 6.168-5.547 1.25-.332 2.614-1.145 3.383-2.434zm101.438-90.578c-.442-.918-.422-2.644.222-3.496 2.352-3.125 11.598-4.109 15.871-.078-5.535.859-10.742 2.297-16.093 3.574m25.75 8.653c1.382-1.856 2.968-3.321 4.589-3.641 4.582.926 8.93 10.859 8.821 13.367.211 1.067-.852 2.305-.641 2.707.219.379 2.363-.402 3.559-.402 1.203 0 3.824 1.25 5.621 1.222 3.433-.05 3.793-1.933 4.394-2.148.45-.156 1.188.078 2.207-.441 1.039-.508 2.539-1.914 1.985-3.289-1.574-.157-2.364.058-3.227.058-1.156 0-2.679-1.23-2.777-2.09-.008-.136 3.258-.332 4.879-.383 5.133-.164 3.414 2.969 3.371 3.125-.117.598 2.793-.039 2.793-2.363 0-1.933-3.34-3.035-6.113-2.801-2.192.196-4.727 1.211-5.329 1.309-.25.039-1.679-3 .668-2.98.942 0 1.911.558 1.911.558.472 0 1.332-1.437-1.852-2.109-4.477-.989-6.836-1.074-7.887-3.996-.808-2.188-.48-4.551.731-6.524 3.441-5.613 14.426-4.773 17.019-1.328.891 1.192 1.039 2.844-.051 2.844-3.097-.274-7.839-.774-8.05 3.086.05 3.222 5.55 3.183 10.621 8.359 4 4.063 4.808 6.727 5.152 8.848.098.625.125 2.597.125 2.597.106.633 1.652-1.875 1.82-2.343 1.141-2.989.301-6.282.301-6.282 1.18 1.016 2.66 2.688 3.348 3.926.391.735.992 1.739 1.25 2.285.391.821.562-2.019.172-4.16-.559-3.113-3.36-5.722-3.36-5.722 5.532.031 7.778 6.32 7.778 6.32 4.215-4.902-2.453-11.223-2.453-11.223s.828-.293 2.023.012c1.543.398 2.574.75 3.574 1.922.977 1.152-.07-2.813-2.754-4.481-4.535-2.863-9.168-3.136-9.168-3.136.903-2.149 4.653-2.559 6.789-2.371 2.922.261 5.301 2.332 5.301 2.332 3.321-5.887-5.277-9.696-5.91-9.989 2.379-1.828 4.27-2.656 5.594-2.871.59-.09 1.066-.051 1.488.086.277.02-.719-1.472-3.109-1.211-4.012.442-7.5 1.672-7.5 1.672 5.347-11.359 11.886-10.93 12.39-10.879 0 0 0-5.039-7.011-5.039-.364 0-.711.027-1.059.078-2.594.399-4.82 2.129-5.094 2.332.114-3.711 8.321-7.597 8.321-7.597.429-.391-1.84-1.219-4.809-.75-1.5.234-3.172.781-4.781 1.894-3.781 2.586-6.852 8.067-7.117 8.555-2.102-8.606 4.867-12.649 6.609-12.891 1.039-.129-1.582-1.347-4.199-.937a5.313 5.313 0 0 0-1.461.41c-4.883 2.137-7.602 7.148-7.852 7.617-.101-.41-1-4.687 2.492-8.781.106-.125-.191-.156-.66-.086-.582.086-1.449.351-2.109.808-2.68 1.907-4.871 5.04-5.332 9.004-2.367-.429-4.047-2.722-4.867-4.558-.801-1.692-.774-3.801.144-5.324 1.25-2.196 2.543-3.243 4.235-3.594 1.406-.281 2.902-.223 4.277-.469 1.223-.215 2.351-.645 3.269-1.727 1.321-1.562.332-5.226-1.789-4.66 0 0 .704 1.739-.687 3.059a3.723 3.723 0 0 1-1.539.672c-1.074.156-2.043-.313-2.645-1.426-1.289-2.422 3.512-5.379 5.813-6.297 0 0 1.25-.793 2.59-.996 1.371-.215 2.832.195 3.191 2.664-.504.469-1.781.695-1.734 3.047.031 1.894 1.554 2.707 1.554 2.707.536 2.285 4.047 2.137 4.047 2.137.305-.078.039-.242-.16-.313-.898-.312-1.117-1.082-.937-1.668.179-.566 1.925-1.66.535-5.312.246-.04 1.812-.11 2.105 2.449.117.996-.234 1.914.188 2.715.347.676 1.281 1.152 2.269.86 1.047.39 1.867.468 2.531.362 1.903-.285 2.372-2.082 2.372-2.082s.019-.234-.18-.183c-.172.078-.41.137-.672.176-.922.136-2.129.058-1.93-.645.129-.46.52-1.094-.472-2.375-1.45-1.863-4.465-.555-3.559-4.414.133.195.891 1.23 2.559 1.074 1.402-.136 2.882-1.777 2.863-4.101-.051-.868-.395-1.621-1.203-2.168 0 0-.117.097-.086.234.258 1.066-.184 1.777-.953 1.945-1.461.118-.969-.976-2.77-.93-.238 0-.461.02-.66.051-.668.106-1.09.333-1.535.399-.133.02-.274.031-.422.012-2.269-.293-5.172-1.973-6.223-3.555-1.039-1.582.129-2.031-.816-3.488-.805-1.25-1.746-1.16-1.746-1.16s-.039-.352.012-.793c.082-.614.332-1.395 1.132-1.57 0 0 .247-.118.028-.177-.246-.078-.727-.226-1.25-.136-.641.097-1.348.535-1.699 1.883a6.69 6.69 0 0 0-.2 1.34s-1.316 1.238-.73 2.8c.73 1.945 2.449 1.348 1.742 3.653-.793 2.558-5.723 6.835-8.836 7.324-.746.117-1.387 0-1.836-.41-1.047-.946-1.258-3.614 2.07-3.836-.671-1.387-1.828-1.77-3.738-1.328-1.504.351-3.07 2.675-2.472 5.722.789 3.973-1.688 7.149-4.071 7.528-.336.05-.679.05-1-.02-2.816-.477-2.359-4.617-2.359-4.617l1.449-16.106c-.078-.496.145-1.25.621-2.05.93-1.543 2.82-3.27 5.481-3.836 2.289-.43 4.129.117 4.73.918.16.253 1.149 1.738.649 2.918-.161.363-.45.695-.938.949a1.856 1.856 0 0 1-.391.125c-.847.117-1.382-.664-1.55-.567-.442 1.106.199 3.106 3.179 2.532 2-.371 2.7-1.7 2.868-3.04.191-1.55-.336-3.105-.336-3.105s1.726.606 3.781.293c.187-.027.379-.066.578-.117 1.598-.652 2.73-1.426 2.961-3.145.258-1.98-1.449-2.949-1.449-2.949s.523 1.438-.985 2.317c-.41.203-.781.34-1.129.39-1.98.301-2.992-1.719-2.879-3.254.133-2.441-.476-4.363-2.308-4.629a5.332 5.332 0 0 0-1.063.032c-1.332.203-1.429 1.015-1.429 1.015s1.976-.176 1.922 1.64c.199 4.52-7.704 4.423-10.622 5.946-2.511 1.203-3.531 2.746-3.531 2.746s-.16-.187-.129-1.125c.532-4.707 3.34-4.902 6.168-5.554 1.879-.5 4.008-2.07 4.008-4.727 0-3.77-2.476-3.36-2.476-3.36s.988 2.997-1.743 3.426c-.199.032-.425.051-.675.051-1.543 0-2.422-.781-3.352-1.515-1.449-1.16-5.75-6.2-6.59-7.02-.84.82-5.152 5.86-6.601 7.02-.93.734-1.809 1.515-3.352 1.515-.246 0-.469-.02-.68-.05-2.726-.43-1.734-3.426-1.734-3.426s-2.48-.41-2.48 3.359c0 2.656 2.125 4.227 4.007 4.727 2.832.652 5.641.847 6.172 5.554.028.938-.133 1.125-.133 1.125s-1.019-1.543-3.531-2.746c-2.918-1.523-10.82-1.426-10.617-5.945-.063-1.817 1.918-1.64 1.918-1.64s-.098-.813-1.426-1.016a5.375 5.375 0 0 0-1.066-.032c-1.824.266-2.438 2.188-2.309 4.63.113 1.534-.898 3.554-2.875 3.253-.351-.05-.723-.187-1.133-.39-1.507-.88-.98-2.317-.98-2.317s-1.711.969-1.453 2.95c.234 1.718 1.363 2.492 2.965 3.144.199.05.39.09.578.117 2.058.313 3.781-.293 3.781-.293s-.531 1.555-.34 3.106c.172 1.34.867 2.668 2.879 3.039 2.969.574 3.609-1.426 3.172-2.532-.172-.097-.699.684-1.551.567a1.737 1.737 0 0 1-.391-.125c-.492-.254-.781-.586-.941-.95-.496-1.18.492-2.664.649-2.917.601-.801 2.441-1.348 4.734-.918 2.66.566 4.551 2.293 5.476 3.836.485.8.704 1.554.622 2.05l1.449 16.106s.461 4.14-2.36 4.617c-.32.07-.66.07-.992.02-2.387-.38-4.867-3.555-4.074-7.528.594-3.047-.965-5.37-2.473-5.722-1.91-.442-3.07-.059-3.738 1.328 3.328.222 3.117 2.89 2.07 3.836-.449.41-1.093.527-1.839.41-3.114-.489-8.043-4.766-8.833-7.324-.71-2.305 1.008-1.708 1.743-3.653.59-1.562-.735-2.8-.735-2.8a6.353 6.353 0 0 0-.199-1.34c-.348-1.348-1.059-1.786-1.699-1.883-.52-.09-1 .058-1.25.136.828.352 1.078 1.133 1.16 1.747.051.441.012.793.012.793s-.946-.09-1.742 1.16c-.95 1.457.222 1.906-.817 3.488-1.051 1.582-3.949 3.262-6.223 3.555-.152.02-.292.007-.417-.012-.45-.066-.872-.293-1.543-.399a4.337 4.337 0 0 0-.661-.05c-1.8-.047-1.308 1.047-2.769.93-.77-.169-1.211-.88-.949-1.946.027-.137-.09-.234-.09-.234-.813.547-1.153 1.3-1.199 2.168-.024 2.324 1.457 3.965 2.859 4.101 1.672.156 2.441-.879 2.559-1.074.91 3.86-2.11 2.55-3.559 4.414-.992 1.281-.602 1.914-.469 2.375.199.703-1.012.781-1.933.645-.258-.04-.5-.098-.661-.176-.191.183.286 1.98 2.184 2.265.656.106 1.488.028 2.527-.363.993.293 1.918-.183 2.274-.86.418-.8.066-1.718.187-2.714.289-2.559 1.864-2.488 2.102-2.45-1.395 3.653.359 4.747.535 5.313.184.586-.039 1.356-.937 1.668-.2.07-.457.235-.161.313 0 0 3.512.148 4.051-2.137 0 0 1.52-.813 1.551-2.707.047-2.352-1.231-2.578-1.731-3.047.36-2.469 1.817-2.879 3.192-2.664 1.336.203 2.586.996 2.586.996 2.301.918 7.105 3.875 5.808 6.297-.597 1.113-1.566 1.582-2.632 1.426a3.688 3.688 0 0 1-1.543-.672c-1.387-1.32-.692-3.059-.692-3.059-2.117-.566-3.109 3.098-1.793 4.66.926 1.083 2.055 1.512 3.274 1.727 1.383.246 2.871.188 4.281.469 1.691.351 2.98 1.398 4.23 3.594.918 1.523.946 3.632.153 5.324-.824 1.836-2.5 4.129-4.875 4.558-.457-3.964-2.649-7.097-5.328-9.004-.661-.457-1.532-.722-2.11-.808-.472-.07-.769-.039-.664.086 3.5 4.094 2.594 8.371 2.492 8.781-.25-.469-2.968-5.48-7.847-7.617a5.392 5.392 0 0 0-1.461-.41c-2.613-.41-5.231.808-4.203.937 1.742.242 8.711 4.285 6.613 12.891-.27-.488-3.332-5.969-7.121-8.555a11.452 11.452 0 0 0-4.781-1.894c-2.969-.469-5.239.359-4.809.75 0 0 8.207 3.886 8.32 7.597-.269-.203-2.5-1.933-5.09-2.332a7.314 7.314 0 0 0-1.062-.078c-7.008 0-7.008 5.039-7.008 5.039.5-.051 7.043-.48 12.391 10.879 0 0-3.492-1.23-7.5-1.672-2.391-.261-3.391 1.231-3.113 1.211.421-.137.906-.176 1.492-.086 1.32.215 3.211 1.043 5.59 2.871-.629.293-9.231 4.102-5.911 9.989 0 0 2.379-2.071 5.297-2.332 2.145-.188 5.895.222 6.793 2.371 0 0-4.629.273-9.168 3.136-.14.086-.277.176-.41.274a61.197 61.197 0 0 1-6.433-.324c-1.469-5.75-6.239-9.969-11.887-9.969-5.629 0-10.383 4.18-11.871 9.883-3.672.652-7.2.742-10.649.457l-80.5-85.723c7.77-7.273 16.27-13.438 25.137-18.574l75.273 80.148V78.859l-47.269-50.343c17.187-5.809 34.516-8.438 49.867-8.438 58.703 0 146.371 38.457 144.371 146.067v69.218l-37.613-40.058h-39.848l77.461 82.5v45.351l-81.211-86.496c.371-.301.59-.652.59-1.035zm-8.758-25.946h26.719v10.742h-26.731zm13.359-20.957c12.012 0 13.063 11.348 13.063 11.348h-26.211s1.125-11.348 13.148-11.348M61.925 291.359h26.72v10.731h-26.73Zm13.356-20.968c12.016 0 13.063 11.359 13.063 11.359H62.133s1.133-11.359 13.148-11.359m72.082-123.524a5.758 5.758 0 0 1 5.75-5.754 5.754 5.754 0 0 1 5.754 5.754 5.758 5.758 0 0 1-5.754 5.75c-3.168 0-5.75-2.586-5.75-5.75m-54.21 86.582v-88.136s.964-1.18 6.851.429c6.781 1.856 15.191 10.488 26.969 13.067 8.843 1.914 20.761-.868 23.539-2.793v88.293s-5.336 5.234-14.117 5.234c-8.567 0-23.02-7.695-28.579-10.488-4.843-2.414-9.93-4.239-13.64-4.602-1.117-.098-1.024-1.004-1.024-1.004m77.262-74.433c15.309 0 23.281-9.493 28.473-11.563 12.09-4.805 14.117-2.344 14.117-2.344v88.594c0 .86-1.281.86-1.281.86s-11.785 1.816-15.84 4.285c-3.848 2.343-18.188 10.918-28.676 10.918-10.523 0-12.41-4.5-12.41-4.5v-89.465s4.922 3.215 15.617 3.215" style="fill:#d01f25;fill-opacity:1;fill-rule:nonzero;stroke:none" transform="matrix(.0562 0 0 -.0562 0 27.762)"/></svg>