<svg xmlns="http://www.w3.org/2000/svg" xml:space="preserve" width="1000" height="400"><g style="fill:#1e1e1c"><path d="M192.328 34.336c-91.346 0-165.664 74.32-165.664 165.662 0 91.342 74.321 165.666 165.664 165.666 91.35 0 165.662-74.324 165.662-165.666S283.673 34.336 192.328 34.336zm212.053 0v331.328h1.892V34.336h-1.892zM192.328 36.25c90.292 0 163.754 73.456 163.754 163.748 0 90.293-73.459 163.756-163.754 163.756-90.293 0-163.75-73.463-163.75-163.756 0-90.292 73.457-163.748 163.75-163.748zm.026 4.54c-87.782 0-159.21 71.421-159.21 159.204 0 55.794 28.882 104.955 72.456 133.393l.824.523c24.807 15.977 54.295 25.293 85.93 25.293 87.786 0 159.203-71.425 159.203-159.207S280.14 40.793 192.354 40.793v-.004zm8.05 2.106c83.003 4.204 149.23 73.056 149.23 157.086 0 55.335-28.748 104.05-72.066 132.094l.014-7.639-7.168-.017v-19.182c32.743-24.442 52.283-63.35 52.283-104.18 0-40.828-19.55-79.757-52.308-104.193V83.492h4.88v-1.916h-4.88V69.16h-1.98v7.861l-23.837-13.025V52.928h-1.554v11.164l-24.854 11.312V61.7h2.268v-7.03h-3.81c-2.633-5.647-8.66-9.904-16.218-11.773zm-17.924.143c-7.316 1.93-13.142 6.12-15.712 11.637h-3.938v7.03h2.397v13.741L140.373 64.1V52.932h-1.553v11.06L114.836 77.11v-7.945h-1.912l.053 12.416h-4.7v1.916h4.7v15.04c-31.854 24.831-50.125 62.191-50.125 102.526 0 40.35 18.263 77.703 50.125 102.528v20.822l-6.045-.008.035 7.586c-43.233-28.067-71.912-76.732-71.912-132v-.002c0-83.416 65.27-151.839 147.425-156.949zm8.131.762v4.803h-3.28v1.916h3.28v4.154H168.89c3.44-6.25 12.03-10.568 21.722-10.873zm1.912.002c9.794.234 18.512 4.569 21.983 10.879h-21.983v-4.155h3.547v-1.916h-3.547v-4.808zm-27.777 12.795h53.783v3.195h-53.783v-3.195zm2.719 5.109h48.465v19.877h-4.084V83.5h4.084v37.072h-2.979c-1.423-10.663-17.901-36.157-20.27-39.779v-9.676h-2.232v9.73c-2.514 3.786-18.452 28.148-19.828 39.725h-3.158V83.498h4.082v-1.916h-4.08V61.707zm-27.969 4.094 1.99.912v53.857h-3.326V66.535l1.336-.734zm104.399.004 1.334.73v54.037h-3.32V66.717l1.986-.912zm-100.34 1.841 21.672 9.9v4.034h-4.92v1.916h4.92V97.14c-3.723-4.366-7.807-7.376-10.108-8.641v-7.705h-1.988v7.605c-1.613 1.181-6.696 5.052-9.576 9.043V67.646zm96.287 0v29.448c-2.915-3.855-7.757-7.552-9.324-8.694v-7.605h-1.993v7.709c-1.616 1.146-6.454 4.695-10.359 8.394V83.496h4.92V81.58h-4.92v-4.068l21.676-9.866zm7.451.016 21.182 11.543v2.377h-4.446v1.916h4.446v11.84c-3.685-3.344-7.849-5.78-9.325-6.834v-7.71h-1.99V88.4c-1.665 1.214-7.045 5.314-9.867 9.426V67.662zm-111.195.004v30.453c-2.876-3.998-7.99-7.899-9.61-9.084V81.43h-1.99v7.71c-1.504 1.072-5.809 4.218-9.549 7.641V83.502h4.574v-1.916h-4.576v-2.352l21.15-11.568zm55.484 15.068c3.615 5.608 17.98 28.35 19.377 37.836h-18.307v-5.994c0-3.15 2.136-5.367 5.19-5.396h.049c2.513 0 4.517 1.671 4.68 3.902.064.88-.244 1.76-.844 2.402a2.93 2.93 0 0 1-2.155.961h-.029c-1.268 0-2.318-.706-2.414-2.064v-.03l-1.906-.01c.003.06-.008.11-.004.17.163 2.232 1.812 3.846 4.322 3.846h.05a4.814 4.814 0 0 0 3.54-1.572 5.155 5.155 0 0 0 1.35-3.846c-.203-2.717-2.22-4.843-4.946-5.468h.043c0-3.625-2.724-6.575-6.068-6.575v1.913c2.234 0 4.047 1.986 4.138 4.472-2.648.082-4.785 1.445-5.949 3.541-1.16-2.11-3.3-3.47-5.953-3.554.092-2.483 1.9-4.47 4.137-4.47v-1.915c-3.345 0-6.067 2.953-6.067 6.578h.069c-2.726.624-4.768 2.745-4.967 5.469a5.131 5.131 0 0 0 1.342 3.838c.924 1 2.18 1.56 3.545 1.58h.052c2.5 0 4.21-1.619 4.372-3.854.005-.05.003-.1.003-.152h-1.914l.002.017c-.099 1.376-1.32 2.054-2.502 2.069a2.94 2.94 0 0 1-2.156-.955 3.217 3.217 0 0 1-.838-2.409c.165-2.267 2.129-3.902 4.678-3.902h.049c3.058.024 5.19 2.248 5.19 5.402v6.006h-18.11c1.34-10.355 15.359-32.349 18.951-37.836zm66.496 7.217c1.605 1.15 6.575 4.186 10.397 7.854v22.763h-21.141v-18.257c0-3.675 7.322-9.842 10.744-12.36zm-104.023.002c1.708 1.223 10.988 8.17 11.172 11.6v19.017h-6.688a24.855 24.855 0 0 0-14.984-.203v-18.11c.475-3.872 7.435-10.049 10.5-12.304zm75.539.004c2.894 2.131 9.643 7.875 10.248 11.756v18.66a24.873 24.873 0 0 0-14.99.201h-6.686v-19.717c0-2.912 9.718-9.677 11.428-10.9zm-104.03.63c3.09 2.275 10.345 8.317 10.534 12.304v17.683h-21.15V99.262c3.848-3.728 8.983-7.503 10.616-8.674zm144.829 8.692c31.58 24.133 50.396 62.044 50.396 101.791 0 5.47-.367 10.897-1.06 16.26h-13.21s-.08-13.807-.113-23.71l7.305 6.792 1.42-1.521-8.813-8.166c-.01-4.104-.015-13.01-.015-13.01.188.457.638.787 1.166.787a1.263 1.263 0 0 0 0-2.525 1.26 1.26 0 0 0-1.166.787v-3.31a1.26 1.26 0 1 0 0-.95v-3.31c.188.464.638.786 1.166.786a1.264 1.264 0 0 0 0-2.527 1.26 1.26 0 0 0-1.166.79v-1.423h-.463a1.24 1.24 0 0 0 .685-1.103 1.264 1.264 0 1 0-2.527 0c0 .486.283.897.684 1.103h-.463v1.297a1.251 1.251 0 0 0-1.088-.662 1.264 1.264 0 0 0 0 2.525c.475 0 .874-.274 1.09-.664v3.063a1.248 1.248 0 0 0-1.09-.66 1.262 1.262 0 1 0 0 2.521c.475 0 .874-.277 1.09-.66v3.059a1.251 1.251 0 0 0-1.09-.662 1.263 1.263 0 0 0 0 2.525c.475 0 .874-.27 1.09-.668v12.324l-10.957.031c-.002-.263-.135-40.798-.135-40.798.19.457.638.787 1.164.787a1.262 1.262 0 1 0-1.164-1.742v-3.307c.19.458.638.789 1.164.789a1.262 1.262 0 1 0-1.164-1.742v-3.305a1.26 1.26 0 1 0 1.164-1.74c-.526 0-.974.325-1.164.783v-1.42h-.465c.401-.205.684-.612.684-1.101 0-.688-.563-1.26-1.262-1.26-.697 0-1.264.572-1.264 1.26 0 .49.285.897.686 1.103h-.463v1.291a1.249 1.249 0 0 0-1.09-.656 1.261 1.261 0 1 0 0 2.521c.476 0 .876-.273 1.09-.66v3.059a1.245 1.245 0 0 0-1.09-.66 1.264 1.264 0 0 0 0 2.527 1.24 1.24 0 0 0 1.09-.668v3.06a1.252 1.252 0 0 0-1.09-.66 1.264 1.264 0 0 0 0 2.528 1.25 1.25 0 0 0 1.09-.664v22.603c-3.913-17.819-13.832-31.176-20.65-35.976v-13.645h5.343v-1.918h-5.343l-.002-.002V99.28zm-157.416 1.735v19.556h-5.317v1.918h5.315v14.989c-6.804 4.94-16.183 18.094-20.385 35.767v-22.59c.215.39.612.664 1.088.664a1.266 1.266 0 0 0 0-2.529c-.476 0-.873.277-1.088.66v-3.05c.215.385.612.656 1.088.656a1.26 1.26 0 0 0 1.263-1.252c0-.702-.566-1.272-1.263-1.272-.476 0-.873.275-1.088.668v-3.06c.215.387.612.662 1.088.662a1.265 1.265 0 0 0 0-2.53 1.24 1.24 0 0 0-1.088.665v-1.291h-.465a1.26 1.26 0 0 0 .688-1.104c0-.699-.567-1.268-1.266-1.268-.697 0-1.264.569-1.264 1.268 0 .479.285.89.684 1.104h-.46v1.414a1.266 1.266 0 0 0-1.165-.788 1.266 1.266 0 0 0 0 2.532c.527 0 .976-.331 1.164-.79v3.311a1.257 1.257 0 0 0-1.164-.793 1.27 1.27 0 0 0-1.266 1.272 1.262 1.262 0 0 0 2.43.47v3.311a1.26 1.26 0 0 0-1.164-.795 1.266 1.266 0 0 0 0 2.53c.527 0 .976-.328 1.164-.786 0 0 .02 38.15.014 40.852l-11.106-.035v-12.37c.213.39.616.665 1.092.665a1.262 1.262 0 1 0 0-2.524c-.476 0-.879.27-1.092.664v-3.064c.213.39.616.666 1.092.666.696 0 1.264-.569 1.264-1.264 0-.699-.57-1.266-1.266-1.266-.475 0-.877.273-1.09.664v-3.058c.213.394.616.664 1.092.664a1.265 1.265 0 0 0 0-2.53c-.476 0-.879.28-1.092.667v-1.291h-.463c.402-.217.686-.625.686-1.11a1.263 1.263 0 0 0-2.526 0c0 .485.284.893.686 1.11h-.467v1.416a1.258 1.258 0 0 0-2.428.474c0 .7.567 1.264 1.264 1.264.529 0 .974-.33 1.164-.787v3.303a1.268 1.268 0 0 0-1.164-.786 1.266 1.266 0 0 0 0 2.53c.529 0 .974-.327 1.164-.78v3.297a1.261 1.261 0 1 0 0 .955v12.985l-8.828 8.193 1.42 1.522 7.473-7.14v22.905h-11.58a129.876 129.876 0 0 1-1.047-16.262c0-39.234 17.559-75.583 48.209-100.048zm-39.12 7.162c-.587 0-1.148.147-1.683.441-1.423.784-2.686 1.925-3.791 3.422l-1.662 2.31 15.947 11.51 1.281-1.771-7-5.063.32-.44 10.485.23 1.57-2.176-10.795-.073c.773-1.305 1.022-2.607.744-3.902-.277-1.29-1.026-2.382-2.255-3.27-1.128-.813-2.181-1.22-3.16-1.218zm240.438.992-15.945 11.52 4.466 6.173 1.635-1.191-3.16-4.399 14.275-10.328-1.271-1.775zm-240.662 1.21c.658-.01 1.397.283 2.219.878 1.23.894 1.719 1.876 1.455 2.947-.26 1.078-.746 2.115-1.461 3.098a.059.059 0 0 1-.022.031c-.007.007-.019.012-.045.016l-.394.552-5.73-4.14.378-.526c.772-1.074 1.607-1.906 2.504-2.51a1.99 1.99 0 0 1 1.096-.345zm440.775 7.26v67.721h8.065v-48.17l48.384 50.832v-67.298h-8.029v47.754l-48.42-50.838zm393.264.35-30.78 67.371h8.633l7.358-16.197h29.584l7.355 16.197h8.64l-30.79-67.37zm-118.283 1.367c-9.748 0-18.989 6.258-18.989 16.715 0 9 6.675 13.207 14.026 16.371l4.45 1.887c5.556 2.316 11.112 5.319 11.112 12.262 0 6.77-4.958 12.6-11.884 12.6-6.924 0-12.57-5.145-12.487-12.258l-8.125 1.72c1.373 10.366 9.498 18.08 19.928 18.08 11.546 0 20.61-8.395 20.61-20.144 0-10.801-6.844-15.856-15.993-19.457l-4.617-1.803c-4.02-1.543-8.977-4.196-8.977-9.258 0-5.66 5.645-9.17 10.774-9.17 4.874 0 7.951 2.051 10.347 6.084l6.413-3.861c-3.505-6.26-9.4-9.768-16.588-9.768zm105.593.85c-2.824 0-5.132 2.314-5.132 5.145 0 2.912 2.308 5.224 5.132 5.224a5.186 5.186 0 0 0 5.22-5.224c0-2.83-2.308-5.145-5.22-5.145zm25.356 0c-2.906 0-5.215 2.314-5.215 5.145a5.187 5.187 0 0 0 5.215 5.224c2.826 0 5.13-2.312 5.13-5.224 0-2.83-2.305-5.145-5.13-5.145zm-467.674.518v40.894c0 14.232 8.81 25.12 23.604 25.12 14.794 0 23.6-10.888 23.6-25.12v-40.894h-8.04v38.156c0 10.538-3.16 20.312-15.56 20.312-12.401 0-15.565-9.774-15.565-20.312v-38.156h-8.039zm135.774 0v64.636h8.039v-64.636h-8.04zm16.42 0 28.042 68.074 27.97-68.074h-8.792l-19.18 47.84-19.214-47.84h-8.827zm64.367 0v64.636h34.617v-7.367h-26.59v-24.431h25.826v-7.372h-25.826V128.1h26.59v-7.376h-34.617zm51.658 0v64.636h8.037v-27.343h3.336l18.98 27.343h9.75l-20.351-28.111c9.325-1.117 15.478-8.835 15.478-18.086 0-6.176-3.078-12.26-8.468-15.44-5.128-2.904-11.285-3-17.016-3h-9.746zm101.85 0v64.636h8.038v-64.636h-8.039zm19.36 0v7.379h15.33v57.257h8.028l-.002-57.26h15.293v-7.376h-38.648zm92.593 0v7.379h15.293v57.257h8.027v-57.257l15.33-.002v-7.377h-38.65zm-783.957.5c12.77 0 23.164 10.39 23.164 23.164 0 7.21-3.416 14.048-9.147 18.418l-7.478-4.069c.49-.433 1.351-1.082 1.351-1.082.075.017.192.06.348.106 1.494.476 5.47 1.736 7.845-.701 1.974-2.026 1.68-4.331 1.46-6.006-.125-.99-.236-1.842.083-2.385.793-1.327 1.274-3.615.655-5.416-.35-1.03-1.024-1.764-1.951-2.125-1.011-.398-1.273-.72-1.637-1.156a5.266 5.266 0 0 0-.826-.856c-.2-.17-.545-1.019-.772-1.586-.534-1.327-1.137-2.828-2.31-3.424-1.288-.638-2.578-.108-3.518.29-.334.138-.83.346-.88.36-.084-.063-.254-.31-.38-.495-.553-.816-1.502-2.268-3.738-2.094-1.435.064-2.304.761-3.07 1.377-.364.295-.71.564-1.092.76-.415.205-1.607.283-2.563.34-1.748.114-3.394.218-4.279.98-1.189 1.02-1.653 2.718-2.031 4.08-.135.482-.247.917-.385 1.215-.229.486-.727.78-1.297 1.125-.79.471-1.871 1.117-1.941 2.508-.087 1.6 1.638 2.67 3.31 3.703.812.5 2.344 1.705 2.344 1.705 1.39 1.384 2.025 2.012 1.61 4.566-.26 1.586-1.353 1.764-3 1.852-.455.025-5.458.557-7.694 2.004-.128.078-.29.183-.426.27a22.933 22.933 0 0 1-4.92-14.264c0-12.774 10.395-23.164 23.165-23.164zm81.935.002c12.774 0 23.166 10.39 23.166 23.164 0 4.693-1.4 9.177-4.03 13.033-.87.28-2.211.56-3.241.217-5.933-1.99-4.509-9.18-3.825-12.635l.131-.676c.536-2.86-.484-6.548-2.535-9.176-1.389-1.784-3.098-2.817-4.824-2.92-4.26-.266-6.002 1.408-7.404 2.752l-.172.164c-1.167-1.436-3.692-4.094-8.768-1.994-4.77 1.965-5.27 9.141-5.064 11.5.078.95-.336 1.621-.916 2.534-.64 1.022-1.44 2.288-1.508 4.214-.074 1.838.91 3.484 1.777 4.934.851 1.409 1.376 2.373 1.012 2.912-.643.933-1.34.994-2.48.803-2.848-3.548-4.483-9.234-4.483-15.662 0-12.774 10.393-23.164 23.164-23.164zm-40.967 1.263v.002a2.3 2.3 0 0 1 2.303 2.3 2.31 2.31 0 0 1-2.303 2.302 2.312 2.312 0 0 1-2.304-2.303 2.304 2.304 0 0 1 2.304-2.3zm-28.785.002h25.262a3.94 3.94 0 0 0-.363.662 4.148 4.148 0 0 0-.334 1.641c0 .577.118 1.13.334 1.635.172.405.42.768.707 1.105 0 0 .905.901 1.494 1.121-4.065 1.98-10.046 3.63-16.846 4.598a25.232 25.232 0 0 0-10.254-10.762zm81.938 0 23.625.002v2.344c-3.203 1.767-8.594 3.405-15.604 4.764-2.132-2.905-4.857-5.35-8.021-7.11zm-129.903.002h23.598c-3.154 1.753-5.876 4.19-8.006 7.088-6.997-1.362-12.378-3.006-15.553-4.773l-.039.058v-2.373zm80.276 0 25.257.002a25.24 25.24 0 0 0-10.251 10.762c-6.798-.965-12.672-2.64-16.739-4.615.65-.305 1.387-1.104 1.387-1.104.642-.749 1.037-1.695 1.037-2.742a4.17 4.17 0 0 0-.691-2.303zm-134.26.73-4.897 8.952 17.254 9.44 4.897-8.952-1.787-.969-3.84 7.022-6.778-3.701 3.735-6.827-1.787-.976-3.73 6.82-5.128-2.802 3.848-7.026-1.787-.98zm263.098.731-17.053 9.793 1.092 1.904 17.054-9.795-1.093-1.902zm-209.114 3.334c3.292 1.607 8.075 3.049 14.254 4.297a24.866 24.866 0 0 0-3.092 8.088c-6.28-1.248-9.28-2.628-11.162-3.725v-8.66zm153.528.059v8.66c-2.344 1.365-5.394 2.765-11.153 3.904a24.938 24.938 0 0 0-3.117-8.297c6.17-1.238 10.96-2.667 14.27-4.267zm460.445.586h2.137c7.95 0 17.533 1.449 17.533 11.57 0 10.287-8.894 11.83-17.108 11.83h-2.562v-23.4zm-537.223 1.943c4.214 2.278 10.38 4.095 17.71 5.184a24.976 24.976 0 0 0-1.803 9c-5.756-1.075-10.946-2.63-15.768-4.786l-.01-.025a.966.966 0 0 1-.326 0l-.008.025c-4.17 1.865-9.572 3.465-15.71 4.643a24.898 24.898 0 0 0-1.796-8.857c7.33-1.09 13.497-2.906 17.711-5.184zm-38.619 4.203c1.147-.082 1.577.526 2.076 1.264.361.525.81 1.187 1.631 1.28.657.077 1.309-.192 1.94-.458.859-.358 1.452-.57 1.931-.338.525.263 1.029 1.512 1.395 2.428.402.993.75 1.858 1.326 2.338.252.209.411.404.57.6.44.535.94 1.138 2.412 1.716.395.15.672.469.84.969.403 1.178.064 2.894-.484 3.816-.66 1.1-.496 2.374-.342 3.604.202 1.575.396 3.073-.928 4.428-1.404 1.437-4.098.766-5.486.347.432-.472.77-.861.94-1.056.513-.653 4.998-6.444 3.558-10.438-.577-1.614-1.867-1.872-2.81-2.06-.552-.114-1.078-.22-1.524-.55-.34-.248-.474-.59-.687-1.167-.294-.82-.7-1.938-2.194-2.524-.51-.19-.978-.177-1.488-.17-.646.015-1.49.03-2.84-.423-2.852-.976-5.426 1.02-6.496 2.35-.432.528-.539.86-.643 1.284-.087.337-.213.856-1.058 2.25-1.163 1.937-2.843 3.087-3.446 3.452-.206-.128-.409-.26-.615-.387-.853-.528-2.437-1.509-2.41-1.98.018-.323.242-.507 1.012-.965.703-.418 1.572-.936 2.047-1.954.177-.373.33-.908.502-1.52.305-1.11.688-2.496 1.433-3.142.397-.337 2.058-.445 3.155-.513 1.36-.09 2.531-.16 3.294-.543.566-.283 1.027-.653 1.43-.973.643-.525 1.15-.93 1.96-.965zm83.35.045c.3-.008.62-.004.96.014 1.17.067 2.388.85 3.438 2.191 1.706 2.19 2.594 5.334 2.158 7.654l-.125.65c-.728 3.679-2.439 12.301 5.092 14.823a5.577 5.577 0 0 0 1.7.254 8.33 8.33 0 0 0 1.824-.22c.374.392 2.946 3.27 4.24 7.353-1.074-.305-3.764-2.242-3.764-2.242-.163-.117-3.436-2.313-7.24-2.405-1.508-.039-3.547.624-4.682 1.022-.002-.135.022-.295.01-.412a21.06 21.06 0 0 0-.467-2.674c.046 0-.104-.533-.207-.817a21.509 21.509 0 0 0-.086-.308l-.023.008c-.326-1.03-.41-2.15-.14-3.164.775-2.927.47-8.163.21-11.026-.158-1.784-1.417-6.274-4.11-7.945-.894-.55-1.926-.95-3.001-1.225.962-.816 2.113-1.474 4.213-1.53zm-11.787.162c1.277-.012 2.173.475 2.857 1.078-1.394.177-2.645.615-3.533 1.32-2.45 1.944-3.12 3.817-3.485 5.555-.193.936-.779 6.9-.65 8.694.151 2.296 1.025 4.53 1.479 5.496l-.014.006c.008.007.481.738.685 2.306.191 1.486.268 4.7.252 6.168-.987.287-3.004.805-4.886.84-.713.022-1.47-.012-1.842-.033-.231-.021-.438-.025-.697-.078a39.783 39.783 0 0 1-3.813-.916c-.309-1.072-.525-2.69.117-2.987.458-.195 1.16-.058 1.907.084 1.493.291 3.526.693 5.021-1.496 1.09-1.582.055-3.303-.945-4.97-.768-1.273-1.566-2.596-1.512-3.87.054-1.415.618-2.315 1.219-3.27.656-1.042 1.336-2.118 1.199-3.714-.203-2.416.488-8.17 3.895-9.568 1.077-.45 1.98-.637 2.746-.645zm683.03 1.358 11.464 26.144h-22.918l11.455-26.144zm-678.292 1.513c1.692.062 3.486.518 4.832 1.35 1.253.77 2.157 2.565 2.691 4.183-2.81-.465-5.706.519-6.336.827l.838 1.716c.446-.216 3.412-1.237 5.867-.513 0 0 .143.118.157.271.193 2.2.567 7.62-.158 10.356a6.925 6.925 0 0 0-.211 1.738c-1.392-.103-2.475-.72-3.596-1.408-1.25-.77-2.544-1.56-4.176-1.365-1.369.166-2.301.839-3.119 1.439-.878.631-1.577 1.085-2.695 1.03-.05-.16-.105-.348-.155-.483a.776.776 0 0 0-.011-.035 1.853 1.853 0 0 0-.045-.108c-.04-.12-.08-.246-.125-.334-.4-.756-1.266-2.988-1.399-5.021-.075-1.061.15-3.997.358-6.065l.011.02c.004-.007.536-.324 1.916-.324 1.13 0 2.357-.042 2.875.656.153.203.446.937.307 1.629-.512 2.593-1.248 5.207-1.601 5.867 0 0 1.663.053 2.046.07.151-.538 1.371-5.339 1.387-5.38.417-1.388.124-2.644-.299-3.208-1.005-1.355-3.225-1.548-4.715-1.548a8.07 8.07 0 0 0-1.677.16c.002-.012.003-.034.01-.051.264-1.292.726-2.81 2.794-4.451.944-.747 2.536-1.08 4.229-1.018zm101.844.446-18.141 7.597.85 2.02 7.94-3.324.614 1.46c.041.1.08.2.123.291.037.093.082.196.12.295.306.642.676 1.256 1.109 1.834.43.586.978 1.053 1.652 1.39a4.77 4.77 0 0 0 2.182.558 6.156 6.156 0 0 0 2.24-.373c.032-.014.064-.027.096-.045.032-.01.063-.025.094-.035a5.94 5.94 0 0 0 2.1-1.489 4.81 4.81 0 0 0 1.17-2.287 5.075 5.075 0 0 0-.007-2.146 13.856 13.856 0 0 0-.633-2.082 7.243 7.243 0 0 0-.14-.334 6.765 6.765 0 0 1-.117-.346l-1.252-2.984zm-216.276.705c2.066 1.072 5.24 2.313 10.852 3.42a25.39 25.39 0 0 0-.147 2.664c0 5.608 1.816 10.898 5.235 15.312-3.06 2.06-7.451 5.422-10.918 10.52-2.261 3.026-2.514 14.9-2.518 15.017-.074 3.955 1.148 9.876 1.82 12.16.76 2.6.448 5.113.202 7.131-.098.806-.188 1.54-.202 2.182-.03 1.007-.469 2.973-.898 4.867-.493 2.192-.956 4.271-.92 5.4.067 2.596 1.285 4.91 2.305 6.434v37.82l-2.139.776 2.139 9.363v53.051l-4.81-.004V138.307zm153.528.072v49.568c-.184-.32-.352-.624-.55-.947l-.27-.457c-.182-.312-.544-.725-1.143-1.398-2.192-2.477-7.333-8.27-8.272-15.819-.645-5.2-3.682-9.209-4.949-10.674 2.92-4.207 4.453-9.116 4.453-14.263 0-.823-.043-1.627-.123-2.424 5.316-1.036 8.476-2.302 10.854-3.586zm1.916.605c2.216 1.813 4.57 4.353 6.875 7.5-2.378 3.91-4.996 8.347-6.875 13.657v-21.157zm-118.95.352c.278.007.564.056.854.156 1.669.578 2.764.542 3.504.528.35-.003.602-.01.752.05.655.248.813.62 1.09 1.375.233.653.525 1.466 1.351 2.073.792.57 1.616.734 2.281.873.887.18 1.183.255 1.387.826.913 2.554-2.04 7.08-3.232 8.578-1.598 1.855-4.374 4.626-5.545 4.973-1.64.483-3.508 0-4.299-.518-.633-.397-2.778-2.09-4.158-3.191.018-.075.048-.14.064-.225.574-3.523-.626-4.715-2.15-6.227 0 0-.352-.311-.426-.382.94-.667 2.363-1.88 3.441-3.666v-.002c.986-1.635 1.159-2.327 1.276-2.774.06-.252.072-.306.273-.547.018-.024 1.592-1.953 3.537-1.9zm-99.127.744-4.263 10.945 1.894.74 1.727-4.423 16.432 6.4.792-2.045-16.43-6.4 1.745-4.469-1.897-.748zm60.66.274v20.234c-1.861-4.99-4.339-9.212-6.609-12.955 2.212-3.022 4.47-5.487 6.61-7.28zm217.221.042.31.752c.009.014.012.029.02.04 0 .007.006.014.014.035.486 1.17.774 2.31.848 3.42.078 1.114-.62 1.97-2.084 2.584-1.3.55-2.345.499-3.131-.13-.787-.638-1.404-1.511-1.861-2.64l-.565-1.353 6.45-2.708zm-138.507.877c4.895 2.118 10.133 3.68 15.953 4.733.227 5.389 1.556 10.225 3.779 13.738-.373.027-.742.088-1.1.25v.002c-2.076.947-1.579 3.78-1.2 5.133-1.768 1.348-6.998 5.69-7.41 10.117-.93 9.911-6.041 16.524-8.612 18.639-2.193 1.802-3.978 6.03-3.666 8.7.148 1.282.543 2.509 1.091 3.673l-.18-.14c-.392.507-.79 1.412-1.146 2.501-.555-.777-1.291-1.646-2.181-2.312l-5.248-22.35-2.19.533c-1.385-1.788-6.481-8.396-7.455-9.922-.422-.663-.55-1.579-.676-2.459-.182-1.29-.37-2.627-1.459-3.447-.886-.667-2.426-3.42-3.222-5.058a25.092 25.092 0 0 0 8.95-17.731c6.18-1.156 11.66-2.745 15.971-4.6zm-41.137 3.756c-.265-.015-.479.063-.479.063s-.599.22-.744.476c-.15.27.051.684.256.94.21.259.6.393 1.098.513.495.117.961-.312 1.064-.525.093-.216-.132-.73-.234-.93-.097-.187-.31-.353-.684-.484a1.049 1.049 0 0 0-.277-.053zm6.082.325c-1.294-.056-2.48.609-3.196 1.894-.484.876-1.461 2.129-1.755 2.729-.183.354-.327.816-.01 1.078h.002c.032.02.663.287.68.287.043 0 .379.163.416.166.31-.092.431-.383.591-.696.01-.014.876-1.475 1.516-2.62.366-.664.893-1.345 2.059-1.026.374.092 1.05.336 1.56.535a.796.796 0 0 1 .1-.187c.08-.1.153-.2.21-.317.004 0 .069-.148.085-.166.064-.17.113-.333.164-.51a.925.925 0 0 1-.15-.347.83.83 0 0 1-.327-.287 9.907 9.907 0 0 1-.629-.235 3.891 3.891 0 0 0-1.316-.298zm68.088.353a2.086 2.086 0 0 0-.617.012c-.486.06-.83.418-.83.418s-.54.585-.56.96c-.015.373.437.725.815.891.372.164.88.097 1.496-.052.614-.142.89-.887.883-1.174-.012-.291-.55-.73-.771-.895a.951.951 0 0 0-.416-.16zm9.068.072a1.55 1.55 0 0 0-.576.143s-.71.351-.856.7c-.147.346.157.828.456 1.118.288.281.79.4 1.42.475.625.07 1.146-.523 1.236-.803.09-.273-.267-.876-.414-1.1-.15-.227-.432-.404-.914-.503a1.275 1.275 0 0 0-.352-.03zm44.9 2.74c2.242 3.353 4.385 7.273 6.235 11.686-3.11 3.856-5.515 8.17-6.801 11.969-1.155-3.296-3.176-7.052-5.803-10.77 1.676-4.949 4.022-9.007 6.37-12.884zm-121.023.637c-.264.013-.463.115-.463.115s-.58.288-.691.569c-.118.28.124.662.365.896.229.23.633.327 1.144.383.507.06.919-.421.997-.644.073-.227-.217-.71-.334-.89-.122-.18-.35-.32-.739-.405a.995.995 0 0 0-.279-.024zm-52.727.514c2.35 3.88 4.694 7.94 6.37 12.89-2.625 3.712-4.821 7.506-5.977 10.805-1.284-3.8-3.516-8.15-6.625-12.01 1.85-4.41 3.992-8.33 6.232-11.685zm45.147 2.803c-.3-.015-.545.216-.545.216s-.21.3-.21.725-.01 1.193 1.831 1.633c.695.17 1.09-.004 1.317-.572.488-1.234-1.173-1.224-2.08-1.887a.57.57 0 0 0-.313-.115zm79.789 3.703c.833.032 1.629.516 2.598 1.11 1.236.758 2.757 1.67 4.783 1.724.088.372.2.735.338 1.086h.021c.165.646.424 1.77.537 2.89.12 1.206-.582 3.832-1.267 6.375-.238.887-.477 1.784-.7 2.664-.797 3.185-3.177 5.834-5.117 6.803-1.664.837-4.74 1.023-7.474.465-1.475-.305-1.657-1.408-1.744-2.83a9.044 9.044 0 0 0-.043-.522c-.067-.535.546-2.175.914-3.158.134-.362.262-.7.369-1.006.54-1.55.964-5.395 1.014-6.097.066-.898.01-4.958-.223-6.983 1.519-.068 2.542-.797 3.398-1.422.724-.52 1.354-.98 2.237-1.086a2.22 2.22 0 0 1 .359-.013zm-85.277.67c1.288 1.026 3.276 2.581 3.957 3.021.91.583 2.359 1.004 3.87 1.004.668 0 1.352-.085 2-.27.357-.102.758-.322 1.177-.595l6.695 3.642c-.986.401-2.077 1.02-2.879 1.989l-.44.539c-1.45 1.788-3.093 3.81-5.675 4.03-1.385.098-2.24-.506-3.383-1.294-1.192-.833-2.546-1.778-4.711-2.119-1.717-.266-2.989-.31-4.014-.342-1.424-.057-2.287-.081-3.39-.642-1.886-.947-3.679-3.7-3.688-3.7l-.78-1.738c.169-.114.36-.24.51-.34 3.62-2.058 8.084-1.347 10.75-3.185zm191.088 1.545a5.216 5.216 0 0 0-1.598.173c-1.362.36-2.28 1.036-2.758 2.04-.478 1.004-.814 2.125-1.012 3.363l-.228 1.299-.016.095a12.756 12.756 0 0 1-.752 2.76c-.328.81-1.027 1.359-2.103 1.635-1.08.28-2.072.118-2.977-.492-.903-.61-1.488-1.427-1.756-2.455-.268-1.026-.142-1.975.368-2.844a4.422 4.422 0 0 1 2.203-1.893l-1.143-1.92c-1.405.69-2.411 1.683-3.03 2.98-.614 1.286-.724 2.701-.33 4.233.43 1.65 1.356 2.912 2.778 3.791 1.424.88 2.97 1.105 4.637.672 1.512-.394 2.534-1.141 3.054-2.23.527-1.1.903-2.346 1.137-3.737l.2-1.404c.017-.128.045-.266.066-.416.022-.152.054-.296.084-.453.13-.61.34-1.2.635-1.772.29-.57.763-.94 1.421-1.113.876-.224 1.67-.091 2.381.395a3.391 3.391 0 0 1 1.39 1.996c.212.813.204 1.516-.028 2.119-.232.596-.622 1.163-1.163 1.695l1.51 1.405c.806-.751 1.354-1.617 1.643-2.596.29-.994.297-2.02.021-3.08-.367-1.418-1.125-2.543-2.277-3.383-.723-.528-1.508-.816-2.357-.863zm-270.204 1.947-22.123 3.648 17.836 13.744.575-2.328-4.85-3.638 2.008-8.16 5.972-.918.582-2.348zm66.24 1.096.714 1.58c.085.139 2.12 3.303 4.507 4.502 1.477.752 2.674.793 4.186.843 1.025.036 2.185.07 3.785.327 1.728.273 2.841 1.05 3.916 1.789 1.165.813 2.37 1.652 4.147 1.652.156 0 .319-.01.484-.027 3.395-.277 5.394-2.74 7.004-4.723l.424-.522c1.34-1.618 4.037-1.948 4.064-1.955l.244-.035.047-.027c.605 1.206 2.19 4.196 3.498 5.264-.717.528-7.05 4.878-20.488 4.878h-.33c-16.348-.079-22.964-5.843-23.934-6.787 2.677-3.05 5.545-5.256 7.733-6.76zm138.67.836c3.924 5.463 6.766 11.656 6.766 15.51h.018v49.644c-.218-.302-.437-.61-.668-.926-1.844-2.547-4.144-5.718-4.154-10.12-.004-.464.316-1.395.68-2.48.74-2.157 1.858-5.45 1.888-9.412.025-3.04-1.512-7.464-4.53-13.125V162.27zm15.419.205c3.129 8.188 5.398 17.835 5.316 28.396l.05 51.309h-12.09v-64.39c0-3.907 2.881-10.258 6.724-15.315zm-187.99 1.148c3.84 5.058 6.299 10.897 6.443 14.703-.01.213.013.654.013.654v63.2H92.59l.049-50.844c0-10.496 1.827-19.412 5.181-27.713zm15.154.176v78.38h-6.782v-63.212s.025-.206.055-.557c.233-3.646 2.937-9.26 6.727-14.611zm-56.229.152-1.592 6.463-6.842-5.152 8.434-1.31zm187.965.135c2 .004 3.999.844 5.518 1.674 2.26 1.693 4.286 3.016 5.97 3.072.044.252.116.482.149.734.033.276.108.533.154.8-.885-.203-2.096-.335-3.744-.147-3.772.43-9.07 3.243-10.625 5.722-2.953 4.704-9.664 6.364-9.664 6.364-1.772.546-9.358 3.218-10 3.632-1.902 1.23-6.366 6.537-7.783 8.25-.25-.06-.46-.092-.72-.162-3.522-.958-17.52 7.45-22.16 10.323a9.474 9.474 0 0 1-.474-1.979c-.236-2.022 1.298-5.623 2.98-7.006.33-.273 8.063-6.764 9.3-19.93.354-3.762 5.399-7.82 6.806-8.888a42.94 42.94 0 0 0 4.027.969 9.283 9.283 0 0 0 1.545.162l.002-.049c.31.014.65.021 1.014.021.126 0 .256 0 .38-.003 1.726-.032 3.5-.415 4.686-.727-.176 1.415-.468 3.376-.77 4.242-.101.29-.224.616-.353.963-.67 1.788-1.136 3.134-1.021 4.049.014.11.022.255.031.408.073 1.184.24 3.949 3.254 4.563 1.044.22 2.325.36 3.648.36 1.77 0 3.612-.255 5.053-.982 2.256-1.12 5.128-4.122 6.107-8.035.22-.872.46-1.76.694-2.632.468-1.742 1.152-4.569 1.152-4.569.846-.333 2.94-1.206 4.844-1.2zm-121.95 5.584c1.543 1.468 8.553 7.133 25.15 7.23h.347c.792 0 1.553-.026 2.304-.054.805 2.316 2.757 8.626 2.409 10.925-.143.947-.418 1.42-.711 1.92-.7 1.192-1.104 2.21-.373 5.29a61.742 61.742 0 0 0 1.232 4.359c.532 1.699.885 2.827.885 4.338 0 .96-.423 2.086-.871 3.285-.701 1.88-1.5 4-.89 6.154.37 1.308.77 2.332 1.124 3.237.527 1.33.981 2.482 1.244 4.269.22 1.47.023 2.016-.25 2.75-.254.691-.568 1.551-.568 3.129 0 2.402 2.06 5.122 3.72 7.314.507.66.991 1.302 1.31 1.8.121.123 3.639 8.104 4.396 9.765l-.014.014s.034.053.078.134c.027.06.039.076.053.108-1.004 2.32-3.404 7.775-4.938 10.666-.937 1.763-3.177 6.403-4.34 12.22-2.047-1.784-5.986-5.306-7.56-7.378-1.19-1.564-1.544-2.675-2.037-4.207-.37-1.142-.832-2.58-1.772-4.512-1.694-3.491-4.472-5.995-5.76-7.031-.087-.355-.184-.646-.306-.788.248-.472.494-.947.72-1.39.4-.795 4.442-7.36 2.76-15.15-.35-1.622-.49-2.96-.689-4.07-.645-3.669-.883-5.045-.43-8.138.531-3.622-.722-5.633-1.931-7.578-.322-.518-.647-1.034-.94-1.6-1.23-2.38-2.527-5.518-1.607-8.699.779-2.693 2.358-9.417.139-13.535-1.577-2.94-4.024-6.705-6.73-7.992-2.16-1.025-6.864-1.409-7.573-1.469.317-1.674.713-3.03 1.183-3.654.397-.585.819-1.123 1.237-1.662zm46.723 2.244c.023.156.047.305.069.461.118.845.264 1.765.65 2.63-1.037.67-4.104 2.95-8.877 8.804-3.803 4.672-4.151 7.376-4.431 9.543-.16 1.217-.286 2.184-.987 3.351a26.33 26.33 0 0 0-1.03 1.856 57.07 57.07 0 0 1-1.128-4.028c-.615-2.56-.307-3.086.158-3.873.337-.579.753-1.287.951-2.607.426-2.824-1.62-9.238-2.32-11.317 9.977-.72 15.345-3.75 16.945-4.82zm84.987.127c1.312.021 2.089.303 2.445.477 1.744 6.65 6.142 11.61 8.162 13.89.394.444.835.94.918 1.09l.29.477c5.593 9.35 6.744 14.135 6.726 16.494-.018 2.465-.494 4.59-1.024 6.4-2.773-1.39-6.535-3.47-7.24-4.4-.289-.386.137-1.978.424-3.035.55-2.05 1.12-4.169-.049-5.559-1.927-2.303-3.883-2.888-5.557-2.955a10.549 10.549 0 0 0 1.399-5.223c0-5.839-4.755-10.595-10.594-10.595-5.839 0-10.592 4.756-10.592 10.595 0 3.405 1.686 6.608 4.426 8.584-.555.91-1.016 1.854-1.123 2.61-.29 2.04-.775 5.465-2.217 6.728-.548.482-1.182.873-1.799 1.27-.26.163-.912.418-1.064.681-.156.266.04.476.185.596l.057.05c.123.107.353.298.727.48 2.203 1.222 7.227 2.569 11.61 2.761-.256 1.203-.745 3.106-1.708 6.096-2.35 7.262-6.469 14.338-9.541 18.54-3.095 4.24-5.285 6.15-7.605 8.165l-.891.771c-2.73 2.401-4.588 4.22-7.961 7.782-1.418 1.5-2.504 3.337-3.555 5.107-1.42 2.406-2.768 4.67-4.775 5.87-6.392 3.816-8.188 9.166-8.686 11.571-1.272-1.345-3.104-3.35-4.312-4.988-1.747-2.366-1.701-9.34-.752-15.002.464-2.777.787-5.805 1.111-9.185 3.251-1.678 5.296-7.38 6.727-12.295.977-3.331 3.836-7.51 5.496-8.588 2.066-1.341 7.002-7.035 9.865-11.033 2.547-3.55 4.374-9.334 4.895-11.104 2.8.156 6.085-.299 8.625-2.725 1.775-1.689 2.451-3.164 2.068-4.498-.47-1.646-2.46-2.78-6.273-3.564a28.328 28.328 0 0 1-2.36-.594c.44-.177.9-.36 1.406-.554 1.98-.873 2.81-.99 4.012-.934l.088-1.916c-1.678-.078-2.795.185-4.828 1.086-2.405.916-4.161 1.74-4.398 1.844a8.08 8.08 0 0 0-1.05.382c-1.52.657-4.174 1.77-9.367.93 2.02-2.395 5.366-6.206 6.698-7.072 1.449-.944 6.578-2.505 9.64-3.45 1.112-.34 2.057-.627 2.655-.83 2.547-.858 6.404-3.915 7.933-6.292 1.16-1.795 5.847-4.473 9.239-4.856a11.38 11.38 0 0 1 1.494-.08zm-83.252 4.58c1.562 2.185 4.775 6.361 6.326 8.365l-13.385 3.274 7.963 32.217 5.617-1.424c.456.468.949.918 1.473 1.33-1.2.982-6.188 5.124-7.95 7.472-2.086 2.8-3.299 6.099-4.11 9.4-.615 2.49-1.878 4.861-2.811 6.401-1.426-3.115-4.67-10.156-5.303-11-1.408-1.856-3.332-4.395-3.332-6.154 0-1.242.216-1.839.445-2.463.316-.852.642-1.741.35-3.7-.294-1.996-.81-3.307-1.354-4.69-.356-.9-.725-1.832-1.07-3.053-.435-1.547.213-3.285.846-4.96.488-1.308.994-2.66.994-3.958 0-.713-.076-1.349-.193-1.969h.01c0-.011 0-1.033 1.808-4.016.913-1.515 1.084-2.83 1.25-4.097.258-2.026.552-4.328 4.02-8.582 4.607-5.654 7.53-7.81 8.406-8.393zm-51.1.274c1.39.092 5.345.506 6.979 1.279 1.717.823 3.856 3.434 5.863 7.166 1.938 3.607.264 10.173-.293 12.11-1.116 3.862.46 7.62 1.75 10.1.313.62.662 1.18 1.008 1.741 1.126 1.802 2.099 3.355 1.67 6.28-.502 3.404-.228 4.973.437 8.747.197 1.114.427 2.42.686 4.037 1.067 6.783-1.04 10.955-2.58 13.999l-.078.156c-.206-2.182-1.017-4.194-2.598-5.166-2.378-1.1-4.58-1.03-6.12.092-.531-1.724-.117-3.544.29-5.307.505-2.203 1.03-4.483-.58-6.215-.48-.514-1.092-.908-1.735-1.32-.639-.414-4.024-2.51-4.629-4.32-.452-1.008-.798-2.16-.832-3.344-.023-.905.46-3.049.881-4.936.466-2.08.906-4.036.94-5.232.014-.592.098-1.26.191-2 .272-2.196.605-4.92-.265-7.9-.617-2.126-1.81-7.887-1.739-11.59.05-2.71.754-8.377.754-8.377zm-59.404 2.693-21.035 2.408 15.93 8.404-17.01 5.881 20.433 5.541.17-2.23-13.08-3.528.008-.054 14.547-5.227-13.592-7.388.004-.051 13.455-1.52.17-2.236zm189.656 1.433c4.785 0 8.678 3.9 8.678 8.676a8.67 8.67 0 0 1-1.906 5.393c-.546.07-1.057.129-1.336.05-.21-.063-.57-.203-.674-.406-.198-.407.21-1.453.57-2.361.747-1.887 1.761-4.484-.266-6.58-1.64-1.69-5.227-.762-7.08.06-1.696.753-4.83 2.676-4.572 4.616.154 1.114 1.296 1.485 2.215 1.783.349.107 1.004.324 1.105.42.183.897-.11 2.108-.625 2.605-.246.234-.703.77-1.203 1.426-2.223-1.62-3.582-4.232-3.582-7.006 0-4.778 3.887-8.676 8.676-8.676zm-70.025 5.256 4.463 19.018c-1.173-.206-2.336.087-3.393.902-.618.48-1.67 1.588-2.77 2.805l-5.175-21.049 6.875-1.676zm72.422.487c.601.006 1.068.122 1.296.359 1.092 1.124.656 2.534-.138 4.549-.554 1.404-1.079 2.736-.512 3.9.316.656.94 1.13 1.846 1.399.69.202 1.472.1 2.295 0 1.827-.248 3.886-.519 6.101 2.134.527.628.051 2.413-.332 3.83-.49 1.829-.96 3.564-.097 4.696.123.156.3.333.5.514-.427.235-1.01.532-1.723.86-1.436-1.737-1.625-2.404-3.094-3.081-.307-.15-.327-.727-.316-1.469.003-.727.013-1.732-.903-2.05-.927-.327-2.464-.046-4.623 3.058-.688.996-2.077 1.065-3.463 1.09.092-.245.208-.516.295-.711.456-1.053.883-2.046.17-2.705-.702-.653-1.67-.136-2.086.08-.94.49-2.271.86-3.562 1.129.257-1.128.42-2.25.553-3.186.159-1.153 2.11-3.81 2.828-4.502.986-.94 1.49-2.823 1.174-4.363-.233-1.17-1.43-1.553-2.39-1.865-.32-.106-.861-.272-.901-.186.05-.42 1.399-1.738 3.439-2.635 1.264-.56 2.64-.856 3.643-.845zm-81.155 1.638 5.494 22.344c-1.24 1.43-2.293 2.7-2.525 2.983l-.426.507.33.578c.075.12.754 1.272 1.832 2.62l-2.798.712-7.045-28.49 5.138-1.254zm79.588.356c-.237.012-.418.105-.418.105s-.513.252-.619.504c-.1.252.117.602.33.807.206.203.572.288 1.022.34.454.046.822-.376.896-.578.06-.2-.198-.635-.3-.791-.11-.16-.31-.284-.659-.366a.906.906 0 0 0-.252-.021zm41.994 3.424h11.166v25.142h-11.138l-.028-25.142zM90.62 193.365l-.023 23.96H79.338v-23.938l11.281-.022zm137.604 1.733c.447.004.9.14 1.675.37.74.225 1.682.501 3.026.778 4.014.83 4.71 1.825 4.824 2.225.158.564-.39 1.483-1.557 2.59-3.495 3.33-8.883 2.118-11.468 1.529h-.002c-5.754-1.298-10.522 1.286-14.21 3.273-.356.195-.81.419-1.335.688-2.792 1.412-7.249 3.672-10.262 6.701-1.487-1.178-4.555-3.868-6.318-7.145 7.625-4.732 18.708-10.744 20.888-10.226 7.777 2.018 11.604.36 13.446-.434.344-.138.667-.286.836-.308.159-.03.307-.043.457-.041zm-6.676 9.05c.889 0 1.807.092 2.754.307.68.153 1.598.364 2.648.52-.613 1.994-2.305 7.1-4.51 10.18-2.964 4.142-7.687 9.457-9.353 10.546-2.2 1.426-5.25 6.12-6.285 9.653-.62 2.119-2.293 7.825-4.649 10.269.23-2.415.477-4.985.778-7.709.57-5.13-.684-7.418-2.274-10.309-.887-1.624-1.892-3.46-2.765-6.181-1.931-6.045 7.935-11.028 12.144-13.164.544-.27 1.017-.51 1.576-.817 2.77-1.495 6.083-3.289 9.936-3.295zm35.13.207v.079c-.01.954-.027 2.547 1.432 3.22.743.36 1.26 1.03 2.227 2.073-2.338.929-5.402 1.833-8.535 1.851-4.31.064-8.314-1.086-10.528-1.871.293-.201.58-.42.85-.654.75-.656 1.292-1.597 1.693-2.643 1.376-.245 2.953-.604 4.243-1.129-.426.99-.774 1.915-.301 2.621.147.22.483.578 1.138.578h.038l.45-.015c1.677-.022 3.966-.053 5.255-1.912.93-1.341 1.635-1.946 2.039-2.198zm-72.613 2.768c.167-.002.336.018.508.059 1.772.408 3.407 2.93 3.973 4.015-.415 2.1-.587 4.404-.287 6.13-.963.961-3.006 2.76-4.395 2.915-2.832.316-5.994-3.675-7.37-5.824 1.64-1.962 4.962-5.824 6.097-6.707.493-.383.974-.582 1.474-.588zm7.409.86c1.927 3.09 4.69 5.526 6.177 6.708-1.63 2.124-2.455 4.569-1.578 7.315.924 2.905 1.983 4.82 2.91 6.517 1.538 2.802 2.552 4.657 2.05 9.18a456.293 456.293 0 0 0-.805 7.96c-.406 4.324-.76 8.05-1.32 11.398-.759 4.523-1.38 13.082 1.099 16.449 1.692 2.287 4.422 5.14 5.484 6.219-1.905 3.278-3.112 7.353-4.207 12.529-1.137 5.39-.854 9.184.863 11.586 1.742 2.44 4.486 2.768 6.125 2.974 1.7.21 3.59-.11 5.58-.486.4 1.231 1.106 3.636 1.106 5.29 0 .553.033 1.055.06 1.523.1 1.6.163 2.563-1.165 4.082l-.706.808c-.23.262-.437.503-.656.752h-28.66c-.36.191-2.507-.008-2.771-.008-.202 0-1.847-.14-2.534-.093a1.501 1.501 0 0 1-.205.084l.008.017h-6.105c-.03-.504-.074-1.198-.127-2.01 3.895-.288 9.484-1.888 10.525-2.328 1.655-.7 2.708-1.727 3.133-3.054.787-2.468-.85-5.132-1.826-6.729-.223-.358-.405-.635-.469-.805l-.057.014a1.409 1.409 0 0 0-.037-.07c-.633-1.182-1.234-2.308-1.553-3.159-.98-2.607-.924-11.566.534-17.92.848-3.681 2.368-5.627 3.982-7.699 1.101-1.397 2.237-2.851 3.11-4.841 1.376-3.118.898-6.85.068-11.778l-.242-1.42c-.696-4.05-1.204-6.965-.25-10.097.096-.31.275-.645.48-1.04 1.067-2.053 2.847-5.486.893-13.42-.648-2.616-.287-4.604.095-6.704.43-2.376.876-4.823-.199-8.09-.788-2.388.242-7.547 1.19-9.655zm73.935 1.408c1.955 1.27 4.596 2.629 6.002 3.324-.06.184-.125.396-.187.57-.455 1.337-.786 2.314-.786 3.094.015 5.023 2.518 8.466 4.526 11.236 1.185 1.64 2.213 3.048 2.213 4.194a2.54 2.54 0 0 1-.807 1.906c-1.376 1.334-4.215 1.73-5.953 1.799v-.383c-.24-4.991-1.738-12.84-10.3-23.27 2.753-1.003 4.76-2.154 5.292-2.47zm-205.744 2.535-19.05 11.83 21.736 5.885-.36-2.371-5.875-1.51-1.26-8.305 5.166-3.133-.357-2.396zm198.504.58c10.029 11.95 10.172 20.352 10.232 24.908l.051 64.328c-.007-.007-.018-.008-.025-.008a2.423 2.423 0 0 1-.389.377 2.79 2.79 0 0 1-.92.723c-1.395 1.047-3.483 1.462-4.945 1.615-1.348.18-2.969-1.16-3.813-2.025 2-2.984 1.418-6.826 1.395-6.965-.062-.493-1.6-12.114-2.775-17.61-.982-4.607-.199-12.37 2.21-21.882a61.22 61.22 0 0 0 1.036-5.164c1.26-7.847 1.67-17.649 1.416-22.889-.25-5.25-3.102-12.433-4.276-15.193.27-.067.539-.137.803-.215zm-2.707.633c1.01 2.348 4.02 9.743 4.27 14.859.245 5.14-.155 14.771-1.395 22.498-.036.227-.07.44-.11.666-11.013-2.6-16.98 2.921-23.294 8.756-4.358 4.037-8.86 8.199-15.416 10.09-5.167 1.493-8.724 3.45-11.328 6.133.833-2.395 2.782-5.992 7.337-8.713 2.421-1.443 3.962-4.031 5.444-6.541.993-1.68 2.022-3.414 3.299-4.766 3.319-3.508 5.15-5.302 7.83-7.65l.886-.774c2.4-2.085 4.67-4.062 7.895-8.47 3.157-4.33 7.395-11.614 9.814-19.088 1.062-3.292 1.583-5.376 1.838-6.682a21.946 21.946 0 0 0 2.93-.318zm455.394 1.838c-18.557 0-33.435 15.257-33.435 33.863 0 17.914 14.536 33.52 32.582 33.52 18.047 0 30.523-13.63 30.523-31.378v-2.572h-25.568v7.371h16.676c-.342 10.546-11.11 19.205-21.12 19.205-13.937 0-25.056-12.857-25.056-26.4 0-14.488 11.29-26.238 25.74-26.238 7.87 0 15.647 4.2 20.266 10.55l5.646-5.406c-6.327-7.967-16.248-12.515-26.254-12.515zm-258.199 1.37v64.637h27.608v-7.37h-19.58v-57.266h-8.028zm35.633 0v64.637h34.654v-7.37h-26.59v-24.428h25.792v-7.374h-25.791V223.72h26.59l.001-7.371H488.29zm50.275 0v64.637h8.041v-64.636h-8.04zm25.887 0v64.637h8.035v-27.088h4.62c12.23 0 22.58-5.23 22.58-18.86 0-11.832-6.16-18.688-25.997-18.688h-9.238zm93.621 0v64.637h8.04v-64.636h-8.04zm-52.162.723v7.381h28.043l-32.656 57.26h45.77v-7.373h-32.694l32.693-57.268H605.91zm-552.935 1.545.992 6.572-8.291-2.148 7.299-4.424zm262.23.588c-4.094 3.075-12.591 9.578-13.402 10.315-1.27 1.146-2.51 2.553-2.535 5.966-.015 1.59.595 3.05 1.761 4.221 1.297 1.302 3.219 2.15 4.895 2.15 2.077 0 5.616-1.382 5.738-5.107a4.906 4.906 0 0 0-1.435-3.633c-.732-.727-1.722-1.07-2.93-1.035-2.31.095-3.303 2.195-3.277 3.59l1.914-.04c-.004-.261.244-1.586 1.445-1.646.624 0 1.15.135 1.502.487a3.07 3.07 0 0 1 .875 2.207c-.093 2.682-2.85 3.261-3.832 3.261-.977 0-2.45-.485-3.535-1.574-.557-.567-1.223-1.517-1.211-2.861.019-2.866 1.024-3.764 1.908-4.566.92-.84 15.539-11.708 15.539-11.708h.848c-4.774 32.91-22.343 63.18-49.053 83.606v-24.469c.427.64.928 1.264 1.514 1.844 1.986 1.968 4.51 3.014 7.298 3.014h.1c7.472-.067 9.127-6.47 9.16-8.184.015-.94-.076-2.083-.42-3.22 0 0-.649-1.544-.658-1.55-1.976-3.378-1.297-9.963 1.207-11.74 1.063-.755 2.31-1.066 3.35-.81.825.198 1.46.73 1.892 1.582.426.83.41 1.766-.039 2.49-.423.688-1.175 1.18-2.037 1.057l-.021 1.916h.054c1.513 0 2.865-.732 3.631-1.971.807-1.3.851-2.93.12-4.36-.687-1.354-1.772-2.24-3.143-2.574-1.587-.4-3.38.014-4.914 1.11-2.69 1.912-3.617 6.726-2.957 10.681-1.086-.51-2.346-.8-3.827-.8-2.178 0-3.991.977-4.966 2.68-.896 1.56-.924 3.52-.067 4.98.814 1.384 2.244 2.14 4.04 2.14h.072l-.026-1.916c-1.203.014-1.967-.403-2.433-1.191-.515-.876-.488-2.084.072-3.063.367-.642 1.289-1.718 3.307-1.718 1.886 0 3.337.5 4.306 1.49 1.396 1.415 1.567 3.586 1.547 4.75 0 .063-.543 6.25-7.266 6.303-.029 0-.056.005-.082.005-2.872-.007-4.825-1.336-5.959-2.457-1.956-1.944-2.857-3.965-2.857-6.626v-2.094l16.74-18.332h11.332v-1.912h-12.17l-15.902 17.408v-23.201h28.072v-1.92h-5.242l-.02-22.94 21.977-.035zm-249.154.037h.457c.128.11 12.876 10.761 13.912 11.701.882.8 1.883 1.699 1.906 4.565.01 1.344-.655 2.295-1.21 2.855-1.086 1.096-2.56 1.373-3.536 1.373-.979 0-3.707-.372-3.797-3.054-.032-.95.381-1.751.834-2.205.36-.352.869-.49 1.506-.487 1.204.06 1.535 1.383 1.535 1.645l1.914.04c.022-1.394-1.053-3.496-3.369-3.591-1.173-.036-2.195.308-2.926 1.035a4.895 4.895 0 0 0-1.404 3.635c.122 3.724 3.627 4.9 5.707 4.9 1.673 0 3.597-.641 4.895-1.943 1.167-1.17 1.776-2.633 1.765-4.22-.029-3.418-1.272-4.822-2.537-5.968-.812-.737-8.32-7.155-11.982-10.28h20.877l-.024 22.94h-5.67v1.92h28.073v23.2l-15.9-17.406h-12.17v1.912H96.23l16.747 18.332v1.513c.175 3.285-1.106 5.566-2.752 7.205-1.135 1.12-3.087 2.46-5.96 2.46-.023 0-.053-.008-.081-.008-6.724-.053-7.27-6.24-7.27-6.293-.016-1.174.157-3.345 1.553-4.76.968-.99 2.416-1.49 4.3-1.49 2.027 0 2.944 1.078 3.311 1.72.56.98.591 2.185.076 3.06-.472.789-1.405 1.2-2.437 1.192l-.026 1.916c1.867.017 3.289-.74 4.112-2.138h-.002c.855-1.46.827-3.42-.067-4.98-.976-1.704-2.783-2.682-4.968-2.682-1.476 0-2.74.29-3.823.8.66-3.955-.267-8.767-2.959-10.68-1.535-1.095-3.32-1.512-4.912-1.11-1.37.332-2.457 1.22-3.146 2.56-.728 1.445-.682 3.074.123 4.375.766 1.238 2.118 1.969 3.629 1.969h.054l-.021-1.916c-.816-.082-1.61-.37-2.037-1.057-.451-.723-.463-1.66-.043-2.49.436-.851 1.071-1.383 1.894-1.582 1.034-.255 2.288.056 3.356.812 2.5 1.777 3.176 8.36 1.2 11.738-.007.007-1.079 1.884-1.079 4.776 0 1.716 1.69 8.112 9.162 8.18h.102c2.79 0 5.311-1.048 7.298-3.016a11.694 11.694 0 0 0 1.41-1.707v22.607c-26.026-20.78-42.524-49.449-46.923-81.873zm122.74.215c.473 2.215.153 4.035-.191 5.926-.403 2.213-.814 4.5-.073 7.515.29 1.16.465 2.181.594 3.14-1.28.631-5.049 2.92-6.43 8.765-.82 3.456-1.146 5.857-1.386 7.6-.213 1.563-.356 2.598-.703 3.503-.701 1.791-7.828 10.827-11.653 14.623a18.086 18.086 0 0 1-.463-1.632c-.333-1.514.791-3.131 1.971-4.844 1.2-1.735 2.444-3.535 2.563-5.64.098-1.772-.308-2.563-.74-3.407-.598-1.153-1.42-2.75-1.214-9.1.296-9.286 1.927-16.125 2.295-17.576 2.05-2.317 6.51-5.993 7.55-6.844.844.426 1.73.694 2.64.694.18 0 .352-.011.53-.033 1.676-.195 3.525-1.618 4.71-2.69zm383.695 4.098h2.145c7.952 0 17.525 1.2 17.525 11.316 0 10.283-8.892 11.826-17.095 11.826h-2.575v-23.142zm-450.72 1.103c.63.657 1.372 1.144 2.02 1.555.54.344 1.047.67 1.362 1.004.878.954.62 2.326.12 4.49-.502 2.196-1.08 4.686.084 7.19.168.362.252.67.293.964-.241 1.008-.772 1.85-1.35 2.715-.701 1.06-1.425 2.142-1.584 3.565-.307 2.7.584 5.061.61 5.132l.992 2.858 1.48.432c.164-.127.564-.455 1.107-.891l.66 4.74-5.845 2.117v-35.816l.05-.055zm48.834 8.194c-.608 3.058-1.269 7.505-1.442 12.992-.22 6.843.724 8.693 1.418 10.037.376.73.601 1.174.533 2.426-.09 1.572-1.174 3.135-2.222 4.654-1.368 1.979-2.779 4.019-2.27 6.342.227 1.036.677 2.341 1.2 3.845 1.272 3.686 3.019 8.728 2.07 12.233-1.36 5.016-2.709 12.003-1.397 16.842.926 3.412 1.549 12.309 1.776 15.955-1.176-.816-2.69-1.442-4.641-1.197-1.657.187-2.73.637-3.422 1.134a1.263 1.263 0 0 0-.826.823c-3.173 3.066-3.647 2.886-5.357 2.212l-.23-.084c-1.397-.543-1.182-3.224-1.183-3.224.016-.106 1.668-10.302 2.373-18.174.55-6.122.04-9.6-.728-14.85a279.3 279.3 0 0 1-.815-5.824c-1.27-10.06 3.635-19.928 4.631-21.8 1.693-3.19 4.322-9.216 5.19-11.231.005.003.012.002.017.002a.95.95 0 0 1 .016-.08c.14-.334.237-.556.258-.598l-.012-.006c1.412-2.086 2.434-4.84 3.264-7.535.508-1.657 1.086-3.32 1.799-4.894zM63.22 234.02l-18.33 10.585 17.95 1.362-13.253 12.166 20.951-3.047-.736-2.12-13.397 1.977-.017-.05L67.643 244.3l-15.409-1.36-.015-.05 11.736-6.752-.736-2.12zm213.957 1.47v6.688h-6.76v-4.75c1.609-.064 4.738-.416 6.76-1.938zm-87.871 2.631c.133 3.611-.837 5.56-1.508 6.848-.268.518-.487.961-.613 1.361-1.082 3.566-.518 6.843.195 10.986l.238 1.409c.797 4.74 1.232 8.052.069 10.699-.776 1.763-1.795 3.059-2.864 4.428-1.67 2.142-3.406 4.35-4.343 8.445-1.46 6.343-1.683 15.763-.461 19.02.367.972.995 2.147 1.66 3.388.029.057.059.113.09.166h.084c.117.224.267.472.46.791.808 1.313 2.161 3.516 1.637 5.158-.253.784-.927 1.406-2.066 1.89-.945.399-6.3 1.914-9.92 2.173-.312-4.303-.866-10.35-1.627-13.156-1.264-4.662.331-11.927 1.394-15.846 1.106-4.07-.746-9.434-2.103-13.35 3.654-3.388 11.846-13.596 12.754-15.93.435-1.117.596-2.3.816-3.939.233-1.71.554-4.05 1.356-7.422 1.003-4.263 3.424-6.293 4.752-7.119zm-59.309.371c.842.053 1.628.345 2.065.541 1.189.74 1.796 2.978 1.628 5.266.028.05.068.069.094.119.054.107.115.187.168.287-1.18 1.383-3.293 3.334-5.467 5.197l-.43-3.091-2.064.287.61 4.382c-.317.256-.637.518-.938.76l-.56-1.617c-.01-.025-.766-2.021-.512-4.277.11-.958.65-1.778 1.28-2.72.764-1.148 1.625-2.45 1.788-4.241l-.072-.004c.667-.757 1.568-.942 2.41-.889zm4.97 7.928c.077.132.162.258.233.389-.045 1.217-.15 2.654-.265 4.257a239.098 239.098 0 0 0-.327 4.79l-5.044 1.826-.774-5.563c2-1.675 4.528-3.886 6.178-5.7zm2.329 1.844c1.213 1.199 2.68 2.91 3.691 4.994.88 1.809 1.301 3.114 1.672 4.26.507 1.582.944 2.947 2.332 4.767 1.975 2.61 7.161 7.105 8.701 8.418-.382 2.702-.503 5.59-.13 8.527.286 2.264.564 4.163.816 5.858.778 5.307 1.249 8.507.719 14.41-.422 4.731-1.193 10.315-1.739 14.018-4.656-.532-8.927-2.684-10.607-3.635-1.427-.805-2.208-2.25-2.438-2.733a36.014 36.014 0 0 1-.496-7.718c.07-1.663.142-2.87.2-3.899.108-1.916.187-3.298.187-5.888 0-1.794-.263-2.604-.664-3.842-.546-1.692-1.37-4.252-2.336-11.822-1.186-9.351-.613-17.095-.195-22.76.059-.805.114-1.547.16-2.264.03.081.064.136.092.217l-.022.01c.025.043.058.11.08.156.02.053.016-.421-.023-1.074zm115.375 4.156c1.595-.022 3.321.173 5.21.627-.173.87-.36 1.691-.55 2.447-1.749 6.92-3.558 16.491-2.22 22.752l.001.002c1.155 5.42 2.727 17.34 2.748 17.484.007.036.543 3.5-1.232 5.86-.923 1.23-2.342 1.955-4.219 2.19-1.71.198-2.894.045-4.146-.132-1.32-.178-2.684-.366-4.793-.025-1.816.681-2.4 1.723-2.965 2.73-.387.69-.76 1.349-1.604 2.073-.087.07-.19.1-.28.156.39-2.955 1.44-10.733 1.73-13.156 1.03-8.52-.578-17.103-4.657-24.801-1.59-3.015-.028-8.048.33-9.11.07-.06.138-.127.21-.19 5.032-4.655 9.524-8.811 16.437-8.907zm-118.166 5.691c-.182 4.615-.14 10.027.635 16.133.562 4.423 1.082 7.191 1.535 9.078l-3.319 1.696-3.5-25.229 4.649-1.678zm-61.897.555-1.793.947 2.526 4.803-15.606 8.215 1.024 1.941 17.4-9.168-3.55-6.738zm55.247 1.846 3.539 25.506-5.516 2.812-5.818-25.498 7.795-2.82zm105.578 3.36c-.438 2.283-.646 5.337.572 7.653 3.894 7.347 5.431 15.535 4.451 23.676-.313 2.597-1.489 11.327-1.809 13.69-1.398-.231-2.992-1.104-4.38-1.856l-.532-.295c-1.05-.568-2.336-1.249-3.832-1.844.471-.972 2.08-4.345 2.559-6.449.654-2.88 1.713-13.895-.836-22.008-1.328-4.207.045-8.725.4-9.761a58.025 58.025 0 0 0 3.407-2.807zm-5.846 4.51c-.46 2.183-.788 5.43.217 8.632 2.457 7.812 1.329 18.644.797 21.013-.421 1.827-1.873 4.906-2.366 5.92a1.162 1.162 0 0 0-.394.237 17.919 17.919 0 0 0-4.865-.686c-.23 0-.463 0-.698.014-2.276.093-4.374.487-6.228.842-2.137.408-3.98.742-5.545.564-1.793-.216-3.644-.568-4.8-2.186-1.374-1.919-1.556-5.308-.548-10.082 2.526-11.969 5.437-17.501 16.889-20.8 2.856-.82 5.31-2.044 7.54-3.467zm-148.584 2.419-11.625 19.18 22.045-4.598-1.395-1.951-5.923 1.312-4.883-6.836 3.195-5.133-1.414-1.974zm-2.938 8.992 3.868 5.412-8.364 1.846 4.496-7.258zm45.65.164 8.888 38.963h-8.887v-38.963zm15.513 5.422c.118.397.229.752.332 1.064.376 1.157.562 1.73.562 3.2 0 2.536-.073 3.82-.184 5.767-.059 1.043-.128 2.258-.203 3.936-.22 5.062.628 8.864.99 10.492l.37 1.668-1.86 1.478-3.576-25.783 3.569-1.822zm-5.532 2.826 3.6 25.988-2.96 2.754-5.886-25.974 5.246-2.768zM257.09 303.87c.857.866 2.513 2.24 4.39 2.445l.065 12.788H247.09c-.296-.692-.489-1.348-.512-2.047-.07-2.057 2.505-8.45 3.734-11.287.69.03 1.442.015 2.325-.088 1.804-.22 3.289-.824 4.453-1.81zm11.361.385v20.174l-4.705-.01-.086-18.254c2.025-.354 3.642-1.002 4.791-1.91zm-22.574 1.088c.75.018 1.43.113 2.129.21.104.015.205.029.312.042-1.118 2.618-3.728 9.021-3.646 11.533.025.69.185 1.34.398 1.978h-.004s.007.004.008.01c.195.476 1.303 2.775 1.711 3.463.713 1.231 1.53 2.616 2.278 4.375.376.89.395 1.621.058 2.256-.683 1.284-2.746 1.944-3.39 2.072-1.855.17-4.228.045-4.792-.38-.46-.352-.358-2.693-.31-3.82.039-.895-.098-7.486-.078-7.976 0 0-.12-2.86-.309-4.168a17.373 17.373 0 0 0-1.21-4.386c.383-.16.752-.365 1.103-.664 1.112-.936 1.627-1.855 2.04-2.59.503-.9.805-1.443 1.778-1.826a10.483 10.483 0 0 1 1.924-.129zm-25.525.078a16.321 16.321 0 0 1 4.109.426c-.238.323-.492.68-.791 1.095-3.174 4.44-2.274 8.674-1.711 9.809.086.16.2.372.342.613.632 1.12 1.686 2.99 1.48 4.694-.172 1.45-3.323 2.61-4.974 2.906-1.467.27-3.295 1.057-5.584 2.416a659.747 659.747 0 0 0-6.426 3.9c-.15-.78-.339-1.8-.477-2.818-.212-1.53 1.561-3.616 3.344-4.598 1.38-.753 2.49-1.828 3.69-3.166h.113v-.123c.364-.41.735-.833 1.125-1.29l.697-.8c1.846-2.11 1.745-3.739 1.637-5.459a21.26 21.26 0 0 1-.055-1.406c0-1.808-.675-4.228-1.12-5.625 1.465-.266 2.968-.503 4.6-.574zm6.087.978c1.75.603 3.212 1.388 4.383 2.03l.528.277c1.682.918 3.762 2.05 5.726 2.15.395.84.992 2.355 1.276 4.36.158 1.102.316 2.688.35 3.912H225.38c-.365-.944-1.091-2.12-1.418-2.7-.119-.214-.223-.392-.293-.53l-.002-.002c-.326-.672-1.087-4.138 1.553-7.838a68.65 68.65 0 0 1 1.218-1.659zm-85.306 4.674c.215.16.437.315.683.457 1.098.62 3.25 1.721 5.897 2.62l-.69 2.273a2.79 2.79 0 0 0-.546-.17c-2.151-.373-3.596.82-3.807.904-.045.053-.108.092-.168.131l-1.37-6.215zm-1.541 2.694 1.138 5.154h-7.595l6.457-5.154zm9.931.931a24.13 24.13 0 0 0 3.551.686 331.81 331.81 0 0 1-.344 2.207 8.35 8.35 0 0 0 0 1.197h-3.851c-.016-.06-.176-.66-.264-1.086l.908-3.004zm-3.515 3.455c.362 0 .91.766 1.006 1.04.747 2.188.532 6.253.093 6.966-.442.646-4.135 2.059-5.664 1.229-1.95-1.04-1.98-1.95-1.754-2.71.477-1.567 3.368-5.95 5.479-6.433.305-.068.59-.092.84-.092zm20.752.7c2.023.15 3.366 1.608 4.3 2.617.387.412.69.741 1.006.943.424.266 1.049.531 1.733.822 2.228.93 3.9 1.768 3.53 3.329-.238.994-4.056.858-5.505.794-.508-.015-.97-.03-1.355-.037-.93 0-2.025-1.34-2.992-2.513-.794-.972-1.547-1.896-2.403-2.41-.538-.326-1.177-1.207-1.902-2.626.377-.316 1.149-.716 2.678-.9a4.82 4.82 0 0 1 .91-.02zm81.074 1.718h13.717l.021 3.84h-4.453v7.576h-8.185c.73-.458 1.435-1.063 1.87-1.879.62-1.164.622-2.476.012-3.91-.794-1.872-1.64-3.313-2.384-4.586-.215-.369-.41-.71-.598-1.04zm-126.117.004h9.265l.012.055.065-.055h8.761c-1.013 1.43-1.743 2.844-1.957 3.549-.419 1.38-.291 3.358 2.684 4.951.594.322 1.349.46 2.162.46 2.404 0 5.303-1.199 6.023-2.37.704-1.128.836-4.093.541-6.463h3.848c.335.883.93 1.721 1.986 2.13l.225.083c.837.334 1.53.555 2.225.555 1.156 0 2.33-.607 4.207-2.3.809 1.466 1.545 2.392 2.322 2.864.576.35 1.256 1.185 1.916 1.983 1.236 1.507 2.632 3.216 4.469 3.216.364 0 .805.019 1.283.038.624.025 1.302.056 1.982.056 2.461 0 4.983-.34 5.455-2.32.78-3.263-2.62-4.681-4.652-5.533-.575-.24-1.095-.455-1.45-.678-.02-.01-.065-.068-.099-.092h37.694c-.624.603-1.254 1.11-1.94 1.486-2.343 1.298-4.656 4.023-4.32 6.534.17 1.235.401 2.448.568 3.271l-77.574-.002.012-7.547-5.713-.015v-3.856zm103.926.121h13c0 .315.003.647.003.942.003 1.312.009 2.447.083 3.207.056.539.024 1.322-.016 2.152-.08 1.912-.162 3.88.646 4.99h-30.062a514.039 514.039 0 0 1 4.896-2.96c2.07-1.225 3.731-1.96 4.955-2.19.25-.046 6.12-1.13 6.532-4.555a6.16 6.16 0 0 0-.037-1.586zm-116.793 5.62 16.662.029-.014 5.642h-16.62l-.028-5.672zm150.185.029h16.633v5.642h-16.633v-5.642zm-76.53 7.556h20.542c-1.27 1.175-2.796 2.59-3.092 2.92-1.623 1.8-1.67 3.794-.127 5.348a491.165 491.165 0 0 0 3.74 3.658c-1.536.171-3.21.397-5.02.692-.59 0-.632.016-6.767 9.353-5.38-9.575-5.426-9.6-6.162-9.617a102.51 102.51 0 0 0-3.115-.395v-3.341h4.53l.03-1.827h-4.558v-6.79zm46.288 0h12.133l-6.688 7.125a4.227 4.227 0 0 0-1.492 1.922 4.094 4.094 0 0 0-.256 1.242 14.62 14.62 0 0 1 1.918-.027 2.3 2.3 0 0 1 .127-.545c.302-.802 1.036-1.38 1.951-1.553 1.104-.185 2.166.08 3.028.774.878.706 1.43 1.776 1.468 2.869.052 1.496-.715 2.629-1.377 3.307-1.174 1.223-2.92 2.013-4.445 2.013-2.114 0-5.267-1.159-8.318-2.279-.84-.31-1.662-.605-2.469-.88l5.338-5.786c.222-.238 2.154-2.39 2.066-4.486a2.873 2.873 0 0 0-.955-2.055 21.388 21.388 0 0 0-2.029-1.64zm-118.838.002h26.373c-2.38 2.508-1.954 5.186-.756 6.875.46.638 5.556 6.313 7.604 8.59a156.77 156.77 0 0 1-33.22-15.465zm29.867 0h1.881l5.916 6.221a5.53 5.53 0 0 0-3.148 1.229 5.756 5.756 0 0 0-2.172 4.177c-2.475-2.76-4.918-5.512-5.174-5.867-.581-.819-1.282-2.49.6-4.447.727-.762 1.46-1.136 2.097-1.313zm4.52 0h16.17l-4.047 3.756 1.3 1.408 5.56-5.164h.15v13.053c-.474.156-.95.32-1.444.486l-.713.247c-.96.322-1.973.686-2.99 1.058-3.048 1.121-6.197 2.281-8.31 2.281-1.527 0-3.273-.79-4.446-2.013-.663-.678-1.434-1.81-1.379-3.307.041-1.092.59-2.163 1.47-2.87a3.765 3.765 0 0 1 3.026-.773c.92.167 1.649.751 1.954 1.553.063.16.099.327.119.494.645.043 1.284.05 1.93.104a4.137 4.137 0 0 0-.262-1.268 4.286 4.286 0 0 0-1.489-1.93l-6.6-7.115zm64.082 0h14.773l-1.982 1.903c-.12.124-1.19 1.297-1.074 2.744.045.547.282 1.363 1.185 2.047 1.82 1.416 2.407 1.886 2.42 1.894l1.21-1.478s-.583-.482-2.46-1.926c-.376-.287-.433-.529-.45-.686-.042-.51.406-1.12.524-1.255l3.14-2.999c.856.518 2.475 1.566 3.821 2.793.167.163.688.639-.039 2.122a8.784 8.784 0 0 1-1.185 1.726l-5.912 6.4c-3.333-1.125-6.248-1.977-11.954-1.828-.605.015-1.309.038-2.084.086 1.378-1.145 2.971-2.496 3.414-3.007 2.18-2.5 1.339-4.414.24-5.584-.87-.92-2.323-2.04-3.587-2.952zm35.043 0h1.9c.636.18 1.356.554 2.082 1.313 1.885 1.958 1.188 3.63.6 4.447-.256.363-2.7 3.111-5.17 5.867a5.768 5.768 0 0 0-2.172-4.181 5.526 5.526 0 0 0-3.15-1.225l5.91-6.22zm5.375 0h25.896a156.67 156.67 0 0 1-32.523 15.229c2.172-2.413 6.947-7.73 7.39-8.354 1.2-1.69 1.628-4.37-.763-6.875zm-69.244.006h1v6.791l-5.569-.002 4.569-6.789zm-14.198.002h11.883l-5.738 8.557 9.053.015v3.207a97.612 97.612 0 0 0-5.86-.322c-4.209-.124-6.89.315-9.338 1.006V333.91zm40.131.31c1.204.807 3.868 2.648 5.088 3.95.871.926.79 1.77-.289 3.016-.442.5-2.88 2.54-4.68 4.011-1.04-1.022-3.182-3.1-4.466-4.385-.325-.322-1.183-1.183.197-2.708.288-.323 2.504-2.38 4.148-3.881l.002-.002zm3.871 12.926c5.821-.124 9.638.914 13.125 2.106l.721.244c.946.323 1.935.682 2.934 1.05 1.81.66 3.642 1.33 5.345 1.796-12.28 3.157-25.134 4.853-38.367 4.916 2.22-3.373 5.123-7.762 5.916-8.9 2.32-.866 9.102-1.183 10.326-1.212zm-34.718.122c2.48.06 6.292.26 10.474.851.75 1.241 3.313 5.764 5.196 9.113-12.72-.164-25.09-1.81-36.92-4.832 1.76-.464 3.67-1.162 5.554-1.851 1.002-.372 1.99-.73 2.944-1.053l.716-.244c3.486-1.188 6.229-2.101 12.036-1.984z"/><path d="M338.633 168.316v.01l.036-.003zm-14.713 14.333 19.501-2.537.283 2.172-19.501 2.537zm20.888 12.271-19.652.134.073 10.2 2.034-.01-.073-8.014 7.738-.05.036 7.773 2.034-.015-.036-7.777 5.848-.036.036 8.006 2.035-.015zM326.1 232.567l18.599-12.143-20.16-3.75-.4 2.155 14.93 2.768-18.599 12.143 20.197 3.767.4-2.154zm6.321 15.907c-1.32-.5-2.461-.48-3.43.063-.972.543-1.896 1.26-2.776 2.157l-.94.926a.57.57 0 0 0-.065.068c-.022.02-.045.046-.072.074a12.54 12.54 0 0 1-2.138 1.735c-.74.475-1.63.514-2.668.117-1.041-.39-1.752-1.1-2.136-2.121-.386-1.022-.388-2.026-.01-3.016.376-.993 1.023-1.695 1.941-2.11.925-.415 1.886-.5 2.893-.267l.178-2.224c-1.54-.245-2.937-.025-4.188.664-1.256.698-2.162 1.791-2.72 3.27-.607 1.586-.588 3.157.065 4.7.653 1.54 1.78 2.618 3.393 3.232 1.462.557 2.726.54 3.789-.053 1.058-.593 2.089-1.39 3.084-2.388l.974-1.021a14.261 14.261 0 0 1 .63-.635 7.528 7.528 0 0 1 1.537-1.075c.57-.29 1.17-.316 1.804-.078.844.323 1.415.887 1.714 1.699a3.414 3.414 0 0 1-.019 2.437c-.298.78-.718 1.348-1.25 1.703-.534.348-1.178.589-1.932.717l.422 2.01c1.088-.137 2.033-.524 2.839-1.163.814-.638 1.415-1.472 1.803-2.5.516-1.363.548-2.722.101-4.073-.455-1.355-1.396-2.306-2.823-2.848zm-1.925 10.585v.017zm-20.627 3.751 1.009-1.949 17.466 9.047-1.009 1.948zm3.881 25.973h-.036l.036.007zm4.25-9.88c-1.168-.788-2.286-1.026-3.354-.72a12.4 12.4 0 0 0-3.187 1.475l-1.122.688c-.037.018-.064.043-.086.057-.022.014-.05.036-.083.053-.828.511-1.651.912-2.478 1.206-.826.298-1.703.132-2.623-.489-.928-.624-1.46-1.472-1.603-2.55-.143-1.08.08-2.065.673-2.948.593-.877 1.382-1.416 2.372-1.604.99-.202 1.951-.067 2.88.39l.673-2.125c-1.444-.592-2.858-.691-4.23-.297-1.375.393-2.507 1.252-3.39 2.56-.95 1.416-1.284 2.952-.999 4.598.287 1.646 1.144 2.948 2.572 3.91 1.299.875 2.533 1.141 3.7.808 1.169-.334 2.35-.88 3.544-1.625l1.181-.78c.113-.071.234-.15.362-.227.13-.085.26-.163.394-.234a6.787 6.787 0 0 1 1.741-.703c.621-.16 1.214-.053 1.78.33.748.504 1.175 1.181 1.28 2.047a3.374 3.374 0 0 1-.566 2.363c-.468.695-1.002 1.149-1.605 1.376-.6.227-1.28.312-2.043.259l-.043 2.061c1.091.106 2.1-.057 3.028-.497.938-.433 1.71-1.11 2.318-2.022.818-1.213 1.16-2.529 1.023-3.951-.134-1.416-.837-2.554-2.109-3.41zM90.433 100.991c.883 0 1.596-.713 1.596-1.596a1.597 1.597 0 1 0-1.596 1.596zm202.685-3.178a1.596 1.596 0 1 0-.007 3.193 1.596 1.596 0 0 0 .007-3.193zM90.923 299.4c-.883 0-1.596.714-1.596 1.597 0 .887.713 1.596 1.596 1.596.884 0 1.597-.709 1.597-1.596 0-.883-.713-1.596-1.597-1.596zm203.757-.555c-.884 0-1.595.72-1.595 1.6a1.59 1.59 0 0 0 1.595 1.593c.883 0 1.6-.71 1.6-1.593 0-.88-.717-1.6-1.6-1.6z"/></g></svg>