<svg xmlns="http://www.w3.org/2000/svg" width="199.963" height="50.248" xml:space="preserve"><defs><clipPath id="c"><path d="M124.185 208.563h363.631v91.378H124.185v-91.378z"/></clipPath><clipPath id="b"><path d="M124.185 208.563h363.63v91.378h-363.63v-91.378z"/></clipPath><clipPath id="a"><path d="M124.185 208.563h363.631v91.378H124.185v-91.378z"/></clipPath></defs><g clip-path="url(#a)" transform="matrix(.5499 0 0 -.5499 -68.29 164.94)"><path d="M0 0c-1.854-1.119-5.019-1.726-6.968-1.726-7.674 0-12.852 4.381-12.852 11.637 0 3.675 1.438 6.586 3.9 8.599 2.397 1.981 5.657 3.07 9.238 3.07 2.974 0 5.851-.77 7.385-1.312-.32-1.502-.607-3.196-.607-4.859h-.991v2.302c0 .895-1.279 1.439-2.749 1.982-1.023.351-2.398.543-3.581.543-6.01 0-9.175-4.38-9.175-9.814C-16.4 4.093-12.212 0-5.882 0-3.581 0-.863.83.608 1.917l.288-.319L0 0z" style="fill:#b32025;fill-opacity:1;fill-rule:nonzero;stroke:none" transform="translate(256.496 243.972)"/><path d="M0 0c0-3.355 1.215-7.801 5.307-7.801 2.909 0 4.156 2.911 4.156 5.883 0 4.124-1.95 7.64-5.02 7.64C1.055 5.722 0 2.974 0 0m-2.973-1.375c0 4.796 3.005 8.152 8.151 8.152 4.093 0 7.258-3.196 7.258-7.288 0-4.889-3.485-8.343-8.376-8.343-4.028-.129-7.033 3.067-7.033 7.479" style="fill:#b32025;fill-opacity:1;fill-rule:nonzero;stroke:none" transform="translate(261.515 251.1)"/><path d="M0 0c0 1.023-.065 1.726-.224 1.981-.192.256-.513.352-1.184.352H-2.59v.895c1.887.191 3.804.799 4.988 1.31l.287-.128V1.183h.064l1.727 2.045c.766.926 1.853 1.31 2.684 1.31.544 0 1.216-.16 1.471-.352L8.344.352h-.672c-.352.767-1.023 1.47-2.173 1.47-1.408 0-2.814-1.47-2.814-3.518v-5.496c0-.866.032-1.505.16-1.857.127-.286.607-.415 1.343-.447l1.662-.096v-.959c-1.662.032-2.941.097-4.509.097-1.565 0-2.844-.065-3.995-.097v.959l1.47.096c.544.032.896.161 1.023.447.128.352.161.991.161 1.857V0z" style="fill:#b32025;fill-opacity:1;fill-rule:nonzero;stroke:none" transform="translate(277.18 253.34)"/><path d="M0 0c0-.866.032-1.505.159-1.858.128-.286.48-.414 1.024-.446L2.621-2.4v-.959c-1.119.032-2.398.096-3.964.096-1.567 0-2.845-.064-3.964-.096v.959l1.438.096c.543.032.895.16 1.024.446.126.353.159.992.159 1.858v7.192c0 1.023-.064 1.726-.224 1.981-.192.256-.511.352-1.183.352h-1.182v.894c1.886.192 3.804.8 4.986 1.311L0 11.602V8.886h.063l2.366 2.045c.703.607 1.311.799 2.59.799 3.74 0 5.274-2.077 5.274-5.563V0c0-.866.032-1.505.16-1.858.128-.286.48-.414 1.023-.446l1.311-.096v-.959c-.8.032-1.726.096-2.621.096-.896 0-1.824-.064-2.558-.096V5.72c0 2.655-1.502 4.061-3.676 4.061C1.982 9.781 0 8.087 0 6.776V0z" style="fill:#b32025;fill-opacity:1;fill-rule:nonzero;stroke:none" transform="translate(292.14 246.148)"/><path d="M0 0c2.621-.289 5.306-.225 7.609-.097 0 2.974-1.087 5.403-3.39 5.403C1.757 5.306-.16 3.485 0 0m10.454.511c0-.447 0-.894-.065-1.342-1.918-.32-3.867-.447-5.786-.447H-.064c0-3.74 1.854-6.299 5.786-6.299 1.534 0 2.749.767 3.964 1.502l.415-.319-.639-1.086c-.224-.385-2.94-1.79-5.115-1.79-4.827 0-7.384 3.067-7.384 7.383 0 3.101.831 4.956 2.301 6.106.608.48 1.28.96 1.984 1.279 1.117.511 2.045.863 3.132.863 3.484 0 6.074-2.237 6.074-5.85" style="fill:#b32025;fill-opacity:1;fill-rule:nonzero;stroke:none" transform="translate(308.636 251.517)"/><path d="M0 0c0 .735-.096 1.311-.799 1.311H-2.59v.895c1.696.255 3.39.543 4.989 1.183l.286-.256v-19.691c0-.866.032-1.504.161-1.857.128-.286.478-.415 1.022-.446l1.472-.097v-.959c-1.152.032-2.431.097-3.997.097-1.568 0-2.846-.065-3.997-.097v.959l1.472.097c.542.031.895.16 1.021.446.129.353.161.991.161 1.857V0z" style="fill:#b32025;fill-opacity:1;fill-rule:nonzero;stroke:none" transform="translate(322.286 262.705)"/><path d="M0 0c0 .735-.096 1.311-.799 1.311H-2.59v.895c1.695.255 3.39.543 4.988 1.183l.288-.256v-19.691c0-.866.031-1.504.16-1.857.128-.286.479-.415 1.022-.446l1.47-.097v-.959c-1.15.032-2.429.097-3.995.097-1.566 0-2.846-.065-3.995-.097v.959l1.469.097c.543.031.896.16 1.023.446.128.353.16.991.16 1.857V0z" style="fill:#b32025;fill-opacity:1;fill-rule:nonzero;stroke:none" transform="translate(331.748 262.705)"/><path d="M0 0c0 1.214-.064 2.046-.288 2.397-.191.319-.576.447-1.342.479l-1.535.096v.959c1.661-.064 3.165-.096 4.73-.096 1.472 0 2.974.032 4.636.096v-.959l-1.534-.096c-.767-.032-1.15-.16-1.344-.479-.222-.351-.286-1.183-.286-2.397v-10.999c0-4.537 2.365-5.85 6.585-5.85 3.452 0 6.585 1.313 6.585 6.618V0c0 1.214-.063 2.046-.288 2.397-.191.319-.574.416-1.343.479l-1.405.096-.001.959c1.278-.032 2.558-.096 3.709-.096 1.278 0 2.429.064 3.837.096v-.959l-1.408-.096c-.767-.063-1.151-.16-1.342-.479-.225-.351-.289-1.183-.289-2.397v-9.241c0-6.841-2.588-9.589-9.047-9.589-5.433 0-8.63 1.629-8.63 7.48V0z" style="fill:#b32025;fill-opacity:1;fill-rule:nonzero;stroke:none" transform="translate(347.029 261.076)"/><path d="M0 0c0-.866.031-1.505.159-1.858.127-.286.479-.414 1.022-.446L2.62-2.4v-.959c-1.119.032-2.398.096-3.963.096-1.568 0-2.846-.064-3.965-.096v.959l1.437.096c.544.032.897.16 1.024.446.128.353.16.992.16 1.858v7.192c0 1.023-.064 1.726-.224 1.981-.191.256-.51.352-1.182.352h-1.183v.894c1.887.192 3.804.8 4.986 1.311l.29-.128V8.886h.062l2.367 2.045c.701.607 1.31.799 2.588.799 3.74 0 5.276-2.077 5.276-5.563V0c0-.866.032-1.505.159-1.858.128-.286.48-.414 1.024-.446l1.31-.096v-.959c-.801.032-1.727.096-2.621.096-.895 0-1.823-.064-2.558-.096V5.72c0 2.655-1.502 4.061-3.677 4.061C1.98 9.781 0 8.087 0 6.776V0z" style="fill:#b32025;fill-opacity:1;fill-rule:nonzero;stroke:none" transform="translate(371.934 246.148)"/><path d="M0 0c0-.926-.864-1.757-1.791-1.757-.927 0-1.758.831-1.758 1.757 0 .927.831 1.79 1.758 1.79S0 .927 0 0m-.289-16.909c0-.866.032-1.505.162-1.858.127-.286.478-.415 1.022-.446l1.47-.097v-.958c-1.152.032-2.429.096-3.996.096-1.567 0-2.845-.064-3.996-.096v.958l1.47.097c.543.031.896.16 1.023.446.129.353.16.992.16 1.858v7.192c0 1.023-.064 1.726-.224 1.981-.191.256-.511.352-1.181.352h-1.184v.894c1.886.192 3.805.8 4.985 1.311l.289-.128v-11.602z" style="fill:#b32025;fill-opacity:1;fill-rule:nonzero;stroke:none" transform="translate(391.977 263.057)"/><path d="M0 0c-.544-1.186-.863-2.4-1.312-3.486h-1.597L-8.408 9.396c-.192.449-.384 1.023-.993 1.056l-1.086.064v.894c1.248-.032 2.495-.096 3.741-.096 1.247 0 2.462.064 3.709.096v-.894l-1.566-.064c-.833-.033-1.055-.48-.512-1.822l3.803-9.208C-.64.895.063 2.396.671 3.898l1.342 3.39c.863 2.205.8 3.131-.16 3.164l-1.31.064v.894c.991-.032 2.013-.096 3.005-.096.99 0 2.014.064 3.005.096v-.894l-.991-.064c-.799-.065-1.342-1.183-1.79-2.142L0 0z" style="fill:#b32025;fill-opacity:1;fill-rule:nonzero;stroke:none" transform="translate(404.38 246.148)"/><path d="M0 0c2.623-.289 5.309-.225 7.609-.097 0 2.974-1.087 5.403-3.387 5.403C1.76 5.306-.159 3.485 0 0m10.455.511c0-.447 0-.894-.065-1.342-1.918-.32-3.868-.447-5.785-.447H-.062c0-3.74 1.853-6.299 5.786-6.299 1.534 0 2.748.767 3.964 1.502l.415-.319-.638-1.086c-.225-.385-2.943-1.79-5.117-1.79-4.827 0-7.384 3.067-7.384 7.383 0 3.101.832 4.956 2.302 6.106.607.48 1.279.96 1.982 1.279 1.119.511 2.046.863 3.133.863 3.485 0 6.074-2.237 6.074-5.85" style="fill:#b32025;fill-opacity:1;fill-rule:nonzero;stroke:none" transform="translate(413.713 251.517)"/><path d="M0 0c0 1.023-.063 1.726-.223 1.981-.193.256-.512.352-1.183.352H-2.59v.895c1.887.191 3.805.799 4.988 1.31l.288-.128V1.183h.063l1.728 2.045c.767.926 1.853 1.31 2.683 1.31.544 0 1.216-.16 1.471-.352L8.343.352h-.671c-.351.767-1.022 1.47-2.173 1.47-1.407 0-2.813-1.47-2.813-3.518v-5.496c0-.866.03-1.505.16-1.857.127-.286.606-.415 1.344-.447l1.661-.096v-.959c-1.661.032-2.942.097-4.508.097-1.566 0-2.847-.065-3.996-.097v.959l1.471.096c.544.032.894.161 1.022.447.128.352.16.991.16 1.857V0z" style="fill:#b32025;fill-opacity:1;fill-rule:nonzero;stroke:none" transform="translate(428.483 253.34)"/><path d="M0 0v-1.309c0-1.985 2.27-2.72 4.123-2.72 2.014 0 3.743 1.182 3.743 2.911C7.866-.095 7.32.735 6.329.991c-1.406.352-3.164.704-4.697 1.278-1.537.575-2.719 1.534-2.719 3.485 0 3.452 3.006 4.666 6.01 4.666 1.503 0 2.877-.352 4.126-.799-.098-1.15-.13-2.333-.16-3.61h-.897v.734c0 1.662-1.886 2.62-3.708 2.62-2.716 0-3.133-1.501-3.133-2.588 0-1.375 1.054-2.111 3.484-2.527C8.441 3.611 10.23 2.653 10.23.16c0-3.518-3.515-5.371-7.065-5.371-1.533 0-2.909.224-4.477.767.321 1.406.351 2.942.351 4.444H0z" style="fill:#b32025;fill-opacity:1;fill-rule:nonzero;stroke:none" transform="translate(439.416 247.457)"/><path d="M0 0c0-.926-.864-1.757-1.791-1.757-.927 0-1.759.831-1.759 1.757 0 .927.832 1.79 1.759 1.79C-.864 1.79 0 .927 0 0m-.287-16.909c0-.866.032-1.505.16-1.858.127-.286.479-.415 1.021-.446l1.471-.097v-.958c-1.15.032-2.429.096-3.994.096-1.569 0-2.848-.064-3.998-.096v.958l1.47.097c.544.031.895.16 1.024.446.126.353.158.992.158 1.858v7.192c0 1.023-.062 1.726-.223 1.981-.191.256-.51.352-1.183.352h-1.182v.894c1.885.192 3.803.8 4.987 1.311l.289-.128v-11.602z" style="fill:#b32025;fill-opacity:1;fill-rule:nonzero;stroke:none" transform="translate(456.999 263.057)"/><path d="M0 0v.671L2.493 1.79v2.238c0 .831-.033 1.663-.128 2.526 1.152.351 2.173.863 2.719 1.214l.383-.351c-.19-1.407-.353-3.197-.353-4.541V1.662l4.38.191L9.206.128H5.114v-8.374c0-1.474.418-2.209 1.759-2.209.832 0 1.438.352 1.886.608l.415-.544-1.534-1.693c-.287-.32-1.406-.383-2.077-.383-1.695 0-3.134.798-3.134 3.386V.128L0 0z" style="fill:#b32025;fill-opacity:1;fill-rule:nonzero;stroke:none" transform="translate(460.067 254.97)"/><path d="M0 0c.478 1.183 0 1.534-1.151 1.63l-.832.064v.894c1.024-.032 2.013-.095 3.036-.095 1.025 0 2.017.063 3.038.095v-.894l-.895-.064C2.429 1.566 1.725.575.51-2.239l-6.489-14.962c-1.023-2.332-2.174-3.93-4.857-3.93-.545 0-1.249.257-1.6.48l.767 2.396h.417c.383-.384 1.182-.767 1.63-.735 1.853.129 2.875 2.72 3.483 4.19l.734 1.948c-.542 1.504-1.181 3.072-1.789 4.542L-10.677.064c-.512 1.214-.961 1.502-1.663 1.566l-.575.064v.894c1.246-.032 2.462-.095 3.708-.095 1.247 0 2.46.063 3.708.095v-.894l-1.215-.064c-.895-.032-1.439-.352-.768-2.077l2.045-5.37a21.991 21.991 0 0 1 1.633-3.516L0 0z" style="fill:#b32025;fill-opacity:1;fill-rule:nonzero;stroke:none" transform="translate(483.724 254.97)"/></g><g clip-path="url(#b)" transform="matrix(.5499 0 0 -.5499 -68.29 164.94)"><path d="M0 0c0-24.645-19.978-44.623-44.623-44.623-24.643 0-44.62 19.978-44.62 44.623 0 24.642 19.977 44.621 44.62 44.621C-19.978 44.621 0 24.642 0 0z" style="fill:none;stroke:#b32025;stroke-width:2.13400006;stroke-linecap:butt;stroke-linejoin:miter;stroke-miterlimit:4;stroke-opacity:1;stroke-dasharray:none" transform="translate(214.495 254.254)"/></g><g clip-path="url(#c)" transform="matrix(.5499 0 0 -.5499 -68.29 164.94)"><path d="M0 0c0-18.365-14.891-33.258-33.257-33.258-18.368 0-33.254 14.893-33.254 33.258 0 18.367 14.886 33.255 33.254 33.255C-14.891 33.255 0 18.367 0 0z" style="fill:none;stroke:#b32025;stroke-width:2.11999989;stroke-linecap:butt;stroke-linejoin:miter;stroke-miterlimit:4;stroke-opacity:1;stroke-dasharray:none" transform="translate(203.129 254.254)"/><path d="m0 0-.004 28.755-41.481-.004-.003-28.233c0-15.794 20.768-24.706 20.768-24.706S0-15.12 0 0zm-30.331 13.887s-2.28 1.335-3.767 2.331c-1.488.995-1.498 1.752-1.512 1.944-.014.196-.008 7.407-.008 7.407h10.636s.016-7.211 0-7.407c-.015-.192.077-.949-1.412-1.944-1.486-.996-3.937-2.331-3.937-2.331zm19.725.052s-2.277 1.333-3.761 2.329c-1.487.996-1.5 1.752-1.515 1.943-.016.197-.008 7.409-.008 7.409h10.634s.016-7.212 0-7.409c-.012-.191.077-.947-1.409-1.943-1.488-.996-3.941-2.329-3.941-2.329z" style="fill:none;stroke:#b32025;stroke-width:2.13400006;stroke-linecap:butt;stroke-linejoin:miter;stroke-miterlimit:4;stroke-opacity:1;stroke-dasharray:none" transform="translate(190.601 247.558)"/><path d="M0 0h42.688" style="fill:none;stroke:#b32025;stroke-width:2.11299992;stroke-linecap:butt;stroke-linejoin:miter;stroke-miterlimit:4;stroke-opacity:1;stroke-dasharray:none" transform="translate(148.214 258.41)"/><path d="M0 0s.294.607 1.439.874c0 0 1.116.233 2.364.092C5.624.805 7.085.592 8.284.564c1.611-.039 2.666-.01 3.44-.027l.003-17.942s-1.187-.067-2.702-.031c-3.099.071-4.268.395-6.702.389C.87-17.049.743-18.216.198-18.216c-.551 0-.609 1.167-2.038 1.169-2.437.006-3.604-.318-6.704-.389a37.556 37.556 0 0 0-2.703.031l.003 17.942c.776.017 1.828-.012 3.437.027C-6.6.592-5.142.805-3.323.966-2.075 1.107-.957.874-.957.874.182.607.56-.05.56-.05" style="fill:none;stroke:#b32025;stroke-width:2.13400006;stroke-linecap:butt;stroke-linejoin:miter;stroke-miterlimit:4;stroke-opacity:1;stroke-dasharray:none" transform="translate(169.618 252.766)"/><path d="M0 0h10.553" style="fill:none;stroke:#b32025;stroke-width:1.77499998;stroke-linecap:butt;stroke-linejoin:miter;stroke-miterlimit:4;stroke-opacity:1;stroke-dasharray:none" transform="translate(154.988 269.135)"/><path d="M0 0h10.553" style="fill:none;stroke:#b32025;stroke-width:2.13400006;stroke-linecap:butt;stroke-linejoin:miter;stroke-miterlimit:4;stroke-opacity:1;stroke-dasharray:none" transform="translate(154.988 269.135)"/><path d="M0 0v-35.897" style="fill:none;stroke:#b32025;stroke-width:1.77499998;stroke-linecap:butt;stroke-linejoin:miter;stroke-miterlimit:4;stroke-opacity:1;stroke-dasharray:none" transform="translate(169.786 259.087)"/><path d="M0 0v-35.897" style="fill:none;stroke:#b32025;stroke-width:1.60000002;stroke-linecap:butt;stroke-linejoin:miter;stroke-miterlimit:4;stroke-opacity:1;stroke-dasharray:none" transform="translate(169.786 259.087)"/><path d="m0 0-5.201 3.468-4.8-3.468" style="fill:none;stroke:#b32025;stroke-width:1.77499998;stroke-linecap:butt;stroke-linejoin:miter;stroke-miterlimit:4;stroke-opacity:1;stroke-dasharray:none" transform="translate(185.015 266.908)"/><path d="m0 0-5.202 3.468L-10 0" style="fill:none;stroke:#b32025;stroke-width:2.13400006;stroke-linecap:butt;stroke-linejoin:miter;stroke-miterlimit:4;stroke-opacity:1;stroke-dasharray:none" transform="translate(185.163 266.908)"/><path d="M0 0c.166.007.352.004.543-.017C1.5-.105 2.267-.216 2.898-.23c.848-.024 2.278-.065 2.686-.074M0-3.423c.166.005.352 0 .543-.021.957-.086 1.724-.197 2.355-.211.848-.018 2.278-.06 2.686-.068M0-6.849c.166.006.352 0 .543-.019.957-.085 1.724-.198 2.355-.21.848-.02 2.278-.065 2.686-.07M0-10.271c.166.005.352 0 .543-.022.957-.086 1.724-.196 2.355-.212.848-.022 2.278-.06 2.686-.068M-5.769.029a4.595 4.595 0 0 1-.513-.022c-.957-.09-1.723-.2-2.354-.212-.846-.022-2.279-.061-2.688-.069M-5.769-3.4c-.159.007-.334 0-.513-.014-.957-.09-1.723-.2-2.354-.216-.846-.019-2.279-.06-2.688-.069m5.555-3.122c-.159.002-.334 0-.513-.022-.957-.085-1.723-.197-2.354-.205-.846-.024-2.279-.065-2.688-.07m5.552-3.125c-.16.002-.334 0-.51-.02-.957-.09-1.723-.201-2.354-.215-.846-.024-2.279-.064-2.688-.07" style="fill:none;stroke:#b32025;stroke-width:1.12199998;stroke-linecap:butt;stroke-linejoin:miter;stroke-miterlimit:4;stroke-opacity:1;stroke-dasharray:none" transform="translate(172.703 249.894)"/><path d="M155.21 251.501h2.323v-2.552h-2.323v2.552zm0-5.901h2.448v-2.554h-2.448v2.554zm0-5.281h2.323v-2.543h-2.323v2.543zm26.748 10.677h2.324v-2.546h-2.324v2.546zm0-5.899h2.448v-2.551h-2.448v2.551zm0-5.277h2.324v-2.549h-2.324v2.549z" style="fill:#b32025;fill-opacity:1;fill-rule:nonzero;stroke:none"/><path d="M0 0c.079-.45.137-.932.107-1.393-.123-1.96-1.204-3.26-3.279-3.13-2.104.132-3.202 1.475-3.075 3.528.027.401.139.924.341 1.356L-4.872.21c-.294-.445-.382-.856-.408-1.29-.078-1.25.839-2.091 2.099-2.17 1.251-.08 2.237.629 2.319 1.919.031.476-.041 1.047-.172 1.342L0 0z" style="fill:#b32025;fill-opacity:1;fill-rule:nonzero;stroke:none" transform="translate(134.009 258.644)"/><path d="M0 0c.34 1.195-.611 1.946-1.68 2.249-1.044.298-2.248.124-2.579-1.041-.329-1.161.604-1.941 1.648-2.237C-1.545-1.333-.34-1.197 0 0m-5.189 1.476c.519 1.832 2.065 2.502 3.857 1.993C.457 2.963 1.457 1.58.932-.265.4-2.138-1.143-2.768-2.959-2.254c-1.816.518-2.759 1.87-2.23 3.73" style="fill:#b32025;fill-opacity:1;fill-rule:nonzero;stroke:none" transform="translate(134.39 263.873)"/><path d="m0 0 .189.353c.283.529.528 1.178-.15 1.538-.654.349-1.027-.223-1.313-.759l-.188-.353L0 0zm-2.89.161.619 1.157C-1.661 2.47-.969 3.866.542 3.061c.637-.34.942-1.045.672-1.775l.014-.012c.179.282.566.292.865.27l2.58-.27L4.037.077 1.998.336c-.488.061-.717.007-.957-.444L.858-.455l2.255-1.203-.572-1.075L-2.89.161z" style="fill:#b32025;fill-opacity:1;fill-rule:nonzero;stroke:none" transform="translate(134.537 271.553)"/><path d="m0 0 .956 1.15L5.974-.006l.012.013-3.542 2.936.742.899L7.924-.087l-.949-1.144L1.95-.08l-.01-.014 3.541-2.939-.744-.895L0 0z" style="fill:#b32025;fill-opacity:1;fill-rule:nonzero;stroke:none" transform="translate(135.806 278.744)"/><path d="m0 0 2.775 2.259.613-.751L1.553.017l.958-1.178L4.191.208l.613-.751-1.681-1.37 1.092-1.34 1.847 1.504.611-.752-2.79-2.272L0 0z" style="fill:#b32025;fill-opacity:1;fill-rule:nonzero;stroke:none" transform="translate(141.971 285.43)"/><path d="m0 0 1.062.6 2.542-4.518 2.052 1.156.476-.847L3.016-5.36 0 0z" style="fill:#b32025;fill-opacity:1;fill-rule:nonzero;stroke:none" transform="translate(148.009 289.867)"/><path d="m0 0 1.146.415 1.762-4.872 2.215.799.333-.91-3.362-1.217L0 0z" style="fill:#b32025;fill-opacity:1;fill-rule:nonzero;stroke:none" transform="translate(154.258 293.001)"/><path d="m0 0 1.215.102.291-3.544c.086-1.043.473-1.704 1.403-1.626.925.075 1.197.79 1.11 1.832L3.725.311 4.94.41l.324-3.919c.137-1.644-.726-2.397-2.278-2.527C1.438-6.164.461-5.563.325-3.92L0 0z" style="fill:#b32025;fill-opacity:1;fill-rule:nonzero;stroke:none" transform="translate(164.068 295.674)"/><path d="m0 0 1.482-.201 1.677-4.871.019-.003.613 4.564 1.156-.157-.824-6.098-1.472.198L.966-1.697l-.018.001-.613-4.557-1.156.153L0 0z" style="fill:#b32025;fill-opacity:1;fill-rule:nonzero;stroke:none" transform="translate(173.185 295.985)"/><path d="m0 0 1.161-.364-1.842-5.872-1.161.365L0 0z" style="fill:#b32025;fill-opacity:1;fill-rule:nonzero;stroke:none" transform="translate(181.907 294.314)"/><path d="m0 0 1.165-.591-.791-5.013.016-.008 3.554 3.616 1.078-.542-4.6-4.571-1.335.673L0 0z" style="fill:#b32025;fill-opacity:1;fill-rule:nonzero;stroke:none" transform="translate(186.235 292.858)"/><path d="m0 0 2.822-2.209-.595-.762L.363-1.515-.57-2.71l1.703-1.334-.596-.766-1.704 1.335-1.066-1.362 1.878-1.468-.596-.763-2.836 2.217L0 0z" style="fill:#b32025;fill-opacity:1;fill-rule:nonzero;stroke:none" transform="translate(194.213 288.318)"/><path d="m0 0 .264-.302c.394-.45.915-.909 1.491-.401.558.487.156 1.037-.246 1.494l-.265.302L0 0zm1.172 2.647.866-.985C2.899.68 3.958-.46 2.673-1.59c-.544-.476-1.31-.511-1.901-.002l-.014-.009c.2-.266.075-.631-.05-.901L-.46-4.822l-.895 1.019.962 1.817c.23.433.262.666-.079 1.05l-.256.295-1.923-1.684-.804.914 4.627 4.058z" style="fill:#b32025;fill-opacity:1;fill-rule:nonzero;stroke:none" transform="translate(198.707 280.8)"/><path d="M0 0a3.12 3.12 0 0 1-.401 1.197c-.213.36-.645.727-1.222.389-.921-.544.823-2.605-.953-3.655-1.16-.687-2.138-.041-2.761 1.012-.337.571-.412.869-.589 1.46l1.014.472c.017-.478.132-.966.372-1.376.238-.399.754-.809 1.232-.523 1.013.595-.762 2.637.992 3.674 1.184.7 2.152.049 2.696-.87C.645 1.332.832.877.929.421L0 0z" style="fill:#b32025;fill-opacity:1;fill-rule:nonzero;stroke:none" transform="translate(205.624 273.69)"/><path d="m0 0 .462-1.128-5.7-2.324-.458 1.126L0 0z" style="fill:#b32025;fill-opacity:1;fill-rule:nonzero;stroke:none" transform="translate(208.32 270.628)"/><path d="m0 0-.417 1.689.942.23 1.123-4.561-.941-.23-.416 1.689-5.034-1.239-.291 1.183L0 0z" style="fill:#b32025;fill-opacity:1;fill-rule:nonzero;stroke:none" transform="translate(209.38 264.536)"/><path d="m0 0 3.591 2.419.081-1.423L1.169-.579l2.663-1.317.07-1.287L.068-1.217l-2.432-.135-.067 1.217L0 0z" style="fill:#b32025;fill-opacity:1;fill-rule:nonzero;stroke:none" transform="translate(207.904 256.608)"/><path d="m0 0 .943-3.274-.932-.271-.604 2.096-1.456-.422.573-1.991-.93-.271-.574 1.995-2.594-.75-.342 1.183L0 0z" style="fill:#b32025;fill-opacity:1;fill-rule:nonzero;stroke:none" transform="translate(134.966 245.969)"/><path d="M0 0c.554-1.131 1.762-1.056 2.76-.563.974.475 1.749 1.418 1.21 2.512-.535 1.094-1.753 1.053-2.728.577C.244 2.036-.555 1.127 0 0m4.842 2.379c.85-1.728.156-3.275-1.517-4.094C1.657-2.537-.013-2.172-.87-.428-1.74 1.336-1.015 2.85.678 3.679c1.694.831 3.302.448 4.164-1.3" style="fill:#b32025;fill-opacity:1;fill-rule:nonzero;stroke:none" transform="translate(133.007 236.042)"/><path d="m0 0 .767-.962-2.78-2.207c-.823-.651-1.153-1.343-.568-2.078.584-.739 1.33-.573 2.151.082l2.781 2.211.767-.965-3.08-2.444c-1.289-1.026-2.4-.721-3.381.508-.977 1.233-1.025 2.389.264 3.415L0 0z" style="fill:#b32025;fill-opacity:1;fill-rule:nonzero;stroke:none" transform="translate(140.466 233.577)"/><path d="m0 0 1.172-.955L.066-5.996l.014-.008 2.913 3.558.913-.743L.007-7.952l-1.163.95 1.098 5.051-.016.008-2.911-3.559-.912.743L0 0z" style="fill:#b32025;fill-opacity:1;fill-rule:nonzero;stroke:none" transform="translate(145.515 227.687)"/><path d="m0 0 .613-.309c.919-.459 2.149-.219 2.752.98.601 1.194.061 2.327-.859 2.789l-.613.31L0 0zm1.228 5.187 1.503-.752C4.408 3.589 5.61 2.277 4.511.093 3.416-2.089 1.645-1.908-.034-1.064l-1.5.75 2.762 5.501z" style="fill:#b32025;fill-opacity:1;fill-rule:nonzero;stroke:none" transform="translate(150.528 217.797)"/><path d="m0 0 3.498-.937-.251-.934-2.308.615-.39-1.464 2.114-.563-.249-.936-2.116.564-.444-1.671 2.327-.62-.249-.938-3.517.938L0 0z" style="fill:#b32025;fill-opacity:1;fill-rule:nonzero;stroke:none" transform="translate(158.873 219.82)"/><path d="m0 0 .686-.038c1.027-.058 2.061.652 2.139 1.992.074 1.336-.874 2.158-1.899 2.217l-.682.038L0 0zm-.931 5.249 1.676-.097c1.875-.104 3.499-.833 3.359-3.27C3.965-.557 2.271-1.098.395-.993l-1.675.096.349 6.146z" style="fill:#b32025;fill-opacity:1;fill-rule:nonzero;stroke:none" transform="translate(166.008 213.152)"/><path d="m0 0-.018-.003-.334-2.667 1.752.375L0 0zm-.92 1.066 1.355.291 3.649-5.508L2.75-4.44l-.809 1.27-2.432-.526-.229-1.488-1.244-.267L-.92 1.066z" style="fill:#b32025;fill-opacity:1;fill-rule:nonzero;stroke:none" transform="translate(177.286 217.78)"/><path d="m0 0 1.156.418.421-1.159-1.155-.417L0 0z" style="fill:#b32025;fill-opacity:1;fill-rule:nonzero;stroke:none" transform="translate(182.74 215.478)"/><path d="m0 0 .602.323c.903.494 1.409 1.639.772 2.819-.639 1.18-1.877 1.38-2.781.886l-.603-.325L0 0zm-3.553 3.971 1.474.799c1.655.9 3.417 1.129 4.581-1.017C3.666 1.604 2.507.256.855-.639l-1.476-.799-2.932 5.409z" style="fill:#b32025;fill-opacity:1;fill-rule:nonzero;stroke:none" transform="translate(187.857 217.337)"/><path d="m0 0 1.012.705.703-1.016-1.009-.703L0 0z" style="fill:#b32025;fill-opacity:1;fill-rule:nonzero;stroke:none" transform="translate(192.143 220.167)"/><path d="m0 0 .773.765 4.323-4.384-.875-.864L.884-1.102.739-2.43l-1.002.139L0 0z" style="fill:#b32025;fill-opacity:1;fill-rule:nonzero;stroke:none" transform="translate(194.68 228.586)"/><path d="M0 0c.296.395.274.888-.136 1.192-.488.362-1.032.117-1.471-.191-.089-.479-.066-.921.351-1.233C-.842-.536-.292-.396 0 0m-2.251 1.771c.104.348-.006.854-.31 1.079-.369.274-.797.228-1.074-.146-.264-.361-.333-.865.062-1.16.428-.313.944-.017 1.322.227m-.292-1.18C-3.131.261-3.78.237-4.299.618c-.885.657-.808 1.636-.145 2.533.643.869 1.583 1.385 2.411.776.448-.334.764-.992.579-1.698l.008-.005c.785.424 1.431.407 1.997-.011 1.002-.738.91-1.784.187-2.761-.711-.958-1.704-1.43-2.707-.681-.555.407-.707 1.001-.561 1.809l-.013.011z" style="fill:#b32025;fill-opacity:1;fill-rule:nonzero;stroke:none" transform="translate(202.735 229.755)"/><path d="M0 0c.518-.259 1.087-.267 1.355.276.258.508-.132.97-.622 1.213-.537.268-1.142.297-1.407-.232C-.941.726-.554.276 0 0m-1.727 3.568c-.271-.229-.514-.475-.7-.847-.472-.947.249-1.713 1.054-2.157l.024.011c-.25.448-.253.871-.023 1.336.518 1.037 1.463 1.273 2.481.767C2.301 2.079 2.798 1.106 2.18-.135 1.417-1.661-.023-1.367-1.314-.72-2.809.025-4.208 1.324-3.32 3.1c.197.399.45.748.771 1.059l.822-.591z" style="fill:#b32025;fill-opacity:1;fill-rule:nonzero;stroke:none" transform="translate(205.21 235.737)"/><path d="m0 0-.672-2.269 1.25-.401c.013.145.034.331.103.555.245.828.953 1.781 2.481 1.324 1.107-.328 1.772-1.367 1.319-2.886a6.668 6.668 0 0 0-.576-1.324l-1.05.342c.205.251.502.601.654 1.113.183.617.088 1.347-.664 1.568-.762.226-1.222-.369-1.424-1.042a3.619 3.619 0 0 1-.153-1.104l-3.151 1.003L-.878.259 0 0z" style="fill:#b32025;fill-opacity:1;fill-rule:nonzero;stroke:none" transform="translate(205.538 245.867)"/></g></svg>