<svg xmlns="http://www.w3.org/2000/svg" width="100" height="26.349" style="fill:#fa0c00"><path d="M11.017 0H0v26.349zm7.753 0h11.002v26.349Zm-3.877 9.71 7.013 16.639h-4.6l-2.096-5.297h-5.135zm32.853 7.048 1.3 3.724c.043.092.108.136.221.136h2.5c.135 0 .157-.064.135-.202L46.741 6.084c-.02-.116-.042-.138-.158-.138h-3.1c-.086 0-.136.066-.136.158-.044.753-.108.985-.202 1.207l-4.6 13.083c-.021.16.029.224.157.224h2.233c.136 0 .202-.044.251-.18l1.228-3.682zm-4.621-2.437c.674-2.04 1.564-4.65 1.924-6.144h.02c.445 1.565 1.494 4.667 1.966 6.144zm15.412 6.52a10.584 10.584 0 0 0 4.221-.87c.114-.042.136-.092.136-.202a14.918 14.918 0 0 1-.094-1.426V4.85c0-.086 0-.129-.108-.129h-2.433c-.092 0-.136.043-.136.157V9.45a8.002 8.002 0 0 0-.96-.064c-3.927 0-6.34 2.59-6.34 5.826 0 3.754 2.477 5.628 5.714 5.628zm1.586-2.5c-.402.129-.847.18-1.299.18-1.78 0-3.238-1.005-3.238-3.445 0-2.16 1.502-3.436 3.49-3.436.4 0 .753.042 1.047.156zm10.532-8.955c-3.351 0-5.426 2.568-5.426 5.742 0 2.833 1.652 5.712 5.377 5.712 3.151 0 5.361-2.319 5.361-5.786 0-3.057-1.874-5.668-5.31-5.668zm-.136 2.252c1.895 0 2.7 1.63 2.7 3.49 0 2.297-1.186 3.436-2.564 3.436-1.7 0-2.704-1.428-2.704-3.488 0-2.116 1.069-3.436 2.568-3.436zm7.964-6.92c-.092 0-.158.045-.158.159V20.15c0 .065.064.18.158.202a11.328 11.328 0 0 0 3.344.487c3.31 0 6.525-2.052 6.525-6.186 0-2.995-2.053-5.268-5.268-5.268a6.45 6.45 0 0 0-2.032.314l-.028-4.801c0-.158-.044-.18-.202-.18zm7.12 10.208c0 2.476-1.694 3.638-3.524 3.638-.38 0-.717-.02-1.027-.114v-6.518c.352-.136.775-.25 1.558-.25 1.766 0 2.993 1.12 2.993 3.244zm11.83.803c1.09 0 1.988-.02 2.296-.092.116-.022.158-.065.18-.158.065-.245.092-.754.092-1.378 0-2.125-1.277-4.715-4.579-4.715-3.373 0-5.246 2.749-5.246 5.848 0 2.75 1.45 5.604 5.513 5.604 1.521 0 2.504-.242 3.351-.643.087-.044.129-.115.129-.244v-1.86c0-.108-.064-.128-.129-.086-.845.358-1.764.539-2.77.539-2.275 0-3.308-1.257-3.374-2.814zm-4.537-1.922c.18-1.092.869-2.277 2.412-2.277 1.702 0 2.147 1.43 2.147 2.076v.179c-.094.022-.38.022-1.228.022zm0 0" style="stroke-width:1.83744764"/></svg>