<svg xmlns="http://www.w3.org/2000/svg" width="100" height="47.446" xml:space="preserve"><path d="M35.525 35.568H362.24v326.875H35.525Zm362.227 0h326.715v326.875H397.752Z" style="fill:#2f854c" transform="translate(-5.156 -5.163) scale(.14515)"/><path d="M233.115 294.498v-69.621h38.574v73.449c0 5.211 1.191 8.922 3.578 11.133 2.398 2.215 5.602 3.32 9.605 3.32 4.012 0 7.242-1.105 9.688-3.32 2.445-2.211 3.684-5.922 3.684-11.133v-73.449h38.391v69.621c0 8.309-1.25 15.367-3.754 21.188-2.496 5.82-6.012 10.547-10.512 14.211-4.512 3.664-9.969 6.32-16.367 7.969-6.402 1.672-13.449 2.5-21.129 2.5-7.566 0-14.527-.828-20.871-2.5-6.34-1.648-11.801-4.305-16.359-7.969-4.57-3.664-8.137-8.391-10.688-14.211-2.566-5.821-3.84-12.879-3.84-21.188zm-68.129 17.449c0 .77.379 1.16 1.164 1.16.547 0 .832-.391.832-1.16 1-7.316 2.281-15.312 3.84-24.012a2784.755 2784.755 0 0 1 4.676-25.43c1.559-8.242 3.062-15.754 4.504-22.5 1.449-6.77 2.562-11.797 3.348-15.129h36.066v112.5h-21.703v-94.715c0-.559-.398-.832-1.172-.832-.441 0-.668.273-.668.832a822.512 822.512 0 0 0-2.836 14.871c-1.012 5.48-2.23 11.902-3.684 19.27a2221.824 2221.824 0 0 1-5.25 25.836c-2.059 9.867-4.484 21.438-7.266 34.738h-22.551a4683.305 4683.305 0 0 1-7.094-33.906 5303.7 5303.7 0 0 1-5.098-25.09 6358.444 6358.444 0 0 1-3.84-19.273 1193.41 1193.41 0 0 0-3.34-16.445c0-.559-.391-.832-1.172-.832-.438 0-.664.273-.664.832v94.715h-19.867v-112.5h36.23a339.171 339.171 0 0 1 2.008 9.473c.77 3.887 1.645 8.223 2.582 13.047.953 4.805 1.918 9.969 2.93 15.438.996 5.5 2 11.086 3.004 16.797a759.847 759.847 0 0 1 2.758 16.789 1167.56 1167.56 0 0 1 2.263 15.526zm-106.211-87.07h11.02v104.191h32.059v8.309H58.775ZM421.791 205.6v-23.891h4.453v20.348h11.875v3.543zm32.586.488c-5.141 0-9.988-1.848-9.988-10.043v-14.336h4.469v14.746c0 3.789 1.816 6.348 5.52 6.348 3.641 0 5.418-2.391 5.418-6.348v-14.746h4.465v14.336c-.001 7.613-4.947 10.043-9.884 10.043zm25.977-21h-2.535v17.102h2.535c5.078 0 7.855-2.25 7.855-8.703 0-5.598-2.684-8.399-7.855-8.399zm.203 20.512h-7.203v-23.891h7.203c8.508 0 12.312 4.914 12.312 11.777 0 7.852-4.594 12.114-12.312 12.114zm43.222 0h-4.742l-4.629-16.762-4.629 16.762h-4.734l-7.27-23.891h4.969l4.875 18.703 4.598-16.758h4.726l4.575 16.758 4.836-18.703h4.667zm13.996-23.891h4.461V205.6h-4.461zm24.36 24.379c-7.273 0-11.625-4.992-11.625-12.637 0-8.266 6.066-12.223 11.625-12.223 3.914 0 6.449 1.23 8.066 2.664l-1.824 3.344c-1.301-1.469-3.078-2.801-6.242-2.801-4.016 0-7 3.59-7 9.016 0 5.562 2.984 9.422 7.203 9.422 2.438 0 3.848-.617 4.426-1.156v-6.082h-5.352v-3.277h9.648v11.473c-2.066 1.261-4.843 2.257-8.925 2.257zm15.062-12.672h9.367v2.973h-9.367zm-133.754 56.09-.82-18.164-6.082 14.883h-4.051l-6.207-14.883-.722 18.164h-4.356l1.406-23.906h5.563l6.547 15.839 6.218-15.839h5.555l1.402 23.906zm22.02-19.461-3.738 10.445h7.547zm7.066 19.461-2.094-5.812h-9.805l-2.125 5.812h-4.707l9.539-23.906h4.672l9.465 23.906zm26.864 0-6.485-9.641-6.613 9.641h-5.356l9.196-12.391-8.477-11.515h5.594l5.902 8.875 5.762-8.875h5.355l-8.445 11.515 9.16 12.391zm12.148-23.906h4.465v23.906h-4.465zm35.688 23.906-.833-18.164-6.07 14.883h-4.051l-6.207-14.883-.722 18.164h-4.356l1.41-23.906h5.559l6.547 15.839 6.215-15.839h5.562l1.399 23.906zm13.445-23.906h4.453v23.906h-4.453zm30.359 23.906v-3.555h-11.867V225.6h-4.465v23.906zm7.59-23.906h4.453v23.906h-4.453zm22.746 4.445-3.742 10.445h7.547zm7.063 19.461-2.094-5.812h-9.812l-2.125 5.812h-4.699l9.531-23.906h4.668l9.477 23.906zm25.832 0-10.012-17.82v17.82h-4.398V225.6h5.835l10.024 17.82V225.6h4.383v23.906zm31.257-6.633c0-3.609-2.191-5.32-4.902-6.484l-4.734-2.008c-1.48-.617-3.023-1.438-3.023-3.148 0-1.367 1.203-2.898 3.844-2.898 2.988 0 4.668 1.328 6.039 3.008l1.891-2.969c-1.727-2.051-4.738-3.25-7.93-3.25-3.844 0-8.41 2.254-8.41 6.863 0 2.941 1.988 4.883 4.566 5.977l4.734 2.012c1.852.789 3.258 1.672 3.258 3.555 0 1.531-1.406 3.242-4.422 3.242-3.055 0-5.039-1.367-6.766-3.312l-1.879 3c1.129 1.336 3.84 3.516 8.574 3.516 7.203-.002 9.16-4.643 9.16-7.104zm5.731-5.562h9.363v2.977h-9.363zm-259.816 56.57c-5.152 0-9.984-1.855-9.984-10.039v-14.344h4.453v14.742c0 3.789 1.82 6.359 5.531 6.359 3.629 0 5.418-2.391 5.418-6.359v-14.742h4.453v14.344c0 7.609-4.93 10.039-9.871 10.039zm33.382-.488-10.023-17.825v17.825H450.4v-23.895h5.836l10.02 17.82v-17.82h4.383v23.895zm15.395-23.895h4.465v23.895h-4.465zm24.664 23.895h-4.727l-9.546-23.895h5.046l6.969 19.391 6.965-19.391h4.836zm16.156 0v-23.895h16.094v3.484h-11.629v6.282h10.707v3.414h-10.707v7.172h12.082v3.543zm32.496-20.52h-3.848v6.938h3.848c3.438 0 4.289-1.672 4.289-3.656 0-1.805-1.41-3.282-4.289-3.282zm5.524 20.52-4.832-7.199c-1.238-1.844-2.305-3.113-3.43-3.113h-1.109v10.312h-4.453v-23.895h9.16c4.219 0 8.027 2.215 8.027 6.656 0 4.504-4.051 6.184-6.109 6.418.691.441 1.578 1.602 1.891 2.051l6.18 8.77zm18.633.488c-4.738 0-7.445-2.195-8.582-3.516l1.887-3.008c1.723 1.945 3.711 3.312 6.762 3.312 3.02 0 4.426-1.711 4.426-3.242 0-1.887-1.406-2.773-3.258-3.555l-4.734-2.016c-2.578-1.094-4.566-3.035-4.566-5.977 0-4.609 4.566-6.863 8.406-6.863 3.195 0 6.207 1.191 7.93 3.242l-1.887 2.969c-1.371-1.668-3.051-2.996-6.043-2.996-2.641 0-3.84 1.531-3.84 2.898 0 1.711 1.543 2.531 3.02 3.145l4.727 2.012c2.711 1.164 4.914 2.871 4.914 6.484-.002 2.462-1.959 7.111-9.162 7.111zm17.187-24.383h4.465v23.895h-4.465zm23.637 3.555v20.34h-4.453v-20.34h-8.067v-3.555h20.582v3.555zm26.66-5.735c-1.273 0-2.328-1.094-2.328-2.297 0-1.188 1.027-2.281 2.328-2.281s2.332 1.094 2.332 2.281c0 1.204-1.055 2.297-2.332 2.297zm-3.367 6.621-3.738 10.441h7.547zm-3.258-6.621c-1.266 0-2.328-1.094-2.328-2.297 0-1.188 1.023-2.281 2.328-2.281 1.309 0 2.34 1.094 2.34 2.281 0 1.204-1.071 2.297-2.34 2.297zm10.336 26.075-2.094-5.801h-9.82l-2.121 5.801h-4.699l9.531-23.895h4.672l9.465 23.895zm21.019-20.34v20.34h-4.453v-20.34h-8.058v-3.555h20.582v3.555zm-226.457 64.234-.82-18.152-6.082 14.883h-4.051l-6.207-14.883-.722 18.152h-4.356l1.406-23.894h5.563l6.547 15.839 6.218-15.839h5.555l1.402 23.894zm25.938-26.082c-1.277 0-2.34-1.094-2.34-2.285s1.035-2.285 2.34-2.285c1.297 0 2.367 1.094 2.367 2.285s-1.109 2.285-2.367 2.285zm-6.629 0c-1.262 0-2.328-1.094-2.328-2.285s1.027-2.285 2.328-2.285 2.371 1.094 2.371 2.285-1.098 2.285-2.371 2.285zm3.644 26.563c-5.152 0-9.984-1.836-9.984-10.039v-14.336h4.453v14.754c0 3.789 1.82 6.352 5.531 6.352 3.629 0 5.418-2.395 5.418-6.352v-14.754h4.453v14.336c.001 7.617-4.929 10.039-9.871 10.039zm33.383-.481-10.023-17.812v17.812h-4.395v-23.894h5.836l10.02 17.824v-17.824h4.383v23.894zm25.348.481c-7.75 0-11.391-6.004-11.391-12.598 0-6.453 4.422-12.258 11.391-12.258 3.438 0 6.109 1.133 7.93 3.039l-1.754 3.32c-1.34-1.504-2.668-3.078-6.105-3.078-4.055 0-6.793 3.93-6.793 8.977 0 4.953 2.949 9.328 6.832 9.328 2.852 0 4.727-.961 6.75-3.117l1.715 3.418c-2.778 2.121-4.794 2.969-8.575 2.969zm30.703-.481v-10.82h-10.699v10.82h-4.461v-23.894h4.461v9.804h10.699v-9.804h4.461v23.894zm13.902 0v-23.894h16.09v3.488h-11.629v6.277h10.703v3.418h-10.703v7.168h12.075v3.543zm38.598 0-10.019-17.812v17.812h-4.395v-23.894h5.828l10.027 17.824v-17.824h4.395v23.894z" style="fill:#fff" transform="translate(-5.156 -5.163) scale(.14515)"/></svg>