<svg xmlns="http://www.w3.org/2000/svg" viewBox="0 0 165.485 49.521" height="187.167" width="625.456"><path d="M25.17 135.168h1.571v-15.503H25.17zm5.768 0h1.29v-15.503h-1.29zm5.768 0h1.006v-15.503h-1.006Zm5.769 0h.723v-15.503h-.723zm5.768 0h.44v-15.503h-.44zm135.335-3.191c-.907 0-1.45-.444-1.712-1.25-.162-.443-.222-.927-.222-1.592 0-.644.06-1.128.222-1.592.261-.785.805-1.228 1.712-1.228.927 0 1.472.443 1.733 1.228.162.464.222.948.222 1.592 0 .665-.06 1.15-.222 1.592-.261.806-.806 1.25-1.733 1.25m-.322 6.105c2.982 0 4.534-1.672 4.534-4.453v-8.906c0-.121-.08-.202-.202-.202h-1.853c-.121 0-.202.08-.202.202v.725h-.02c-.443-.705-1.27-1.149-2.519-1.149-1.632 0-2.8.826-3.305 2.378-.242.746-.322 1.39-.322 2.458 0 1.068.08 1.733.322 2.48.504 1.53 1.673 2.356 3.305 2.356 1.25 0 2.076-.443 2.519-1.128h.02v.907c0 1.511-.685 2.318-2.176 2.318-.806 0-1.511-.323-2.116-.907-.1-.101-.201-.101-.302 0l-1.19 1.188c-.1.101-.1.182-.02.283.746.886 2.177 1.45 3.527 1.45m-5.924-3.848c.12 0 .202-.081.202-.202v-6.126c0-2.075-1.29-3.607-3.366-3.607-1.29 0-2.136.524-2.559 1.129h-.02v-.705c0-.121-.08-.202-.201-.202h-1.854c-.121 0-.202.08-.202.202v9.31c0 .12.081.2.202.2h1.854c.12 0 .2-.08.2-.2v-5.603c0-1.25.686-2.115 1.855-2.115 1.209 0 1.834.866 1.834 2.115v5.602c0 .12.08.202.201.202zm-10.78 0c.12 0 .201-.081.201-.202v-9.31c0-.12-.08-.201-.201-.201h-1.854c-.121 0-.202.08-.202.202v5.621c0 1.23-.665 2.096-1.813 2.096-1.23 0-1.814-.866-1.814-2.116v-5.601c0-.121-.08-.202-.201-.202h-1.854c-.121 0-.202.08-.202.202v6.125c0 2.076 1.27 3.607 3.345 3.607 1.23 0 1.995-.463 2.52-1.128h.02v.705c0 .12.08.202.2.202zm-10.03.12c.122 0 .202-.08.202-.201v-1.612c0-.121-.08-.202-.201-.202h-.504c-.625 0-.907-.221-.907-.906v-5.038c0-.08.04-.12.121-.12h1.29c.12 0 .201-.081.201-.202v-1.35c0-.121-.08-.202-.201-.202h-1.29c-.08 0-.12-.04-.12-.12v-2.66c0-.121-.081-.202-.202-.202h-1.854c-.12 0-.202.08-.202.201v2.66c0 .08-.04.12-.12.12h-.645c-.121 0-.202.082-.202.203v1.35c0 .12.08.201.202.201h.645c.08 0 .12.04.12.121v5.118c0 1.894.746 2.841 2.7 2.841zm-8.234-.12c.12 0 .201-.081.201-.202v-7.637c0-.08.04-.12.121-.12h1.733c.12 0 .201-.081.201-.202v-1.35c0-.121-.08-.202-.201-.202h-1.733c-.08 0-.12-.04-.12-.12v-.666c0-.947.22-1.189 1.228-1.189h.625c.12 0 .201-.08.201-.201v-1.612c0-.121-.08-.202-.201-.202h-.887c-2.116 0-3.224.988-3.224 3.244v.625c0 .08-.04.12-.121.12h-.645c-.12 0-.201.082-.201.203v1.35c0 .12.08.201.201.201h.645c.08 0 .121.04.121.121v7.637c0 .12.08.202.202.202zm-5.2 0c.122 0 .203-.081.203-.202v-9.31c0-.12-.081-.201-.202-.201h-1.854c-.121 0-.202.08-.202.202v9.31c0 .12.08.2.202.2zm0-11.547c.122 0 .203-.08.203-.201v-1.753c0-.121-.081-.202-.202-.202h-1.854c-.121 0-.202.08-.202.202v1.753c0 .12.08.201.202.201zm-4.313 11.667c.12 0 .201-.08.201-.201v-1.612c0-.121-.08-.202-.201-.202h-.504c-.625 0-.907-.221-.907-.906v-5.038c0-.08.04-.12.12-.12h1.29c.122 0 .202-.081.202-.202v-1.35c0-.121-.08-.202-.201-.202h-1.29c-.08 0-.121-.04-.121-.12v-2.66c0-.121-.08-.202-.202-.202h-1.853c-.121 0-.202.08-.202.201v2.66c0 .08-.04.12-.12.12h-.646c-.12 0-.201.082-.201.203v1.35c0 .12.08.201.201.201h.645c.08 0 .121.04.121.121v5.118c0 1.894.746 2.841 2.7 2.841zm-10.196.101c2.66 0 4.07-1.35 4.07-3.284 0-1.592-.967-2.64-3.003-2.842l-1.047-.1c-1.25-.121-1.592-.464-1.592-1.028 0-.584.504-1.007 1.47-1.007.968 0 1.935.382 2.54.805.1.061.201.061.282-.04l.987-1.189a.199.199 0 0 0-.04-.282c-.867-.685-2.136-1.189-3.647-1.189-2.418 0-3.768 1.19-3.768 3.063 0 1.652 1.007 2.66 2.982 2.862l1.048.1c1.27.121 1.612.484 1.612 1.069 0 .664-.605 1.148-1.794 1.148-1.007 0-2.136-.464-2.84-1.108a.195.195 0 0 0-.283 0l-1.149 1.209a.195.195 0 0 0 0 .282c.807.745 2.177 1.531 4.172 1.531m-6.126-.221c.121 0 .202-.081.202-.202v-6.126c0-2.075-1.29-3.607-3.365-3.607-1.29 0-2.137.524-2.56 1.129h-.02v-.705c0-.121-.08-.202-.201-.202h-1.854c-.12 0-.202.08-.202.202v9.31c0 .12.081.2.202.2h1.854c.12 0 .201-.08.201-.2v-5.603c0-1.25.685-2.115 1.854-2.115 1.209 0 1.834.866 1.834 2.115v5.602c0 .12.08.202.201.202zm-12.291-5.945c0 .081-.041.121-.121.121h-3.81c-.08 0-.12-.04-.12-.12 0-.343.04-.585.12-.827.263-.786.988-1.25 1.915-1.25.907 0 1.633.464 1.895 1.25.08.242.12.484.12.826m-1.934 6.166c1.793 0 3.164-.685 3.99-1.652.08-.1.08-.201-.02-.282l-1.19-1.048c-.1-.08-.201-.06-.302.04-.483.524-1.189.927-2.277.927s-1.853-.524-2.176-1.47a2.132 2.132 0 0 1-.141-.746c0-.081.04-.121.12-.121h5.985c.142 0 .222-.081.222-.202 0-1.572-.1-2.237-.322-2.922-.544-1.652-1.995-2.68-3.99-2.68-1.935 0-3.425.988-3.97 2.68-.2.625-.322 1.39-.322 2.398 0 1.008.141 1.753.343 2.378.544 1.693 1.994 2.7 4.05 2.7m-6.724-.221c.12 0 .201-.081.201-.202v-9.31c0-.12-.08-.201-.201-.201h-1.854c-.121 0-.202.08-.202.202v9.31c0 .12.08.2.202.2zm0-11.547c.12 0 .201-.08.201-.201v-1.753c0-.121-.08-.202-.201-.202h-1.854c-.121 0-.202.08-.202.202v1.753c0 .12.08.201.202.201zm-8.766 9.753c-.907 0-1.531-.443-1.793-1.249-.141-.444-.201-.927-.201-1.814 0-.886.06-1.37.201-1.814.262-.805.886-1.248 1.793-1.248.927 0 1.552.443 1.814 1.248.14.444.201.928.201 1.814 0 .887-.06 1.37-.201 1.814-.262.806-.887 1.249-1.814 1.249m4.07 1.794c.122 0 .202-.081.202-.202v-13.3c0-.12-.08-.2-.202-.2h-1.853c-.121 0-.202.08-.202.2v4.716h-.02c-.463-.665-1.27-1.149-2.58-1.149-1.651 0-2.86.786-3.365 2.338-.241.745-.342 1.43-.342 2.74 0 1.31.1 1.995.342 2.74.505 1.552 1.714 2.338 3.366 2.338 1.31 0 2.116-.484 2.58-1.148h.02v.725c0 .12.08.202.2.202zm-10.477 0c.12 0 .201-.081.201-.202v-9.31c0-.12-.08-.201-.201-.201h-1.854c-.121 0-.202.08-.202.202v5.621c0 1.23-.665 2.096-1.813 2.096-1.23 0-1.814-.866-1.814-2.116v-5.601c0-.121-.08-.202-.201-.202h-1.854c-.121 0-.202.08-.202.202v6.125c0 2.076 1.27 3.607 3.345 3.607 1.23 0 1.995-.463 2.52-1.128h.02v.705c0 .12.08.202.2.202zm-10.116.12c.121 0 .202-.08.202-.201v-1.612c0-.121-.08-.202-.202-.202h-.504c-.624 0-.906-.221-.906-.906v-5.038c0-.08.04-.12.12-.12h1.29c.121 0 .202-.081.202-.202v-1.35c0-.121-.08-.202-.202-.202h-1.29c-.08 0-.12-.04-.12-.12v-2.66c0-.121-.081-.202-.202-.202h-1.854c-.121 0-.201.08-.201.201v2.66c0 .08-.04.12-.121.12h-.645c-.12 0-.201.082-.201.203v1.35c0 .12.08.201.201.201h.645c.08 0 .12.04.12.121v5.118c0 1.894.746 2.841 2.7 2.841zm-10.881.101c3.405 0 5.158-1.813 5.158-4.252 0-2.357-1.45-3.606-4.09-3.97l-.725-.1c-1.854-.262-2.52-.907-2.52-1.854 0-1.068.767-1.834 2.157-1.834 1.148 0 2.176.343 3.284 1.069.101.06.202.04.282-.06l.968-1.492c.08-.12.06-.201-.04-.282-1.089-.826-2.721-1.37-4.434-1.37-2.821 0-4.634 1.652-4.634 4.13 0 2.278 1.491 3.547 4.13 3.91l.726.1c1.894.263 2.499.907 2.499 1.894 0 1.15-.947 1.975-2.58 1.975-1.531 0-2.841-.745-3.727-1.45-.081-.081-.202-.081-.283.02l-1.249 1.45c-.08.1-.04.222.04.303 1.068 1.007 3.023 1.813 5.038 1.813" style="fill:#f7a600;fill-opacity:1;fill-rule:nonzero;stroke:none;stroke-width:.35277775" transform="translate(-23.847 -102.906)"/><path d="M48.665 151.104h1.571v-15.936h-1.571Zm-5.146 0h1.289v-15.936h-1.29zm-5.146 0h1.006v-15.936h-1.006zm-5.145 0h.723v-15.936h-.723Zm-5.146 0h.44v-15.936h-.44Zm20.583-31.44h1.571V104.23h-1.571Zm-5.146 0h1.289V104.23h-1.29zm-5.146 0h1.006V104.23h-1.006zm-5.145 0h.723V104.23h-.723Zm-5.146 0h.44V104.23h-.44zm157.177 30.813c1.78 0 2.75-.897 2.75-2.237 0-1.097-.67-1.795-2.052-1.924l-.712-.07c-1.013-.1-1.34-.385-1.34-.927 0-.555.441-.94 1.297-.94.698 0 1.396.27 1.838.555.071.043.142.043.2-.028l.484-.613c.042-.071.042-.156-.029-.199-.57-.428-1.425-.756-2.422-.756-1.61 0-2.537.785-2.537 2.081 0 1.111.699 1.781 2.038 1.924l.727.071c1.069.114 1.325.413 1.325.955 0 .612-.499 1.04-1.496 1.04a3.314 3.314 0 0 1-2.109-.784.138.138 0 0 0-.2 0l-.584.627a.138.138 0 0 0 0 .2c.556.484 1.496 1.026 2.822 1.026m-8.336-4.161c-.057 0-.085-.029-.085-.086 0-.313.028-.556.1-.769.227-.684.797-1.069 1.567-1.069.77 0 1.339.385 1.567 1.07.071.212.1.455.1.768 0 .057-.029.086-.086.086zm1.653 4.16c1.197 0 2.123-.484 2.664-1.168.057-.071.057-.142-.014-.2l-.584-.527c-.071-.057-.143-.043-.214.029-.37.428-.94.755-1.752.755-.841 0-1.454-.399-1.724-1.183a2.559 2.559 0 0 1-.114-.826c0-.057.028-.086.085-.086h4.317c.1 0 .157-.056.157-.142 0-1.04-.071-1.51-.214-1.952-.384-1.169-1.368-1.839-2.678-1.839-1.297 0-2.295.656-2.68 1.839-.142.413-.213.94-.213 1.724s.085 1.282.228 1.724c.37 1.183 1.354 1.853 2.736 1.853m-3.786-.157c.085 0 .128-.086.085-.143l-2.522-4.103 2.095-2.437c.057-.071.028-.143-.057-.143h-1.054c-.1 0-.171.029-.257.128l-2.693 3.178v-6.027c0-.086-.057-.143-.142-.143h-.912c-.086 0-.143.057-.143.143v9.404c0 .086.057.143.143.143h.912c.085 0 .142-.057.142-.143v-1.795L171.57 147l1.937 3.177c.058.1.13.143.229.143zm-7.177.071c.085 0 .142-.057.142-.142v-.827c0-.085-.057-.142-.142-.142h-.27c-.471 0-.685-.186-.685-.756v-7.75c0-.087-.057-.143-.142-.143h-.912c-.086 0-.143.056-.143.142v7.823c0 1.225.47 1.795 1.667 1.795zm-6.72-1.026c-.755 0-1.31-.385-1.539-1.069-.114-.37-.156-.74-.156-1.396 0-.655.042-1.012.156-1.382.228-.684.784-1.069 1.54-1.069.754 0 1.31.385 1.538 1.069.114.37.157.727.157 1.382 0 .656-.043 1.026-.157 1.396-.228.684-.784 1.069-1.539 1.069m0 1.112c1.325 0 2.322-.684 2.693-1.838.157-.471.228-.94.228-1.74 0-.783-.071-1.253-.228-1.723-.37-1.169-1.368-1.839-2.693-1.839s-2.323.67-2.693 1.839c-.157.47-.228.94-.228 1.724 0 .798.071 1.268.228 1.739.37 1.154 1.368 1.838 2.693 1.838m-6.54-.157c.085 0 .142-.057.17-.143l3.121-9.376c.043-.114-.014-.17-.1-.17h-.983c-.1 0-.156.042-.185.142l-2.394 7.48h-.028l-2.48-7.48c-.028-.1-.085-.142-.2-.142h-.968c-.086 0-.143.056-.1.17l3.135 9.376c.028.086.086.143.17.143zm-8.894 0c.086 0 .143-.057.143-.143v-4.275c0-1.552-.884-2.565-2.365-2.565-.927 0-1.582.4-1.91.927h-.014v-.627c0-.086-.058-.143-.143-.143h-.912c-.085 0-.142.057-.142.143v6.54c0 .086.057.143.142.143h.912c.085 0 .143-.057.143-.143v-4.06c0-1.013.64-1.668 1.567-1.668 1.026 0 1.525.641 1.525 1.738v3.99c0 .086.057.143.142.143zm-11.478-4.004c-.056 0-.085-.029-.085-.086 0-.313.029-.555.1-.769.228-.684.797-1.069 1.567-1.069.77 0 1.34.385 1.568 1.07.07.213.1.455.1.768 0 .057-.03.086-.086.086zm1.654 4.16c1.196 0 2.123-.484 2.664-1.168.057-.071.057-.142-.014-.2l-.585-.527c-.07-.057-.142-.043-.213.029-.37.428-.94.755-1.753.755-.84 0-1.453-.399-1.724-1.183a2.559 2.559 0 0 1-.114-.826c0-.057.029-.085.085-.085h4.318c.1 0 .156-.057.156-.143 0-1.04-.07-1.51-.213-1.952-.385-1.169-1.368-1.839-2.679-1.839-1.296 0-2.294.656-2.679 1.839-.142.413-.213.94-.213 1.724s.085 1.282.227 1.724c.37 1.183 1.354 1.853 2.737 1.853m-4.733-.157c.086 0 .143-.057.143-.143v-4.275c0-1.552-.884-2.565-2.366-2.565-.926 0-1.581.4-1.909.927h-.014v-3.49c0-.087-.057-.143-.143-.143h-.912c-.085 0-.142.056-.142.142v9.404c0 .086.057.143.142.143h.912c.086 0 .143-.057.143-.143v-4.06c0-1.013.641-1.668 1.567-1.668 1.026 0 1.525.641 1.525 1.738v3.99c0 .086.057.143.143.143zm-12.147-3.42c0 .77.086 1.325.214 1.739.384 1.182 1.382 1.838 2.693 1.838 1.04 0 1.838-.442 2.337-1.155.042-.071.042-.128-.043-.2l-.627-.512c-.071-.057-.143-.057-.2.014-.398.499-.783.74-1.467.74-.74 0-1.297-.355-1.525-1.068-.114-.356-.157-.783-.157-1.396 0-.599.043-1.026.157-1.382.228-.713.784-1.069 1.525-1.069.684 0 1.069.242 1.468.74.056.072.128.072.199.015l.627-.513c.085-.07.085-.128.043-.2-.499-.712-1.297-1.154-2.337-1.154-1.311 0-2.308.656-2.693 1.839-.128.413-.214.969-.214 1.724m-4.065 3.577c1.781 0 2.75-.898 2.75-2.238 0-1.097-.67-1.795-2.052-1.923l-.712-.071c-1.012-.1-1.34-.385-1.34-.927 0-.555.442-.94 1.297-.94.698 0 1.396.27 1.838.555.071.043.142.043.2-.028l.484-.613c.043-.07.043-.156-.029-.199-.57-.428-1.424-.756-2.422-.756-1.61 0-2.536.785-2.536 2.081 0 1.111.698 1.781 2.037 1.924l.727.071c1.069.114 1.325.413 1.325.955 0 .613-.499 1.04-1.496 1.04a3.315 3.315 0 0 1-2.109-.784.138.138 0 0 0-.2 0l-.583.627a.138.138 0 0 0 0 .2c.555.484 1.496 1.026 2.821 1.026m-4.275-.086c.086 0 .143-.057.143-.142v-.827c0-.085-.057-.143-.143-.143h-.299c-.613 0-.87-.185-.87-.869v-3.861c0-.057.029-.086.086-.086h1.083c.086 0 .143-.057.143-.142v-.684c0-.086-.057-.143-.143-.143h-1.083c-.057 0-.085-.028-.085-.085v-1.924c0-.085-.057-.142-.143-.142h-.912c-.085 0-.142.056-.142.142v1.924c0 .057-.029.085-.086.085h-.57c-.085 0-.142.057-.142.143v.684c0 .085.057.142.142.142h.57c.057 0 .086.029.086.086v3.904c0 1.34.513 1.938 1.838 1.938zm-4.755-.071c.086 0 .143-.057.143-.143v-6.54c0-.086-.057-.143-.143-.143h-.912c-.085 0-.142.057-.142.143v4.047c0 1.026-.613 1.681-1.54 1.681-1.01 0-1.51-.641-1.51-1.753v-3.975c0-.086-.057-.143-.142-.143h-.912c-.085 0-.142.057-.142.143v4.26c0 1.554.869 2.58 2.365 2.58.884 0 1.51-.371 1.867-.94h.014v.64c0 .086.057.143.142.143zm-11.342-4.004c-.057 0-.085-.029-.085-.086 0-.313.028-.555.1-.769.227-.684.797-1.069 1.567-1.069.77 0 1.34.385 1.567 1.07.071.213.1.455.1.768 0 .057-.029.086-.085.086zm1.653 4.16c1.197 0 2.123-.484 2.665-1.168.057-.071.057-.142-.015-.2l-.584-.527c-.071-.057-.142-.043-.214.029-.37.428-.94.755-1.752.755-.841 0-1.454-.399-1.725-1.183a2.56 2.56 0 0 1-.113-.826c0-.057.028-.085.085-.085h4.318c.1 0 .157-.057.157-.143 0-1.04-.072-1.51-.214-1.952-.385-1.169-1.368-1.839-2.68-1.839-1.296 0-2.293.656-2.678 1.839-.143.413-.214.94-.214 1.724s.086 1.282.228 1.724c.37 1.183 1.354 1.853 2.736 1.853m-7.508-1.112c-.755 0-1.268-.37-1.496-1.04-.114-.356-.157-.798-.157-1.425 0-.613.043-1.054.157-1.425.228-.67.74-1.026 1.496-1.026.755 0 1.283.342 1.51 1.026.114.342.157.741.157 1.425s-.043 1.097-.157 1.425c-.227.684-.755 1.04-1.51 1.04m2.722.955c.085 0 .142-.057.142-.143v-9.404c0-.086-.057-.142-.142-.142h-.912c-.086 0-.143.056-.143.142v3.505h-.014c-.328-.542-.912-.94-1.938-.94-1.183 0-2.009.555-2.35 1.638-.186.542-.243 1.083-.243 1.924 0 .855.057 1.396.242 1.938.342 1.083 1.168 1.639 2.351 1.639 1.026 0 1.61-.414 1.938-.955h.014v.655c0 .086.057.143.143.143zm-13.397.157c1.782 0 2.75-.898 2.75-2.238 0-1.097-.67-1.795-2.051-1.923l-.713-.071c-1.011-.1-1.34-.385-1.34-.927 0-.555.443-.94 1.297-.94.699 0 1.397.27 1.839.555.07.043.142.043.2-.028l.484-.613c.042-.07.042-.156-.029-.199-.57-.428-1.425-.756-2.422-.756-1.61 0-2.537.785-2.537 2.081 0 1.111.699 1.781 2.038 1.924l.727.071c1.068.114 1.325.413 1.325.955 0 .613-.499 1.04-1.496 1.04a3.315 3.315 0 0 1-2.11-.784.138.138 0 0 0-.199 0l-.584.627a.138.138 0 0 0 0 .2c.556.484 1.496 1.026 2.821 1.026m-8.597-4.161c-.058 0-.086-.029-.086-.086 0-.313.028-.555.1-.769.228-.684.798-1.069 1.567-1.069.77 0 1.34.385 1.567 1.07.072.213.1.455.1.768 0 .057-.028.086-.085.086zm1.652 4.16c1.197 0 2.123-.484 2.665-1.168.057-.071.057-.142-.014-.2l-.584-.527c-.072-.057-.143-.043-.214.029-.37.428-.94.755-1.753.755-.84 0-1.453-.399-1.724-1.182a2.56 2.56 0 0 1-.114-.827c0-.057.028-.085.086-.085h4.317c.1 0 .157-.057.157-.143 0-1.04-.071-1.51-.214-1.952-.384-1.169-1.368-1.839-2.679-1.839-1.296 0-2.294.656-2.679 1.839-.142.413-.213.94-.213 1.724s.085 1.283.228 1.724c.37 1.183 1.353 1.853 2.735 1.853m-7.507-1.112c-.755 0-1.268-.37-1.497-1.04-.114-.356-.156-.798-.156-1.425 0-.613.042-1.054.156-1.425.229-.67.742-1.026 1.497-1.026.755 0 1.282.342 1.51 1.026.114.342.157.741.157 1.425s-.043 1.097-.157 1.425c-.228.684-.755 1.04-1.51 1.04m2.721.955c.086 0 .143-.057.143-.143v-9.404c0-.086-.057-.142-.143-.142h-.911c-.086 0-.143.056-.143.142v3.505h-.015c-.327-.542-.911-.94-1.938-.94-1.182 0-2.009.555-2.35 1.638-.186.542-.242 1.084-.242 1.924 0 .855.056 1.396.242 1.938.341 1.083 1.168 1.639 2.35 1.639 1.027 0 1.61-.414 1.938-.955h.015v.655c0 .086.057.143.143.143h.911" style="fill:#989898;fill-opacity:1;fill-rule:nonzero;stroke:none;stroke-width:.35277775" transform="translate(-23.847 -102.906)"/></svg>