<svg xmlns="http://www.w3.org/2000/svg" width="100" height="32.408" xml:space="preserve"><path d="M30.701 24.61c-1.557 0-1.888-.894-1.888-1.85v-3.429h.8V22.7c0 .694.221 1.217 1.14 1.217.808 0 1.176-.354 1.176-1.325v-3.26h.786v3.198c0 1.387-.713 2.08-2.014 2.08zm5.583-.077V22.25c0-.442-.121-.7-.528-.7-.535 0-.928.564-.928 1.27v1.713h-.763v-3.546h.728c0 .186-.015.492-.05.692l.007.007c.207-.456.635-.77 1.234-.77.806 0 1.056.506 1.056 1.134v2.483zm2.468-4.074a.486.486 0 0 1-.492-.478c0-.264.221-.478.492-.478a.48.48 0 0 1 .485.478c0 .264-.22.478-.485.478zm-.385 4.074v-3.546h.763v3.546zm3.681 0h-.777l-1.327-3.546h.841l.664 1.876c.086.243.164.493.228.728h.007c.057-.221.129-.471.207-.7l.678-1.904h.82zm4.916-1.727h-2.262c-.021.82.343 1.192 1.049 1.192.364 0 .742-.086 1.034-.229l.072.607a3.24 3.24 0 0 1-1.227.228c-1.106 0-1.713-.57-1.713-1.82 0-1.07.585-1.869 1.62-1.869 1.013 0 1.448.693 1.448 1.535 0 .1-.007.22-.021.356zm-1.456-1.327c-.428 0-.727.314-.792.792h1.506c.014-.485-.264-.792-.714-.792zm4.367.186c-.707-.129-1.05.364-1.05 1.427v1.44h-.763v-3.545h.728c0 .2-.021.514-.071.785h.014c.157-.478.514-.92 1.177-.856zm1.52 2.94c-.265 0-.529-.03-.75-.072l.022-.65c.22.065.499.115.77.115.414 0 .7-.179.7-.471 0-.714-1.556-.286-1.556-1.513 0-.613.5-1.099 1.462-1.099.207 0 .45.029.664.064l-.021.621a2.496 2.496 0 0 0-.692-.1c-.421 0-.628.172-.628.443 0 .684 1.57.335 1.57 1.512 0 .664-.593 1.15-1.542 1.15zm3.017-4.146a.486.486 0 0 1-.492-.478c0-.264.221-.478.492-.478a.48.48 0 0 1 .485.478c0 .264-.22.478-.485.478zm-.385 4.074v-3.546h.763v3.546zm3.367.063c-.756 0-.984-.287-.984-1.063V21.64h-.678v-.58h.678v-1.105l.756-.203v1.307h.935v.58h-.928v1.664c0 .517.107.657.464.657.157 0 .328-.02.463-.055v.615a3.75 3.75 0 0 1-.706.077zm3.631-.063c0-.228.008-.464.036-.656l-.007-.007c-.171.42-.613.734-1.177.734-.606 0-.992-.342-.992-.906 0-.813.813-1.284 2.09-1.284v-.228c0-.443-.185-.671-.741-.671-.328 0-.756.1-1.057.285l-.07-.649a3.537 3.537 0 0 1 1.248-.236c1.084 0 1.384.472 1.384 1.2v1.448c0 .306.007.67.021.97zm-1.312-4.217a.426.426 0 0 1-.428-.435c0-.235.185-.428.428-.428a.43.43 0 0 1 .435.428.432.432 0 0 1-.435.435zm1.263 2.612c-1.113 0-1.356.335-1.356.642 0 .264.186.435.485.435.521 0 .87-.5.87-1.006zm.142-2.612a.432.432 0 0 1-.435-.435.43.43 0 0 1 .435-.428.43.43 0 0 1 0 .863zm3.097 4.28c-.757 0-.984-.287-.984-1.063V21.64h-.678v-.58h.678v-1.105l.756-.203v1.307h.934v.58h-.928v1.664c0 .517.107.657.464.657.157 0 .329-.02.464-.055v.615a3.76 3.76 0 0 1-.706.077zm7.884-.063v-2.335h-2.344v2.335h-.801V19.33h.801v2.15H72.1v-2.15h.794v5.202zm4.336 0c0-.228.007-.464.036-.656l-.008-.007c-.17.42-.613.734-1.177.734-.606 0-.992-.342-.992-.906 0-.813.814-1.284 2.091-1.284v-.228c0-.443-.186-.671-.742-.671-.328 0-.756.1-1.056.285l-.071-.649a3.534 3.534 0 0 1 1.248-.236c1.084 0 1.384.472 1.384 1.2v1.448c0 .306.007.67.022.97zm-.05-1.605c-1.113 0-1.356.335-1.356.642 0 .264.186.435.485.435.521 0 .87-.5.87-1.006zm6.535 1.605V22.27c0-.442-.107-.72-.513-.72-.457 0-.914.506-.914 1.284v1.698h-.749v-2.269c0-.4-.086-.713-.514-.713-.485 0-.906.542-.906 1.284v1.698h-.763v-3.546h.728c0 .186-.015.485-.05.692l.014.007c.207-.47.65-.77 1.198-.77.7 0 .928.45.985.763.15-.342.542-.763 1.184-.763.678 0 1.056.364 1.056 1.17v2.447h-.756zm3.346.057c-.5 0-.877-.05-1.263-.15v-5.115h.763v1.633c0 .207-.021.493-.064.678h.015c.185-.442.606-.72 1.127-.72.842 0 1.306.599 1.306 1.67 0 1.226-.707 2.004-1.884 2.004zm.378-3.04c-.57 0-.878.664-.878 1.263v1.1c.158.05.336.07.557.07.607 0 1.02-.37 1.02-1.326 0-.714-.221-1.106-.699-1.106zm4.944 2.983c0-.186.014-.492.05-.692l-.007-.007c-.207.456-.635.77-1.235.77-.806 0-1.056-.506-1.056-1.134v-2.483h.757v2.283c0 .442.121.7.528.7.535 0 .927-.564.927-1.27v-1.713h.764v3.546zm4.081-2.868c-.706-.129-1.049.364-1.049 1.427v1.44h-.763v-3.545h.728c0 .2-.022.514-.072.785h.015c.156-.478.513-.92 1.177-.856zm2.369 4.694c-.928 0-1.505-.356-1.505-1.041 0-.4.263-.735.57-.892-.214-.107-.35-.293-.35-.528a.665.665 0 0 1 .407-.607c-.35-.192-.528-.556-.528-.998 0-.75.571-1.377 1.584-1.377.214 0 .393.028.585.071H100v.6h-.542c.15.12.242.335.242.592 0 .77-.535 1.312-1.534 1.312a2.334 2.334 0 0 1-.406-.035c-.143.057-.207.164-.207.263 0 .179.157.25.585.25h.606c.77 0 1.206.364 1.206 1.027 0 .757-.771 1.363-1.912 1.363zm.5-1.77h-.664c-.065 0-.136 0-.193-.006-.243.135-.393.35-.393.592 0 .378.357.592.87.592.664 0 1.036-.285 1.036-.67 0-.307-.208-.507-.657-.507zm-.358-3.11c-.506 0-.806.307-.806.742 0 .464.286.735.8.735.477 0 .791-.264.791-.728 0-.47-.293-.749-.785-.749z"/><path d="M.418 0h95.967v95.966H.418Z" style="fill:#e2001a" transform="scale(.2548)"/><path d="M62.113 56.883h1.371l-.685-1.188.685-1.187h-1.371l-.685-1.186-.686 1.186h-1.37l.685 1.187-.685 1.188h1.371l.685 1.187zm21.453 0h1.372l-.686-1.188.686-1.187h-1.372l-.685-1.186-.686 1.186h-1.37l.685 1.187-.685 1.188h1.37l.686 1.187z" style="fill:#fff" transform="scale(.2548)"/><path d="M68.386 57.432v.256h-1.501v1.752h1.691v10.955h-3.898V59.686h-6.5v10.708h-2.125v1.818h32.203v-1.818h-2.125V59.686h-6.5v10.708h-3.898V59.439h1.691v-1.752h-1.501c-.095-1.885-1.032-3.496-2.999-3.932v-1.894h1.408v-1.315h-1.408v-1.607h-1.539v1.607h-1.408v1.315h1.408v1.898c-1.737.405-2.999 1.845-2.999 3.673zm3.769 22.296a4.297 4.297 0 0 0-4.298 4.297l-.076 7.197H54.267c2.007-5.574 3.341-11.184 3.754-17.131h28.267c.414 5.947 1.748 11.557 3.755 17.131H76.528l-.076-7.197a4.297 4.297 0 0 0-4.297-4.297ZM42.2 31.336h-3.85v-10.8H27.099v2.495c0 5.416-3.205 8.662-9.463 8.662-6.427 0-9.464-2.99-9.464-8.555V7.276h3.885v15.078c0 3.875 1.352 6.131 5.614 6.131 4.196 0 5.614-2.256 5.614-6.131V7.276h3.814v9.946H38.35V7.276h3.85v9.946h11.323V7.276h3.85v24.061h-3.85v-10.8H42.2Z" style="fill:#fff" transform="scale(.2548)"/><path d="M.867 32.043c-.323 0-.604-.013-.867-.023v-3.103c.244-.009.622-.023 1.005-.023.964 0 1.577.43 1.577 1.522 0 1.07-.7 1.627-1.715 1.627zm.097-2.646c-.138 0-.268.005-.365.014v2.098c.083.014.208.023.328.023.585 0 1.01-.332 1.01-1.07 0-.669-.263-1.065-.973-1.065zm2.158 2.628v-3.113h1.693v.503H3.722v.766h1.037v.488H3.722v.844h1.093v.512H3.122zm3.81 0-.867-1.286h-.023v1.286h-.6v-3.113c.245-.013.535-.018.895-.018.687 0 1.13.24 1.13.876 0 .461-.323.793-.794.867.088.115.176.235.254.341l.747 1.047h-.742zm-.655-2.642c-.088 0-.176.005-.235.014v.899c.041.005.124.01.216.01.36 0 .581-.185.581-.476 0-.3-.184-.447-.562-.447zm4.164.05v.798h1v.491h-1v1.303h-.597v-3.097h1.657v.505zm2.83 2.642c-.945 0-1.408-.6-1.408-1.56 0-1.023.683-1.637 1.514-1.637.826 0 1.408.495 1.408 1.555 0 1.023-.674 1.642-1.514 1.642zm.05-2.66c-.426 0-.82.339-.82 1.036 0 .656.256 1.083.811 1.083.404 0 .835-.312.835-1.055 0-.688-.293-1.064-.826-1.064zm3.486 2.61-.862-1.28h-.023v1.28h-.597v-3.097c.244-.014.533-.018.89-.018.684 0 1.124.239 1.124.872 0 .459-.32.789-.789.862.087.115.174.234.252.34l.744 1.041h-.739Zm-.651-2.629c-.087 0-.175.005-.234.014v.895c.041.004.124.009.216.009.357 0 .578-.184.578-.472 0-.299-.184-.446-.56-.446zm2.403 2.68c-.22 0-.44-.023-.633-.074l.036-.555a2.142 2.142 0 0 0 .647.11c.303 0 .537-.124.537-.408 0-.592-1.298-.322-1.298-1.34 0-.55.435-.931 1.179-.931.174 0 .376.023.56.055l-.033.523a2.032 2.032 0 0 0-.555-.083c-.344 0-.518.156-.518.377 0 .555 1.302.348 1.302 1.316 0 .583-.463 1.01-1.224 1.01zm3.087-.01c-1.083 0-1.432-.72-1.432-1.49 0-.983.514-1.671 1.55-1.671.22 0 .455.028.657.083l-.064.541a2.21 2.21 0 0 0-.624-.092c-.578 0-.863.436-.863 1.037 0 .674.28 1.05.904 1.05.188 0 .44-.054.6-.128l.07.532a2.395 2.395 0 0 1-.798.138zm3.32-.041v-1.344h-1.312v1.344h-.596v-3.097h.596v1.239h1.312v-1.239h.597v3.097zm2.587.05c-.977 0-1.198-.532-1.198-1.123v-2.024h.597v1.987c0 .39.128.665.642.665.459 0 .652-.193.652-.72v-1.932h.592v1.895c0 .849-.469 1.252-1.285 1.252zm3.852-.05-.908-1.564a6.956 6.956 0 0 1-.335-.666c.019.267.028.753.028 1.124v1.106h-.578v-3.097h.775l.862 1.478c.143.238.267.495.381.729a20.845 20.845 0 0 1-.032-1.243v-.964h.578v3.097zm3.844-2.454a2.294 2.294 0 0 0-.821-.156c-.61 0-1.05.385-1.05 1.078 0 .656.357 1.041.986 1.041.146 0 .275-.018.394-.055v-1.078h.597v1.477a2.924 2.924 0 0 1-1.06.193c-.982 0-1.565-.578-1.565-1.523 0-.973.661-1.666 1.735-1.666.307 0 .61.056.876.133zm3.5 2.837v-3.596h.424v3.596zm4.633-.365c-.32 0-.6-.014-.862-.023v-3.087c.243-.01.62-.023 1-.023.959 0 1.569.427 1.569 1.514 0 1.064-.697 1.62-1.707 1.62zm.097-2.633c-.138 0-.266.005-.363.014v2.087c.083.014.207.023.326.023.583 0 1.005-.33 1.005-1.064 0-.666-.262-1.06-.968-1.06zm2.146 2.615v-3.097h1.684v.5H46.22v.762h1.033v.486H46.22v.84h1.088v.509zm3.789 0-.863-1.28h-.023v1.28h-.596v-3.097c.243-.014.532-.018.89-.018.683 0 1.124.239 1.124.872 0 .459-.321.789-.79.862.088.115.175.234.253.34l.743 1.041h-.738zm-.652-2.629c-.087 0-.174.005-.234.014v.895c.042.004.124.009.216.009.358 0 .578-.184.578-.472 0-.299-.184-.446-.56-.446zm3.55 2.629v-3.097h.596v2.574h1.005v.523h-1.601zm2.036 0v-3.097h1.684v.5h-1.088v.762h1.033v.486h-1.033v.84h1.088v.509zm4.239 0v-1.344h-1.312v1.344h-.597v-3.097h.597v1.239h1.312v-1.239h.596v3.097zm2.88 0-.863-1.28h-.023v1.28h-.596v-3.097c.243-.014.532-.018.89-.018.684 0 1.124.239 1.124.872 0 .459-.322.789-.79.862.088.115.175.234.253.34l.743 1.041h-.738zm-.652-2.629c-.087 0-.174.005-.234.014v.895c.042.004.124.009.216.009.358 0 .578-.184.578-.472 0-.299-.184-.446-.56-.446zm1.871 2.629v-3.097h1.684v.5h-1.088v.762h1.032v.486h-1.032v.84h1.088v.509zm5.027.383v-3.596h.424v3.596zm4.548-.365c-.321 0-.6-.014-.863-.023v-3.087c.244-.01.62-.023 1-.023.96 0 1.57.427 1.57 1.514 0 1.064-.698 1.62-1.707 1.62zm.096-2.633c-.137 0-.266.005-.362.014v2.087c.082.014.206.023.326.023.582 0 1.004-.33 1.004-1.064 0-.666-.261-1.06-.968-1.06zm2.146 2.615v-3.097h1.684v.5h-1.088v.762h1.033v.486h-1.033v.84h1.088v.509zm3.79 0-.863-1.28h-.023v1.28h-.597v-3.097c.244-.014.532-.018.89-.018.684 0 1.124.239 1.124.872 0 .459-.32.789-.79.862.089.115.176.234.253.34l.744 1.041h-.738zm-.652-2.629a1.687 1.687 0 0 0-.234.014v.895c.04.004.123.009.216.009.357 0 .578-.184.578-.472 0-.299-.184-.446-.56-.446zm4.453 2.638c-.188 0-.514-.009-.904-.009v-3.092a22.138 22.138 0 0 1 1.046-.023c.67 0 1.042.27 1.042.766a.75.75 0 0 1-.492.693v.009c.368.078.55.38.55.693.001.45-.306.963-1.242.963zm.041-2.642a8.02 8.02 0 0 0-.348.009v.807c.073.005.146.005.243.005.409 0 .62-.165.62-.44 0-.23-.138-.381-.515-.381zm-.087 1.266a5.35 5.35 0 0 0-.261.005v.867c.073.009.188.018.325.018.39 0 .588-.184.588-.463 0-.303-.262-.427-.652-.427zm1.908 1.367v-3.097h.596v3.097zm1.394 0v-3.097h.596v2.574h1.005v.523h-1.6zm2.9.018c-.322 0-.602-.014-.863-.023v-3.087c.242-.01.619-.023 1-.023.959 0 1.569.427 1.569 1.514 0 1.064-.698 1.62-1.707 1.62zm.095-2.633c-.137 0-.266.005-.362.014v2.087c.082.014.206.023.326.023.582 0 1.004-.33 1.004-1.064 0-.666-.261-1.06-.968-1.06zm3.367 2.665c-.978 0-1.197-.532-1.197-1.123v-2.024h.596v1.987c0 .39.128.665.642.665.459 0 .652-.193.652-.72v-1.932h.591v1.895c0 .849-.468 1.252-1.284 1.252zm3.852-.05-.908-1.564a7.077 7.077 0 0 1-.335-.666c.018.267.028.753.028 1.124v1.106h-.579v-3.097h.775l.863 1.478c.142.238.266.495.38.729a20.857 20.857 0 0 1-.031-1.243v-.964h.578v3.097zm3.844-2.454a2.294 2.294 0 0 0-.822-.156c-.61 0-1.05.385-1.05 1.078 0 .656.358 1.041.986 1.041.147 0 .275-.018.395-.055v-1.078h.596v1.477a2.922 2.922 0 0 1-1.06.193c-.981 0-1.564-.578-1.564-1.523 0-.973.66-1.666 1.734-1.666.307 0 .61.056.877.133z"/></svg>