<svg xmlns="http://www.w3.org/2000/svg" xml:space="preserve" width="100" height="34.999"><g style="fill:#1e1e1c"><path d="M17.5 0C7.85 0 0 7.85 0 17.5c0 9.648 7.85 17.499 17.5 17.499 9.649 0 17.499-7.851 17.499-17.5C34.999 7.851 27.149 0 17.499 0zm22.4 0v34.999h.199V0ZM17.5.202c9.537 0 17.297 7.76 17.297 17.297 0 9.538-7.76 17.298-17.297 17.298C7.962 34.797.202 27.037.202 17.5.202 7.962 7.962.202 17.5.202zm.002.48C8.23.682.684 8.226.684 17.499c0 5.894 3.051 11.087 7.654 14.09l.087.056a16.71 16.71 0 0 0 9.077 2.672c9.273 0 16.817-7.545 16.817-16.818C34.32 8.226 26.775.682 17.502.682zm.85.222c8.768.444 15.764 7.717 15.764 16.594 0 5.845-3.037 10.99-7.612 13.953l.001-.807-.757-.002v-2.026a13.791 13.791 0 0 0 5.523-11.005 13.79 13.79 0 0 0-5.526-11.006V5.192h.516V4.99h-.516V3.68h-.209v.83l-2.518-1.376v-1.17h-.164v1.18l-2.625 1.195V2.891h.24v-.743h-.403c-.278-.597-.915-1.046-1.713-1.244zM16.46.92c-.773.204-1.388.647-1.66 1.23h-.415v.742h.253v1.452l-2.628-1.2v-1.18h-.164v1.169L9.314 4.518V3.68h-.202l.005 1.312h-.496v.202h.496v1.589a13.646 13.646 0 0 0-5.294 10.83c0 4.262 1.929 8.208 5.294 10.83v2.2l-.638-.001.004.801C3.916 28.477.886 23.337.886 17.499c0-8.812 6.895-16.04 15.573-16.58zm.86.08v.508h-.347v.203h.346v.438h-2.294c.363-.66 1.27-1.116 2.294-1.148zm.2 0c1.035.025 1.956.483 2.322 1.15H17.52v-.44h.375v-.202h-.375zm-2.934 1.352h5.681v.337h-5.681zm.287.54h5.12V4.99h-.432v.202h.432V9.11h-.315c-.15-1.126-1.891-3.819-2.141-4.202V3.885H17.3v1.028c-.266.4-1.95 2.973-2.094 4.196h-.334V5.193h.431v-.202h-.43zm-2.954.432.21.096v5.69h-.351V3.4Zm11.028 0 .14.077V9.11h-.35V3.42Zm-10.6.195 2.29 1.045v.427h-.52v.202h.52v1.441c-.394-.461-.825-.779-1.068-.913v-.814h-.21v.804c-.17.125-.707.533-1.012.955zm10.172 0v3.11c-.308-.407-.82-.797-.985-.918v-.803h-.21v.814c-.172.121-.683.496-1.095.887V5.193h.52V4.99h-.52v-.43zm.787.001 2.237 1.22v.25h-.47v.203h.47v1.25c-.39-.352-.829-.61-.985-.721v-.815h-.21v.804c-.176.128-.744.561-1.042.996zm-11.746 0v3.218c-.304-.423-.844-.835-1.015-.96v-.803h-.21v.814a11.55 11.55 0 0 0-1.01.807V5.194h.484V4.99h-.483v-.248L11.56 3.52zm5.86 1.592c.383.593 1.9 2.995 2.048 3.997h-1.934v-.633c0-.333.225-.567.548-.57h.005c.266 0 .477.176.494.412a.338.338 0 0 1-.089.254.31.31 0 0 1-.227.101h-.003c-.134 0-.245-.074-.255-.218v-.003h-.202v.017c.017.236.191.406.456.406h.006a.509.509 0 0 0 .374-.166.545.545 0 0 0 .142-.406c-.021-.287-.234-.512-.522-.578h.004c0-.382-.287-.694-.64-.694v.202c.235 0 .427.21.436.472a.727.727 0 0 0-.628.374.725.725 0 0 0-.629-.375c.01-.262.2-.472.437-.472V7.03c-.353 0-.64.311-.64.694h.007c-.288.066-.504.29-.525.578a.542.542 0 0 0 .142.406c.097.105.23.164.374.166h.006c.264 0 .444-.17.462-.407v-.016h-.202v.002c-.01.145-.14.217-.264.219a.31.31 0 0 1-.228-.101.34.34 0 0 1-.089-.255c.018-.24.225-.412.494-.412h.006c.323.003.548.238.548.57v.635h-1.913c.141-1.094 1.622-3.417 2.002-3.997zm7.025.763c.17.121.694.442 1.098.83v2.404H23.31V7.18c0-.388.773-1.04 1.135-1.305zm-10.988 0c.18.13 1.16.863 1.18 1.225v2.01h-.707a2.625 2.625 0 0 0-1.583-.022V7.175c.05-.41.786-1.062 1.11-1.3zm7.979 0c.306.225 1.019.832 1.083 1.242v1.971a2.627 2.627 0 0 0-1.584.022h-.706V7.027c0-.308 1.026-1.022 1.207-1.152zm-10.989.067c.326.24 1.093.878 1.113 1.3V9.11H9.326V6.858c.406-.393.949-.792 1.121-.916zm15.299.918a13.592 13.592 0 0 1 5.323 10.753c0 .577-.039 1.15-.112 1.717h-1.395s-.009-1.458-.012-2.504l.771.717.15-.16-.93-.863c-.002-.434-.002-1.375-.002-1.375.02.049.067.084.123.084a.133.133 0 0 0 0-.267.133.133 0 0 0-.123.083v-.35a.133.133 0 1 0 0-.1v-.35a.13.13 0 0 0 .123.083.134.134 0 0 0 0-.267.133.133 0 0 0-.123.084v-.15h-.049a.131.131 0 0 0 .072-.117.134.134 0 1 0-.267 0c0 .051.03.095.073.117h-.05v.137a.132.132 0 0 0-.114-.07.134.134 0 0 0 0 .266c.05 0 .092-.029.115-.07v.324a.132.132 0 0 0-.115-.07.133.133 0 1 0 0 .266c.05 0 .092-.029.115-.07v.324a.132.132 0 0 0-.115-.07.133.133 0 0 0 0 .267.13.13 0 0 0 .115-.07v1.3l-1.157.004-.015-4.31c.02.049.068.084.123.084a.133.133 0 1 0-.123-.184v-.35c.02.049.068.084.123.084a.133.133 0 1 0-.123-.184v-.35a.133.133 0 1 0 .123-.183.133.133 0 0 0-.123.082v-.15h-.049a.13.13 0 0 0 .072-.116.134.134 0 0 0-.266 0c0 .052.03.095.072.117h-.049v.136a.132.132 0 0 0-.115-.07.133.133 0 1 0 0 .267c.05 0 .093-.029.115-.07v.323a.132.132 0 0 0-.115-.07.134.134 0 0 0 0 .268.131.131 0 0 0 .115-.07v.322a.132.132 0 0 0-.115-.07.134.134 0 0 0 0 .268.132.132 0 0 0 .115-.07v2.387c-.413-1.882-1.46-3.293-2.181-3.8V9.313h.564V9.11h-.564V6.86Zm-16.629.183V9.11h-.561v.203h.561v1.583c-.718.522-1.71 1.911-2.153 3.778v-2.386c.023.041.065.07.115.07a.134.134 0 0 0 0-.267c-.05 0-.092.03-.115.07v-.322c.023.04.065.069.115.069a.133.133 0 0 0 .133-.132.134.134 0 0 0-.133-.135.131.131 0 0 0-.115.07v-.322c.023.04.065.07.115.07a.134.134 0 0 0 0-.268.131.131 0 0 0-.115.07v-.136h-.05a.133.133 0 0 0 .073-.117.134.134 0 1 0-.267 0c0 .051.03.094.072.117h-.048v.15a.134.134 0 0 0-.123-.084.134.134 0 0 0 0 .268.133.133 0 0 0 .123-.084v.35a.133.133 0 0 0-.123-.084.134.134 0 0 0-.134.135.133.133 0 0 0 .257.05v.349a.133.133 0 0 0-.123-.084.134.134 0 0 0 0 .267.133.133 0 0 0 .123-.083s.002 4.03.001 4.315l-1.173-.003V15.28c.023.041.065.07.115.07a.133.133 0 1 0 0-.266.13.13 0 0 0-.115.07v-.324a.132.132 0 0 0 .249-.063.134.134 0 0 0-.134-.134.131.131 0 0 0-.115.07v-.323a.13.13 0 0 0 .115.07.134.134 0 0 0 0-.267c-.05 0-.092.03-.115.07v-.136h-.049A.134.134 0 0 0 5.596 14a.133.133 0 0 0-.267 0c0 .051.03.094.072.117h-.049v.15a.133.133 0 0 0-.256.05.133.133 0 0 0 .256.05v.35a.134.134 0 0 0-.123-.084.134.134 0 0 0 0 .268.134.134 0 0 0 .123-.083v.348a.133.133 0 1 0 0 .101v1.372l-.933.865.15.161.79-.754v2.42H4.136a13.72 13.72 0 0 1-.111-1.718c0-4.145 1.855-7.984 5.092-10.569zM4.985 7.8a.364.364 0 0 0-.178.046 1.25 1.25 0 0 0-.4.362l-.176.244 1.685 1.216.135-.187-.74-.535.035-.047 1.107.025.166-.23-1.14-.008a.559.559 0 0 0 .078-.412.568.568 0 0 0-.238-.345.58.58 0 0 0-.334-.13zm25.398.105L28.7 9.122l.472.652.172-.126-.333-.465 1.507-1.09zm-25.422.128c.07-.002.148.03.235.092.13.095.181.198.154.312a.922.922 0 0 1-.155.327.006.006 0 0 1-.002.003l-.005.002-.041.058-.606-.437.04-.056c.082-.113.17-.201.265-.265a.21.21 0 0 1 .115-.036zm46.56.766v7.154h.853v-5.088l5.11 5.37v-7.11h-.848v5.045L51.522 8.8zm41.542.037-3.251 7.117h.912l.777-1.711h3.125l.777 1.71h.912l-3.252-7.116zm-12.494.145c-1.03 0-2.006.66-2.006 1.765 0 .951.705 1.396 1.481 1.73l.47.2c.587.244 1.174.56 1.174 1.294 0 .715-.524 1.331-1.255 1.331-.732 0-1.328-.543-1.32-1.295l-.857.182c.145 1.095 1.003 1.91 2.105 1.91 1.22 0 2.177-.887 2.177-2.128 0-1.14-.723-1.675-1.69-2.055l-.487-.19c-.425-.164-.949-.444-.949-.979 0-.597.597-.968 1.138-.968.515 0 .84.216 1.093.642l.678-.407c-.37-.662-.993-1.032-1.752-1.032zm11.154.09a.544.544 0 0 0-.543.543c0 .308.244.552.543.552a.548.548 0 0 0 .551-.552.546.546 0 0 0-.551-.543zm2.678 0a.546.546 0 0 0-.55.543.548.548 0 0 0 .55.552.546.546 0 0 0 .542-.552.544.544 0 0 0-.542-.543zm-49.402.054v4.32c0 1.503.931 2.654 2.494 2.654 1.563 0 2.493-1.15 2.493-2.654v-4.32h-.85v4.03c0 1.114-.333 2.146-1.643 2.146s-1.644-1.032-1.644-2.145v-4.03zm14.343 0v6.828h.849V9.125h-.85zm1.734 0 2.962 7.191 2.955-7.19h-.929l-2.026 5.053-2.03-5.054h-.932zm6.8 0v6.828h3.656v-.778h-2.809v-2.581h2.728v-.779h-2.728v-1.91h2.809v-.78h-3.657zm5.456 0v6.828h.85v-2.888h.351l2.005 2.888h1.03l-2.15-2.97c.986-.117 1.636-.933 1.636-1.91 0-.652-.326-1.295-.895-1.63-.542-.308-1.192-.318-1.797-.318h-1.03zm10.759 0v6.828h.849V9.125h-.85zm2.045 0v.78h1.62v6.048h.847V9.904h1.615v-.779h-4.082zm9.78 0v.78h1.616v6.048h.848V9.905H100v-.78zm-82.81.053a2.45 2.45 0 0 1 2.446 2.447c0 .762-.36 1.484-.966 1.946l-.79-.43c.052-.046.143-.115.143-.115l.036.012c.158.05.578.183.83-.074.208-.214.177-.458.153-.635-.013-.104-.025-.194.01-.252a.746.746 0 0 0 .068-.572.351.351 0 0 0-.206-.224c-.107-.042-.134-.076-.173-.123a.556.556 0 0 0-.087-.09.718.718 0 0 1-.081-.167c-.057-.14-.12-.3-.244-.362-.137-.068-.273-.012-.372.03l-.093.039a.328.328 0 0 1-.04-.053c-.059-.086-.159-.24-.395-.221a.525.525 0 0 0-.324.145.682.682 0 0 1-.116.08c-.044.022-.17.03-.27.037-.185.012-.359.023-.452.103-.126.108-.175.287-.215.431-.014.051-.026.097-.04.129-.025.05-.077.082-.138.118-.083.05-.197.118-.205.265-.009.17.173.282.35.391.086.053.248.18.248.18.146.147.214.213.17.483-.028.167-.143.186-.317.196-.048.002-.577.058-.813.211l-.045.029a2.422 2.422 0 0 1-.52-1.507 2.45 2.45 0 0 1 2.447-2.447zm8.654 0a2.45 2.45 0 0 1 2.447 2.447c0 .496-.148.97-.425 1.377-.092.03-.234.059-.343.023-.626-.21-.476-.97-.404-1.335l.014-.071c.057-.302-.051-.692-.268-.97-.146-.188-.327-.297-.51-.308-.45-.028-.633.149-.781.29l-.019.018c-.123-.152-.39-.432-.926-.21-.504.207-.556.965-.535 1.214.009.1-.035.171-.096.268a.848.848 0 0 0-.16.445c-.007.194.096.368.188.521.09.149.145.25.107.308-.068.098-.142.105-.262.085-.3-.375-.474-.976-.474-1.655a2.45 2.45 0 0 1 2.447-2.447zm-4.327.134a.243.243 0 0 1 .243.243.244.244 0 0 1-.243.243.244.244 0 0 1-.244-.243.243.243 0 0 1 .244-.243zm-3.04 0h2.668a.416.416 0 0 0-.039.07.438.438 0 0 0-.035.173.438.438 0 0 0 .11.29s.096.095.158.118c-.43.21-1.061.383-1.78.486a2.665 2.665 0 0 0-1.083-1.137Zm8.655 0h2.495v.248c-.338.186-.908.36-1.648.503a2.655 2.655 0 0 0-.847-.751zm-13.722 0h2.492a2.65 2.65 0 0 0-.845.749c-.74-.144-1.308-.318-1.643-.504l-.004.006zm8.48 0h2.667a2.666 2.666 0 0 0-1.083 1.137c-.718-.102-1.338-.279-1.768-.487a.63.63 0 0 0 .147-.117.443.443 0 0 0 .11-.29.44.44 0 0 0-.074-.243zM3.622 9.39l-.517.946 1.822.997.518-.946-.19-.102-.405.742-.716-.391.395-.721-.189-.103-.394.72-.542-.296.407-.742-.189-.104zm27.792.077-1.802 1.035.116.201 1.801-1.035zm-22.09.353c.348.17.854.322 1.506.454a2.627 2.627 0 0 0-.326.854c-.664-.132-.98-.278-1.18-.394zm16.218.006v.915c-.248.144-.57.292-1.178.412a2.634 2.634 0 0 0-.33-.876c.652-.131 1.158-.282 1.508-.451zm48.638.062h.226c.84 0 1.852.153 1.852 1.222 0 1.087-.94 1.25-1.807 1.25h-.27zm-56.748.205c.445.24 1.096.433 1.87.548a2.638 2.638 0 0 0-.19.95 7.343 7.343 0 0 1-1.665-.505l-.002-.003a.102.102 0 0 1-.034 0v.003c-.441.197-1.012.366-1.66.49a2.63 2.63 0 0 0-.19-.935c.774-.116 1.426-.307 1.87-.548zm-4.08.444c.122-.009.167.056.22.134.038.055.085.125.172.135a.41.41 0 0 0 .205-.049c.09-.037.153-.06.204-.035.055.027.109.16.147.256.043.105.08.196.14.247a.412.412 0 0 1 .06.063c.047.057.1.12.255.182.042.016.071.05.09.102a.553.553 0 0 1-.052.403c-.07.116-.052.251-.036.38.021.167.042.325-.098.469-.149.151-.433.08-.58.036l.1-.111c.054-.07.528-.681.375-1.103-.06-.17-.197-.198-.296-.217-.059-.013-.114-.024-.161-.059-.036-.026-.05-.062-.073-.123-.031-.086-.074-.205-.232-.266a.385.385 0 0 0-.157-.018.784.784 0 0 1-.3-.045c-.301-.103-.573.108-.686.248a.295.295 0 0 0-.068.136c-.01.035-.023.09-.112.237-.123.205-.3.327-.364.365l-.065-.04c-.09-.057-.257-.16-.254-.21.002-.034.025-.053.107-.102a.487.487 0 0 0 .216-.206c.019-.04.035-.096.053-.16.032-.118.073-.264.151-.333.042-.035.218-.047.333-.054.144-.01.268-.017.348-.057.06-.03.109-.07.151-.103.068-.056.122-.098.208-.102zm8.805.005c.032-.001.065 0 .101.001.124.007.253.09.363.232.18.231.274.563.228.808l-.013.069c-.077.388-.257 1.3.538 1.566a.59.59 0 0 0 .18.026.88.88 0 0 0 .192-.023c.04.042.312.346.448.777-.113-.032-.397-.237-.397-.237a1.577 1.577 0 0 0-.765-.254c-.16-.004-.375.066-.495.108 0-.014.003-.031.001-.043a2.225 2.225 0 0 0-.049-.283.31.31 0 0 0-.022-.086 2.272 2.272 0 0 0-.009-.033l-.002.001a.606.606 0 0 1-.015-.334c.082-.31.05-.862.022-1.165-.017-.188-.15-.663-.434-.84a1.151 1.151 0 0 0-.317-.129.652.652 0 0 1 .445-.161zm-1.245.017c.135-.001.23.05.302.114a.757.757 0 0 0-.374.14.929.929 0 0 0-.368.586c-.02.099-.082.729-.068.918.016.243.108.479.156.58l-.002.002a.6.6 0 0 1 .073.243c.02.157.028.497.026.652-.104.03-.317.085-.516.088a2.388 2.388 0 0 1-.194-.003c-.025-.002-.047-.003-.074-.008a4.202 4.202 0 0 1-.403-.097c-.032-.113-.055-.284.013-.316.048-.02.122-.006.201.01.158.03.372.072.53-.159.116-.167.006-.349-.1-.525-.08-.134-.165-.274-.16-.409a.656.656 0 0 1 .13-.345c.069-.11.14-.224.126-.392-.021-.256.052-.863.412-1.011a.778.778 0 0 1 .29-.068zm72.15.143 1.21 2.762h-2.42l1.21-2.762zm-71.65.16c.179.007.369.055.51.143.133.081.229.27.285.442a1.314 1.314 0 0 0-.67.087l.09.181c.046-.023.36-.13.619-.054 0 0 .015.013.017.029.02.232.06.805-.017 1.094a.732.732 0 0 0-.022.183c-.147-.01-.262-.076-.38-.149-.132-.08-.269-.164-.441-.144a.674.674 0 0 0-.33.152c-.093.067-.166.115-.285.11-.005-.018-.01-.038-.016-.052a.082.082 0 0 0-.001-.004.196.196 0 0 0-.005-.011.199.199 0 0 0-.013-.035 1.563 1.563 0 0 1-.148-.53 5.736 5.736 0 0 1 .038-.641l.001.002c0-.001.057-.034.203-.034.119 0 .248-.005.303.069a.255.255 0 0 1 .033.172c-.054.274-.132.55-.17.62l.217.007c.016-.057.144-.564.146-.568.044-.147.013-.28-.031-.34-.107-.142-.341-.163-.498-.163a.852.852 0 0 0-.178.017l.001-.005a.73.73 0 0 1 .296-.47c.1-.08.267-.114.446-.108zm10.758.047-1.916.803.09.213.839-.351.064.154.013.031c.004.01.01.02.013.031a1.1 1.1 0 0 0 .117.194.479.479 0 0 0 .175.147.504.504 0 0 0 .23.059.65.65 0 0 0 .237-.04l.01-.005.01-.003a.627.627 0 0 0 .222-.158.508.508 0 0 0 .123-.241.536.536 0 0 0 0-.227 1.464 1.464 0 0 0-.067-.22.765.765 0 0 0-.015-.035.715.715 0 0 1-.012-.037zm-22.845.075c.218.113.553.244 1.146.361a2.682 2.682 0 0 0-.016.281c0 .593.192 1.152.553 1.618-.323.217-.787.573-1.153 1.111-.239.32-.266 1.574-.266 1.586-.008.418.121 1.044.192 1.285.08.275.048.54.022.753-.01.085-.02.163-.022.23-.003.107-.05.315-.095.515-.052.231-.1.45-.097.57.007.274.136.519.244.68v3.995l-.226.082.226.989v5.604h-.508v-19.66Zm16.217.007v5.236c-.02-.033-.037-.066-.058-.1l-.029-.048a1.157 1.157 0 0 0-.12-.148c-.232-.261-.775-.873-.874-1.67-.068-.55-.389-.973-.523-1.128a2.624 2.624 0 0 0 .458-1.763c.561-.11.895-.243 1.146-.379zm.202.064c.235.192.483.46.727.792-.251.414-.528.882-.727 1.443zm-12.564.037c.029.001.06.006.09.017.176.061.292.057.37.056.037 0 .063-.001.08.005.068.026.085.065.114.145a.42.42 0 0 0 .143.22c.084.06.17.077.241.091.094.02.125.027.147.088.096.27-.216.748-.342.906-.169.196-.462.488-.586.525a.616.616 0 0 1-.454-.055 9.13 9.13 0 0 1-.439-.337l.007-.023c.06-.373-.066-.499-.227-.658l-.045-.04c.1-.071.25-.2.363-.388a.99.99 0 0 0 .135-.293c.006-.027.008-.032.029-.058.002-.002.168-.206.374-.2zm-10.472.079-.45 1.156.2.078.183-.467 1.735.676.084-.216-1.735-.676.184-.472zm6.408.029v2.137c-.196-.527-.458-.973-.698-1.368.234-.32.472-.58.698-.77zm22.946.004.032.08.003.004.001.004c.051.123.082.244.09.361.008.118-.066.208-.22.273-.138.058-.248.053-.331-.014a.674.674 0 0 1-.197-.279l-.06-.143.682-.286zm-14.631.093a7.58 7.58 0 0 0 1.685.5c.024.57.164 1.08.4 1.451a.335.335 0 0 0-.117.027c-.22.1-.167.4-.127.542-.186.142-.739.601-.782 1.069-.099 1.047-.639 1.745-.91 1.969-.232.19-.42.637-.387.919.015.135.057.265.115.388l-.02-.015a.955.955 0 0 0-.12.264 1.117 1.117 0 0 0-.23-.244l-.555-2.361-.231.056a31.657 31.657 0 0 1-.788-1.048.679.679 0 0 1-.071-.26c-.02-.136-.04-.277-.154-.364-.094-.07-.257-.361-.34-.534a2.65 2.65 0 0 0 .945-1.873 8.161 8.161 0 0 0 1.687-.486zm-4.346.397c-.028-.002-.05.006-.05.006s-.063.024-.079.05c-.016.03.006.073.027.1.023.027.064.042.116.054.053.013.102-.033.113-.055.01-.023-.014-.077-.025-.098-.01-.02-.033-.038-.072-.052a.11.11 0 0 0-.03-.005zm.643.034a.364.364 0 0 0-.338.2c-.05.093-.154.225-.185.288-.02.038-.035.087-.001.114l.072.03c.004 0 .04.018.044.018.033-.01.045-.04.062-.073.001-.002.093-.156.16-.277.04-.07.095-.142.218-.108.04.01.11.035.165.056a.084.084 0 0 1 .01-.02.179.179 0 0 0 .022-.033l.01-.018a.696.696 0 0 0 .017-.054.098.098 0 0 1-.016-.036.088.088 0 0 1-.035-.03 1.047 1.047 0 0 1-.066-.025.411.411 0 0 0-.14-.032zm7.192.037a.22.22 0 0 0-.065.002c-.051.006-.088.044-.088.044s-.057.062-.059.101c-.001.04.046.077.086.094.04.018.093.01.158-.005s.094-.094.094-.124c-.002-.03-.058-.077-.082-.095a.1.1 0 0 0-.044-.017zm.958.008a.164.164 0 0 0-.06.015s-.076.037-.091.074c-.016.037.016.088.048.118.03.03.083.042.15.05.066.008.121-.055.13-.084.01-.03-.028-.093-.043-.117-.016-.024-.046-.042-.097-.053a.135.135 0 0 0-.037-.003zm4.743.29c.237.354.463.768.659 1.234a4.303 4.303 0 0 0-.719 1.264 4.81 4.81 0 0 0-.613-1.137c.177-.523.425-.952.673-1.361zm-12.784.067a.132.132 0 0 0-.049.012s-.061.03-.073.06c-.012.03.013.07.039.095.024.024.067.034.12.04.054.006.098-.044.106-.068.008-.024-.023-.075-.035-.094-.013-.019-.037-.034-.078-.043a.105.105 0 0 0-.03-.002zm-5.57.054c.249.41.496.839.673 1.362-.277.392-.509.793-.631 1.141a4.242 4.242 0 0 0-.7-1.269 7.35 7.35 0 0 1 .658-1.234zm4.77.296c-.032-.001-.058.023-.058.023s-.022.032-.022.077c0 .044-.001.126.193.172.073.018.115 0 .14-.06.05-.13-.125-.13-.22-.2a.06.06 0 0 0-.034-.012zm8.428.391c.088.004.172.055.274.118.13.08.291.176.505.182.01.039.021.077.036.114h.002c.018.069.045.187.057.306.013.127-.061.404-.134.673l-.074.281c-.084.337-.335.617-.54.72-.176.087-.501.107-.79.048-.156-.032-.175-.149-.184-.299a.955.955 0 0 0-.005-.055c-.007-.056.058-.23.097-.333l.039-.107c.057-.163.102-.57.107-.644a6.446 6.446 0 0 0-.023-.737.632.632 0 0 0 .358-.15.492.492 0 0 1 .237-.115.235.235 0 0 1 .038-.002zm-9.008.071c.136.108.346.273.418.32a.81.81 0 0 0 .408.105.802.802 0 0 0 .212-.028.491.491 0 0 0 .124-.063l.707.385a.764.764 0 0 0-.304.21l-.046.057c-.154.188-.327.402-.6.425-.146.01-.236-.053-.357-.136a1.114 1.114 0 0 0-.498-.224 3.223 3.223 0 0 0-.424-.036c-.15-.006-.241-.009-.358-.068-.2-.1-.389-.391-.39-.391l-.082-.184.054-.036c.382-.217.854-.142 1.136-.336zm20.185.163a.551.551 0 0 0-.169.019c-.144.038-.24.109-.291.215a1.3 1.3 0 0 0-.107.355l-.024.137-.002.01a1.347 1.347 0 0 1-.08.292c-.034.086-.108.144-.222.173a.372.372 0 0 1-.314-.052.437.437 0 0 1-.186-.26.381.381 0 0 1 .04-.3.467.467 0 0 1 .232-.2l-.12-.203a.64.64 0 0 0-.355.762.644.644 0 0 0 .783.472c.16-.042.267-.12.322-.236.056-.116.096-.248.12-.395l.021-.148.007-.044.01-.048a.745.745 0 0 1 .066-.187c.031-.06.08-.1.15-.118a.296.296 0 0 1 .252.042.358.358 0 0 1 .147.211.361.361 0 0 1-.003.224.516.516 0 0 1-.123.179l.16.148a.606.606 0 0 0 .173-.274.6.6 0 0 0 .002-.325.62.62 0 0 0-.24-.358.458.458 0 0 0-.25-.09zM4.1 13.31l-2.336.385 1.884 1.452.06-.246-.512-.384.212-.862.631-.097zm6.998.116.075.167c.009.014.224.348.476.475.156.08.283.084.442.09.108.003.231.007.4.034.183.029.3.11.414.189.123.086.25.174.438.174a.503.503 0 0 0 .05-.003c.36-.029.57-.29.74-.499l.046-.055c.141-.17.426-.205.429-.206l.026-.004.005-.003c.063.128.23.443.37.556-.077.056-.746.516-2.165.516h-.035c-1.727-.009-2.426-.618-2.528-.717.283-.323.586-.556.817-.714zm14.648.088c.414.577.714 1.231.714 1.638h.002v5.244l-.07-.097c-.195-.27-.438-.604-.44-1.07 0-.048.034-.147.073-.261.078-.228.196-.576.2-.995.002-.32-.16-.788-.48-1.386zm1.628.022c.33.865.57 1.884.562 3l.005 5.42h-1.277v-6.803c0-.412.304-1.083.71-1.617zm-19.858.12c.406.535.666 1.152.681 1.554a.996.996 0 0 0 .001.07v6.675H6.964l.005-5.37c0-1.11.193-2.051.547-2.928zm1.601.02v8.279h-.716v-6.677l.006-.06c.024-.384.31-.977.71-1.542zm-5.94.016-.168.682-.722-.544.89-.138zm19.856.014c.211 0 .422.089.583.177.238.178.452.318.63.324.005.027.013.051.016.078.004.029.012.056.016.084a1.158 1.158 0 0 0-.395-.015c-.399.045-.958.342-1.122.604-.312.497-1.021.672-1.021.672-.187.058-.989.34-1.057.384-.2.13-.672.69-.822.871l-.076-.017c-.372-.1-1.85.787-2.34 1.09a1 1 0 0 1-.05-.208c-.026-.214.136-.594.314-.74.035-.03.852-.715.982-2.106.038-.397.57-.826.72-.938a4.536 4.536 0 0 0 .425.102.98.98 0 0 0 .163.017v-.005l.107.002h.04a2.22 2.22 0 0 0 .495-.077c-.018.15-.049.357-.08.448l-.038.102c-.071.189-.12.33-.108.427l.003.044c.008.125.026.417.344.482.11.023.246.038.385.038.187 0 .382-.027.534-.104.238-.118.542-.436.645-.849.023-.092.049-.186.073-.278.05-.184.122-.483.122-.483.09-.035.31-.127.512-.126zm-12.882.59c.163.155.903.753 2.657.763h.036c.084 0 .164-.002.244-.005.085.244.29.91.254 1.154a.496.496 0 0 1-.075.203c-.074.125-.117.233-.04.558a6.522 6.522 0 0 0 .13.46c.057.18.094.3.094.459 0 .101-.044.22-.092.347-.074.199-.158.423-.094.65.04.138.082.246.119.342.056.14.104.262.131.451a.476.476 0 0 1-.026.29.848.848 0 0 0-.06.331c0 .254.218.541.393.773.053.07.105.137.138.19.013.013.385.856.465 1.031l-.002.002.008.014.006.011c-.106.245-.36.822-.522 1.127a4.939 4.939 0 0 0-.458 1.29c-.216-.188-.632-.56-.799-.779a1.268 1.268 0 0 1-.215-.444c-.039-.12-.088-.273-.187-.477a2.295 2.295 0 0 0-.608-.742.225.225 0 0 0-.033-.084l.076-.146c.043-.084.47-.778.292-1.6-.037-.172-.052-.313-.073-.43-.068-.388-.093-.534-.045-.86.056-.383-.077-.595-.204-.8-.034-.055-.069-.11-.1-.17-.13-.251-.267-.583-.17-.919.083-.284.25-.994.015-1.43-.166-.31-.425-.708-.71-.844-.229-.108-.726-.148-.8-.155.033-.177.075-.32.124-.386.042-.062.087-.118.131-.175zm4.935.237.008.048c.012.09.028.187.068.278-.11.071-.433.312-.937.93-.402.494-.439.78-.468 1.008-.017.129-.03.231-.105.354a2.781 2.781 0 0 0-.108.196 6.028 6.028 0 0 1-.12-.425c-.065-.27-.032-.326.017-.41a.66.66 0 0 0 .1-.275c.046-.298-.17-.976-.245-1.195 1.054-.076 1.621-.396 1.79-.51zm8.978.013c.138.002.22.032.258.05.184.703.649 1.227.862 1.468.042.047.088.099.097.115l.03.05c.592.988.713 1.493.711 1.743a2.43 2.43 0 0 1-.108.676c-.293-.147-.69-.367-.765-.465-.03-.04.015-.21.045-.32.058-.217.119-.441-.005-.588-.204-.243-.41-.305-.587-.312a1.114 1.114 0 0 0 .148-.552 1.12 1.12 0 0 0-1.12-1.119 1.12 1.12 0 0 0-1.118 1.12c0 .359.178.697.467.906a.812.812 0 0 0-.118.276c-.03.215-.082.577-.234.71-.058.051-.125.093-.19.134-.028.018-.097.045-.113.072-.016.029.004.05.02.063l.006.006a.338.338 0 0 0 .077.05c.232.13.763.272 1.226.292a6.744 6.744 0 0 1-.18.644 7.482 7.482 0 0 1-1.008 1.958 4.54 4.54 0 0 1-.804.863l-.094.081c-.288.254-.484.446-.84.822-.15.159-.265.353-.376.54-.15.254-.293.493-.505.62-.675.403-.865.968-.917 1.222a6.38 6.38 0 0 1-.456-.527c-.184-.25-.18-.986-.08-1.584.05-.294.084-.614.118-.97.344-.178.56-.78.71-1.3.104-.351.406-.793.581-.907.219-.141.74-.743 1.042-1.165.27-.375.462-.986.518-1.173.295.016.642-.032.91-.288.188-.178.26-.334.22-.475-.05-.174-.26-.294-.664-.376a2.992 2.992 0 0 1-.249-.063l.149-.059c.209-.092.296-.104.423-.098l.01-.203c-.178-.008-.295.02-.51.115-.254.097-.44.184-.465.195a.854.854 0 0 0-.11.04c-.161.07-.442.187-.99.098.213-.253.567-.655.707-.747.153-.1.695-.264 1.019-.364.117-.036.217-.066.28-.088.27-.09.677-.413.838-.664.123-.19.618-.473.976-.513a1.202 1.202 0 0 1 .158-.009zm-8.794.484c.165.23.504.672.668.884l-1.414.345.841 3.404.594-.15c.048.049.1.096.155.14-.127.103-.654.54-.84.789-.22.296-.348.644-.434.993a2.554 2.554 0 0 1-.297.676c-.15-.329-.493-1.073-.56-1.162-.149-.196-.352-.464-.352-.65 0-.131.023-.194.047-.26a.67.67 0 0 0 .037-.391c-.03-.21-.085-.35-.143-.495a3.284 3.284 0 0 1-.113-.323c-.046-.163.023-.347.09-.524.051-.138.104-.28.104-.418a1.1 1.1 0 0 0-.02-.208h.001c0-.001 0-.11.191-.424.097-.16.115-.3.132-.433.027-.214.058-.457.425-.907.486-.597.795-.824.888-.886zm-5.398.029c.147.01.564.053.737.135.181.087.407.363.62.757.204.381.027 1.075-.032 1.28-.117.407.05.804.185 1.066.033.066.07.125.107.184.119.19.222.354.176.663-.053.36-.024.526.046.924.021.118.045.256.073.427.113.716-.11 1.157-.273 1.478l-.008.017c-.022-.23-.107-.443-.274-.546-.252-.116-.484-.109-.647.01-.056-.182-.012-.374.03-.56.054-.233.11-.474-.06-.657a.933.933 0 0 0-.184-.14c-.067-.043-.425-.265-.489-.456a.942.942 0 0 1-.088-.353c-.002-.096.049-.322.093-.522.05-.22.096-.426.1-.552.001-.063.01-.133.02-.211.029-.232.064-.52-.028-.835-.065-.225-.191-.833-.184-1.224.006-.287.08-.885.08-.885zm-6.275.284-2.222.255 1.683.887-1.797.622 2.158.585.018-.236-1.381-.372v-.006l1.537-.552-1.436-.78v-.006l1.422-.16zm20.034.152c.505 0 .916.412.916.916a.916.916 0 0 1-.2.57.445.445 0 0 1-.142.005c-.022-.007-.06-.021-.071-.043-.021-.043.022-.153.06-.25.079-.198.186-.473-.028-.694-.173-.179-.552-.08-.748.006-.18.08-.51.283-.483.488.016.117.137.157.234.188a.62.62 0 0 1 .117.044c.02.095-.012.223-.066.276a1.513 1.513 0 0 0-.127.15.92.92 0 0 1-.379-.74c0-.505.41-.916.917-.916zm-7.397.555.471 2.009a.447.447 0 0 0-.358.095c-.065.05-.177.168-.293.296l-.546-2.223zm7.65.051c.063.001.113.013.137.038.115.119.07.268-.015.48-.058.15-.114.29-.054.413.034.07.1.12.195.148.073.02.156.01.243 0 .193-.027.41-.055.644.225.056.066.005.255-.035.405-.052.193-.101.376-.01.496a.478.478 0 0 0 .053.054 2.895 2.895 0 0 1-.182.09c-.152-.183-.172-.253-.327-.325-.033-.016-.035-.077-.034-.155 0-.077.002-.183-.095-.216-.098-.035-.26-.005-.488.323-.073.105-.22.112-.366.115l.031-.075c.048-.112.093-.217.018-.286-.074-.07-.176-.014-.22.008-.1.052-.24.091-.377.12a4.24 4.24 0 0 0 .059-.337c.017-.122.223-.402.298-.476.105-.099.158-.298.124-.46-.024-.124-.15-.164-.252-.197-.034-.012-.09-.03-.095-.02.005-.044.148-.184.363-.278a.994.994 0 0 1 .385-.09zm-8.573.173.58 2.36a17.36 17.36 0 0 0-.266.316l-.045.053.035.061c.008.013.08.135.193.277l-.295.075-.744-3.01zm8.407.038c-.025.001-.044.011-.044.011s-.054.027-.065.053c-.01.027.012.064.035.086.021.021.06.03.108.035.048.005.087-.04.094-.06.007-.022-.02-.068-.031-.084-.012-.017-.033-.03-.07-.039a.096.096 0 0 0-.027-.002zm4.436.362h1.18v2.655h-1.177zm-21.398.125-.003 2.53H5.564v-2.528l1.192-.002zm14.535.183c.048 0 .095.014.177.039.078.024.178.053.32.082.424.088.497.193.51.235.016.06-.042.157-.165.274-.37.351-.938.223-1.211.161-.608-.137-1.112.136-1.502.346l-.14.073c-.296.149-.766.387-1.085.707-.157-.124-.48-.408-.667-.754.805-.5 1.976-1.135 2.206-1.08.822.213 1.226.037 1.42-.046.037-.015.071-.03.089-.033a.24.24 0 0 1 .048-.004zm-.705.956c.094 0 .191.01.291.032.072.016.169.039.28.055-.065.21-.244.75-.477 1.075-.313.438-.812 1-.988 1.114-.232.151-.554.647-.664 1.02-.065.224-.242.827-.49 1.085.024-.255.05-.527.082-.815.06-.541-.073-.783-.24-1.089a3.48 3.48 0 0 1-.293-.652c-.204-.639.838-1.165 1.283-1.391.058-.028.107-.054.167-.086.292-.158.642-.348 1.05-.348zm3.711.022v.008c-.001.1-.003.269.151.34.079.038.133.109.235.219-.247.098-.57.194-.901.196a3.312 3.312 0 0 1-1.112-.198.697.697 0 0 0 .269-.348c.145-.026.311-.064.448-.12-.045.105-.082.203-.032.277a.138.138 0 0 0 .12.061h.004l.048-.001c.177-.003.419-.006.555-.202a.825.825 0 0 1 .215-.232zm-7.67.292a.22.22 0 0 1 .053.006c.188.043.36.31.42.424a1.912 1.912 0 0 0-.03.648c-.102.101-.318.291-.465.308-.299.033-.633-.388-.778-.615.173-.208.524-.616.644-.709a.257.257 0 0 1 .156-.062zm.782.09c.204.327.496.584.653.71-.172.224-.26.482-.167.772.098.307.21.51.307.688.163.296.27.492.217.97a48.2 48.2 0 0 0-.085.841c-.043.457-.08.85-.14 1.204-.08.478-.145 1.382.117 1.738.178.241.467.543.579.656-.201.347-.329.777-.444 1.324-.12.57-.09.97.09 1.224.185.258.475.292.648.314.18.022.379-.012.59-.051.041.13.116.384.116.558 0 .059.003.112.006.161.01.17.018.271-.123.431l-.074.086-.07.08h-3.027c-.038.02-.265-.002-.293-.002-.021 0-.195-.014-.267-.01a.159.159 0 0 1-.022.01v.001h-.644a39.9 39.9 0 0 0-.014-.212 5.17 5.17 0 0 0 1.112-.246c.175-.074.286-.182.331-.323.083-.26-.09-.542-.193-.71-.023-.038-.042-.067-.05-.085l-.005.001a.149.149 0 0 0-.004-.007 3.189 3.189 0 0 1-.164-.334c-.104-.275-.098-1.222.056-1.893.09-.389.25-.594.42-.813a2.28 2.28 0 0 0 .33-.512c.145-.329.094-.723.007-1.244l-.026-.15c-.074-.428-.127-.735-.026-1.066.01-.033.029-.068.05-.11.113-.217.301-.58.095-1.418-.069-.276-.03-.486.01-.708.045-.25.092-.51-.021-.854-.084-.253.025-.798.125-1.02zm7.81.15c.207.134.486.277.634.35l-.02.06c-.048.142-.083.245-.083.328.002.53.266.894.479 1.187.125.173.233.322.233.443a.268.268 0 0 1-.085.2c-.145.142-.445.184-.629.19v-.04c-.025-.527-.183-1.356-1.088-2.458.291-.106.503-.227.56-.26zm-21.733.267-2.012 1.25 2.296.622-.038-.25-.62-.16-.134-.878.546-.33zm20.968.062c1.06 1.262 1.075 2.15 1.081 2.63l.006 6.796-.003-.001a.256.256 0 0 1-.041.04.295.295 0 0 1-.097.076c-.148.11-.368.155-.523.17-.142.02-.313-.122-.402-.213.21-.315.15-.721.147-.736-.007-.052-.169-1.28-.293-1.86-.104-.487-.021-1.307.233-2.312a6.467 6.467 0 0 0 .11-.545 13.73 13.73 0 0 0 .15-2.418c-.027-.554-.328-1.313-.452-1.605l.084-.022zm-.285.066c.106.248.424 1.03.45 1.57a13.452 13.452 0 0 1-.158 2.447c-1.164-.275-1.794.308-2.461.925-.46.426-.936.866-1.628 1.066-.546.157-.922.364-1.197.647.088-.253.294-.632.775-.92.256-.152.418-.426.575-.69.105-.178.214-.361.349-.504.35-.37.544-.56.827-.808l.093-.082c.254-.22.494-.43.834-.895a7.731 7.731 0 0 0 1.037-2.016c.112-.348.167-.568.194-.706a2.318 2.318 0 0 0 .31-.034zm48.104.195c-1.96 0-3.532 1.611-3.532 3.577 0 1.892 1.536 3.54 3.442 3.54 1.906 0 3.224-1.44 3.224-3.314v-.272h-2.7v.779h1.76c-.035 1.114-1.173 2.028-2.23 2.028-1.472 0-2.647-1.358-2.647-2.788 0-1.53 1.193-2.772 2.719-2.772.831 0 1.653.444 2.14 1.115l.597-.571a3.568 3.568 0 0 0-2.773-1.322zm-27.274.144v6.828h2.916v-.778h-2.068v-6.05h-.848zm3.764 0v6.828h3.66v-.778h-2.808v-2.58h2.724v-.78h-2.724v-1.91h2.808v-.78h-3.66Zm5.31 0v6.828h.85v-6.828h-.85zm2.735 0v6.828h.849v-2.861h.488c1.292 0 2.385-.553 2.385-1.993 0-1.25-.65-1.974-2.746-1.974h-.976zm9.89 0v6.828h.849v-6.828h-.85zm-5.51.077v.78h2.962L60.7 26.13h4.835v-.779H62.08l3.454-6.05h-4.348Zm-58.409.163.105.694-.876-.227zm27.7.062a65.167 65.167 0 0 0-1.415 1.09c-.134.12-.265.27-.268.63a.613.613 0 0 0 .186.446c.137.137.34.227.517.227.22 0 .593-.146.606-.54a.518.518 0 0 0-.151-.383.404.404 0 0 0-.31-.11c-.244.01-.349.232-.346.38l.202-.005c0-.027.026-.167.153-.174.066 0 .121.015.158.052a.324.324 0 0 1 .093.233c-.01.283-.301.344-.405.344a.568.568 0 0 1-.373-.166.422.422 0 0 1-.128-.302c.002-.303.108-.398.201-.482a113.41 113.41 0 0 1 1.642-1.237h.09a13.61 13.61 0 0 1-5.182 8.831v-2.584c.045.067.098.133.16.194.21.208.476.319.77.319h.011a.935.935 0 0 0 .968-.865 1.126 1.126 0 0 0-.045-.34s-.068-.163-.07-.164c-.208-.356-.136-1.052.128-1.24a.446.446 0 0 1 .354-.085c.087.02.154.077.2.167a.266.266 0 0 1-.004.263c-.045.073-.124.125-.215.112l-.003.202h.006c.16 0 .303-.077.384-.208a.465.465 0 0 0 .012-.46.5.5 0 0 0-.332-.273.636.636 0 0 0-.519.117c-.284.202-.382.711-.312 1.129a.937.937 0 0 0-.404-.085.582.582 0 0 0-.525.283.533.533 0 0 0-.007.526.47.47 0 0 0 .427.226h.007l-.002-.202c-.127.002-.208-.043-.257-.126a.33.33 0 0 1 .007-.323c.04-.068.136-.182.35-.182.199 0 .352.053.454.158.148.15.166.378.164.501 0 .007-.057.66-.768.666h-.008a.883.883 0 0 1-.63-.259.922.922 0 0 1-.302-.7v-.221l1.769-1.936h1.197v-.202h-1.286l-1.68 1.838v-2.45h2.966v-.203h-.554l-.002-2.423zm-26.318.004h.048c.013.011 1.36 1.137 1.47 1.236.093.084.198.18.2.482a.42.42 0 0 1-.127.302.53.53 0 0 1-.374.145c-.103 0-.391-.04-.4-.323a.321.321 0 0 1 .088-.233c.038-.037.091-.052.159-.051.127.006.162.146.162.174l.202.004c.002-.148-.111-.37-.356-.38a.408.408 0 0 0-.309.11.517.517 0 0 0-.148.384c.013.393.383.517.602.517a.75.75 0 0 0 .518-.205.615.615 0 0 0 .186-.446c-.003-.36-.134-.51-.268-.63-.086-.078-.879-.756-1.266-1.086h2.206l-.003 2.423h-.599v.203h2.966v2.45l-1.68-1.838H6.152v.202h1.196l1.77 1.936v.16a.954.954 0 0 1-.291.761.88.88 0 0 1-.63.26H8.19c-.71-.006-.768-.66-.768-.665-.002-.124.016-.354.164-.503.102-.105.255-.158.454-.158.214 0 .31.114.35.182a.33.33 0 0 1 .008.323c-.05.084-.149.127-.258.126l-.002.203c.197.001.347-.079.434-.226a.534.534 0 0 0-.007-.526.582.582 0 0 0-.525-.284.933.933 0 0 0-.404.085c.07-.418-.028-.926-.313-1.128a.635.635 0 0 0-.518-.117.502.502 0 0 0-.333.27.47.47 0 0 0 .013.462c.081.13.224.208.384.208h.005l-.002-.202c-.086-.009-.17-.04-.215-.112a.267.267 0 0 1-.005-.263.301.301 0 0 1 .2-.167.449.449 0 0 1 .355.086c.264.187.335.883.127 1.24a1.08 1.08 0 0 0-.114.504c0 .181.178.857.968.864h.01c.295 0 .561-.11.771-.318a1.235 1.235 0 0 0 .15-.18v2.387c-2.75-2.195-4.493-5.223-4.957-8.648Zm12.965.023c.05.234.016.426-.02.626-.043.233-.086.475-.008.793.03.123.05.23.063.332-.135.067-.533.309-.68.926-.086.365-.12.619-.146.803a1.7 1.7 0 0 1-.074.37c-.074.189-.827 1.143-1.231 1.544a1.91 1.91 0 0 1-.049-.172c-.035-.16.084-.33.208-.512.127-.183.258-.373.271-.595a.595.595 0 0 0-.078-.36c-.063-.122-.15-.29-.128-.962.03-.98.203-1.703.242-1.856.217-.245.688-.633.798-.723a.62.62 0 0 0 .334.07c.177-.02.373-.171.498-.284zm40.53.432h.227c.84 0 1.851.127 1.851 1.196 0 1.086-.939 1.249-1.805 1.249h-.272zm-47.61.117c.067.07.145.12.213.164a.8.8 0 0 1 .144.106c.093.101.066.246.013.475-.053.232-.114.495.009.76.018.037.026.07.03.1a.893.893 0 0 1-.142.288c-.074.112-.15.226-.167.376-.033.285.061.535.064.542l.105.302.156.046c.018-.013.06-.048.117-.094l.07.5-.617.224V20.11l.005-.006zm5.158.866a8.447 8.447 0 0 0-.152 1.372c-.023.723.077.918.15 1.06.04.077.063.124.056.256-.01.166-.124.332-.235.492-.144.21-.293.425-.24.67.025.11.072.247.127.406.135.39.32.922.22 1.292-.145.53-.287 1.268-.148 1.78.097.36.163 1.3.187 1.685a.683.683 0 0 0-.49-.127.756.756 0 0 0-.362.12.133.133 0 0 0-.087.087c-.335.324-.385.305-.566.234l-.024-.01c-.148-.057-.125-.34-.125-.34.002-.011.176-1.088.25-1.92.059-.646.005-1.014-.076-1.568a29.503 29.503 0 0 1-.086-.615c-.134-1.063.384-2.105.489-2.303.179-.337.456-.974.548-1.187h.002a.1.1 0 0 1 .002-.008l.027-.063h-.001c.149-.22.257-.512.344-.796a4.37 4.37 0 0 1 .19-.517zm-11.342.123-1.937 1.118 1.896.144-1.4 1.285 2.214-.322-.078-.224-1.415.21-.002-.006 1.189-1.119-1.628-.144-.002-.005 1.24-.713-.078-.224zm22.6.155v.707h-.714v-.502c.17-.007.5-.044.714-.205zm-9.282.278c.014.382-.088.588-.159.724a.963.963 0 0 0-.065.143c-.114.377-.054.723.02 1.16l.026.15c.084.5.13.85.007 1.13-.082.186-.19.323-.302.468-.177.226-.36.46-.459.892-.154.67-.178 1.665-.049 2.009a3.343 3.343 0 0 0 .185.375h.009c.012.024.028.05.049.084.085.139.228.371.173.545-.027.083-.098.148-.219.2a4.95 4.95 0 0 1-1.048.229c-.033-.455-.091-1.093-.171-1.39-.134-.492.035-1.26.147-1.674.117-.43-.079-.996-.222-1.41.386-.358 1.251-1.436 1.347-1.683a1.78 1.78 0 0 0 .086-.416c.025-.18.059-.427.143-.784.106-.45.362-.664.502-.752zm-6.265.04a.66.66 0 0 1 .218.057c.126.078.19.314.172.556.003.005.008.007.01.012.006.012.013.02.018.03a5.887 5.887 0 0 1-.577.55l-.046-.327-.218.03.065.463-.1.08-.059-.17a1.074 1.074 0 0 1-.054-.452c.012-.101.069-.188.135-.287.081-.121.172-.259.19-.448h-.008a.3.3 0 0 1 .254-.094zm.525.837.025.041c-.005.129-.016.28-.028.45a25.257 25.257 0 0 0-.035.506l-.532.193-.082-.588c.211-.177.478-.41.652-.602zm.246.195c.128.126.283.307.39.527.093.191.138.33.177.45.053.167.1.312.246.504.209.276.757.75.92.889a3.39 3.39 0 0 0-.014.9c.03.24.06.44.086.62.082.56.132.898.076 1.522-.045.5-.126 1.09-.184 1.48-.492-.056-.943-.283-1.12-.383a.679.679 0 0 1-.258-.29 3.804 3.804 0 0 1-.052-.814c.007-.176.015-.304.02-.412.012-.203.02-.349.02-.622 0-.19-.027-.275-.07-.406-.057-.179-.144-.45-.246-1.249-.126-.988-.065-1.806-.021-2.404l.017-.24c.003.01.007.015.01.024h-.003a.268.268 0 0 1 .009.017.702.702 0 0 0-.003-.113zm12.188.439c.168-.003.35.018.55.066a5.321 5.321 0 0 1-.058.258c-.185.731-.376 1.742-.235 2.404.123.573.289 1.832.29 1.847.002.004.058.37-.13.619-.097.13-.247.206-.445.231a1.54 1.54 0 0 1-.438-.014c-.14-.018-.283-.038-.506-.002a.537.537 0 0 0-.313.288.712.712 0 0 1-.17.219c-.01.007-.02.01-.03.017.042-.313.153-1.134.183-1.39a4.437 4.437 0 0 0-.492-2.62c-.168-.318-.003-.85.035-.962l.022-.02c.532-.492 1.006-.931 1.737-.941zm-12.482.6c-.02.488-.015 1.06.067 1.705.059.467.114.76.162.959l-.35.18-.37-2.666zm-6.539.06-.19.1.268.507-1.649.868.108.205 1.838-.969-.375-.711zm5.836.195.374 2.694-.583.297-.614-2.694zm11.153.354c-.047.242-.069.564.06.809.411.776.574 1.64.47 2.5-.033.275-.157 1.197-.191 1.447-.148-.024-.316-.117-.463-.196l-.056-.031a3.75 3.75 0 0 0-.405-.195c.05-.103.22-.459.27-.681.07-.305.182-1.468-.088-2.325-.14-.444.005-.922.043-1.031a6.13 6.13 0 0 0 .36-.297zm-.618.477c-.049.23-.083.573.023.912.26.825.14 1.97.084 2.22-.044.192-.198.518-.25.625a.123.123 0 0 0-.041.025 1.893 1.893 0 0 0-.514-.073c-.025 0-.05 0-.074.002-.24.01-.462.051-.658.089-.226.043-.42.078-.586.06-.19-.024-.385-.06-.507-.232-.145-.202-.164-.56-.058-1.065.267-1.264.575-1.848 1.784-2.197a3.01 3.01 0 0 0 .797-.366zm-15.695.255L4.3 27.004l2.328-.485-.147-.206-.626.138-.515-.722.337-.542zm-.31.95.408.572-.884.195zm4.821.018.94 4.115h-.94v-4.115zm1.64.572c.012.042.023.08.034.113.04.122.06.182.06.338 0 .268-.008.403-.02.609l-.021.416c-.024.534.066.936.104 1.108l.04.176-.197.156-.378-2.723zm-.585.299.38 2.745-.313.29-.621-2.743zm13.245 1.655c.091.091.266.236.464.258l.007 1.35h-1.527a.593.593 0 0 1-.054-.216c-.007-.217.265-.892.394-1.192.073.003.153.002.246-.01a.873.873 0 0 0 .47-.19zm1.2.04v2.131h-.496l-.01-1.929c.214-.037.385-.106.507-.202zm-2.384.115c.08.002.151.012.225.022l.033.005c-.118.276-.394.953-.385 1.218a.74.74 0 0 0 .042.209v.001c.02.05.138.293.18.366.076.13.163.276.242.462.04.094.041.171.006.238-.072.136-.29.206-.358.22-.196.017-.447.004-.507-.041-.048-.037-.037-.284-.032-.404.004-.094-.01-.79-.009-.842 0 0-.012-.302-.032-.44a1.835 1.835 0 0 0-.128-.464.433.433 0 0 0 .116-.07c.118-.099.172-.196.216-.273.053-.095.085-.153.188-.193a1.107 1.107 0 0 1 .203-.014zm-2.696.008a1.724 1.724 0 0 1 .434.045l-.084.116c-.335.47-.24.916-.18 1.036.009.017.02.04.036.065.066.118.178.316.156.496-.018.153-.351.275-.525.307-.155.028-.349.111-.59.255a69.69 69.69 0 0 0-.68.412 5.56 5.56 0 0 1-.05-.298c-.022-.161.165-.382.354-.485.146-.08.263-.194.39-.335h.011v-.013l.12-.136.073-.085c.195-.223.184-.395.173-.576a2.246 2.246 0 0 1-.006-.149c0-.19-.071-.446-.118-.594.154-.028.313-.053.486-.06zm.643.104c.185.063.339.146.463.214l.055.03c.178.096.398.216.605.227.042.088.105.248.135.46.017.116.034.284.037.413h-1.407c-.039-.1-.115-.224-.15-.285l-.03-.056h-.001c-.035-.071-.115-.437.164-.828a7.252 7.252 0 0 1 .129-.175zm-9.011.493a.739.739 0 0 0 .072.049c.116.065.343.181.623.276l-.073.24a.295.295 0 0 0-.058-.017c-.227-.04-.38.086-.402.095a.062.062 0 0 1-.018.014l-.144-.657zm-.163.285.12.544h-.802zm1.049.098a2.549 2.549 0 0 0 .375.073 35.05 35.05 0 0 1-.036.233.882.882 0 0 0 0 .126h-.407a2.5 2.5 0 0 1-.028-.114zm-.371.365c.038 0 .096.081.106.11.079.231.056.66.01.736-.047.068-.437.217-.599.13-.206-.11-.209-.206-.185-.286.05-.166.356-.629.579-.68a.408.408 0 0 1 .089-.01zm2.192.074c.213.016.355.17.454.277.04.043.073.078.106.1.045.027.111.055.183.086.236.098.412.187.373.352-.025.105-.428.09-.581.084-.054-.002-.103-.004-.144-.004-.098 0-.213-.142-.316-.266a1.106 1.106 0 0 0-.253-.254c-.057-.035-.125-.128-.201-.278.04-.033.121-.075.283-.095a.51.51 0 0 1 .096-.002zm8.564.182h1.449l.002.405h-.47v.8h-.865a.545.545 0 0 0 .197-.198.46.46 0 0 0 .002-.413c-.084-.198-.174-.35-.252-.484a12.766 12.766 0 0 1-.063-.11zm-13.322 0h.978l.002.006.007-.006h.925a1.61 1.61 0 0 0-.207.375c-.044.146-.03.355.284.523a.483.483 0 0 0 .228.049c.254 0 .56-.127.636-.25.075-.12.089-.433.057-.683h.407a.367.367 0 0 0 .21.225l.024.008a.642.642 0 0 0 .235.059c.122 0 .246-.064.444-.243.085.155.163.253.245.303.061.036.133.125.203.209.13.16.278.34.472.34.038 0 .085.002.135.004.066.002.138.006.21.006.26 0 .526-.036.576-.245.082-.345-.277-.495-.492-.585a1.119 1.119 0 0 1-.153-.072c-.002 0-.007-.007-.01-.01h3.981a.969.969 0 0 1-.204.158c-.248.137-.492.425-.457.69a5.7 5.7 0 0 0 .06.345h-8.194l.001-.797-.603-.002zm10.978.013h1.373v.1c0 .138.001.258.009.338.006.057.002.14-.002.228-.008.201-.017.41.069.527h-3.176a54.3 54.3 0 0 1 .517-.313c.219-.13.394-.207.524-.231.026-.005.646-.12.69-.482a.65.65 0 0 0-.004-.167zm-12.337.594 1.76.003-.002.596H8.684l-.002-.6zm15.864.003h1.757v.596h-1.757zm-8.084.798h2.17c-.134.124-.296.273-.327.308-.171.19-.176.401-.013.565a51.883 51.883 0 0 0 .395.387c-.162.018-.34.042-.53.073-.063 0-.067.001-.715.988-.569-1.012-.573-1.014-.651-1.016a10.828 10.828 0 0 0-.33-.042v-.353h.48l.002-.193h-.481v-.717zm4.89 0h1.281l-.706.752a.447.447 0 0 0-.158.203.432.432 0 0 0-.027.132 1.544 1.544 0 0 1 .203-.003.243.243 0 0 1 .013-.058.268.268 0 0 1 .206-.164.395.395 0 0 1 .32.082.414.414 0 0 1 .155.303.48.48 0 0 1-.146.35.69.69 0 0 1-.469.212c-.223 0-.556-.122-.879-.24a11.05 11.05 0 0 0-.26-.094l.563-.61c.024-.026.228-.253.219-.475a.303.303 0 0 0-.101-.217 2.26 2.26 0 0 0-.215-.173zm-12.554 0h2.786c-.251.265-.206.548-.08.726.049.068.587.667.803.908a16.56 16.56 0 0 1-3.509-1.634zm3.155 0h.199l.625.657a.584.584 0 0 0-.333.13.608.608 0 0 0-.23.441c-.26-.291-.519-.582-.546-.62-.061-.086-.135-.263.064-.47a.484.484 0 0 1 .221-.138zm.478 0h1.708l-.428.397.138.149.587-.546h.016v1.379l-.153.051-.075.026c-.102.034-.209.073-.316.112-.322.118-.655.241-.878.241a.69.69 0 0 1-.47-.213.477.477 0 0 1-.145-.349.415.415 0 0 1 .155-.303.398.398 0 0 1 .32-.082c.097.018.174.08.206.164a.21.21 0 0 1 .013.052c.068.005.135.006.204.011a.437.437 0 0 0-.028-.134.453.453 0 0 0-.157-.203l-.697-.752zm6.769 0h1.56l-.21.201c-.012.013-.125.137-.113.29.005.058.03.144.126.216l.255.2.128-.156s-.062-.05-.26-.203c-.04-.03-.046-.056-.047-.073-.005-.054.043-.118.055-.132l.332-.317c.09.055.261.165.403.295.018.017.073.067-.004.224a.928.928 0 0 1-.125.182l-.624.676a3.159 3.159 0 0 0-1.263-.193 5.878 5.878 0 0 0-.22.01c.145-.122.314-.264.36-.318.23-.264.142-.467.026-.59a2.96 2.96 0 0 0-.38-.312zm3.701 0h.201a.485.485 0 0 1 .22.139c.2.207.126.383.063.47a26.5 26.5 0 0 1-.546.62.61.61 0 0 0-.23-.442.584.584 0 0 0-.332-.13l.624-.657zm.568 0h2.736a16.55 16.55 0 0 1-3.436 1.609 35.2 35.2 0 0 0 .78-.883c.128-.178.173-.461-.08-.726zm-7.314 0h.105v.718h-.588zm-1.5 0h1.255l-.606.905.956.001v.34a10.311 10.311 0 0 0-.619-.035 3.075 3.075 0 0 0-.986.106v-1.316Zm4.24.034c.126.085.408.28.537.417.092.098.083.187-.03.318a8.763 8.763 0 0 1-.495.424c-.11-.108-.336-.327-.472-.463-.034-.034-.125-.125.02-.286.031-.034.265-.252.439-.41zm.408 1.365a3.71 3.71 0 0 1 1.386.222l.077.026c.1.034.204.072.31.111.19.07.384.14.564.19a16.576 16.576 0 0 1-4.053.52c.235-.357.542-.82.625-.941.245-.091.962-.125 1.091-.128zm-3.667.013a9.58 9.58 0 0 1 1.106.09c.08.13.35.609.549.962a16.609 16.609 0 0 1-3.9-.51c.186-.049.388-.123.587-.196.106-.039.21-.077.31-.11l.076-.027c.369-.125.658-.221 1.272-.21z"/><path d="M32.954 14.153h.004zM31.4 15.667l2.06-.268.03.23-2.06.267zm2.206 1.296-2.076.014.008 1.078.215-.002-.008-.846.818-.005.003.82h.215l-.003-.822.617-.004.004.846.215-.002zM31.63 20.94l1.965-1.283-2.13-.396-.042.227 1.577.293-1.965 1.283 2.134.397.042-.227zm.668 1.68c-.14-.053-.26-.05-.362.007a1.3 1.3 0 0 0-.294.227l-.099.098a.06.06 0 0 0-.007.007l-.007.008a1.325 1.325 0 0 1-.226.184c-.078.05-.172.054-.282.012a.368.368 0 0 1-.226-.224.434.434 0 0 1 0-.319.382.382 0 0 1 .204-.223.468.468 0 0 1 .306-.028l.019-.235a.635.635 0 0 0-.73.416.642.642 0 0 0 .365.838c.155.059.288.057.4-.006.112-.063.221-.147.326-.252l.103-.108a1.506 1.506 0 0 1 .067-.067.795.795 0 0 1 .162-.114.227.227 0 0 1 .19-.008c.09.034.15.094.182.18a.36.36 0 0 1-.002.257.364.364 0 0 1-.132.18.533.533 0 0 1-.205.076l.045.212a.591.591 0 0 0 .49-.387.626.626 0 0 0 .011-.43.473.473 0 0 0-.298-.301zm-.203 1.118v.002zm-2.18.396.107-.206 1.845.956-.106.206zm.41 2.744h-.003.004zm.45-1.044c-.124-.083-.242-.108-.355-.076a1.31 1.31 0 0 0-.336.156l-.119.073-.009.006-.009.005a1.377 1.377 0 0 1-.262.128c-.087.031-.18.014-.277-.052a.37.37 0 0 1-.169-.27.438.438 0 0 1 .071-.31.38.38 0 0 1 .25-.17.463.463 0 0 1 .305.041l.071-.224a.639.639 0 0 0-.805.239.646.646 0 0 0-.105.485c.03.174.12.312.271.413.137.093.268.12.391.086.124-.036.248-.093.374-.172l.125-.082.038-.024a.525.525 0 0 1 .042-.025.717.717 0 0 1 .184-.074.223.223 0 0 1 .188.035.293.293 0 0 1 .135.216.356.356 0 0 1-.06.25.362.362 0 0 1-.17.145.506.506 0 0 1-.215.027l-.004.218a.598.598 0 0 0 .564-.266.62.62 0 0 0 .108-.418.473.473 0 0 0-.222-.36zM6.736 7.041a.168.168 0 0 0 .169-.169.169.169 0 1 0-.169.169zm21.41-.336a.169.169 0 1 0 0 .338.169.169 0 0 0 0-.338zM6.788 28a.168.168 0 1 0 0 .337.168.168 0 0 0 0-.337zm21.523-.058a.169.169 0 0 0-.168.169.168.168 0 0 0 .168.168.168.168 0 1 0 0-.337z"/></g></svg>