<svg xmlns="http://www.w3.org/2000/svg" width="100" height="10.8" style="fill:none"><path d="M153.569 35.006V4.263h4.845l14.905 23.85h.186l-.186-5.963V4.263h3.913v30.743h-4.099L157.482 9.853h-.186l.186 5.962V34.82h-3.913zm38.573.559c-2.981.186-5.776-1.118-7.826-3.167-2.049-2.236-3.167-5.03-2.981-8.012 0-2.981.932-5.776 2.795-8.012 1.863-2.235 4.658-3.353 7.453-3.353 2.795-.187 5.589.931 7.453 2.98 2.049 2.236 2.981 5.218 2.794 8.199v.931h-16.396c0 1.863.746 3.727 2.05 5.03 1.304 1.119 2.795 1.864 4.471 1.864 2.423.186 4.845-1.304 5.776-3.54l3.54 1.49c-.745 1.677-1.863 3.168-3.353 4.1-1.677 1.117-3.727 1.676-5.776 1.49zm5.589-13.601a5.777 5.777 0 0 0-1.677-3.354c-1.304-1.118-2.794-1.677-4.471-1.677-1.304 0-2.609.56-3.727 1.305-1.117.931-1.863 2.235-2.235 3.726zm29.998 13.04h-4.099l-5.217-16.023-5.217 16.023h-3.913l-6.707-21.054h4.099l4.658 15.838 5.217-15.838h4.099l5.216 15.838 4.658-15.838h4.099zm16.768.561c-2.049 0-4.099-.559-5.776-1.677-1.49-1.117-2.608-2.608-3.353-4.285l3.54-1.49c.745 2.422 3.167 4.099 5.776 3.912 1.118 0 2.049-.186 2.981-.745.745-.373 1.118-1.304 1.118-2.236 0-1.304-.932-2.236-2.795-2.795l-4.286-1.117c-1.304-.373-2.608-.932-3.726-1.864-1.304-.931-1.863-2.422-1.863-3.912 0-1.864.932-3.54 2.422-4.472 3.167-2.05 7.453-2.236 10.807-.559 1.49.745 2.608 2.05 3.167 3.726l-3.354 1.49c-.745-1.862-2.795-2.98-4.844-2.794-1.118 0-2.05.186-2.981.745-.745.373-1.118 1.118-1.118 2.05 0 1.118.932 2.05 2.795 2.422l4.099.932c1.677.372 3.167 1.118 4.471 2.422.932 1.118 1.491 2.422 1.491 3.726 0 1.863-.932 3.54-2.236 4.658-2.049 1.304-4.285 2.05-6.335 1.863zm21.803-.559V4.263h3.912v30.743zm13.04-21.051v2.98h.186c.559-1.117 1.677-2.049 2.608-2.607 1.118-.746 2.609-1.118 3.913-1.118 2.236-.187 4.472.745 5.962 2.422 1.491 1.863 2.236 4.099 2.05 6.335v12.855h-3.913V22.525c0-3.912-1.677-5.775-5.217-5.775-1.49 0-2.981.745-3.912 1.863-1.118 1.304-1.491 2.795-1.491 4.471v11.552h-3.913V13.955Zm23.29-5.22c-1.118 1.118-2.795 1.118-3.913 0-.558-.559-.745-1.304-.745-1.863 0-.745.187-1.49.745-2.05 1.118-1.117 2.795-1.117 3.913 0 .559.56.745 1.305.745 1.864 0 .745-.372 1.49-.745 2.05zm0 26.271h-3.913V13.952h3.913zm13.412.374c-3.354.372-6.335-2.05-6.708-5.404V17.493h-3.726v-3.54h3.726V7.618h3.913v6.335h5.217v3.54h-5.217v10.806c0 2.236.931 3.354 2.795 3.354.558 0 1.304 0 1.863-.372l1.304 3.353a7.098 7.098 0 0 1-3.167.746zm9.69-26.646c-1.118 1.118-2.794 1.118-3.912 0-1.118-1.118-1.118-2.795 0-3.913 1.118-1.118 2.794-1.118 3.912 0 .559.559.746 1.304.746 2.05 0 .559-.187 1.304-.746 1.863zm0 26.27h-3.912V13.952h3.912v21.054zm11.179.562c-2.049 0-4.099-.559-5.589-1.863-1.491-1.304-2.236-3.167-2.236-5.03 0-2.05.932-4.1 2.608-5.404 1.864-1.304 4.286-2.05 6.522-1.863 2.049 0 3.912.373 5.775 1.304v-.559c0-1.49-.559-2.794-1.676-3.726-1.118-.932-2.423-1.49-3.913-1.49-1.118 0-2.236.186-3.168.745-.931.559-1.49 1.304-1.863 2.236l-3.726-1.677c.559-1.49 1.677-2.609 2.795-3.54 1.677-1.118 3.54-1.677 5.589-1.677 2.422 0 4.844.745 6.708 2.422 1.863 1.677 2.794 4.099 2.608 6.707v12.67h-3.726V31.84h.186c-1.49 2.608-4.099 3.913-6.894 3.726zm.746-3.54c1.676 0 3.167-.745 4.471-1.863 1.304-1.118 2.05-2.608 2.05-4.285-1.491-.932-3.168-1.49-5.031-1.305-1.49-.186-3.167.373-4.285 1.305-.932.745-1.491 1.863-1.491 2.98 0 .932.559 1.864 1.304 2.423.746.373 1.864.745 2.982.745zm22.916 3.354c-3.354.372-6.335-2.05-6.708-5.404V17.493h-3.726v-3.54h3.726V7.618h3.913v6.335h5.217v3.54h-5.217v10.806c0 2.236.932 3.354 2.795 3.354.559 0 1.304 0 1.863-.372l1.304 3.353c-.931.56-2.049.746-3.167.746zm9.686-26.645c-1.118 1.117-2.794 1.117-3.912 0-.559-.56-.746-1.305-.746-2.05 0-.745.187-1.49.746-2.05 1.118-1.117 2.794-1.117 3.912 0 .559.56.746 1.305.746 2.05.186.745-.187 1.49-.746 2.05zm0 26.27h-3.912V13.951h3.912zm10.993 0-8.385-21.054h4.285l6.335 16.21 6.335-16.21h4.285l-8.57 21.054zm23.664.56c-2.981.186-5.776-1.118-7.639-3.167-2.05-2.236-3.168-5.03-2.982-8.012 0-2.981.932-5.776 2.982-8.012 1.863-2.235 4.658-3.353 7.452-3.353 2.795-.187 5.59.931 7.453 2.98 2.05 2.236 2.981 5.218 2.795 8.199v.931h-16.583c0 1.863.746 3.727 2.05 5.03 1.304 1.119 2.795 1.864 4.472 1.864 2.422.186 4.844-1.304 5.775-3.54l3.541 1.49c-.746 1.677-1.864 3.168-3.354 4.1-2.05 1.117-4.099 1.676-5.962 1.49zm5.589-13.601a5.777 5.777 0 0 0-1.677-3.354c-1.118-1.118-2.794-1.677-4.471-1.677-1.305 0-2.609.56-3.727 1.305-1.118.931-1.863 2.235-2.236 3.726z" style="fill:#5f6368" transform="translate(.742 -.594) scale(.24152)"/><path d="M18.305 35.565c-9.502 0-17.327-7.64-17.327-17.328C.978 8.55 8.803.91 18.305.91c4.472 0 8.757 1.677 11.925 4.844l-3.354 3.354c-2.236-2.236-5.403-3.54-8.57-3.354-6.895.186-12.484 6.149-12.112 13.042.187 6.521 5.59 11.925 12.111 12.11a11.013 11.013 0 0 0 8.757-3.54c1.49-1.676 2.422-3.726 2.609-5.961H18.305v-4.658h16.023c.187.931.187 1.863.187 2.98.186 4.1-1.304 8.199-4.1 11.18-3.167 3.167-7.452 5.03-12.11 4.658z" style="fill:#4285f4" transform="translate(.742 -.594) scale(.24152)"/><path d="M59.294 24.386c0 6.149-5.03 10.993-11.179 10.807-6.148 0-10.992-5.031-10.806-11.18 0-5.962 5.03-10.806 10.993-10.806 5.962 0 10.992 4.844 10.992 10.806zm-4.844 0c.373-3.354-2.236-6.521-5.59-6.707-3.353-.373-6.52 2.236-6.707 5.59v1.117c-.373 3.354 2.236 6.521 5.59 6.708 3.353.372 6.52-2.236 6.707-5.59z" style="fill:#ea4335" transform="translate(.742 -.594) scale(.24152)"/><path d="M83.889 24.386c0 6.149-5.03 10.993-11.18 10.807-6.148 0-10.992-5.031-10.806-11.18 0-5.962 5.031-10.806 10.993-10.806 5.962 0 10.993 4.844 10.993 10.806zm-4.844 0c.372-3.354-2.236-6.521-5.59-6.707-3.354-.373-6.521 2.236-6.707 5.59v1.117c-.373 3.354 2.236 6.521 5.59 6.708 3.353.372 6.52-2.236 6.707-5.59.186-.186.186-.559 0-1.118z" style="fill:#fbbc04" transform="translate(.742 -.594) scale(.24152)"/><path d="M108.108 13.952v20.123c0 8.198-4.844 11.551-10.62 11.551-4.285 0-8.198-2.608-9.875-6.52l4.285-1.864c.932 2.236 3.168 3.913 5.59 3.913 3.726 0 5.962-2.236 5.962-6.521v-1.677h-.186c-1.491 1.677-3.727 2.608-5.962 2.608-6.149 0-11.18-5.03-11.18-11.179 0-6.148 5.031-11.179 11.18-11.179 2.235 0 4.285.932 5.962 2.422h.186v-1.863zm-4.472 10.62c.373-3.54-2.235-6.52-5.775-6.893h-.187c-3.54.186-6.335 3.167-6.148 6.707-.186 3.54 2.608 6.521 6.148 6.708h.187c3.54-.187 6.148-2.982 5.962-6.521h-.187z" style="fill:#4285f4" transform="translate(.742 -.594) scale(.24152)"/><path d="M116.681 2.029V34.82h-4.844V2.029Z" style="fill:#34a853" transform="translate(.742 -.594) scale(.24152)"/><path d="m135.872 28.113 3.726 2.608c-2.049 3.168-5.589 5.03-9.316 5.03-5.962 0-10.806-4.657-10.993-10.62v-.558c0-6.708 4.658-11.18 10.434-11.18 4.286.187 8.198 2.982 9.502 7.08l.559 1.305-14.905 6.148c.932 2.05 3.167 3.54 5.403 3.354 2.422 0 4.472-1.118 5.59-3.167zM124.32 24.2l10.061-4.099c-.745-1.49-2.422-2.422-4.099-2.422-3.54 0-6.148 2.981-5.962 6.521-.186-.186-.186-.186 0 0z" style="fill:#ea4335" transform="translate(.742 -.594) scale(.24152)"/></svg>