<svg xmlns="http://www.w3.org/2000/svg" width="392.463" height="127.19" xml:space="preserve"><path d="M120.492 96.585c-6.114 0-7.412-3.509-7.412-7.259V75.869h3.144v13.216c0 2.723.865 4.778 4.47 4.778 3.172 0 4.614-1.391 4.614-5.201V75.869h3.086V88.42c0 5.443-2.798 8.165-7.902 8.165zm21.909-.302v-8.96c0-1.736-.476-2.744-2.072-2.744-2.1 0-3.64 2.212-3.64 4.984v6.72h-2.996V82.367h2.856c0 .729-.056 1.932-.196 2.716l.028.028c.812-1.792 2.492-3.024 4.844-3.024 3.164 0 4.144 1.988 4.144 4.452v9.744h-2.968zm9.687-15.989c-1.064 0-1.932-.84-1.932-1.876s.868-1.876 1.932-1.876c1.036 0 1.904.813 1.904 1.876.001 1.037-.867 1.876-1.904 1.876zm-1.511 15.989V82.367h2.996v13.916h-2.996zm14.447 0h-3.052l-5.208-13.916h3.304l2.604 7.364c.336.952.644 1.932.896 2.855h.028c.224-.868.504-1.848.812-2.744l2.66-7.476h3.22l-5.264 13.917zm19.292-6.777h-8.876c-.084 3.221 1.344 4.677 4.116 4.677 1.428 0 2.912-.336 4.06-.896l.28 2.38c-1.4.588-3.108.896-4.816.896-4.34 0-6.72-2.24-6.72-7.141 0-4.199 2.296-7.336 6.356-7.336 3.976 0 5.684 2.717 5.684 6.021 0 .392-.028.868-.084 1.399zm-5.712-5.208c-1.68 0-2.856 1.232-3.108 3.108h5.908c.056-1.904-1.036-3.108-2.8-3.108zm17.136.729c-2.772-.504-4.116 1.428-4.116 5.6v5.656h-2.996V82.367h2.856c0 .784-.084 2.016-.28 3.08h.056c.616-1.876 2.016-3.612 4.62-3.36l-.14 2.94zm5.964 11.536c-1.036 0-2.072-.112-2.94-.28l.084-2.548c.868.252 1.96.448 3.024.448 1.624 0 2.744-.7 2.744-1.849 0-2.8-6.104-1.12-6.104-5.936 0-2.408 1.96-4.313 5.74-4.313.812 0 1.764.112 2.604.252l-.084 2.437a9.795 9.795 0 0 0-2.716-.393c-1.651 0-2.464.673-2.464 1.736 0 2.688 6.16 1.316 6.16 5.937 0 2.605-2.324 4.509-6.048 4.509zm11.845-16.269c-1.064 0-1.934-.84-1.934-1.876s.869-1.876 1.934-1.876c1.035 0 1.902.813 1.902 1.876 0 1.037-.867 1.876-1.902 1.876zm-1.514 15.989V82.367h2.996v13.916h-2.996zm13.217.247c-2.969 0-3.863-1.125-3.863-4.17v-7.436h-2.66v-2.277h2.66v-4.334l2.967-.796v5.13h3.668v2.277h-3.641v6.53c0 2.029.42 2.578 1.82 2.578.617 0 1.289-.082 1.82-.219v2.414c-.812.165-1.847.303-2.771.303zm14.25-.247c0-.896.029-1.82.141-2.576l-.027-.027c-.672 1.651-2.408 2.884-4.621 2.884-2.379 0-3.891-1.345-3.891-3.557 0-3.191 3.191-5.04 8.203-5.04v-.896c0-1.736-.729-2.632-2.912-2.632-1.287 0-2.967.392-4.145 1.12l-.279-2.548a13.881 13.881 0 0 1 4.9-.925c4.256 0 5.432 1.849 5.432 4.704v5.685c0 1.204.027 2.632.084 3.808h-2.885zm-5.15-16.548c-.953 0-1.68-.756-1.68-1.708 0-.924.727-1.68 1.68-1.68a1.69 1.69 0 0 1 1.707 1.68c0 .952-.756 1.708-1.707 1.708zm4.955 10.248c-4.367 0-5.32 1.315-5.32 2.52 0 1.036.729 1.708 1.904 1.708 2.045 0 3.416-1.96 3.416-3.947v-.281zm.56-10.248a1.697 1.697 0 0 1-1.709-1.708c0-.924.756-1.68 1.709-1.68.924 0 1.68.756 1.68 1.68 0 .952-.756 1.708-1.68 1.708zM252.02 96.53c-2.969 0-3.863-1.125-3.863-4.17v-7.436h-2.66v-2.277h2.66v-4.334l2.967-.796v5.13h3.668v2.277h-3.641v6.53c0 2.029.42 2.578 1.82 2.578.617 0 1.289-.082 1.82-.219v2.414c-.812.165-1.848.303-2.771.303zm30.943-.247v-9.164h-9.199v9.164h-3.145V75.869h3.145v8.438h9.199v-8.438h3.115v20.414h-3.115zm17.016 0c0-.896.027-1.82.141-2.576l-.029-.027c-.672 1.651-2.408 2.884-4.619 2.884-2.381 0-3.893-1.345-3.893-3.557 0-3.191 3.191-5.04 8.205-5.04v-.896c0-1.736-.729-2.632-2.912-2.632-1.289 0-2.969.392-4.145 1.12l-.279-2.548a13.87 13.87 0 0 1 4.898-.925c4.256 0 5.434 1.849 5.434 4.704v5.685c0 1.204.027 2.632.084 3.808h-2.885zm-.196-6.3c-4.369 0-5.32 1.315-5.32 2.52 0 1.036.729 1.708 1.904 1.708 2.043 0 3.416-1.96 3.416-3.947v-.281zm25.649 6.3v-8.876c0-1.736-.42-2.828-2.016-2.828-1.793 0-3.584 1.988-3.584 5.04v6.664h-2.941v-8.904c0-1.567-.336-2.8-2.016-2.8-1.904 0-3.557 2.128-3.557 5.04v6.664h-2.996V82.367h2.857c0 .729-.057 1.904-.197 2.716l.057.028c.813-1.848 2.549-3.024 4.703-3.024 2.744 0 3.641 1.765 3.865 2.996.588-1.344 2.127-2.996 4.648-2.996 2.66 0 4.143 1.429 4.143 4.593v9.604h-2.966zm13.131.223c-1.961 0-3.443-.195-4.957-.588V75.843h2.996v6.411c0 .813-.084 1.933-.252 2.66h.057c.729-1.735 2.381-2.828 4.424-2.828 3.305 0 5.125 2.353 5.125 6.553-.001 4.816-2.774 7.867-7.393 7.867zm1.484-11.927c-2.24 0-3.445 2.604-3.445 4.956v4.313c.617.195 1.316.279 2.186.279 2.379 0 4.004-1.456 4.004-5.208-.001-2.8-.87-4.34-2.745-4.34zm19.402 11.704c0-.728.057-1.932.197-2.716l-.029-.028c-.811 1.792-2.492 3.024-4.844 3.024-3.164 0-4.145-1.988-4.145-4.452v-9.744h2.969v8.96c0 1.736.477 2.744 2.072 2.744 2.1 0 3.641-2.212 3.641-4.984v-6.72h2.996v13.916h-2.857zm16.018-11.256c-2.771-.504-4.117 1.428-4.117 5.6v5.656h-2.996V82.367h2.857c0 .784-.084 2.016-.281 3.08h.057c.615-1.876 2.016-3.612 4.619-3.36l-.139 2.94zm9.295 18.424c-3.639 0-5.906-1.4-5.906-4.088 0-1.568 1.035-2.884 2.238-3.5-.84-.42-1.371-1.148-1.371-2.072a2.61 2.61 0 0 1 1.596-2.38c-1.371-.756-2.072-2.184-2.072-3.92 0-2.94 2.24-5.404 6.217-5.404.84 0 1.539.112 2.295.28h4.705v2.353h-2.129c.588.476.953 1.315.953 2.323 0 3.024-2.102 5.152-6.021 5.152a9.159 9.159 0 0 1-1.596-.14c-.559.224-.811.644-.811 1.035 0 .7.615.98 2.295.98h2.381c3.023 0 4.73 1.428 4.73 4.032 0 2.969-3.024 5.349-7.504 5.349zm1.961-6.945h-2.604c-.252 0-.533 0-.756-.027-.953.531-1.541 1.372-1.541 2.323 0 1.484 1.4 2.324 3.416 2.324 2.604 0 4.061-1.12 4.061-2.632 0-1.203-.813-1.988-2.576-1.988zm-1.401-12.208c-1.988 0-3.164 1.204-3.164 2.912 0 1.82 1.121 2.885 3.137 2.885 1.875 0 3.107-1.036 3.107-2.856 0-1.848-1.148-2.941-3.08-2.941z"/><path fill="#E2001A" d="M.418 0h95.967v95.966H.418V0z"/><path fill="#FFF" d="M62.113 56.883h1.371l-.685-1.188.685-1.187h-1.371l-.685-1.186-.686 1.186h-1.37l.685 1.187-.685 1.188h1.371l.685 1.187.685-1.187zm21.453 0h1.372l-.686-1.188.686-1.187h-1.372l-.685-1.186-.686 1.186h-1.37l.685 1.187-.685 1.188h1.37l.686 1.187.685-1.187z"/><path fill="#FFF" d="M68.386 57.432v.256h-1.501v1.752h1.691v10.955h-3.898V59.686h-6.5v10.708h-2.125v1.818h32.203v-1.818h-2.125V59.686h-6.5v10.708h-3.898V59.439h1.691v-1.752h-1.501c-.095-1.885-1.032-3.496-2.999-3.932v-1.894h1.408v-1.315h-1.408v-1.607h-1.539v1.607h-1.408v1.315h1.408v1.898c-1.737.405-2.999 1.845-2.999 3.673zm3.769 22.296a4.297 4.297 0 0 0-4.298 4.297l-.076 7.197H54.267c2.007-5.574 3.341-11.184 3.754-17.131h28.267c.414 5.947 1.748 11.557 3.755 17.131H76.528l-.076-7.197a4.297 4.297 0 0 0-4.297-4.297zM42.2 31.336h-3.85v-10.8H27.099v2.495c0 5.416-3.205 8.662-9.463 8.662-6.427 0-9.464-2.99-9.464-8.555V7.276h3.885v15.078c0 3.875 1.352 6.131 5.614 6.131 4.196 0 5.614-2.256 5.614-6.131V7.276h3.814v9.946H38.35V7.276h3.85v9.946h11.323V7.276h3.85v24.061h-3.85v-10.8H42.2v10.799z"/><path d="M3.402 125.759c-1.267 0-2.371-.054-3.402-.091V113.49c.959-.036 2.443-.091 3.945-.091 3.782 0 6.189 1.684 6.189 5.973 0 4.198-2.75 6.387-6.732 6.387zm.38-10.387c-.542 0-1.049.019-1.43.055v8.233c.326.055.814.091 1.285.091 2.298 0 3.963-1.303 3.963-4.198.001-2.625-1.031-4.181-3.818-4.181zm8.472 10.315v-12.216h6.642v1.973h-4.289v3.005h4.072v1.918h-4.072v3.312h4.289v2.009h-6.642zm14.95 0-3.402-5.049h-.09v5.049h-2.353v-12.216c.959-.054 2.1-.072 3.511-.072 2.696 0 4.434.941 4.434 3.438 0 1.81-1.267 3.113-3.113 3.402.344.452.688.923.996 1.339l2.932 4.108h-2.915zm-2.57-10.369c-.344 0-.688.018-.923.054v3.529c.163.018.488.036.85.036 1.412 0 2.28-.724 2.28-1.864 0-1.176-.723-1.755-2.207-1.755zm16.343.196v3.133h3.925v1.927h-3.925v5.113h-2.341v-12.153h6.5v1.98h-4.159zm11.107 10.371c-3.709 0-5.527-2.358-5.527-6.122 0-4.016 2.683-6.428 5.942-6.428 3.241 0 5.527 1.944 5.527 6.104 0 4.016-2.647 6.446-5.942 6.446zm.198-10.443c-1.674 0-3.223 1.332-3.223 4.069 0 2.574 1.008 4.249 3.187 4.249 1.584 0 3.277-1.225 3.277-4.141 0-2.701-1.152-4.177-3.241-4.177zm13.68 10.245-3.385-5.023h-.09v5.023h-2.341v-12.153c.955-.055 2.089-.072 3.493-.072 2.683 0 4.411.937 4.411 3.421 0 1.801-1.26 3.097-3.097 3.385.342.45.684.919.99 1.333l2.917 4.087h-2.898zm-2.556-10.317c-.342 0-.685.019-.918.055v3.511c.162.018.486.036.846.036 1.404 0 2.269-.721 2.269-1.854-.001-1.172-.721-1.748-2.197-1.748zm9.431 10.515c-.864 0-1.729-.09-2.485-.288l.144-2.179a8.405 8.405 0 0 0 2.539.432c1.188 0 2.107-.485 2.107-1.603 0-2.322-5.096-1.26-5.096-5.257 0-2.161 1.71-3.655 4.627-3.655.684 0 1.477.09 2.197.216l-.126 2.053a7.976 7.976 0 0 0-2.179-.324c-1.351 0-2.035.612-2.035 1.477 0 2.179 5.113 1.368 5.113 5.168.001 2.285-1.817 3.96-4.806 3.96zm12.114-.036c-4.249 0-5.618-2.827-5.618-5.852 0-3.854 2.017-6.555 6.086-6.555.864 0 1.783.108 2.575.324l-.252 2.125a8.671 8.671 0 0 0-2.449-.36c-2.269 0-3.385 1.711-3.385 4.069 0 2.646 1.099 4.123 3.547 4.123.738 0 1.729-.216 2.358-.504l.27 2.089a9.399 9.399 0 0 1-3.132.541zm13.033-.162v-5.275h-5.149v5.275h-2.341v-12.153h2.341v4.861h5.149v-4.861h2.341v12.153h-2.341zm10.151.198c-3.835 0-4.7-2.089-4.7-4.411v-7.94h2.341v7.796c0 1.53.504 2.611 2.521 2.611 1.8 0 2.557-.757 2.557-2.827v-7.58h2.323v7.436c-.001 3.33-1.838 4.915-5.042 4.915zm15.12-.198-3.565-6.14c-.54-.919-.954-1.818-1.314-2.611.072 1.045.108 2.953.108 4.412v4.339h-2.269v-12.153h3.043l3.385 5.798c.558.936 1.044 1.944 1.494 2.862-.09-1.225-.126-3.385-.126-4.879v-3.781h2.269v12.153h-3.025zm15.085-9.633a9.005 9.005 0 0 0-3.223-.612c-2.395 0-4.123 1.513-4.123 4.231 0 2.574 1.404 4.087 3.871 4.087.576 0 1.081-.072 1.548-.216v-4.231h2.341v5.798c-1.207.486-2.701.756-4.159.756-3.853 0-6.14-2.269-6.14-5.978 0-3.817 2.593-6.536 6.806-6.536 1.207 0 2.395.217 3.439.522l-.36 2.179zm13.733 11.136v-14.114h1.666v14.114h-1.666zm18.187-1.431c-1.26 0-2.359-.055-3.385-.09v-12.118c.955-.036 2.431-.09 3.925-.09 3.763 0 6.158 1.675 6.158 5.941 0 4.179-2.737 6.357-6.698 6.357zm.378-10.335c-.54 0-1.044.018-1.422.054v8.192c.324.054.81.09 1.278.09 2.287 0 3.943-1.296 3.943-4.177.001-2.611-1.026-4.159-3.799-4.159zm8.423 10.263v-12.153h6.608v1.962h-4.267v2.989h4.051v1.908h-4.051v3.295h4.267v1.999h-6.608zm14.87 0-3.385-5.023h-.09v5.023h-2.341v-12.153c.955-.055 2.089-.072 3.493-.072 2.683 0 4.411.937 4.411 3.421 0 1.801-1.26 3.097-3.097 3.385.342.45.684.919.99 1.333l2.917 4.087h-2.898zm-2.557-10.317c-.342 0-.685.019-.918.055v3.511c.162.018.486.036.846.036 1.404 0 2.269-.721 2.269-1.854-.001-1.172-.721-1.748-2.197-1.748zm13.931 10.317v-12.153h2.34v10.101h3.943v2.053h-6.283zm7.992 0v-12.153h6.607v1.962h-4.268v2.989h4.053v1.908h-4.053v3.295h4.268v1.999h-6.607zm16.635 0v-5.275h-5.15v5.275h-2.34v-12.153h2.34v4.861h5.15v-4.861h2.34v12.153h-2.34zm11.302 0-3.385-5.023h-.09v5.023h-2.34v-12.153c.953-.055 2.088-.072 3.492-.072 2.684 0 4.412.937 4.412 3.421 0 1.801-1.262 3.097-3.098 3.385.342.45.684.919.99 1.333l2.916 4.087h-2.897zm-2.556-10.317c-.342 0-.684.019-.918.055v3.511c.162.018.486.036.846.036 1.404 0 2.27-.721 2.27-1.854-.001-1.172-.722-1.748-2.198-1.748zm7.343 10.317v-12.153h6.607v1.962h-4.268v2.989h4.051v1.908h-4.051v3.295h4.268v1.999h-6.607zm19.729 1.503v-14.114h1.664v14.114h-1.664zm17.848-1.431c-1.26 0-2.357-.055-3.385-.09v-12.118c.955-.036 2.432-.09 3.926-.09 3.762 0 6.158 1.675 6.158 5.941 0 4.179-2.738 6.357-6.699 6.357zm.379-10.335c-.541 0-1.045.018-1.424.054v8.192c.324.054.811.09 1.279.09 2.287 0 3.943-1.296 3.943-4.177 0-2.611-1.027-4.159-3.798-4.159zm8.421 10.263v-12.153h6.607v1.962h-4.268v2.989h4.053v1.908h-4.053v3.295h4.268v1.999h-6.607zm14.872 0-3.385-5.023h-.092v5.023h-2.34v-12.153c.955-.055 2.088-.072 3.492-.072 2.684 0 4.412.937 4.412 3.421 0 1.801-1.26 3.097-3.098 3.385.344.45.686.919.99 1.333l2.918 4.087h-2.897zm-2.557-10.317a6.62 6.62 0 0 0-.92.055v3.511c.162.018.486.036.848.036 1.404 0 2.268-.721 2.268-1.854-.001-1.172-.72-1.748-2.196-1.748zm17.476 10.353c-.738 0-2.016-.036-3.547-.036v-12.136a86.882 86.882 0 0 1 4.105-.09c2.629 0 4.088 1.063 4.088 3.007 0 1.206-.775 2.269-1.928 2.719v.036c1.441.306 2.16 1.494 2.16 2.719.001 1.765-1.204 3.781-4.878 3.781zm.163-10.371c-.486 0-.953.018-1.369.036v3.169c.289.018.576.018.955.018 1.604 0 2.432-.648 2.432-1.729-.001-.9-.542-1.494-2.018-1.494zm-.342 4.97a21 21 0 0 0-1.027.018v3.403c.289.036.738.071 1.279.071 1.531 0 2.305-.72 2.305-1.818-.001-1.189-1.026-1.674-2.557-1.674zm7.486 5.365v-12.153h2.34v12.153h-2.34zm5.473 0v-12.153h2.34v10.101h3.943v2.053h-6.283zm11.377.072c-1.262 0-2.359-.055-3.385-.09v-12.118c.953-.036 2.43-.09 3.924-.09 3.764 0 6.158 1.675 6.158 5.941 0 4.179-2.736 6.357-6.697 6.357zm.377-10.335c-.539 0-1.043.018-1.422.054v8.192c.324.054.811.09 1.279.09 2.285 0 3.941-1.296 3.941-4.177 0-2.611-1.025-4.159-3.798-4.159zm13.213 10.461c-3.836 0-4.699-2.089-4.699-4.411v-7.94h2.34v7.796c0 1.53.504 2.611 2.521 2.611 1.799 0 2.557-.757 2.557-2.827v-7.58h2.322v7.436c0 3.33-1.836 4.915-5.041 4.915zm15.119-.198-3.566-6.14c-.539-.919-.953-1.818-1.314-2.611.072 1.045.109 2.953.109 4.412v4.339h-2.27v-12.153h3.043l3.385 5.798c.559.936 1.045 1.944 1.494 2.862-.09-1.225-.125-3.385-.125-4.879v-3.781h2.268v12.153h-3.024zm15.084-9.633a9.005 9.005 0 0 0-3.223-.612c-2.395 0-4.123 1.513-4.123 4.231 0 2.574 1.404 4.087 3.871 4.087.576 0 1.08-.072 1.549-.216v-4.231h2.34v5.798c-1.205.486-2.701.756-4.158.756-3.854 0-6.141-2.269-6.141-5.978 0-3.817 2.594-6.536 6.807-6.536 1.205 0 2.395.217 3.439.522l-.361 2.179z"/></svg>