<?xml version="1.0" encoding="UTF-8"?><svg xmlns="http://www.w3.org/2000/svg" xmlns:xlink="http://www.w3.org/1999/xlink" viewBox="0 0 256 256"><defs><style>.s{fill:#3a3a47;}.t{fill:url(#l);mix-blend-mode:overlay;}.t,.u{opacity:.15;}.v{opacity:.75;}.w{fill:#3b0202;}.x{clip-path:url(#k);}.y{clip-path:url(#q);}.z{opacity:.57;}.aa{fill:#e4b7b4;}.ab{opacity:.3;}.ac{fill:url(#h);}.ad{fill:none;}.ae{opacity:.8;}.af{isolation:isolate;}.ag{fill:#ceb4b4;}.ah{fill:#b53617;}.ai{fill:url(#n);}.aj{fill:#6d5f5f;}</style><linearGradient id="h" x1="166.8586" y1="-3.523" x2="166.8586" y2="229.4944" gradientUnits="userSpaceOnUse"><stop offset="0" stop-color="#97341f"/><stop offset=".3462" stop-color="#c44c2b"/><stop offset="1" stop-color="#c9654c"/></linearGradient><clipPath id="k"><path class="ad" d="M135.4153,27.8382c-.0048,5.4072.2136,18.3613.0594,26.9661-.2161,11.977.4305,53.7504-.2632,57.4636-.166.8909-1.3902.7523-2.7337.7489-1.3449-.0035-4.4324-.0011-8.0558.2269-4.244.2667-8.0651,3.171-8.3041,5.9665-.2233,2.5952,2.4258,4.5949,4.5781,5.4061,2.1551.8146,10.2127.6968,12.7813.7468.985.0187.4685.5401.5532,2.4738.7803,18.1308.3261,26.9916.8473,31.5465.4456,3.8978,2.9211,4.6135,6.1054,4.4636,3.2875-.158,5.1979-2.9893,4.9412-7.0577-.1192-1.8807-.98-27.2799-.863-30.2371.0498-1.2479.6389-.8994,1.8263-.8705,6.1787.153,36.6873.6126,52.1113.1831,4.0992-.1135,3.8809-.2586,3.9029,1.4567.0913,6.9558.5722,13.3709.4876,17.6176-.1367,6.846.6285,39.838.6682,55.9738.0251,11.567.0378,35.8782,2.401,39.0658,2.0964,2.8302,8.6947,5.8057,8.6666-.1781-.0108-2.2898-.0581-12.3692-.0764-16.2665-.0345-7.3493-.1343-18.7967-.3922-26.1553-.311-8.8889-.0452-28.9411.6296-37.9844.6603-8.8683.0245-42.0329.4257-52.3124.6615-16.9485.4512-54.3124,1.7401-74.3849.6632-10.3543-.917-14.8684-1.3544-15.2975-1.3222-1.2978-7.3661-1.4313-7.7332-.5559-.6735,1.6065-.6961,8.9766-1.3594,11.2617-.6605,2.2858-1.7625,82.4442-2.2838,85.5376-.5241,3.0912-1.337,1.7438-2.9502,1.7396-1.6117-.0042-49.8695-1.2054-52.5535-.8082-2.6867.3951-4.0304.6611-3.9015-.6837.1275-1.3427-.5732-7.5313-.0675-14.1189.5056-6.5878-.1707-63.748-.0586-68.5902.1108-4.8423-.322-11.0314-.3381-14.3947-.0161-3.3626-5.4001-4.9746-7.6007-3.5291-1.1503.7554-.527,5.6234-1.163,6.2599-1.0318,1.0343-.6693,5.6264-.6731,8.3207Z"/></clipPath><radialGradient id="l" cx="172.2766" cy="-6.8437" fx="172.2766" fy="-6.8437" r="187.6159" gradientTransform="translate(9.408 -27.1174) rotate(22.1724) scale(.8594 .7554) skewX(1.9255)" gradientUnits="userSpaceOnUse"><stop offset="0" stop-color="#ffdc07"/><stop offset=".1229" stop-color="#f2cb07"/><stop offset=".3666" stop-color="#d39e08"/><stop offset=".7041" stop-color="#a0580a"/><stop offset="1" stop-color="#70150c"/></radialGradient><linearGradient id="n" x1="109.5968" y1="31.441" x2="109.5968" y2="207.1327" gradientUnits="userSpaceOnUse"><stop offset=".0604" stop-color="#3e4d56"/><stop offset=".2478" stop-color="#3a4850"/><stop offset=".4883" stop-color="#2f3940"/><stop offset=".7565" stop-color="#1c2226"/><stop offset="1" stop-color="#080808"/></linearGradient><clipPath id="q"><path class="ad" d="M175.3961,56.3718c-3.9102-4.4515-11.7405-12.2124-20.8796-16.1819-9.2928-4.0375-26.3148-6.5392-38.73-5.1666-17.2587,1.9086-27.5767,8.0095-38.4316,14.3023-10.853,6.2937-20.2967,17.7247-27.1493,28.3505-6.6682,10.3369-10.9639,24.9005-11.7104,36.475-.8128,12.5692,3.1566,27.3686,5.68,34.8362,2.529,7.4927,9.8661,21.6695,22.7315,33.4697,13.1582,12.067,22.8458,15.0753,36.6324,18.2484,14.1907,3.265,36.0069-.7753,43.5196-3.309,7.513-2.5352,20.3671-12.6509,22.2394-14.124,1.8738-1.4739,8.495-9.2306,9.7469-13.5554.6617-2.2841-4.3044-5.6079-5.4005-5.1907-1.2869.4908-7.1509,7.2642-14.9012,13.3895-6.9147,5.4621-25.4763,12.1145-36.0718,13.1667-17.7378,1.7641-27.3873-1.3774-36.2357-7.0198-27.2786-17.3928-31.7154-32.5511-33.357-35.9847-5.2998-11.081-8.3586-33.3117-3.5678-47.6126,8.0602-24.0596,18.9258-31.3716,22.8576-34.9315,4.0457-3.6629,20.254-15.8496,40.5198-19.2854,13.8877-2.3565,25.2325-.0425,31.5776,2.1473,6.3103,2.1772,13.5916,6.947,16.9164,10.1033,5.0153,4.7677,9.0947,9.3132,11.4376,12.2429.6429.8066,7.1119,1.3556,7.7669-1.1665.6839-2.6296-.0179-7.3188-5.1908-13.2034Z"/></clipPath></defs><g class="af"><g id="g"><path id="i" class="ac" d="M135.4153,27.8382c-.0048,5.4072.2136,18.3613.0594,26.9661-.2161,11.977.4305,53.7504-.2632,57.4636-.166.8909-1.3902.7523-2.7337.7489-1.3449-.0035-4.4324-.0011-8.0558.2269-4.244.2667-8.0651,3.171-8.3041,5.9665-.2233,2.5952,2.4258,4.5949,4.5781,5.4061,2.1551.8146,10.2127.6968,12.7813.7468.985.0187.4685.5401.5532,2.4738.7803,18.1308.3261,26.9916.8473,31.5465.4456,3.8978,2.9211,4.6135,6.1054,4.4636,3.2875-.158,5.1979-2.9893,4.9412-7.0577-.1192-1.8807-.98-27.2799-.863-30.2371.0498-1.2479.6389-.8994,1.8263-.8705,6.1787.153,36.6873.6126,52.1113.1831,4.0992-.1135,3.8809-.2586,3.9029,1.4567.0913,6.9558.5722,13.3709.4876,17.6176-.1367,6.846.6285,39.838.6682,55.9738.0251,11.567.0378,35.8782,2.401,39.0658,2.0964,2.8302,8.6947,5.8057,8.6666-.1781-.0108-2.2898-.0581-12.3692-.0764-16.2665-.0345-7.3493-.1343-18.7967-.3922-26.1553-.311-8.8889-.0452-28.9411.6296-37.9844.6603-8.8683.0245-42.0329.4257-52.3124.6615-16.9485.4512-54.3124,1.7401-74.3849.6632-10.3543-.917-14.8684-1.3544-15.2975-1.3222-1.2978-7.3661-1.4313-7.7332-.5559-.6735,1.6065-.6961,8.9766-1.3594,11.2617-.6605,2.2858-1.7625,82.4442-2.2838,85.5376-.5241,3.0912-1.337,1.7438-2.9502,1.7396-1.6117-.0042-49.8695-1.2054-52.5535-.8082-2.6867.3951-4.0304.6611-3.9015-.6837.1275-1.3427-.5732-7.5313-.0675-14.1189.5056-6.5878-.1707-63.748-.0586-68.5902.1108-4.8423-.322-11.0314-.3381-14.3947-.0161-3.3626-5.4001-4.9746-7.6007-3.5291-1.1503.7554-.527,5.6234-1.163,6.2599-1.0318,1.0343-.6693,5.6264-.6731,8.3207Z"/><g id="j" class="u"><g class="x"><path class="w" d="M212.7111,115.1309c-1.5372,1.481-3.3808,2.8964-4.6269,4.6383-1.3884,1.9407-1.3225,4.3492-1.6006,6.6958-.6682,5.6384-1.3364,11.2769-2.0047,16.9153-1.2993,10.9632-2.5985,21.9263-3.8978,32.8895-1.2424,10.4835-2.4865,20.9668-3.7103,31.4525-.6284,5.3842-1.0952,10.8219-1.8993,16.1827-.143.9537-.2327,1.9845-.5252,2.9068.5881-1.8546-.0417.3751-.441.423,1.1153-.1339.9616-1.2786-.6273.0748-3.8639,3.2913,3.5351-1.1931,7.7885-.2379l9.3859,3.5798-.9328-.5347c2.6472,7.555,5.2944,15.11,7.9415,22.665.4112-.3191.7264-.6784,1.1054-1.0286l1.9962-2.1741-1.6706,1.8074c.69.6252,6.3839-3.0336,6.8821-3.4027,5.4054-4.0053,6.9636-9.53,3.7312-15.5771-3.9364-7.3642-12.7079-11.6632-20.8519-10.1604-3.4581.6381-4.9434,2.5519-7.13,5.1281-.4834.5695-.2459.3438-.625.9604-1.0742,1.7472-3.0225.371.3476.5042l7.3948,1.3377,5.0178,2.9031c-5.3691-4.5965-14.1857-8.481-21.3884-6.1758-6.8151,2.1811-7.1175,8.4275-4.9773,14.2321,3.9577,10.7343,18.3815,17.4402,29.1917,17.383,9.3465-.0495,15.8449-5.0851,17.3486-14.4349,1.0591-6.5855-.6391-14.0899-1.3389-20.6792-.7634-7.1877-1.5242-14.3756-2.2988-21.562-1.503-13.9442-3.006-27.8884-4.509-41.8327-.7912-7.3404-1.5824-14.6808-2.3736-22.0212l-1.0789-10.0099c-.4651-4.3152-3.2782-7.6779-5.5464-11.2746-.6317-1.0017-2.8415-2.7639-4.0768-1.5737h0Z"/><path class="w" d="M142.6567,124.1744c-2.8139,1.7123-5.2768,2.9943-6.5354,6.1608-1.2225,3.0756-1.7979,6.6548-2.66,9.8458-.8854,3.2771-1.8685,6.5447-2.66,9.8456-.9792,4.084-.4318,8.0133-.0915,12.1607.7091,8.6425,21.561,18.3457,23.6861,6.6152,1.4477-7.9914.0442-15.1537-1.1834-23.1053-.5606-3.631-.8107-7.5044-1.7083-11.0658-.917-3.6382-3.6659-6.6459-5.8399-9.5884-.6127-.8293-2.0499-1.4515-3.0077-.8687h0Z"/><path class="w" d="M147.5381,128.4685c10.0813,2.2466,20.2029,4.7568,30.4196,6.2925,4.6897.7049,9.379,1.4126,14.0655,2.1386,5.7748.8946,12.5232,3.0789,18.1178.7679,11.8204-4.8827.1616-18.1708-7.3555-20.6939-10.242-3.4377-21.1881-.1859-31.6263,1.4352-8.6973,1.3508-17.2163,3.7745-25.7935,5.7449-3.0313.6964.9153,4.0347,2.1723,4.3148h0Z"/><path class="ah" d="M147.3367,16.1853c-1.2915-6.9203-13.2861-10.469-15.5436-2.3974-.5614,2.0074-.1544,4.0213.0227,6.0588.2872,3.3045-.2775,5.9236-1.4632,8.9852-1.7412,4.4961-4.4011,9.6015-4.9456,14.4242-.6054,5.3626-.0266,11.1281-.0361,16.5218-.0099,5.6489-.0754,11.3005-.0297,16.9492.0497,6.1374,1.716,11.9936,3.042,17.9602,1.3491,6.0708,1.1591,11.995,1.1483,18.1878-.0089,5.0793,11.3255,9.8426,11.3352,4.2815.0076-4.3372-.4777-9.0523.0234-13.3674.4729-4.0725,2.0407-8.2631,3.0705-12.2167,2.1166-8.1254,1.234-16.9328,1.2486-25.299.0153-8.7727.3538-16.9229-2.0226-25.4163-1.2359-4.4172-3.2189-9.3727-3.7308-13.9336-.1683-1.4994.5315-5.1851,1.5423-6.5688.3031-1.0425.9188-1.5472,1.847-1.5141,1.7005-.218,1.7434-.2683.1285-.1508l-3.9018-1.8952.7862.5829c1.892,1.4028,8.3411,3.4287,7.4788-1.1922h0Z"/><path class="ah" d="M124.4587,111.5985c-3.6993.093-11.0347.686-12.2933,5.049-.5811,2.0145.2075,4.0279.8547,5.6771,1.0177,2.5934,2.4564,4.7794,5.2958,5.6829,1.7842.5677,4.774.8184,5.1815-1.6538.4039-2.4506-2.4235-4.4232-4.2922-5.2322l-.2857-.1237,3.2716,2.3309c.8553,1.0184.5701,1.0908.3059.0111-.0708-.2895-.1949-.5934-.2441-.8847-.158-.9349.1034-1.9671.3942-2.9008.6481-2.0807,2.4544-3.7882,4.1213-5.0934,1.498-1.1729-1.2648-2.8888-2.3098-2.8625h0Z"/><path class="ah" d="M216.0226,17.4295c-.0456-2.5418-1.9522-4.0816-4.2469-4.8979-3.4602-1.2309-6.2204.237-7.6621,3.5679-1.8642,4.3071-2.3229,9.7678-3.0931,14.3505-.9041,5.379-1.1171,10.7254-1.2649,16.1719-.2865,10.562-.3438,21.0698-1.102,31.6124-.7903,10.989-2.6196,22.5273-.7646,33.474,1.0144,5.9862,15.7014,13.7422,17.364,4.8495,1.5345-8.2076.2195-16.8557-.3605-25.1064-.5881-8.3667-1.2944-16.7172-1.4241-25.1057-.1255-8.1161-.0766-16.2221-.0814-24.3371-.002-3.3766-2.6632-22.8057,1.5163-23.9524l-2.9644-.5521.8809.4506c.6605.3379,3.232,1.1149,3.2026-.5253h0Z"/><path class="ah" d="M169.0417,115.2319c5.0398,4.4664,10.1525,4.3847,16.6167,4.8022,7.2736.4698,14.5473.9396,21.8209,1.4093,2.1479.1387,4.3715-1.3191,4.6832-3.5096.5906-4.1514-3.7307-7.4947-7.217-8.7976-4.5363-1.6953-10.4611-.3244-15.1913-.027-4.957.3117-9.933.5206-14.8823.9358-3.4163.2866-5.4406.9079-6.2146,4.4233-.0632.287.1912.5924.3844.7636h0Z"/></g></g><path id="m" class="t" d="M135.4153,27.8382c-.0048,5.4072.2136,18.3613.0594,26.9661-.2161,11.977.4305,53.7504-.2632,57.4636-.166.8909-1.3902.7523-2.7337.7489-1.3449-.0035-4.4324-.0011-8.0558.2269-4.244.2667-8.0651,3.171-8.3041,5.9665-.2233,2.5952,2.4258,4.5949,4.5781,5.4061,2.1551.8146,10.2127.6968,12.7813.7468.985.0187.4685.5401.5532,2.4738.7803,18.1308.3261,26.9916.8473,31.5465.4456,3.8978,2.9211,4.6135,6.1054,4.4636,3.2875-.158,5.1979-2.9893,4.9412-7.0577-.1192-1.8807-.98-27.2799-.863-30.2371.0498-1.2479.6389-.8994,1.8263-.8705,6.1787.153,36.6873.6126,52.1113.1831,4.0992-.1135,3.8809-.2586,3.9029,1.4567.0913,6.9558.5722,13.3709.4876,17.6176-.1367,6.846.6285,39.838.6682,55.9738.0251,11.567.0378,35.8782,2.401,39.0658,2.0964,2.8302,8.6947,5.8057,8.6666-.1781-.0108-2.2898-.0581-12.3692-.0764-16.2665-.0345-7.3493-.1343-18.7967-.3922-26.1553-.311-8.8889-.0452-28.9411.6296-37.9844.6603-8.8683.0245-42.0329.4257-52.3124.6615-16.9485.4512-54.3124,1.7401-74.3849.6632-10.3543-.917-14.8684-1.3544-15.2975-1.3222-1.2978-7.3661-1.4313-7.7332-.5559-.6735,1.6065-.6961,8.9766-1.3594,11.2617-.6605,2.2858-1.7625,82.4442-2.2838,85.5376-.5241,3.0912-1.337,1.7438-2.9502,1.7396-1.6117-.0042-49.8695-1.2054-52.5535-.8082-2.6867.3951-4.0304.6611-3.9015-.6837.1275-1.3427-.5732-7.5313-.0675-14.1189.5056-6.5878-.1707-63.748-.0586-68.5902.1108-4.8423-.322-11.0314-.3381-14.3947-.0161-3.3626-5.4001-4.9746-7.6007-3.5291-1.1503.7554-.527,5.6234-1.163,6.2599-1.0318,1.0343-.6693,5.6264-.6731,8.3207Z"/><path id="o" class="ai" d="M175.3961,56.3718c-3.9102-4.4515-11.7405-12.2124-20.8796-16.1819-9.2928-4.0375-26.3148-6.5392-38.73-5.1666-17.2587,1.9086-27.5767,8.0095-38.4316,14.3023-10.853,6.2937-20.2967,17.7247-27.1493,28.3505-6.6682,10.3369-10.9639,24.9005-11.7104,36.475-.8128,12.5692,3.1566,27.3686,5.68,34.8362,2.529,7.4927,9.8661,21.6695,22.7315,33.4697,13.1582,12.067,22.8458,15.0753,36.6324,18.2484,14.1907,3.265,36.0069-.7753,43.5196-3.309,7.513-2.5352,20.3671-12.6509,22.2394-14.124,1.8738-1.4739,8.495-9.2306,9.7469-13.5554.6617-2.2841-4.3044-5.6079-5.4005-5.1907-1.2869.4908-7.1509,7.2642-14.9012,13.3895-6.9147,5.4621-25.4763,12.1145-36.0718,13.1667-17.7378,1.7641-27.3873-1.3774-36.2357-7.0198-27.2786-17.3928-31.7154-32.5511-33.357-35.9847-5.2998-11.081-8.3586-33.3117-3.5678-47.6126,8.0602-24.0596,18.9258-31.3716,22.8576-34.9315,4.0457-3.6629,20.254-15.8496,40.5198-19.2854,13.8877-2.3565,25.2325-.0425,31.5776,2.1473,6.3103,2.1772,13.5916,6.947,16.9164,10.1033,5.0153,4.7677,9.0947,9.3132,11.4376,12.2429.6429.8066,7.1119,1.3556,7.7669-1.1665.6839-2.6296-.0179-7.3188-5.1908-13.2034Z"/><g id="p" class="ab"><g class="y"><path class="s" d="M142.6484,34.9746c-7.7076-3.2462-14.9161-5.2152-23.3094-5.0408-7.7911.1619-15.6256,1.2712-23.1741,3.201-14.636,3.7416-29.5708,11.2281-40.8678,21.3412-11.7273,10.4982-19.7545,23.6436-24.392,38.6166-4.2906,13.8529-4.0446,28.4285-1.4825,42.6036,3.0233,16.7267,9.2282,32.9529,18.7627,47.0403,3.1438,4.645,10.9651,8.1256,16.4484,6.3707,5.9228-1.8956,4.6136-7.9562,1.7529-11.8914-13.4964-18.5655-21.1582-47.2887-16.6296-70.5335,5.0285-25.8108,23.0575-51.2468,47.9512-60.844,7.2848-2.8085,14.9505-4.7198,22.7228-5.4923,3.9625-.3938,7.9593-.1126,11.9034-.4806,3.7015-.3454,7.2912-1.2154,11.031-1.4076,2.6898-.1382.5623-2.9443-.7171-3.4832h0Z"/><path class="aj" d="M171.689,163.7876c-7.0323,4.0464-14.5642,7.3202-21.7728,11.0388-7.4009,3.8178-15.5288,6.6207-23.7502,7.9927-16.8834,2.8175-32.453-1.7714-44.5251-13.9518-2.6505-2.6743-8.7845-4.8673-12.129-2.3003-3.7177,2.8535-.4595,7.3814,1.8802,9.7421,15.7394,15.8806,37.4871,22.5352,59.4212,18.6974,9.3606-1.6378,18.2912-5.1644,26.5568-9.812,3.8723-2.1773,8.0467-4.4862,10.9424-7.902,2.7878-3.2883,5.1717-6.9494,7.32-10.6783,1.0927-1.8966-2.5195-3.6461-3.9436-2.8267h0Z"/><path d="M172.8346,68.955c-2.1144-7.5694-9.7267-12.9591-15.9247-17.1921-7.6962-5.2561-16.9066-9.6056-26.222-10.8083-20.4004-2.6339-42.907,6.1429-58.6797,18.7486-7.6394,6.1055-15.6866,14.1514-19.999,23.0661-1.5271,3.1569-3.7041,7.8251-.2765,10.5163,3.2459,2.5486,5.7084-.0889,7.5425-2.6646,6.319-8.8746,11.9668-17.2404,20.6476-24.1144,8.5153-6.743,18.235-11.654,28.6368-14.7506,11.756-3.4998,23.5571-4.2059,35.2222-.0761,10.6222,3.7606,19.3553,9.8988,27.5232,17.5191.3432.3202,1.7818.6586,1.5297-.2439h0Z"/><g class="v"><path d="M177.0391,165.8081c-.2315,2.7013-.062,4.1604-1.8046,6.5964-2.7009,3.7757-6.5927,6.765-10.2944,9.4967-8.4371,6.2262-18.1453,12.1161-28.3471,14.8231-11.364,3.0154-23.5371,2.5037-35.0012.2798-10.7153-2.0787-21.1805-4.7052-30.1698-11.235-.2706-.1966-1.4028-.379-.9717.2969,3.4437,5.3995,7.9696,10.1654,13.6669,13.2262,5.0687,2.7231,11.1308,3.7512,16.7231,4.8706,13.8974,2.7819,28.722,3.5071,42.4575-.5052,12.128-3.5428,22.7122-11.4216,31.0924-20.7293,2.546-2.8277,12.8935-16.0992,3.5886-17.5954-.348-.056-.901.0241-.9396.4753h0Z"/></g></g></g><g id="r" class="ae"><g class="z"><path class="ag" d="M62.5403,64.5674c7.706-6.9129,15.5475-13.5354,24.8184-18.2827,4.8377-2.4772,9.8972-4.5028,15.1409-5.943,4.8808-1.3406,10.5713-1.0963,15.1586-3.1127.4848-.2131-.0996-.7145-.3879-.7705-9.3031-1.8073-21.0575,3.4403-29.1443,7.6183-9.7213,5.0224-18.7637,11.9229-25.692,20.4145-.0335.0411.0712.1078.1064.0763h0Z"/></g><g class="z"><path class="ag" d="M139.4872,15.0816c.2374,0,.011-.2987-.1504-.2987-.2374,0-.011.2987.1504.2987h0Z"/></g><g class="z"><path class="aa" d="M137.6656,23.2864l.5684-4.3607c.1773-1.3599.4803-2.9307.1043-4.2779.1479.5297,1.4929,1.0106,1.3254.2384-.221-1.019-1.6237-1.5984-2.3435-.7024-.6756.841-.4478,2.543-.4193,3.5344.0512,1.7795.1043,3.5589.1565,5.3384.0072.2457.5652.5598.6083.2298h0Z"/></g><g class="z"><path class="aa" d="M119.358,118.9213c.726-1.024,1.6552-1.7903,2.6269-2.5668.4266-.3409.8859-.6441,1.3721-.8936.4627-.2374,1.0149-.2821,1.2869-.747.1567-.2679-.2582-.5408-.4706-.5776-1.1257-.195-2.4621.7705-3.2911,1.4637-.9576.8007-1.5022,1.983-1.8781,3.1508-.0465.1445.265.2958.3538.1706h0Z"/></g><g class="z"><path class="aa" d="M210.0223,25.3654c.1467-1.3164.3429-2.6389.3987-3.9625.0498-1.181-.2987-2.7106,1.2403-2.9818.6314-.1113.0371-.8527-.2005-1.0103-1.146-.7599-2.4059-.211-2.6926,1.1627-.4262,2.0425.099,4.4756.2855,6.5215.0317.3481.9148.7532.9686.2705h0Z"/></g></g></g></g></svg>