<?xml version="1.0" encoding="UTF-8"?><svg xmlns="http://www.w3.org/2000/svg" xmlns:xlink="http://www.w3.org/1999/xlink" viewBox="0 0 256 256"><defs><style>.q{fill:#3a3a47;}.r{opacity:.75;}.s{clip-path:url(#i);}.t{fill:#3b0202;}.u{opacity:.57;}.v{opacity:.3;}.w{fill:#e4b7b4;}.x{fill:url(#l);}.y{fill:none;}.z{fill:url(#j);mix-blend-mode:overlay;}.z,.aa{opacity:.15;}.ab{opacity:.8;}.ac{clip-path:url(#o);}.ad{isolation:isolate;}.ae{fill:url(#f);}.af{fill:#ceb4b4;}.ag{fill:#b53617;}.ah{fill:#6d5f5f;}</style><linearGradient id="f" x1="171.1487" y1="-18.0433" x2="171.1487" y2="240.6995" gradientUnits="userSpaceOnUse"><stop offset="0" stop-color="#97341f"/><stop offset=".3462" stop-color="#c44c2b"/><stop offset="1" stop-color="#c9654c"/></linearGradient><clipPath id="i"><path class="y" d="M136.234,16.7802c-.0053,6.0042.2371,20.3884.066,29.9432-.2399,13.2993.4781,59.6845-.2923,63.8076-.1843.9893-1.5437.8354-3.0355.8315-1.4934-.0039-4.9217-.0012-8.9451.2519-4.7126.2962-8.9555,3.5211-9.2209,6.6253-.2479,2.8817,2.6936,5.1022,5.0835,6.0029,2.393.9045,11.3402.7737,14.1924.8292,1.0938.0207.5203.5997.6142,2.7469.8664,20.1325.3621,29.9715.9409,35.0292.4948,4.3281,3.2436,5.1229,6.7794,4.9564,3.6504-.1754,5.7717-3.3194,5.4867-7.8369-.1324-2.0883-1.0882-30.2916-.9583-33.5753.0553-1.3857.7094-.9987,2.0279-.9666,6.8608.1699,40.7376.6802,57.8644.2033,4.5518-.126,4.3093-.2871,4.3338,1.6175.1014,7.7237.6354,14.847.5415,19.5626-.1517,7.6018.6979,44.2362.742,62.1533.0279,12.844.042,39.8392,2.6661,43.3787,2.3279,3.1426,9.6546,6.4466,9.6234-.1978-.0119-2.5426-.0645-13.7348-.0848-18.0624-.0383-8.1607-.1492-20.8718-.4355-29.0429-.3454-9.8702-.0502-32.1362.6991-42.1779.7332-9.8474.0272-46.6734.4727-58.0877.7345-18.8196.501-60.3086,1.9322-82.597.7364-11.4974-1.0182-16.5099-1.5039-16.9863-1.4682-1.4411-8.1793-1.5893-8.587-.6173-.7479,1.7839-.7729,9.9676-1.5095,12.505-.7334,2.5382-1.9571,91.5462-2.536,94.981-.582,3.4324-1.4846,1.9364-3.2759,1.9317-1.7897-.0047-55.3752-1.3384-58.3554-.8974-2.9833.4387-4.4754.734-4.3322-.7592.1416-1.4909-.6365-8.3627-.0749-15.6777.5615-7.3151-.1896-70.7858-.065-76.1627.123-5.3769-.3575-12.2493-.3754-15.9838s-5.9963-5.5238-8.4398-3.9187c-1.2773.8388-.5852,6.2442-1.2914,6.951-1.1457,1.1485-.7432,6.2476-.7474,9.2393Z"/></clipPath><radialGradient id="j" cx="174.9029" cy="-19.5735" fx="174.9029" fy="-19.5735" r="208.3289" gradientTransform="translate(6.2689 -30.4181) rotate(22.1724) scale(.8594 .7554) skewX(1.9255)" gradientUnits="userSpaceOnUse"><stop offset="0" stop-color="#ffdc07"/><stop offset=".1229" stop-color="#f2cb07"/><stop offset=".3666" stop-color="#d39e08"/><stop offset=".7041" stop-color="#a0580a"/><stop offset="1" stop-color="#70150c"/></radialGradient><linearGradient id="l" x1="107.5651" y1="20.7808" x2="107.5651" y2="215.8691" gradientUnits="userSpaceOnUse"><stop offset=".0604" stop-color="#3e4d56"/><stop offset=".2478" stop-color="#3a4850"/><stop offset=".4883" stop-color="#2f3940"/><stop offset=".7565" stop-color="#1c2226"/><stop offset="1" stop-color="#080808"/></linearGradient><clipPath id="o"><path class="y" d="M180.6287,48.4639c-4.3419-4.943-13.0366-13.5606-23.1847-17.9684-10.3187-4.4832-29.22-7.2612-43.0059-5.737-19.1641,2.1193-30.6212,8.8938-42.6745,15.8812-12.0512,6.9886-22.5374,19.6815-30.1466,31.4804-7.4044,11.4781-12.1743,27.6495-13.0033,40.5019-.9025,13.9569,3.5051,30.3901,6.3071,38.6821,2.8082,8.3199,10.9554,24.0618,25.2411,37.1648,14.6109,13.3992,25.368,16.7396,40.6767,20.263,15.7573,3.6254,39.9821-.8609,48.3242-3.6743,8.3425-2.8151,22.6157-14.0476,24.6947-15.6833,2.0807-1.6366,9.4328-10.2497,10.823-15.0519.7347-2.5362-4.7797-6.227-5.9967-5.7638-1.429.545-7.9403,8.0662-16.5463,14.8677-7.6781,6.0652-28.2889,13.4519-40.0542,14.6203-19.6961,1.9589-30.4109-1.5294-40.2361-7.7948-30.2902-19.313-35.2168-36.1447-37.0397-39.9575-5.8849-12.3044-9.2814-36.9893-3.9617-52.8691,8.9501-26.7158,21.0152-34.8351,25.381-38.788,4.4923-4.0672,22.4901-17.5994,44.9933-21.4145,15.4209-2.6166,28.0182-.0472,35.0638,2.3844,7.007,2.4176,15.0921,7.714,18.784,11.2187,5.569,5.2941,10.0988,10.3413,12.7003,13.5945.7139.8956,7.897,1.5053,8.6244-1.2953.7594-2.9199-.0199-8.1268-5.7638-14.661Z"/></clipPath></defs><g class="ad"><g id="e"><path id="g" class="ae" d="M136.234,16.7802c-.0053,6.0042.2371,20.3884.066,29.9432-.2399,13.2993.4781,59.6845-.2923,63.8076-.1843.9893-1.5437.8354-3.0355.8315-1.4934-.0039-4.9217-.0012-8.9451.2519-4.7126.2962-8.9555,3.5211-9.2209,6.6253-.2479,2.8817,2.6936,5.1022,5.0835,6.0029,2.393.9045,11.3402.7737,14.1924.8292,1.0938.0207.5203.5997.6142,2.7469.8664,20.1325.3621,29.9715.9409,35.0292.4948,4.3281,3.2436,5.1229,6.7794,4.9564,3.6504-.1754,5.7717-3.3194,5.4867-7.8369-.1324-2.0883-1.0882-30.2916-.9583-33.5753.0553-1.3857.7094-.9987,2.0279-.9666,6.8608.1699,40.7376.6802,57.8644.2033,4.5518-.126,4.3093-.2871,4.3338,1.6175.1014,7.7237.6354,14.847.5415,19.5626-.1517,7.6018.6979,44.2362.742,62.1533.0279,12.844.042,39.8392,2.6661,43.3787,2.3279,3.1426,9.6546,6.4466,9.6234-.1978-.0119-2.5426-.0645-13.7348-.0848-18.0624-.0383-8.1607-.1492-20.8718-.4355-29.0429-.3454-9.8702-.0502-32.1362.6991-42.1779.7332-9.8474.0272-46.6734.4727-58.0877.7345-18.8196.501-60.3086,1.9322-82.597.7364-11.4974-1.0182-16.5099-1.5039-16.9863-1.4682-1.4411-8.1793-1.5893-8.587-.6173-.7479,1.7839-.7729,9.9676-1.5095,12.505-.7334,2.5382-1.9571,91.5462-2.536,94.981-.582,3.4324-1.4846,1.9364-3.2759,1.9317-1.7897-.0047-55.3752-1.3384-58.3554-.8974-2.9833.4387-4.4754.734-4.3322-.7592.1416-1.4909-.6365-8.3627-.0749-15.6777.5615-7.3151-.1896-70.7858-.065-76.1627.123-5.3769-.3575-12.2493-.3754-15.9838s-5.9963-5.5238-8.4398-3.9187c-1.2773.8388-.5852,6.2442-1.2914,6.951-1.1457,1.1485-.7432,6.2476-.7474,9.2393Z"/><g id="h" class="aa"><g class="s"><path class="t" d="M221.9718,114.2216c-1.7569,2.0275-3.9702,3.9856-4.9425,6.4824-1.0141,2.6042-.952,5.6304-1.245,8.3844-.6373,5.9902-1.2745,11.9805-1.9118,17.9707-1.308,12.2952-2.616,24.5905-3.9241,36.8857-1.2652,11.8929-2.5286,23.7859-3.7749,35.6809-.5879,5.6115-.909,11.3316-1.8212,16.9006-.0529.3232-.6863,3.9395-.4648,2.3418.1161-.8376-1.895,1.6478.2556-.2013-.5849.5029-1.3747.7657-1.9098,1.3468-1.4861,1.6137,2.3812-.5843,3.5827-.5422l9.277,1.6782,2.8503,1.3986c2.6472,7.555,5.2944,15.11,7.9415,22.665,1.7497-.9734,3.0164-2.7171,4.3245-4.1916l-4.3654,3.2157c4.1688-.7584,8.3351-2.7855,11.3472-5.7793,5.4092-5.3765,4.9721-11.6209.1558-17.4692-4.822-5.8552-15.1943-10.3913-22.2933-5.7816-3.515,2.2824-4.1509,5.8109-7.0964,6.8022l10.2741.8104c-3.0562-1.0492-1.7725-.152,3.8512,2.6915-5.7444-4.358-13.9125-8.5685-21.3884-6.1758-6.6963,2.1431-7.2917,8.4722-4.9773,14.2321,7.346,18.2824,45.0351,27.1897,47.8221,1.5611.7957-7.3175-.7966-15.2915-1.4951-22.5894-.7594-7.9344-1.5175-15.8688-2.2881-23.8021-1.488-15.3189-2.976-30.6379-4.4639-45.9568-.7779-8.0086-1.5558-16.0172-2.3337-24.0258-.3845-3.9589-.4835-8.0948-1.1669-12.0132-.7158-4.1044-3.4292-7.727-5.4399-11.2757-.7688-1.3568-3.1193-2.6983-4.3796-1.244h0Z"/><path class="t" d="M144.4439,123.8974c-2.4756,1.8804-5.149,3.4317-6.4013,6.3207-1.5341,3.5389-2.0074,8.1618-2.9257,11.8958l-2.7006,10.9805c-1.0786,4.3855-.4054,8.8138-.0927,13.2926.604,8.6525,21.6932,18.2881,23.6429,6.6031.6966-4.1749,1.3314-7.8971.7587-12.1287-.5501-4.0652-1.1003-8.1304-1.6504-12.1957s-1.1003-8.1306-1.6504-12.1959c-.5916-4.3715-3.3666-7.6687-5.719-11.3135-.5791-.8973-2.1601-2.0955-3.2614-1.259h0Z"/><path class="t" d="M149.3759,128.2247c11.1117,2.2631,22.2665,4.7938,33.5047,6.3276,5.2151.7118,10.4298,1.4258,15.6417,2.1605,5.9548.8395,14.0851,3.4426,19.7333.8364,11.5621-5.3351.3821-17.8919-7.3555-20.6939-10.7243-3.8836-23.6903-.0949-34.7654,1.4331-9.7057,1.3391-19.2754,3.7971-28.8813,5.7202-2.9523.591.8853,3.964,2.1226,4.216h0Z"/><path class="ag" d="M148.9551,3.7479c-1.8324-7.5248-14.6264-10.6886-16.3824-1.4957-.4357,2.2808.1225,4.49.2697,6.7637.2454,3.7876-.8391,6.8167-2.0412,10.3227-1.7906,5.2224-4.4495,10.8713-4.5911,16.409-.3084,12.0585-.1645,24.191-.0682,36.2534.0497,6.2253,1.6625,12.2832,2.8841,18.3678,1.4182,7.0639,1.3129,13.8837,1.3004,21.0727-.0089,5.0793,11.3255,9.8426,11.3352,4.2815.0091-5.18-.5862-10.7844.1643-15.9143.6296-4.3035,2.0036-8.6174,2.988-12.8509,2.1026-9.0428,1.1843-18.7251,1.2005-27.9778.0086-4.915.0627-9.8323.0287-14.7471-.0348-5.0226-1.1107-9.4395-2.3309-14.309-1.1604-4.6307-3.0792-9.8014-3.4797-14.5801-.1545-1.8439.677-6.1412,1.9916-7.735.3873-.9339,1.0502-1.3869,1.9884-1.359,1.6366-.2429,1.7433-.2701.32-.0815l-3.9018-1.8952.8458.667c1.7545,1.3837,8.5918,3.3785,7.4788-1.1922h0Z"/><path class="ag" d="M124.1537,109.9585c-4.0048.2031-11.8338,1.0056-13.1841,5.7021-1.2248,4.2601,2.1838,10.6263,6.3263,11.9677,1.8269.5915,4.7148.7966,5.1815-1.6538.4611-2.4207-2.4683-4.4531-4.2922-5.2322l-.3174-.1356,3.2716,2.3309c.8371.986.4689.808.2129-.2088-.082-.3259-.2121-.6566-.2784-.9836-.2229-1.0988.0903-2.2915.4772-3.3642.8394-2.3276,2.965-4.1567,4.9124-5.56,1.5368-1.1074-1.2898-2.9142-2.3098-2.8625h0Z"/><path class="ag" d="M225.4797,5.124c-.081-2.7287-2.3583-4.5127-4.8853-5.2253-3.4719-.9792-6.1745.7692-7.5101,3.9421-2.0297,4.822-2.4973,10.7856-3.3087,15.9195-.9693,6.1327-1.2008,12.2261-1.3564,18.4274-.2994,11.9326-.3856,23.8063-1.1539,35.722-.3666,5.6858-.7332,11.3716-1.0998,17.0574-.3981,6.1741-1.1846,13.4605.7438,19.3932,1.1614,3.5733,3.9869,6.2578,7.5044,7.5753,2.3058.8637,7.4172,1.6204,8.6441-1.4202,3.3903-8.4025,1.1207-19.5258.558-28.3922-.613-9.6592-1.3482-19.3044-1.4839-28.9836-.1341-9.5656.1452-19.1493-.0275-28.7081-.0856-4.7382-.3249-9.4619-.287-14.2036.0185-2.3061-.3237-5.1295.2114-7.3817-.0393-1.0773.3546-1.983,1.182-2.7171,1.2359-.6114.9247-.7713-.9336-.4797.6417.4228,3.2495,1.0529,3.2026-.5253h0Z"/><path class="ag" d="M173.8584,113.9376c2.729,1.9477,5.0667,3.715,8.4675,4.0947,3.6054.4025,7.3064.4283,10.9269.6406,7.616.4465,15.232.893,22.848,1.3395,2.1379.1253,4.3972-1.31,4.6915-3.5159.552-4.137-3.7364-7.503-7.23-8.8133-4.7568-1.7841-11.2614-.3245-16.2249-.0459-5.0003.2807-10.0005.5615-15.0008.8422-4.6287.2599-6.9604.0128-9.0286,4.3649-.2173.4572.2169.8552.5504,1.0932h0Z"/></g></g><path id="k" class="z" d="M136.234,16.7802c-.0053,6.0042.2371,20.3884.066,29.9432-.2399,13.2993.4781,59.6845-.2923,63.8076-.1843.9893-1.5437.8354-3.0355.8315-1.4934-.0039-4.9217-.0012-8.9451.2519-4.7126.2962-8.9555,3.5211-9.2209,6.6253-.2479,2.8817,2.6936,5.1022,5.0835,6.0029,2.393.9045,11.3402.7737,14.1924.8292,1.0938.0207.5203.5997.6142,2.7469.8664,20.1325.3621,29.9715.9409,35.0292.4948,4.3281,3.2436,5.1229,6.7794,4.9564,3.6504-.1754,5.7717-3.3194,5.4867-7.8369-.1324-2.0883-1.0882-30.2916-.9583-33.5753.0553-1.3857.7094-.9987,2.0279-.9666,6.8608.1699,40.7376.6802,57.8644.2033,4.5518-.126,4.3093-.2871,4.3338,1.6175.1014,7.7237.6354,14.847.5415,19.5626-.1517,7.6018.6979,44.2362.742,62.1533.0279,12.844.042,39.8392,2.6661,43.3787,2.3279,3.1426,9.6546,6.4466,9.6234-.1978-.0119-2.5426-.0645-13.7348-.0848-18.0624-.0383-8.1607-.1492-20.8718-.4355-29.0429-.3454-9.8702-.0502-32.1362.6991-42.1779.7332-9.8474.0272-46.6734.4727-58.0877.7345-18.8196.501-60.3086,1.9322-82.597.7364-11.4974-1.0182-16.5099-1.5039-16.9863-1.4682-1.4411-8.1793-1.5893-8.587-.6173-.7479,1.7839-.7729,9.9676-1.5095,12.505-.7334,2.5382-1.9571,91.5462-2.536,94.981-.582,3.4324-1.4846,1.9364-3.2759,1.9317-1.7897-.0047-55.3752-1.3384-58.3554-.8974-2.9833.4387-4.4754.734-4.3322-.7592.1416-1.4909-.6365-8.3627-.0749-15.6777.5615-7.3151-.1896-70.7858-.065-76.1627.123-5.3769-.3575-12.2493-.3754-15.9838s-5.9963-5.5238-8.4398-3.9187c-1.2773.8388-.5852,6.2442-1.2914,6.951-1.1457,1.1485-.7432,6.2476-.7474,9.2393Z"/><path id="m" class="x" d="M180.6287,48.4639c-4.3419-4.943-13.0366-13.5606-23.1847-17.9684-10.3187-4.4832-29.22-7.2612-43.0059-5.737-19.1641,2.1193-30.6212,8.8938-42.6745,15.8812-12.0512,6.9886-22.5374,19.6815-30.1466,31.4804-7.4044,11.4781-12.1743,27.6495-13.0033,40.5019-.9025,13.9569,3.5051,30.3901,6.3071,38.6821,2.8082,8.3199,10.9554,24.0618,25.2411,37.1648,14.6109,13.3992,25.368,16.7396,40.6767,20.263,15.7573,3.6254,39.9821-.8609,48.3242-3.6743,8.3425-2.8151,22.6157-14.0476,24.6947-15.6833,2.0807-1.6366,9.4328-10.2497,10.823-15.0519.7347-2.5362-4.7797-6.227-5.9967-5.7638-1.429.545-7.9403,8.0662-16.5463,14.8677-7.6781,6.0652-28.2889,13.4519-40.0542,14.6203-19.6961,1.9589-30.4109-1.5294-40.2361-7.7948-30.2902-19.313-35.2168-36.1447-37.0397-39.9575-5.8849-12.3044-9.2814-36.9893-3.9617-52.8691,8.9501-26.7158,21.0152-34.8351,25.381-38.788,4.4923-4.0672,22.4901-17.5994,44.9933-21.4145,15.4209-2.6166,28.0182-.0472,35.0638,2.3844,7.007,2.4176,15.0921,7.714,18.784,11.2187,5.569,5.2941,10.0988,10.3413,12.7003,13.5945.7139.8956,7.897,1.5053,8.6244-1.2953.7594-2.9199-.0199-8.1268-5.7638-14.661Z"/><g id="n" class="v"><g class="ac"><path class="q" d="M144.2423,24.8854c-8.468-3.3812-16.4602-5.426-25.6157-5.2167-8.5776.1961-17.1896,1.4221-25.4973,3.561-16.2257,4.1774-32.6737,12.4954-45.1092,23.8188-12.8121,11.6662-21.657,26.152-26.7294,42.6626-4.7035,15.3103-4.4347,31.3935-1.5731,47.0472,3.3569,18.3632,10.1422,36.2629,20.6609,51.7165,3.1578,4.6393,10.9552,8.1287,16.4484,6.3707,5.9254-1.8964,4.6103-7.9549,1.7529-11.8914-7.6718-10.569-12.9766-24.0526-16.2581-37.1058-3.425-13.6235-5.0733-27.7752-2.3839-41.6737,5.624-29.0641,25.9795-57.2816,53.9896-68.0034,8.2743-3.1673,16.975-5.286,25.8002-6.1109,4.225-.3949,8.4823-.0807,12.6878-.435,4.2098-.3547,8.2902-1.1601,12.544-1.2566,2.6874-.0609.5574-2.9742-.7171-3.4832h0Z"/><path class="ah" d="M176.7141,167.912c-4.0198,2.4454-8.1743,4.6621-12.5019,6.5156-3.9304,1.6833-7.4285,4.017-11.2154,6.001-8.3434,4.3712-17.524,7.5579-26.8211,9.1135-18.9997,3.1789-36.6466-2.0252-50.2185-15.752-2.6469-2.6771-8.787-4.8654-12.129-2.3003-3.7201,2.8554-.4563,7.379,1.8802,9.7421,17.2229,17.4195,41.0862,24.7062,65.1138,20.5036,10.2319-1.7896,20.0002-5.597,29.0628-10.6297,4.2043-2.3348,8.9486-4.849,12.1152-8.5103,3.2121-3.7139,6.0925-7.6707,8.6575-11.8567,1.1322-1.8478-2.5417-3.6795-3.9436-2.8267h0Z"/><path d="M177.6787,62.4174c-3.6646-11.5667-18.0412-19.9535-28.3478-24.8244-13.6475-6.4499-27.3685-7.5058-42.0842-4.3428-14.9797,3.2197-29.4588,9.9917-41.3912,19.6157-6.0306,4.8639-11.5177,10.5068-16.1626,16.7121-3.4066,4.551-10.3087,13.0667-7.0015,18.7937.5932,1.0273,1.944,2.055,3.2067,1.9031,5.4858-.66,8.1522-8.5876,11.0524-12.754,3.7696-5.4154,8.1846-10.3357,13.1111-14.7217,10.4135-9.271,22.7433-15.9439,36.0924-19.9096,12.9429-3.845,25.96-4.6803,38.8298-.2041,12.0257,4.1827,22.1374,11.1189,31.1652,19.9759.3308.3246,1.8111.6441,1.5297-.2439h0Z"/><g class="r"><path d="M182.5883,170.254c.7352,8.1767-8.0567,14.0513-14.0167,18.4347-9.4924,6.9814-20.3489,13.4736-31.8674,16.3179-12.3823,3.0576-25.5846,2.4346-38.0275.0187-12.0273-2.3351-23.5787-5.3171-33.543-12.848-.4381-.3311-1.371-.3003-.8852.43,6.3735,9.5816,14.8483,15.1507,25.8467,17.848,10.0073,2.4543,20.0928,4.0365,30.4104,4.1879,24.2801.3563,46.1396-10.0204,61.3598-28.9536,2.7996-3.4826,9.8342-14.1302,1.6519-16.1358-.5118-.1254-.9778.1561-.9289.7002h0Z"/></g></g></g><g id="p" class="ab"><g class="u"><path class="af" d="M55.3081,57.5597c8.5063-7.7587,17.2616-15.1075,27.5629-20.3946,5.3498-2.7458,10.9442-4.9844,16.7418-6.5899,5.4546-1.5106,11.6929-1.2843,16.8697-3.4096.4909-.2015-.1049-.7195-.3879-.7705-5.2822-.9516-11.1878.7019-16.2713,2.1298-5.593,1.571-11.006,3.7552-16.1649,6.4221-10.7564,5.5606-20.7247,13.1979-28.4568,22.5365-.0337.0407.0714.1082.1064.0763h0Z"/></g><g class="u"><path class="af" d="M140.7471,2.5988c.2374,0,.011-.2987-.1504-.2987-.2374,0-.011.2987.1504.2987h0Z"/></g><g class="u"><path class="w" d="M138.6991,11.7133c.1974-1.6189.3949-3.2379.5923-4.8568.1637-1.3422.6295-3.3764.2614-4.7097.1471.5326,1.4946,1.0075,1.3254.2384-.2374-1.0789-1.6953-1.6655-2.4552-.7229-.7445.9235-.4844,2.8194-.4611,3.9104.042,1.9703.086,3.9406.1289,5.9108.0054.2481.5683.5575.6083.2298h0Z"/></g><g class="u"><path class="w" d="M118.385,117.9078c.7886-1.149,1.8018-2.023,2.8814-2.8857.4738-.3786.9838-.7149,1.5236-.9923.5155-.2649,1.0964-.3264,1.4393-.8089.178-.2505-.2751-.5525-.4706-.5776-1.2512-.1606-2.6848.8634-3.6078,1.6345-1.0591.8848-1.6841,2.1728-2.1197,3.4595-.0483.1426.2667.2976.3538.1706h0Z"/></g><g class="u"><path class="w" d="M219.0239,14.0141c.137-1.3608.3207-2.728.3907-4.0934.0592-1.155-.393-3.4333,1.2724-3.6354.7027-.0853.3716-.7816-.0408-1.0354-4.1789-2.5717-2.7181,6.935-2.5909,8.4937.0286.3505.9202.7508.9686.2705h0Z"/></g></g></g></g></svg>