<svg id="web_logo" data-name="web logo" xmlns="http://www.w3.org/2000/svg" viewBox="0 0 85.69 80.28"><defs><style>.cls-1{fill:#fff;}</style></defs><path class="cls-1" d="M321.16,216.39a2.52,2.52,0,1,0-5,0V233l9.55,9.55-8.32,8.32a2.52,2.52,0,0,0,1.78,4.29h8.06l5.66-5.43.63.63v14.37a2.51,2.51,0,0,0,2.52,2.51h15.1a2.52,2.52,0,1,0,0-5h-12.6V249.63a2.52,2.52,0,0,0-.74-1.78l-16.61-16.61Z" transform="translate(-299.15 -213.87)"/><path class="cls-1" d="M336.78,274.52l-18.15-18.15a2.52,2.52,0,0,0-4.29,1.78v17.37l-14.46,14.33a2.52,2.52,0,0,0,3.56,3.56L318,278.83h17a2.55,2.55,0,0,0,1.78-.74A2.52,2.52,0,0,0,336.78,274.52ZM319.14,274V263.94L329.21,274Z" transform="translate(-299.15 -213.87)"/><path class="cls-1" d="M336.26,231.49a5.54,5.54,0,0,0,0,11Z" transform="translate(-299.15 -213.87)"/><path class="cls-1" d="M337.77,231.49v11a5.54,5.54,0,0,0,0-11Z" transform="translate(-299.15 -213.87)"/><path class="cls-1" d="M384.08,264.21H360.62a5.53,5.53,0,0,0-5.48-4.79V270.5a5.53,5.53,0,0,0,5.48-4.78h23.46a.75.75,0,0,0,.75-.76A.74.74,0,0,0,384.08,264.21Z" transform="translate(-299.15 -213.87)"/></svg>