<?xml version="1.0" encoding="UTF-8"?>
<!-- Generator: Adobe Illustrator 14.0.0, SVG Export Plug-In  -->
<svg width="256" height="256" enable-background="new 227.272 228.689 57 55" version="1.1" viewBox="227.27 228.69 3.5556 3.5556" xml:space="preserve" xmlns="http://www.w3.org/2000/svg">










































<g fill="#108090"><g fill="#108090"><g fill="#108090"><g fill="#666"><g fill="#666"><g fill="#666"><g fill="#108090" stroke-width=".062872"><rect transform="scale(1,-1)" x="227.27" y="-229.05" width=".36111" height=".36111"/><rect x="229.91" y="228.69" width=".36111" height=".36111"/><rect x="229.38" y="228.69" width=".36111" height=".36111"/><rect x="228.86" y="228.69" width=".36111" height=".36111"/><rect x="228.33" y="228.69" width=".36111" height=".36111"/><rect transform="scale(1,-1)" x="227.8" y="-229.05" width=".36111" height=".36111"/><rect x="230.44" y="228.69" width=".36111" height=".36111"/><g transform="translate(-3.1738e-6 .63889)"><rect transform="scale(1,-1)" x="227.27" y="-229.05" width=".36111" height=".36111"/><rect x="229.91" y="228.69" width=".36111" height=".36111"/><rect x="229.38" y="228.69" width=".36111" height=".36111"/><rect x="228.86" y="228.69" width=".36111" height=".36111"/><rect x="228.33" y="228.69" width=".36111" height=".36111"/><rect transform="scale(1,-1)" x="227.8" y="-229.05" width=".36111" height=".36111"/><rect x="230.44" y="228.69" width=".36111" height=".36111"/></g><g transform="translate(-3.1738e-6 1.2778)"><rect transform="scale(1,-1)" x="227.27" y="-229.05" width=".36111" height=".36111"/><rect x="229.91" y="228.69" width=".36111" height=".36111"/><rect x="229.38" y="228.69" width=".36111" height=".36111"/><rect x="228.86" y="228.69" width=".36111" height=".36111"/><rect x="228.33" y="228.69" width=".36111" height=".36111"/><rect transform="scale(1,-1)" x="227.8" y="-229.05" width=".36111" height=".36111"/><rect x="230.44" y="228.69" width=".36111" height=".36111"/></g><g transform="translate(-3.1738e-6 1.9167)"><rect transform="scale(1,-1)" x="227.27" y="-229.05" width=".36111" height=".36111"/><rect x="229.91" y="228.69" width=".36111" height=".36111"/><rect x="229.38" y="228.69" width=".36111" height=".36111"/><rect x="228.86" y="228.69" width=".36111" height=".36111"/><rect x="228.33" y="228.69" width=".36111" height=".36111"/><rect transform="scale(1,-1)" x="227.8" y="-229.05" width=".36111" height=".36111"/><rect x="230.44" y="228.69" width=".36111" height=".36111"/></g><g transform="translate(-3.1738e-6 2.5556)"><rect transform="scale(1,-1)" x="227.27" y="-229.05" width=".36111" height=".36111"/><rect x="229.91" y="228.69" width=".36111" height=".36111"/><rect x="229.38" y="228.69" width=".36111" height=".36111"/><rect x="228.86" y="228.69" width=".36111" height=".36111"/><rect x="228.33" y="228.69" width=".36111" height=".36111"/><rect transform="scale(1,-1)" x="227.8" y="-229.05" width=".36111" height=".36111"/><rect x="230.44" y="228.69" width=".36111" height=".36111"/></g><g transform="translate(-3.1738e-6 3.1944)"><rect transform="scale(1,-1)" x="227.27" y="-229.05" width=".36111" height=".36111"/><rect x="229.91" y="228.69" width=".36111" height=".36111"/><rect x="229.38" y="228.69" width=".36111" height=".36111"/><rect x="228.86" y="228.69" width=".36111" height=".36111"/><rect x="228.33" y="228.69" width=".36111" height=".36111"/><rect transform="scale(1,-1)" x="227.8" y="-229.05" width=".36111" height=".36111"/><rect x="230.44" y="228.69" width=".36111" height=".36111"/></g></g></g></g></g></g></g></g>
</svg>
