<?xml version="1.0" encoding="utf-8"?>
<!-- Generator: Adobe Illustrator 14.0.0, SVG Export Plug-In  -->
<!DOCTYPE svg PUBLIC "-//W3C//DTD SVG 1.1//EN" "http://www.w3.org/Graphics/SVG/1.1/DTD/svg11.dtd" [
	<!ENTITY ns_flows "http://ns.adobe.com/Flows/1.0/">
]>
<svg version="1.1"
	 xmlns="http://www.w3.org/2000/svg" xmlns:xlink="http://www.w3.org/1999/xlink" xmlns:a="http://ns.adobe.com/AdobeSVGViewerExtensions/3.0/"
	 x="0px" y="0px" width="57px" height="55px" viewBox="227.272 228.689 57 55" enable-background="new 227.272 228.689 57 55"
	 xml:space="preserve">
<defs>
</defs>
<text transform="matrix(1 0 0 1 255.8687 272.626)" display="none" font-family="'Helvetica'" font-size="10">129</text>
<rect x="255.866" y="227.27" display="none" fill="#FFD637" width="34.015" height="34.017"/>
<rect x="0.5" y="0.5" display="none" fill="none" stroke="#800080" stroke-width="0.5" width="648.28" height="504.283"/>
<rect x="0.5" y="0.5" display="none" fill="none" stroke="#008000" stroke-width="0.5" width="679.745" height="480.756"/>
<rect x="0.5" y="0.5" display="none" fill="none" stroke="#ED5100" stroke-width="0.5" width="700.153" height="466.867"/>
<rect x="0.5" y="0.5" display="none" fill="none" stroke="#0A1F62" stroke-width="0.5" width="762.233" height="428.883"/>
<rect x="0.5" y="0.5" display="none" fill="none" stroke="#000000" width="660.187" height="495.213"/>
<rect x="227.272" y="228.689" fill="#666666" width="5.67" height="5.818"/>
<rect x="269.792" y="228.689" fill="#666666" width="5.67" height="5.818"/>
<rect x="261.288" y="228.689" fill="#666666" width="5.67" height="5.818"/>
<rect x="252.784" y="228.689" fill="#666666" width="5.67" height="5.818"/>
<rect x="244.28" y="228.689" fill="#666666" width="5.67" height="5.818"/>
<rect x="235.776" y="228.689" fill="#666666" width="5.67" height="5.818"/>
<rect x="278.295" y="228.689" fill="#666666" width="5.67" height="5.818"/>
<rect x="227.272" y="238.58" fill="#666666" width="5.67" height="5.819"/>
<rect x="269.792" y="238.58" fill="#666666" width="5.67" height="5.819"/>
<rect x="261.288" y="238.58" fill="#666666" width="5.67" height="5.819"/>
<rect x="252.784" y="238.58" fill="#666666" width="5.67" height="5.819"/>
<rect x="244.28" y="238.58" fill="#666666" width="5.67" height="5.819"/>
<rect x="235.776" y="238.58" fill="#666666" width="5.67" height="5.819"/>
<rect x="278.295" y="238.58" fill="#666666" width="5.67" height="5.819"/>
<rect x="227.272" y="248.472" fill="#666666" width="5.67" height="5.819"/>
<rect x="269.792" y="248.472" fill="#666666" width="5.67" height="5.819"/>
<rect x="261.288" y="248.472" fill="#666666" width="5.67" height="5.819"/>
<rect x="252.784" y="248.472" fill="#666666" width="5.67" height="5.819"/>
<rect x="244.28" y="248.472" fill="#666666" width="5.67" height="5.819"/>
<rect x="235.776" y="248.472" fill="#666666" width="5.67" height="5.819"/>
<rect x="278.295" y="248.472" fill="#666666" width="5.67" height="5.819"/>
<rect x="227.272" y="258.362" fill="#666666" width="5.67" height="5.819"/>
<rect x="269.792" y="258.362" fill="#666666" width="5.67" height="5.819"/>
<rect x="261.288" y="258.362" fill="#666666" width="5.67" height="5.819"/>
<rect x="252.784" y="258.362" fill="#666666" width="5.67" height="5.819"/>
<rect x="244.28" y="258.362" fill="#666666" width="5.67" height="5.819"/>
<rect x="235.776" y="258.362" fill="#666666" width="5.67" height="5.819"/>
<rect x="278.295" y="258.362" fill="#666666" width="5.67" height="5.819"/>
<rect x="227.272" y="268.254" fill="#666666" width="5.67" height="5.819"/>
<rect x="269.792" y="268.254" fill="#666666" width="5.67" height="5.819"/>
<rect x="261.288" y="268.254" fill="#666666" width="5.67" height="5.819"/>
<rect x="252.784" y="268.254" fill="#666666" width="5.67" height="5.819"/>
<rect x="244.28" y="268.254" fill="#666666" width="5.67" height="5.819"/>
<rect x="235.776" y="268.254" fill="#666666" width="5.67" height="5.819"/>
<rect x="278.295" y="268.254" fill="#666666" width="5.67" height="5.819"/>
<rect x="227.272" y="278.146" fill="#666666" width="5.67" height="5.818"/>
<rect x="269.792" y="278.146" fill="#666666" width="5.67" height="5.818"/>
<rect x="261.288" y="278.146" fill="#666666" width="5.67" height="5.818"/>
<rect x="252.784" y="278.146" fill="#666666" width="5.67" height="5.818"/>
<rect x="244.28" y="278.146" fill="#666666" width="5.67" height="5.818"/>
<rect x="235.776" y="278.146" fill="#666666" width="5.67" height="5.818"/>
<rect x="278.295" y="278.146" fill="#666666" width="5.67" height="5.818"/>
</svg>
