<?xml version="1.0" encoding="utf-8"?>
<!-- Generator: Adobe Illustrator 14.0.0, SVG Export Plug-In . SVG Version: 6.00 Build 43363)  -->
<!DOCTYPE svg PUBLIC "-//W3C//DTD SVG 1.1//EN" "http://www.w3.org/Graphics/SVG/1.1/DTD/svg11.dtd">
<svg version="1.1" xmlns="http://www.w3.org/2000/svg" xmlns:xlink="http://www.w3.org/1999/xlink" x="0px" y="0px"
	 width="56.693px" height="55.275px" viewBox="0 0 56.693 55.275" enable-background="new 0 0 56.693 55.275" xml:space="preserve">
<pattern  x="-226.771" y="-143.15" width="72" height="72" patternUnits="userSpaceOnUse" id="Anhydrite" viewBox="24.212 -72.212 72 72" overflow="visible">
	<g>
		<polygon fill="none" points="24.212,-0.212 24.212,-72.212 96.212,-72.212 96.212,-0.212 		"/>
		<line fill="#FFFFFF" x1="8.212" y1="-6.212" x2="14.212" y2="-0.212"/>
		<line fill="#FFFFFF" x1="8.212" y1="-0.212" x2="14.212" y2="-6.212"/>
		
			<line fill="none" stroke="#000000" stroke-width="0.3" stroke-linecap="square" stroke-linejoin="bevel" x1="24.212" y1="-72.212" x2="96.212" y2="-0.212"/>
		
			<line fill="none" stroke="#000000" stroke-width="0.3" stroke-linecap="square" stroke-linejoin="bevel" x1="21.211" y1="-69.213" x2="90.212" y2="-0.212"/>
		
			<line fill="none" stroke="#000000" stroke-width="0.3" stroke-linecap="square" stroke-linejoin="bevel" x1="21.207" y1="-63.217" x2="84.212" y2="-0.212"/>
		
			<line fill="none" stroke="#000000" stroke-width="0.3" stroke-linecap="square" stroke-linejoin="bevel" x1="21.203" y1="-57.221" x2="78.212" y2="-0.212"/>
		
			<line fill="none" stroke="#000000" stroke-width="0.3" stroke-linecap="square" stroke-linejoin="bevel" x1="21.199" y1="-51.225" x2="72.212" y2="-0.212"/>
		
			<line fill="none" stroke="#000000" stroke-width="0.3" stroke-linecap="square" stroke-linejoin="bevel" x1="21.196" y1="-45.228" x2="66.212" y2="-0.212"/>
		
			<line fill="none" stroke="#000000" stroke-width="0.3" stroke-linecap="square" stroke-linejoin="bevel" x1="21.192" y1="-39.231" x2="60.212" y2="-0.212"/>
		
			<line fill="none" stroke="#000000" stroke-width="0.3" stroke-linecap="square" stroke-linejoin="bevel" x1="21.188" y1="-33.236" x2="54.212" y2="-0.212"/>
		
			<line fill="none" stroke="#000000" stroke-width="0.3" stroke-linecap="square" stroke-linejoin="bevel" x1="21.185" y1="-27.24" x2="48.212" y2="-0.212"/>
		
			<line fill="none" stroke="#000000" stroke-width="0.3" stroke-linecap="square" stroke-linejoin="bevel" x1="21.181" y1="-21.243" x2="42.212" y2="-0.212"/>
		
			<line fill="none" stroke="#000000" stroke-width="0.3" stroke-linecap="square" stroke-linejoin="bevel" x1="21.177" y1="-15.247" x2="36.212" y2="-0.212"/>
		
			<line fill="none" stroke="#000000" stroke-width="0.3" stroke-linecap="square" stroke-linejoin="bevel" x1="21.173" y1="-9.251" x2="30.212" y2="-0.212"/>
		
			<line fill="none" stroke="#000000" stroke-width="0.3" stroke-linecap="square" stroke-linejoin="bevel" x1="21.17" y1="-3.255" x2="24.212" y2="-0.212"/>
		
			<line fill="none" stroke="#000000" stroke-width="0.3" stroke-linecap="square" stroke-linejoin="bevel" x1="30.212" y1="-72.212" x2="99.213" y2="-3.21"/>
		
			<line fill="none" stroke="#000000" stroke-width="0.3" stroke-linecap="square" stroke-linejoin="bevel" x1="36.212" y1="-72.212" x2="99.217" y2="-9.206"/>
		
			<line fill="none" stroke="#000000" stroke-width="0.3" stroke-linecap="square" stroke-linejoin="bevel" x1="42.212" y1="-72.212" x2="99.221" y2="-15.202"/>
		
			<line fill="none" stroke="#000000" stroke-width="0.3" stroke-linecap="square" stroke-linejoin="bevel" x1="48.212" y1="-72.212" x2="99.225" y2="-21.199"/>
		
			<line fill="none" stroke="#000000" stroke-width="0.3" stroke-linecap="square" stroke-linejoin="bevel" x1="54.212" y1="-72.212" x2="99.228" y2="-27.195"/>
		
			<line fill="none" stroke="#000000" stroke-width="0.3" stroke-linecap="square" stroke-linejoin="bevel" x1="60.212" y1="-72.212" x2="99.232" y2="-33.19"/>
		
			<line fill="none" stroke="#000000" stroke-width="0.3" stroke-linecap="square" stroke-linejoin="bevel" x1="66.212" y1="-72.212" x2="99.236" y2="-39.187"/>
		
			<line fill="none" stroke="#000000" stroke-width="0.3" stroke-linecap="square" stroke-linejoin="bevel" x1="72.212" y1="-72.212" x2="99.24" y2="-45.184"/>
		
			<line fill="none" stroke="#000000" stroke-width="0.3" stroke-linecap="square" stroke-linejoin="bevel" x1="78.212" y1="-72.212" x2="99.243" y2="-51.18"/>
		
			<line fill="none" stroke="#000000" stroke-width="0.3" stroke-linecap="square" stroke-linejoin="bevel" x1="84.212" y1="-72.212" x2="99.247" y2="-57.176"/>
		
			<line fill="none" stroke="#000000" stroke-width="0.3" stroke-linecap="square" stroke-linejoin="bevel" x1="90.212" y1="-72.212" x2="99.25" y2="-63.172"/>
		
			<line fill="none" stroke="#000000" stroke-width="0.3" stroke-linecap="square" stroke-linejoin="bevel" x1="96.212" y1="-72.212" x2="99.255" y2="-69.169"/>
		
			<line fill="none" stroke="#000000" stroke-width="0.3" stroke-linecap="square" stroke-linejoin="bevel" x1="0.212" y1="-68.712" x2="10.212" y2="-58.712"/>
		
			<line fill="none" stroke="#000000" stroke-width="0.3" stroke-linecap="square" stroke-linejoin="bevel" x1="96.212" y1="-72.212" x2="24.212" y2="-0.212"/>
		
			<line fill="none" stroke="#000000" stroke-width="0.3" stroke-linecap="square" stroke-linejoin="bevel" x1="90.212" y1="-72.212" x2="21.211" y2="-3.21"/>
		
			<line fill="none" stroke="#000000" stroke-width="0.3" stroke-linecap="square" stroke-linejoin="bevel" x1="84.212" y1="-72.212" x2="21.207" y2="-9.206"/>
		
			<line fill="none" stroke="#000000" stroke-width="0.3" stroke-linecap="square" stroke-linejoin="bevel" x1="78.212" y1="-72.212" x2="21.203" y2="-15.202"/>
		
			<line fill="none" stroke="#000000" stroke-width="0.3" stroke-linecap="square" stroke-linejoin="bevel" x1="72.212" y1="-72.212" x2="21.199" y2="-21.198"/>
		
			<line fill="none" stroke="#000000" stroke-width="0.3" stroke-linecap="square" stroke-linejoin="bevel" x1="66.212" y1="-72.212" x2="21.196" y2="-27.195"/>
		
			<line fill="none" stroke="#000000" stroke-width="0.3" stroke-linecap="square" stroke-linejoin="bevel" x1="60.212" y1="-72.212" x2="21.192" y2="-33.19"/>
		
			<line fill="none" stroke="#000000" stroke-width="0.3" stroke-linecap="square" stroke-linejoin="bevel" x1="54.212" y1="-72.212" x2="21.188" y2="-39.187"/>
		
			<line fill="none" stroke="#000000" stroke-width="0.3" stroke-linecap="square" stroke-linejoin="bevel" x1="48.212" y1="-72.212" x2="21.185" y2="-45.183"/>
		
			<line fill="none" stroke="#000000" stroke-width="0.3" stroke-linecap="square" stroke-linejoin="bevel" x1="42.212" y1="-72.212" x2="21.181" y2="-51.18"/>
		
			<line fill="none" stroke="#000000" stroke-width="0.3" stroke-linecap="square" stroke-linejoin="bevel" x1="36.212" y1="-72.212" x2="21.177" y2="-57.176"/>
		
			<line fill="none" stroke="#000000" stroke-width="0.3" stroke-linecap="square" stroke-linejoin="bevel" x1="30.212" y1="-72.212" x2="21.173" y2="-63.172"/>
		
			<line fill="none" stroke="#000000" stroke-width="0.3" stroke-linecap="square" stroke-linejoin="bevel" x1="24.212" y1="-72.212" x2="21.17" y2="-69.168"/>
		
			<line fill="none" stroke="#000000" stroke-width="0.3" stroke-linecap="square" stroke-linejoin="bevel" x1="99.213" y1="-69.213" x2="30.212" y2="-0.212"/>
		
			<line fill="none" stroke="#000000" stroke-width="0.3" stroke-linecap="square" stroke-linejoin="bevel" x1="99.217" y1="-63.217" x2="36.212" y2="-0.212"/>
		
			<line fill="none" stroke="#000000" stroke-width="0.3" stroke-linecap="square" stroke-linejoin="bevel" x1="99.221" y1="-57.221" x2="42.212" y2="-0.212"/>
		
			<line fill="none" stroke="#000000" stroke-width="0.3" stroke-linecap="square" stroke-linejoin="bevel" x1="99.225" y1="-51.225" x2="48.212" y2="-0.212"/>
		
			<line fill="none" stroke="#000000" stroke-width="0.3" stroke-linecap="square" stroke-linejoin="bevel" x1="99.228" y1="-45.228" x2="54.212" y2="-0.212"/>
		
			<line fill="none" stroke="#000000" stroke-width="0.3" stroke-linecap="square" stroke-linejoin="bevel" x1="99.232" y1="-39.231" x2="60.212" y2="-0.212"/>
		
			<line fill="none" stroke="#000000" stroke-width="0.3" stroke-linecap="square" stroke-linejoin="bevel" x1="99.236" y1="-33.236" x2="66.212" y2="-0.212"/>
		
			<line fill="none" stroke="#000000" stroke-width="0.3" stroke-linecap="square" stroke-linejoin="bevel" x1="99.24" y1="-27.239" x2="72.212" y2="-0.212"/>
		
			<line fill="none" stroke="#000000" stroke-width="0.3" stroke-linecap="square" stroke-linejoin="bevel" x1="99.243" y1="-21.243" x2="78.212" y2="-0.212"/>
		
			<line fill="none" stroke="#000000" stroke-width="0.3" stroke-linecap="square" stroke-linejoin="bevel" x1="99.247" y1="-15.247" x2="84.212" y2="-0.212"/>
		
			<line fill="none" stroke="#000000" stroke-width="0.3" stroke-linecap="square" stroke-linejoin="bevel" x1="99.25" y1="-9.251" x2="90.212" y2="-0.212"/>
		
			<line fill="none" stroke="#000000" stroke-width="0.3" stroke-linecap="square" stroke-linejoin="bevel" x1="99.255" y1="-3.254" x2="96.212" y2="-0.212"/>
		
			<line fill="none" stroke="#000000" stroke-width="0.3" stroke-linecap="square" stroke-linejoin="bevel" x1="0.212" y1="-58.712" x2="10.212" y2="-68.712"/>
	</g>
</pattern>
<pattern  x="-226.771" y="-143.15" width="71.999" height="72" patternUnits="userSpaceOnUse" id="Gypsum" viewBox="28.856 -76.621 71.999 72" overflow="visible">
	<g>
		<polygon fill="none" points="28.856,-4.621 28.856,-76.621 100.855,-76.621 100.855,-4.621 		"/>
		<line fill="#FFFFFF" x1="5.106" y1="-10.621" x2="11.106" y2="-4.621"/>
		<line fill="#FFFFFF" x1="5.106" y1="-4.621" x2="11.106" y2="-10.621"/>
		
			<line fill="none" stroke="#000000" stroke-width="0.3" stroke-linejoin="round" x1="21.372" y1="-66.105" x2="39.371" y2="-84.105"/>
		
			<line fill="none" stroke="#000000" stroke-width="0.3" stroke-linejoin="round" x1="21.372" y1="-60.105" x2="45.371" y2="-84.105"/>
		
			<line fill="none" stroke="#000000" stroke-width="0.3" stroke-linejoin="round" x1="21.372" y1="-54.105" x2="51.371" y2="-84.105"/>
		
			<line fill="none" stroke="#000000" stroke-width="0.3" stroke-linejoin="round" x1="21.372" y1="-48.105" x2="57.371" y2="-84.105"/>
		
			<line fill="none" stroke="#000000" stroke-width="0.3" stroke-linejoin="round" x1="21.372" y1="-42.105" x2="63.371" y2="-84.105"/>
		
			<line fill="none" stroke="#000000" stroke-width="0.3" stroke-linejoin="round" x1="21.372" y1="-36.105" x2="69.371" y2="-84.105"/>
		
			<line fill="none" stroke="#000000" stroke-width="0.3" stroke-linejoin="round" x1="21.372" y1="-30.105" x2="75.371" y2="-84.105"/>
		
			<line fill="none" stroke="#000000" stroke-width="0.3" stroke-linejoin="round" x1="21.372" y1="-24.105" x2="81.371" y2="-84.105"/>
		
			<line fill="none" stroke="#000000" stroke-width="0.3" stroke-linejoin="round" x1="21.372" y1="-18.105" x2="87.371" y2="-84.105"/>
		
			<line fill="none" stroke="#000000" stroke-width="0.3" stroke-linejoin="round" x1="21.372" y1="-12.105" x2="93.371" y2="-84.105"/>
		
			<line fill="none" stroke="#000000" stroke-width="0.3" stroke-linejoin="round" x1="21.372" y1="-6.105" x2="99.371" y2="-84.105"/>
		
			<line fill="none" stroke="#000000" stroke-width="0.3" stroke-linejoin="round" x1="21.372" y1="-0.106" x2="105.371" y2="-84.105"/>
		
			<line fill="none" stroke="#000000" stroke-width="0.3" stroke-linejoin="round" x1="27.372" y1="-0.106" x2="105.371" y2="-78.105"/>
		
			<line fill="none" stroke="#000000" stroke-width="0.3" stroke-linejoin="round" x1="33.371" y1="-0.106" x2="105.371" y2="-72.105"/>
		
			<line fill="none" stroke="#000000" stroke-width="0.3" stroke-linejoin="round" x1="39.371" y1="-0.106" x2="105.371" y2="-66.105"/>
		
			<line fill="none" stroke="#000000" stroke-width="0.3" stroke-linejoin="round" x1="45.371" y1="-0.106" x2="105.371" y2="-60.105"/>
		
			<line fill="none" stroke="#000000" stroke-width="0.3" stroke-linejoin="round" x1="51.371" y1="-0.106" x2="105.371" y2="-54.105"/>
		
			<line fill="none" stroke="#000000" stroke-width="0.3" stroke-linejoin="round" x1="57.371" y1="-0.106" x2="105.371" y2="-48.105"/>
		
			<line fill="none" stroke="#000000" stroke-width="0.3" stroke-linejoin="round" x1="63.371" y1="-0.106" x2="105.371" y2="-42.105"/>
		
			<line fill="none" stroke="#000000" stroke-width="0.3" stroke-linejoin="round" x1="69.371" y1="-0.106" x2="105.371" y2="-36.105"/>
		
			<line fill="none" stroke="#000000" stroke-width="0.3" stroke-linejoin="round" x1="75.371" y1="-0.106" x2="105.371" y2="-30.105"/>
		
			<line fill="none" stroke="#000000" stroke-width="0.3" stroke-linejoin="round" x1="81.371" y1="-0.106" x2="105.371" y2="-24.105"/>
		
			<line fill="none" stroke="#000000" stroke-width="0.3" stroke-linejoin="round" x1="87.371" y1="-0.106" x2="105.371" y2="-18.105"/>
		
			<line fill="none" stroke="#000000" stroke-width="0.3" stroke-linejoin="round" x1="93.371" y1="-0.106" x2="105.371" y2="-12.105"/>
		
			<line fill="none" stroke="#000000" stroke-width="0.3" stroke-linejoin="bevel" x1="0.106" y1="-63.121" x2="10.106" y2="-73.121"/>
	</g>
</pattern>
<g id="aux" display="none">
	<text transform="matrix(1 0 0 1 120.4766 270.7095)" display="inline" font-family="'Helvetica'" font-size="10">254</text>
	<rect x="119.304" y="225.354" display="inline" fill="#81017E" width="34.016" height="34.016"/>
	<text transform="matrix(1 0 0 1 75.1221 270.7095)" display="inline" font-family="'Helvetica'" font-size="10">601</text>
	<rect x="73.949" y="225.352" display="inline" fill="#FFFF99" width="34.016" height="34.018"/>
	<text transform="matrix(1 0 0 1 29.7686 270.7095)" display="inline" font-family="'Helvetica'" font-size="10">607</text>
	<rect x="28.595" y="225.352" display="inline" fill="#FCFCCE" width="34.016" height="34.018"/>
	<text transform="matrix(1 0 0 1 29.7676 214.0142)" display="inline" font-family="'Helvetica'" font-size="10">Additional colors</text>
	<text transform="matrix(1 0 0 1 -107.4688 270.7095)" display="inline" font-family="'Helvetica'" font-size="10">361</text>
	<rect x="-107.469" y="225.354" display="inline" fill="#4FAD26" width="34.016" height="34.016"/>
	<text transform="matrix(1 0 0 1 -152.8228 270.7095)" display="inline" font-family="'Helvetica'" font-size="10">281</text>
	<rect x="-152.822" y="225.354" display="inline" fill="#0A1F62" width="34.016" height="34.016"/>
	<text transform="matrix(1 0 0 1 -198.1763 270.7095)" display="inline" font-family="'Helvetica'" font-size="10">159</text>
	<rect x="-198.176" y="225.352" display="inline" fill="#ED5100" width="34.016" height="34.018"/>
	<text transform="matrix(1 0 0 1 -198.1768 214.0142)" display="inline" font-family="'Helvetica'" font-size="10">Text colors (modified UPB Palette)</text>
	<text transform="matrix(1 0 0 1 210.0083 128.9727)" display="inline" font-family="'Helvetica'" font-size="10">420</text>
	<rect x="210.008" y="83.618" display="inline" fill="#D9D9D9" width="34.018" height="34.017"/>
	<text transform="matrix(1 0 0 1 164.6572 128.9736)" display="inline" font-family="'Helvetica'" font-size="10">376</text>
	<rect x="164.657" y="83.62" display="inline" fill="#7FC31C" width="34.013" height="34.016"/>
	<text transform="matrix(1 0 0 1 119.3037 128.9736)" display="inline" font-family="'Helvetica'" font-size="10">281</text>
	<rect x="119.304" y="83.618" display="inline" fill="#0A1F62" width="34.016" height="34.016"/>
	<text transform="matrix(1 0 0 1 73.9492 128.9736)" display="inline" font-family="'Helvetica'" font-size="10">152</text>
	<rect x="73.949" y="83.618" display="inline" fill="#FC7C00" width="34.017" height="34.018"/>
	<text transform="matrix(1 0 0 1 28.5947 128.9756)" display="inline" font-family="'Helvetica'" font-size="10">129</text>
	<rect x="28.595" y="83.62" display="inline" fill="#FFD637" width="34.015" height="34.017"/>
	<text transform="matrix(1 0 0 1 28.5947 72.2793)" display="inline" font-family="'Helvetica'" font-size="10">UPB Palette (Pantone solid coated)</text>
	<text transform="matrix(1 0 0 1 -62.1143 128.9727)" display="inline" font-family="'Helvetica'" font-size="10">206</text>
	<rect x="-62.114" y="83.618" display="inline" fill="#EE014C" width="34.016" height="34.017"/>
	<text transform="matrix(1 0 0 1 -107.4688 128.9727)" display="inline" font-family="'Helvetica'" font-size="10">179</text>
	<rect x="-107.469" y="83.618" display="inline" fill="#FF3600" width="34.016" height="34.018"/>
	<text transform="matrix(1 0 0 1 -152.8228 128.9727)" display="inline" font-family="'Helvetica'" font-size="10">151</text>
	<rect x="-152.822" y="83.618" display="inline" fill="#FF850D" width="34.015" height="34.017"/>
	<text transform="matrix(1 0 0 1 -198.1763 128.9727)" display="inline" font-family="'Helvetica'" font-size="10">116</text>
	<rect x="-198.177" y="83.618" display="inline" fill="#FFD600" width="34.015" height="34.018"/>
	<text transform="matrix(1 0 0 1 -62.1143 187.0825)" display="inline" font-family="'Helvetica'" font-size="10">293</text>
	<rect x="-62.114" y="140.311" display="inline" fill="#0B4499" width="34.016" height="34.018"/>
	<text transform="matrix(1 0 0 1 -107.4688 187.0825)" display="inline" font-family="'Helvetica'" font-size="10">308</text>
	<rect x="-107.469" y="140.31" display="inline" fill="#005067" width="34.016" height="34.019"/>
	<text transform="matrix(1 0 0 1 -152.8228 187.0825)" display="inline" font-family="'Helvetica'" font-size="10">327</text>
	<rect x="-152.823" y="140.311" display="inline" fill="#017C70" width="34.015" height="34.018"/>
	<text transform="matrix(1 0 0 1 -198.1763 187.0825)" display="inline" font-family="'Helvetica'" font-size="10">368</text>
	<rect x="-198.176" y="140.31" display="inline" fill="#6EBB1F" width="34.016" height="34.019"/>
	<text transform="matrix(1 0 0 1 -198.1772 72.2793)" display="inline" font-family="'Helvetica'" font-size="10">BUW Palette (Pantone solid coated)</text>
	<text transform="matrix(1 0 0 1 -198.4248 -29.4365)" display="inline" font-family="'Helvetica'" font-size="14">\small (14.4pt) » Helvetica 14pt</text>
	<text transform="matrix(1 0 0 1 -198.4248 -58.1104)" display="inline" font-family="'Helvetica'" font-size="17">\normalsize (17.28pt) &gt; Helvetica 17pt</text>
	<text transform="matrix(1 0 0 1 -198.4248 -86.457)" display="inline" font-family="'Helvetica'" font-size="21">\large (20.74pt) » Helvetica 21pt</text>
	<text transform="matrix(1 0 0 1 -198.4248 -1.4175)" display="inline" font-family="'CMSY10'" font-size="14">CALLIGRAPHIC</text>
	<text transform="matrix(1 0 0 1 -198.4248 26.9287)" display="inline"><tspan x="0" y="0" font-family="'CMBSY10'" font-size="14">CALLIGRAPHIC</tspan><tspan x="131.459" y="0" font-family="'Helvetica'" font-size="14"> </tspan><tspan x="135.352" y="0" font-family="'CMBSY10'" font-size="14">BOLD</tspan></text>
	
		<text transform="matrix(1 0 0 1 198.4272 -79.3701)" display="inline" fill="#808080" font-family="'MyriadPro-Regular'" font-size="18">Ü</text>
	<path display="inline" fill="none" stroke="#000000" stroke-width="0.75" d="M235.937-54.645c0,0-0.328-0.879-0.729-1.953
		c-0.4-1.075-1.455-1.954-2.346-1.954c-0.887,0-3.445,0-5.688,0h-4.637c-2.242,0-4.801-0.44-5.688-0.976
		c-0.889-0.537-1.617-1.855-1.617-2.93s0-1.074,0,0s-0.725,2.393-1.613,2.93c-0.887,0.536-3.449,0.976-5.688,0.976h-4.742
		c-2.236,0-4.795,0-5.684,0c-0.891,0-1.945,0.879-2.346,1.954c-0.4,1.074-0.729,1.953-0.729,1.953"/>
	<rect x="243.782" y="225.353" display="inline" fill="url(#Anhydrite)" width="34.016" height="34.018"/>
	<rect x="198.426" y="225.353" display="inline" fill="url(#Gypsum)" width="34.016" height="34.018"/>
	<text transform="matrix(1 0 0 1 198.4263 214.0151)" display="inline" font-family="'Helvetica'" font-size="10">Patterns</text>
	<g display="inline">
		<text transform="matrix(1 0 0 1 539.2261 357.9829)"><tspan x="0" y="0" fill="none" font-family="'Helvetica'" font-size="14">0</tspan><tspan x="7.784" y="0" fill="#800080" font-family="'Helvetica'" font-size="14">9:7 (Lecturenotes legacy)</tspan></text>
		<rect x="-226.771" y="-143.15" fill="none" stroke="#800080" stroke-width="0.5" width="648.281" height="504.283"/>
	</g>
	<g display="inline">
		<text transform="matrix(1 0 0 1 539.2261 320.2827)" fill="#008000" font-family="'Helvetica'" font-size="14">17:12 (A4 landscape)</text>
		<rect x="-226.771" y="-143.15" fill="none" stroke="#008000" stroke-width="0.5" width="679.746" height="480.756"/>
	</g>
	<g display="inline">
		<rect x="-226.771" y="-143.15" fill="none" stroke="#ED5100" stroke-width="0.5" width="700.154" height="466.867"/>
		<text transform="matrix(1 0 0 1 539.2261 301.4321)"><tspan x="0" y="0" fill="none" font-family="'Helvetica'" font-size="14">0</tspan><tspan x="7.784" y="0" fill="#E06C08" font-family="'Helvetica'" font-size="14">3:2</tspan></text>
	</g>
	<g display="inline">
		<g>
			<text transform="matrix(1 0 0 1 539.2261 282.5825)" fill="#0A1F62" font-family="'Helvetica'" font-size="14">16:9</text>
			<text transform="matrix(1 0 0 1 539.2261 282.5825)" fill="#0A1F62" font-family="'Helvetica'" font-size="14">16:9</text>
		</g>
		<rect x="-226.771" y="-143.15" fill="none" stroke="#0A1F62" stroke-width="0.5" width="762.234" height="428.883"/>
	</g>
	<g display="inline">
		<rect x="170.26" y="-131.812" fill="none" stroke="#000000" stroke-width="0.5" width="226.591" height="130.395"/>
		<text transform="matrix(1 0 0 1 175.9297 -114.8032)" font-family="'Helvetica'" font-size="14">Useful symbols</text>
	</g>
	<g display="inline">
		<text transform="matrix(1 0 0 1 539.2261 339.1333)"><tspan x="0" y="0" fill="none" font-family="'Helvetica-Bold'" font-size="14">0</tspan><tspan x="7.784" y="0" font-family="'Helvetica-Bold'" font-size="14">4:3</tspan></text>
		<rect x="-226.771" y="-143.15" fill="none" stroke="#000000" width="660.187" height="495.213"/>
	</g>
	<text transform="matrix(1 0 0 1 -198.4248 -114.8032)" display="inline" font-family="'Helvetica'" font-size="14">size17r.clo:</text>
</g>
<g id="frame">
</g>
<g id="_x0031__1_">
	<g>
		<rect fill="#FFFFFF" width="5.67" height="5.819"/>
		<rect x="42.52" fill="#FFFFFF" width="5.67" height="5.819"/>
		<rect x="34.016" fill="#FFFFFF" width="5.67" height="5.819"/>
		<rect x="25.512" fill="#FFFFFF" width="5.67" height="5.819"/>
		<rect x="17.008" fill="#FFFFFF" width="5.67" height="5.819"/>
		<rect x="8.504" fill="#FFFFFF" width="5.67" height="5.819"/>
		<rect x="51.023" fill="#FFFFFF" width="5.67" height="5.819"/>
		<rect y="9.892" fill="#FFFFFF" width="5.67" height="5.819"/>
		<rect x="42.52" y="9.892" fill="#FFFFFF" width="5.67" height="5.819"/>
		<rect x="34.016" y="9.892" fill="#FFFFFF" width="5.67" height="5.819"/>
		<rect x="25.512" y="9.892" fill="#FFFFFF" width="5.67" height="5.819"/>
		<rect x="17.008" y="9.892" fill="#FFFFFF" width="5.67" height="5.819"/>
		<rect x="8.504" y="9.892" fill="#FFFFFF" width="5.67" height="5.819"/>
		<rect x="51.023" y="9.892" fill="#FFFFFF" width="5.67" height="5.819"/>
		<rect y="19.783" fill="#FFFFFF" width="5.67" height="5.819"/>
		<rect x="42.52" y="19.783" fill="#FFFFFF" width="5.67" height="5.819"/>
		<rect x="34.016" y="19.783" fill="#FFFFFF" width="5.67" height="5.819"/>
		<rect x="25.512" y="19.783" fill="#FFFFFF" width="5.67" height="5.819"/>
		<rect x="17.008" y="19.783" fill="#FFFFFF" width="5.67" height="5.819"/>
		<rect x="8.504" y="19.783" fill="#FFFFFF" width="5.67" height="5.819"/>
		<rect x="51.023" y="19.783" fill="#FFFFFF" width="5.67" height="5.819"/>
		<rect y="29.673" fill="#FFFFFF" width="5.67" height="5.819"/>
		<rect x="42.52" y="29.673" fill="#FFFFFF" width="5.67" height="5.819"/>
		<rect x="34.016" y="29.673" fill="#FFFFFF" width="5.67" height="5.819"/>
		<rect x="25.512" y="29.673" fill="#FFFFFF" width="5.67" height="5.819"/>
		<rect x="17.008" y="29.673" fill="#FFFFFF" width="5.67" height="5.819"/>
		<rect x="8.504" y="29.673" fill="#FFFFFF" width="5.67" height="5.819"/>
		<rect x="51.023" y="29.673" fill="#FFFFFF" width="5.67" height="5.819"/>
		<rect y="39.565" fill="#FFFFFF" width="5.67" height="5.819"/>
		<rect x="42.52" y="39.565" fill="#FFFFFF" width="5.67" height="5.819"/>
		<rect x="34.016" y="39.565" fill="#FFFFFF" width="5.67" height="5.819"/>
		<rect x="25.512" y="39.565" fill="#FFFFFF" width="5.67" height="5.819"/>
		<rect x="17.008" y="39.565" fill="#FFFFFF" width="5.67" height="5.819"/>
		<rect x="8.504" y="39.565" fill="#FFFFFF" width="5.67" height="5.819"/>
		<rect x="51.023" y="39.565" fill="#FFFFFF" width="5.67" height="5.819"/>
		<rect y="49.457" fill="#FFFFFF" width="5.67" height="5.818"/>
		<rect x="42.52" y="49.457" fill="#FFFFFF" width="5.67" height="5.818"/>
		<rect x="34.016" y="49.457" fill="#FFFFFF" width="5.67" height="5.818"/>
		<rect x="25.512" y="49.457" fill="#FFFFFF" width="5.67" height="5.818"/>
		<rect x="17.008" y="49.457" fill="#FFFFFF" width="5.67" height="5.818"/>
		<rect x="8.504" y="49.457" fill="#FFFFFF" width="5.67" height="5.818"/>
		<rect x="51.023" y="49.457" fill="#FFFFFF" width="5.67" height="5.818"/>
	</g>
</g>
<g id="_x0032_">
</g>
</svg>
